<?xml version="1.0" encoding="utf-8" standalone="no"?>
<!DOCTYPE svg PUBLIC "-//W3C//DTD SVG 1.1//EN"
  "http://www.w3.org/Graphics/SVG/1.1/DTD/svg11.dtd">
<svg height="360pt" version="1.1" viewBox="0 0 720 360" width="720pt" xmlns="http://www.w3.org/2000/svg" xmlns:xlink="http://www.w3.org/1999/xlink">
 <metadata>
  <rdf:RDF xmlns:cc="http://creativecommons.org/ns#" xmlns:dc="http://purl.org/dc/elements/1.1/" xmlns:rdf="http://www.w3.org/1999/02/22-rdf-syntax-ns#">
   <cc:Work>
    <dc:type rdf:resource="http://purl.org/dc/dcmitype/StillImage"/>
    <dc:date>2022-04-12T14:10:40.217935</dc:date>
    <dc:format>image/svg+xml</dc:format>
    <dc:creator>
     <cc:Agent>
      <dc:title>Matplotlib v3.4.3, https://matplotlib.org/</dc:title>
     </cc:Agent>
    </dc:creator>
   </cc:Work>
  </rdf:RDF>
 </metadata>
 <defs>
  <style type="text/css">*{stroke-linecap:butt;stroke-linejoin:round;}</style>
 </defs>
 <g id="figure_1">
  <g id="patch_1">
   <path d="M 0 360 
L 720 360 
L 720 0 
L 0 0 
z
" style="fill:#ffffff;"/>
  </g>
  <g id="axes_1">
   <g id="patch_2">
    <path d="M 44.783053 326.64351 
L 704.86851 326.64351 
L 704.86851 3.00024 
L 44.783053 3.00024 
z
" style="fill:#ffffff;"/>
   </g>
   <g id="matplotlib.axis_1">
    <g id="xtick_1">
     <g id="line2d_1">
      <path clip-path="url(#p4926153d49)" d="M 44.783053 326.64351 
L 44.783053 3.00024 
" style="fill:none;stroke:#b0b0b0;stroke-linecap:square;stroke-width:0.8;"/>
     </g>
     <g id="line2d_2">
      <defs>
       <path d="M 0 0 
L 0 3.5 
" id="med86fd3a36" style="stroke:#000000;stroke-width:0.8;"/>
      </defs>
      <g>
       <use style="stroke:#000000;stroke-width:0.8;" x="44.783053" xlink:href="#med86fd3a36" y="326.64351"/>
      </g>
     </g>
     <g id="text_1">
      <!-- Mon. -->
      <g transform="translate(32.651803 341.241947)scale(0.1 -0.1)">
       <defs>
        <path d="M 628 4666 
L 1569 4666 
L 2759 1491 
L 3956 4666 
L 4897 4666 
L 4897 0 
L 4281 0 
L 4281 4097 
L 3078 897 
L 2444 897 
L 1241 4097 
L 1241 0 
L 628 0 
L 628 4666 
z
" id="DejaVuSans-4d" transform="scale(0.015625)"/>
        <path d="M 1959 3097 
Q 1497 3097 1228 2736 
Q 959 2375 959 1747 
Q 959 1119 1226 758 
Q 1494 397 1959 397 
Q 2419 397 2687 759 
Q 2956 1122 2956 1747 
Q 2956 2369 2687 2733 
Q 2419 3097 1959 3097 
z
M 1959 3584 
Q 2709 3584 3137 3096 
Q 3566 2609 3566 1747 
Q 3566 888 3137 398 
Q 2709 -91 1959 -91 
Q 1206 -91 779 398 
Q 353 888 353 1747 
Q 353 2609 779 3096 
Q 1206 3584 1959 3584 
z
" id="DejaVuSans-6f" transform="scale(0.015625)"/>
        <path d="M 3513 2113 
L 3513 0 
L 2938 0 
L 2938 2094 
Q 2938 2591 2744 2837 
Q 2550 3084 2163 3084 
Q 1697 3084 1428 2787 
Q 1159 2491 1159 1978 
L 1159 0 
L 581 0 
L 581 3500 
L 1159 3500 
L 1159 2956 
Q 1366 3272 1645 3428 
Q 1925 3584 2291 3584 
Q 2894 3584 3203 3211 
Q 3513 2838 3513 2113 
z
" id="DejaVuSans-6e" transform="scale(0.015625)"/>
        <path d="M 684 794 
L 1344 794 
L 1344 0 
L 684 0 
L 684 794 
z
" id="DejaVuSans-2e" transform="scale(0.015625)"/>
       </defs>
       <use xlink:href="#DejaVuSans-4d"/>
       <use x="86.279297" xlink:href="#DejaVuSans-6f"/>
       <use x="147.460938" xlink:href="#DejaVuSans-6e"/>
       <use x="210.839844" xlink:href="#DejaVuSans-2e"/>
      </g>
     </g>
    </g>
    <g id="xtick_2">
     <g id="line2d_3">
      <path clip-path="url(#p4926153d49)" d="M 139.080975 326.64351 
L 139.080975 3.00024 
" style="fill:none;stroke:#b0b0b0;stroke-linecap:square;stroke-width:0.8;"/>
     </g>
     <g id="line2d_4">
      <g>
       <use style="stroke:#000000;stroke-width:0.8;" x="139.080975" xlink:href="#med86fd3a36" y="326.64351"/>
      </g>
     </g>
     <g id="text_2">
      <!-- Tue. -->
      <g transform="translate(128.948944 341.241947)scale(0.1 -0.1)">
       <defs>
        <path d="M -19 4666 
L 3928 4666 
L 3928 4134 
L 2272 4134 
L 2272 0 
L 1638 0 
L 1638 4134 
L -19 4134 
L -19 4666 
z
" id="DejaVuSans-54" transform="scale(0.015625)"/>
        <path d="M 544 1381 
L 544 3500 
L 1119 3500 
L 1119 1403 
Q 1119 906 1312 657 
Q 1506 409 1894 409 
Q 2359 409 2629 706 
Q 2900 1003 2900 1516 
L 2900 3500 
L 3475 3500 
L 3475 0 
L 2900 0 
L 2900 538 
Q 2691 219 2414 64 
Q 2138 -91 1772 -91 
Q 1169 -91 856 284 
Q 544 659 544 1381 
z
M 1991 3584 
L 1991 3584 
z
" id="DejaVuSans-75" transform="scale(0.015625)"/>
        <path d="M 3597 1894 
L 3597 1613 
L 953 1613 
Q 991 1019 1311 708 
Q 1631 397 2203 397 
Q 2534 397 2845 478 
Q 3156 559 3463 722 
L 3463 178 
Q 3153 47 2828 -22 
Q 2503 -91 2169 -91 
Q 1331 -91 842 396 
Q 353 884 353 1716 
Q 353 2575 817 3079 
Q 1281 3584 2069 3584 
Q 2775 3584 3186 3129 
Q 3597 2675 3597 1894 
z
M 3022 2063 
Q 3016 2534 2758 2815 
Q 2500 3097 2075 3097 
Q 1594 3097 1305 2825 
Q 1016 2553 972 2059 
L 3022 2063 
z
" id="DejaVuSans-65" transform="scale(0.015625)"/>
       </defs>
       <use xlink:href="#DejaVuSans-54"/>
       <use x="45.958984" xlink:href="#DejaVuSans-75"/>
       <use x="109.337891" xlink:href="#DejaVuSans-65"/>
       <use x="170.861328" xlink:href="#DejaVuSans-2e"/>
      </g>
     </g>
    </g>
    <g id="xtick_3">
     <g id="line2d_5">
      <path clip-path="url(#p4926153d49)" d="M 233.378897 326.64351 
L 233.378897 3.00024 
" style="fill:none;stroke:#b0b0b0;stroke-linecap:square;stroke-width:0.8;"/>
     </g>
     <g id="line2d_6">
      <g>
       <use style="stroke:#000000;stroke-width:0.8;" x="233.378897" xlink:href="#med86fd3a36" y="326.64351"/>
      </g>
     </g>
     <g id="text_3">
      <!-- Wed. -->
      <g transform="translate(220.889054 341.241947)scale(0.1 -0.1)">
       <defs>
        <path d="M 213 4666 
L 850 4666 
L 1831 722 
L 2809 4666 
L 3519 4666 
L 4500 722 
L 5478 4666 
L 6119 4666 
L 4947 0 
L 4153 0 
L 3169 4050 
L 2175 0 
L 1381 0 
L 213 4666 
z
" id="DejaVuSans-57" transform="scale(0.015625)"/>
        <path d="M 2906 2969 
L 2906 4863 
L 3481 4863 
L 3481 0 
L 2906 0 
L 2906 525 
Q 2725 213 2448 61 
Q 2172 -91 1784 -91 
Q 1150 -91 751 415 
Q 353 922 353 1747 
Q 353 2572 751 3078 
Q 1150 3584 1784 3584 
Q 2172 3584 2448 3432 
Q 2725 3281 2906 2969 
z
M 947 1747 
Q 947 1113 1208 752 
Q 1469 391 1925 391 
Q 2381 391 2643 752 
Q 2906 1113 2906 1747 
Q 2906 2381 2643 2742 
Q 2381 3103 1925 3103 
Q 1469 3103 1208 2742 
Q 947 2381 947 1747 
z
" id="DejaVuSans-64" transform="scale(0.015625)"/>
       </defs>
       <use xlink:href="#DejaVuSans-57"/>
       <use x="93.001953" xlink:href="#DejaVuSans-65"/>
       <use x="154.525391" xlink:href="#DejaVuSans-64"/>
       <use x="218.001953" xlink:href="#DejaVuSans-2e"/>
      </g>
     </g>
    </g>
    <g id="xtick_4">
     <g id="line2d_7">
      <path clip-path="url(#p4926153d49)" d="M 327.67682 326.64351 
L 327.67682 3.00024 
" style="fill:none;stroke:#b0b0b0;stroke-linecap:square;stroke-width:0.8;"/>
     </g>
     <g id="line2d_8">
      <g>
       <use style="stroke:#000000;stroke-width:0.8;" x="327.67682" xlink:href="#med86fd3a36" y="326.64351"/>
      </g>
     </g>
     <g id="text_4">
      <!-- Thur. -->
      <g transform="translate(315.097132 341.241947)scale(0.1 -0.1)">
       <defs>
        <path d="M 3513 2113 
L 3513 0 
L 2938 0 
L 2938 2094 
Q 2938 2591 2744 2837 
Q 2550 3084 2163 3084 
Q 1697 3084 1428 2787 
Q 1159 2491 1159 1978 
L 1159 0 
L 581 0 
L 581 4863 
L 1159 4863 
L 1159 2956 
Q 1366 3272 1645 3428 
Q 1925 3584 2291 3584 
Q 2894 3584 3203 3211 
Q 3513 2838 3513 2113 
z
" id="DejaVuSans-68" transform="scale(0.015625)"/>
        <path d="M 2631 2963 
Q 2534 3019 2420 3045 
Q 2306 3072 2169 3072 
Q 1681 3072 1420 2755 
Q 1159 2438 1159 1844 
L 1159 0 
L 581 0 
L 581 3500 
L 1159 3500 
L 1159 2956 
Q 1341 3275 1631 3429 
Q 1922 3584 2338 3584 
Q 2397 3584 2469 3576 
Q 2541 3569 2628 3553 
L 2631 2963 
z
" id="DejaVuSans-72" transform="scale(0.015625)"/>
       </defs>
       <use xlink:href="#DejaVuSans-54"/>
       <use x="61.083984" xlink:href="#DejaVuSans-68"/>
       <use x="124.462891" xlink:href="#DejaVuSans-75"/>
       <use x="187.841797" xlink:href="#DejaVuSans-72"/>
       <use x="219.830078" xlink:href="#DejaVuSans-2e"/>
      </g>
     </g>
    </g>
    <g id="xtick_5">
     <g id="line2d_9">
      <path clip-path="url(#p4926153d49)" d="M 421.974742 326.64351 
L 421.974742 3.00024 
" style="fill:none;stroke:#b0b0b0;stroke-linecap:square;stroke-width:0.8;"/>
     </g>
     <g id="line2d_10">
      <g>
       <use style="stroke:#000000;stroke-width:0.8;" x="421.974742" xlink:href="#med86fd3a36" y="326.64351"/>
      </g>
     </g>
     <g id="text_5">
      <!-- Fri. -->
      <g transform="translate(414.427867 341.241947)scale(0.1 -0.1)">
       <defs>
        <path d="M 628 4666 
L 3309 4666 
L 3309 4134 
L 1259 4134 
L 1259 2759 
L 3109 2759 
L 3109 2228 
L 1259 2228 
L 1259 0 
L 628 0 
L 628 4666 
z
" id="DejaVuSans-46" transform="scale(0.015625)"/>
        <path d="M 603 3500 
L 1178 3500 
L 1178 0 
L 603 0 
L 603 3500 
z
M 603 4863 
L 1178 4863 
L 1178 4134 
L 603 4134 
L 603 4863 
z
" id="DejaVuSans-69" transform="scale(0.015625)"/>
       </defs>
       <use xlink:href="#DejaVuSans-46"/>
       <use x="50.269531" xlink:href="#DejaVuSans-72"/>
       <use x="91.382812" xlink:href="#DejaVuSans-69"/>
       <use x="119.166016" xlink:href="#DejaVuSans-2e"/>
      </g>
     </g>
    </g>
    <g id="xtick_6">
     <g id="line2d_11">
      <path clip-path="url(#p4926153d49)" d="M 516.272665 326.64351 
L 516.272665 3.00024 
" style="fill:none;stroke:#b0b0b0;stroke-linecap:square;stroke-width:0.8;"/>
     </g>
     <g id="line2d_12">
      <g>
       <use style="stroke:#000000;stroke-width:0.8;" x="516.272665" xlink:href="#med86fd3a36" y="326.64351"/>
      </g>
     </g>
     <g id="text_6">
      <!-- Sat. -->
      <g transform="translate(506.485165 341.241947)scale(0.1 -0.1)">
       <defs>
        <path d="M 3425 4513 
L 3425 3897 
Q 3066 4069 2747 4153 
Q 2428 4238 2131 4238 
Q 1616 4238 1336 4038 
Q 1056 3838 1056 3469 
Q 1056 3159 1242 3001 
Q 1428 2844 1947 2747 
L 2328 2669 
Q 3034 2534 3370 2195 
Q 3706 1856 3706 1288 
Q 3706 609 3251 259 
Q 2797 -91 1919 -91 
Q 1588 -91 1214 -16 
Q 841 59 441 206 
L 441 856 
Q 825 641 1194 531 
Q 1563 422 1919 422 
Q 2459 422 2753 634 
Q 3047 847 3047 1241 
Q 3047 1584 2836 1778 
Q 2625 1972 2144 2069 
L 1759 2144 
Q 1053 2284 737 2584 
Q 422 2884 422 3419 
Q 422 4038 858 4394 
Q 1294 4750 2059 4750 
Q 2388 4750 2728 4690 
Q 3069 4631 3425 4513 
z
" id="DejaVuSans-53" transform="scale(0.015625)"/>
        <path d="M 2194 1759 
Q 1497 1759 1228 1600 
Q 959 1441 959 1056 
Q 959 750 1161 570 
Q 1363 391 1709 391 
Q 2188 391 2477 730 
Q 2766 1069 2766 1631 
L 2766 1759 
L 2194 1759 
z
M 3341 1997 
L 3341 0 
L 2766 0 
L 2766 531 
Q 2569 213 2275 61 
Q 1981 -91 1556 -91 
Q 1019 -91 701 211 
Q 384 513 384 1019 
Q 384 1609 779 1909 
Q 1175 2209 1959 2209 
L 2766 2209 
L 2766 2266 
Q 2766 2663 2505 2880 
Q 2244 3097 1772 3097 
Q 1472 3097 1187 3025 
Q 903 2953 641 2809 
L 641 3341 
Q 956 3463 1253 3523 
Q 1550 3584 1831 3584 
Q 2591 3584 2966 3190 
Q 3341 2797 3341 1997 
z
" id="DejaVuSans-61" transform="scale(0.015625)"/>
        <path d="M 1172 4494 
L 1172 3500 
L 2356 3500 
L 2356 3053 
L 1172 3053 
L 1172 1153 
Q 1172 725 1289 603 
Q 1406 481 1766 481 
L 2356 481 
L 2356 0 
L 1766 0 
Q 1100 0 847 248 
Q 594 497 594 1153 
L 594 3053 
L 172 3053 
L 172 3500 
L 594 3500 
L 594 4494 
L 1172 4494 
z
" id="DejaVuSans-74" transform="scale(0.015625)"/>
       </defs>
       <use xlink:href="#DejaVuSans-53"/>
       <use x="63.476562" xlink:href="#DejaVuSans-61"/>
       <use x="124.755859" xlink:href="#DejaVuSans-74"/>
       <use x="163.964844" xlink:href="#DejaVuSans-2e"/>
      </g>
     </g>
    </g>
    <g id="xtick_7">
     <g id="line2d_13">
      <path clip-path="url(#p4926153d49)" d="M 610.570587 326.64351 
L 610.570587 3.00024 
" style="fill:none;stroke:#b0b0b0;stroke-linecap:square;stroke-width:0.8;"/>
     </g>
     <g id="line2d_14">
      <g>
       <use style="stroke:#000000;stroke-width:0.8;" x="610.570587" xlink:href="#med86fd3a36" y="326.64351"/>
      </g>
     </g>
     <g id="text_7">
      <!-- Sun. -->
      <g transform="translate(599.469806 341.241947)scale(0.1 -0.1)">
       <use xlink:href="#DejaVuSans-53"/>
       <use x="63.476562" xlink:href="#DejaVuSans-75"/>
       <use x="126.855469" xlink:href="#DejaVuSans-6e"/>
       <use x="190.234375" xlink:href="#DejaVuSans-2e"/>
      </g>
     </g>
    </g>
    <g id="xtick_8">
     <g id="line2d_15">
      <path clip-path="url(#p4926153d49)" d="M 704.86851 326.64351 
L 704.86851 3.00024 
" style="fill:none;stroke:#b0b0b0;stroke-linecap:square;stroke-width:0.8;"/>
     </g>
     <g id="line2d_16">
      <g>
       <use style="stroke:#000000;stroke-width:0.8;" x="704.86851" xlink:href="#med86fd3a36" y="326.64351"/>
      </g>
     </g>
     <g id="text_8">
      <!-- Mon. -->
      <g transform="translate(692.73726 341.241947)scale(0.1 -0.1)">
       <use xlink:href="#DejaVuSans-4d"/>
       <use x="86.279297" xlink:href="#DejaVuSans-6f"/>
       <use x="147.460938" xlink:href="#DejaVuSans-6e"/>
       <use x="210.839844" xlink:href="#DejaVuSans-2e"/>
      </g>
     </g>
    </g>
    <g id="text_9">
     <!-- Day of the week -->
     <g transform="translate(334.022656 354.920073)scale(0.1 -0.1)">
      <defs>
       <path d="M 1259 4147 
L 1259 519 
L 2022 519 
Q 2988 519 3436 956 
Q 3884 1394 3884 2338 
Q 3884 3275 3436 3711 
Q 2988 4147 2022 4147 
L 1259 4147 
z
M 628 4666 
L 1925 4666 
Q 3281 4666 3915 4102 
Q 4550 3538 4550 2338 
Q 4550 1131 3912 565 
Q 3275 0 1925 0 
L 628 0 
L 628 4666 
z
" id="DejaVuSans-44" transform="scale(0.015625)"/>
       <path d="M 2059 -325 
Q 1816 -950 1584 -1140 
Q 1353 -1331 966 -1331 
L 506 -1331 
L 506 -850 
L 844 -850 
Q 1081 -850 1212 -737 
Q 1344 -625 1503 -206 
L 1606 56 
L 191 3500 
L 800 3500 
L 1894 763 
L 2988 3500 
L 3597 3500 
L 2059 -325 
z
" id="DejaVuSans-79" transform="scale(0.015625)"/>
       <path id="DejaVuSans-20" transform="scale(0.015625)"/>
       <path d="M 2375 4863 
L 2375 4384 
L 1825 4384 
Q 1516 4384 1395 4259 
Q 1275 4134 1275 3809 
L 1275 3500 
L 2222 3500 
L 2222 3053 
L 1275 3053 
L 1275 0 
L 697 0 
L 697 3053 
L 147 3053 
L 147 3500 
L 697 3500 
L 697 3744 
Q 697 4328 969 4595 
Q 1241 4863 1831 4863 
L 2375 4863 
z
" id="DejaVuSans-66" transform="scale(0.015625)"/>
       <path d="M 269 3500 
L 844 3500 
L 1563 769 
L 2278 3500 
L 2956 3500 
L 3675 769 
L 4391 3500 
L 4966 3500 
L 4050 0 
L 3372 0 
L 2619 2869 
L 1863 0 
L 1184 0 
L 269 3500 
z
" id="DejaVuSans-77" transform="scale(0.015625)"/>
       <path d="M 581 4863 
L 1159 4863 
L 1159 1991 
L 2875 3500 
L 3609 3500 
L 1753 1863 
L 3688 0 
L 2938 0 
L 1159 1709 
L 1159 0 
L 581 0 
L 581 4863 
z
" id="DejaVuSans-6b" transform="scale(0.015625)"/>
      </defs>
      <use xlink:href="#DejaVuSans-44"/>
      <use x="77.001953" xlink:href="#DejaVuSans-61"/>
      <use x="138.28125" xlink:href="#DejaVuSans-79"/>
      <use x="197.460938" xlink:href="#DejaVuSans-20"/>
      <use x="229.248047" xlink:href="#DejaVuSans-6f"/>
      <use x="290.429688" xlink:href="#DejaVuSans-66"/>
      <use x="325.634766" xlink:href="#DejaVuSans-20"/>
      <use x="357.421875" xlink:href="#DejaVuSans-74"/>
      <use x="396.630859" xlink:href="#DejaVuSans-68"/>
      <use x="460.009766" xlink:href="#DejaVuSans-65"/>
      <use x="521.533203" xlink:href="#DejaVuSans-20"/>
      <use x="553.320312" xlink:href="#DejaVuSans-77"/>
      <use x="635.107422" xlink:href="#DejaVuSans-65"/>
      <use x="696.630859" xlink:href="#DejaVuSans-65"/>
      <use x="758.154297" xlink:href="#DejaVuSans-6b"/>
     </g>
    </g>
   </g>
   <g id="matplotlib.axis_2">
    <g id="ytick_1">
     <g id="line2d_17">
      <path clip-path="url(#p4926153d49)" d="M 44.783053 262.890594 
L 704.86851 262.890594 
" style="fill:none;stroke:#b0b0b0;stroke-linecap:square;stroke-width:0.8;"/>
     </g>
     <g id="line2d_18">
      <defs>
       <path d="M 0 0 
L -3.5 0 
" id="m536b5df631" style="stroke:#000000;stroke-width:0.8;"/>
      </defs>
      <g>
       <use style="stroke:#000000;stroke-width:0.8;" x="44.783053" xlink:href="#m536b5df631" y="262.890594"/>
      </g>
     </g>
     <g id="text_10">
      <!-- −20 -->
      <g transform="translate(16.678365 266.689813)scale(0.1 -0.1)">
       <defs>
        <path d="M 678 2272 
L 4684 2272 
L 4684 1741 
L 678 1741 
L 678 2272 
z
" id="DejaVuSans-2212" transform="scale(0.015625)"/>
        <path d="M 1228 531 
L 3431 531 
L 3431 0 
L 469 0 
L 469 531 
Q 828 903 1448 1529 
Q 2069 2156 2228 2338 
Q 2531 2678 2651 2914 
Q 2772 3150 2772 3378 
Q 2772 3750 2511 3984 
Q 2250 4219 1831 4219 
Q 1534 4219 1204 4116 
Q 875 4013 500 3803 
L 500 4441 
Q 881 4594 1212 4672 
Q 1544 4750 1819 4750 
Q 2544 4750 2975 4387 
Q 3406 4025 3406 3419 
Q 3406 3131 3298 2873 
Q 3191 2616 2906 2266 
Q 2828 2175 2409 1742 
Q 1991 1309 1228 531 
z
" id="DejaVuSans-32" transform="scale(0.015625)"/>
        <path d="M 2034 4250 
Q 1547 4250 1301 3770 
Q 1056 3291 1056 2328 
Q 1056 1369 1301 889 
Q 1547 409 2034 409 
Q 2525 409 2770 889 
Q 3016 1369 3016 2328 
Q 3016 3291 2770 3770 
Q 2525 4250 2034 4250 
z
M 2034 4750 
Q 2819 4750 3233 4129 
Q 3647 3509 3647 2328 
Q 3647 1150 3233 529 
Q 2819 -91 2034 -91 
Q 1250 -91 836 529 
Q 422 1150 422 2328 
Q 422 3509 836 4129 
Q 1250 4750 2034 4750 
z
" id="DejaVuSans-30" transform="scale(0.015625)"/>
       </defs>
       <use xlink:href="#DejaVuSans-2212"/>
       <use x="83.789062" xlink:href="#DejaVuSans-32"/>
       <use x="147.412109" xlink:href="#DejaVuSans-30"/>
      </g>
     </g>
    </g>
    <g id="ytick_2">
     <g id="line2d_19">
      <path clip-path="url(#p4926153d49)" d="M 44.783053 191.120586 
L 704.86851 191.120586 
" style="fill:none;stroke:#b0b0b0;stroke-linecap:square;stroke-width:0.8;"/>
     </g>
     <g id="line2d_20">
      <g>
       <use style="stroke:#000000;stroke-width:0.8;" x="44.783053" xlink:href="#m536b5df631" y="191.120586"/>
      </g>
     </g>
     <g id="text_11">
      <!-- 0 -->
      <g transform="translate(31.420553 194.919805)scale(0.1 -0.1)">
       <use xlink:href="#DejaVuSans-30"/>
      </g>
     </g>
    </g>
    <g id="ytick_3">
     <g id="line2d_21">
      <path clip-path="url(#p4926153d49)" d="M 44.783053 119.350578 
L 704.86851 119.350578 
" style="fill:none;stroke:#b0b0b0;stroke-linecap:square;stroke-width:0.8;"/>
     </g>
     <g id="line2d_22">
      <g>
       <use style="stroke:#000000;stroke-width:0.8;" x="44.783053" xlink:href="#m536b5df631" y="119.350578"/>
      </g>
     </g>
     <g id="text_12">
      <!-- 20 -->
      <g transform="translate(25.058053 123.149797)scale(0.1 -0.1)">
       <use xlink:href="#DejaVuSans-32"/>
       <use x="63.623047" xlink:href="#DejaVuSans-30"/>
      </g>
     </g>
    </g>
    <g id="ytick_4">
     <g id="line2d_23">
      <path clip-path="url(#p4926153d49)" d="M 44.783053 47.58057 
L 704.86851 47.58057 
" style="fill:none;stroke:#b0b0b0;stroke-linecap:square;stroke-width:0.8;"/>
     </g>
     <g id="line2d_24">
      <g>
       <use style="stroke:#000000;stroke-width:0.8;" x="44.783053" xlink:href="#m536b5df631" y="47.58057"/>
      </g>
     </g>
     <g id="text_13">
      <!-- 40 -->
      <g transform="translate(25.058053 51.379789)scale(0.1 -0.1)">
       <defs>
        <path d="M 2419 4116 
L 825 1625 
L 2419 1625 
L 2419 4116 
z
M 2253 4666 
L 3047 4666 
L 3047 1625 
L 3713 1625 
L 3713 1100 
L 3047 1100 
L 3047 0 
L 2419 0 
L 2419 1100 
L 313 1100 
L 313 1709 
L 2253 4666 
z
" id="DejaVuSans-34" transform="scale(0.015625)"/>
       </defs>
       <use xlink:href="#DejaVuSans-34"/>
       <use x="63.623047" xlink:href="#DejaVuSans-30"/>
      </g>
     </g>
    </g>
    <g id="text_14">
     <!-- Price difference (GB/MWh) -->
     <g transform="translate(10.598677 230.689063)rotate(-90)scale(0.1 -0.1)">
      <defs>
       <path d="M 1259 4147 
L 1259 2394 
L 2053 2394 
Q 2494 2394 2734 2622 
Q 2975 2850 2975 3272 
Q 2975 3691 2734 3919 
Q 2494 4147 2053 4147 
L 1259 4147 
z
M 628 4666 
L 2053 4666 
Q 2838 4666 3239 4311 
Q 3641 3956 3641 3272 
Q 3641 2581 3239 2228 
Q 2838 1875 2053 1875 
L 1259 1875 
L 1259 0 
L 628 0 
L 628 4666 
z
" id="DejaVuSans-50" transform="scale(0.015625)"/>
       <path d="M 3122 3366 
L 3122 2828 
Q 2878 2963 2633 3030 
Q 2388 3097 2138 3097 
Q 1578 3097 1268 2742 
Q 959 2388 959 1747 
Q 959 1106 1268 751 
Q 1578 397 2138 397 
Q 2388 397 2633 464 
Q 2878 531 3122 666 
L 3122 134 
Q 2881 22 2623 -34 
Q 2366 -91 2075 -91 
Q 1284 -91 818 406 
Q 353 903 353 1747 
Q 353 2603 823 3093 
Q 1294 3584 2113 3584 
Q 2378 3584 2631 3529 
Q 2884 3475 3122 3366 
z
" id="DejaVuSans-63" transform="scale(0.015625)"/>
       <path d="M 1984 4856 
Q 1566 4138 1362 3434 
Q 1159 2731 1159 2009 
Q 1159 1288 1364 580 
Q 1569 -128 1984 -844 
L 1484 -844 
Q 1016 -109 783 600 
Q 550 1309 550 2009 
Q 550 2706 781 3412 
Q 1013 4119 1484 4856 
L 1984 4856 
z
" id="DejaVuSans-28" transform="scale(0.015625)"/>
       <path d="M 3809 666 
L 3809 1919 
L 2778 1919 
L 2778 2438 
L 4434 2438 
L 4434 434 
Q 4069 175 3628 42 
Q 3188 -91 2688 -91 
Q 1594 -91 976 548 
Q 359 1188 359 2328 
Q 359 3472 976 4111 
Q 1594 4750 2688 4750 
Q 3144 4750 3555 4637 
Q 3966 4525 4313 4306 
L 4313 3634 
Q 3963 3931 3569 4081 
Q 3175 4231 2741 4231 
Q 1884 4231 1454 3753 
Q 1025 3275 1025 2328 
Q 1025 1384 1454 906 
Q 1884 428 2741 428 
Q 3075 428 3337 486 
Q 3600 544 3809 666 
z
" id="DejaVuSans-47" transform="scale(0.015625)"/>
       <path d="M 1259 2228 
L 1259 519 
L 2272 519 
Q 2781 519 3026 730 
Q 3272 941 3272 1375 
Q 3272 1813 3026 2020 
Q 2781 2228 2272 2228 
L 1259 2228 
z
M 1259 4147 
L 1259 2741 
L 2194 2741 
Q 2656 2741 2882 2914 
Q 3109 3088 3109 3444 
Q 3109 3797 2882 3972 
Q 2656 4147 2194 4147 
L 1259 4147 
z
M 628 4666 
L 2241 4666 
Q 2963 4666 3353 4366 
Q 3744 4066 3744 3513 
Q 3744 3084 3544 2831 
Q 3344 2578 2956 2516 
Q 3422 2416 3680 2098 
Q 3938 1781 3938 1306 
Q 3938 681 3513 340 
Q 3088 0 2303 0 
L 628 0 
L 628 4666 
z
" id="DejaVuSans-42" transform="scale(0.015625)"/>
       <path d="M 1625 4666 
L 2156 4666 
L 531 -594 
L 0 -594 
L 1625 4666 
z
" id="DejaVuSans-2f" transform="scale(0.015625)"/>
       <path d="M 513 4856 
L 1013 4856 
Q 1481 4119 1714 3412 
Q 1947 2706 1947 2009 
Q 1947 1309 1714 600 
Q 1481 -109 1013 -844 
L 513 -844 
Q 928 -128 1133 580 
Q 1338 1288 1338 2009 
Q 1338 2731 1133 3434 
Q 928 4138 513 4856 
z
" id="DejaVuSans-29" transform="scale(0.015625)"/>
      </defs>
      <use xlink:href="#DejaVuSans-50"/>
      <use x="58.552734" xlink:href="#DejaVuSans-72"/>
      <use x="99.666016" xlink:href="#DejaVuSans-69"/>
      <use x="127.449219" xlink:href="#DejaVuSans-63"/>
      <use x="182.429688" xlink:href="#DejaVuSans-65"/>
      <use x="243.953125" xlink:href="#DejaVuSans-20"/>
      <use x="275.740234" xlink:href="#DejaVuSans-64"/>
      <use x="339.216797" xlink:href="#DejaVuSans-69"/>
      <use x="367" xlink:href="#DejaVuSans-66"/>
      <use x="402.205078" xlink:href="#DejaVuSans-66"/>
      <use x="437.410156" xlink:href="#DejaVuSans-65"/>
      <use x="498.933594" xlink:href="#DejaVuSans-72"/>
      <use x="537.796875" xlink:href="#DejaVuSans-65"/>
      <use x="599.320312" xlink:href="#DejaVuSans-6e"/>
      <use x="662.699219" xlink:href="#DejaVuSans-63"/>
      <use x="717.679688" xlink:href="#DejaVuSans-65"/>
      <use x="779.203125" xlink:href="#DejaVuSans-20"/>
      <use x="810.990234" xlink:href="#DejaVuSans-28"/>
      <use x="850.003906" xlink:href="#DejaVuSans-47"/>
      <use x="927.494141" xlink:href="#DejaVuSans-42"/>
      <use x="996.097656" xlink:href="#DejaVuSans-2f"/>
      <use x="1029.789062" xlink:href="#DejaVuSans-4d"/>
      <use x="1116.068359" xlink:href="#DejaVuSans-57"/>
      <use x="1214.945312" xlink:href="#DejaVuSans-68"/>
      <use x="1278.324219" xlink:href="#DejaVuSans-29"/>
     </g>
    </g>
   </g>
   <g id="line2d_25">
    <path clip-path="url(#p4926153d49)" d="M 44.783053 256.183853 
L 48.712133 252.236501 
L 52.641213 263.037888 
L 56.570293 263.037888 
L 60.499373 238.133697 
L 64.428453 189.150666 
L 68.357533 172.356483 
L 72.286613 165.000058 
L 76.215693 146.698705 
L 80.144773 137.404488 
L 84.073854 165.179482 
L 88.002934 171.638784 
L 91.932014 177.488039 
L 95.861094 179.461714 
L 99.790174 175.442594 
L 103.719254 176.088524 
L 107.648334 159.043148 
L 111.577414 39.402544 
L 115.506494 67.787582 
L 119.435574 104.390289 
L 123.364655 150.466631 
L 127.293735 156.064693 
L 131.222815 200.956832 
L 135.151895 186.495175 
L 137.116435 197.709239 
L 139.080975 223.629564 
L 143.010055 226.03386 
L 146.939135 229.442935 
L 150.868215 235.363962 
L 154.797295 233.462055 
L 158.726376 188.677571 
L 162.655456 168.115464 
L 166.584536 181.572339 
L 170.513616 129.574972 
L 174.442696 132.732849 
L 178.371776 154.263852 
L 182.300856 161.440853 
L 186.229936 176.369014 
L 190.159016 200.017232 
L 194.088096 201.596172 
L 198.017177 195.567491 
L 201.946257 161.476738 
L 205.875337 77.864675 
L 209.804417 121.285531 
L 213.733497 161.261427 
L 217.662577 161.440853 
L 221.591657 190.041201 
L 225.520737 233.210861 
L 229.449817 230.34006 
L 231.414357 235.040997 
L 233.378897 244.522035 
L 237.307978 243.624909 
L 241.237058 278.899868 
L 245.166138 283.170186 
L 253.024298 229.306794 
L 256.953378 196.041395 
L 260.882458 193.49356 
L 264.811538 192.237585 
L 268.740618 196.14905 
L 272.669699 197.907416 
L 276.598779 197.79976 
L 280.527859 196.43613 
L 284.456939 189.83329 
L 288.386019 188.182579 
L 292.315099 186.854834 
L 296.244179 169.845343 
L 300.173259 97.680598 
L 304.102339 104.462868 
L 308.031419 144.079909 
L 311.9605 198.51746 
L 315.88958 226.077145 
L 319.81866 247.249296 
L 323.74774 245.526817 
L 325.71228 253.385635 
L 327.67682 249.601094 
L 331.6059 255.235038 
L 335.53498 298.117621 
L 339.46406 296.933416 
L 343.39314 257.280489 
L 347.322221 214.218481 
L 351.251301 156.371855 
L 355.180381 177.436352 
L 359.109461 147.400604 
L 363.038541 136.635103 
L 366.967621 143.381484 
L 370.896701 136.635103 
L 374.825781 147.400604 
L 378.754861 180.666003 
L 382.683941 191.754469 
L 386.613022 184.649238 
L 390.542102 164.625406 
L 394.471182 100.678327 
L 398.400262 140.223603 
L 402.329342 161.539294 
L 406.258422 166.88616 
L 410.187502 222.400261 
L 414.116582 233.847579 
L 418.045662 262.447925 
L 420.010202 272.459844 
L 421.974742 278.379965 
L 425.903823 298.332032 
L 429.832903 311.932452 
L 433.761983 311.035327 
L 437.691063 279.600056 
L 443.584683 221.304867 
L 445.549223 201.191324 
L 449.478303 200.330084 
L 453.407383 186.047852 
L 457.336463 168.571855 
L 461.265544 161.251314 
L 465.194624 172.016815 
L 469.123704 155.150864 
L 473.052784 153.356614 
L 476.981864 134.337561 
L 480.910944 186.370817 
L 484.840024 128.95481 
L 488.769104 17.711298 
L 492.698184 55.785289 
L 496.627264 132.220345 
L 500.556345 168.787165 
L 504.485425 175.246466 
L 508.414505 185.509577 
L 512.343585 132.686854 
L 514.308125 152.351835 
L 516.272665 170.672976 
L 520.201745 229.811461 
L 524.130825 233.722927 
L 528.059905 238.352092 
L 531.988985 239.285103 
L 535.918066 263.973986 
L 539.847146 242.442984 
L 543.776226 211.833075 
L 547.705306 200.242219 
L 551.634386 207.275679 
L 555.563466 188.794903 
L 559.492546 171.390675 
L 563.421626 171.749526 
L 567.350706 210.14648 
L 571.279786 233.687044 
L 575.208867 229.488499 
L 579.137947 171.677757 
L 583.067027 63.771545 
L 586.996107 77.371965 
L 590.925187 148.424274 
L 594.854267 176.091612 
L 598.783347 212.51489 
L 602.712427 231.964562 
L 606.641507 246.21091 
L 608.606047 247.807792 
L 610.570587 238.208474 
L 614.499668 251.055308 
L 618.428748 274.344675 
L 622.357828 284.500131 
L 626.286908 302.370861 
L 630.215988 306.748836 
L 634.145068 304.057461 
L 638.074148 299.464178 
L 642.003228 267.131788 
L 645.932308 238.029051 
L 649.861389 217.646368 
L 653.790469 206.952637 
L 657.719549 188.184779 
L 661.648629 184.345084 
L 665.577709 182.694374 
L 669.506789 179.357068 
L 673.435869 135.182627 
L 677.364949 46.977294 
L 681.294029 84.154153 
L 685.223109 133.819 
L 689.15219 145.409854 
L 693.08127 172.825997 
L 697.01035 227.658284 
L 700.93943 277.89729 
L 702.90397 286.330267 
L 702.90397 286.330267 
" style="fill:none;stroke:#d62728;stroke-dasharray:7.4,3.2;stroke-dashoffset:0;stroke-width:2;"/>
   </g>
   <g id="line2d_26">
    <path clip-path="url(#p4926153d49)" d="M 44.783053 174.367279 
L 46.747593 188.097347 
L 48.712133 196.027821 
L 52.641213 205.121192 
L 54.605753 210.652112 
L 56.570293 215.387371 
L 58.534833 216.31453 
L 60.499373 212.335673 
L 62.463913 203.751069 
L 64.428453 192.403797 
L 66.392993 180.395454 
L 68.357533 169.540755 
L 70.322073 160.533803 
L 72.286613 152.810719 
L 74.251153 145.91908 
L 76.215693 140.653672 
L 78.180233 138.479578 
L 80.144773 140.161852 
L 82.109313 145.595662 
L 84.073854 152.583426 
L 86.038394 158.82103 
L 88.002934 162.993039 
L 89.967474 164.913681 
L 91.932014 165.30913 
L 93.896554 165.099194 
L 95.861094 164.74536 
L 97.825634 164.542584 
L 99.790174 164.86696 
L 101.754714 165.043891 
L 103.719254 162.580548 
L 105.683794 154.32292 
L 107.648334 139.447667 
L 111.577414 98.574649 
L 113.541954 84.501246 
L 115.506494 83.030714 
L 117.471034 96.613886 
L 119.435574 119.389578 
L 121.400115 143.597528 
L 123.364655 162.198829 
L 125.329195 172.633479 
L 127.293735 179.555659 
L 131.222815 195.078376 
L 133.187355 198.26487 
L 135.151895 196.542296 
L 137.116435 193.35509 
L 139.080975 199.22977 
L 141.045515 212.534397 
L 143.010055 218.863717 
L 144.974595 221.213921 
L 146.939135 222.544454 
L 148.903675 223.671159 
L 150.868215 223.208387 
L 152.832755 218.803253 
L 154.797295 209.77407 
L 156.761835 196.933104 
L 158.726376 182.890953 
L 160.690916 170.349463 
L 162.655456 160.69725 
L 164.619996 153.673922 
L 166.584536 147.355334 
L 168.549076 140.452306 
L 170.513616 134.371469 
L 172.478156 131.708758 
L 174.442696 133.929313 
L 176.407236 140.93249 
L 178.371776 149.850737 
L 180.336316 157.798048 
L 182.300856 163.595234 
L 184.265396 167.386305 
L 186.229936 169.795207 
L 188.194476 171.42616 
L 192.123556 173.724291 
L 196.052637 176.747612 
L 198.017177 175.408823 
L 199.981717 167.311973 
L 201.946257 150.316274 
L 205.875337 100.726677 
L 207.839877 85.651919 
L 209.804417 85.416796 
L 211.768957 100.199128 
L 215.698037 145.589448 
L 217.662577 162.689553 
L 219.627117 172.637846 
L 221.591657 179.783951 
L 223.556197 187.839733 
L 225.520737 195.034037 
L 227.485277 197.942329 
L 231.414357 195.94262 
L 233.378897 215.541852 
L 235.343438 224.857259 
L 237.307978 228.282066 
L 239.272518 228.703826 
L 241.237058 228.919414 
L 243.201598 229.727287 
L 245.166138 229.435245 
L 247.130678 225.246685 
L 249.095218 216.017697 
L 253.024298 188.869286 
L 254.988838 178.55436 
L 256.953378 172.661145 
L 258.917918 169.497251 
L 260.882458 165.426499 
L 262.846998 158.272428 
L 264.811538 150.571328 
L 266.776078 146.430502 
L 268.740618 147.571156 
L 270.705158 153.473816 
L 272.669699 161.018778 
L 274.634239 167.278381 
L 276.598779 171.306806 
L 280.527859 176.260295 
L 282.492399 179.590388 
L 286.421479 187.351815 
L 288.386019 190.388592 
L 290.350559 191.361185 
L 292.315099 187.902361 
L 294.279639 177.079626 
L 296.244179 158.318012 
L 298.208719 134.09881 
L 300.173259 112.562825 
L 302.137799 102.51567 
L 304.102339 106.695729 
L 306.066879 122.841982 
L 308.031419 143.092867 
L 309.99596 160.5968 
L 311.9605 172.759501 
L 313.92504 180.734641 
L 315.88958 188.188818 
L 317.85412 196.746427 
L 319.81866 203.307859 
L 321.7832 204.289733 
L 323.74774 201.061008 
L 325.71228 198.760619 
L 327.67682 213.132978 
L 329.64136 224.163594 
L 331.6059 231.846337 
L 333.57044 237.956072 
L 335.53498 243.136074 
L 337.49952 246.510833 
L 339.46406 246.47579 
L 341.4286 241.199197 
L 343.39314 230.766203 
L 345.35768 216.354228 
L 347.322221 200.711691 
L 349.286761 186.758655 
L 351.251301 176.376077 
L 353.215841 169.788034 
L 359.109461 154.956914 
L 361.074001 153.157627 
L 363.038541 154.770661 
L 365.003081 159.276108 
L 366.967621 164.764484 
L 368.932161 169.386329 
L 370.896701 172.420231 
L 372.861241 173.991254 
L 374.825781 174.624181 
L 376.790321 174.904136 
L 378.754861 175.314752 
L 380.719401 176.239666 
L 382.683941 177.816781 
L 384.648482 179.089081 
L 386.613022 177.40574 
L 388.577562 169.247796 
L 390.542102 153.082008 
L 394.471182 107.83849 
L 396.435722 94.430401 
L 398.400262 94.689371 
L 400.364802 109.003674 
L 404.293882 153.689117 
L 406.258422 172.293567 
L 408.222962 185.240636 
L 410.187502 194.524668 
L 412.152042 201.379757 
L 414.116582 204.100673 
L 416.081122 200.968744 
L 418.045662 195.264944 
L 420.010202 192.969031 
L 421.974742 213.009543 
L 423.939283 224.063418 
L 427.868363 243.762799 
L 429.832903 251.952899 
L 431.797443 257.114448 
L 433.761983 257.961239 
L 435.726523 253.22639 
L 437.691063 243.422065 
L 439.655603 229.653804 
L 441.620143 214.196411 
L 443.584683 199.74378 
L 445.549223 188.920675 
L 447.513763 182.620129 
L 449.478303 177.686105 
L 451.442843 171.022402 
L 453.407383 163.46909 
L 455.371923 157.834515 
L 457.336463 155.908604 
L 459.301003 157.938443 
L 461.265544 161.792675 
L 463.230084 165.17087 
L 465.194624 167.446044 
L 467.159164 169.315105 
L 469.123704 171.746785 
L 471.088244 175.385114 
L 473.052784 179.657478 
L 475.017324 183.643878 
L 476.981864 186.816053 
L 478.946404 188.000169 
L 480.910944 184.865296 
L 482.875484 174.592833 
L 484.840024 156.883209 
L 486.804564 134.562294 
L 488.769104 115.661258 
L 490.733644 108.199032 
L 492.698184 113.389068 
L 494.662724 128.206472 
L 496.627264 146.099419 
L 498.591805 162.104744 
L 500.556345 175.055714 
L 504.485425 196.946602 
L 506.449965 206.421965 
L 508.414505 210.955325 
L 510.379045 207.865133 
L 512.343585 200.432037 
L 514.308125 195.773807 
L 516.272665 170.877832 
L 518.237205 187.282138 
L 520.201745 201.597783 
L 522.166285 212.250705 
L 524.130825 219.603254 
L 526.095365 224.174902 
L 528.059905 226.147205 
L 530.024445 224.746447 
L 531.988985 220.217468 
L 533.953525 213.04378 
L 537.882606 196.387966 
L 539.847146 190.471493 
L 541.811686 187.354512 
L 543.776226 184.710747 
L 545.740766 180.234813 
L 547.705306 174.420529 
L 549.669846 169.398936 
L 551.634386 167.352425 
L 553.598926 169.480249 
L 557.528006 179.421136 
L 559.492546 182.383829 
L 561.457086 182.161176 
L 563.421626 179.655383 
L 565.386166 176.708748 
L 567.350706 174.787436 
L 569.315246 175.303705 
L 571.279786 179.289147 
L 573.244327 184.830485 
L 575.208867 184.882298 
L 577.173407 171.722679 
L 579.137947 144.307797 
L 581.102487 108.060417 
L 583.067027 76.319989 
L 585.031567 62.18608 
L 586.996107 67.441222 
L 588.960647 86.556656 
L 590.925187 109.769302 
L 592.889727 129.7233 
L 594.854267 144.050662 
L 596.818807 154.573703 
L 598.783347 165.944315 
L 600.747887 180.231843 
L 602.712427 193.590979 
L 604.676967 200.884679 
L 606.641507 202.334458 
L 608.606047 202.313076 
L 610.570587 216.638687 
L 612.535128 235.055801 
L 614.499668 250.00696 
L 616.464208 258.906796 
L 618.428748 262.718331 
L 620.393288 263.568407 
L 622.357828 263.006677 
L 624.322368 261.330974 
L 626.286908 259.261752 
L 628.251448 256.857491 
L 630.215988 253.447167 
L 632.180528 248.506573 
L 636.109608 236.699787 
L 638.074148 229.837018 
L 642.003228 213.047298 
L 643.967768 205.959057 
L 645.932308 200.790868 
L 647.896848 197.290867 
L 649.861389 194.32708 
L 651.825929 190.957796 
L 655.755009 183.26465 
L 657.719549 181.081617 
L 659.684089 181.691053 
L 661.648629 184.824818 
L 663.613169 189.649671 
L 665.577709 195.180797 
L 667.542249 198.674542 
L 669.506789 194.97115 
L 671.471329 178.400769 
L 673.435869 148.492921 
L 675.400409 110.742812 
L 677.364949 78.975472 
L 679.329489 66.655607 
L 681.294029 74.360786 
L 683.258569 95.276439 
L 685.223109 119.356369 
L 687.18765 139.421685 
L 689.15219 153.412078 
L 693.08127 173.11098 
L 697.01035 198.308922 
L 698.97489 207.265402 
L 700.93943 210.634276 
L 702.90397 210.518288 
L 702.90397 210.518288 
" style="fill:none;stroke:#1f77b4;stroke-linecap:square;stroke-width:1.5;"/>
   </g>
   <g id="patch_3">
    <path d="M 44.783053 326.64351 
L 44.783053 3.00024 
" style="fill:none;stroke:#000000;stroke-linecap:square;stroke-linejoin:miter;stroke-width:0.8;"/>
   </g>
   <g id="patch_4">
    <path d="M 704.86851 326.64351 
L 704.86851 3.00024 
" style="fill:none;stroke:#000000;stroke-linecap:square;stroke-linejoin:miter;stroke-width:0.8;"/>
   </g>
   <g id="patch_5">
    <path d="M 44.783053 326.64351 
L 704.86851 326.64351 
" style="fill:none;stroke:#000000;stroke-linecap:square;stroke-linejoin:miter;stroke-width:0.8;"/>
   </g>
   <g id="patch_6">
    <path d="M 44.783053 3.00024 
L 704.86851 3.00024 
" style="fill:none;stroke:#000000;stroke-linecap:square;stroke-linejoin:miter;stroke-width:0.8;"/>
   </g>
   <g id="legend_1">
    <g id="patch_7">
     <path d="M 208.165625 25.678365 
L 541.485937 25.678365 
L 541.485937 8.00024 
L 208.165625 8.00024 
z
" style="fill:#ffffff;opacity:0.95;stroke:#000000;stroke-linejoin:miter;"/>
    </g>
    <g id="line2d_27">
     <path d="M 212.165625 16.098678 
L 232.165625 16.098678 
" style="fill:none;stroke:#d62728;stroke-dasharray:7.4,3.2;stroke-dashoffset:0;stroke-width:2;"/>
    </g>
    <g id="line2d_28"/>
    <g id="text_15">
     <!-- Actual price difference -->
     <g transform="translate(240.165625 19.598678)scale(0.1 -0.1)">
      <defs>
       <path d="M 2188 4044 
L 1331 1722 
L 3047 1722 
L 2188 4044 
z
M 1831 4666 
L 2547 4666 
L 4325 0 
L 3669 0 
L 3244 1197 
L 1141 1197 
L 716 0 
L 50 0 
L 1831 4666 
z
" id="DejaVuSans-41" transform="scale(0.015625)"/>
       <path d="M 603 4863 
L 1178 4863 
L 1178 0 
L 603 0 
L 603 4863 
z
" id="DejaVuSans-6c" transform="scale(0.015625)"/>
       <path d="M 1159 525 
L 1159 -1331 
L 581 -1331 
L 581 3500 
L 1159 3500 
L 1159 2969 
Q 1341 3281 1617 3432 
Q 1894 3584 2278 3584 
Q 2916 3584 3314 3078 
Q 3713 2572 3713 1747 
Q 3713 922 3314 415 
Q 2916 -91 2278 -91 
Q 1894 -91 1617 61 
Q 1341 213 1159 525 
z
M 3116 1747 
Q 3116 2381 2855 2742 
Q 2594 3103 2138 3103 
Q 1681 3103 1420 2742 
Q 1159 2381 1159 1747 
Q 1159 1113 1420 752 
Q 1681 391 2138 391 
Q 2594 391 2855 752 
Q 3116 1113 3116 1747 
z
" id="DejaVuSans-70" transform="scale(0.015625)"/>
      </defs>
      <use xlink:href="#DejaVuSans-41"/>
      <use x="66.658203" xlink:href="#DejaVuSans-63"/>
      <use x="121.638672" xlink:href="#DejaVuSans-74"/>
      <use x="160.847656" xlink:href="#DejaVuSans-75"/>
      <use x="224.226562" xlink:href="#DejaVuSans-61"/>
      <use x="285.505859" xlink:href="#DejaVuSans-6c"/>
      <use x="313.289062" xlink:href="#DejaVuSans-20"/>
      <use x="345.076172" xlink:href="#DejaVuSans-70"/>
      <use x="408.552734" xlink:href="#DejaVuSans-72"/>
      <use x="449.666016" xlink:href="#DejaVuSans-69"/>
      <use x="477.449219" xlink:href="#DejaVuSans-63"/>
      <use x="532.429688" xlink:href="#DejaVuSans-65"/>
      <use x="593.953125" xlink:href="#DejaVuSans-20"/>
      <use x="625.740234" xlink:href="#DejaVuSans-64"/>
      <use x="689.216797" xlink:href="#DejaVuSans-69"/>
      <use x="717" xlink:href="#DejaVuSans-66"/>
      <use x="752.205078" xlink:href="#DejaVuSans-66"/>
      <use x="787.410156" xlink:href="#DejaVuSans-65"/>
      <use x="848.933594" xlink:href="#DejaVuSans-72"/>
      <use x="887.796875" xlink:href="#DejaVuSans-65"/>
      <use x="949.320312" xlink:href="#DejaVuSans-6e"/>
      <use x="1012.699219" xlink:href="#DejaVuSans-63"/>
      <use x="1067.679688" xlink:href="#DejaVuSans-65"/>
     </g>
    </g>
    <g id="line2d_29">
     <path d="M 373.0875 16.098678 
L 393.0875 16.098678 
" style="fill:none;stroke:#1f77b4;stroke-linecap:square;stroke-width:1.5;"/>
    </g>
    <g id="line2d_30"/>
    <g id="text_16">
     <!-- Forecasted price difference -->
     <g transform="translate(401.0875 19.598678)scale(0.1 -0.1)">
      <defs>
       <path d="M 2834 3397 
L 2834 2853 
Q 2591 2978 2328 3040 
Q 2066 3103 1784 3103 
Q 1356 3103 1142 2972 
Q 928 2841 928 2578 
Q 928 2378 1081 2264 
Q 1234 2150 1697 2047 
L 1894 2003 
Q 2506 1872 2764 1633 
Q 3022 1394 3022 966 
Q 3022 478 2636 193 
Q 2250 -91 1575 -91 
Q 1294 -91 989 -36 
Q 684 19 347 128 
L 347 722 
Q 666 556 975 473 
Q 1284 391 1588 391 
Q 1994 391 2212 530 
Q 2431 669 2431 922 
Q 2431 1156 2273 1281 
Q 2116 1406 1581 1522 
L 1381 1569 
Q 847 1681 609 1914 
Q 372 2147 372 2553 
Q 372 3047 722 3315 
Q 1072 3584 1716 3584 
Q 2034 3584 2315 3537 
Q 2597 3491 2834 3397 
z
" id="DejaVuSans-73" transform="scale(0.015625)"/>
      </defs>
      <use xlink:href="#DejaVuSans-46"/>
      <use x="53.894531" xlink:href="#DejaVuSans-6f"/>
      <use x="115.076172" xlink:href="#DejaVuSans-72"/>
      <use x="153.939453" xlink:href="#DejaVuSans-65"/>
      <use x="215.462891" xlink:href="#DejaVuSans-63"/>
      <use x="270.443359" xlink:href="#DejaVuSans-61"/>
      <use x="331.722656" xlink:href="#DejaVuSans-73"/>
      <use x="383.822266" xlink:href="#DejaVuSans-74"/>
      <use x="423.03125" xlink:href="#DejaVuSans-65"/>
      <use x="484.554688" xlink:href="#DejaVuSans-64"/>
      <use x="548.03125" xlink:href="#DejaVuSans-20"/>
      <use x="579.818359" xlink:href="#DejaVuSans-70"/>
      <use x="643.294922" xlink:href="#DejaVuSans-72"/>
      <use x="684.408203" xlink:href="#DejaVuSans-69"/>
      <use x="712.191406" xlink:href="#DejaVuSans-63"/>
      <use x="767.171875" xlink:href="#DejaVuSans-65"/>
      <use x="828.695312" xlink:href="#DejaVuSans-20"/>
      <use x="860.482422" xlink:href="#DejaVuSans-64"/>
      <use x="923.958984" xlink:href="#DejaVuSans-69"/>
      <use x="951.742188" xlink:href="#DejaVuSans-66"/>
      <use x="986.947266" xlink:href="#DejaVuSans-66"/>
      <use x="1022.152344" xlink:href="#DejaVuSans-65"/>
      <use x="1083.675781" xlink:href="#DejaVuSans-72"/>
      <use x="1122.539062" xlink:href="#DejaVuSans-65"/>
      <use x="1184.0625" xlink:href="#DejaVuSans-6e"/>
      <use x="1247.441406" xlink:href="#DejaVuSans-63"/>
      <use x="1302.421875" xlink:href="#DejaVuSans-65"/>
     </g>
    </g>
   </g>
  </g>
 </g>
 <defs>
  <clipPath id="p4926153d49">
   <rect height="323.64327" width="660.085457" x="44.783053" y="3.00024"/>
  </clipPath>
 </defs>
</svg>
