<?xml version="1.0" encoding="utf-8" standalone="no"?>
<!DOCTYPE svg PUBLIC "-//W3C//DTD SVG 1.1//EN"
  "http://www.w3.org/Graphics/SVG/1.1/DTD/svg11.dtd">
<svg height="360pt" version="1.1" viewBox="0 0 821.52 360" width="821.52pt" xmlns="http://www.w3.org/2000/svg" xmlns:xlink="http://www.w3.org/1999/xlink">
 <metadata>
  <rdf:RDF xmlns:cc="http://creativecommons.org/ns#" xmlns:dc="http://purl.org/dc/elements/1.1/" xmlns:rdf="http://www.w3.org/1999/02/22-rdf-syntax-ns#">
   <cc:Work>
    <dc:type rdf:resource="http://purl.org/dc/dcmitype/StillImage"/>
    <dc:date>2022-04-21T17:03:47.335947</dc:date>
    <dc:format>image/svg+xml</dc:format>
    <dc:creator>
     <cc:Agent>
      <dc:title>Matplotlib v3.4.3, https://matplotlib.org/</dc:title>
     </cc:Agent>
    </dc:creator>
   </cc:Work>
  </rdf:RDF>
 </metadata>
 <defs>
  <style type="text/css">*{stroke-linecap:butt;stroke-linejoin:round;}</style>
 </defs>
 <g id="figure_1">
  <g id="patch_1">
   <path d="M 0 360 
L 821.52 360 
L 821.52 0 
L 0 0 
z
" style="fill:#ffffff;"/>
  </g>
  <g id="axes_1">
   <g id="patch_2">
    <path d="M 49.128365 326.64351 
L 806.38851 326.64351 
L 806.38851 3.00024 
L 49.128365 3.00024 
z
" style="fill:#ffffff;"/>
   </g>
   <g id="matplotlib.axis_1">
    <g id="xtick_1">
     <g id="line2d_1">
      <path clip-path="url(#p9b4a9b4a06)" d="M 49.128365 326.64351 
L 49.128365 3.00024 
" style="fill:none;stroke:#b0b0b0;stroke-linecap:square;stroke-width:0.8;"/>
     </g>
     <g id="line2d_2">
      <defs>
       <path d="M 0 0 
L 0 3.5 
" id="mfad7b50ddc" style="stroke:#000000;stroke-width:0.8;"/>
      </defs>
      <g>
       <use style="stroke:#000000;stroke-width:0.8;" x="49.128365" xlink:href="#mfad7b50ddc" y="326.64351"/>
      </g>
     </g>
     <g id="text_1">
      <!-- Mon. -->
      <g transform="translate(36.997115 341.241947)scale(0.1 -0.1)">
       <defs>
        <path d="M 628 4666 
L 1569 4666 
L 2759 1491 
L 3956 4666 
L 4897 4666 
L 4897 0 
L 4281 0 
L 4281 4097 
L 3078 897 
L 2444 897 
L 1241 4097 
L 1241 0 
L 628 0 
L 628 4666 
z
" id="DejaVuSans-4d" transform="scale(0.015625)"/>
        <path d="M 1959 3097 
Q 1497 3097 1228 2736 
Q 959 2375 959 1747 
Q 959 1119 1226 758 
Q 1494 397 1959 397 
Q 2419 397 2687 759 
Q 2956 1122 2956 1747 
Q 2956 2369 2687 2733 
Q 2419 3097 1959 3097 
z
M 1959 3584 
Q 2709 3584 3137 3096 
Q 3566 2609 3566 1747 
Q 3566 888 3137 398 
Q 2709 -91 1959 -91 
Q 1206 -91 779 398 
Q 353 888 353 1747 
Q 353 2609 779 3096 
Q 1206 3584 1959 3584 
z
" id="DejaVuSans-6f" transform="scale(0.015625)"/>
        <path d="M 3513 2113 
L 3513 0 
L 2938 0 
L 2938 2094 
Q 2938 2591 2744 2837 
Q 2550 3084 2163 3084 
Q 1697 3084 1428 2787 
Q 1159 2491 1159 1978 
L 1159 0 
L 581 0 
L 581 3500 
L 1159 3500 
L 1159 2956 
Q 1366 3272 1645 3428 
Q 1925 3584 2291 3584 
Q 2894 3584 3203 3211 
Q 3513 2838 3513 2113 
z
" id="DejaVuSans-6e" transform="scale(0.015625)"/>
        <path d="M 684 794 
L 1344 794 
L 1344 0 
L 684 0 
L 684 794 
z
" id="DejaVuSans-2e" transform="scale(0.015625)"/>
       </defs>
       <use xlink:href="#DejaVuSans-4d"/>
       <use x="86.279297" xlink:href="#DejaVuSans-6f"/>
       <use x="147.460938" xlink:href="#DejaVuSans-6e"/>
       <use x="210.839844" xlink:href="#DejaVuSans-2e"/>
      </g>
     </g>
    </g>
    <g id="xtick_2">
     <g id="line2d_3">
      <path clip-path="url(#p9b4a9b4a06)" d="M 157.308386 326.64351 
L 157.308386 3.00024 
" style="fill:none;stroke:#b0b0b0;stroke-linecap:square;stroke-width:0.8;"/>
     </g>
     <g id="line2d_4">
      <g>
       <use style="stroke:#000000;stroke-width:0.8;" x="157.308386" xlink:href="#mfad7b50ddc" y="326.64351"/>
      </g>
     </g>
     <g id="text_2">
      <!-- Tue. -->
      <g transform="translate(147.176354 341.241947)scale(0.1 -0.1)">
       <defs>
        <path d="M -19 4666 
L 3928 4666 
L 3928 4134 
L 2272 4134 
L 2272 0 
L 1638 0 
L 1638 4134 
L -19 4134 
L -19 4666 
z
" id="DejaVuSans-54" transform="scale(0.015625)"/>
        <path d="M 544 1381 
L 544 3500 
L 1119 3500 
L 1119 1403 
Q 1119 906 1312 657 
Q 1506 409 1894 409 
Q 2359 409 2629 706 
Q 2900 1003 2900 1516 
L 2900 3500 
L 3475 3500 
L 3475 0 
L 2900 0 
L 2900 538 
Q 2691 219 2414 64 
Q 2138 -91 1772 -91 
Q 1169 -91 856 284 
Q 544 659 544 1381 
z
M 1991 3584 
L 1991 3584 
z
" id="DejaVuSans-75" transform="scale(0.015625)"/>
        <path d="M 3597 1894 
L 3597 1613 
L 953 1613 
Q 991 1019 1311 708 
Q 1631 397 2203 397 
Q 2534 397 2845 478 
Q 3156 559 3463 722 
L 3463 178 
Q 3153 47 2828 -22 
Q 2503 -91 2169 -91 
Q 1331 -91 842 396 
Q 353 884 353 1716 
Q 353 2575 817 3079 
Q 1281 3584 2069 3584 
Q 2775 3584 3186 3129 
Q 3597 2675 3597 1894 
z
M 3022 2063 
Q 3016 2534 2758 2815 
Q 2500 3097 2075 3097 
Q 1594 3097 1305 2825 
Q 1016 2553 972 2059 
L 3022 2063 
z
" id="DejaVuSans-65" transform="scale(0.015625)"/>
       </defs>
       <use xlink:href="#DejaVuSans-54"/>
       <use x="45.958984" xlink:href="#DejaVuSans-75"/>
       <use x="109.337891" xlink:href="#DejaVuSans-65"/>
       <use x="170.861328" xlink:href="#DejaVuSans-2e"/>
      </g>
     </g>
    </g>
    <g id="xtick_3">
     <g id="line2d_5">
      <path clip-path="url(#p9b4a9b4a06)" d="M 265.488406 326.64351 
L 265.488406 3.00024 
" style="fill:none;stroke:#b0b0b0;stroke-linecap:square;stroke-width:0.8;"/>
     </g>
     <g id="line2d_6">
      <g>
       <use style="stroke:#000000;stroke-width:0.8;" x="265.488406" xlink:href="#mfad7b50ddc" y="326.64351"/>
      </g>
     </g>
     <g id="text_3">
      <!-- Wed. -->
      <g transform="translate(252.998563 341.241947)scale(0.1 -0.1)">
       <defs>
        <path d="M 213 4666 
L 850 4666 
L 1831 722 
L 2809 4666 
L 3519 4666 
L 4500 722 
L 5478 4666 
L 6119 4666 
L 4947 0 
L 4153 0 
L 3169 4050 
L 2175 0 
L 1381 0 
L 213 4666 
z
" id="DejaVuSans-57" transform="scale(0.015625)"/>
        <path d="M 2906 2969 
L 2906 4863 
L 3481 4863 
L 3481 0 
L 2906 0 
L 2906 525 
Q 2725 213 2448 61 
Q 2172 -91 1784 -91 
Q 1150 -91 751 415 
Q 353 922 353 1747 
Q 353 2572 751 3078 
Q 1150 3584 1784 3584 
Q 2172 3584 2448 3432 
Q 2725 3281 2906 2969 
z
M 947 1747 
Q 947 1113 1208 752 
Q 1469 391 1925 391 
Q 2381 391 2643 752 
Q 2906 1113 2906 1747 
Q 2906 2381 2643 2742 
Q 2381 3103 1925 3103 
Q 1469 3103 1208 2742 
Q 947 2381 947 1747 
z
" id="DejaVuSans-64" transform="scale(0.015625)"/>
       </defs>
       <use xlink:href="#DejaVuSans-57"/>
       <use x="93.001953" xlink:href="#DejaVuSans-65"/>
       <use x="154.525391" xlink:href="#DejaVuSans-64"/>
       <use x="218.001953" xlink:href="#DejaVuSans-2e"/>
      </g>
     </g>
    </g>
    <g id="xtick_4">
     <g id="line2d_7">
      <path clip-path="url(#p9b4a9b4a06)" d="M 373.668427 326.64351 
L 373.668427 3.00024 
" style="fill:none;stroke:#b0b0b0;stroke-linecap:square;stroke-width:0.8;"/>
     </g>
     <g id="line2d_8">
      <g>
       <use style="stroke:#000000;stroke-width:0.8;" x="373.668427" xlink:href="#mfad7b50ddc" y="326.64351"/>
      </g>
     </g>
     <g id="text_4">
      <!-- Thur. -->
      <g transform="translate(361.08874 341.241947)scale(0.1 -0.1)">
       <defs>
        <path d="M 3513 2113 
L 3513 0 
L 2938 0 
L 2938 2094 
Q 2938 2591 2744 2837 
Q 2550 3084 2163 3084 
Q 1697 3084 1428 2787 
Q 1159 2491 1159 1978 
L 1159 0 
L 581 0 
L 581 4863 
L 1159 4863 
L 1159 2956 
Q 1366 3272 1645 3428 
Q 1925 3584 2291 3584 
Q 2894 3584 3203 3211 
Q 3513 2838 3513 2113 
z
" id="DejaVuSans-68" transform="scale(0.015625)"/>
        <path d="M 2631 2963 
Q 2534 3019 2420 3045 
Q 2306 3072 2169 3072 
Q 1681 3072 1420 2755 
Q 1159 2438 1159 1844 
L 1159 0 
L 581 0 
L 581 3500 
L 1159 3500 
L 1159 2956 
Q 1341 3275 1631 3429 
Q 1922 3584 2338 3584 
Q 2397 3584 2469 3576 
Q 2541 3569 2628 3553 
L 2631 2963 
z
" id="DejaVuSans-72" transform="scale(0.015625)"/>
       </defs>
       <use xlink:href="#DejaVuSans-54"/>
       <use x="61.083984" xlink:href="#DejaVuSans-68"/>
       <use x="124.462891" xlink:href="#DejaVuSans-75"/>
       <use x="187.841797" xlink:href="#DejaVuSans-72"/>
       <use x="219.830078" xlink:href="#DejaVuSans-2e"/>
      </g>
     </g>
    </g>
    <g id="xtick_5">
     <g id="line2d_9">
      <path clip-path="url(#p9b4a9b4a06)" d="M 481.848448 326.64351 
L 481.848448 3.00024 
" style="fill:none;stroke:#b0b0b0;stroke-linecap:square;stroke-width:0.8;"/>
     </g>
     <g id="line2d_10">
      <g>
       <use style="stroke:#000000;stroke-width:0.8;" x="481.848448" xlink:href="#mfad7b50ddc" y="326.64351"/>
      </g>
     </g>
     <g id="text_5">
      <!-- Fri. -->
      <g transform="translate(474.301573 341.241947)scale(0.1 -0.1)">
       <defs>
        <path d="M 628 4666 
L 3309 4666 
L 3309 4134 
L 1259 4134 
L 1259 2759 
L 3109 2759 
L 3109 2228 
L 1259 2228 
L 1259 0 
L 628 0 
L 628 4666 
z
" id="DejaVuSans-46" transform="scale(0.015625)"/>
        <path d="M 603 3500 
L 1178 3500 
L 1178 0 
L 603 0 
L 603 3500 
z
M 603 4863 
L 1178 4863 
L 1178 4134 
L 603 4134 
L 603 4863 
z
" id="DejaVuSans-69" transform="scale(0.015625)"/>
       </defs>
       <use xlink:href="#DejaVuSans-46"/>
       <use x="50.269531" xlink:href="#DejaVuSans-72"/>
       <use x="91.382812" xlink:href="#DejaVuSans-69"/>
       <use x="119.166016" xlink:href="#DejaVuSans-2e"/>
      </g>
     </g>
    </g>
    <g id="xtick_6">
     <g id="line2d_11">
      <path clip-path="url(#p9b4a9b4a06)" d="M 590.028469 326.64351 
L 590.028469 3.00024 
" style="fill:none;stroke:#b0b0b0;stroke-linecap:square;stroke-width:0.8;"/>
     </g>
     <g id="line2d_12">
      <g>
       <use style="stroke:#000000;stroke-width:0.8;" x="590.028469" xlink:href="#mfad7b50ddc" y="326.64351"/>
      </g>
     </g>
     <g id="text_6">
      <!-- Sat. -->
      <g transform="translate(580.240969 341.241947)scale(0.1 -0.1)">
       <defs>
        <path d="M 3425 4513 
L 3425 3897 
Q 3066 4069 2747 4153 
Q 2428 4238 2131 4238 
Q 1616 4238 1336 4038 
Q 1056 3838 1056 3469 
Q 1056 3159 1242 3001 
Q 1428 2844 1947 2747 
L 2328 2669 
Q 3034 2534 3370 2195 
Q 3706 1856 3706 1288 
Q 3706 609 3251 259 
Q 2797 -91 1919 -91 
Q 1588 -91 1214 -16 
Q 841 59 441 206 
L 441 856 
Q 825 641 1194 531 
Q 1563 422 1919 422 
Q 2459 422 2753 634 
Q 3047 847 3047 1241 
Q 3047 1584 2836 1778 
Q 2625 1972 2144 2069 
L 1759 2144 
Q 1053 2284 737 2584 
Q 422 2884 422 3419 
Q 422 4038 858 4394 
Q 1294 4750 2059 4750 
Q 2388 4750 2728 4690 
Q 3069 4631 3425 4513 
z
" id="DejaVuSans-53" transform="scale(0.015625)"/>
        <path d="M 2194 1759 
Q 1497 1759 1228 1600 
Q 959 1441 959 1056 
Q 959 750 1161 570 
Q 1363 391 1709 391 
Q 2188 391 2477 730 
Q 2766 1069 2766 1631 
L 2766 1759 
L 2194 1759 
z
M 3341 1997 
L 3341 0 
L 2766 0 
L 2766 531 
Q 2569 213 2275 61 
Q 1981 -91 1556 -91 
Q 1019 -91 701 211 
Q 384 513 384 1019 
Q 384 1609 779 1909 
Q 1175 2209 1959 2209 
L 2766 2209 
L 2766 2266 
Q 2766 2663 2505 2880 
Q 2244 3097 1772 3097 
Q 1472 3097 1187 3025 
Q 903 2953 641 2809 
L 641 3341 
Q 956 3463 1253 3523 
Q 1550 3584 1831 3584 
Q 2591 3584 2966 3190 
Q 3341 2797 3341 1997 
z
" id="DejaVuSans-61" transform="scale(0.015625)"/>
        <path d="M 1172 4494 
L 1172 3500 
L 2356 3500 
L 2356 3053 
L 1172 3053 
L 1172 1153 
Q 1172 725 1289 603 
Q 1406 481 1766 481 
L 2356 481 
L 2356 0 
L 1766 0 
Q 1100 0 847 248 
Q 594 497 594 1153 
L 594 3053 
L 172 3053 
L 172 3500 
L 594 3500 
L 594 4494 
L 1172 4494 
z
" id="DejaVuSans-74" transform="scale(0.015625)"/>
       </defs>
       <use xlink:href="#DejaVuSans-53"/>
       <use x="63.476562" xlink:href="#DejaVuSans-61"/>
       <use x="124.755859" xlink:href="#DejaVuSans-74"/>
       <use x="163.964844" xlink:href="#DejaVuSans-2e"/>
      </g>
     </g>
    </g>
    <g id="xtick_7">
     <g id="line2d_13">
      <path clip-path="url(#p9b4a9b4a06)" d="M 698.208489 326.64351 
L 698.208489 3.00024 
" style="fill:none;stroke:#b0b0b0;stroke-linecap:square;stroke-width:0.8;"/>
     </g>
     <g id="line2d_14">
      <g>
       <use style="stroke:#000000;stroke-width:0.8;" x="698.208489" xlink:href="#mfad7b50ddc" y="326.64351"/>
      </g>
     </g>
     <g id="text_7">
      <!-- Sun. -->
      <g transform="translate(687.107708 341.241947)scale(0.1 -0.1)">
       <use xlink:href="#DejaVuSans-53"/>
       <use x="63.476562" xlink:href="#DejaVuSans-75"/>
       <use x="126.855469" xlink:href="#DejaVuSans-6e"/>
       <use x="190.234375" xlink:href="#DejaVuSans-2e"/>
      </g>
     </g>
    </g>
    <g id="xtick_8">
     <g id="line2d_15">
      <path clip-path="url(#p9b4a9b4a06)" d="M 806.38851 326.64351 
L 806.38851 3.00024 
" style="fill:none;stroke:#b0b0b0;stroke-linecap:square;stroke-width:0.8;"/>
     </g>
     <g id="line2d_16">
      <g>
       <use style="stroke:#000000;stroke-width:0.8;" x="806.38851" xlink:href="#mfad7b50ddc" y="326.64351"/>
      </g>
     </g>
     <g id="text_8">
      <!-- Mon. -->
      <g transform="translate(794.25726 341.241947)scale(0.1 -0.1)">
       <use xlink:href="#DejaVuSans-4d"/>
       <use x="86.279297" xlink:href="#DejaVuSans-6f"/>
       <use x="147.460938" xlink:href="#DejaVuSans-6e"/>
       <use x="210.839844" xlink:href="#DejaVuSans-2e"/>
      </g>
     </g>
    </g>
    <g id="text_9">
     <!-- Day of the week -->
     <g transform="translate(386.955313 354.920073)scale(0.1 -0.1)">
      <defs>
       <path d="M 1259 4147 
L 1259 519 
L 2022 519 
Q 2988 519 3436 956 
Q 3884 1394 3884 2338 
Q 3884 3275 3436 3711 
Q 2988 4147 2022 4147 
L 1259 4147 
z
M 628 4666 
L 1925 4666 
Q 3281 4666 3915 4102 
Q 4550 3538 4550 2338 
Q 4550 1131 3912 565 
Q 3275 0 1925 0 
L 628 0 
L 628 4666 
z
" id="DejaVuSans-44" transform="scale(0.015625)"/>
       <path d="M 2059 -325 
Q 1816 -950 1584 -1140 
Q 1353 -1331 966 -1331 
L 506 -1331 
L 506 -850 
L 844 -850 
Q 1081 -850 1212 -737 
Q 1344 -625 1503 -206 
L 1606 56 
L 191 3500 
L 800 3500 
L 1894 763 
L 2988 3500 
L 3597 3500 
L 2059 -325 
z
" id="DejaVuSans-79" transform="scale(0.015625)"/>
       <path id="DejaVuSans-20" transform="scale(0.015625)"/>
       <path d="M 2375 4863 
L 2375 4384 
L 1825 4384 
Q 1516 4384 1395 4259 
Q 1275 4134 1275 3809 
L 1275 3500 
L 2222 3500 
L 2222 3053 
L 1275 3053 
L 1275 0 
L 697 0 
L 697 3053 
L 147 3053 
L 147 3500 
L 697 3500 
L 697 3744 
Q 697 4328 969 4595 
Q 1241 4863 1831 4863 
L 2375 4863 
z
" id="DejaVuSans-66" transform="scale(0.015625)"/>
       <path d="M 269 3500 
L 844 3500 
L 1563 769 
L 2278 3500 
L 2956 3500 
L 3675 769 
L 4391 3500 
L 4966 3500 
L 4050 0 
L 3372 0 
L 2619 2869 
L 1863 0 
L 1184 0 
L 269 3500 
z
" id="DejaVuSans-77" transform="scale(0.015625)"/>
       <path d="M 581 4863 
L 1159 4863 
L 1159 1991 
L 2875 3500 
L 3609 3500 
L 1753 1863 
L 3688 0 
L 2938 0 
L 1159 1709 
L 1159 0 
L 581 0 
L 581 4863 
z
" id="DejaVuSans-6b" transform="scale(0.015625)"/>
      </defs>
      <use xlink:href="#DejaVuSans-44"/>
      <use x="77.001953" xlink:href="#DejaVuSans-61"/>
      <use x="138.28125" xlink:href="#DejaVuSans-79"/>
      <use x="197.460938" xlink:href="#DejaVuSans-20"/>
      <use x="229.248047" xlink:href="#DejaVuSans-6f"/>
      <use x="290.429688" xlink:href="#DejaVuSans-66"/>
      <use x="325.634766" xlink:href="#DejaVuSans-20"/>
      <use x="357.421875" xlink:href="#DejaVuSans-74"/>
      <use x="396.630859" xlink:href="#DejaVuSans-68"/>
      <use x="460.009766" xlink:href="#DejaVuSans-65"/>
      <use x="521.533203" xlink:href="#DejaVuSans-20"/>
      <use x="553.320312" xlink:href="#DejaVuSans-77"/>
      <use x="635.107422" xlink:href="#DejaVuSans-65"/>
      <use x="696.630859" xlink:href="#DejaVuSans-65"/>
      <use x="758.154297" xlink:href="#DejaVuSans-6b"/>
     </g>
    </g>
   </g>
   <g id="matplotlib.axis_2">
    <g id="ytick_1">
     <g id="line2d_17">
      <path clip-path="url(#p9b4a9b4a06)" d="M 49.128365 324.348168 
L 806.38851 324.348168 
" style="fill:none;stroke:#b0b0b0;stroke-linecap:square;stroke-width:0.8;"/>
     </g>
     <g id="line2d_18">
      <defs>
       <path d="M 0 0 
L -3.5 0 
" id="m33044f745a" style="stroke:#000000;stroke-width:0.8;"/>
      </defs>
      <g>
       <use style="stroke:#000000;stroke-width:0.8;" x="49.128365" xlink:href="#m33044f745a" y="324.348168"/>
      </g>
     </g>
     <g id="text_10">
      <!-- 0 -->
      <g transform="translate(35.765865 328.147386)scale(0.1 -0.1)">
       <defs>
        <path d="M 2034 4250 
Q 1547 4250 1301 3770 
Q 1056 3291 1056 2328 
Q 1056 1369 1301 889 
Q 1547 409 2034 409 
Q 2525 409 2770 889 
Q 3016 1369 3016 2328 
Q 3016 3291 2770 3770 
Q 2525 4250 2034 4250 
z
M 2034 4750 
Q 2819 4750 3233 4129 
Q 3647 3509 3647 2328 
Q 3647 1150 3233 529 
Q 2819 -91 2034 -91 
Q 1250 -91 836 529 
Q 422 1150 422 2328 
Q 422 3509 836 4129 
Q 1250 4750 2034 4750 
z
" id="DejaVuSans-30" transform="scale(0.015625)"/>
       </defs>
       <use xlink:href="#DejaVuSans-30"/>
      </g>
     </g>
    </g>
    <g id="ytick_2">
     <g id="line2d_19">
      <path clip-path="url(#p9b4a9b4a06)" d="M 49.128365 266.964609 
L 806.38851 266.964609 
" style="fill:none;stroke:#b0b0b0;stroke-linecap:square;stroke-width:0.8;"/>
     </g>
     <g id="line2d_20">
      <g>
       <use style="stroke:#000000;stroke-width:0.8;" x="49.128365" xlink:href="#m33044f745a" y="266.964609"/>
      </g>
     </g>
     <g id="text_11">
      <!-- 500 -->
      <g transform="translate(23.040865 270.763828)scale(0.1 -0.1)">
       <defs>
        <path d="M 691 4666 
L 3169 4666 
L 3169 4134 
L 1269 4134 
L 1269 2991 
Q 1406 3038 1543 3061 
Q 1681 3084 1819 3084 
Q 2600 3084 3056 2656 
Q 3513 2228 3513 1497 
Q 3513 744 3044 326 
Q 2575 -91 1722 -91 
Q 1428 -91 1123 -41 
Q 819 9 494 109 
L 494 744 
Q 775 591 1075 516 
Q 1375 441 1709 441 
Q 2250 441 2565 725 
Q 2881 1009 2881 1497 
Q 2881 1984 2565 2268 
Q 2250 2553 1709 2553 
Q 1456 2553 1204 2497 
Q 953 2441 691 2322 
L 691 4666 
z
" id="DejaVuSans-35" transform="scale(0.015625)"/>
       </defs>
       <use xlink:href="#DejaVuSans-35"/>
       <use x="63.623047" xlink:href="#DejaVuSans-30"/>
       <use x="127.246094" xlink:href="#DejaVuSans-30"/>
      </g>
     </g>
    </g>
    <g id="ytick_3">
     <g id="line2d_21">
      <path clip-path="url(#p9b4a9b4a06)" d="M 49.128365 209.581051 
L 806.38851 209.581051 
" style="fill:none;stroke:#b0b0b0;stroke-linecap:square;stroke-width:0.8;"/>
     </g>
     <g id="line2d_22">
      <g>
       <use style="stroke:#000000;stroke-width:0.8;" x="49.128365" xlink:href="#m33044f745a" y="209.581051"/>
      </g>
     </g>
     <g id="text_12">
      <!-- 1000 -->
      <g transform="translate(16.678365 213.380269)scale(0.1 -0.1)">
       <defs>
        <path d="M 794 531 
L 1825 531 
L 1825 4091 
L 703 3866 
L 703 4441 
L 1819 4666 
L 2450 4666 
L 2450 531 
L 3481 531 
L 3481 0 
L 794 0 
L 794 531 
z
" id="DejaVuSans-31" transform="scale(0.015625)"/>
       </defs>
       <use xlink:href="#DejaVuSans-31"/>
       <use x="63.623047" xlink:href="#DejaVuSans-30"/>
       <use x="127.246094" xlink:href="#DejaVuSans-30"/>
       <use x="190.869141" xlink:href="#DejaVuSans-30"/>
      </g>
     </g>
    </g>
    <g id="ytick_4">
     <g id="line2d_23">
      <path clip-path="url(#p9b4a9b4a06)" d="M 49.128365 152.197492 
L 806.38851 152.197492 
" style="fill:none;stroke:#b0b0b0;stroke-linecap:square;stroke-width:0.8;"/>
     </g>
     <g id="line2d_24">
      <g>
       <use style="stroke:#000000;stroke-width:0.8;" x="49.128365" xlink:href="#m33044f745a" y="152.197492"/>
      </g>
     </g>
     <g id="text_13">
      <!-- 1500 -->
      <g transform="translate(16.678365 155.996711)scale(0.1 -0.1)">
       <use xlink:href="#DejaVuSans-31"/>
       <use x="63.623047" xlink:href="#DejaVuSans-35"/>
       <use x="127.246094" xlink:href="#DejaVuSans-30"/>
       <use x="190.869141" xlink:href="#DejaVuSans-30"/>
      </g>
     </g>
    </g>
    <g id="ytick_5">
     <g id="line2d_25">
      <path clip-path="url(#p9b4a9b4a06)" d="M 49.128365 94.813934 
L 806.38851 94.813934 
" style="fill:none;stroke:#b0b0b0;stroke-linecap:square;stroke-width:0.8;"/>
     </g>
     <g id="line2d_26">
      <g>
       <use style="stroke:#000000;stroke-width:0.8;" x="49.128365" xlink:href="#m33044f745a" y="94.813934"/>
      </g>
     </g>
     <g id="text_14">
      <!-- 2000 -->
      <g transform="translate(16.678365 98.613152)scale(0.1 -0.1)">
       <defs>
        <path d="M 1228 531 
L 3431 531 
L 3431 0 
L 469 0 
L 469 531 
Q 828 903 1448 1529 
Q 2069 2156 2228 2338 
Q 2531 2678 2651 2914 
Q 2772 3150 2772 3378 
Q 2772 3750 2511 3984 
Q 2250 4219 1831 4219 
Q 1534 4219 1204 4116 
Q 875 4013 500 3803 
L 500 4441 
Q 881 4594 1212 4672 
Q 1544 4750 1819 4750 
Q 2544 4750 2975 4387 
Q 3406 4025 3406 3419 
Q 3406 3131 3298 2873 
Q 3191 2616 2906 2266 
Q 2828 2175 2409 1742 
Q 1991 1309 1228 531 
z
" id="DejaVuSans-32" transform="scale(0.015625)"/>
       </defs>
       <use xlink:href="#DejaVuSans-32"/>
       <use x="63.623047" xlink:href="#DejaVuSans-30"/>
       <use x="127.246094" xlink:href="#DejaVuSans-30"/>
       <use x="190.869141" xlink:href="#DejaVuSans-30"/>
      </g>
     </g>
    </g>
    <g id="ytick_6">
     <g id="line2d_27">
      <path clip-path="url(#p9b4a9b4a06)" d="M 49.128365 37.430375 
L 806.38851 37.430375 
" style="fill:none;stroke:#b0b0b0;stroke-linecap:square;stroke-width:0.8;"/>
     </g>
     <g id="line2d_28">
      <g>
       <use style="stroke:#000000;stroke-width:0.8;" x="49.128365" xlink:href="#m33044f745a" y="37.430375"/>
      </g>
     </g>
     <g id="text_15">
      <!-- 2500 -->
      <g transform="translate(16.678365 41.229594)scale(0.1 -0.1)">
       <use xlink:href="#DejaVuSans-32"/>
       <use x="63.623047" xlink:href="#DejaVuSans-35"/>
       <use x="127.246094" xlink:href="#DejaVuSans-30"/>
       <use x="190.869141" xlink:href="#DejaVuSans-30"/>
      </g>
     </g>
    </g>
    <g id="text_16">
     <!-- N2EX day-ahead auction electricity price (GB/MWh) -->
     <g transform="translate(10.598677 293.810156)rotate(-90)scale(0.1 -0.1)">
      <defs>
       <path d="M 628 4666 
L 1478 4666 
L 3547 763 
L 3547 4666 
L 4159 4666 
L 4159 0 
L 3309 0 
L 1241 3903 
L 1241 0 
L 628 0 
L 628 4666 
z
" id="DejaVuSans-4e" transform="scale(0.015625)"/>
       <path d="M 628 4666 
L 3578 4666 
L 3578 4134 
L 1259 4134 
L 1259 2753 
L 3481 2753 
L 3481 2222 
L 1259 2222 
L 1259 531 
L 3634 531 
L 3634 0 
L 628 0 
L 628 4666 
z
" id="DejaVuSans-45" transform="scale(0.015625)"/>
       <path d="M 403 4666 
L 1081 4666 
L 2241 2931 
L 3406 4666 
L 4084 4666 
L 2584 2425 
L 4184 0 
L 3506 0 
L 2194 1984 
L 872 0 
L 191 0 
L 1856 2491 
L 403 4666 
z
" id="DejaVuSans-58" transform="scale(0.015625)"/>
       <path d="M 313 2009 
L 1997 2009 
L 1997 1497 
L 313 1497 
L 313 2009 
z
" id="DejaVuSans-2d" transform="scale(0.015625)"/>
       <path d="M 3122 3366 
L 3122 2828 
Q 2878 2963 2633 3030 
Q 2388 3097 2138 3097 
Q 1578 3097 1268 2742 
Q 959 2388 959 1747 
Q 959 1106 1268 751 
Q 1578 397 2138 397 
Q 2388 397 2633 464 
Q 2878 531 3122 666 
L 3122 134 
Q 2881 22 2623 -34 
Q 2366 -91 2075 -91 
Q 1284 -91 818 406 
Q 353 903 353 1747 
Q 353 2603 823 3093 
Q 1294 3584 2113 3584 
Q 2378 3584 2631 3529 
Q 2884 3475 3122 3366 
z
" id="DejaVuSans-63" transform="scale(0.015625)"/>
       <path d="M 603 4863 
L 1178 4863 
L 1178 0 
L 603 0 
L 603 4863 
z
" id="DejaVuSans-6c" transform="scale(0.015625)"/>
       <path d="M 1159 525 
L 1159 -1331 
L 581 -1331 
L 581 3500 
L 1159 3500 
L 1159 2969 
Q 1341 3281 1617 3432 
Q 1894 3584 2278 3584 
Q 2916 3584 3314 3078 
Q 3713 2572 3713 1747 
Q 3713 922 3314 415 
Q 2916 -91 2278 -91 
Q 1894 -91 1617 61 
Q 1341 213 1159 525 
z
M 3116 1747 
Q 3116 2381 2855 2742 
Q 2594 3103 2138 3103 
Q 1681 3103 1420 2742 
Q 1159 2381 1159 1747 
Q 1159 1113 1420 752 
Q 1681 391 2138 391 
Q 2594 391 2855 752 
Q 3116 1113 3116 1747 
z
" id="DejaVuSans-70" transform="scale(0.015625)"/>
       <path d="M 1984 4856 
Q 1566 4138 1362 3434 
Q 1159 2731 1159 2009 
Q 1159 1288 1364 580 
Q 1569 -128 1984 -844 
L 1484 -844 
Q 1016 -109 783 600 
Q 550 1309 550 2009 
Q 550 2706 781 3412 
Q 1013 4119 1484 4856 
L 1984 4856 
z
" id="DejaVuSans-28" transform="scale(0.015625)"/>
       <path d="M 3809 666 
L 3809 1919 
L 2778 1919 
L 2778 2438 
L 4434 2438 
L 4434 434 
Q 4069 175 3628 42 
Q 3188 -91 2688 -91 
Q 1594 -91 976 548 
Q 359 1188 359 2328 
Q 359 3472 976 4111 
Q 1594 4750 2688 4750 
Q 3144 4750 3555 4637 
Q 3966 4525 4313 4306 
L 4313 3634 
Q 3963 3931 3569 4081 
Q 3175 4231 2741 4231 
Q 1884 4231 1454 3753 
Q 1025 3275 1025 2328 
Q 1025 1384 1454 906 
Q 1884 428 2741 428 
Q 3075 428 3337 486 
Q 3600 544 3809 666 
z
" id="DejaVuSans-47" transform="scale(0.015625)"/>
       <path d="M 1259 2228 
L 1259 519 
L 2272 519 
Q 2781 519 3026 730 
Q 3272 941 3272 1375 
Q 3272 1813 3026 2020 
Q 2781 2228 2272 2228 
L 1259 2228 
z
M 1259 4147 
L 1259 2741 
L 2194 2741 
Q 2656 2741 2882 2914 
Q 3109 3088 3109 3444 
Q 3109 3797 2882 3972 
Q 2656 4147 2194 4147 
L 1259 4147 
z
M 628 4666 
L 2241 4666 
Q 2963 4666 3353 4366 
Q 3744 4066 3744 3513 
Q 3744 3084 3544 2831 
Q 3344 2578 2956 2516 
Q 3422 2416 3680 2098 
Q 3938 1781 3938 1306 
Q 3938 681 3513 340 
Q 3088 0 2303 0 
L 628 0 
L 628 4666 
z
" id="DejaVuSans-42" transform="scale(0.015625)"/>
       <path d="M 1625 4666 
L 2156 4666 
L 531 -594 
L 0 -594 
L 1625 4666 
z
" id="DejaVuSans-2f" transform="scale(0.015625)"/>
       <path d="M 513 4856 
L 1013 4856 
Q 1481 4119 1714 3412 
Q 1947 2706 1947 2009 
Q 1947 1309 1714 600 
Q 1481 -109 1013 -844 
L 513 -844 
Q 928 -128 1133 580 
Q 1338 1288 1338 2009 
Q 1338 2731 1133 3434 
Q 928 4138 513 4856 
z
" id="DejaVuSans-29" transform="scale(0.015625)"/>
      </defs>
      <use xlink:href="#DejaVuSans-4e"/>
      <use x="74.804688" xlink:href="#DejaVuSans-32"/>
      <use x="138.427734" xlink:href="#DejaVuSans-45"/>
      <use x="201.611328" xlink:href="#DejaVuSans-58"/>
      <use x="270.117188" xlink:href="#DejaVuSans-20"/>
      <use x="301.904297" xlink:href="#DejaVuSans-64"/>
      <use x="365.380859" xlink:href="#DejaVuSans-61"/>
      <use x="426.660156" xlink:href="#DejaVuSans-79"/>
      <use x="484.089844" xlink:href="#DejaVuSans-2d"/>
      <use x="520.173828" xlink:href="#DejaVuSans-61"/>
      <use x="581.453125" xlink:href="#DejaVuSans-68"/>
      <use x="644.832031" xlink:href="#DejaVuSans-65"/>
      <use x="706.355469" xlink:href="#DejaVuSans-61"/>
      <use x="767.634766" xlink:href="#DejaVuSans-64"/>
      <use x="831.111328" xlink:href="#DejaVuSans-20"/>
      <use x="862.898438" xlink:href="#DejaVuSans-61"/>
      <use x="924.177734" xlink:href="#DejaVuSans-75"/>
      <use x="987.556641" xlink:href="#DejaVuSans-63"/>
      <use x="1042.537109" xlink:href="#DejaVuSans-74"/>
      <use x="1081.746094" xlink:href="#DejaVuSans-69"/>
      <use x="1109.529297" xlink:href="#DejaVuSans-6f"/>
      <use x="1170.710938" xlink:href="#DejaVuSans-6e"/>
      <use x="1234.089844" xlink:href="#DejaVuSans-20"/>
      <use x="1265.876953" xlink:href="#DejaVuSans-65"/>
      <use x="1327.400391" xlink:href="#DejaVuSans-6c"/>
      <use x="1355.183594" xlink:href="#DejaVuSans-65"/>
      <use x="1416.707031" xlink:href="#DejaVuSans-63"/>
      <use x="1471.6875" xlink:href="#DejaVuSans-74"/>
      <use x="1510.896484" xlink:href="#DejaVuSans-72"/>
      <use x="1552.009766" xlink:href="#DejaVuSans-69"/>
      <use x="1579.792969" xlink:href="#DejaVuSans-63"/>
      <use x="1634.773438" xlink:href="#DejaVuSans-69"/>
      <use x="1662.556641" xlink:href="#DejaVuSans-74"/>
      <use x="1701.765625" xlink:href="#DejaVuSans-79"/>
      <use x="1760.945312" xlink:href="#DejaVuSans-20"/>
      <use x="1792.732422" xlink:href="#DejaVuSans-70"/>
      <use x="1856.208984" xlink:href="#DejaVuSans-72"/>
      <use x="1897.322266" xlink:href="#DejaVuSans-69"/>
      <use x="1925.105469" xlink:href="#DejaVuSans-63"/>
      <use x="1980.085938" xlink:href="#DejaVuSans-65"/>
      <use x="2041.609375" xlink:href="#DejaVuSans-20"/>
      <use x="2073.396484" xlink:href="#DejaVuSans-28"/>
      <use x="2112.410156" xlink:href="#DejaVuSans-47"/>
      <use x="2189.900391" xlink:href="#DejaVuSans-42"/>
      <use x="2258.503906" xlink:href="#DejaVuSans-2f"/>
      <use x="2292.195312" xlink:href="#DejaVuSans-4d"/>
      <use x="2378.474609" xlink:href="#DejaVuSans-57"/>
      <use x="2477.351562" xlink:href="#DejaVuSans-68"/>
      <use x="2540.730469" xlink:href="#DejaVuSans-29"/>
     </g>
    </g>
   </g>
   <g id="line2d_29">
    <path clip-path="url(#p9b4a9b4a06)" d="M 49.128365 310.569228 
L 53.635866 311.801826 
L 58.143367 313.330524 
L 62.650868 313.726471 
L 67.158368 313.323638 
L 73.91962 309.464594 
L 76.17337 308.239455 
L 80.680871 305.118937 
L 85.188372 298.26734 
L 89.695873 295.657536 
L 94.203374 301.395892 
L 103.218375 301.395892 
L 107.725876 303.624669 
L 112.233377 304.843496 
L 116.740878 303.54548 
L 121.248379 295.656388 
L 125.75588 264.762228 
L 130.263381 255.495931 
L 134.770881 268.267216 
L 139.278382 298.999555 
L 143.785883 310.603658 
L 148.293384 313.323638 
L 152.800885 311.199299 
L 166.323387 312.814072 
L 170.830888 312.871456 
L 175.338389 312.181706 
L 179.84589 310.583 
L 184.353391 308.377176 
L 191.114642 302.17057 
L 193.368393 300.018687 
L 197.875893 298.984635 
L 202.383394 300.248221 
L 206.890895 299.328936 
L 211.398396 298.984635 
L 215.905897 303.004927 
L 220.413398 306.264313 
L 224.920899 300.822056 
L 229.4284 260.305821 
L 233.9359 177.570206 
L 238.443401 194.467369 
L 242.950902 123.505713 
L 247.458403 238.27283 
L 251.965904 299.597491 
L 256.473405 311.37604 
L 260.980906 308.381766 
L 265.488406 310.33625 
L 269.995907 310.583 
L 274.503408 311.148802 
L 279.010909 311.37145 
L 283.51841 311.34161 
L 288.025911 309.773891 
L 292.533412 306.787651 
L 297.040912 300.892064 
L 301.548413 289.91918 
L 306.055914 289.654068 
L 310.563415 298.526714 
L 315.070916 300.51448 
L 319.578417 301.473934 
L 324.085918 302.975087 
L 328.593419 304.875631 
L 333.100919 301.621983 
L 337.60842 283.238586 
L 342.115921 221.062353 
L 346.623422 148.709719 
L 351.130923 37.429227 
L 355.638424 152.197492 
L 360.145925 291.997613 
L 364.653425 309.993097 
L 369.160926 308.629663 
L 373.668427 309.187432 
L 382.683429 309.303346 
L 389.44468 309.481809 
L 391.698431 309.477792 
L 396.205931 309.123162 
L 400.713432 305.411593 
L 405.220933 293.361046 
L 409.728434 278.447059 
L 414.235935 279.781801 
L 418.743436 293.361046 
L 427.758438 293.361046 
L 432.265938 297.988456 
L 436.773439 299.208431 
L 441.28094 290.06723 
L 445.788441 259.784778 
L 450.295942 180.890419 
L 454.803443 152.195197 
L 459.310944 152.186015 
L 463.818444 204.266185 
L 468.325945 294.39395 
L 472.833446 309.131196 
L 477.340947 309.361878 
L 481.848448 309.888659 
L 486.355949 309.956371 
L 493.1172 310.467659 
L 495.37095 310.586443 
L 499.878451 310.268538 
L 504.385952 309.092175 
L 508.893453 306.841592 
L 513.400954 303.361853 
L 517.908455 298.79986 
L 522.415956 304.783817 
L 526.923456 307.95139 
L 533.684708 308.866084 
L 538.192209 309.268342 
L 540.445959 309.421556 
L 549.460961 309.416966 
L 553.968462 307.348862 
L 558.475963 299.237122 
L 562.983463 294.165564 
L 567.490964 289.918033 
L 571.998465 297.941402 
L 576.505966 307.580692 
L 581.013467 309.511075 
L 585.520968 307.592169 
L 590.028469 309.652238 
L 603.550971 309.995392 
L 610.312222 309.795123 
L 612.565973 309.767005 
L 617.073474 307.91696 
L 621.580975 308.43915 
L 626.088475 303.460552 
L 630.595976 300.132306 
L 635.103477 300.413485 
L 644.118479 305.217637 
L 648.62598 309.265473 
L 653.133481 309.820946 
L 657.640982 309.819798 
L 662.148482 305.984281 
L 666.655983 300.823204 
L 671.163484 299.410421 
L 675.670985 299.116617 
L 680.178486 303.674019 
L 684.685987 309.19317 
L 689.193488 309.763562 
L 693.700988 310.008016 
L 698.208489 310.914677 
L 704.969741 311.207907 
L 709.477241 311.23086 
L 718.492243 311.055266 
L 720.745994 310.913529 
L 725.253494 310.174429 
L 729.760995 310.915824 
L 736.522247 308.971095 
L 738.775997 308.281919 
L 743.283498 305.742123 
L 747.790999 308.295691 
L 752.2985 302.633081 
L 756.806001 306.569594 
L 761.313501 309.382536 
L 765.821002 305.806392 
L 770.328503 304.263922 
L 774.836004 297.664813 
L 779.343505 293.701904 
L 783.851006 285.328496 
L 788.358507 299.10055 
L 792.866007 309.062335 
L 797.373508 310.470528 
L 804.13476 311.426538 
L 804.13476 311.426538 
" style="fill:none;stroke:#d62728;stroke-dasharray:9.25,4;stroke-dashoffset:0;stroke-width:2.5;"/>
   </g>
   <g id="line2d_30">
    <path clip-path="url(#p9b4a9b4a06)" d="M 49.128365 314.228391 
L 51.382115 312.259094 
L 53.635866 311.148238 
L 55.889616 310.721571 
L 58.143367 310.721439 
L 62.650868 311.081321 
L 64.904618 311.125353 
L 67.158368 310.983816 
L 69.412119 310.645264 
L 76.17337 309.222299 
L 78.427121 308.93909 
L 91.949623 308.021249 
L 94.203374 307.91258 
L 96.457124 307.574609 
L 103.218375 306.132935 
L 105.472126 306.095851 
L 107.725876 306.443161 
L 112.233377 307.683984 
L 114.487128 307.770751 
L 116.740878 307.040041 
L 118.994628 305.208485 
L 121.248379 302.239255 
L 125.75588 294.156129 
L 128.00963 290.932062 
L 130.263381 289.262353 
L 132.517131 289.647454 
L 134.770881 291.657051 
L 137.024632 294.735583 
L 143.785883 305.729749 
L 146.039634 308.161194 
L 148.293384 309.611386 
L 152.800885 311.196801 
L 155.054635 312.922173 
L 157.308386 314.488463 
L 159.562136 312.810493 
L 161.815887 311.957788 
L 164.069637 311.727608 
L 168.577138 312.076916 
L 170.830888 312.227019 
L 173.084639 312.164674 
L 175.338389 311.809037 
L 177.59214 311.085116 
L 179.84589 310.023231 
L 182.09964 308.636575 
L 184.353391 306.914376 
L 186.607141 304.835509 
L 191.114642 300.058328 
L 193.368393 297.99897 
L 195.622143 296.807319 
L 197.875893 296.587136 
L 200.129644 297.295114 
L 202.383394 298.375311 
L 204.637145 299.282478 
L 211.398396 301.302288 
L 213.652147 302.471308 
L 218.159647 305.293142 
L 220.413398 306.068904 
L 222.667148 305.548785 
L 224.920899 303.122955 
L 227.174649 298.226378 
L 229.4284 291.016968 
L 233.9359 273.630422 
L 236.189651 268.022682 
L 238.443401 266.364008 
L 240.697152 269.320382 
L 242.950902 276.154479 
L 245.204653 285.759297 
L 247.458403 295.935158 
L 249.712153 304.576399 
L 251.965904 310.746313 
L 254.219654 314.086536 
L 256.473405 315.218093 
L 258.727155 315.003006 
L 260.980906 314.649376 
L 263.234656 315.153902 
L 265.488406 314.513677 
L 267.742157 312.854296 
L 269.995907 311.976186 
L 272.249658 311.691641 
L 276.757159 311.911215 
L 279.010909 312.020093 
L 281.264659 311.955202 
L 283.51841 311.647087 
L 285.77216 311.020265 
L 288.025911 310.052194 
L 290.279661 308.69124 
L 292.533412 306.891849 
L 294.787162 304.613446 
L 301.548413 296.912626 
L 303.802164 295.309564 
L 306.055914 294.457463 
L 308.309665 294.257226 
L 310.563415 294.3974 
L 312.817165 294.666841 
L 315.070916 295.222301 
L 317.324666 296.361959 
L 319.578417 298.350115 
L 321.832167 301.283124 
L 324.085918 304.687502 
L 326.339668 307.670388 
L 328.593419 309.035843 
L 330.847169 307.215999 
L 333.100919 300.799703 
L 335.35467 288.502553 
L 337.60842 271.166232 
L 339.862171 250.622623 
L 342.115921 231.303866 
L 344.369672 217.602357 
L 346.623422 209.32908 
L 348.877172 206.143389 
L 351.130923 211.323334 
L 353.384673 228.154642 
L 357.892174 276.326633 
L 360.145925 296.472299 
L 362.399675 309.450823 
L 364.653425 315.887443 
L 366.907176 317.476997 
L 369.160926 316.861766 
L 371.414677 316.416736 
L 373.668427 313.671218 
L 375.922178 311.64097 
L 378.175928 310.490732 
L 380.429678 310.05079 
L 382.683429 310.079266 
L 389.44468 310.934376 
L 391.698431 310.987171 
L 393.952181 310.686781 
L 396.205931 309.912912 
L 398.459682 308.499245 
L 400.713432 306.324613 
L 402.967183 303.285959 
L 405.220933 299.548902 
L 407.474684 295.444925 
L 409.728434 291.825987 
L 411.982184 289.593142 
L 414.235935 288.804633 
L 416.489685 289.288943 
L 420.997186 291.322655 
L 423.250937 292.220888 
L 425.504687 293.281233 
L 427.758438 294.873529 
L 430.012188 297.30145 
L 432.265938 300.487917 
L 434.519689 303.960608 
L 436.773439 306.803875 
L 439.02719 307.554758 
L 441.28094 304.559093 
L 443.534691 295.83971 
L 445.788441 280.574677 
L 448.042191 258.469846 
L 452.549692 205.154475 
L 454.803443 180.961113 
L 457.057193 163.548803 
L 459.310944 158.841124 
L 461.564694 171.554804 
L 463.818444 198.627404 
L 468.325945 269.734227 
L 470.579696 295.688861 
L 472.833446 311.109339 
L 475.087197 317.547798 
L 477.340947 318.575784 
L 479.594697 317.844867 
L 481.848448 312.514679 
L 484.102198 310.029322 
L 486.355949 308.54952 
L 488.609699 307.918261 
L 490.86345 307.896644 
L 493.1172 308.254496 
L 497.624701 309.350225 
L 499.878451 309.723108 
L 502.132202 309.670822 
L 504.385952 308.906873 
L 506.639703 307.081923 
L 508.893453 303.993646 
L 511.147203 299.538148 
L 515.654704 288.792595 
L 517.908455 284.472338 
L 520.162205 282.424568 
L 522.415956 282.506787 
L 524.669706 284.237246 
L 526.923456 286.505438 
L 529.177207 288.34396 
L 533.684708 291.160178 
L 535.938458 292.923496 
L 538.192209 295.349442 
L 540.445959 298.204838 
L 542.69971 300.87162 
L 544.95346 302.504195 
L 547.20721 301.899647 
L 549.460961 298.017602 
L 551.714711 289.684551 
L 553.968462 276.646288 
L 556.222212 259.220105 
L 558.475963 240.557147 
L 560.729713 224.362949 
L 562.983463 213.14557 
L 565.237214 209.168487 
L 567.490964 213.219688 
L 569.744715 225.785644 
L 571.998465 244.572777 
L 574.252216 266.653896 
L 576.505966 286.942584 
L 578.759716 300.736632 
L 581.013467 308.255303 
L 583.267217 310.99844 
L 585.520968 311.61667 
L 587.774718 312.51526 
L 590.028469 313.679801 
L 592.282219 311.552666 
L 594.535969 310.395021 
L 596.78972 310.024422 
L 599.04347 310.158195 
L 605.804722 311.167058 
L 608.058472 311.201689 
L 610.312222 310.938333 
L 612.565973 310.346024 
L 614.819723 309.391301 
L 617.073474 308.116272 
L 623.834725 303.622835 
L 626.088475 302.817679 
L 628.342226 302.929683 
L 630.595976 303.666071 
L 632.849727 304.642558 
L 635.103477 305.495101 
L 637.357228 305.979993 
L 644.118479 306.637708 
L 646.372229 307.107599 
L 650.87973 308.342687 
L 653.133481 308.761924 
L 655.387231 308.72002 
L 657.640982 308.019052 
L 659.894732 306.475161 
L 662.148482 304.274419 
L 664.402233 301.762505 
L 666.655983 300.01217 
L 668.909734 300.025298 
L 671.163484 301.616615 
L 675.670985 307.15409 
L 677.924735 309.275263 
L 680.178486 310.300447 
L 682.432236 310.199059 
L 684.685987 309.102788 
L 689.193488 305.560122 
L 691.447238 304.579907 
L 693.700988 305.241493 
L 695.954739 308.105066 
L 698.208489 314.175245 
L 700.46224 312.177309 
L 702.71599 311.048356 
L 704.969741 310.614686 
L 707.223491 310.62154 
L 713.984742 311.228521 
L 716.238493 311.269879 
L 718.492243 311.179466 
L 722.999744 310.679416 
L 727.507245 309.970254 
L 729.760995 309.414174 
L 732.014746 308.510636 
L 736.522247 306.329527 
L 738.775997 305.418547 
L 741.029747 304.814768 
L 743.283498 304.536825 
L 745.537248 304.596189 
L 747.790999 304.945926 
L 750.044749 305.547254 
L 752.2985 306.380486 
L 759.059751 309.56628 
L 761.313501 310.386346 
L 763.567252 310.846943 
L 765.821002 310.81478 
L 768.074753 310.136256 
L 770.328503 308.947349 
L 774.836004 305.919438 
L 777.089754 304.826466 
L 779.343505 303.957827 
L 781.597255 303.263759 
L 783.851006 303.3987 
L 786.104756 305.011742 
L 788.358507 307.173042 
L 790.612257 308.849833 
L 792.866007 309.717786 
L 795.119758 309.748335 
L 797.373508 309.406652 
L 799.627259 309.243161 
L 801.881009 309.912699 
L 804.13476 311.871327 
L 804.13476 311.871327 
" style="fill:none;stroke:#1f77b4;stroke-dasharray:2.25,3.7125;stroke-dashoffset:0;stroke-width:2.25;"/>
   </g>
   <g id="line2d_31">
    <path clip-path="url(#p9b4a9b4a06)" d="M 49.128365 315.540102 
L 51.382115 313.789793 
L 53.635866 312.364933 
L 55.889616 311.523424 
L 58.143367 311.291224 
L 60.397117 311.513239 
L 64.904618 312.391114 
L 67.158368 312.6691 
L 69.412119 312.719425 
L 71.665869 312.561212 
L 80.680871 311.397812 
L 82.934621 311.369908 
L 85.188372 311.578156 
L 87.442122 312.025439 
L 91.949623 313.159146 
L 94.203374 313.53575 
L 96.457124 313.649671 
L 98.710874 313.541401 
L 105.472126 312.931801 
L 109.979627 313.052757 
L 112.233377 313.163831 
L 114.487128 313.12229 
L 116.740878 312.787759 
L 118.994628 312.021324 
L 121.248379 310.785311 
L 125.75588 307.539482 
L 128.00963 306.293857 
L 130.263381 305.792521 
L 132.517131 306.22325 
L 134.770881 307.284163 
L 137.024632 308.722529 
L 141.532133 312.068426 
L 143.785883 313.397338 
L 146.039634 314.219561 
L 150.547134 315.082412 
L 152.800885 315.782972 
L 155.054635 316.919514 
L 157.308386 315.77102 
L 159.562136 314.204282 
L 161.815887 312.987726 
L 164.069637 312.309052 
L 166.323387 312.144304 
L 168.577138 312.337224 
L 173.084639 313.064175 
L 175.338389 313.30837 
L 177.59214 313.338965 
L 179.84589 313.08942 
L 182.09964 312.483779 
L 184.353391 311.481836 
L 186.607141 310.125558 
L 188.860892 308.609585 
L 191.114642 307.260625 
L 193.368393 306.455982 
L 195.622143 306.399329 
L 197.875893 306.979987 
L 202.383394 308.734379 
L 204.637145 309.232848 
L 206.890895 309.425157 
L 211.398396 309.624537 
L 213.652147 310.032859 
L 218.159647 311.362134 
L 220.413398 311.79806 
L 222.667148 311.616746 
L 224.920899 310.552628 
L 227.174649 308.508468 
L 229.4284 305.716246 
L 231.68215 302.620381 
L 233.9359 299.977874 
L 236.189651 298.465673 
L 238.443401 298.418181 
L 240.697152 299.941032 
L 242.950902 302.616234 
L 247.458403 309.137043 
L 249.712153 311.853301 
L 251.965904 313.771274 
L 254.219654 314.852266 
L 256.473405 315.377149 
L 258.727155 315.692966 
L 260.980906 316.207359 
L 263.234656 317.110092 
L 265.488406 315.902072 
L 267.742157 314.413221 
L 269.995907 313.268386 
L 272.249658 312.626776 
L 274.503408 312.444569 
L 276.757159 312.565965 
L 283.51841 313.279563 
L 285.77216 313.307771 
L 288.025911 313.102889 
L 290.279661 312.563708 
L 292.533412 311.615989 
L 294.787162 310.279107 
L 297.040912 308.750739 
L 299.294663 307.366394 
L 301.548413 306.521505 
L 303.802164 306.372686 
L 310.563415 307.218578 
L 312.817165 306.959853 
L 315.070916 306.530555 
L 317.324666 306.334334 
L 319.578417 306.786016 
L 321.832167 307.997802 
L 324.085918 309.480348 
L 326.339668 310.255077 
L 328.593419 309.113843 
L 330.847169 304.796902 
L 333.100919 296.019177 
L 335.35467 281.734235 
L 339.862171 244.759365 
L 342.115921 231.826888 
L 344.369672 226.720984 
L 346.623422 228.760279 
L 348.877172 236.909872 
L 351.130923 250.406048 
L 355.638424 284.282115 
L 357.892174 297.867111 
L 360.145925 307.130764 
L 362.399675 312.50186 
L 364.653425 315.221367 
L 366.907176 316.334685 
L 371.414677 317.232476 
L 373.668427 315.8473 
L 375.922178 314.267737 
L 378.175928 312.967044 
L 380.429678 312.131436 
L 382.683429 311.765794 
L 384.937179 311.768624 
L 387.19093 312.018103 
L 391.698431 312.778652 
L 393.952181 313.000037 
L 396.205931 312.851219 
L 398.459682 312.090024 
L 400.713432 310.542785 
L 402.967183 308.210143 
L 407.474684 302.777534 
L 409.728434 301.125841 
L 411.982184 300.8787 
L 414.235935 301.708268 
L 416.489685 302.981331 
L 418.743436 303.99152 
L 420.997186 304.420028 
L 425.504687 304.488098 
L 427.758438 305.054193 
L 430.012188 306.375901 
L 432.265938 308.06894 
L 434.519689 309.143265 
L 436.773439 308.269824 
L 439.02719 304.038579 
L 441.28094 294.957275 
L 443.534691 279.478074 
L 445.788441 258.04901 
L 448.042191 235.013224 
L 450.295942 216.631432 
L 452.549692 206.111055 
L 454.803443 203.47291 
L 457.057193 208.152983 
L 459.310944 219.880552 
L 461.564694 237.944072 
L 466.072195 280.595495 
L 468.325945 296.910121 
L 470.579696 307.130598 
L 472.833446 312.887264 
L 475.087197 315.764655 
L 477.340947 317.081833 
L 479.594697 317.646285 
L 481.848448 315.486471 
L 484.102198 313.688317 
L 486.355949 312.158905 
L 488.609699 311.127301 
L 490.86345 310.640639 
L 493.1172 310.639269 
L 495.37095 311.029298 
L 502.132202 313.078673 
L 504.385952 313.220253 
L 506.639703 312.564226 
L 508.893453 310.927262 
L 511.147203 308.370191 
L 513.400954 305.364803 
L 515.654704 302.681913 
L 517.908455 301.221368 
L 520.162205 301.389167 
L 522.415956 302.738206 
L 524.669706 304.587617 
L 526.923456 306.276851 
L 529.177207 307.499925 
L 531.430957 308.337908 
L 538.192209 310.352562 
L 542.69971 311.944512 
L 544.95346 312.510252 
L 547.20721 312.648916 
L 549.460961 312.190364 
L 551.714711 310.970643 
L 553.968462 309.011051 
L 556.222212 306.414589 
L 558.475963 303.614093 
L 560.729713 301.058392 
L 562.983463 299.060502 
L 565.237214 298.01983 
L 567.490964 298.32123 
L 569.744715 300.329021 
L 571.998465 303.814508 
L 574.252216 308.067047 
L 576.505966 311.837613 
L 578.759716 314.274833 
L 581.013467 315.637816 
L 583.267217 316.309671 
L 585.520968 316.842436 
L 587.774718 317.530627 
L 590.028469 315.297711 
L 592.282219 313.484702 
L 594.535969 312.08519 
L 596.78972 311.346027 
L 599.04347 311.241049 
L 601.297221 311.568784 
L 605.804722 312.601695 
L 608.058472 312.994736 
L 610.312222 313.221391 
L 612.565973 313.288091 
L 617.073474 313.027123 
L 621.580975 312.533182 
L 623.834725 312.426576 
L 626.088475 312.59901 
L 628.342226 313.085422 
L 632.849727 314.353732 
L 635.103477 314.820414 
L 637.357228 315.079934 
L 641.864728 315.255238 
L 664.402233 315.505536 
L 671.163484 314.891736 
L 673.417235 314.836914 
L 675.670985 315.018178 
L 677.924735 315.565923 
L 682.432236 317.282575 
L 684.685987 317.856049 
L 686.939737 317.887985 
L 691.447238 317.199349 
L 693.700988 317.194767 
L 695.954739 317.726546 
L 698.208489 315.536138 
L 700.46224 313.843243 
L 702.71599 312.531709 
L 704.969741 311.830971 
L 707.223491 311.719062 
L 709.477241 311.998674 
L 713.984742 312.771844 
L 716.238493 312.937562 
L 718.492243 312.895006 
L 729.760995 312.023325 
L 734.268496 312.085106 
L 738.775997 312.587958 
L 743.283498 313.228412 
L 747.790999 313.592775 
L 752.2985 313.906827 
L 756.806001 314.452483 
L 763.567252 315.445017 
L 765.821002 315.651276 
L 768.074753 315.692733 
L 770.328503 315.574316 
L 777.089754 314.700367 
L 781.597255 314.009124 
L 783.851006 313.933962 
L 786.104756 314.413865 
L 792.866007 317.109162 
L 795.119758 317.354144 
L 799.627259 317.074565 
L 801.881009 317.19408 
L 804.13476 317.754898 
L 804.13476 317.754898 
" style="fill:none;stroke:#2ca02c;stroke-dasharray:12.8,3.2,2,3.2;stroke-dashoffset:0;stroke-width:2;"/>
   </g>
   <g id="line2d_32">
    <path clip-path="url(#p9b4a9b4a06)" d="M 49.128365 313.25352 
L 51.382115 311.503506 
L 53.635866 310.536049 
L 55.889616 310.143809 
L 58.143367 310.09823 
L 62.650868 310.296514 
L 64.904618 310.274433 
L 67.158368 310.08731 
L 71.665869 309.253707 
L 76.17337 308.361194 
L 80.680871 307.949658 
L 87.442122 307.628538 
L 89.695873 307.732372 
L 94.203374 308.145939 
L 96.457124 308.01032 
L 103.218375 306.940942 
L 105.472126 306.924545 
L 107.725876 307.226895 
L 109.979627 307.743748 
L 112.233377 308.128723 
L 114.487128 307.988498 
L 116.740878 307.083572 
L 118.994628 305.141983 
L 121.248379 302.085683 
L 125.75588 294.027615 
L 128.00963 290.95888 
L 130.263381 289.564373 
L 132.517131 290.32529 
L 134.770881 292.577945 
L 137.024632 295.771441 
L 139.278382 299.57307 
L 141.532133 303.609803 
L 143.785883 307.184076 
L 146.039634 309.77601 
L 148.293384 311.444875 
L 150.547134 312.457847 
L 152.800885 313.638525 
L 155.054635 315.565924 
L 157.308386 313.825797 
L 159.562136 312.330967 
L 161.815887 311.612977 
L 164.069637 311.446082 
L 166.323387 311.594892 
L 170.830888 312.102415 
L 173.084639 312.211542 
L 175.338389 312.107019 
L 177.59214 311.708351 
L 179.84589 311.023931 
L 182.09964 310.006106 
L 184.353391 308.583289 
L 186.607141 306.708236 
L 191.114642 302.21663 
L 193.368393 300.347676 
L 195.622143 299.333572 
L 197.875893 299.202105 
L 200.129644 299.838425 
L 202.383394 300.63845 
L 204.637145 301.16144 
L 209.144646 301.769247 
L 211.398396 302.349585 
L 213.652147 303.419733 
L 218.159647 306.242951 
L 220.413398 307.14721 
L 222.667148 306.832943 
L 224.920899 304.678951 
L 227.174649 300.117268 
L 229.4284 293.316467 
L 231.68215 284.956379 
L 233.9359 277.17462 
L 236.189651 272.062647 
L 238.443401 270.462075 
L 240.697152 273.01793 
L 242.950902 278.969755 
L 247.458403 295.778835 
L 249.712153 303.0246 
L 251.965904 308.493574 
L 254.219654 311.948335 
L 256.473405 313.846435 
L 258.727155 314.716131 
L 260.980906 315.443618 
L 263.234656 316.684132 
L 265.488406 313.958721 
L 267.742157 312.489406 
L 269.995907 311.759166 
L 272.249658 311.540078 
L 276.757159 311.735875 
L 281.264659 311.857496 
L 283.51841 311.70874 
L 285.77216 311.342549 
L 288.025911 310.734495 
L 290.279661 309.803154 
L 292.533412 308.461564 
L 294.787162 306.637051 
L 301.548413 300.08333 
L 303.802164 298.746434 
L 306.055914 298.046686 
L 308.309665 297.881852 
L 312.817165 297.94402 
L 315.070916 298.254674 
L 317.324666 299.178373 
L 319.578417 301.000553 
L 321.832167 303.790285 
L 324.085918 306.993145 
L 326.339668 309.636936 
L 328.593419 310.391648 
L 330.847169 307.534447 
L 333.100919 299.574468 
L 335.35467 285.479111 
L 337.60842 266.705437 
L 339.862171 245.928316 
L 342.115921 228.034964 
L 344.369672 216.38503 
L 346.623422 209.86649 
L 348.877172 208.76952 
L 351.130923 216.454021 
L 353.384673 234.506936 
L 355.638424 257.411115 
L 357.892174 279.176057 
L 360.145925 296.590659 
L 362.399675 307.832497 
L 364.653425 314.092559 
L 366.907176 316.742632 
L 369.160926 317.712777 
L 371.414677 318.416223 
L 373.668427 313.440721 
L 375.922178 311.78154 
L 378.175928 310.880109 
L 380.429678 310.517243 
L 382.683429 310.489963 
L 387.19093 310.854913 
L 389.44468 311.048759 
L 391.698431 311.125931 
L 393.952181 310.951595 
L 396.205931 310.399081 
L 398.459682 309.268685 
L 400.713432 307.398165 
L 402.967183 304.65078 
L 405.220933 301.185456 
L 407.474684 297.40268 
L 409.728434 294.314768 
L 411.982184 292.755934 
L 414.235935 292.53366 
L 416.489685 293.316825 
L 418.743436 294.342955 
L 425.504687 296.658322 
L 427.758438 298.150726 
L 430.012188 300.53207 
L 434.519689 306.641503 
L 436.773439 308.550469 
L 439.02719 307.549954 
L 441.28094 301.737191 
L 443.534691 289.199642 
L 445.788441 269.68927 
L 448.042191 244.186363 
L 450.295942 217.032613 
L 452.549692 192.803589 
L 454.803443 174.771646 
L 457.057193 165.743094 
L 459.310944 168.778511 
L 461.564694 185.677828 
L 463.818444 213.283656 
L 466.072195 246.088377 
L 468.325945 276.021685 
L 470.579696 296.851803 
L 472.833446 309.646585 
L 475.087197 316.038526 
L 477.340947 318.666535 
L 479.594697 319.596403 
L 481.848448 312.66212 
L 484.102198 310.732207 
L 486.355949 309.62149 
L 488.609699 309.123916 
L 490.86345 309.052316 
L 493.1172 309.264869 
L 499.878451 310.501094 
L 502.132202 310.579105 
L 504.385952 310.049797 
L 506.639703 308.534726 
L 508.893453 305.805172 
L 511.147203 301.757724 
L 515.654704 292.111532 
L 517.908455 288.567551 
L 520.162205 287.299281 
L 522.415956 287.860248 
L 526.923456 291.549233 
L 529.177207 292.836143 
L 533.684708 294.773689 
L 535.938458 296.215498 
L 538.192209 298.322799 
L 540.445959 300.825527 
L 542.69971 303.145417 
L 544.95346 304.46115 
L 547.20721 303.558151 
L 549.460961 299.341396 
L 551.714711 290.60439 
L 553.968462 277.190185 
L 558.475963 242.172958 
L 560.729713 227.61251 
L 562.983463 218.30616 
L 565.237214 215.911707 
L 567.490964 220.570941 
L 569.744715 232.571432 
L 571.998465 250.252726 
L 574.252216 271.063797 
L 576.505966 290.041797 
L 578.759716 303.195919 
L 581.013467 311.246309 
L 583.267217 315.24977 
L 585.520968 317.10672 
L 587.774718 318.267541 
L 590.028469 313.200602 
L 592.282219 311.522732 
L 594.535969 310.669118 
L 596.78972 310.4008 
L 599.04347 310.470411 
L 605.804722 311.079465 
L 608.058472 311.138754 
L 610.312222 311.047892 
L 612.565973 310.789962 
L 614.819723 310.321357 
L 617.073474 309.647811 
L 623.834725 306.918738 
L 626.088475 306.468608 
L 628.342226 306.718568 
L 630.595976 307.387015 
L 632.849727 308.178165 
L 635.103477 308.79188 
L 637.357228 309.018439 
L 639.610978 308.956881 
L 646.372229 308.393637 
L 650.87973 308.458415 
L 655.387231 308.699312 
L 657.640982 308.696975 
L 659.894732 308.477777 
L 664.402233 307.654589 
L 666.655983 307.619293 
L 668.909734 308.32465 
L 671.163484 309.46188 
L 673.417235 310.737978 
L 675.670985 311.479493 
L 677.924735 311.491058 
L 680.178486 311.31486 
L 682.432236 311.30088 
L 686.939737 311.484815 
L 689.193488 311.536961 
L 691.447238 311.777794 
L 693.700988 312.779994 
L 695.954739 314.944084 
L 698.208489 313.603821 
L 700.46224 312.037978 
L 702.71599 311.229766 
L 704.969741 310.943314 
L 709.477241 311.025946 
L 713.984742 311.053955 
L 718.492243 310.662305 
L 725.253494 309.82234 
L 727.507245 309.650327 
L 729.760995 309.350043 
L 732.014746 308.777074 
L 736.522247 307.349138 
L 738.775997 306.77791 
L 741.029747 306.474711 
L 743.283498 306.423339 
L 745.537248 306.599731 
L 750.044749 307.340172 
L 761.313501 309.712017 
L 763.567252 309.916134 
L 765.821002 309.986687 
L 772.582254 309.786268 
L 777.089754 309.959631 
L 779.343505 309.803295 
L 781.597255 309.309796 
L 783.851006 309.106171 
L 786.104756 309.720561 
L 788.358507 310.650451 
L 790.612257 311.360796 
L 792.866007 311.869718 
L 799.627259 312.84417 
L 801.881009 313.866124 
L 804.13476 315.74478 
L 804.13476 315.74478 
" style="fill:none;stroke:#ff7f0e;stroke-dasharray:6.475,2.8;stroke-dashoffset:0;stroke-width:1.75;"/>
   </g>
   <g id="line2d_33">
    <path clip-path="url(#p9b4a9b4a06)" d="M 49.128365 314.875249 
L 51.382115 313.302258 
L 53.635866 312.600672 
L 55.889616 312.782286 
L 62.650868 314.997943 
L 64.904618 315.315602 
L 67.158368 315.283552 
L 69.412119 314.92294 
L 71.665869 314.292815 
L 78.427121 311.898695 
L 80.680871 311.424123 
L 82.934621 311.263378 
L 85.188372 311.416073 
L 91.949623 312.414491 
L 94.203374 312.502356 
L 96.457124 312.418907 
L 109.979627 311.196568 
L 112.233377 310.785299 
L 114.487128 310.087781 
L 116.740878 309.069674 
L 118.994628 307.741293 
L 121.248379 306.26778 
L 123.502129 305.006324 
L 125.75588 304.597152 
L 128.00963 305.381042 
L 132.517131 308.604004 
L 134.770881 309.716695 
L 137.024632 310.390685 
L 148.293384 313.010169 
L 150.547134 313.35525 
L 152.800885 313.860729 
L 155.054635 314.769545 
L 157.308386 314.675478 
L 159.562136 312.966876 
L 161.815887 312.095144 
L 164.069637 312.137338 
L 166.323387 312.814137 
L 168.577138 313.695825 
L 170.830888 314.449574 
L 173.084639 314.908084 
L 175.338389 315.030244 
L 177.59214 314.813712 
L 179.84589 314.277369 
L 182.09964 313.426681 
L 184.353391 312.279748 
L 191.114642 307.961111 
L 193.368393 307.176525 
L 195.622143 307.313378 
L 197.875893 308.153432 
L 200.129644 309.215893 
L 202.383394 310.036943 
L 204.637145 310.5119 
L 209.144646 310.961917 
L 215.905897 311.480884 
L 218.159647 311.322287 
L 220.413398 310.750546 
L 222.667148 309.623553 
L 224.920899 307.803023 
L 227.174649 305.09377 
L 231.68215 298.216669 
L 233.9359 297.275416 
L 236.189651 299.785938 
L 238.443401 303.967024 
L 240.697152 307.550574 
L 242.950902 309.581426 
L 245.204653 310.566368 
L 256.473405 313.687615 
L 260.980906 314.366863 
L 263.234656 315.056897 
L 265.488406 314.790491 
L 267.742157 313.134727 
L 269.995907 312.32089 
L 272.249658 312.419911 
L 274.503408 313.144998 
L 279.010909 314.884176 
L 281.264659 315.423648 
L 283.51841 315.648784 
L 285.77216 315.55156 
L 288.025911 315.135579 
L 290.279661 314.382798 
L 292.533412 313.275328 
L 294.787162 311.803876 
L 299.294663 308.221892 
L 301.548413 306.925964 
L 303.802164 306.718239 
L 306.055914 307.536804 
L 308.309665 308.858801 
L 310.563415 310.032618 
L 312.817165 310.810131 
L 317.324666 311.696249 
L 321.832167 312.454017 
L 324.085918 312.544206 
L 326.339668 312.03779 
L 328.593419 310.536202 
L 330.847169 307.535023 
L 333.100919 301.766235 
L 335.35467 287.539848 
L 337.60842 251.748706 
L 339.862171 201.982002 
L 342.115921 169.657799 
L 344.369672 159.469415 
L 346.623422 165.857161 
L 348.877172 189.009465 
L 351.130923 228.761932 
L 353.384673 271.265735 
L 355.638424 296.714417 
L 357.892174 305.771848 
L 360.145925 308.435117 
L 366.907176 312.544921 
L 369.160926 313.74697 
L 371.414677 314.622035 
L 373.668427 314.796546 
L 375.922178 313.046589 
L 378.175928 312.016166 
L 380.429678 311.872338 
L 382.683429 312.478284 
L 387.19093 314.536651 
L 389.44468 315.367453 
L 391.698431 315.842922 
L 393.952181 315.885829 
L 396.205931 315.436448 
L 398.459682 314.391386 
L 400.713432 312.580815 
L 402.967183 309.690961 
L 405.220933 305.379434 
L 407.474684 299.861636 
L 409.728434 295.096452 
L 411.982184 293.92172 
L 414.235935 297.071162 
L 418.743436 308.341699 
L 420.997186 311.997113 
L 423.250937 313.811576 
L 425.504687 314.394636 
L 427.758438 314.349984 
L 430.012188 313.980534 
L 432.265938 313.258902 
L 434.519689 311.911136 
L 436.773439 309.489055 
L 439.02719 305.07709 
L 441.28094 294.704278 
L 443.534691 264.776763 
L 445.788441 208.649163 
L 448.042191 160.247357 
L 450.295942 136.700975 
L 452.549692 128.09714 
L 454.803443 128.097476 
L 457.057193 136.12134 
L 459.310944 156.042681 
L 461.564694 194.12774 
L 463.818444 245.361142 
L 466.072195 285.332325 
L 468.325945 302.099349 
L 470.579696 306.590364 
L 472.833446 308.269068 
L 479.594697 312.647944 
L 481.848448 313.901376 
L 484.102198 311.696054 
L 486.355949 310.280321 
L 488.609699 309.967074 
L 490.86345 310.66158 
L 495.37095 313.254536 
L 497.624701 314.292483 
L 499.878451 314.889027 
L 502.132202 314.996356 
L 504.385952 314.588013 
L 506.639703 313.605998 
L 508.893453 311.968374 
L 511.147203 309.540408 
L 515.654704 302.983042 
L 517.908455 301.332655 
L 520.162205 302.856561 
L 524.669706 309.8285 
L 526.923456 311.719787 
L 529.177207 312.291164 
L 531.430957 312.245065 
L 538.192209 311.728501 
L 540.445959 311.541862 
L 542.69971 311.208016 
L 544.95346 310.665296 
L 549.460961 309.104129 
L 551.714711 308.16578 
L 553.968462 306.95831 
L 558.475963 304.03978 
L 560.729713 303.163945 
L 562.983463 302.924429 
L 565.237214 303.279686 
L 567.490964 304.166695 
L 569.744715 305.470693 
L 574.252216 308.400643 
L 578.759716 310.786836 
L 581.013467 311.849681 
L 585.520968 313.57741 
L 587.774718 314.395215 
L 590.028469 314.406926 
L 592.282219 312.624058 
L 594.535969 311.810582 
L 596.78972 312.045471 
L 599.04347 312.970972 
L 601.297221 314.067879 
L 603.550971 314.964998 
L 605.804722 315.514356 
L 608.058472 315.720917 
L 610.312222 315.633372 
L 612.565973 315.311736 
L 614.819723 314.806854 
L 623.834725 312.299478 
L 626.088475 311.967863 
L 628.342226 311.87042 
L 635.103477 311.891971 
L 639.610978 311.56573 
L 646.372229 310.959901 
L 650.87973 310.614306 
L 653.133481 310.348395 
L 655.387231 309.955423 
L 659.894732 308.780319 
L 664.402233 307.478792 
L 666.655983 306.997994 
L 668.909734 306.714131 
L 671.163484 306.672308 
L 673.417235 306.923311 
L 675.670985 307.501045 
L 677.924735 308.369897 
L 684.685987 311.446397 
L 686.939737 312.198978 
L 689.193488 312.72833 
L 693.700988 313.516468 
L 695.954739 314.356099 
L 698.208489 314.457006 
L 700.46224 312.790137 
L 702.71599 312.139772 
L 704.969741 312.474004 
L 709.477241 314.292603 
L 711.730992 314.974629 
L 713.984742 315.319425 
L 716.238493 315.361243 
L 718.492243 315.161172 
L 720.745994 314.788616 
L 725.253494 313.765025 
L 732.014746 312.164436 
L 734.268496 311.78251 
L 738.775997 311.439615 
L 745.537248 311.137253 
L 752.2985 310.683662 
L 763.567252 310.45435 
L 768.074753 309.922476 
L 772.582254 309.320519 
L 777.089754 309.047392 
L 779.343505 309.064578 
L 781.597255 309.207239 
L 783.851006 309.501927 
L 786.104756 309.944376 
L 790.612257 311.164976 
L 792.866007 311.794341 
L 795.119758 312.304308 
L 801.881009 313.449887 
L 804.13476 314.35923 
L 804.13476 314.35923 
" style="fill:none;stroke:#000000;stroke-linecap:square;stroke-width:1.5;"/>
   </g>
   <g id="patch_3">
    <path d="M 49.128365 326.64351 
L 49.128365 3.00024 
" style="fill:none;stroke:#000000;stroke-linecap:square;stroke-linejoin:miter;stroke-width:0.8;"/>
   </g>
   <g id="patch_4">
    <path d="M 806.38851 326.64351 
L 806.38851 3.00024 
" style="fill:none;stroke:#000000;stroke-linecap:square;stroke-linejoin:miter;stroke-width:0.8;"/>
   </g>
   <g id="patch_5">
    <path d="M 49.128365 326.64351 
L 806.38851 326.64351 
" style="fill:none;stroke:#000000;stroke-linecap:square;stroke-linejoin:miter;stroke-width:0.8;"/>
   </g>
   <g id="patch_6">
    <path d="M 49.128365 3.00024 
L 806.38851 3.00024 
" style="fill:none;stroke:#000000;stroke-linecap:square;stroke-linejoin:miter;stroke-width:0.8;"/>
   </g>
   <g id="legend_1">
    <g id="patch_7">
     <path d="M 216.276406 25.678365 
L 639.240469 25.678365 
L 639.240469 8.00024 
L 216.276406 8.00024 
z
" style="fill:#ffffff;opacity:0.95;stroke:#000000;stroke-linejoin:miter;"/>
    </g>
    <g id="line2d_34">
     <path d="M 220.276406 16.098678 
L 240.276406 16.098678 
" style="fill:none;stroke:#d62728;stroke-dasharray:9.25,4;stroke-dashoffset:0;stroke-width:2.5;"/>
    </g>
    <g id="line2d_35"/>
    <g id="text_17">
     <!-- Actual price -->
     <g transform="translate(248.276406 19.598678)scale(0.1 -0.1)">
      <defs>
       <path d="M 2188 4044 
L 1331 1722 
L 3047 1722 
L 2188 4044 
z
M 1831 4666 
L 2547 4666 
L 4325 0 
L 3669 0 
L 3244 1197 
L 1141 1197 
L 716 0 
L 50 0 
L 1831 4666 
z
" id="DejaVuSans-41" transform="scale(0.015625)"/>
      </defs>
      <use xlink:href="#DejaVuSans-41"/>
      <use x="66.658203" xlink:href="#DejaVuSans-63"/>
      <use x="121.638672" xlink:href="#DejaVuSans-74"/>
      <use x="160.847656" xlink:href="#DejaVuSans-75"/>
      <use x="224.226562" xlink:href="#DejaVuSans-61"/>
      <use x="285.505859" xlink:href="#DejaVuSans-6c"/>
      <use x="313.289062" xlink:href="#DejaVuSans-20"/>
      <use x="345.076172" xlink:href="#DejaVuSans-70"/>
      <use x="408.552734" xlink:href="#DejaVuSans-72"/>
      <use x="449.666016" xlink:href="#DejaVuSans-69"/>
      <use x="477.449219" xlink:href="#DejaVuSans-63"/>
      <use x="532.429688" xlink:href="#DejaVuSans-65"/>
     </g>
    </g>
    <g id="line2d_36">
     <path d="M 327.671719 16.098678 
L 347.671719 16.098678 
" style="fill:none;stroke:#1f77b4;stroke-dasharray:2.25,3.7125;stroke-dashoffset:0;stroke-width:2.25;"/>
    </g>
    <g id="line2d_37"/>
    <g id="text_18">
     <!-- Base 1 -->
     <g transform="translate(355.671719 19.598678)scale(0.1 -0.1)">
      <defs>
       <path d="M 2834 3397 
L 2834 2853 
Q 2591 2978 2328 3040 
Q 2066 3103 1784 3103 
Q 1356 3103 1142 2972 
Q 928 2841 928 2578 
Q 928 2378 1081 2264 
Q 1234 2150 1697 2047 
L 1894 2003 
Q 2506 1872 2764 1633 
Q 3022 1394 3022 966 
Q 3022 478 2636 193 
Q 2250 -91 1575 -91 
Q 1294 -91 989 -36 
Q 684 19 347 128 
L 347 722 
Q 666 556 975 473 
Q 1284 391 1588 391 
Q 1994 391 2212 530 
Q 2431 669 2431 922 
Q 2431 1156 2273 1281 
Q 2116 1406 1581 1522 
L 1381 1569 
Q 847 1681 609 1914 
Q 372 2147 372 2553 
Q 372 3047 722 3315 
Q 1072 3584 1716 3584 
Q 2034 3584 2315 3537 
Q 2597 3491 2834 3397 
z
" id="DejaVuSans-73" transform="scale(0.015625)"/>
      </defs>
      <use xlink:href="#DejaVuSans-42"/>
      <use x="68.603516" xlink:href="#DejaVuSans-61"/>
      <use x="129.882812" xlink:href="#DejaVuSans-73"/>
      <use x="181.982422" xlink:href="#DejaVuSans-65"/>
      <use x="243.505859" xlink:href="#DejaVuSans-20"/>
      <use x="275.292969" xlink:href="#DejaVuSans-31"/>
     </g>
    </g>
    <g id="line2d_38">
     <path d="M 409.563906 16.098678 
L 429.563906 16.098678 
" style="fill:none;stroke:#2ca02c;stroke-dasharray:12.8,3.2,2,3.2;stroke-dashoffset:0;stroke-width:2;"/>
    </g>
    <g id="line2d_39"/>
    <g id="text_19">
     <!-- Base 2 -->
     <g transform="translate(437.563906 19.598678)scale(0.1 -0.1)">
      <use xlink:href="#DejaVuSans-42"/>
      <use x="68.603516" xlink:href="#DejaVuSans-61"/>
      <use x="129.882812" xlink:href="#DejaVuSans-73"/>
      <use x="181.982422" xlink:href="#DejaVuSans-65"/>
      <use x="243.505859" xlink:href="#DejaVuSans-20"/>
      <use x="275.292969" xlink:href="#DejaVuSans-32"/>
     </g>
    </g>
    <g id="line2d_40">
     <path d="M 491.456094 16.098678 
L 511.456094 16.098678 
" style="fill:none;stroke:#ff7f0e;stroke-dasharray:6.475,2.8;stroke-dashoffset:0;stroke-width:1.75;"/>
    </g>
    <g id="line2d_41"/>
    <g id="text_20">
     <!-- Base 3 -->
     <g transform="translate(519.456094 19.598678)scale(0.1 -0.1)">
      <defs>
       <path d="M 2597 2516 
Q 3050 2419 3304 2112 
Q 3559 1806 3559 1356 
Q 3559 666 3084 287 
Q 2609 -91 1734 -91 
Q 1441 -91 1130 -33 
Q 819 25 488 141 
L 488 750 
Q 750 597 1062 519 
Q 1375 441 1716 441 
Q 2309 441 2620 675 
Q 2931 909 2931 1356 
Q 2931 1769 2642 2001 
Q 2353 2234 1838 2234 
L 1294 2234 
L 1294 2753 
L 1863 2753 
Q 2328 2753 2575 2939 
Q 2822 3125 2822 3475 
Q 2822 3834 2567 4026 
Q 2313 4219 1838 4219 
Q 1578 4219 1281 4162 
Q 984 4106 628 3988 
L 628 4550 
Q 988 4650 1302 4700 
Q 1616 4750 1894 4750 
Q 2613 4750 3031 4423 
Q 3450 4097 3450 3541 
Q 3450 3153 3228 2886 
Q 3006 2619 2597 2516 
z
" id="DejaVuSans-33" transform="scale(0.015625)"/>
      </defs>
      <use xlink:href="#DejaVuSans-42"/>
      <use x="68.603516" xlink:href="#DejaVuSans-61"/>
      <use x="129.882812" xlink:href="#DejaVuSans-73"/>
      <use x="181.982422" xlink:href="#DejaVuSans-65"/>
      <use x="243.505859" xlink:href="#DejaVuSans-20"/>
      <use x="275.292969" xlink:href="#DejaVuSans-33"/>
     </g>
    </g>
    <g id="line2d_42">
     <path d="M 573.348281 16.098678 
L 593.348281 16.098678 
" style="fill:none;stroke:#000000;stroke-linecap:square;stroke-width:1.5;"/>
    </g>
    <g id="line2d_43"/>
    <g id="text_21">
     <!-- Base 4 -->
     <g transform="translate(601.348281 19.598678)scale(0.1 -0.1)">
      <defs>
       <path d="M 2419 4116 
L 825 1625 
L 2419 1625 
L 2419 4116 
z
M 2253 4666 
L 3047 4666 
L 3047 1625 
L 3713 1625 
L 3713 1100 
L 3047 1100 
L 3047 0 
L 2419 0 
L 2419 1100 
L 313 1100 
L 313 1709 
L 2253 4666 
z
" id="DejaVuSans-34" transform="scale(0.015625)"/>
      </defs>
      <use xlink:href="#DejaVuSans-42"/>
      <use x="68.603516" xlink:href="#DejaVuSans-61"/>
      <use x="129.882812" xlink:href="#DejaVuSans-73"/>
      <use x="181.982422" xlink:href="#DejaVuSans-65"/>
      <use x="243.505859" xlink:href="#DejaVuSans-20"/>
      <use x="275.292969" xlink:href="#DejaVuSans-34"/>
     </g>
    </g>
   </g>
  </g>
 </g>
 <defs>
  <clipPath id="p9b4a9b4a06">
   <rect height="323.64327" width="757.260145" x="49.128365" y="3.00024"/>
  </clipPath>
 </defs>
</svg>
