<?xml version="1.0" encoding="utf-8" standalone="no"?>
<!DOCTYPE svg PUBLIC "-//W3C//DTD SVG 1.1//EN"
  "http://www.w3.org/Graphics/SVG/1.1/DTD/svg11.dtd">
<svg height="360pt" version="1.1" viewBox="0 0 720 360" width="720pt" xmlns="http://www.w3.org/2000/svg" xmlns:xlink="http://www.w3.org/1999/xlink">
 <metadata>
  <rdf:RDF xmlns:cc="http://creativecommons.org/ns#" xmlns:dc="http://purl.org/dc/elements/1.1/" xmlns:rdf="http://www.w3.org/1999/02/22-rdf-syntax-ns#">
   <cc:Work>
    <dc:type rdf:resource="http://purl.org/dc/dcmitype/StillImage"/>
    <dc:date>2022-04-12T14:13:29.238953</dc:date>
    <dc:format>image/svg+xml</dc:format>
    <dc:creator>
     <cc:Agent>
      <dc:title>Matplotlib v3.4.3, https://matplotlib.org/</dc:title>
     </cc:Agent>
    </dc:creator>
   </cc:Work>
  </rdf:RDF>
 </metadata>
 <defs>
  <style type="text/css">*{stroke-linecap:butt;stroke-linejoin:round;}</style>
 </defs>
 <g id="figure_1">
  <g id="patch_1">
   <path d="M 0 360 
L 720 360 
L 720 0 
L 0 0 
z
" style="fill:#ffffff;"/>
  </g>
  <g id="axes_1">
   <g id="patch_2">
    <path d="M 36.403365 326.64351 
L 704.86851 326.64351 
L 704.86851 6.799459 
L 36.403365 6.799459 
z
" style="fill:#ffffff;"/>
   </g>
   <g id="matplotlib.axis_1">
    <g id="xtick_1">
     <g id="line2d_1">
      <path clip-path="url(#p30d779b03a)" d="M 36.403365 326.64351 
L 36.403365 6.799459 
" style="fill:none;stroke:#b0b0b0;stroke-linecap:square;stroke-width:0.8;"/>
     </g>
     <g id="line2d_2">
      <defs>
       <path d="M 0 0 
L 0 3.5 
" id="mf7e2e68b21" style="stroke:#000000;stroke-width:0.8;"/>
      </defs>
      <g>
       <use style="stroke:#000000;stroke-width:0.8;" x="36.403365" xlink:href="#mf7e2e68b21" y="326.64351"/>
      </g>
     </g>
     <g id="text_1">
      <!-- Mon. -->
      <g transform="translate(24.272115 341.241947)scale(0.1 -0.1)">
       <defs>
        <path d="M 628 4666 
L 1569 4666 
L 2759 1491 
L 3956 4666 
L 4897 4666 
L 4897 0 
L 4281 0 
L 4281 4097 
L 3078 897 
L 2444 897 
L 1241 4097 
L 1241 0 
L 628 0 
L 628 4666 
z
" id="DejaVuSans-4d" transform="scale(0.015625)"/>
        <path d="M 1959 3097 
Q 1497 3097 1228 2736 
Q 959 2375 959 1747 
Q 959 1119 1226 758 
Q 1494 397 1959 397 
Q 2419 397 2687 759 
Q 2956 1122 2956 1747 
Q 2956 2369 2687 2733 
Q 2419 3097 1959 3097 
z
M 1959 3584 
Q 2709 3584 3137 3096 
Q 3566 2609 3566 1747 
Q 3566 888 3137 398 
Q 2709 -91 1959 -91 
Q 1206 -91 779 398 
Q 353 888 353 1747 
Q 353 2609 779 3096 
Q 1206 3584 1959 3584 
z
" id="DejaVuSans-6f" transform="scale(0.015625)"/>
        <path d="M 3513 2113 
L 3513 0 
L 2938 0 
L 2938 2094 
Q 2938 2591 2744 2837 
Q 2550 3084 2163 3084 
Q 1697 3084 1428 2787 
Q 1159 2491 1159 1978 
L 1159 0 
L 581 0 
L 581 3500 
L 1159 3500 
L 1159 2956 
Q 1366 3272 1645 3428 
Q 1925 3584 2291 3584 
Q 2894 3584 3203 3211 
Q 3513 2838 3513 2113 
z
" id="DejaVuSans-6e" transform="scale(0.015625)"/>
        <path d="M 684 794 
L 1344 794 
L 1344 0 
L 684 0 
L 684 794 
z
" id="DejaVuSans-2e" transform="scale(0.015625)"/>
       </defs>
       <use xlink:href="#DejaVuSans-4d"/>
       <use x="86.279297" xlink:href="#DejaVuSans-6f"/>
       <use x="147.460938" xlink:href="#DejaVuSans-6e"/>
       <use x="210.839844" xlink:href="#DejaVuSans-2e"/>
      </g>
     </g>
    </g>
    <g id="xtick_2">
     <g id="line2d_3">
      <path clip-path="url(#p30d779b03a)" d="M 131.898386 326.64351 
L 131.898386 6.799459 
" style="fill:none;stroke:#b0b0b0;stroke-linecap:square;stroke-width:0.8;"/>
     </g>
     <g id="line2d_4">
      <g>
       <use style="stroke:#000000;stroke-width:0.8;" x="131.898386" xlink:href="#mf7e2e68b21" y="326.64351"/>
      </g>
     </g>
     <g id="text_2">
      <!-- Tue. -->
      <g transform="translate(121.766354 341.241947)scale(0.1 -0.1)">
       <defs>
        <path d="M -19 4666 
L 3928 4666 
L 3928 4134 
L 2272 4134 
L 2272 0 
L 1638 0 
L 1638 4134 
L -19 4134 
L -19 4666 
z
" id="DejaVuSans-54" transform="scale(0.015625)"/>
        <path d="M 544 1381 
L 544 3500 
L 1119 3500 
L 1119 1403 
Q 1119 906 1312 657 
Q 1506 409 1894 409 
Q 2359 409 2629 706 
Q 2900 1003 2900 1516 
L 2900 3500 
L 3475 3500 
L 3475 0 
L 2900 0 
L 2900 538 
Q 2691 219 2414 64 
Q 2138 -91 1772 -91 
Q 1169 -91 856 284 
Q 544 659 544 1381 
z
M 1991 3584 
L 1991 3584 
z
" id="DejaVuSans-75" transform="scale(0.015625)"/>
        <path d="M 3597 1894 
L 3597 1613 
L 953 1613 
Q 991 1019 1311 708 
Q 1631 397 2203 397 
Q 2534 397 2845 478 
Q 3156 559 3463 722 
L 3463 178 
Q 3153 47 2828 -22 
Q 2503 -91 2169 -91 
Q 1331 -91 842 396 
Q 353 884 353 1716 
Q 353 2575 817 3079 
Q 1281 3584 2069 3584 
Q 2775 3584 3186 3129 
Q 3597 2675 3597 1894 
z
M 3022 2063 
Q 3016 2534 2758 2815 
Q 2500 3097 2075 3097 
Q 1594 3097 1305 2825 
Q 1016 2553 972 2059 
L 3022 2063 
z
" id="DejaVuSans-65" transform="scale(0.015625)"/>
       </defs>
       <use xlink:href="#DejaVuSans-54"/>
       <use x="45.958984" xlink:href="#DejaVuSans-75"/>
       <use x="109.337891" xlink:href="#DejaVuSans-65"/>
       <use x="170.861328" xlink:href="#DejaVuSans-2e"/>
      </g>
     </g>
    </g>
    <g id="xtick_3">
     <g id="line2d_5">
      <path clip-path="url(#p30d779b03a)" d="M 227.393406 326.64351 
L 227.393406 6.799459 
" style="fill:none;stroke:#b0b0b0;stroke-linecap:square;stroke-width:0.8;"/>
     </g>
     <g id="line2d_6">
      <g>
       <use style="stroke:#000000;stroke-width:0.8;" x="227.393406" xlink:href="#mf7e2e68b21" y="326.64351"/>
      </g>
     </g>
     <g id="text_3">
      <!-- Wed. -->
      <g transform="translate(214.903563 341.241947)scale(0.1 -0.1)">
       <defs>
        <path d="M 213 4666 
L 850 4666 
L 1831 722 
L 2809 4666 
L 3519 4666 
L 4500 722 
L 5478 4666 
L 6119 4666 
L 4947 0 
L 4153 0 
L 3169 4050 
L 2175 0 
L 1381 0 
L 213 4666 
z
" id="DejaVuSans-57" transform="scale(0.015625)"/>
        <path d="M 2906 2969 
L 2906 4863 
L 3481 4863 
L 3481 0 
L 2906 0 
L 2906 525 
Q 2725 213 2448 61 
Q 2172 -91 1784 -91 
Q 1150 -91 751 415 
Q 353 922 353 1747 
Q 353 2572 751 3078 
Q 1150 3584 1784 3584 
Q 2172 3584 2448 3432 
Q 2725 3281 2906 2969 
z
M 947 1747 
Q 947 1113 1208 752 
Q 1469 391 1925 391 
Q 2381 391 2643 752 
Q 2906 1113 2906 1747 
Q 2906 2381 2643 2742 
Q 2381 3103 1925 3103 
Q 1469 3103 1208 2742 
Q 947 2381 947 1747 
z
" id="DejaVuSans-64" transform="scale(0.015625)"/>
       </defs>
       <use xlink:href="#DejaVuSans-57"/>
       <use x="93.001953" xlink:href="#DejaVuSans-65"/>
       <use x="154.525391" xlink:href="#DejaVuSans-64"/>
       <use x="218.001953" xlink:href="#DejaVuSans-2e"/>
      </g>
     </g>
    </g>
    <g id="xtick_4">
     <g id="line2d_7">
      <path clip-path="url(#p30d779b03a)" d="M 322.888427 326.64351 
L 322.888427 6.799459 
" style="fill:none;stroke:#b0b0b0;stroke-linecap:square;stroke-width:0.8;"/>
     </g>
     <g id="line2d_8">
      <g>
       <use style="stroke:#000000;stroke-width:0.8;" x="322.888427" xlink:href="#mf7e2e68b21" y="326.64351"/>
      </g>
     </g>
     <g id="text_4">
      <!-- Thur. -->
      <g transform="translate(310.30874 341.241947)scale(0.1 -0.1)">
       <defs>
        <path d="M 3513 2113 
L 3513 0 
L 2938 0 
L 2938 2094 
Q 2938 2591 2744 2837 
Q 2550 3084 2163 3084 
Q 1697 3084 1428 2787 
Q 1159 2491 1159 1978 
L 1159 0 
L 581 0 
L 581 4863 
L 1159 4863 
L 1159 2956 
Q 1366 3272 1645 3428 
Q 1925 3584 2291 3584 
Q 2894 3584 3203 3211 
Q 3513 2838 3513 2113 
z
" id="DejaVuSans-68" transform="scale(0.015625)"/>
        <path d="M 2631 2963 
Q 2534 3019 2420 3045 
Q 2306 3072 2169 3072 
Q 1681 3072 1420 2755 
Q 1159 2438 1159 1844 
L 1159 0 
L 581 0 
L 581 3500 
L 1159 3500 
L 1159 2956 
Q 1341 3275 1631 3429 
Q 1922 3584 2338 3584 
Q 2397 3584 2469 3576 
Q 2541 3569 2628 3553 
L 2631 2963 
z
" id="DejaVuSans-72" transform="scale(0.015625)"/>
       </defs>
       <use xlink:href="#DejaVuSans-54"/>
       <use x="61.083984" xlink:href="#DejaVuSans-68"/>
       <use x="124.462891" xlink:href="#DejaVuSans-75"/>
       <use x="187.841797" xlink:href="#DejaVuSans-72"/>
       <use x="219.830078" xlink:href="#DejaVuSans-2e"/>
      </g>
     </g>
    </g>
    <g id="xtick_5">
     <g id="line2d_9">
      <path clip-path="url(#p30d779b03a)" d="M 418.383448 326.64351 
L 418.383448 6.799459 
" style="fill:none;stroke:#b0b0b0;stroke-linecap:square;stroke-width:0.8;"/>
     </g>
     <g id="line2d_10">
      <g>
       <use style="stroke:#000000;stroke-width:0.8;" x="418.383448" xlink:href="#mf7e2e68b21" y="326.64351"/>
      </g>
     </g>
     <g id="text_5">
      <!-- Fri. -->
      <g transform="translate(410.836573 341.241947)scale(0.1 -0.1)">
       <defs>
        <path d="M 628 4666 
L 3309 4666 
L 3309 4134 
L 1259 4134 
L 1259 2759 
L 3109 2759 
L 3109 2228 
L 1259 2228 
L 1259 0 
L 628 0 
L 628 4666 
z
" id="DejaVuSans-46" transform="scale(0.015625)"/>
        <path d="M 603 3500 
L 1178 3500 
L 1178 0 
L 603 0 
L 603 3500 
z
M 603 4863 
L 1178 4863 
L 1178 4134 
L 603 4134 
L 603 4863 
z
" id="DejaVuSans-69" transform="scale(0.015625)"/>
       </defs>
       <use xlink:href="#DejaVuSans-46"/>
       <use x="50.269531" xlink:href="#DejaVuSans-72"/>
       <use x="91.382812" xlink:href="#DejaVuSans-69"/>
       <use x="119.166016" xlink:href="#DejaVuSans-2e"/>
      </g>
     </g>
    </g>
    <g id="xtick_6">
     <g id="line2d_11">
      <path clip-path="url(#p30d779b03a)" d="M 513.878469 326.64351 
L 513.878469 6.799459 
" style="fill:none;stroke:#b0b0b0;stroke-linecap:square;stroke-width:0.8;"/>
     </g>
     <g id="line2d_12">
      <g>
       <use style="stroke:#000000;stroke-width:0.8;" x="513.878469" xlink:href="#mf7e2e68b21" y="326.64351"/>
      </g>
     </g>
     <g id="text_6">
      <!-- Sat. -->
      <g transform="translate(504.090969 341.241947)scale(0.1 -0.1)">
       <defs>
        <path d="M 3425 4513 
L 3425 3897 
Q 3066 4069 2747 4153 
Q 2428 4238 2131 4238 
Q 1616 4238 1336 4038 
Q 1056 3838 1056 3469 
Q 1056 3159 1242 3001 
Q 1428 2844 1947 2747 
L 2328 2669 
Q 3034 2534 3370 2195 
Q 3706 1856 3706 1288 
Q 3706 609 3251 259 
Q 2797 -91 1919 -91 
Q 1588 -91 1214 -16 
Q 841 59 441 206 
L 441 856 
Q 825 641 1194 531 
Q 1563 422 1919 422 
Q 2459 422 2753 634 
Q 3047 847 3047 1241 
Q 3047 1584 2836 1778 
Q 2625 1972 2144 2069 
L 1759 2144 
Q 1053 2284 737 2584 
Q 422 2884 422 3419 
Q 422 4038 858 4394 
Q 1294 4750 2059 4750 
Q 2388 4750 2728 4690 
Q 3069 4631 3425 4513 
z
" id="DejaVuSans-53" transform="scale(0.015625)"/>
        <path d="M 2194 1759 
Q 1497 1759 1228 1600 
Q 959 1441 959 1056 
Q 959 750 1161 570 
Q 1363 391 1709 391 
Q 2188 391 2477 730 
Q 2766 1069 2766 1631 
L 2766 1759 
L 2194 1759 
z
M 3341 1997 
L 3341 0 
L 2766 0 
L 2766 531 
Q 2569 213 2275 61 
Q 1981 -91 1556 -91 
Q 1019 -91 701 211 
Q 384 513 384 1019 
Q 384 1609 779 1909 
Q 1175 2209 1959 2209 
L 2766 2209 
L 2766 2266 
Q 2766 2663 2505 2880 
Q 2244 3097 1772 3097 
Q 1472 3097 1187 3025 
Q 903 2953 641 2809 
L 641 3341 
Q 956 3463 1253 3523 
Q 1550 3584 1831 3584 
Q 2591 3584 2966 3190 
Q 3341 2797 3341 1997 
z
" id="DejaVuSans-61" transform="scale(0.015625)"/>
        <path d="M 1172 4494 
L 1172 3500 
L 2356 3500 
L 2356 3053 
L 1172 3053 
L 1172 1153 
Q 1172 725 1289 603 
Q 1406 481 1766 481 
L 2356 481 
L 2356 0 
L 1766 0 
Q 1100 0 847 248 
Q 594 497 594 1153 
L 594 3053 
L 172 3053 
L 172 3500 
L 594 3500 
L 594 4494 
L 1172 4494 
z
" id="DejaVuSans-74" transform="scale(0.015625)"/>
       </defs>
       <use xlink:href="#DejaVuSans-53"/>
       <use x="63.476562" xlink:href="#DejaVuSans-61"/>
       <use x="124.755859" xlink:href="#DejaVuSans-74"/>
       <use x="163.964844" xlink:href="#DejaVuSans-2e"/>
      </g>
     </g>
    </g>
    <g id="xtick_7">
     <g id="line2d_13">
      <path clip-path="url(#p30d779b03a)" d="M 609.373489 326.64351 
L 609.373489 6.799459 
" style="fill:none;stroke:#b0b0b0;stroke-linecap:square;stroke-width:0.8;"/>
     </g>
     <g id="line2d_14">
      <g>
       <use style="stroke:#000000;stroke-width:0.8;" x="609.373489" xlink:href="#mf7e2e68b21" y="326.64351"/>
      </g>
     </g>
     <g id="text_7">
      <!-- Sun. -->
      <g transform="translate(598.272708 341.241947)scale(0.1 -0.1)">
       <use xlink:href="#DejaVuSans-53"/>
       <use x="63.476562" xlink:href="#DejaVuSans-75"/>
       <use x="126.855469" xlink:href="#DejaVuSans-6e"/>
       <use x="190.234375" xlink:href="#DejaVuSans-2e"/>
      </g>
     </g>
    </g>
    <g id="xtick_8">
     <g id="line2d_15">
      <path clip-path="url(#p30d779b03a)" d="M 704.86851 326.64351 
L 704.86851 6.799459 
" style="fill:none;stroke:#b0b0b0;stroke-linecap:square;stroke-width:0.8;"/>
     </g>
     <g id="line2d_16">
      <g>
       <use style="stroke:#000000;stroke-width:0.8;" x="704.86851" xlink:href="#mf7e2e68b21" y="326.64351"/>
      </g>
     </g>
     <g id="text_8">
      <!-- Mon. -->
      <g transform="translate(692.73726 341.241947)scale(0.1 -0.1)">
       <use xlink:href="#DejaVuSans-4d"/>
       <use x="86.279297" xlink:href="#DejaVuSans-6f"/>
       <use x="147.460938" xlink:href="#DejaVuSans-6e"/>
       <use x="210.839844" xlink:href="#DejaVuSans-2e"/>
      </g>
     </g>
    </g>
    <g id="text_9">
     <!-- Day of the week -->
     <g transform="translate(329.832812 354.920073)scale(0.1 -0.1)">
      <defs>
       <path d="M 1259 4147 
L 1259 519 
L 2022 519 
Q 2988 519 3436 956 
Q 3884 1394 3884 2338 
Q 3884 3275 3436 3711 
Q 2988 4147 2022 4147 
L 1259 4147 
z
M 628 4666 
L 1925 4666 
Q 3281 4666 3915 4102 
Q 4550 3538 4550 2338 
Q 4550 1131 3912 565 
Q 3275 0 1925 0 
L 628 0 
L 628 4666 
z
" id="DejaVuSans-44" transform="scale(0.015625)"/>
       <path d="M 2059 -325 
Q 1816 -950 1584 -1140 
Q 1353 -1331 966 -1331 
L 506 -1331 
L 506 -850 
L 844 -850 
Q 1081 -850 1212 -737 
Q 1344 -625 1503 -206 
L 1606 56 
L 191 3500 
L 800 3500 
L 1894 763 
L 2988 3500 
L 3597 3500 
L 2059 -325 
z
" id="DejaVuSans-79" transform="scale(0.015625)"/>
       <path id="DejaVuSans-20" transform="scale(0.015625)"/>
       <path d="M 2375 4863 
L 2375 4384 
L 1825 4384 
Q 1516 4384 1395 4259 
Q 1275 4134 1275 3809 
L 1275 3500 
L 2222 3500 
L 2222 3053 
L 1275 3053 
L 1275 0 
L 697 0 
L 697 3053 
L 147 3053 
L 147 3500 
L 697 3500 
L 697 3744 
Q 697 4328 969 4595 
Q 1241 4863 1831 4863 
L 2375 4863 
z
" id="DejaVuSans-66" transform="scale(0.015625)"/>
       <path d="M 269 3500 
L 844 3500 
L 1563 769 
L 2278 3500 
L 2956 3500 
L 3675 769 
L 4391 3500 
L 4966 3500 
L 4050 0 
L 3372 0 
L 2619 2869 
L 1863 0 
L 1184 0 
L 269 3500 
z
" id="DejaVuSans-77" transform="scale(0.015625)"/>
       <path d="M 581 4863 
L 1159 4863 
L 1159 1991 
L 2875 3500 
L 3609 3500 
L 1753 1863 
L 3688 0 
L 2938 0 
L 1159 1709 
L 1159 0 
L 581 0 
L 581 4863 
z
" id="DejaVuSans-6b" transform="scale(0.015625)"/>
      </defs>
      <use xlink:href="#DejaVuSans-44"/>
      <use x="77.001953" xlink:href="#DejaVuSans-61"/>
      <use x="138.28125" xlink:href="#DejaVuSans-79"/>
      <use x="197.460938" xlink:href="#DejaVuSans-20"/>
      <use x="229.248047" xlink:href="#DejaVuSans-6f"/>
      <use x="290.429688" xlink:href="#DejaVuSans-66"/>
      <use x="325.634766" xlink:href="#DejaVuSans-20"/>
      <use x="357.421875" xlink:href="#DejaVuSans-74"/>
      <use x="396.630859" xlink:href="#DejaVuSans-68"/>
      <use x="460.009766" xlink:href="#DejaVuSans-65"/>
      <use x="521.533203" xlink:href="#DejaVuSans-20"/>
      <use x="553.320312" xlink:href="#DejaVuSans-77"/>
      <use x="635.107422" xlink:href="#DejaVuSans-65"/>
      <use x="696.630859" xlink:href="#DejaVuSans-65"/>
      <use x="758.154297" xlink:href="#DejaVuSans-6b"/>
     </g>
    </g>
   </g>
   <g id="matplotlib.axis_2">
    <g id="ytick_1">
     <g id="line2d_17">
      <path clip-path="url(#p30d779b03a)" d="M 36.403365 326.64351 
L 704.86851 326.64351 
" style="fill:none;stroke:#b0b0b0;stroke-linecap:square;stroke-width:0.8;"/>
     </g>
     <g id="line2d_18">
      <defs>
       <path d="M 0 0 
L -3.5 0 
" id="maaf2f6598e" style="stroke:#000000;stroke-width:0.8;"/>
      </defs>
      <g>
       <use style="stroke:#000000;stroke-width:0.8;" x="36.403365" xlink:href="#maaf2f6598e" y="326.64351"/>
      </g>
     </g>
     <g id="text_10">
      <!-- 20 -->
      <g transform="translate(16.678365 330.442729)scale(0.1 -0.1)">
       <defs>
        <path d="M 1228 531 
L 3431 531 
L 3431 0 
L 469 0 
L 469 531 
Q 828 903 1448 1529 
Q 2069 2156 2228 2338 
Q 2531 2678 2651 2914 
Q 2772 3150 2772 3378 
Q 2772 3750 2511 3984 
Q 2250 4219 1831 4219 
Q 1534 4219 1204 4116 
Q 875 4013 500 3803 
L 500 4441 
Q 881 4594 1212 4672 
Q 1544 4750 1819 4750 
Q 2544 4750 2975 4387 
Q 3406 4025 3406 3419 
Q 3406 3131 3298 2873 
Q 3191 2616 2906 2266 
Q 2828 2175 2409 1742 
Q 1991 1309 1228 531 
z
" id="DejaVuSans-32" transform="scale(0.015625)"/>
        <path d="M 2034 4250 
Q 1547 4250 1301 3770 
Q 1056 3291 1056 2328 
Q 1056 1369 1301 889 
Q 1547 409 2034 409 
Q 2525 409 2770 889 
Q 3016 1369 3016 2328 
Q 3016 3291 2770 3770 
Q 2525 4250 2034 4250 
z
M 2034 4750 
Q 2819 4750 3233 4129 
Q 3647 3509 3647 2328 
Q 3647 1150 3233 529 
Q 2819 -91 2034 -91 
Q 1250 -91 836 529 
Q 422 1150 422 2328 
Q 422 3509 836 4129 
Q 1250 4750 2034 4750 
z
" id="DejaVuSans-30" transform="scale(0.015625)"/>
       </defs>
       <use xlink:href="#DejaVuSans-32"/>
       <use x="63.623047" xlink:href="#DejaVuSans-30"/>
      </g>
     </g>
    </g>
    <g id="ytick_2">
     <g id="line2d_19">
      <path clip-path="url(#p30d779b03a)" d="M 36.403365 273.336168 
L 704.86851 273.336168 
" style="fill:none;stroke:#b0b0b0;stroke-linecap:square;stroke-width:0.8;"/>
     </g>
     <g id="line2d_20">
      <g>
       <use style="stroke:#000000;stroke-width:0.8;" x="36.403365" xlink:href="#maaf2f6598e" y="273.336168"/>
      </g>
     </g>
     <g id="text_11">
      <!-- 25 -->
      <g transform="translate(16.678365 277.135387)scale(0.1 -0.1)">
       <defs>
        <path d="M 691 4666 
L 3169 4666 
L 3169 4134 
L 1269 4134 
L 1269 2991 
Q 1406 3038 1543 3061 
Q 1681 3084 1819 3084 
Q 2600 3084 3056 2656 
Q 3513 2228 3513 1497 
Q 3513 744 3044 326 
Q 2575 -91 1722 -91 
Q 1428 -91 1123 -41 
Q 819 9 494 109 
L 494 744 
Q 775 591 1075 516 
Q 1375 441 1709 441 
Q 2250 441 2565 725 
Q 2881 1009 2881 1497 
Q 2881 1984 2565 2268 
Q 2250 2553 1709 2553 
Q 1456 2553 1204 2497 
Q 953 2441 691 2322 
L 691 4666 
z
" id="DejaVuSans-35" transform="scale(0.015625)"/>
       </defs>
       <use xlink:href="#DejaVuSans-32"/>
       <use x="63.623047" xlink:href="#DejaVuSans-35"/>
      </g>
     </g>
    </g>
    <g id="ytick_3">
     <g id="line2d_21">
      <path clip-path="url(#p30d779b03a)" d="M 36.403365 220.028826 
L 704.86851 220.028826 
" style="fill:none;stroke:#b0b0b0;stroke-linecap:square;stroke-width:0.8;"/>
     </g>
     <g id="line2d_22">
      <g>
       <use style="stroke:#000000;stroke-width:0.8;" x="36.403365" xlink:href="#maaf2f6598e" y="220.028826"/>
      </g>
     </g>
     <g id="text_12">
      <!-- 30 -->
      <g transform="translate(16.678365 223.828045)scale(0.1 -0.1)">
       <defs>
        <path d="M 2597 2516 
Q 3050 2419 3304 2112 
Q 3559 1806 3559 1356 
Q 3559 666 3084 287 
Q 2609 -91 1734 -91 
Q 1441 -91 1130 -33 
Q 819 25 488 141 
L 488 750 
Q 750 597 1062 519 
Q 1375 441 1716 441 
Q 2309 441 2620 675 
Q 2931 909 2931 1356 
Q 2931 1769 2642 2001 
Q 2353 2234 1838 2234 
L 1294 2234 
L 1294 2753 
L 1863 2753 
Q 2328 2753 2575 2939 
Q 2822 3125 2822 3475 
Q 2822 3834 2567 4026 
Q 2313 4219 1838 4219 
Q 1578 4219 1281 4162 
Q 984 4106 628 3988 
L 628 4550 
Q 988 4650 1302 4700 
Q 1616 4750 1894 4750 
Q 2613 4750 3031 4423 
Q 3450 4097 3450 3541 
Q 3450 3153 3228 2886 
Q 3006 2619 2597 2516 
z
" id="DejaVuSans-33" transform="scale(0.015625)"/>
       </defs>
       <use xlink:href="#DejaVuSans-33"/>
       <use x="63.623047" xlink:href="#DejaVuSans-30"/>
      </g>
     </g>
    </g>
    <g id="ytick_4">
     <g id="line2d_23">
      <path clip-path="url(#p30d779b03a)" d="M 36.403365 166.721484 
L 704.86851 166.721484 
" style="fill:none;stroke:#b0b0b0;stroke-linecap:square;stroke-width:0.8;"/>
     </g>
     <g id="line2d_24">
      <g>
       <use style="stroke:#000000;stroke-width:0.8;" x="36.403365" xlink:href="#maaf2f6598e" y="166.721484"/>
      </g>
     </g>
     <g id="text_13">
      <!-- 35 -->
      <g transform="translate(16.678365 170.520703)scale(0.1 -0.1)">
       <use xlink:href="#DejaVuSans-33"/>
       <use x="63.623047" xlink:href="#DejaVuSans-35"/>
      </g>
     </g>
    </g>
    <g id="ytick_5">
     <g id="line2d_25">
      <path clip-path="url(#p30d779b03a)" d="M 36.403365 113.414143 
L 704.86851 113.414143 
" style="fill:none;stroke:#b0b0b0;stroke-linecap:square;stroke-width:0.8;"/>
     </g>
     <g id="line2d_26">
      <g>
       <use style="stroke:#000000;stroke-width:0.8;" x="36.403365" xlink:href="#maaf2f6598e" y="113.414143"/>
      </g>
     </g>
     <g id="text_14">
      <!-- 40 -->
      <g transform="translate(16.678365 117.213361)scale(0.1 -0.1)">
       <defs>
        <path d="M 2419 4116 
L 825 1625 
L 2419 1625 
L 2419 4116 
z
M 2253 4666 
L 3047 4666 
L 3047 1625 
L 3713 1625 
L 3713 1100 
L 3047 1100 
L 3047 0 
L 2419 0 
L 2419 1100 
L 313 1100 
L 313 1709 
L 2253 4666 
z
" id="DejaVuSans-34" transform="scale(0.015625)"/>
       </defs>
       <use xlink:href="#DejaVuSans-34"/>
       <use x="63.623047" xlink:href="#DejaVuSans-30"/>
      </g>
     </g>
    </g>
    <g id="ytick_6">
     <g id="line2d_27">
      <path clip-path="url(#p30d779b03a)" d="M 36.403365 60.106801 
L 704.86851 60.106801 
" style="fill:none;stroke:#b0b0b0;stroke-linecap:square;stroke-width:0.8;"/>
     </g>
     <g id="line2d_28">
      <g>
       <use style="stroke:#000000;stroke-width:0.8;" x="36.403365" xlink:href="#maaf2f6598e" y="60.106801"/>
      </g>
     </g>
     <g id="text_15">
      <!-- 45 -->
      <g transform="translate(16.678365 63.906019)scale(0.1 -0.1)">
       <use xlink:href="#DejaVuSans-34"/>
       <use x="63.623047" xlink:href="#DejaVuSans-35"/>
      </g>
     </g>
    </g>
    <g id="ytick_7">
     <g id="line2d_29">
      <path clip-path="url(#p30d779b03a)" d="M 36.403365 6.799459 
L 704.86851 6.799459 
" style="fill:none;stroke:#b0b0b0;stroke-linecap:square;stroke-width:0.8;"/>
     </g>
     <g id="line2d_30">
      <g>
       <use style="stroke:#000000;stroke-width:0.8;" x="36.403365" xlink:href="#maaf2f6598e" y="6.799459"/>
      </g>
     </g>
     <g id="text_16">
      <!-- 50 -->
      <g transform="translate(16.678365 10.598678)scale(0.1 -0.1)">
       <use xlink:href="#DejaVuSans-35"/>
       <use x="63.623047" xlink:href="#DejaVuSans-30"/>
      </g>
     </g>
    </g>
    <g id="text_17">
     <!-- Rolling average price (GB/MWh) -->
     <g transform="translate(10.598678 246.539453)rotate(-90)scale(0.1 -0.1)">
      <defs>
       <path d="M 2841 2188 
Q 3044 2119 3236 1894 
Q 3428 1669 3622 1275 
L 4263 0 
L 3584 0 
L 2988 1197 
Q 2756 1666 2539 1819 
Q 2322 1972 1947 1972 
L 1259 1972 
L 1259 0 
L 628 0 
L 628 4666 
L 2053 4666 
Q 2853 4666 3247 4331 
Q 3641 3997 3641 3322 
Q 3641 2881 3436 2590 
Q 3231 2300 2841 2188 
z
M 1259 4147 
L 1259 2491 
L 2053 2491 
Q 2509 2491 2742 2702 
Q 2975 2913 2975 3322 
Q 2975 3731 2742 3939 
Q 2509 4147 2053 4147 
L 1259 4147 
z
" id="DejaVuSans-52" transform="scale(0.015625)"/>
       <path d="M 603 4863 
L 1178 4863 
L 1178 0 
L 603 0 
L 603 4863 
z
" id="DejaVuSans-6c" transform="scale(0.015625)"/>
       <path d="M 2906 1791 
Q 2906 2416 2648 2759 
Q 2391 3103 1925 3103 
Q 1463 3103 1205 2759 
Q 947 2416 947 1791 
Q 947 1169 1205 825 
Q 1463 481 1925 481 
Q 2391 481 2648 825 
Q 2906 1169 2906 1791 
z
M 3481 434 
Q 3481 -459 3084 -895 
Q 2688 -1331 1869 -1331 
Q 1566 -1331 1297 -1286 
Q 1028 -1241 775 -1147 
L 775 -588 
Q 1028 -725 1275 -790 
Q 1522 -856 1778 -856 
Q 2344 -856 2625 -561 
Q 2906 -266 2906 331 
L 2906 616 
Q 2728 306 2450 153 
Q 2172 0 1784 0 
Q 1141 0 747 490 
Q 353 981 353 1791 
Q 353 2603 747 3093 
Q 1141 3584 1784 3584 
Q 2172 3584 2450 3431 
Q 2728 3278 2906 2969 
L 2906 3500 
L 3481 3500 
L 3481 434 
z
" id="DejaVuSans-67" transform="scale(0.015625)"/>
       <path d="M 191 3500 
L 800 3500 
L 1894 563 
L 2988 3500 
L 3597 3500 
L 2284 0 
L 1503 0 
L 191 3500 
z
" id="DejaVuSans-76" transform="scale(0.015625)"/>
       <path d="M 1159 525 
L 1159 -1331 
L 581 -1331 
L 581 3500 
L 1159 3500 
L 1159 2969 
Q 1341 3281 1617 3432 
Q 1894 3584 2278 3584 
Q 2916 3584 3314 3078 
Q 3713 2572 3713 1747 
Q 3713 922 3314 415 
Q 2916 -91 2278 -91 
Q 1894 -91 1617 61 
Q 1341 213 1159 525 
z
M 3116 1747 
Q 3116 2381 2855 2742 
Q 2594 3103 2138 3103 
Q 1681 3103 1420 2742 
Q 1159 2381 1159 1747 
Q 1159 1113 1420 752 
Q 1681 391 2138 391 
Q 2594 391 2855 752 
Q 3116 1113 3116 1747 
z
" id="DejaVuSans-70" transform="scale(0.015625)"/>
       <path d="M 3122 3366 
L 3122 2828 
Q 2878 2963 2633 3030 
Q 2388 3097 2138 3097 
Q 1578 3097 1268 2742 
Q 959 2388 959 1747 
Q 959 1106 1268 751 
Q 1578 397 2138 397 
Q 2388 397 2633 464 
Q 2878 531 3122 666 
L 3122 134 
Q 2881 22 2623 -34 
Q 2366 -91 2075 -91 
Q 1284 -91 818 406 
Q 353 903 353 1747 
Q 353 2603 823 3093 
Q 1294 3584 2113 3584 
Q 2378 3584 2631 3529 
Q 2884 3475 3122 3366 
z
" id="DejaVuSans-63" transform="scale(0.015625)"/>
       <path d="M 1984 4856 
Q 1566 4138 1362 3434 
Q 1159 2731 1159 2009 
Q 1159 1288 1364 580 
Q 1569 -128 1984 -844 
L 1484 -844 
Q 1016 -109 783 600 
Q 550 1309 550 2009 
Q 550 2706 781 3412 
Q 1013 4119 1484 4856 
L 1984 4856 
z
" id="DejaVuSans-28" transform="scale(0.015625)"/>
       <path d="M 3809 666 
L 3809 1919 
L 2778 1919 
L 2778 2438 
L 4434 2438 
L 4434 434 
Q 4069 175 3628 42 
Q 3188 -91 2688 -91 
Q 1594 -91 976 548 
Q 359 1188 359 2328 
Q 359 3472 976 4111 
Q 1594 4750 2688 4750 
Q 3144 4750 3555 4637 
Q 3966 4525 4313 4306 
L 4313 3634 
Q 3963 3931 3569 4081 
Q 3175 4231 2741 4231 
Q 1884 4231 1454 3753 
Q 1025 3275 1025 2328 
Q 1025 1384 1454 906 
Q 1884 428 2741 428 
Q 3075 428 3337 486 
Q 3600 544 3809 666 
z
" id="DejaVuSans-47" transform="scale(0.015625)"/>
       <path d="M 1259 2228 
L 1259 519 
L 2272 519 
Q 2781 519 3026 730 
Q 3272 941 3272 1375 
Q 3272 1813 3026 2020 
Q 2781 2228 2272 2228 
L 1259 2228 
z
M 1259 4147 
L 1259 2741 
L 2194 2741 
Q 2656 2741 2882 2914 
Q 3109 3088 3109 3444 
Q 3109 3797 2882 3972 
Q 2656 4147 2194 4147 
L 1259 4147 
z
M 628 4666 
L 2241 4666 
Q 2963 4666 3353 4366 
Q 3744 4066 3744 3513 
Q 3744 3084 3544 2831 
Q 3344 2578 2956 2516 
Q 3422 2416 3680 2098 
Q 3938 1781 3938 1306 
Q 3938 681 3513 340 
Q 3088 0 2303 0 
L 628 0 
L 628 4666 
z
" id="DejaVuSans-42" transform="scale(0.015625)"/>
       <path d="M 1625 4666 
L 2156 4666 
L 531 -594 
L 0 -594 
L 1625 4666 
z
" id="DejaVuSans-2f" transform="scale(0.015625)"/>
       <path d="M 513 4856 
L 1013 4856 
Q 1481 4119 1714 3412 
Q 1947 2706 1947 2009 
Q 1947 1309 1714 600 
Q 1481 -109 1013 -844 
L 513 -844 
Q 928 -128 1133 580 
Q 1338 1288 1338 2009 
Q 1338 2731 1133 3434 
Q 928 4138 513 4856 
z
" id="DejaVuSans-29" transform="scale(0.015625)"/>
      </defs>
      <use xlink:href="#DejaVuSans-52"/>
      <use x="64.982422" xlink:href="#DejaVuSans-6f"/>
      <use x="126.164062" xlink:href="#DejaVuSans-6c"/>
      <use x="153.947266" xlink:href="#DejaVuSans-6c"/>
      <use x="181.730469" xlink:href="#DejaVuSans-69"/>
      <use x="209.513672" xlink:href="#DejaVuSans-6e"/>
      <use x="272.892578" xlink:href="#DejaVuSans-67"/>
      <use x="336.369141" xlink:href="#DejaVuSans-20"/>
      <use x="368.15625" xlink:href="#DejaVuSans-61"/>
      <use x="429.435547" xlink:href="#DejaVuSans-76"/>
      <use x="488.615234" xlink:href="#DejaVuSans-65"/>
      <use x="550.138672" xlink:href="#DejaVuSans-72"/>
      <use x="591.251953" xlink:href="#DejaVuSans-61"/>
      <use x="652.53125" xlink:href="#DejaVuSans-67"/>
      <use x="716.007812" xlink:href="#DejaVuSans-65"/>
      <use x="777.53125" xlink:href="#DejaVuSans-20"/>
      <use x="809.318359" xlink:href="#DejaVuSans-70"/>
      <use x="872.794922" xlink:href="#DejaVuSans-72"/>
      <use x="913.908203" xlink:href="#DejaVuSans-69"/>
      <use x="941.691406" xlink:href="#DejaVuSans-63"/>
      <use x="996.671875" xlink:href="#DejaVuSans-65"/>
      <use x="1058.195312" xlink:href="#DejaVuSans-20"/>
      <use x="1089.982422" xlink:href="#DejaVuSans-28"/>
      <use x="1128.996094" xlink:href="#DejaVuSans-47"/>
      <use x="1206.486328" xlink:href="#DejaVuSans-42"/>
      <use x="1275.089844" xlink:href="#DejaVuSans-2f"/>
      <use x="1308.78125" xlink:href="#DejaVuSans-4d"/>
      <use x="1395.060547" xlink:href="#DejaVuSans-57"/>
      <use x="1493.9375" xlink:href="#DejaVuSans-68"/>
      <use x="1557.316406" xlink:href="#DejaVuSans-29"/>
     </g>
    </g>
   </g>
   <g id="line2d_31">
    <path clip-path="url(#p30d779b03a)" d="M 36.403365 188.19768 
L 38.392845 185.003681 
L 40.382324 181.131125 
L 42.371804 176.580011 
L 44.361283 172.340967 
L 46.350763 168.413992 
L 48.340243 163.699624 
L 54.308681 146.934465 
L 56.298161 139.8668 
L 62.2666 114.445862 
L 64.256079 106.559707 
L 66.245559 99.27437 
L 68.235039 93.382798 
L 70.224518 88.884991 
L 72.213998 85.458884 
L 74.203477 83.104476 
L 76.192957 81.932825 
L 80.171916 82.009455 
L 82.161396 82.129396 
L 84.150875 82.596946 
L 86.140355 83.412104 
L 88.129835 84.388295 
L 94.098273 87.759984 
L 96.087753 88.717295 
L 98.077233 89.521348 
L 100.066712 90.859584 
L 102.056192 92.732004 
L 104.045671 93.011868 
L 106.035151 91.699175 
L 108.024631 91.375999 
L 112.00359 92.819739 
L 113.993069 93.708195 
L 115.982549 93.938083 
L 117.972029 93.509403 
L 119.961508 93.916982 
L 121.950988 95.16082 
L 123.940467 96.13479 
L 125.929947 96.838891 
L 127.919427 95.37516 
L 129.908906 91.743597 
L 131.898386 88.465196 
L 135.877345 82.811286 
L 137.866825 80.279187 
L 139.856304 77.518311 
L 143.835263 71.722248 
L 145.824743 69.099083 
L 147.814222 67.187793 
L 149.803702 65.988377 
L 151.793182 64.918899 
L 155.772141 62.923205 
L 157.76162 61.750444 
L 159.7511 61.221813 
L 161.74058 61.337312 
L 163.730059 60.409986 
L 165.719539 58.439836 
L 167.709018 56.855053 
L 169.698498 55.655638 
L 171.687978 54.262983 
L 177.656416 49.571937 
L 179.645896 48.311441 
L 181.635376 47.331918 
L 183.624855 47.02318 
L 185.614335 47.385226 
L 187.603814 47.92052 
L 189.593294 48.629064 
L 191.582774 49.131041 
L 193.572253 49.426453 
L 195.561733 49.194344 
L 197.551212 48.434714 
L 199.540692 48.790096 
L 201.530172 50.26049 
L 203.519651 52.196213 
L 207.49861 57.10271 
L 209.48809 59.712548 
L 211.47757 60.901968 
L 213.467049 60.67097 
L 215.456529 61.151847 
L 219.435488 63.484043 
L 221.424968 64.57018 
L 223.414447 66.015031 
L 225.403927 67.818596 
L 227.393406 69.219024 
L 231.372366 71.111435 
L 233.361845 71.904382 
L 235.351325 73.683514 
L 241.319764 81.826211 
L 243.309243 83.725285 
L 245.298723 84.860287 
L 247.288202 86.537247 
L 249.277682 88.756165 
L 251.267162 90.581942 
L 253.256641 92.014576 
L 255.246121 92.951897 
L 257.2356 93.393904 
L 259.22508 95.406256 
L 265.193519 106.224315 
L 267.182998 109.241732 
L 269.172478 111.647226 
L 271.161958 113.827274 
L 273.151437 115.781877 
L 275.140917 117.232281 
L 277.130396 118.178486 
L 279.119876 118.188481 
L 283.098835 116.2361 
L 285.088315 115.109982 
L 287.077794 114.129349 
L 289.067274 113.294201 
L 291.056754 112.987684 
L 293.046233 113.209798 
L 295.035713 113.786183 
L 297.025192 114.716841 
L 299.014672 114.513606 
L 304.983111 110.468912 
L 306.97259 110.788756 
L 312.941029 116.689212 
L 314.930509 117.943045 
L 320.898948 119.768822 
L 322.888427 120.608413 
L 324.877907 121.643463 
L 326.867386 122.880638 
L 328.856866 124.319936 
L 330.846346 125.994675 
L 332.835825 127.904855 
L 334.825305 129.646228 
L 336.814784 131.218795 
L 338.804264 132.387114 
L 340.793744 133.151186 
L 342.783223 133.426607 
L 344.772703 133.213378 
L 346.762182 132.239408 
L 348.751662 130.504698 
L 350.741142 129.500743 
L 352.730621 129.227543 
L 354.720101 128.063666 
L 356.70958 126.009113 
L 358.69906 123.500336 
L 362.678019 117.728705 
L 364.667499 115.074444 
L 366.656978 112.214727 
L 368.646458 109.149555 
L 370.635938 106.459756 
L 372.625417 104.145328 
L 374.614897 103.064744 
L 376.604376 103.218003 
L 378.593856 103.765514 
L 380.583335 104.707277 
L 382.572815 105.470238 
L 386.551774 106.545269 
L 388.541254 106.942853 
L 390.530733 107.594758 
L 392.520213 108.500982 
L 394.509693 110.421157 
L 396.499172 113.355282 
L 398.488652 115.723017 
L 400.478131 117.524361 
L 402.467611 117.806445 
L 404.457091 116.569271 
L 406.44657 116.19723 
L 408.43605 116.690323 
L 410.425529 116.882451 
L 412.415009 116.773616 
L 414.404489 117.603211 
L 418.383448 121.272533 
L 420.372927 123.307097 
L 422.362407 125.784778 
L 424.351887 128.705576 
L 426.341366 130.720149 
L 432.309805 134.071848 
L 434.299285 135.452286 
L 436.288764 137.087045 
L 438.278244 138.872841 
L 440.267723 140.809674 
L 442.257203 143.291797 
L 444.246683 146.31921 
L 446.236162 148.668065 
L 448.225642 150.338361 
L 450.215121 152.496198 
L 452.204601 155.141575 
L 454.194081 157.579275 
L 456.18356 159.809299 
L 458.17304 161.60398 
L 460.162519 162.963317 
L 462.151999 164.864612 
L 464.141479 167.307865 
L 466.130958 168.89598 
L 468.120438 169.628956 
L 470.109917 169.276905 
L 472.099397 167.839828 
L 474.088877 165.470983 
L 476.078356 162.17037 
L 478.067836 160.699976 
L 480.057315 161.0598 
L 482.046795 160.262411 
L 484.036275 158.307809 
L 486.025754 154.889476 
L 491.994193 140.106683 
L 493.983673 136.839388 
L 495.973152 135.277927 
L 497.962632 134.682661 
L 499.952111 135.053592 
L 501.941591 133.906373 
L 507.91003 125.800325 
L 509.899509 120.541778 
L 511.888989 112.763349 
L 513.878469 105.582406 
L 515.867948 98.998949 
L 517.857428 93.628234 
L 519.846907 89.470261 
L 521.836387 85.012435 
L 525.815346 75.668102 
L 527.804826 71.252477 
L 529.794305 67.838586 
L 531.783785 65.426429 
L 533.773265 64.95999 
L 535.762744 66.439269 
L 537.752224 68.497154 
L 539.741703 71.133646 
L 541.731183 72.849476 
L 545.710142 74.523105 
L 547.699622 75.484858 
L 549.689101 77.205131 
L 551.678581 79.683922 
L 553.668061 81.817326 
L 555.65754 83.605343 
L 557.64702 84.521563 
L 559.636499 84.565986 
L 561.625979 85.143482 
L 563.615459 86.254052 
L 565.604938 88.608459 
L 567.594418 92.206705 
L 569.583897 97.122086 
L 571.573377 103.354603 
L 573.562857 107.846857 
L 581.520775 118.897025 
L 583.510255 121.83115 
L 585.499734 124.007866 
L 587.489214 125.427174 
L 589.478693 126.679897 
L 591.468173 127.766034 
L 593.457652 128.57675 
L 595.447132 129.112044 
L 597.436612 130.574664 
L 599.426091 132.96461 
L 601.415571 135.638862 
L 603.40505 138.597419 
L 605.39453 143.631631 
L 607.38401 150.741498 
L 609.373489 156.733021 
L 611.362969 161.606201 
L 613.352448 165.046745 
L 615.341928 167.054655 
L 617.331408 169.662273 
L 621.310367 176.247951 
L 623.299846 179.797331 
L 625.289326 183.8709 
L 627.278806 188.468659 
L 629.268285 192.437835 
L 631.257765 195.778428 
L 633.247244 199.70207 
L 635.236724 204.208762 
L 637.226204 209.520616 
L 639.215683 215.637634 
L 641.205163 221.112742 
L 643.194642 225.945941 
L 645.184122 229.660797 
L 653.14204 239.960219 
L 655.13152 242.854364 
L 657.121 245.156575 
L 659.110479 246.866852 
L 661.099959 247.269989 
L 663.089438 246.365985 
L 665.078918 244.682361 
L 671.047357 237.372592 
L 673.036836 235.384672 
L 675.026316 233.818769 
L 677.015796 232.862569 
L 679.005275 232.516071 
L 680.994755 232.899218 
L 682.984234 234.012008 
L 684.973714 234.4629 
L 686.963194 234.251891 
L 688.952673 233.543348 
L 690.942153 232.337269 
L 692.931632 230.852438 
L 694.921112 229.088853 
L 696.910592 228.42029 
L 698.900071 228.846749 
L 700.889551 230.387109 
L 702.87903 233.041371 
L 702.87903 233.041371 
" style="fill:none;stroke:#d62728;stroke-dasharray:7.4,3.2;stroke-dashoffset:0;stroke-width:2;"/>
   </g>
   <g id="line2d_32">
    <path clip-path="url(#p30d779b03a)" d="M 36.403365 265.941377 
L 38.392845 271.207486 
L 40.382324 273.307414 
L 42.371804 273.408277 
L 44.361283 272.248726 
L 46.350763 270.287036 
L 48.340243 267.819286 
L 52.319202 262.10438 
L 60.27712 250.213897 
L 64.256079 244.726664 
L 68.235039 239.621894 
L 80.171916 224.835158 
L 84.150875 219.437277 
L 90.119314 210.850806 
L 94.098273 205.144319 
L 98.077233 199.859258 
L 100.066712 197.491678 
L 102.056192 195.364176 
L 104.045671 193.511523 
L 106.035151 191.961457 
L 108.024631 190.738379 
L 110.01411 189.860308 
L 112.00359 189.335946 
L 113.993069 189.165335 
L 115.982549 189.337085 
L 117.972029 189.820695 
L 119.961508 190.553126 
L 123.940467 192.242814 
L 125.929947 192.668753 
L 127.919427 191.969591 
L 129.908906 187.980406 
L 131.898386 90.809645 
L 133.887865 91.050575 
L 139.856304 90.980379 
L 141.845784 91.201625 
L 143.835263 91.609304 
L 145.824743 92.179989 
L 149.803702 93.647169 
L 155.772141 96.027763 
L 159.7511 97.390909 
L 163.730059 98.474934 
L 167.709018 99.305787 
L 173.677457 100.255926 
L 185.614335 102.072057 
L 195.561733 103.88221 
L 203.519651 105.534928 
L 207.49861 106.581943 
L 211.47757 107.988687 
L 213.467049 108.880586 
L 217.446008 111.05242 
L 221.424968 113.406659 
L 223.414447 114.280175 
L 225.403927 114.415526 
L 227.393406 51.21148 
L 229.382886 50.997839 
L 231.372366 51.439843 
L 233.361845 52.349963 
L 235.351325 53.575358 
L 239.330284 56.485885 
L 243.309243 59.420368 
L 247.288202 61.972427 
L 251.267162 64.029164 
L 255.246121 65.690585 
L 265.193519 69.463404 
L 269.172478 71.238783 
L 273.151437 73.242526 
L 281.109356 77.65216 
L 287.077794 80.856978 
L 291.056754 82.714877 
L 295.035713 84.217603 
L 299.014672 85.30533 
L 302.993631 86.044837 
L 308.96207 87.024544 
L 312.941029 88.030076 
L 316.919988 89.41925 
L 320.898948 90.981436 
L 322.888427 98.557169 
L 324.877907 97.318312 
L 326.867386 96.255842 
L 328.856866 95.346821 
L 332.835825 93.913193 
L 336.814784 92.850398 
L 348.751662 90.158514 
L 352.730621 88.955406 
L 356.70958 87.449711 
L 360.68854 85.636223 
L 364.667499 83.564317 
L 370.635938 80.134145 
L 378.593856 75.218166 
L 384.562295 71.232195 
L 390.530733 66.856277 
L 398.488652 60.757281 
L 400.478131 59.361803 
L 402.467611 58.109361 
L 404.457091 57.059662 
L 406.44657 56.276515 
L 408.43605 55.824871 
L 410.425529 55.76228 
L 412.415009 56.137707 
L 414.404489 57.044207 
L 416.393968 58.995119 
L 418.383448 115.921506 
L 420.372927 114.520211 
L 422.362407 112.526839 
L 428.330846 105.825435 
L 430.320325 103.90771 
L 432.309805 102.282892 
L 434.299285 100.972048 
L 436.288764 99.971478 
L 438.278244 99.261009 
L 440.267723 98.810179 
L 442.257203 98.581612 
L 444.246683 98.536224 
L 446.236162 98.638632 
L 450.215121 99.166207 
L 454.194081 99.968997 
L 462.151999 101.9193 
L 468.120438 103.350324 
L 472.099397 104.1462 
L 476.078356 104.742589 
L 480.057315 105.090361 
L 484.036275 105.147584 
L 488.015234 104.896242 
L 497.962632 103.711761 
L 499.952111 103.664502 
L 501.941591 103.788058 
L 503.931071 104.122693 
L 505.92055 104.689515 
L 511.888989 107.10053 
L 513.878469 117.141858 
L 515.867948 115.47275 
L 517.857428 112.909058 
L 523.825867 104.153074 
L 525.815346 101.702649 
L 527.804826 99.677676 
L 529.794305 98.103289 
L 531.783785 96.968222 
L 533.773265 96.237744 
L 535.762744 95.86378 
L 537.752224 95.793665 
L 539.741703 95.975664 
L 541.731183 96.361747 
L 543.720663 96.910105 
L 547.699622 98.367971 
L 551.678581 100.162262 
L 555.65754 102.185649 
L 561.625979 105.519473 
L 571.573377 111.302379 
L 575.552336 113.347362 
L 579.531295 115.007848 
L 581.520775 115.644094 
L 583.510255 116.127745 
L 585.499734 116.450545 
L 587.489214 116.612819 
L 589.478693 116.629819 
L 593.457652 116.374572 
L 597.436612 116.134211 
L 599.426091 116.196152 
L 601.415571 116.452903 
L 605.39453 117.39625 
L 607.38401 117.5218 
L 609.373489 139.761932 
L 611.362969 144.229847 
L 613.352448 147.883867 
L 617.331408 154.760723 
L 619.320887 158.528661 
L 621.310367 162.6874 
L 623.299846 167.274885 
L 625.289326 172.286764 
L 627.278806 177.690095 
L 631.257765 189.463651 
L 635.236724 202.117393 
L 651.152561 253.960727 
L 655.13152 265.624433 
L 657.121 270.960699 
L 659.110479 275.880704 
L 661.099959 280.328934 
L 663.089438 284.262197 
L 665.078918 287.654057 
L 667.068398 290.49756 
L 669.057877 292.801815 
L 671.047357 294.591267 
L 673.036836 295.902354 
L 675.026316 296.780507 
L 677.015796 297.275098 
L 679.005275 297.437047 
L 680.994755 297.314996 
L 682.984234 296.949248 
L 684.973714 296.371323 
L 686.963194 295.59989 
L 688.952673 294.6382 
L 690.942153 293.47259 
L 692.931632 292.069262 
L 694.921112 290.368269 
L 696.910592 288.262321 
L 698.900071 285.518298 
L 700.889551 281.451474 
L 702.87903 273.463547 
L 702.87903 273.463547 
" style="fill:none;stroke:#1f77b4;stroke-linecap:square;stroke-width:1.5;"/>
   </g>
   <g id="patch_3">
    <path d="M 36.403365 326.64351 
L 36.403365 6.799459 
" style="fill:none;stroke:#000000;stroke-linecap:square;stroke-linejoin:miter;stroke-width:0.8;"/>
   </g>
   <g id="patch_4">
    <path d="M 704.86851 326.64351 
L 704.86851 6.799459 
" style="fill:none;stroke:#000000;stroke-linecap:square;stroke-linejoin:miter;stroke-width:0.8;"/>
   </g>
   <g id="patch_5">
    <path d="M 36.403365 326.64351 
L 704.86851 326.64351 
" style="fill:none;stroke:#000000;stroke-linecap:square;stroke-linejoin:miter;stroke-width:0.8;"/>
   </g>
   <g id="patch_6">
    <path d="M 36.403365 6.799459 
L 704.86851 6.799459 
" style="fill:none;stroke:#000000;stroke-linecap:square;stroke-linejoin:miter;stroke-width:0.8;"/>
   </g>
   <g id="legend_1">
    <g id="patch_7">
     <path d="M 179.180469 29.477584 
L 562.091406 29.477584 
L 562.091406 11.799459 
L 179.180469 11.799459 
z
" style="fill:#ffffff;opacity:0.95;stroke:#000000;stroke-linejoin:miter;"/>
    </g>
    <g id="line2d_33">
     <path d="M 183.180469 19.897896 
L 203.180469 19.897896 
" style="fill:none;stroke:#d62728;stroke-dasharray:7.4,3.2;stroke-dashoffset:0;stroke-width:2;"/>
    </g>
    <g id="line2d_34"/>
    <g id="text_18">
     <!-- Actual rolling average price -->
     <g transform="translate(211.180469 23.397896)scale(0.1 -0.1)">
      <defs>
       <path d="M 2188 4044 
L 1331 1722 
L 3047 1722 
L 2188 4044 
z
M 1831 4666 
L 2547 4666 
L 4325 0 
L 3669 0 
L 3244 1197 
L 1141 1197 
L 716 0 
L 50 0 
L 1831 4666 
z
" id="DejaVuSans-41" transform="scale(0.015625)"/>
      </defs>
      <use xlink:href="#DejaVuSans-41"/>
      <use x="66.658203" xlink:href="#DejaVuSans-63"/>
      <use x="121.638672" xlink:href="#DejaVuSans-74"/>
      <use x="160.847656" xlink:href="#DejaVuSans-75"/>
      <use x="224.226562" xlink:href="#DejaVuSans-61"/>
      <use x="285.505859" xlink:href="#DejaVuSans-6c"/>
      <use x="313.289062" xlink:href="#DejaVuSans-20"/>
      <use x="345.076172" xlink:href="#DejaVuSans-72"/>
      <use x="383.939453" xlink:href="#DejaVuSans-6f"/>
      <use x="445.121094" xlink:href="#DejaVuSans-6c"/>
      <use x="472.904297" xlink:href="#DejaVuSans-6c"/>
      <use x="500.6875" xlink:href="#DejaVuSans-69"/>
      <use x="528.470703" xlink:href="#DejaVuSans-6e"/>
      <use x="591.849609" xlink:href="#DejaVuSans-67"/>
      <use x="655.326172" xlink:href="#DejaVuSans-20"/>
      <use x="687.113281" xlink:href="#DejaVuSans-61"/>
      <use x="748.392578" xlink:href="#DejaVuSans-76"/>
      <use x="807.572266" xlink:href="#DejaVuSans-65"/>
      <use x="869.095703" xlink:href="#DejaVuSans-72"/>
      <use x="910.208984" xlink:href="#DejaVuSans-61"/>
      <use x="971.488281" xlink:href="#DejaVuSans-67"/>
      <use x="1034.964844" xlink:href="#DejaVuSans-65"/>
      <use x="1096.488281" xlink:href="#DejaVuSans-20"/>
      <use x="1128.275391" xlink:href="#DejaVuSans-70"/>
      <use x="1191.751953" xlink:href="#DejaVuSans-72"/>
      <use x="1232.865234" xlink:href="#DejaVuSans-69"/>
      <use x="1260.648438" xlink:href="#DejaVuSans-63"/>
      <use x="1315.628906" xlink:href="#DejaVuSans-65"/>
     </g>
    </g>
    <g id="line2d_35">
     <path d="M 368.897656 19.897896 
L 388.897656 19.897896 
" style="fill:none;stroke:#1f77b4;stroke-linecap:square;stroke-width:1.5;"/>
    </g>
    <g id="line2d_36"/>
    <g id="text_19">
     <!-- Forecasted rolling average price -->
     <g transform="translate(396.897656 23.397896)scale(0.1 -0.1)">
      <defs>
       <path d="M 2834 3397 
L 2834 2853 
Q 2591 2978 2328 3040 
Q 2066 3103 1784 3103 
Q 1356 3103 1142 2972 
Q 928 2841 928 2578 
Q 928 2378 1081 2264 
Q 1234 2150 1697 2047 
L 1894 2003 
Q 2506 1872 2764 1633 
Q 3022 1394 3022 966 
Q 3022 478 2636 193 
Q 2250 -91 1575 -91 
Q 1294 -91 989 -36 
Q 684 19 347 128 
L 347 722 
Q 666 556 975 473 
Q 1284 391 1588 391 
Q 1994 391 2212 530 
Q 2431 669 2431 922 
Q 2431 1156 2273 1281 
Q 2116 1406 1581 1522 
L 1381 1569 
Q 847 1681 609 1914 
Q 372 2147 372 2553 
Q 372 3047 722 3315 
Q 1072 3584 1716 3584 
Q 2034 3584 2315 3537 
Q 2597 3491 2834 3397 
z
" id="DejaVuSans-73" transform="scale(0.015625)"/>
      </defs>
      <use xlink:href="#DejaVuSans-46"/>
      <use x="53.894531" xlink:href="#DejaVuSans-6f"/>
      <use x="115.076172" xlink:href="#DejaVuSans-72"/>
      <use x="153.939453" xlink:href="#DejaVuSans-65"/>
      <use x="215.462891" xlink:href="#DejaVuSans-63"/>
      <use x="270.443359" xlink:href="#DejaVuSans-61"/>
      <use x="331.722656" xlink:href="#DejaVuSans-73"/>
      <use x="383.822266" xlink:href="#DejaVuSans-74"/>
      <use x="423.03125" xlink:href="#DejaVuSans-65"/>
      <use x="484.554688" xlink:href="#DejaVuSans-64"/>
      <use x="548.03125" xlink:href="#DejaVuSans-20"/>
      <use x="579.818359" xlink:href="#DejaVuSans-72"/>
      <use x="618.681641" xlink:href="#DejaVuSans-6f"/>
      <use x="679.863281" xlink:href="#DejaVuSans-6c"/>
      <use x="707.646484" xlink:href="#DejaVuSans-6c"/>
      <use x="735.429688" xlink:href="#DejaVuSans-69"/>
      <use x="763.212891" xlink:href="#DejaVuSans-6e"/>
      <use x="826.591797" xlink:href="#DejaVuSans-67"/>
      <use x="890.068359" xlink:href="#DejaVuSans-20"/>
      <use x="921.855469" xlink:href="#DejaVuSans-61"/>
      <use x="983.134766" xlink:href="#DejaVuSans-76"/>
      <use x="1042.314453" xlink:href="#DejaVuSans-65"/>
      <use x="1103.837891" xlink:href="#DejaVuSans-72"/>
      <use x="1144.951172" xlink:href="#DejaVuSans-61"/>
      <use x="1206.230469" xlink:href="#DejaVuSans-67"/>
      <use x="1269.707031" xlink:href="#DejaVuSans-65"/>
      <use x="1331.230469" xlink:href="#DejaVuSans-20"/>
      <use x="1363.017578" xlink:href="#DejaVuSans-70"/>
      <use x="1426.494141" xlink:href="#DejaVuSans-72"/>
      <use x="1467.607422" xlink:href="#DejaVuSans-69"/>
      <use x="1495.390625" xlink:href="#DejaVuSans-63"/>
      <use x="1550.371094" xlink:href="#DejaVuSans-65"/>
     </g>
    </g>
   </g>
  </g>
 </g>
 <defs>
  <clipPath id="p30d779b03a">
   <rect height="319.844051" width="668.465145" x="36.403365" y="6.799459"/>
  </clipPath>
 </defs>
</svg>
