<?xml version="1.0" encoding="utf-8" standalone="no"?>
<!DOCTYPE svg PUBLIC "-//W3C//DTD SVG 1.1//EN"
  "http://www.w3.org/Graphics/SVG/1.1/DTD/svg11.dtd">
<svg height="360pt" version="1.1" viewBox="0 0 720 360" width="720pt" xmlns="http://www.w3.org/2000/svg" xmlns:xlink="http://www.w3.org/1999/xlink">
 <metadata>
  <rdf:RDF xmlns:cc="http://creativecommons.org/ns#" xmlns:dc="http://purl.org/dc/elements/1.1/" xmlns:rdf="http://www.w3.org/1999/02/22-rdf-syntax-ns#">
   <cc:Work>
    <dc:type rdf:resource="http://purl.org/dc/dcmitype/StillImage"/>
    <dc:date>2022-04-24T10:31:39.098853</dc:date>
    <dc:format>image/svg+xml</dc:format>
    <dc:creator>
     <cc:Agent>
      <dc:title>Matplotlib v3.4.3, https://matplotlib.org/</dc:title>
     </cc:Agent>
    </dc:creator>
   </cc:Work>
  </rdf:RDF>
 </metadata>
 <defs>
  <style type="text/css">*{stroke-linecap:butt;stroke-linejoin:round;}</style>
 </defs>
 <g id="figure_1">
  <g id="patch_1">
   <path d="M 0 360 
L 720 360 
L 720 0 
L 0 0 
z
" style="fill:#ffffff;"/>
  </g>
  <g id="axes_1">
   <g id="patch_2">
    <path d="M 42.765865 326.64351 
L 704.86851 326.64351 
L 704.86851 6.799459 
L 42.765865 6.799459 
z
" style="fill:#ffffff;"/>
   </g>
   <g id="matplotlib.axis_1">
    <g id="xtick_1">
     <g id="line2d_1">
      <path clip-path="url(#p0844be3a92)" d="M 42.765865 326.64351 
L 42.765865 6.799459 
" style="fill:none;stroke:#b0b0b0;stroke-linecap:square;stroke-width:0.8;"/>
     </g>
     <g id="line2d_2">
      <defs>
       <path d="M 0 0 
L 0 3.5 
" id="m02b7ce90ff" style="stroke:#000000;stroke-width:0.8;"/>
      </defs>
      <g>
       <use style="stroke:#000000;stroke-width:0.8;" x="42.765865" xlink:href="#m02b7ce90ff" y="326.64351"/>
      </g>
     </g>
     <g id="text_1">
      <!-- Mon. -->
      <g transform="translate(30.634615 341.241947)scale(0.1 -0.1)">
       <defs>
        <path d="M 628 4666 
L 1569 4666 
L 2759 1491 
L 3956 4666 
L 4897 4666 
L 4897 0 
L 4281 0 
L 4281 4097 
L 3078 897 
L 2444 897 
L 1241 4097 
L 1241 0 
L 628 0 
L 628 4666 
z
" id="DejaVuSans-4d" transform="scale(0.015625)"/>
        <path d="M 1959 3097 
Q 1497 3097 1228 2736 
Q 959 2375 959 1747 
Q 959 1119 1226 758 
Q 1494 397 1959 397 
Q 2419 397 2687 759 
Q 2956 1122 2956 1747 
Q 2956 2369 2687 2733 
Q 2419 3097 1959 3097 
z
M 1959 3584 
Q 2709 3584 3137 3096 
Q 3566 2609 3566 1747 
Q 3566 888 3137 398 
Q 2709 -91 1959 -91 
Q 1206 -91 779 398 
Q 353 888 353 1747 
Q 353 2609 779 3096 
Q 1206 3584 1959 3584 
z
" id="DejaVuSans-6f" transform="scale(0.015625)"/>
        <path d="M 3513 2113 
L 3513 0 
L 2938 0 
L 2938 2094 
Q 2938 2591 2744 2837 
Q 2550 3084 2163 3084 
Q 1697 3084 1428 2787 
Q 1159 2491 1159 1978 
L 1159 0 
L 581 0 
L 581 3500 
L 1159 3500 
L 1159 2956 
Q 1366 3272 1645 3428 
Q 1925 3584 2291 3584 
Q 2894 3584 3203 3211 
Q 3513 2838 3513 2113 
z
" id="DejaVuSans-6e" transform="scale(0.015625)"/>
        <path d="M 684 794 
L 1344 794 
L 1344 0 
L 684 0 
L 684 794 
z
" id="DejaVuSans-2e" transform="scale(0.015625)"/>
       </defs>
       <use xlink:href="#DejaVuSans-4d"/>
       <use x="86.279297" xlink:href="#DejaVuSans-6f"/>
       <use x="147.460938" xlink:href="#DejaVuSans-6e"/>
       <use x="210.839844" xlink:href="#DejaVuSans-2e"/>
      </g>
     </g>
    </g>
    <g id="xtick_2">
     <g id="line2d_3">
      <path clip-path="url(#p0844be3a92)" d="M 137.351957 326.64351 
L 137.351957 6.799459 
" style="fill:none;stroke:#b0b0b0;stroke-linecap:square;stroke-width:0.8;"/>
     </g>
     <g id="line2d_4">
      <g>
       <use style="stroke:#000000;stroke-width:0.8;" x="137.351957" xlink:href="#m02b7ce90ff" y="326.64351"/>
      </g>
     </g>
     <g id="text_2">
      <!-- Tue. -->
      <g transform="translate(127.219926 341.241947)scale(0.1 -0.1)">
       <defs>
        <path d="M -19 4666 
L 3928 4666 
L 3928 4134 
L 2272 4134 
L 2272 0 
L 1638 0 
L 1638 4134 
L -19 4134 
L -19 4666 
z
" id="DejaVuSans-54" transform="scale(0.015625)"/>
        <path d="M 544 1381 
L 544 3500 
L 1119 3500 
L 1119 1403 
Q 1119 906 1312 657 
Q 1506 409 1894 409 
Q 2359 409 2629 706 
Q 2900 1003 2900 1516 
L 2900 3500 
L 3475 3500 
L 3475 0 
L 2900 0 
L 2900 538 
Q 2691 219 2414 64 
Q 2138 -91 1772 -91 
Q 1169 -91 856 284 
Q 544 659 544 1381 
z
M 1991 3584 
L 1991 3584 
z
" id="DejaVuSans-75" transform="scale(0.015625)"/>
        <path d="M 3597 1894 
L 3597 1613 
L 953 1613 
Q 991 1019 1311 708 
Q 1631 397 2203 397 
Q 2534 397 2845 478 
Q 3156 559 3463 722 
L 3463 178 
Q 3153 47 2828 -22 
Q 2503 -91 2169 -91 
Q 1331 -91 842 396 
Q 353 884 353 1716 
Q 353 2575 817 3079 
Q 1281 3584 2069 3584 
Q 2775 3584 3186 3129 
Q 3597 2675 3597 1894 
z
M 3022 2063 
Q 3016 2534 2758 2815 
Q 2500 3097 2075 3097 
Q 1594 3097 1305 2825 
Q 1016 2553 972 2059 
L 3022 2063 
z
" id="DejaVuSans-65" transform="scale(0.015625)"/>
       </defs>
       <use xlink:href="#DejaVuSans-54"/>
       <use x="45.958984" xlink:href="#DejaVuSans-75"/>
       <use x="109.337891" xlink:href="#DejaVuSans-65"/>
       <use x="170.861328" xlink:href="#DejaVuSans-2e"/>
      </g>
     </g>
    </g>
    <g id="xtick_3">
     <g id="line2d_5">
      <path clip-path="url(#p0844be3a92)" d="M 231.938049 326.64351 
L 231.938049 6.799459 
" style="fill:none;stroke:#b0b0b0;stroke-linecap:square;stroke-width:0.8;"/>
     </g>
     <g id="line2d_6">
      <g>
       <use style="stroke:#000000;stroke-width:0.8;" x="231.938049" xlink:href="#m02b7ce90ff" y="326.64351"/>
      </g>
     </g>
     <g id="text_3">
      <!-- Wed. -->
      <g transform="translate(219.448206 341.241947)scale(0.1 -0.1)">
       <defs>
        <path d="M 213 4666 
L 850 4666 
L 1831 722 
L 2809 4666 
L 3519 4666 
L 4500 722 
L 5478 4666 
L 6119 4666 
L 4947 0 
L 4153 0 
L 3169 4050 
L 2175 0 
L 1381 0 
L 213 4666 
z
" id="DejaVuSans-57" transform="scale(0.015625)"/>
        <path d="M 2906 2969 
L 2906 4863 
L 3481 4863 
L 3481 0 
L 2906 0 
L 2906 525 
Q 2725 213 2448 61 
Q 2172 -91 1784 -91 
Q 1150 -91 751 415 
Q 353 922 353 1747 
Q 353 2572 751 3078 
Q 1150 3584 1784 3584 
Q 2172 3584 2448 3432 
Q 2725 3281 2906 2969 
z
M 947 1747 
Q 947 1113 1208 752 
Q 1469 391 1925 391 
Q 2381 391 2643 752 
Q 2906 1113 2906 1747 
Q 2906 2381 2643 2742 
Q 2381 3103 1925 3103 
Q 1469 3103 1208 2742 
Q 947 2381 947 1747 
z
" id="DejaVuSans-64" transform="scale(0.015625)"/>
       </defs>
       <use xlink:href="#DejaVuSans-57"/>
       <use x="93.001953" xlink:href="#DejaVuSans-65"/>
       <use x="154.525391" xlink:href="#DejaVuSans-64"/>
       <use x="218.001953" xlink:href="#DejaVuSans-2e"/>
      </g>
     </g>
    </g>
    <g id="xtick_4">
     <g id="line2d_7">
      <path clip-path="url(#p0844be3a92)" d="M 326.524141 326.64351 
L 326.524141 6.799459 
" style="fill:none;stroke:#b0b0b0;stroke-linecap:square;stroke-width:0.8;"/>
     </g>
     <g id="line2d_8">
      <g>
       <use style="stroke:#000000;stroke-width:0.8;" x="326.524141" xlink:href="#m02b7ce90ff" y="326.64351"/>
      </g>
     </g>
     <g id="text_4">
      <!-- Thur. -->
      <g transform="translate(313.944454 341.241947)scale(0.1 -0.1)">
       <defs>
        <path d="M 3513 2113 
L 3513 0 
L 2938 0 
L 2938 2094 
Q 2938 2591 2744 2837 
Q 2550 3084 2163 3084 
Q 1697 3084 1428 2787 
Q 1159 2491 1159 1978 
L 1159 0 
L 581 0 
L 581 4863 
L 1159 4863 
L 1159 2956 
Q 1366 3272 1645 3428 
Q 1925 3584 2291 3584 
Q 2894 3584 3203 3211 
Q 3513 2838 3513 2113 
z
" id="DejaVuSans-68" transform="scale(0.015625)"/>
        <path d="M 2631 2963 
Q 2534 3019 2420 3045 
Q 2306 3072 2169 3072 
Q 1681 3072 1420 2755 
Q 1159 2438 1159 1844 
L 1159 0 
L 581 0 
L 581 3500 
L 1159 3500 
L 1159 2956 
Q 1341 3275 1631 3429 
Q 1922 3584 2338 3584 
Q 2397 3584 2469 3576 
Q 2541 3569 2628 3553 
L 2631 2963 
z
" id="DejaVuSans-72" transform="scale(0.015625)"/>
       </defs>
       <use xlink:href="#DejaVuSans-54"/>
       <use x="61.083984" xlink:href="#DejaVuSans-68"/>
       <use x="124.462891" xlink:href="#DejaVuSans-75"/>
       <use x="187.841797" xlink:href="#DejaVuSans-72"/>
       <use x="219.830078" xlink:href="#DejaVuSans-2e"/>
      </g>
     </g>
    </g>
    <g id="xtick_5">
     <g id="line2d_9">
      <path clip-path="url(#p0844be3a92)" d="M 421.110234 326.64351 
L 421.110234 6.799459 
" style="fill:none;stroke:#b0b0b0;stroke-linecap:square;stroke-width:0.8;"/>
     </g>
     <g id="line2d_10">
      <g>
       <use style="stroke:#000000;stroke-width:0.8;" x="421.110234" xlink:href="#m02b7ce90ff" y="326.64351"/>
      </g>
     </g>
     <g id="text_5">
      <!-- Fri. -->
      <g transform="translate(413.563359 341.241947)scale(0.1 -0.1)">
       <defs>
        <path d="M 628 4666 
L 3309 4666 
L 3309 4134 
L 1259 4134 
L 1259 2759 
L 3109 2759 
L 3109 2228 
L 1259 2228 
L 1259 0 
L 628 0 
L 628 4666 
z
" id="DejaVuSans-46" transform="scale(0.015625)"/>
        <path d="M 603 3500 
L 1178 3500 
L 1178 0 
L 603 0 
L 603 3500 
z
M 603 4863 
L 1178 4863 
L 1178 4134 
L 603 4134 
L 603 4863 
z
" id="DejaVuSans-69" transform="scale(0.015625)"/>
       </defs>
       <use xlink:href="#DejaVuSans-46"/>
       <use x="50.269531" xlink:href="#DejaVuSans-72"/>
       <use x="91.382812" xlink:href="#DejaVuSans-69"/>
       <use x="119.166016" xlink:href="#DejaVuSans-2e"/>
      </g>
     </g>
    </g>
    <g id="xtick_6">
     <g id="line2d_11">
      <path clip-path="url(#p0844be3a92)" d="M 515.696326 326.64351 
L 515.696326 6.799459 
" style="fill:none;stroke:#b0b0b0;stroke-linecap:square;stroke-width:0.8;"/>
     </g>
     <g id="line2d_12">
      <g>
       <use style="stroke:#000000;stroke-width:0.8;" x="515.696326" xlink:href="#m02b7ce90ff" y="326.64351"/>
      </g>
     </g>
     <g id="text_6">
      <!-- Sat. -->
      <g transform="translate(505.908826 341.241947)scale(0.1 -0.1)">
       <defs>
        <path d="M 3425 4513 
L 3425 3897 
Q 3066 4069 2747 4153 
Q 2428 4238 2131 4238 
Q 1616 4238 1336 4038 
Q 1056 3838 1056 3469 
Q 1056 3159 1242 3001 
Q 1428 2844 1947 2747 
L 2328 2669 
Q 3034 2534 3370 2195 
Q 3706 1856 3706 1288 
Q 3706 609 3251 259 
Q 2797 -91 1919 -91 
Q 1588 -91 1214 -16 
Q 841 59 441 206 
L 441 856 
Q 825 641 1194 531 
Q 1563 422 1919 422 
Q 2459 422 2753 634 
Q 3047 847 3047 1241 
Q 3047 1584 2836 1778 
Q 2625 1972 2144 2069 
L 1759 2144 
Q 1053 2284 737 2584 
Q 422 2884 422 3419 
Q 422 4038 858 4394 
Q 1294 4750 2059 4750 
Q 2388 4750 2728 4690 
Q 3069 4631 3425 4513 
z
" id="DejaVuSans-53" transform="scale(0.015625)"/>
        <path d="M 2194 1759 
Q 1497 1759 1228 1600 
Q 959 1441 959 1056 
Q 959 750 1161 570 
Q 1363 391 1709 391 
Q 2188 391 2477 730 
Q 2766 1069 2766 1631 
L 2766 1759 
L 2194 1759 
z
M 3341 1997 
L 3341 0 
L 2766 0 
L 2766 531 
Q 2569 213 2275 61 
Q 1981 -91 1556 -91 
Q 1019 -91 701 211 
Q 384 513 384 1019 
Q 384 1609 779 1909 
Q 1175 2209 1959 2209 
L 2766 2209 
L 2766 2266 
Q 2766 2663 2505 2880 
Q 2244 3097 1772 3097 
Q 1472 3097 1187 3025 
Q 903 2953 641 2809 
L 641 3341 
Q 956 3463 1253 3523 
Q 1550 3584 1831 3584 
Q 2591 3584 2966 3190 
Q 3341 2797 3341 1997 
z
" id="DejaVuSans-61" transform="scale(0.015625)"/>
        <path d="M 1172 4494 
L 1172 3500 
L 2356 3500 
L 2356 3053 
L 1172 3053 
L 1172 1153 
Q 1172 725 1289 603 
Q 1406 481 1766 481 
L 2356 481 
L 2356 0 
L 1766 0 
Q 1100 0 847 248 
Q 594 497 594 1153 
L 594 3053 
L 172 3053 
L 172 3500 
L 594 3500 
L 594 4494 
L 1172 4494 
z
" id="DejaVuSans-74" transform="scale(0.015625)"/>
       </defs>
       <use xlink:href="#DejaVuSans-53"/>
       <use x="63.476562" xlink:href="#DejaVuSans-61"/>
       <use x="124.755859" xlink:href="#DejaVuSans-74"/>
       <use x="163.964844" xlink:href="#DejaVuSans-2e"/>
      </g>
     </g>
    </g>
    <g id="xtick_7">
     <g id="line2d_13">
      <path clip-path="url(#p0844be3a92)" d="M 610.282418 326.64351 
L 610.282418 6.799459 
" style="fill:none;stroke:#b0b0b0;stroke-linecap:square;stroke-width:0.8;"/>
     </g>
     <g id="line2d_14">
      <g>
       <use style="stroke:#000000;stroke-width:0.8;" x="610.282418" xlink:href="#m02b7ce90ff" y="326.64351"/>
      </g>
     </g>
     <g id="text_7">
      <!-- Sun. -->
      <g transform="translate(599.181637 341.241947)scale(0.1 -0.1)">
       <use xlink:href="#DejaVuSans-53"/>
       <use x="63.476562" xlink:href="#DejaVuSans-75"/>
       <use x="126.855469" xlink:href="#DejaVuSans-6e"/>
       <use x="190.234375" xlink:href="#DejaVuSans-2e"/>
      </g>
     </g>
    </g>
    <g id="xtick_8">
     <g id="line2d_15">
      <path clip-path="url(#p0844be3a92)" d="M 704.86851 326.64351 
L 704.86851 6.799459 
" style="fill:none;stroke:#b0b0b0;stroke-linecap:square;stroke-width:0.8;"/>
     </g>
     <g id="line2d_16">
      <g>
       <use style="stroke:#000000;stroke-width:0.8;" x="704.86851" xlink:href="#m02b7ce90ff" y="326.64351"/>
      </g>
     </g>
     <g id="text_8">
      <!-- Mon. -->
      <g transform="translate(692.73726 341.241947)scale(0.1 -0.1)">
       <use xlink:href="#DejaVuSans-4d"/>
       <use x="86.279297" xlink:href="#DejaVuSans-6f"/>
       <use x="147.460938" xlink:href="#DejaVuSans-6e"/>
       <use x="210.839844" xlink:href="#DejaVuSans-2e"/>
      </g>
     </g>
    </g>
    <g id="text_9">
     <!-- Day of the week -->
     <g transform="translate(333.014063 354.920073)scale(0.1 -0.1)">
      <defs>
       <path d="M 1259 4147 
L 1259 519 
L 2022 519 
Q 2988 519 3436 956 
Q 3884 1394 3884 2338 
Q 3884 3275 3436 3711 
Q 2988 4147 2022 4147 
L 1259 4147 
z
M 628 4666 
L 1925 4666 
Q 3281 4666 3915 4102 
Q 4550 3538 4550 2338 
Q 4550 1131 3912 565 
Q 3275 0 1925 0 
L 628 0 
L 628 4666 
z
" id="DejaVuSans-44" transform="scale(0.015625)"/>
       <path d="M 2059 -325 
Q 1816 -950 1584 -1140 
Q 1353 -1331 966 -1331 
L 506 -1331 
L 506 -850 
L 844 -850 
Q 1081 -850 1212 -737 
Q 1344 -625 1503 -206 
L 1606 56 
L 191 3500 
L 800 3500 
L 1894 763 
L 2988 3500 
L 3597 3500 
L 2059 -325 
z
" id="DejaVuSans-79" transform="scale(0.015625)"/>
       <path id="DejaVuSans-20" transform="scale(0.015625)"/>
       <path d="M 2375 4863 
L 2375 4384 
L 1825 4384 
Q 1516 4384 1395 4259 
Q 1275 4134 1275 3809 
L 1275 3500 
L 2222 3500 
L 2222 3053 
L 1275 3053 
L 1275 0 
L 697 0 
L 697 3053 
L 147 3053 
L 147 3500 
L 697 3500 
L 697 3744 
Q 697 4328 969 4595 
Q 1241 4863 1831 4863 
L 2375 4863 
z
" id="DejaVuSans-66" transform="scale(0.015625)"/>
       <path d="M 269 3500 
L 844 3500 
L 1563 769 
L 2278 3500 
L 2956 3500 
L 3675 769 
L 4391 3500 
L 4966 3500 
L 4050 0 
L 3372 0 
L 2619 2869 
L 1863 0 
L 1184 0 
L 269 3500 
z
" id="DejaVuSans-77" transform="scale(0.015625)"/>
       <path d="M 581 4863 
L 1159 4863 
L 1159 1991 
L 2875 3500 
L 3609 3500 
L 1753 1863 
L 3688 0 
L 2938 0 
L 1159 1709 
L 1159 0 
L 581 0 
L 581 4863 
z
" id="DejaVuSans-6b" transform="scale(0.015625)"/>
      </defs>
      <use xlink:href="#DejaVuSans-44"/>
      <use x="77.001953" xlink:href="#DejaVuSans-61"/>
      <use x="138.28125" xlink:href="#DejaVuSans-79"/>
      <use x="197.460938" xlink:href="#DejaVuSans-20"/>
      <use x="229.248047" xlink:href="#DejaVuSans-6f"/>
      <use x="290.429688" xlink:href="#DejaVuSans-66"/>
      <use x="325.634766" xlink:href="#DejaVuSans-20"/>
      <use x="357.421875" xlink:href="#DejaVuSans-74"/>
      <use x="396.630859" xlink:href="#DejaVuSans-68"/>
      <use x="460.009766" xlink:href="#DejaVuSans-65"/>
      <use x="521.533203" xlink:href="#DejaVuSans-20"/>
      <use x="553.320312" xlink:href="#DejaVuSans-77"/>
      <use x="635.107422" xlink:href="#DejaVuSans-65"/>
      <use x="696.630859" xlink:href="#DejaVuSans-65"/>
      <use x="758.154297" xlink:href="#DejaVuSans-6b"/>
     </g>
    </g>
   </g>
   <g id="matplotlib.axis_2">
    <g id="ytick_1">
     <g id="line2d_17">
      <path clip-path="url(#p0844be3a92)" d="M 42.765865 326.64351 
L 704.86851 326.64351 
" style="fill:none;stroke:#b0b0b0;stroke-linecap:square;stroke-width:0.8;"/>
     </g>
     <g id="line2d_18">
      <defs>
       <path d="M 0 0 
L -3.5 0 
" id="m3abeddbf07" style="stroke:#000000;stroke-width:0.8;"/>
      </defs>
      <g>
       <use style="stroke:#000000;stroke-width:0.8;" x="42.765865" xlink:href="#m3abeddbf07" y="326.64351"/>
      </g>
     </g>
     <g id="text_10">
      <!-- 0 -->
      <g transform="translate(29.403365 330.442729)scale(0.1 -0.1)">
       <defs>
        <path d="M 2034 4250 
Q 1547 4250 1301 3770 
Q 1056 3291 1056 2328 
Q 1056 1369 1301 889 
Q 1547 409 2034 409 
Q 2525 409 2770 889 
Q 3016 1369 3016 2328 
Q 3016 3291 2770 3770 
Q 2525 4250 2034 4250 
z
M 2034 4750 
Q 2819 4750 3233 4129 
Q 3647 3509 3647 2328 
Q 3647 1150 3233 529 
Q 2819 -91 2034 -91 
Q 1250 -91 836 529 
Q 422 1150 422 2328 
Q 422 3509 836 4129 
Q 1250 4750 2034 4750 
z
" id="DejaVuSans-30" transform="scale(0.015625)"/>
       </defs>
       <use xlink:href="#DejaVuSans-30"/>
      </g>
     </g>
    </g>
    <g id="ytick_2">
     <g id="line2d_19">
      <path clip-path="url(#p0844be3a92)" d="M 42.765865 262.6747 
L 704.86851 262.6747 
" style="fill:none;stroke:#b0b0b0;stroke-linecap:square;stroke-width:0.8;"/>
     </g>
     <g id="line2d_20">
      <g>
       <use style="stroke:#000000;stroke-width:0.8;" x="42.765865" xlink:href="#m3abeddbf07" y="262.6747"/>
      </g>
     </g>
     <g id="text_11">
      <!-- 20 -->
      <g transform="translate(23.040865 266.473918)scale(0.1 -0.1)">
       <defs>
        <path d="M 1228 531 
L 3431 531 
L 3431 0 
L 469 0 
L 469 531 
Q 828 903 1448 1529 
Q 2069 2156 2228 2338 
Q 2531 2678 2651 2914 
Q 2772 3150 2772 3378 
Q 2772 3750 2511 3984 
Q 2250 4219 1831 4219 
Q 1534 4219 1204 4116 
Q 875 4013 500 3803 
L 500 4441 
Q 881 4594 1212 4672 
Q 1544 4750 1819 4750 
Q 2544 4750 2975 4387 
Q 3406 4025 3406 3419 
Q 3406 3131 3298 2873 
Q 3191 2616 2906 2266 
Q 2828 2175 2409 1742 
Q 1991 1309 1228 531 
z
" id="DejaVuSans-32" transform="scale(0.015625)"/>
       </defs>
       <use xlink:href="#DejaVuSans-32"/>
       <use x="63.623047" xlink:href="#DejaVuSans-30"/>
      </g>
     </g>
    </g>
    <g id="ytick_3">
     <g id="line2d_21">
      <path clip-path="url(#p0844be3a92)" d="M 42.765865 198.70589 
L 704.86851 198.70589 
" style="fill:none;stroke:#b0b0b0;stroke-linecap:square;stroke-width:0.8;"/>
     </g>
     <g id="line2d_22">
      <g>
       <use style="stroke:#000000;stroke-width:0.8;" x="42.765865" xlink:href="#m3abeddbf07" y="198.70589"/>
      </g>
     </g>
     <g id="text_12">
      <!-- 40 -->
      <g transform="translate(23.040865 202.505108)scale(0.1 -0.1)">
       <defs>
        <path d="M 2419 4116 
L 825 1625 
L 2419 1625 
L 2419 4116 
z
M 2253 4666 
L 3047 4666 
L 3047 1625 
L 3713 1625 
L 3713 1100 
L 3047 1100 
L 3047 0 
L 2419 0 
L 2419 1100 
L 313 1100 
L 313 1709 
L 2253 4666 
z
" id="DejaVuSans-34" transform="scale(0.015625)"/>
       </defs>
       <use xlink:href="#DejaVuSans-34"/>
       <use x="63.623047" xlink:href="#DejaVuSans-30"/>
      </g>
     </g>
    </g>
    <g id="ytick_4">
     <g id="line2d_23">
      <path clip-path="url(#p0844be3a92)" d="M 42.765865 134.737079 
L 704.86851 134.737079 
" style="fill:none;stroke:#b0b0b0;stroke-linecap:square;stroke-width:0.8;"/>
     </g>
     <g id="line2d_24">
      <g>
       <use style="stroke:#000000;stroke-width:0.8;" x="42.765865" xlink:href="#m3abeddbf07" y="134.737079"/>
      </g>
     </g>
     <g id="text_13">
      <!-- 60 -->
      <g transform="translate(23.040865 138.536298)scale(0.1 -0.1)">
       <defs>
        <path d="M 2113 2584 
Q 1688 2584 1439 2293 
Q 1191 2003 1191 1497 
Q 1191 994 1439 701 
Q 1688 409 2113 409 
Q 2538 409 2786 701 
Q 3034 994 3034 1497 
Q 3034 2003 2786 2293 
Q 2538 2584 2113 2584 
z
M 3366 4563 
L 3366 3988 
Q 3128 4100 2886 4159 
Q 2644 4219 2406 4219 
Q 1781 4219 1451 3797 
Q 1122 3375 1075 2522 
Q 1259 2794 1537 2939 
Q 1816 3084 2150 3084 
Q 2853 3084 3261 2657 
Q 3669 2231 3669 1497 
Q 3669 778 3244 343 
Q 2819 -91 2113 -91 
Q 1303 -91 875 529 
Q 447 1150 447 2328 
Q 447 3434 972 4092 
Q 1497 4750 2381 4750 
Q 2619 4750 2861 4703 
Q 3103 4656 3366 4563 
z
" id="DejaVuSans-36" transform="scale(0.015625)"/>
       </defs>
       <use xlink:href="#DejaVuSans-36"/>
       <use x="63.623047" xlink:href="#DejaVuSans-30"/>
      </g>
     </g>
    </g>
    <g id="ytick_5">
     <g id="line2d_25">
      <path clip-path="url(#p0844be3a92)" d="M 42.765865 70.768269 
L 704.86851 70.768269 
" style="fill:none;stroke:#b0b0b0;stroke-linecap:square;stroke-width:0.8;"/>
     </g>
     <g id="line2d_26">
      <g>
       <use style="stroke:#000000;stroke-width:0.8;" x="42.765865" xlink:href="#m3abeddbf07" y="70.768269"/>
      </g>
     </g>
     <g id="text_14">
      <!-- 80 -->
      <g transform="translate(23.040865 74.567488)scale(0.1 -0.1)">
       <defs>
        <path d="M 2034 2216 
Q 1584 2216 1326 1975 
Q 1069 1734 1069 1313 
Q 1069 891 1326 650 
Q 1584 409 2034 409 
Q 2484 409 2743 651 
Q 3003 894 3003 1313 
Q 3003 1734 2745 1975 
Q 2488 2216 2034 2216 
z
M 1403 2484 
Q 997 2584 770 2862 
Q 544 3141 544 3541 
Q 544 4100 942 4425 
Q 1341 4750 2034 4750 
Q 2731 4750 3128 4425 
Q 3525 4100 3525 3541 
Q 3525 3141 3298 2862 
Q 3072 2584 2669 2484 
Q 3125 2378 3379 2068 
Q 3634 1759 3634 1313 
Q 3634 634 3220 271 
Q 2806 -91 2034 -91 
Q 1263 -91 848 271 
Q 434 634 434 1313 
Q 434 1759 690 2068 
Q 947 2378 1403 2484 
z
M 1172 3481 
Q 1172 3119 1398 2916 
Q 1625 2713 2034 2713 
Q 2441 2713 2670 2916 
Q 2900 3119 2900 3481 
Q 2900 3844 2670 4047 
Q 2441 4250 2034 4250 
Q 1625 4250 1398 4047 
Q 1172 3844 1172 3481 
z
" id="DejaVuSans-38" transform="scale(0.015625)"/>
       </defs>
       <use xlink:href="#DejaVuSans-38"/>
       <use x="63.623047" xlink:href="#DejaVuSans-30"/>
      </g>
     </g>
    </g>
    <g id="ytick_6">
     <g id="line2d_27">
      <path clip-path="url(#p0844be3a92)" d="M 42.765865 6.799459 
L 704.86851 6.799459 
" style="fill:none;stroke:#b0b0b0;stroke-linecap:square;stroke-width:0.8;"/>
     </g>
     <g id="line2d_28">
      <g>
       <use style="stroke:#000000;stroke-width:0.8;" x="42.765865" xlink:href="#m3abeddbf07" y="6.799459"/>
      </g>
     </g>
     <g id="text_15">
      <!-- 100 -->
      <g transform="translate(16.678365 10.598678)scale(0.1 -0.1)">
       <defs>
        <path d="M 794 531 
L 1825 531 
L 1825 4091 
L 703 3866 
L 703 4441 
L 1819 4666 
L 2450 4666 
L 2450 531 
L 3481 531 
L 3481 0 
L 794 0 
L 794 531 
z
" id="DejaVuSans-31" transform="scale(0.015625)"/>
       </defs>
       <use xlink:href="#DejaVuSans-31"/>
       <use x="63.623047" xlink:href="#DejaVuSans-30"/>
       <use x="127.246094" xlink:href="#DejaVuSans-30"/>
      </g>
     </g>
    </g>
    <g id="text_16">
     <!-- N2EX day-ahead auction electricity price (GB/MWh) -->
     <g transform="translate(10.598677 295.709766)rotate(-90)scale(0.1 -0.1)">
      <defs>
       <path d="M 628 4666 
L 1478 4666 
L 3547 763 
L 3547 4666 
L 4159 4666 
L 4159 0 
L 3309 0 
L 1241 3903 
L 1241 0 
L 628 0 
L 628 4666 
z
" id="DejaVuSans-4e" transform="scale(0.015625)"/>
       <path d="M 628 4666 
L 3578 4666 
L 3578 4134 
L 1259 4134 
L 1259 2753 
L 3481 2753 
L 3481 2222 
L 1259 2222 
L 1259 531 
L 3634 531 
L 3634 0 
L 628 0 
L 628 4666 
z
" id="DejaVuSans-45" transform="scale(0.015625)"/>
       <path d="M 403 4666 
L 1081 4666 
L 2241 2931 
L 3406 4666 
L 4084 4666 
L 2584 2425 
L 4184 0 
L 3506 0 
L 2194 1984 
L 872 0 
L 191 0 
L 1856 2491 
L 403 4666 
z
" id="DejaVuSans-58" transform="scale(0.015625)"/>
       <path d="M 313 2009 
L 1997 2009 
L 1997 1497 
L 313 1497 
L 313 2009 
z
" id="DejaVuSans-2d" transform="scale(0.015625)"/>
       <path d="M 3122 3366 
L 3122 2828 
Q 2878 2963 2633 3030 
Q 2388 3097 2138 3097 
Q 1578 3097 1268 2742 
Q 959 2388 959 1747 
Q 959 1106 1268 751 
Q 1578 397 2138 397 
Q 2388 397 2633 464 
Q 2878 531 3122 666 
L 3122 134 
Q 2881 22 2623 -34 
Q 2366 -91 2075 -91 
Q 1284 -91 818 406 
Q 353 903 353 1747 
Q 353 2603 823 3093 
Q 1294 3584 2113 3584 
Q 2378 3584 2631 3529 
Q 2884 3475 3122 3366 
z
" id="DejaVuSans-63" transform="scale(0.015625)"/>
       <path d="M 603 4863 
L 1178 4863 
L 1178 0 
L 603 0 
L 603 4863 
z
" id="DejaVuSans-6c" transform="scale(0.015625)"/>
       <path d="M 1159 525 
L 1159 -1331 
L 581 -1331 
L 581 3500 
L 1159 3500 
L 1159 2969 
Q 1341 3281 1617 3432 
Q 1894 3584 2278 3584 
Q 2916 3584 3314 3078 
Q 3713 2572 3713 1747 
Q 3713 922 3314 415 
Q 2916 -91 2278 -91 
Q 1894 -91 1617 61 
Q 1341 213 1159 525 
z
M 3116 1747 
Q 3116 2381 2855 2742 
Q 2594 3103 2138 3103 
Q 1681 3103 1420 2742 
Q 1159 2381 1159 1747 
Q 1159 1113 1420 752 
Q 1681 391 2138 391 
Q 2594 391 2855 752 
Q 3116 1113 3116 1747 
z
" id="DejaVuSans-70" transform="scale(0.015625)"/>
       <path d="M 1984 4856 
Q 1566 4138 1362 3434 
Q 1159 2731 1159 2009 
Q 1159 1288 1364 580 
Q 1569 -128 1984 -844 
L 1484 -844 
Q 1016 -109 783 600 
Q 550 1309 550 2009 
Q 550 2706 781 3412 
Q 1013 4119 1484 4856 
L 1984 4856 
z
" id="DejaVuSans-28" transform="scale(0.015625)"/>
       <path d="M 3809 666 
L 3809 1919 
L 2778 1919 
L 2778 2438 
L 4434 2438 
L 4434 434 
Q 4069 175 3628 42 
Q 3188 -91 2688 -91 
Q 1594 -91 976 548 
Q 359 1188 359 2328 
Q 359 3472 976 4111 
Q 1594 4750 2688 4750 
Q 3144 4750 3555 4637 
Q 3966 4525 4313 4306 
L 4313 3634 
Q 3963 3931 3569 4081 
Q 3175 4231 2741 4231 
Q 1884 4231 1454 3753 
Q 1025 3275 1025 2328 
Q 1025 1384 1454 906 
Q 1884 428 2741 428 
Q 3075 428 3337 486 
Q 3600 544 3809 666 
z
" id="DejaVuSans-47" transform="scale(0.015625)"/>
       <path d="M 1259 2228 
L 1259 519 
L 2272 519 
Q 2781 519 3026 730 
Q 3272 941 3272 1375 
Q 3272 1813 3026 2020 
Q 2781 2228 2272 2228 
L 1259 2228 
z
M 1259 4147 
L 1259 2741 
L 2194 2741 
Q 2656 2741 2882 2914 
Q 3109 3088 3109 3444 
Q 3109 3797 2882 3972 
Q 2656 4147 2194 4147 
L 1259 4147 
z
M 628 4666 
L 2241 4666 
Q 2963 4666 3353 4366 
Q 3744 4066 3744 3513 
Q 3744 3084 3544 2831 
Q 3344 2578 2956 2516 
Q 3422 2416 3680 2098 
Q 3938 1781 3938 1306 
Q 3938 681 3513 340 
Q 3088 0 2303 0 
L 628 0 
L 628 4666 
z
" id="DejaVuSans-42" transform="scale(0.015625)"/>
       <path d="M 1625 4666 
L 2156 4666 
L 531 -594 
L 0 -594 
L 1625 4666 
z
" id="DejaVuSans-2f" transform="scale(0.015625)"/>
       <path d="M 513 4856 
L 1013 4856 
Q 1481 4119 1714 3412 
Q 1947 2706 1947 2009 
Q 1947 1309 1714 600 
Q 1481 -109 1013 -844 
L 513 -844 
Q 928 -128 1133 580 
Q 1338 1288 1338 2009 
Q 1338 2731 1133 3434 
Q 928 4138 513 4856 
z
" id="DejaVuSans-29" transform="scale(0.015625)"/>
      </defs>
      <use xlink:href="#DejaVuSans-4e"/>
      <use x="74.804688" xlink:href="#DejaVuSans-32"/>
      <use x="138.427734" xlink:href="#DejaVuSans-45"/>
      <use x="201.611328" xlink:href="#DejaVuSans-58"/>
      <use x="270.117188" xlink:href="#DejaVuSans-20"/>
      <use x="301.904297" xlink:href="#DejaVuSans-64"/>
      <use x="365.380859" xlink:href="#DejaVuSans-61"/>
      <use x="426.660156" xlink:href="#DejaVuSans-79"/>
      <use x="484.089844" xlink:href="#DejaVuSans-2d"/>
      <use x="520.173828" xlink:href="#DejaVuSans-61"/>
      <use x="581.453125" xlink:href="#DejaVuSans-68"/>
      <use x="644.832031" xlink:href="#DejaVuSans-65"/>
      <use x="706.355469" xlink:href="#DejaVuSans-61"/>
      <use x="767.634766" xlink:href="#DejaVuSans-64"/>
      <use x="831.111328" xlink:href="#DejaVuSans-20"/>
      <use x="862.898438" xlink:href="#DejaVuSans-61"/>
      <use x="924.177734" xlink:href="#DejaVuSans-75"/>
      <use x="987.556641" xlink:href="#DejaVuSans-63"/>
      <use x="1042.537109" xlink:href="#DejaVuSans-74"/>
      <use x="1081.746094" xlink:href="#DejaVuSans-69"/>
      <use x="1109.529297" xlink:href="#DejaVuSans-6f"/>
      <use x="1170.710938" xlink:href="#DejaVuSans-6e"/>
      <use x="1234.089844" xlink:href="#DejaVuSans-20"/>
      <use x="1265.876953" xlink:href="#DejaVuSans-65"/>
      <use x="1327.400391" xlink:href="#DejaVuSans-6c"/>
      <use x="1355.183594" xlink:href="#DejaVuSans-65"/>
      <use x="1416.707031" xlink:href="#DejaVuSans-63"/>
      <use x="1471.6875" xlink:href="#DejaVuSans-74"/>
      <use x="1510.896484" xlink:href="#DejaVuSans-72"/>
      <use x="1552.009766" xlink:href="#DejaVuSans-69"/>
      <use x="1579.792969" xlink:href="#DejaVuSans-63"/>
      <use x="1634.773438" xlink:href="#DejaVuSans-69"/>
      <use x="1662.556641" xlink:href="#DejaVuSans-74"/>
      <use x="1701.765625" xlink:href="#DejaVuSans-79"/>
      <use x="1760.945312" xlink:href="#DejaVuSans-20"/>
      <use x="1792.732422" xlink:href="#DejaVuSans-70"/>
      <use x="1856.208984" xlink:href="#DejaVuSans-72"/>
      <use x="1897.322266" xlink:href="#DejaVuSans-69"/>
      <use x="1925.105469" xlink:href="#DejaVuSans-63"/>
      <use x="1980.085938" xlink:href="#DejaVuSans-65"/>
      <use x="2041.609375" xlink:href="#DejaVuSans-20"/>
      <use x="2073.396484" xlink:href="#DejaVuSans-28"/>
      <use x="2112.410156" xlink:href="#DejaVuSans-47"/>
      <use x="2189.900391" xlink:href="#DejaVuSans-42"/>
      <use x="2258.503906" xlink:href="#DejaVuSans-2f"/>
      <use x="2292.195312" xlink:href="#DejaVuSans-4d"/>
      <use x="2378.474609" xlink:href="#DejaVuSans-57"/>
      <use x="2477.351562" xlink:href="#DejaVuSans-68"/>
      <use x="2540.730469" xlink:href="#DejaVuSans-29"/>
     </g>
    </g>
   </g>
   <g id="line2d_29">
    <path clip-path="url(#p0844be3a92)" d="M 42.765865 264.27392 
L 46.706952 260.755635 
L 50.648039 270.382941 
L 54.589127 270.382941 
L 58.530214 248.185764 
L 62.471301 204.527051 
L 66.412388 189.55835 
L 70.353475 183.001547 
L 74.294562 166.6895 
L 78.23565 158.405539 
L 82.176737 183.161469 
L 86.117824 188.918662 
L 90.058911 194.13212 
L 93.999998 195.891262 
L 97.941085 192.309008 
L 101.882173 192.884728 
L 105.82326 177.692135 
L 109.764347 71.056129 
L 113.705434 96.355793 
L 117.646521 128.979886 
L 121.587608 170.047863 
L 125.528696 175.03743 
L 129.469783 215.049921 
L 133.41087 202.160205 
L 137.351957 222.150458 
L 141.293044 224.293414 
L 145.234131 227.331932 
L 149.175219 232.609359 
L 153.116306 230.914185 
L 157.057393 190.997648 
L 160.99848 172.670584 
L 164.939567 184.664736 
L 168.880655 138.319333 
L 172.821742 141.13396 
L 176.762829 160.324603 
L 180.703916 166.721484 
L 184.645003 180.026997 
L 188.58609 201.10472 
L 192.527178 202.512034 
L 196.468265 197.138654 
L 200.409352 166.753469 
L 204.350439 92.229805 
L 208.291526 130.930935 
L 212.232613 166.561562 
L 216.173701 166.721484 
L 220.114788 192.213055 
L 224.055875 230.690295 
L 227.996962 228.131542 
L 231.938049 236.511456 
L 235.879136 235.711846 
L 239.820224 267.152516 
L 243.761311 270.958661 
L 251.643485 222.950069 
L 255.584572 193.300525 
L 259.525659 191.029632 
L 263.466747 189.910178 
L 267.407834 193.396478 
L 271.348921 194.963714 
L 275.290008 194.867761 
L 279.231095 193.652353 
L 283.172183 187.767223 
L 287.11327 186.29594 
L 291.054357 185.112517 
L 294.995444 169.951909 
L 298.936531 105.631271 
L 302.877618 111.676323 
L 306.818706 146.987106 
L 310.759793 195.507449 
L 314.70088 220.071472 
L 318.641967 238.942271 
L 322.583054 237.40702 
L 326.524141 251.416189 
L 330.465229 256.437741 
L 334.406316 294.659105 
L 338.347403 293.60362 
L 342.28849 258.260852 
L 346.229577 219.879566 
L 350.170664 168.320705 
L 354.111752 187.09555 
L 358.052839 160.324603 
L 361.993926 150.729282 
L 365.935013 156.74235 
L 369.8761 150.729282 
L 373.817187 160.324603 
L 377.758275 189.974147 
L 381.699362 199.857328 
L 385.640449 193.524416 
L 389.581536 175.677118 
L 393.522623 118.680908 
L 397.463711 153.927722 
L 401.404798 172.926459 
L 405.345885 177.692135 
L 409.286972 227.17201 
L 413.228059 237.375035 
L 417.169146 262.866606 
L 425.051321 298.497233 
L 428.992408 310.619323 
L 432.933495 309.819713 
L 436.874582 281.801374 
L 442.786213 229.842708 
L 444.756757 211.915449 
L 448.697844 211.147823 
L 452.638931 198.41803 
L 456.580018 182.841625 
L 460.521105 176.316806 
L 464.462192 185.912127 
L 468.40328 170.879457 
L 472.344367 169.280237 
L 476.285454 152.328502 
L 480.226541 198.70589 
L 484.167628 147.530841 
L 488.108716 48.379185 
L 492.049803 82.314639 
L 495.99089 150.441422 
L 499.931977 183.033531 
L 503.873064 188.790724 
L 507.814151 197.938264 
L 511.755239 150.857219 
L 515.696326 185.912127 
L 519.637413 238.622427 
L 523.5785 242.108727 
L 527.519587 246.234716 
L 531.460674 247.06631 
L 535.401762 269.071581 
L 539.342849 249.880938 
L 543.283936 222.59824 
L 547.225023 212.267277 
L 551.16611 218.536221 
L 555.107197 202.064252 
L 559.048285 186.551816 
L 562.989372 186.87166 
L 566.930459 221.094973 
L 570.871546 242.076743 
L 574.812633 238.334567 
L 578.75372 186.807691 
L 582.694808 90.630585 
L 586.635895 102.752674 
L 590.576982 166.081796 
L 594.518069 190.741773 
L 598.459156 223.205944 
L 602.400244 240.541491 
L 606.341331 253.2393 
L 610.282418 256.085912 
L 614.223505 267.536329 
L 618.164592 288.294208 
L 622.105679 297.345795 
L 626.046767 313.274029 
L 629.987854 317.176126 
L 633.928941 314.777296 
L 637.870028 310.683292 
L 641.811115 281.865343 
L 645.752202 255.92599 
L 649.69329 237.758848 
L 653.634377 228.227495 
L 657.575464 211.499652 
L 661.516551 208.07732 
L 665.457638 206.606038 
L 669.398725 203.631488 
L 673.339813 164.258685 
L 677.2809 85.641017 
L 681.221987 118.776861 
L 685.163074 163.043278 
L 689.104161 173.374241 
L 693.045248 197.810326 
L 696.986336 246.682497 
L 700.927423 291.460664 
L 702.897966 298.977 
L 702.897966 298.977 
" style="fill:none;stroke:#d62728;stroke-dasharray:9.25,4;stroke-dashoffset:0;stroke-width:2.5;"/>
   </g>
   <g id="line2d_30">
    <path clip-path="url(#p0844be3a92)" d="M 42.765865 206.088264 
L 44.736409 205.930114 
L 46.706952 211.061816 
L 48.677496 216.511795 
L 50.648039 221.528734 
L 52.618583 225.912461 
L 54.589127 228.298651 
L 56.55967 226.633691 
L 58.530214 221.70033 
L 60.500757 214.082535 
L 66.412388 188.063581 
L 68.382932 181.26975 
L 72.324019 169.254075 
L 74.294562 164.44802 
L 76.265106 162.245652 
L 78.23565 162.789844 
L 80.206193 166.467494 
L 82.176737 171.025331 
L 84.14728 174.743928 
L 86.117824 176.913915 
L 88.088367 177.47802 
L 92.029455 176.845564 
L 95.970542 176.662694 
L 97.941085 177.209376 
L 99.911629 177.990489 
L 101.882173 176.854081 
L 103.852716 170.779284 
L 105.82326 160.262 
L 109.764347 130.818592 
L 111.734891 120.450686 
L 113.705434 118.771377 
L 115.675978 130.161368 
L 117.646521 148.87085 
L 119.617065 169.987482 
L 121.587608 187.643351 
L 123.558152 197.896116 
L 125.528696 205.752808 
L 129.469783 225.738571 
L 131.440326 230.946066 
L 133.41087 231.969517 
L 135.381414 233.590455 
L 137.351957 204.102099 
L 139.322501 203.83204 
L 141.293044 207.755371 
L 143.263588 211.927824 
L 145.234131 215.748569 
L 147.204675 218.657331 
L 149.175219 219.729294 
L 151.145762 217.350009 
L 153.116306 212.171187 
L 155.086849 204.538458 
L 157.057393 196.206681 
L 159.027937 188.764582 
L 160.99848 182.826876 
L 164.939567 174.331214 
L 166.910111 168.906052 
L 168.880655 163.986892 
L 170.851198 161.880424 
L 172.821742 163.078327 
L 174.792285 168.107979 
L 176.762829 174.216597 
L 178.733372 179.15623 
L 180.703916 182.522508 
L 182.67446 184.62085 
L 184.645003 185.839031 
L 186.615547 186.62805 
L 188.58609 187.147377 
L 190.556634 187.461897 
L 192.527178 188.195963 
L 194.497721 189.101185 
L 196.468265 188.031468 
L 198.438808 181.711209 
L 200.409352 169.39512 
L 204.350439 131.662956 
L 206.320983 120.92338 
L 208.291526 120.388118 
L 210.26207 132.26237 
L 212.232613 150.375658 
L 214.203157 169.742241 
L 216.173701 185.456185 
L 218.144244 194.443454 
L 220.114788 201.179305 
L 222.085331 209.478188 
L 224.055875 216.530658 
L 226.026419 218.651157 
L 227.996962 218.156306 
L 229.967506 222.364239 
L 231.938049 214.922336 
L 233.908593 212.921334 
L 235.879136 215.266748 
L 237.84968 218.42939 
L 241.790767 225.545354 
L 243.761311 227.743965 
L 245.731854 226.479445 
L 247.702398 221.735933 
L 249.672942 213.445102 
L 251.643485 204.439971 
L 253.614029 197.430718 
L 255.584572 192.552188 
L 257.555116 189.333738 
L 259.525659 185.269021 
L 263.466747 171.225673 
L 265.43729 168.097559 
L 267.407834 168.889068 
L 269.378377 173.395562 
L 271.348921 178.811378 
L 273.319465 183.018458 
L 275.290008 185.784712 
L 279.231095 189.493035 
L 283.172183 194.437109 
L 285.142726 196.220956 
L 287.11327 197.400239 
L 289.083813 197.264685 
L 291.054357 194.116904 
L 293.0249 185.217166 
L 294.995444 170.925062 
L 296.965988 151.904917 
L 298.936531 135.409859 
L 300.907075 129.020445 
L 302.877618 132.616324 
L 304.848162 146.121433 
L 306.818706 162.798897 
L 308.789249 177.328922 
L 310.759793 187.866875 
L 312.730336 194.418417 
L 314.70088 200.512126 
L 316.671423 208.622478 
L 318.641967 215.625265 
L 320.612511 217.663724 
L 322.583054 217.084709 
L 324.553598 221.268216 
L 326.524141 231.762465 
L 328.494685 231.380132 
L 330.465229 236.038676 
L 334.406316 248.895981 
L 336.376859 253.546118 
L 338.347403 255.301842 
L 340.317947 252.432489 
L 342.28849 245.883729 
L 344.259034 236.258881 
L 346.229577 225.691743 
L 348.200121 215.979828 
L 350.170664 208.105982 
L 352.141208 202.794997 
L 354.111752 197.968322 
L 356.082295 192.069391 
L 358.052839 186.916094 
L 360.023382 184.710479 
L 361.993926 185.07905 
L 363.96447 187.741179 
L 365.935013 190.89655 
L 367.905557 193.144453 
L 369.8761 194.346162 
L 371.846644 194.702849 
L 375.787731 194.450823 
L 377.758275 194.554215 
L 379.728818 195.035011 
L 383.669905 197.060732 
L 385.640449 195.782669 
L 387.610993 189.03957 
L 389.581536 176.539561 
L 391.55208 158.356849 
L 393.522623 141.330239 
L 395.493167 132.883674 
L 397.463711 134.033333 
L 399.434254 146.189515 
L 403.375341 181.146495 
L 405.345885 195.556314 
L 407.316428 204.523866 
L 409.286972 210.677579 
L 411.257516 216.164943 
L 413.228059 219.206575 
L 415.198603 217.221068 
L 417.169146 214.103765 
L 419.13969 218.145618 
L 421.110234 246.126982 
L 423.080777 247.173176 
L 425.051321 253.596118 
L 428.992408 270.399986 
L 430.962952 276.061913 
L 432.933495 278.329021 
L 434.904039 275.487474 
L 436.874582 268.774765 
L 438.845126 258.924856 
L 442.786213 237.141653 
L 444.756757 228.806533 
L 446.7273 224.495573 
L 448.697844 220.611969 
L 450.668387 213.930095 
L 452.638931 206.498123 
L 454.609475 201.253219 
L 456.580018 198.710416 
L 458.550562 199.248703 
L 460.521105 200.829158 
L 462.491649 201.785772 
L 464.462192 202.326304 
L 466.432736 203.216373 
L 468.40328 204.813641 
L 472.344367 210.390415 
L 474.31491 212.295418 
L 476.285454 213.221578 
L 478.255998 212.468356 
L 480.226541 208.39339 
L 482.197085 198.462563 
L 484.167628 183.183416 
L 486.138172 163.524447 
L 488.108716 147.124923 
L 490.079259 141.859424 
L 492.049803 145.89852 
L 494.020346 157.533081 
L 495.99089 171.421793 
L 497.961433 183.898375 
L 499.931977 194.075396 
L 501.902521 202.205465 
L 505.843608 216.861015 
L 507.814151 221.804259 
L 509.784695 221.973292 
L 511.755239 220.272193 
L 513.725782 223.773684 
L 515.696326 205.563959 
L 517.666869 211.163182 
L 519.637413 220.734102 
L 521.607956 228.945869 
L 523.5785 234.823838 
L 525.549044 237.923548 
L 527.519587 238.659053 
L 529.490131 236.073376 
L 531.460674 231.580181 
L 537.372305 213.718309 
L 539.342849 209.772625 
L 541.313392 208.463644 
L 543.283936 206.68458 
L 545.25448 201.897241 
L 547.225023 195.556461 
L 549.195567 189.763655 
L 551.16611 185.780856 
L 553.136654 184.92129 
L 555.107197 185.714336 
L 557.077741 186.781638 
L 559.048285 187.147548 
L 561.018828 186.34091 
L 562.989372 185.383418 
L 564.959915 185.582637 
L 566.930459 186.684249 
L 568.901003 188.416412 
L 570.871546 191.719708 
L 572.84209 196.461976 
L 574.812633 197.284915 
L 576.783177 187.647866 
L 578.75372 168.688775 
L 580.724264 142.914232 
L 582.694808 121.670721 
L 584.665351 116.658028 
L 586.635895 124.615488 
L 588.606438 142.033705 
L 590.576982 161.847213 
L 592.547526 178.851447 
L 594.518069 191.319903 
L 596.488613 199.084892 
L 598.459156 205.603637 
L 600.4297 213.460646 
L 602.400244 219.795765 
L 604.370787 220.680466 
L 606.341331 219.188883 
L 608.311874 223.208725 
L 610.282418 253.395179 
L 612.252961 259.130139 
L 614.223505 268.46975 
L 616.194049 275.610937 
L 618.164592 280.443651 
L 620.135136 283.673192 
L 622.105679 285.822852 
L 624.076223 286.178075 
L 626.046767 286.243265 
L 628.01731 286.432138 
L 629.987854 286.034468 
L 631.958397 283.978573 
L 633.928941 280.918322 
L 635.899484 277.519235 
L 637.870028 272.199316 
L 639.840572 263.910987 
L 641.811115 254.549914 
L 643.781659 246.482119 
L 645.752202 239.787409 
L 647.722746 234.480695 
L 651.663833 225.069683 
L 653.634377 220.75316 
L 655.60492 217.539224 
L 657.575464 216.389662 
L 659.546008 218.308356 
L 663.487095 225.480591 
L 665.457638 228.456557 
L 667.428182 229.099847 
L 669.398725 223.980322 
L 671.369269 208.771331 
L 673.339813 185.167361 
L 675.310356 155.926955 
L 677.2809 132.954318 
L 679.251443 128.391138 
L 681.221987 137.606957 
L 683.192531 156.037716 
L 685.163074 176.24532 
L 687.133618 192.828567 
L 689.104161 204.508492 
L 691.074705 211.524408 
L 696.986336 227.200138 
L 698.956879 229.438622 
L 700.927423 230.010243 
L 702.897966 233.759294 
L 702.897966 233.759294 
" style="fill:none;stroke:#1f77b4;stroke-dasharray:2,3.3;stroke-dashoffset:0;stroke-width:2;"/>
   </g>
   <g id="line2d_31">
    <path clip-path="url(#p0844be3a92)" d="M 42.765865 191.350577 
L 44.736409 203.588226 
L 46.706952 210.656679 
L 50.648039 218.761626 
L 52.618583 223.691351 
L 54.589127 227.911901 
L 56.55967 228.73828 
L 58.530214 225.191913 
L 60.500757 217.540432 
L 62.471301 207.426576 
L 64.441844 196.723506 
L 66.412388 187.048683 
L 68.382932 179.020761 
L 70.353475 172.137154 
L 72.324019 165.994617 
L 74.294562 161.301544 
L 76.265106 159.363768 
L 78.23565 160.863184 
L 80.206193 165.706354 
L 82.176737 171.934568 
L 84.14728 177.494162 
L 86.117824 181.212685 
L 88.088367 182.924558 
L 90.058911 183.277023 
L 92.029455 183.089907 
L 93.999998 182.774534 
L 95.970542 182.593799 
L 97.941085 182.882916 
L 99.911629 183.040615 
L 101.882173 180.84503 
L 103.852716 173.484984 
L 105.82326 160.226629 
L 109.764347 123.796393 
L 111.734891 111.252729 
L 113.705434 109.94204 
L 115.675978 122.048759 
L 117.646521 142.348798 
L 119.617065 163.925411 
L 121.587608 180.504803 
L 123.558152 189.805237 
L 125.528696 195.974994 
L 129.469783 209.810436 
L 131.440326 212.650567 
L 133.41087 211.115232 
L 135.381414 208.274466 
L 137.351957 200.402853 
L 139.322501 212.261304 
L 141.293044 217.902645 
L 143.263588 219.997388 
L 145.234131 221.183297 
L 147.204675 222.187531 
L 149.175219 221.775061 
L 151.145762 217.848753 
L 153.116306 209.801017 
L 155.086849 198.355828 
L 157.057393 185.840019 
L 159.027937 174.661754 
L 160.99848 166.058709 
L 162.969024 159.798798 
L 164.939567 154.167022 
L 166.910111 148.014334 
L 168.880655 142.594466 
L 170.851198 140.221185 
L 172.821742 142.200371 
L 174.792285 148.442323 
L 176.762829 156.391182 
L 178.733372 163.474642 
L 180.703916 168.641691 
L 182.67446 172.020683 
L 184.645003 174.167744 
L 186.615547 175.621417 
L 190.556634 177.669747 
L 194.497721 180.364442 
L 196.468265 179.171176 
L 198.438808 171.954431 
L 200.409352 156.806116 
L 204.350439 112.606756 
L 206.320983 99.170583 
L 208.291526 98.961017 
L 210.26207 112.136575 
L 214.203157 152.593083 
L 216.173701 167.834455 
L 218.144244 176.701396 
L 220.114788 183.070739 
L 222.085331 190.250881 
L 224.055875 196.663184 
L 226.026419 199.255353 
L 229.967506 197.473007 
L 231.938049 210.681337 
L 233.908593 218.984186 
L 235.879136 222.036726 
L 237.84968 222.412641 
L 239.820224 222.604796 
L 241.790767 223.324855 
L 243.761311 223.064557 
L 245.731854 219.331282 
L 247.702398 211.105459 
L 251.643485 186.908004 
L 253.614029 177.714281 
L 255.584572 172.461642 
L 257.555116 169.641655 
L 259.525659 166.013382 
L 261.496203 159.636938 
L 263.466747 152.772926 
L 265.43729 149.082197 
L 267.407834 150.098864 
L 269.378377 155.359922 
L 271.348921 162.084768 
L 273.319465 167.663969 
L 275.290008 171.254516 
L 279.231095 175.669575 
L 281.201639 178.637696 
L 285.142726 185.555478 
L 287.11327 188.262166 
L 289.083813 189.12904 
L 291.054357 186.046181 
L 293.0249 176.399846 
L 294.995444 159.677568 
L 296.965988 138.090925 
L 298.936531 118.895828 
L 300.907075 109.940771 
L 302.877618 113.666493 
L 304.848162 128.057682 
L 306.818706 146.107353 
L 308.789249 161.708658 
L 310.759793 172.549307 
L 312.730336 179.657572 
L 314.70088 186.301501 
L 316.671423 193.928922 
L 318.641967 199.777145 
L 320.612511 200.652292 
L 322.583054 197.77452 
L 324.553598 195.724177 
L 326.524141 218.912053 
L 328.494685 228.743673 
L 330.465229 235.591323 
L 332.435772 241.036947 
L 334.406316 245.653897 
L 336.376859 248.66183 
L 338.347403 248.630595 
L 340.317947 243.927554 
L 342.28849 234.628597 
L 344.259034 221.783163 
L 346.229577 207.840925 
L 348.200121 195.404545 
L 350.170664 186.150524 
L 352.141208 180.278583 
L 358.052839 167.059564 
L 360.023382 165.455854 
L 361.993926 166.893556 
L 363.96447 170.909274 
L 365.935013 175.801078 
L 367.905557 179.920542 
L 369.8761 182.624668 
L 371.846644 184.024925 
L 373.817187 184.589054 
L 375.787731 184.838579 
L 377.758275 185.204562 
L 379.728818 186.028941 
L 381.699362 187.434627 
L 383.669905 188.568632 
L 385.640449 187.068265 
L 387.610993 179.797067 
L 389.581536 165.388455 
L 393.522623 125.06278 
L 395.493167 113.112125 
L 397.463711 113.342921 
L 399.434254 126.101312 
L 403.375341 165.929573 
L 405.345885 182.511771 
L 407.316428 194.05153 
L 409.286972 202.326414 
L 411.257516 208.436375 
L 413.228059 210.861535 
L 415.198603 208.070037 
L 417.169146 202.986224 
L 419.13969 200.939871 
L 421.110234 222.449061 
L 423.080777 232.301411 
L 427.021864 249.859525 
L 428.992408 257.159384 
L 430.962952 261.759887 
L 432.933495 262.514634 
L 434.904039 258.29445 
L 436.874582 249.555828 
L 438.845126 237.284138 
L 440.815669 223.50692 
L 442.786213 210.625249 
L 444.756757 200.978585 
L 446.7273 195.362891 
L 448.697844 190.965181 
L 450.668387 185.025804 
L 452.638931 178.293515 
L 454.609475 173.271404 
L 456.580018 171.554833 
L 458.550562 173.364034 
L 460.521105 176.799322 
L 462.491649 179.810317 
L 464.462192 181.838186 
L 466.432736 183.504085 
L 468.40328 185.671449 
L 470.373823 188.914301 
L 472.344367 192.722271 
L 474.31491 196.275361 
L 476.285454 199.10273 
L 478.255998 200.158136 
L 480.226541 197.364014 
L 482.197085 188.208139 
L 484.167628 172.423502 
L 486.138172 152.528807 
L 488.108716 135.68226 
L 490.079259 129.031158 
L 492.049803 133.657052 
L 494.020346 146.863845 
L 495.99089 162.811879 
L 497.961433 177.07747 
L 499.931977 188.620707 
L 503.873064 208.132116 
L 505.843608 216.577535 
L 507.814151 220.61813 
L 509.784695 217.863834 
L 511.755239 211.238695 
L 513.725782 207.086801 
L 515.696326 186.094717 
L 517.666869 200.71592 
L 519.637413 213.475495 
L 521.607956 222.970475 
L 523.5785 229.523822 
L 525.549044 233.598545 
L 527.519587 235.356464 
L 529.490131 234.107964 
L 531.460674 230.071273 
L 533.431218 223.677344 
L 537.372305 208.83197 
L 539.342849 203.558602 
L 541.313392 200.780427 
L 543.283936 198.424032 
L 545.25448 194.43462 
L 547.225023 189.252332 
L 549.195567 184.776573 
L 551.16611 182.952511 
L 553.136654 184.849047 
L 557.077741 193.709388 
L 559.048285 196.350044 
L 561.018828 196.151593 
L 562.989372 193.918173 
L 564.959915 191.291829 
L 566.930459 189.579358 
L 568.901003 190.03951 
L 570.871546 193.591745 
L 572.84209 198.530755 
L 574.812633 198.576936 
L 576.783177 186.847731 
L 578.75372 162.41277 
L 580.724264 130.105378 
L 582.694808 101.815045 
L 584.665351 89.217452 
L 586.635895 93.901375 
L 588.606438 110.939015 
L 590.576982 131.628512 
L 592.547526 149.413566 
L 594.518069 162.183585 
L 596.488613 171.562801 
L 598.459156 181.697459 
L 600.4297 194.431972 
L 602.400244 206.339009 
L 604.370787 212.839904 
L 606.341331 214.132096 
L 608.311874 214.113038 
L 610.282418 236.860699 
L 612.252961 253.275925 
L 614.223505 266.601935 
L 616.194049 274.534384 
L 618.164592 277.931616 
L 620.135136 278.689291 
L 622.105679 278.18862 
L 624.076223 276.695061 
L 626.046767 274.850758 
L 628.01731 272.707833 
L 629.987854 269.668201 
L 631.958397 265.264636 
L 635.899484 254.741214 
L 637.870028 248.624409 
L 641.811115 233.659684 
L 643.781659 227.341915 
L 645.752202 222.735494 
L 647.722746 219.615933 
L 649.69329 216.974302 
L 651.663833 213.971249 
L 655.60492 207.114326 
L 657.575464 205.168583 
L 659.546008 205.711775 
L 661.516551 208.504908 
L 663.487095 212.805314 
L 665.457638 217.735222 
L 667.428182 220.849207 
L 669.398725 217.548362 
L 671.369269 202.779135 
L 673.339813 176.122186 
L 675.310356 142.475408 
L 677.2809 114.161076 
L 679.251443 103.180346 
L 681.221987 110.047994 
L 683.192531 128.690186 
L 685.163074 150.152695 
L 687.133618 168.036968 
L 689.104161 180.506645 
L 693.045248 198.064332 
L 696.986336 220.523328 
L 698.956879 228.506264 
L 700.927423 231.508951 
L 702.897966 231.405571 
L 702.897966 231.405571 
" style="fill:none;stroke:#2ca02c;stroke-dasharray:9.6,2.4,1.5,2.4;stroke-dashoffset:0;stroke-width:1.5;"/>
   </g>
   <g id="line2d_32">
    <path clip-path="url(#p0844be3a92)" d="M 42.765865 262.847052 
L 44.736409 272.615336 
L 46.706952 275.89273 
L 48.677496 275.465973 
L 50.648039 274.568107 
L 52.618583 274.699513 
L 54.589127 274.971353 
L 56.55967 273.321157 
L 58.530214 268.731158 
L 60.500757 261.329555 
L 66.412388 234.963968 
L 72.324019 212.418881 
L 74.294562 205.370169 
L 76.265106 200.399985 
L 78.23565 198.540162 
L 80.206193 200.004133 
L 82.176737 203.450354 
L 84.14728 207.130688 
L 86.117824 209.843147 
L 88.088367 211.281167 
L 92.029455 212.612537 
L 93.999998 213.76632 
L 95.970542 215.555206 
L 97.941085 217.845739 
L 99.911629 219.607015 
L 101.882173 218.576743 
L 103.852716 212.165135 
L 105.82326 199.587686 
L 109.764347 163.818725 
L 111.734891 150.729367 
L 113.705434 148.14663 
L 115.675978 158.070697 
L 117.646521 175.995527 
L 119.617065 195.367893 
L 121.587608 210.593636 
L 123.558152 219.829355 
L 129.469783 239.175476 
L 131.440326 242.151906 
L 133.41087 240.558737 
L 135.381414 235.30162 
L 137.351957 213.805522 
L 139.322501 221.474915 
L 141.293044 224.793719 
L 143.263588 225.854188 
L 145.234131 226.661717 
L 147.204675 227.694819 
L 149.175219 227.849614 
L 151.145762 225.432824 
L 153.116306 219.964677 
L 155.086849 212.106826 
L 157.057393 203.58814 
L 159.027937 196.045797 
L 160.99848 190.128346 
L 164.939567 180.368004 
L 168.880655 168.380722 
L 170.851198 164.681366 
L 172.821742 164.752559 
L 174.792285 168.798523 
L 178.733372 180.913259 
L 180.703916 185.419777 
L 182.67446 188.352551 
L 184.645003 190.302492 
L 186.615547 192.022551 
L 188.58609 194.031667 
L 190.556634 196.603972 
L 192.527178 199.724363 
L 194.497721 202.358247 
L 196.468265 201.990836 
L 198.438808 195.552032 
L 200.409352 181.733586 
L 204.350439 141.98983 
L 206.320983 129.331524 
L 208.291526 128.559195 
L 210.26207 139.987827 
L 214.203157 176.849688 
L 216.173701 191.28585 
L 218.144244 200.528268 
L 222.085331 214.893139 
L 224.055875 220.990922 
L 226.026419 222.896207 
L 227.996962 220.203635 
L 229.967506 215.174557 
L 231.938049 203.636213 
L 233.908593 209.811925 
L 235.879136 213.134804 
L 241.790767 218.843007 
L 243.761311 219.674206 
L 245.731854 217.540005 
L 247.702398 211.839891 
L 251.643485 194.609559 
L 253.614029 187.889215 
L 255.584572 183.716909 
L 257.555116 180.770567 
L 259.525659 176.646857 
L 261.496203 170.034139 
L 263.466747 162.701033 
L 265.43729 157.77537 
L 267.407834 157.065316 
L 269.378377 160.532107 
L 271.348921 165.973399 
L 273.319465 170.937544 
L 275.290008 174.276565 
L 277.260552 176.300688 
L 279.231095 178.126202 
L 281.201639 180.83267 
L 283.172183 184.630831 
L 287.11327 193.209021 
L 289.083813 195.514684 
L 291.054357 193.479129 
L 293.0249 184.659857 
L 294.995444 168.872621 
L 296.965988 148.72523 
L 298.936531 130.802047 
L 300.907075 122.154603 
L 302.877618 125.279679 
L 304.848162 138.198929 
L 306.818706 154.775698 
L 308.789249 169.39612 
L 310.759793 179.785061 
L 314.70088 194.263219 
L 316.671423 202.777293 
L 318.641967 210.063328 
L 320.612511 212.720577 
L 322.583054 210.566061 
L 324.553598 206.351222 
L 326.524141 214.447421 
L 328.494685 221.24257 
L 330.465229 226.290633 
L 332.435772 230.010963 
L 334.406316 232.627363 
L 336.376859 233.718615 
L 338.347403 232.455535 
L 340.317947 227.907594 
L 342.28849 220.304538 
L 346.229577 200.828866 
L 348.200121 192.61772 
L 350.170664 186.780198 
L 354.111752 179.176971 
L 358.052839 169.877172 
L 360.023382 167.116885 
L 361.993926 167.263761 
L 363.96447 170.120999 
L 365.935013 174.084874 
L 367.905557 177.401263 
L 369.8761 179.200983 
L 371.846644 179.548958 
L 375.787731 178.783072 
L 377.758275 179.199324 
L 379.728818 180.687112 
L 381.699362 182.975864 
L 383.669905 184.645997 
L 385.640449 182.977401 
L 387.610993 175.024406 
L 389.581536 159.972834 
L 391.55208 139.891463 
L 393.522623 121.034141 
L 395.493167 110.448165 
L 397.463711 111.318005 
L 399.434254 122.871832 
L 403.375341 157.343293 
L 405.345885 171.502003 
L 407.316428 181.845373 
L 409.286972 190.139205 
L 411.257516 197.388819 
L 413.228059 202.0816 
L 415.198603 202.309992 
L 417.169146 199.111685 
L 419.13969 195.609243 
L 421.110234 231.309512 
L 423.080777 238.786335 
L 425.051321 245.062108 
L 427.021864 250.042419 
L 428.992408 253.069898 
L 430.962952 253.1757 
L 432.933495 249.722232 
L 434.904039 242.304554 
L 436.874582 231.738185 
L 440.815669 207.14949 
L 442.786213 197.018638 
L 444.756757 190.249307 
L 446.7273 186.715764 
L 448.697844 184.00605 
L 450.668387 179.919102 
L 452.638931 174.940475 
L 454.609475 171.162385 
L 456.580018 170.134542 
L 458.550562 172.1266 
L 460.521105 175.573004 
L 462.491649 178.584316 
L 464.462192 180.386697 
L 466.432736 181.403571 
L 468.40328 182.614858 
L 470.373823 184.921692 
L 472.344367 188.400807 
L 474.31491 192.486851 
L 476.285454 196.28101 
L 478.255998 198.087307 
L 480.226541 195.442625 
L 482.197085 186.037091 
L 484.167628 169.949488 
L 486.138172 150.226817 
L 488.108716 133.755502 
L 490.079259 127.152386 
L 492.049803 131.38726 
L 494.020346 143.42996 
L 495.99089 157.826737 
L 497.961433 170.339313 
L 499.931977 179.796298 
L 505.843608 202.87528 
L 507.814151 208.813791 
L 509.784695 210.636608 
L 511.755239 209.017256 
L 513.725782 206.654821 
L 515.696326 206.022476 
L 517.666869 219.0622 
L 519.637413 230.155399 
L 521.607956 237.994473 
L 523.5785 242.344024 
L 525.549044 243.489462 
L 527.519587 241.971269 
L 529.490131 237.945705 
L 531.460674 232.032694 
L 537.372305 210.648138 
L 539.342849 205.66618 
L 543.283936 198.969286 
L 545.25448 193.70857 
L 547.225023 187.059566 
L 549.195567 180.936172 
L 551.16611 177.334157 
L 553.136654 177.390452 
L 555.107197 180.228156 
L 557.077741 183.915518 
L 559.048285 186.625269 
L 561.018828 187.521243 
L 562.989372 187.196584 
L 564.959915 187.076928 
L 566.930459 188.393523 
L 568.901003 191.919428 
L 572.84209 203.127147 
L 574.812633 203.45244 
L 576.783177 193.438511 
L 578.75372 172.66063 
L 580.724264 145.784366 
L 582.694808 123.031202 
L 584.665351 114.449998 
L 586.635895 121.591877 
L 588.606438 139.560924 
L 590.576982 160.271919 
L 592.547526 177.273139 
L 594.518069 188.375148 
L 596.488613 195.225299 
L 598.459156 201.423424 
L 600.4297 208.890609 
L 602.400244 215.786709 
L 604.370787 218.919203 
L 606.341331 217.865932 
L 608.311874 214.716101 
L 610.282418 218.175828 
L 612.252961 231.53561 
L 614.223505 243.877444 
L 616.194049 253.328842 
L 618.164592 259.421867 
L 620.135136 262.725468 
L 622.105679 264.202165 
L 624.076223 264.468918 
L 628.01731 264.17719 
L 629.987854 263.567172 
L 631.958397 261.982398 
L 633.928941 259.34522 
L 635.899484 255.616069 
L 637.870028 250.125838 
L 639.840572 242.689522 
L 641.811115 234.665212 
L 643.781659 228.073687 
L 645.752202 224.126173 
L 647.722746 223.082615 
L 649.69329 224.132591 
L 651.663833 226.201321 
L 653.634377 228.626884 
L 655.60492 231.470944 
L 657.575464 235.33931 
L 659.546008 240.867815 
L 661.516551 247.759755 
L 663.487095 255.077793 
L 665.457638 261.461802 
L 667.428182 264.342771 
L 669.398725 259.887155 
L 671.369269 244.67775 
L 673.339813 219.398937 
L 675.310356 189.299953 
L 677.2809 165.08416 
L 679.251443 157.062095 
L 681.221987 166.073485 
L 683.192531 186.254014 
L 685.163074 208.823478 
L 687.133618 226.893903 
L 689.104161 238.2204 
L 691.074705 244.533008 
L 693.045248 249.485781 
L 696.986336 261.715524 
L 698.956879 265.855363 
L 700.927423 266.243114 
L 702.897966 262.562865 
L 702.897966 262.562865 
" style="fill:none;stroke:#000000;stroke-linecap:square;"/>
   </g>
   <g id="patch_3">
    <path d="M 42.765865 326.64351 
L 42.765865 6.799459 
" style="fill:none;stroke:#000000;stroke-linecap:square;stroke-linejoin:miter;stroke-width:0.8;"/>
   </g>
   <g id="patch_4">
    <path d="M 704.86851 326.64351 
L 704.86851 6.799459 
" style="fill:none;stroke:#000000;stroke-linecap:square;stroke-linejoin:miter;stroke-width:0.8;"/>
   </g>
   <g id="patch_5">
    <path d="M 42.765865 326.64351 
L 704.86851 326.64351 
" style="fill:none;stroke:#000000;stroke-linecap:square;stroke-linejoin:miter;stroke-width:0.8;"/>
   </g>
   <g id="patch_6">
    <path d="M 42.765865 6.799459 
L 704.86851 6.799459 
" style="fill:none;stroke:#000000;stroke-linecap:square;stroke-linejoin:miter;stroke-width:0.8;"/>
   </g>
   <g id="legend_1">
    <g id="patch_7">
     <path d="M 169.198438 44.155709 
L 578.435938 44.155709 
L 578.435938 11.799459 
L 169.198438 11.799459 
z
" style="fill:#ffffff;opacity:0.95;stroke:#000000;stroke-linejoin:miter;"/>
    </g>
    <g id="line2d_33">
     <path d="M 173.198438 19.897896 
L 193.198438 19.897896 
" style="fill:none;stroke:#d62728;stroke-dasharray:9.25,4;stroke-dashoffset:0;stroke-width:2.5;"/>
    </g>
    <g id="line2d_34"/>
    <g id="text_17">
     <!-- Actual price -->
     <g transform="translate(201.198438 23.397896)scale(0.1 -0.1)">
      <defs>
       <path d="M 2188 4044 
L 1331 1722 
L 3047 1722 
L 2188 4044 
z
M 1831 4666 
L 2547 4666 
L 4325 0 
L 3669 0 
L 3244 1197 
L 1141 1197 
L 716 0 
L 50 0 
L 1831 4666 
z
" id="DejaVuSans-41" transform="scale(0.015625)"/>
      </defs>
      <use xlink:href="#DejaVuSans-41"/>
      <use x="66.658203" xlink:href="#DejaVuSans-63"/>
      <use x="121.638672" xlink:href="#DejaVuSans-74"/>
      <use x="160.847656" xlink:href="#DejaVuSans-75"/>
      <use x="224.226562" xlink:href="#DejaVuSans-61"/>
      <use x="285.505859" xlink:href="#DejaVuSans-6c"/>
      <use x="313.289062" xlink:href="#DejaVuSans-20"/>
      <use x="345.076172" xlink:href="#DejaVuSans-70"/>
      <use x="408.552734" xlink:href="#DejaVuSans-72"/>
      <use x="449.666016" xlink:href="#DejaVuSans-69"/>
      <use x="477.449219" xlink:href="#DejaVuSans-63"/>
      <use x="532.429688" xlink:href="#DejaVuSans-65"/>
     </g>
    </g>
    <g id="line2d_35">
     <path d="M 173.198438 34.576021 
L 193.198438 34.576021 
" style="fill:none;stroke:#1f77b4;stroke-dasharray:2,3.3;stroke-dashoffset:0;stroke-width:2;"/>
    </g>
    <g id="line2d_36"/>
    <g id="text_18">
     <!-- Forecasted price 1 -->
     <g transform="translate(201.198438 38.076021)scale(0.1 -0.1)">
      <defs>
       <path d="M 2834 3397 
L 2834 2853 
Q 2591 2978 2328 3040 
Q 2066 3103 1784 3103 
Q 1356 3103 1142 2972 
Q 928 2841 928 2578 
Q 928 2378 1081 2264 
Q 1234 2150 1697 2047 
L 1894 2003 
Q 2506 1872 2764 1633 
Q 3022 1394 3022 966 
Q 3022 478 2636 193 
Q 2250 -91 1575 -91 
Q 1294 -91 989 -36 
Q 684 19 347 128 
L 347 722 
Q 666 556 975 473 
Q 1284 391 1588 391 
Q 1994 391 2212 530 
Q 2431 669 2431 922 
Q 2431 1156 2273 1281 
Q 2116 1406 1581 1522 
L 1381 1569 
Q 847 1681 609 1914 
Q 372 2147 372 2553 
Q 372 3047 722 3315 
Q 1072 3584 1716 3584 
Q 2034 3584 2315 3537 
Q 2597 3491 2834 3397 
z
" id="DejaVuSans-73" transform="scale(0.015625)"/>
      </defs>
      <use xlink:href="#DejaVuSans-46"/>
      <use x="53.894531" xlink:href="#DejaVuSans-6f"/>
      <use x="115.076172" xlink:href="#DejaVuSans-72"/>
      <use x="153.939453" xlink:href="#DejaVuSans-65"/>
      <use x="215.462891" xlink:href="#DejaVuSans-63"/>
      <use x="270.443359" xlink:href="#DejaVuSans-61"/>
      <use x="331.722656" xlink:href="#DejaVuSans-73"/>
      <use x="383.822266" xlink:href="#DejaVuSans-74"/>
      <use x="423.03125" xlink:href="#DejaVuSans-65"/>
      <use x="484.554688" xlink:href="#DejaVuSans-64"/>
      <use x="548.03125" xlink:href="#DejaVuSans-20"/>
      <use x="579.818359" xlink:href="#DejaVuSans-70"/>
      <use x="643.294922" xlink:href="#DejaVuSans-72"/>
      <use x="684.408203" xlink:href="#DejaVuSans-69"/>
      <use x="712.191406" xlink:href="#DejaVuSans-63"/>
      <use x="767.171875" xlink:href="#DejaVuSans-65"/>
      <use x="828.695312" xlink:href="#DejaVuSans-20"/>
      <use x="860.482422" xlink:href="#DejaVuSans-31"/>
     </g>
    </g>
    <g id="line2d_37">
     <path d="M 313.610938 19.897896 
L 333.610938 19.897896 
" style="fill:none;stroke:#2ca02c;stroke-dasharray:9.6,2.4,1.5,2.4;stroke-dashoffset:0;stroke-width:1.5;"/>
    </g>
    <g id="line2d_38"/>
    <g id="text_19">
     <!-- Forecasted price 2 -->
     <g transform="translate(341.610938 23.397896)scale(0.1 -0.1)">
      <use xlink:href="#DejaVuSans-46"/>
      <use x="53.894531" xlink:href="#DejaVuSans-6f"/>
      <use x="115.076172" xlink:href="#DejaVuSans-72"/>
      <use x="153.939453" xlink:href="#DejaVuSans-65"/>
      <use x="215.462891" xlink:href="#DejaVuSans-63"/>
      <use x="270.443359" xlink:href="#DejaVuSans-61"/>
      <use x="331.722656" xlink:href="#DejaVuSans-73"/>
      <use x="383.822266" xlink:href="#DejaVuSans-74"/>
      <use x="423.03125" xlink:href="#DejaVuSans-65"/>
      <use x="484.554688" xlink:href="#DejaVuSans-64"/>
      <use x="548.03125" xlink:href="#DejaVuSans-20"/>
      <use x="579.818359" xlink:href="#DejaVuSans-70"/>
      <use x="643.294922" xlink:href="#DejaVuSans-72"/>
      <use x="684.408203" xlink:href="#DejaVuSans-69"/>
      <use x="712.191406" xlink:href="#DejaVuSans-63"/>
      <use x="767.171875" xlink:href="#DejaVuSans-65"/>
      <use x="828.695312" xlink:href="#DejaVuSans-20"/>
      <use x="860.482422" xlink:href="#DejaVuSans-32"/>
     </g>
    </g>
    <g id="line2d_39">
     <path d="M 454.023438 19.897896 
L 474.023438 19.897896 
" style="fill:none;stroke:#000000;stroke-linecap:square;"/>
    </g>
    <g id="line2d_40"/>
    <g id="text_20">
     <!-- Forecasted price 3 -->
     <g transform="translate(482.023438 23.397896)scale(0.1 -0.1)">
      <defs>
       <path d="M 2597 2516 
Q 3050 2419 3304 2112 
Q 3559 1806 3559 1356 
Q 3559 666 3084 287 
Q 2609 -91 1734 -91 
Q 1441 -91 1130 -33 
Q 819 25 488 141 
L 488 750 
Q 750 597 1062 519 
Q 1375 441 1716 441 
Q 2309 441 2620 675 
Q 2931 909 2931 1356 
Q 2931 1769 2642 2001 
Q 2353 2234 1838 2234 
L 1294 2234 
L 1294 2753 
L 1863 2753 
Q 2328 2753 2575 2939 
Q 2822 3125 2822 3475 
Q 2822 3834 2567 4026 
Q 2313 4219 1838 4219 
Q 1578 4219 1281 4162 
Q 984 4106 628 3988 
L 628 4550 
Q 988 4650 1302 4700 
Q 1616 4750 1894 4750 
Q 2613 4750 3031 4423 
Q 3450 4097 3450 3541 
Q 3450 3153 3228 2886 
Q 3006 2619 2597 2516 
z
" id="DejaVuSans-33" transform="scale(0.015625)"/>
      </defs>
      <use xlink:href="#DejaVuSans-46"/>
      <use x="53.894531" xlink:href="#DejaVuSans-6f"/>
      <use x="115.076172" xlink:href="#DejaVuSans-72"/>
      <use x="153.939453" xlink:href="#DejaVuSans-65"/>
      <use x="215.462891" xlink:href="#DejaVuSans-63"/>
      <use x="270.443359" xlink:href="#DejaVuSans-61"/>
      <use x="331.722656" xlink:href="#DejaVuSans-73"/>
      <use x="383.822266" xlink:href="#DejaVuSans-74"/>
      <use x="423.03125" xlink:href="#DejaVuSans-65"/>
      <use x="484.554688" xlink:href="#DejaVuSans-64"/>
      <use x="548.03125" xlink:href="#DejaVuSans-20"/>
      <use x="579.818359" xlink:href="#DejaVuSans-70"/>
      <use x="643.294922" xlink:href="#DejaVuSans-72"/>
      <use x="684.408203" xlink:href="#DejaVuSans-69"/>
      <use x="712.191406" xlink:href="#DejaVuSans-63"/>
      <use x="767.171875" xlink:href="#DejaVuSans-65"/>
      <use x="828.695312" xlink:href="#DejaVuSans-20"/>
      <use x="860.482422" xlink:href="#DejaVuSans-33"/>
     </g>
    </g>
   </g>
  </g>
 </g>
 <defs>
  <clipPath id="p0844be3a92">
   <rect height="319.844051" width="662.102645" x="42.765865" y="6.799459"/>
  </clipPath>
 </defs>
</svg>
