<?xml version="1.0" encoding="utf-8" standalone="no"?>
<!DOCTYPE svg PUBLIC "-//W3C//DTD SVG 1.1//EN"
  "http://www.w3.org/Graphics/SVG/1.1/DTD/svg11.dtd">
<svg height="360pt" version="1.1" viewBox="0 0 821.52 360" width="821.52pt" xmlns="http://www.w3.org/2000/svg" xmlns:xlink="http://www.w3.org/1999/xlink">
 <metadata>
  <rdf:RDF xmlns:cc="http://creativecommons.org/ns#" xmlns:dc="http://purl.org/dc/elements/1.1/" xmlns:rdf="http://www.w3.org/1999/02/22-rdf-syntax-ns#">
   <cc:Work>
    <dc:type rdf:resource="http://purl.org/dc/dcmitype/StillImage"/>
    <dc:date>2022-04-21T16:59:06.541917</dc:date>
    <dc:format>image/svg+xml</dc:format>
    <dc:creator>
     <cc:Agent>
      <dc:title>Matplotlib v3.4.3, https://matplotlib.org/</dc:title>
     </cc:Agent>
    </dc:creator>
   </cc:Work>
  </rdf:RDF>
 </metadata>
 <defs>
  <style type="text/css">*{stroke-linecap:butt;stroke-linejoin:round;}</style>
 </defs>
 <g id="figure_1">
  <g id="patch_1">
   <path d="M 0 360 
L 821.52 360 
L 821.52 0 
L 0 0 
z
" style="fill:#ffffff;"/>
  </g>
  <g id="axes_1">
   <g id="patch_2">
    <path d="M 42.765865 326.64351 
L 806.38851 326.64351 
L 806.38851 6.532193 
L 42.765865 6.532193 
z
" style="fill:#ffffff;"/>
   </g>
   <g id="matplotlib.axis_1">
    <g id="xtick_1">
     <g id="line2d_1">
      <path clip-path="url(#p7c4a8ed237)" d="M 42.765865 326.64351 
L 42.765865 6.532193 
" style="fill:none;stroke:#b0b0b0;stroke-linecap:square;stroke-width:0.8;"/>
     </g>
     <g id="line2d_2">
      <defs>
       <path d="M 0 0 
L 0 3.5 
" id="m29160ec927" style="stroke:#000000;stroke-width:0.8;"/>
      </defs>
      <g>
       <use style="stroke:#000000;stroke-width:0.8;" x="42.765865" xlink:href="#m29160ec927" y="326.64351"/>
      </g>
     </g>
     <g id="text_1">
      <!-- Mon. -->
      <g transform="translate(30.634615 341.241947)scale(0.1 -0.1)">
       <defs>
        <path d="M 628 4666 
L 1569 4666 
L 2759 1491 
L 3956 4666 
L 4897 4666 
L 4897 0 
L 4281 0 
L 4281 4097 
L 3078 897 
L 2444 897 
L 1241 4097 
L 1241 0 
L 628 0 
L 628 4666 
z
" id="DejaVuSans-4d" transform="scale(0.015625)"/>
        <path d="M 1959 3097 
Q 1497 3097 1228 2736 
Q 959 2375 959 1747 
Q 959 1119 1226 758 
Q 1494 397 1959 397 
Q 2419 397 2687 759 
Q 2956 1122 2956 1747 
Q 2956 2369 2687 2733 
Q 2419 3097 1959 3097 
z
M 1959 3584 
Q 2709 3584 3137 3096 
Q 3566 2609 3566 1747 
Q 3566 888 3137 398 
Q 2709 -91 1959 -91 
Q 1206 -91 779 398 
Q 353 888 353 1747 
Q 353 2609 779 3096 
Q 1206 3584 1959 3584 
z
" id="DejaVuSans-6f" transform="scale(0.015625)"/>
        <path d="M 3513 2113 
L 3513 0 
L 2938 0 
L 2938 2094 
Q 2938 2591 2744 2837 
Q 2550 3084 2163 3084 
Q 1697 3084 1428 2787 
Q 1159 2491 1159 1978 
L 1159 0 
L 581 0 
L 581 3500 
L 1159 3500 
L 1159 2956 
Q 1366 3272 1645 3428 
Q 1925 3584 2291 3584 
Q 2894 3584 3203 3211 
Q 3513 2838 3513 2113 
z
" id="DejaVuSans-6e" transform="scale(0.015625)"/>
        <path d="M 684 794 
L 1344 794 
L 1344 0 
L 684 0 
L 684 794 
z
" id="DejaVuSans-2e" transform="scale(0.015625)"/>
       </defs>
       <use xlink:href="#DejaVuSans-4d"/>
       <use x="86.279297" xlink:href="#DejaVuSans-6f"/>
       <use x="147.460938" xlink:href="#DejaVuSans-6e"/>
       <use x="210.839844" xlink:href="#DejaVuSans-2e"/>
      </g>
     </g>
    </g>
    <g id="xtick_2">
     <g id="line2d_3">
      <path clip-path="url(#p7c4a8ed237)" d="M 151.854814 326.64351 
L 151.854814 6.532193 
" style="fill:none;stroke:#b0b0b0;stroke-linecap:square;stroke-width:0.8;"/>
     </g>
     <g id="line2d_4">
      <g>
       <use style="stroke:#000000;stroke-width:0.8;" x="151.854814" xlink:href="#m29160ec927" y="326.64351"/>
      </g>
     </g>
     <g id="text_2">
      <!-- Tue. -->
      <g transform="translate(141.722783 341.241947)scale(0.1 -0.1)">
       <defs>
        <path d="M -19 4666 
L 3928 4666 
L 3928 4134 
L 2272 4134 
L 2272 0 
L 1638 0 
L 1638 4134 
L -19 4134 
L -19 4666 
z
" id="DejaVuSans-54" transform="scale(0.015625)"/>
        <path d="M 544 1381 
L 544 3500 
L 1119 3500 
L 1119 1403 
Q 1119 906 1312 657 
Q 1506 409 1894 409 
Q 2359 409 2629 706 
Q 2900 1003 2900 1516 
L 2900 3500 
L 3475 3500 
L 3475 0 
L 2900 0 
L 2900 538 
Q 2691 219 2414 64 
Q 2138 -91 1772 -91 
Q 1169 -91 856 284 
Q 544 659 544 1381 
z
M 1991 3584 
L 1991 3584 
z
" id="DejaVuSans-75" transform="scale(0.015625)"/>
        <path d="M 3597 1894 
L 3597 1613 
L 953 1613 
Q 991 1019 1311 708 
Q 1631 397 2203 397 
Q 2534 397 2845 478 
Q 3156 559 3463 722 
L 3463 178 
Q 3153 47 2828 -22 
Q 2503 -91 2169 -91 
Q 1331 -91 842 396 
Q 353 884 353 1716 
Q 353 2575 817 3079 
Q 1281 3584 2069 3584 
Q 2775 3584 3186 3129 
Q 3597 2675 3597 1894 
z
M 3022 2063 
Q 3016 2534 2758 2815 
Q 2500 3097 2075 3097 
Q 1594 3097 1305 2825 
Q 1016 2553 972 2059 
L 3022 2063 
z
" id="DejaVuSans-65" transform="scale(0.015625)"/>
       </defs>
       <use xlink:href="#DejaVuSans-54"/>
       <use x="45.958984" xlink:href="#DejaVuSans-75"/>
       <use x="109.337891" xlink:href="#DejaVuSans-65"/>
       <use x="170.861328" xlink:href="#DejaVuSans-2e"/>
      </g>
     </g>
    </g>
    <g id="xtick_3">
     <g id="line2d_5">
      <path clip-path="url(#p7c4a8ed237)" d="M 260.943764 326.64351 
L 260.943764 6.532193 
" style="fill:none;stroke:#b0b0b0;stroke-linecap:square;stroke-width:0.8;"/>
     </g>
     <g id="line2d_6">
      <g>
       <use style="stroke:#000000;stroke-width:0.8;" x="260.943764" xlink:href="#m29160ec927" y="326.64351"/>
      </g>
     </g>
     <g id="text_3">
      <!-- Wed. -->
      <g transform="translate(248.45392 341.241947)scale(0.1 -0.1)">
       <defs>
        <path d="M 213 4666 
L 850 4666 
L 1831 722 
L 2809 4666 
L 3519 4666 
L 4500 722 
L 5478 4666 
L 6119 4666 
L 4947 0 
L 4153 0 
L 3169 4050 
L 2175 0 
L 1381 0 
L 213 4666 
z
" id="DejaVuSans-57" transform="scale(0.015625)"/>
        <path d="M 2906 2969 
L 2906 4863 
L 3481 4863 
L 3481 0 
L 2906 0 
L 2906 525 
Q 2725 213 2448 61 
Q 2172 -91 1784 -91 
Q 1150 -91 751 415 
Q 353 922 353 1747 
Q 353 2572 751 3078 
Q 1150 3584 1784 3584 
Q 2172 3584 2448 3432 
Q 2725 3281 2906 2969 
z
M 947 1747 
Q 947 1113 1208 752 
Q 1469 391 1925 391 
Q 2381 391 2643 752 
Q 2906 1113 2906 1747 
Q 2906 2381 2643 2742 
Q 2381 3103 1925 3103 
Q 1469 3103 1208 2742 
Q 947 2381 947 1747 
z
" id="DejaVuSans-64" transform="scale(0.015625)"/>
       </defs>
       <use xlink:href="#DejaVuSans-57"/>
       <use x="93.001953" xlink:href="#DejaVuSans-65"/>
       <use x="154.525391" xlink:href="#DejaVuSans-64"/>
       <use x="218.001953" xlink:href="#DejaVuSans-2e"/>
      </g>
     </g>
    </g>
    <g id="xtick_4">
     <g id="line2d_7">
      <path clip-path="url(#p7c4a8ed237)" d="M 370.032713 326.64351 
L 370.032713 6.532193 
" style="fill:none;stroke:#b0b0b0;stroke-linecap:square;stroke-width:0.8;"/>
     </g>
     <g id="line2d_8">
      <g>
       <use style="stroke:#000000;stroke-width:0.8;" x="370.032713" xlink:href="#m29160ec927" y="326.64351"/>
      </g>
     </g>
     <g id="text_4">
      <!-- Thur. -->
      <g transform="translate(357.453025 341.241947)scale(0.1 -0.1)">
       <defs>
        <path d="M 3513 2113 
L 3513 0 
L 2938 0 
L 2938 2094 
Q 2938 2591 2744 2837 
Q 2550 3084 2163 3084 
Q 1697 3084 1428 2787 
Q 1159 2491 1159 1978 
L 1159 0 
L 581 0 
L 581 4863 
L 1159 4863 
L 1159 2956 
Q 1366 3272 1645 3428 
Q 1925 3584 2291 3584 
Q 2894 3584 3203 3211 
Q 3513 2838 3513 2113 
z
" id="DejaVuSans-68" transform="scale(0.015625)"/>
        <path d="M 2631 2963 
Q 2534 3019 2420 3045 
Q 2306 3072 2169 3072 
Q 1681 3072 1420 2755 
Q 1159 2438 1159 1844 
L 1159 0 
L 581 0 
L 581 3500 
L 1159 3500 
L 1159 2956 
Q 1341 3275 1631 3429 
Q 1922 3584 2338 3584 
Q 2397 3584 2469 3576 
Q 2541 3569 2628 3553 
L 2631 2963 
z
" id="DejaVuSans-72" transform="scale(0.015625)"/>
       </defs>
       <use xlink:href="#DejaVuSans-54"/>
       <use x="61.083984" xlink:href="#DejaVuSans-68"/>
       <use x="124.462891" xlink:href="#DejaVuSans-75"/>
       <use x="187.841797" xlink:href="#DejaVuSans-72"/>
       <use x="219.830078" xlink:href="#DejaVuSans-2e"/>
      </g>
     </g>
    </g>
    <g id="xtick_5">
     <g id="line2d_9">
      <path clip-path="url(#p7c4a8ed237)" d="M 479.121662 326.64351 
L 479.121662 6.532193 
" style="fill:none;stroke:#b0b0b0;stroke-linecap:square;stroke-width:0.8;"/>
     </g>
     <g id="line2d_10">
      <g>
       <use style="stroke:#000000;stroke-width:0.8;" x="479.121662" xlink:href="#m29160ec927" y="326.64351"/>
      </g>
     </g>
     <g id="text_5">
      <!-- Fri. -->
      <g transform="translate(471.574787 341.241947)scale(0.1 -0.1)">
       <defs>
        <path d="M 628 4666 
L 3309 4666 
L 3309 4134 
L 1259 4134 
L 1259 2759 
L 3109 2759 
L 3109 2228 
L 1259 2228 
L 1259 0 
L 628 0 
L 628 4666 
z
" id="DejaVuSans-46" transform="scale(0.015625)"/>
        <path d="M 603 3500 
L 1178 3500 
L 1178 0 
L 603 0 
L 603 3500 
z
M 603 4863 
L 1178 4863 
L 1178 4134 
L 603 4134 
L 603 4863 
z
" id="DejaVuSans-69" transform="scale(0.015625)"/>
       </defs>
       <use xlink:href="#DejaVuSans-46"/>
       <use x="50.269531" xlink:href="#DejaVuSans-72"/>
       <use x="91.382812" xlink:href="#DejaVuSans-69"/>
       <use x="119.166016" xlink:href="#DejaVuSans-2e"/>
      </g>
     </g>
    </g>
    <g id="xtick_6">
     <g id="line2d_11">
      <path clip-path="url(#p7c4a8ed237)" d="M 588.210611 326.64351 
L 588.210611 6.532193 
" style="fill:none;stroke:#b0b0b0;stroke-linecap:square;stroke-width:0.8;"/>
     </g>
     <g id="line2d_12">
      <g>
       <use style="stroke:#000000;stroke-width:0.8;" x="588.210611" xlink:href="#m29160ec927" y="326.64351"/>
      </g>
     </g>
     <g id="text_6">
      <!-- Sat. -->
      <g transform="translate(578.423111 341.241947)scale(0.1 -0.1)">
       <defs>
        <path d="M 3425 4513 
L 3425 3897 
Q 3066 4069 2747 4153 
Q 2428 4238 2131 4238 
Q 1616 4238 1336 4038 
Q 1056 3838 1056 3469 
Q 1056 3159 1242 3001 
Q 1428 2844 1947 2747 
L 2328 2669 
Q 3034 2534 3370 2195 
Q 3706 1856 3706 1288 
Q 3706 609 3251 259 
Q 2797 -91 1919 -91 
Q 1588 -91 1214 -16 
Q 841 59 441 206 
L 441 856 
Q 825 641 1194 531 
Q 1563 422 1919 422 
Q 2459 422 2753 634 
Q 3047 847 3047 1241 
Q 3047 1584 2836 1778 
Q 2625 1972 2144 2069 
L 1759 2144 
Q 1053 2284 737 2584 
Q 422 2884 422 3419 
Q 422 4038 858 4394 
Q 1294 4750 2059 4750 
Q 2388 4750 2728 4690 
Q 3069 4631 3425 4513 
z
" id="DejaVuSans-53" transform="scale(0.015625)"/>
        <path d="M 2194 1759 
Q 1497 1759 1228 1600 
Q 959 1441 959 1056 
Q 959 750 1161 570 
Q 1363 391 1709 391 
Q 2188 391 2477 730 
Q 2766 1069 2766 1631 
L 2766 1759 
L 2194 1759 
z
M 3341 1997 
L 3341 0 
L 2766 0 
L 2766 531 
Q 2569 213 2275 61 
Q 1981 -91 1556 -91 
Q 1019 -91 701 211 
Q 384 513 384 1019 
Q 384 1609 779 1909 
Q 1175 2209 1959 2209 
L 2766 2209 
L 2766 2266 
Q 2766 2663 2505 2880 
Q 2244 3097 1772 3097 
Q 1472 3097 1187 3025 
Q 903 2953 641 2809 
L 641 3341 
Q 956 3463 1253 3523 
Q 1550 3584 1831 3584 
Q 2591 3584 2966 3190 
Q 3341 2797 3341 1997 
z
" id="DejaVuSans-61" transform="scale(0.015625)"/>
        <path d="M 1172 4494 
L 1172 3500 
L 2356 3500 
L 2356 3053 
L 1172 3053 
L 1172 1153 
Q 1172 725 1289 603 
Q 1406 481 1766 481 
L 2356 481 
L 2356 0 
L 1766 0 
Q 1100 0 847 248 
Q 594 497 594 1153 
L 594 3053 
L 172 3053 
L 172 3500 
L 594 3500 
L 594 4494 
L 1172 4494 
z
" id="DejaVuSans-74" transform="scale(0.015625)"/>
       </defs>
       <use xlink:href="#DejaVuSans-53"/>
       <use x="63.476562" xlink:href="#DejaVuSans-61"/>
       <use x="124.755859" xlink:href="#DejaVuSans-74"/>
       <use x="163.964844" xlink:href="#DejaVuSans-2e"/>
      </g>
     </g>
    </g>
    <g id="xtick_7">
     <g id="line2d_13">
      <path clip-path="url(#p7c4a8ed237)" d="M 697.299561 326.64351 
L 697.299561 6.532193 
" style="fill:none;stroke:#b0b0b0;stroke-linecap:square;stroke-width:0.8;"/>
     </g>
     <g id="line2d_14">
      <g>
       <use style="stroke:#000000;stroke-width:0.8;" x="697.299561" xlink:href="#m29160ec927" y="326.64351"/>
      </g>
     </g>
     <g id="text_7">
      <!-- Sun. -->
      <g transform="translate(686.198779 341.241947)scale(0.1 -0.1)">
       <use xlink:href="#DejaVuSans-53"/>
       <use x="63.476562" xlink:href="#DejaVuSans-75"/>
       <use x="126.855469" xlink:href="#DejaVuSans-6e"/>
       <use x="190.234375" xlink:href="#DejaVuSans-2e"/>
      </g>
     </g>
    </g>
    <g id="xtick_8">
     <g id="line2d_15">
      <path clip-path="url(#p7c4a8ed237)" d="M 806.38851 326.64351 
L 806.38851 6.532193 
" style="fill:none;stroke:#b0b0b0;stroke-linecap:square;stroke-width:0.8;"/>
     </g>
     <g id="line2d_16">
      <g>
       <use style="stroke:#000000;stroke-width:0.8;" x="806.38851" xlink:href="#m29160ec927" y="326.64351"/>
      </g>
     </g>
     <g id="text_8">
      <!-- Mon. -->
      <g transform="translate(794.25726 341.241947)scale(0.1 -0.1)">
       <use xlink:href="#DejaVuSans-4d"/>
       <use x="86.279297" xlink:href="#DejaVuSans-6f"/>
       <use x="147.460938" xlink:href="#DejaVuSans-6e"/>
       <use x="210.839844" xlink:href="#DejaVuSans-2e"/>
      </g>
     </g>
    </g>
    <g id="text_9">
     <!-- Day of the week -->
     <g transform="translate(383.774063 354.920073)scale(0.1 -0.1)">
      <defs>
       <path d="M 1259 4147 
L 1259 519 
L 2022 519 
Q 2988 519 3436 956 
Q 3884 1394 3884 2338 
Q 3884 3275 3436 3711 
Q 2988 4147 2022 4147 
L 1259 4147 
z
M 628 4666 
L 1925 4666 
Q 3281 4666 3915 4102 
Q 4550 3538 4550 2338 
Q 4550 1131 3912 565 
Q 3275 0 1925 0 
L 628 0 
L 628 4666 
z
" id="DejaVuSans-44" transform="scale(0.015625)"/>
       <path d="M 2059 -325 
Q 1816 -950 1584 -1140 
Q 1353 -1331 966 -1331 
L 506 -1331 
L 506 -850 
L 844 -850 
Q 1081 -850 1212 -737 
Q 1344 -625 1503 -206 
L 1606 56 
L 191 3500 
L 800 3500 
L 1894 763 
L 2988 3500 
L 3597 3500 
L 2059 -325 
z
" id="DejaVuSans-79" transform="scale(0.015625)"/>
       <path id="DejaVuSans-20" transform="scale(0.015625)"/>
       <path d="M 2375 4863 
L 2375 4384 
L 1825 4384 
Q 1516 4384 1395 4259 
Q 1275 4134 1275 3809 
L 1275 3500 
L 2222 3500 
L 2222 3053 
L 1275 3053 
L 1275 0 
L 697 0 
L 697 3053 
L 147 3053 
L 147 3500 
L 697 3500 
L 697 3744 
Q 697 4328 969 4595 
Q 1241 4863 1831 4863 
L 2375 4863 
z
" id="DejaVuSans-66" transform="scale(0.015625)"/>
       <path d="M 269 3500 
L 844 3500 
L 1563 769 
L 2278 3500 
L 2956 3500 
L 3675 769 
L 4391 3500 
L 4966 3500 
L 4050 0 
L 3372 0 
L 2619 2869 
L 1863 0 
L 1184 0 
L 269 3500 
z
" id="DejaVuSans-77" transform="scale(0.015625)"/>
       <path d="M 581 4863 
L 1159 4863 
L 1159 1991 
L 2875 3500 
L 3609 3500 
L 1753 1863 
L 3688 0 
L 2938 0 
L 1159 1709 
L 1159 0 
L 581 0 
L 581 4863 
z
" id="DejaVuSans-6b" transform="scale(0.015625)"/>
      </defs>
      <use xlink:href="#DejaVuSans-44"/>
      <use x="77.001953" xlink:href="#DejaVuSans-61"/>
      <use x="138.28125" xlink:href="#DejaVuSans-79"/>
      <use x="197.460938" xlink:href="#DejaVuSans-20"/>
      <use x="229.248047" xlink:href="#DejaVuSans-6f"/>
      <use x="290.429688" xlink:href="#DejaVuSans-66"/>
      <use x="325.634766" xlink:href="#DejaVuSans-20"/>
      <use x="357.421875" xlink:href="#DejaVuSans-74"/>
      <use x="396.630859" xlink:href="#DejaVuSans-68"/>
      <use x="460.009766" xlink:href="#DejaVuSans-65"/>
      <use x="521.533203" xlink:href="#DejaVuSans-20"/>
      <use x="553.320312" xlink:href="#DejaVuSans-77"/>
      <use x="635.107422" xlink:href="#DejaVuSans-65"/>
      <use x="696.630859" xlink:href="#DejaVuSans-65"/>
      <use x="758.154297" xlink:href="#DejaVuSans-6b"/>
     </g>
    </g>
   </g>
   <g id="matplotlib.axis_2">
    <g id="ytick_1">
     <g id="line2d_17">
      <path clip-path="url(#p7c4a8ed237)" d="M 42.765865 295.76691 
L 806.38851 295.76691 
" style="fill:none;stroke:#b0b0b0;stroke-linecap:square;stroke-width:0.8;"/>
     </g>
     <g id="line2d_18">
      <defs>
       <path d="M 0 0 
L -3.5 0 
" id="m167d3757b9" style="stroke:#000000;stroke-width:0.8;"/>
      </defs>
      <g>
       <use style="stroke:#000000;stroke-width:0.8;" x="42.765865" xlink:href="#m167d3757b9" y="295.76691"/>
      </g>
     </g>
     <g id="text_10">
      <!-- 60 -->
      <g transform="translate(23.040865 299.566129)scale(0.1 -0.1)">
       <defs>
        <path d="M 2113 2584 
Q 1688 2584 1439 2293 
Q 1191 2003 1191 1497 
Q 1191 994 1439 701 
Q 1688 409 2113 409 
Q 2538 409 2786 701 
Q 3034 994 3034 1497 
Q 3034 2003 2786 2293 
Q 2538 2584 2113 2584 
z
M 3366 4563 
L 3366 3988 
Q 3128 4100 2886 4159 
Q 2644 4219 2406 4219 
Q 1781 4219 1451 3797 
Q 1122 3375 1075 2522 
Q 1259 2794 1537 2939 
Q 1816 3084 2150 3084 
Q 2853 3084 3261 2657 
Q 3669 2231 3669 1497 
Q 3669 778 3244 343 
Q 2819 -91 2113 -91 
Q 1303 -91 875 529 
Q 447 1150 447 2328 
Q 447 3434 972 4092 
Q 1497 4750 2381 4750 
Q 2619 4750 2861 4703 
Q 3103 4656 3366 4563 
z
" id="DejaVuSans-36" transform="scale(0.015625)"/>
        <path d="M 2034 4250 
Q 1547 4250 1301 3770 
Q 1056 3291 1056 2328 
Q 1056 1369 1301 889 
Q 1547 409 2034 409 
Q 2525 409 2770 889 
Q 3016 1369 3016 2328 
Q 3016 3291 2770 3770 
Q 2525 4250 2034 4250 
z
M 2034 4750 
Q 2819 4750 3233 4129 
Q 3647 3509 3647 2328 
Q 3647 1150 3233 529 
Q 2819 -91 2034 -91 
Q 1250 -91 836 529 
Q 422 1150 422 2328 
Q 422 3509 836 4129 
Q 1250 4750 2034 4750 
z
" id="DejaVuSans-30" transform="scale(0.015625)"/>
       </defs>
       <use xlink:href="#DejaVuSans-36"/>
       <use x="63.623047" xlink:href="#DejaVuSans-30"/>
      </g>
     </g>
    </g>
    <g id="ytick_2">
     <g id="line2d_19">
      <path clip-path="url(#p7c4a8ed237)" d="M 42.765865 254.485845 
L 806.38851 254.485845 
" style="fill:none;stroke:#b0b0b0;stroke-linecap:square;stroke-width:0.8;"/>
     </g>
     <g id="line2d_20">
      <g>
       <use style="stroke:#000000;stroke-width:0.8;" x="42.765865" xlink:href="#m167d3757b9" y="254.485845"/>
      </g>
     </g>
     <g id="text_11">
      <!-- 70 -->
      <g transform="translate(23.040865 258.285064)scale(0.1 -0.1)">
       <defs>
        <path d="M 525 4666 
L 3525 4666 
L 3525 4397 
L 1831 0 
L 1172 0 
L 2766 4134 
L 525 4134 
L 525 4666 
z
" id="DejaVuSans-37" transform="scale(0.015625)"/>
       </defs>
       <use xlink:href="#DejaVuSans-37"/>
       <use x="63.623047" xlink:href="#DejaVuSans-30"/>
      </g>
     </g>
    </g>
    <g id="ytick_3">
     <g id="line2d_21">
      <path clip-path="url(#p7c4a8ed237)" d="M 42.765865 213.204781 
L 806.38851 213.204781 
" style="fill:none;stroke:#b0b0b0;stroke-linecap:square;stroke-width:0.8;"/>
     </g>
     <g id="line2d_22">
      <g>
       <use style="stroke:#000000;stroke-width:0.8;" x="42.765865" xlink:href="#m167d3757b9" y="213.204781"/>
      </g>
     </g>
     <g id="text_12">
      <!-- 80 -->
      <g transform="translate(23.040865 217.004)scale(0.1 -0.1)">
       <defs>
        <path d="M 2034 2216 
Q 1584 2216 1326 1975 
Q 1069 1734 1069 1313 
Q 1069 891 1326 650 
Q 1584 409 2034 409 
Q 2484 409 2743 651 
Q 3003 894 3003 1313 
Q 3003 1734 2745 1975 
Q 2488 2216 2034 2216 
z
M 1403 2484 
Q 997 2584 770 2862 
Q 544 3141 544 3541 
Q 544 4100 942 4425 
Q 1341 4750 2034 4750 
Q 2731 4750 3128 4425 
Q 3525 4100 3525 3541 
Q 3525 3141 3298 2862 
Q 3072 2584 2669 2484 
Q 3125 2378 3379 2068 
Q 3634 1759 3634 1313 
Q 3634 634 3220 271 
Q 2806 -91 2034 -91 
Q 1263 -91 848 271 
Q 434 634 434 1313 
Q 434 1759 690 2068 
Q 947 2378 1403 2484 
z
M 1172 3481 
Q 1172 3119 1398 2916 
Q 1625 2713 2034 2713 
Q 2441 2713 2670 2916 
Q 2900 3119 2900 3481 
Q 2900 3844 2670 4047 
Q 2441 4250 2034 4250 
Q 1625 4250 1398 4047 
Q 1172 3844 1172 3481 
z
" id="DejaVuSans-38" transform="scale(0.015625)"/>
       </defs>
       <use xlink:href="#DejaVuSans-38"/>
       <use x="63.623047" xlink:href="#DejaVuSans-30"/>
      </g>
     </g>
    </g>
    <g id="ytick_4">
     <g id="line2d_23">
      <path clip-path="url(#p7c4a8ed237)" d="M 42.765865 171.923717 
L 806.38851 171.923717 
" style="fill:none;stroke:#b0b0b0;stroke-linecap:square;stroke-width:0.8;"/>
     </g>
     <g id="line2d_24">
      <g>
       <use style="stroke:#000000;stroke-width:0.8;" x="42.765865" xlink:href="#m167d3757b9" y="171.923717"/>
      </g>
     </g>
     <g id="text_13">
      <!-- 90 -->
      <g transform="translate(23.040865 175.722936)scale(0.1 -0.1)">
       <defs>
        <path d="M 703 97 
L 703 672 
Q 941 559 1184 500 
Q 1428 441 1663 441 
Q 2288 441 2617 861 
Q 2947 1281 2994 2138 
Q 2813 1869 2534 1725 
Q 2256 1581 1919 1581 
Q 1219 1581 811 2004 
Q 403 2428 403 3163 
Q 403 3881 828 4315 
Q 1253 4750 1959 4750 
Q 2769 4750 3195 4129 
Q 3622 3509 3622 2328 
Q 3622 1225 3098 567 
Q 2575 -91 1691 -91 
Q 1453 -91 1209 -44 
Q 966 3 703 97 
z
M 1959 2075 
Q 2384 2075 2632 2365 
Q 2881 2656 2881 3163 
Q 2881 3666 2632 3958 
Q 2384 4250 1959 4250 
Q 1534 4250 1286 3958 
Q 1038 3666 1038 3163 
Q 1038 2656 1286 2365 
Q 1534 2075 1959 2075 
z
" id="DejaVuSans-39" transform="scale(0.015625)"/>
       </defs>
       <use xlink:href="#DejaVuSans-39"/>
       <use x="63.623047" xlink:href="#DejaVuSans-30"/>
      </g>
     </g>
    </g>
    <g id="ytick_5">
     <g id="line2d_25">
      <path clip-path="url(#p7c4a8ed237)" d="M 42.765865 130.642652 
L 806.38851 130.642652 
" style="fill:none;stroke:#b0b0b0;stroke-linecap:square;stroke-width:0.8;"/>
     </g>
     <g id="line2d_26">
      <g>
       <use style="stroke:#000000;stroke-width:0.8;" x="42.765865" xlink:href="#m167d3757b9" y="130.642652"/>
      </g>
     </g>
     <g id="text_14">
      <!-- 100 -->
      <g transform="translate(16.678365 134.441871)scale(0.1 -0.1)">
       <defs>
        <path d="M 794 531 
L 1825 531 
L 1825 4091 
L 703 3866 
L 703 4441 
L 1819 4666 
L 2450 4666 
L 2450 531 
L 3481 531 
L 3481 0 
L 794 0 
L 794 531 
z
" id="DejaVuSans-31" transform="scale(0.015625)"/>
       </defs>
       <use xlink:href="#DejaVuSans-31"/>
       <use x="63.623047" xlink:href="#DejaVuSans-30"/>
       <use x="127.246094" xlink:href="#DejaVuSans-30"/>
      </g>
     </g>
    </g>
    <g id="ytick_6">
     <g id="line2d_27">
      <path clip-path="url(#p7c4a8ed237)" d="M 42.765865 89.361588 
L 806.38851 89.361588 
" style="fill:none;stroke:#b0b0b0;stroke-linecap:square;stroke-width:0.8;"/>
     </g>
     <g id="line2d_28">
      <g>
       <use style="stroke:#000000;stroke-width:0.8;" x="42.765865" xlink:href="#m167d3757b9" y="89.361588"/>
      </g>
     </g>
     <g id="text_15">
      <!-- 110 -->
      <g transform="translate(16.678365 93.160807)scale(0.1 -0.1)">
       <use xlink:href="#DejaVuSans-31"/>
       <use x="63.623047" xlink:href="#DejaVuSans-31"/>
       <use x="127.246094" xlink:href="#DejaVuSans-30"/>
      </g>
     </g>
    </g>
    <g id="ytick_7">
     <g id="line2d_29">
      <path clip-path="url(#p7c4a8ed237)" d="M 42.765865 48.080524 
L 806.38851 48.080524 
" style="fill:none;stroke:#b0b0b0;stroke-linecap:square;stroke-width:0.8;"/>
     </g>
     <g id="line2d_30">
      <g>
       <use style="stroke:#000000;stroke-width:0.8;" x="42.765865" xlink:href="#m167d3757b9" y="48.080524"/>
      </g>
     </g>
     <g id="text_16">
      <!-- 120 -->
      <g transform="translate(16.678365 51.879743)scale(0.1 -0.1)">
       <defs>
        <path d="M 1228 531 
L 3431 531 
L 3431 0 
L 469 0 
L 469 531 
Q 828 903 1448 1529 
Q 2069 2156 2228 2338 
Q 2531 2678 2651 2914 
Q 2772 3150 2772 3378 
Q 2772 3750 2511 3984 
Q 2250 4219 1831 4219 
Q 1534 4219 1204 4116 
Q 875 4013 500 3803 
L 500 4441 
Q 881 4594 1212 4672 
Q 1544 4750 1819 4750 
Q 2544 4750 2975 4387 
Q 3406 4025 3406 3419 
Q 3406 3131 3298 2873 
Q 3191 2616 2906 2266 
Q 2828 2175 2409 1742 
Q 1991 1309 1228 531 
z
" id="DejaVuSans-32" transform="scale(0.015625)"/>
       </defs>
       <use xlink:href="#DejaVuSans-31"/>
       <use x="63.623047" xlink:href="#DejaVuSans-32"/>
       <use x="127.246094" xlink:href="#DejaVuSans-30"/>
      </g>
     </g>
    </g>
    <g id="ytick_8">
     <g id="line2d_31">
      <path clip-path="url(#p7c4a8ed237)" d="M 42.765865 6.799459 
L 806.38851 6.799459 
" style="fill:none;stroke:#b0b0b0;stroke-linecap:square;stroke-width:0.8;"/>
     </g>
     <g id="line2d_32">
      <g>
       <use style="stroke:#000000;stroke-width:0.8;" x="42.765865" xlink:href="#m167d3757b9" y="6.799459"/>
      </g>
     </g>
     <g id="text_17">
      <!-- 130 -->
      <g transform="translate(16.678365 10.598678)scale(0.1 -0.1)">
       <defs>
        <path d="M 2597 2516 
Q 3050 2419 3304 2112 
Q 3559 1806 3559 1356 
Q 3559 666 3084 287 
Q 2609 -91 1734 -91 
Q 1441 -91 1130 -33 
Q 819 25 488 141 
L 488 750 
Q 750 597 1062 519 
Q 1375 441 1716 441 
Q 2309 441 2620 675 
Q 2931 909 2931 1356 
Q 2931 1769 2642 2001 
Q 2353 2234 1838 2234 
L 1294 2234 
L 1294 2753 
L 1863 2753 
Q 2328 2753 2575 2939 
Q 2822 3125 2822 3475 
Q 2822 3834 2567 4026 
Q 2313 4219 1838 4219 
Q 1578 4219 1281 4162 
Q 984 4106 628 3988 
L 628 4550 
Q 988 4650 1302 4700 
Q 1616 4750 1894 4750 
Q 2613 4750 3031 4423 
Q 3450 4097 3450 3541 
Q 3450 3153 3228 2886 
Q 3006 2619 2597 2516 
z
" id="DejaVuSans-33" transform="scale(0.015625)"/>
       </defs>
       <use xlink:href="#DejaVuSans-31"/>
       <use x="63.623047" xlink:href="#DejaVuSans-33"/>
       <use x="127.246094" xlink:href="#DejaVuSans-30"/>
      </g>
     </g>
    </g>
    <g id="text_18">
     <!-- N2EX day-ahead auction electricity price (GB/MWh) -->
     <g transform="translate(10.598678 295.576133)rotate(-90)scale(0.1 -0.1)">
      <defs>
       <path d="M 628 4666 
L 1478 4666 
L 3547 763 
L 3547 4666 
L 4159 4666 
L 4159 0 
L 3309 0 
L 1241 3903 
L 1241 0 
L 628 0 
L 628 4666 
z
" id="DejaVuSans-4e" transform="scale(0.015625)"/>
       <path d="M 628 4666 
L 3578 4666 
L 3578 4134 
L 1259 4134 
L 1259 2753 
L 3481 2753 
L 3481 2222 
L 1259 2222 
L 1259 531 
L 3634 531 
L 3634 0 
L 628 0 
L 628 4666 
z
" id="DejaVuSans-45" transform="scale(0.015625)"/>
       <path d="M 403 4666 
L 1081 4666 
L 2241 2931 
L 3406 4666 
L 4084 4666 
L 2584 2425 
L 4184 0 
L 3506 0 
L 2194 1984 
L 872 0 
L 191 0 
L 1856 2491 
L 403 4666 
z
" id="DejaVuSans-58" transform="scale(0.015625)"/>
       <path d="M 313 2009 
L 1997 2009 
L 1997 1497 
L 313 1497 
L 313 2009 
z
" id="DejaVuSans-2d" transform="scale(0.015625)"/>
       <path d="M 3122 3366 
L 3122 2828 
Q 2878 2963 2633 3030 
Q 2388 3097 2138 3097 
Q 1578 3097 1268 2742 
Q 959 2388 959 1747 
Q 959 1106 1268 751 
Q 1578 397 2138 397 
Q 2388 397 2633 464 
Q 2878 531 3122 666 
L 3122 134 
Q 2881 22 2623 -34 
Q 2366 -91 2075 -91 
Q 1284 -91 818 406 
Q 353 903 353 1747 
Q 353 2603 823 3093 
Q 1294 3584 2113 3584 
Q 2378 3584 2631 3529 
Q 2884 3475 3122 3366 
z
" id="DejaVuSans-63" transform="scale(0.015625)"/>
       <path d="M 603 4863 
L 1178 4863 
L 1178 0 
L 603 0 
L 603 4863 
z
" id="DejaVuSans-6c" transform="scale(0.015625)"/>
       <path d="M 1159 525 
L 1159 -1331 
L 581 -1331 
L 581 3500 
L 1159 3500 
L 1159 2969 
Q 1341 3281 1617 3432 
Q 1894 3584 2278 3584 
Q 2916 3584 3314 3078 
Q 3713 2572 3713 1747 
Q 3713 922 3314 415 
Q 2916 -91 2278 -91 
Q 1894 -91 1617 61 
Q 1341 213 1159 525 
z
M 3116 1747 
Q 3116 2381 2855 2742 
Q 2594 3103 2138 3103 
Q 1681 3103 1420 2742 
Q 1159 2381 1159 1747 
Q 1159 1113 1420 752 
Q 1681 391 2138 391 
Q 2594 391 2855 752 
Q 3116 1113 3116 1747 
z
" id="DejaVuSans-70" transform="scale(0.015625)"/>
       <path d="M 1984 4856 
Q 1566 4138 1362 3434 
Q 1159 2731 1159 2009 
Q 1159 1288 1364 580 
Q 1569 -128 1984 -844 
L 1484 -844 
Q 1016 -109 783 600 
Q 550 1309 550 2009 
Q 550 2706 781 3412 
Q 1013 4119 1484 4856 
L 1984 4856 
z
" id="DejaVuSans-28" transform="scale(0.015625)"/>
       <path d="M 3809 666 
L 3809 1919 
L 2778 1919 
L 2778 2438 
L 4434 2438 
L 4434 434 
Q 4069 175 3628 42 
Q 3188 -91 2688 -91 
Q 1594 -91 976 548 
Q 359 1188 359 2328 
Q 359 3472 976 4111 
Q 1594 4750 2688 4750 
Q 3144 4750 3555 4637 
Q 3966 4525 4313 4306 
L 4313 3634 
Q 3963 3931 3569 4081 
Q 3175 4231 2741 4231 
Q 1884 4231 1454 3753 
Q 1025 3275 1025 2328 
Q 1025 1384 1454 906 
Q 1884 428 2741 428 
Q 3075 428 3337 486 
Q 3600 544 3809 666 
z
" id="DejaVuSans-47" transform="scale(0.015625)"/>
       <path d="M 1259 2228 
L 1259 519 
L 2272 519 
Q 2781 519 3026 730 
Q 3272 941 3272 1375 
Q 3272 1813 3026 2020 
Q 2781 2228 2272 2228 
L 1259 2228 
z
M 1259 4147 
L 1259 2741 
L 2194 2741 
Q 2656 2741 2882 2914 
Q 3109 3088 3109 3444 
Q 3109 3797 2882 3972 
Q 2656 4147 2194 4147 
L 1259 4147 
z
M 628 4666 
L 2241 4666 
Q 2963 4666 3353 4366 
Q 3744 4066 3744 3513 
Q 3744 3084 3544 2831 
Q 3344 2578 2956 2516 
Q 3422 2416 3680 2098 
Q 3938 1781 3938 1306 
Q 3938 681 3513 340 
Q 3088 0 2303 0 
L 628 0 
L 628 4666 
z
" id="DejaVuSans-42" transform="scale(0.015625)"/>
       <path d="M 1625 4666 
L 2156 4666 
L 531 -594 
L 0 -594 
L 1625 4666 
z
" id="DejaVuSans-2f" transform="scale(0.015625)"/>
       <path d="M 513 4856 
L 1013 4856 
Q 1481 4119 1714 3412 
Q 1947 2706 1947 2009 
Q 1947 1309 1714 600 
Q 1481 -109 1013 -844 
L 513 -844 
Q 928 -128 1133 580 
Q 1338 1288 1338 2009 
Q 1338 2731 1133 3434 
Q 928 4138 513 4856 
z
" id="DejaVuSans-29" transform="scale(0.015625)"/>
      </defs>
      <use xlink:href="#DejaVuSans-4e"/>
      <use x="74.804688" xlink:href="#DejaVuSans-32"/>
      <use x="138.427734" xlink:href="#DejaVuSans-45"/>
      <use x="201.611328" xlink:href="#DejaVuSans-58"/>
      <use x="270.117188" xlink:href="#DejaVuSans-20"/>
      <use x="301.904297" xlink:href="#DejaVuSans-64"/>
      <use x="365.380859" xlink:href="#DejaVuSans-61"/>
      <use x="426.660156" xlink:href="#DejaVuSans-79"/>
      <use x="484.089844" xlink:href="#DejaVuSans-2d"/>
      <use x="520.173828" xlink:href="#DejaVuSans-61"/>
      <use x="581.453125" xlink:href="#DejaVuSans-68"/>
      <use x="644.832031" xlink:href="#DejaVuSans-65"/>
      <use x="706.355469" xlink:href="#DejaVuSans-61"/>
      <use x="767.634766" xlink:href="#DejaVuSans-64"/>
      <use x="831.111328" xlink:href="#DejaVuSans-20"/>
      <use x="862.898438" xlink:href="#DejaVuSans-61"/>
      <use x="924.177734" xlink:href="#DejaVuSans-75"/>
      <use x="987.556641" xlink:href="#DejaVuSans-63"/>
      <use x="1042.537109" xlink:href="#DejaVuSans-74"/>
      <use x="1081.746094" xlink:href="#DejaVuSans-69"/>
      <use x="1109.529297" xlink:href="#DejaVuSans-6f"/>
      <use x="1170.710938" xlink:href="#DejaVuSans-6e"/>
      <use x="1234.089844" xlink:href="#DejaVuSans-20"/>
      <use x="1265.876953" xlink:href="#DejaVuSans-65"/>
      <use x="1327.400391" xlink:href="#DejaVuSans-6c"/>
      <use x="1355.183594" xlink:href="#DejaVuSans-65"/>
      <use x="1416.707031" xlink:href="#DejaVuSans-63"/>
      <use x="1471.6875" xlink:href="#DejaVuSans-74"/>
      <use x="1510.896484" xlink:href="#DejaVuSans-72"/>
      <use x="1552.009766" xlink:href="#DejaVuSans-69"/>
      <use x="1579.792969" xlink:href="#DejaVuSans-63"/>
      <use x="1634.773438" xlink:href="#DejaVuSans-69"/>
      <use x="1662.556641" xlink:href="#DejaVuSans-74"/>
      <use x="1701.765625" xlink:href="#DejaVuSans-79"/>
      <use x="1760.945312" xlink:href="#DejaVuSans-20"/>
      <use x="1792.732422" xlink:href="#DejaVuSans-70"/>
      <use x="1856.208984" xlink:href="#DejaVuSans-72"/>
      <use x="1897.322266" xlink:href="#DejaVuSans-69"/>
      <use x="1925.105469" xlink:href="#DejaVuSans-63"/>
      <use x="1980.085938" xlink:href="#DejaVuSans-65"/>
      <use x="2041.609375" xlink:href="#DejaVuSans-20"/>
      <use x="2073.396484" xlink:href="#DejaVuSans-28"/>
      <use x="2112.410156" xlink:href="#DejaVuSans-47"/>
      <use x="2189.900391" xlink:href="#DejaVuSans-42"/>
      <use x="2258.503906" xlink:href="#DejaVuSans-2f"/>
      <use x="2292.195312" xlink:href="#DejaVuSans-4d"/>
      <use x="2378.474609" xlink:href="#DejaVuSans-57"/>
      <use x="2477.351562" xlink:href="#DejaVuSans-68"/>
      <use x="2540.730469" xlink:href="#DejaVuSans-29"/>
     </g>
    </g>
   </g>
   <g id="line2d_33">
    <path clip-path="url(#p7c4a8ed237)" d="M 42.765865 212.585565 
L 51.856611 217.002639 
L 56.401984 218.034666 
L 60.947357 218.447476 
L 65.492729 212.874533 
L 70.038102 162.387791 
L 74.583475 163.997752 
L 79.128848 45.23213 
L 83.674221 32.558844 
L 88.219594 39.865592 
L 92.764967 33.17806 
L 97.31034 40.443527 
L 101.855713 94.10891 
L 106.401085 186.206965 
L 110.946458 176.671039 
L 115.491831 54.479089 
L 120.037204 27.481273 
L 124.582577 21.082708 
L 129.12795 42.920391 
L 133.673323 123.335904 
L 138.218696 164.616968 
L 142.764069 196.362107 
L 147.309441 134.605635 
L 151.854814 202.884515 
L 156.400187 207.384151 
L 160.94556 216.961358 
L 165.490933 217.291606 
L 170.036306 242.679461 
L 179.127052 173.285992 
L 183.672424 158.920181 
L 188.217797 63.271955 
L 192.76317 58.8136 
L 197.308543 95.718872 
L 201.853916 118.836268 
L 206.399289 147.320202 
L 210.944662 204.866006 
L 215.490035 207.879524 
L 220.035408 207.838243 
L 224.58078 192.564249 
L 229.126153 130.807777 
L 233.671526 97.948049 
L 238.216899 130.105999 
L 242.762272 177.08385 
L 247.307645 179.601995 
L 251.853018 184.720847 
L 256.398391 151.654714 
L 260.943764 215.392678 
L 265.489136 225.630381 
L 270.034509 231.698698 
L 274.579882 241.729997 
L 281.397942 241.791918 
L 283.670628 241.771278 
L 288.216001 215.392678 
L 292.761374 204.040385 
L 297.306747 110.043401 
L 301.85212 110.332369 
L 306.397492 184.390598 
L 313.215552 181.624767 
L 315.488238 180.634021 
L 320.033611 223.64889 
L 324.578984 235.785523 
L 329.124357 235.537837 
L 333.66973 206.682373 
L 338.215103 140.343703 
L 342.760476 115.698907 
L 347.305848 124.904584 
L 351.851221 159.580679 
L 356.396594 196.279545 
L 360.941967 208.994113 
L 365.48734 159.745803 
L 370.032713 209.448204 
L 374.578086 229.386958 
L 381.396145 229.572723 
L 383.668832 229.593364 
L 388.214204 233.226097 
L 392.759577 231.616136 
L 397.30495 190.66532 
L 401.850323 204.577039 
L 406.395696 181.005551 
L 410.941069 138.568617 
L 415.486442 154.090297 
L 420.031815 160.117332 
L 424.577187 136.793531 
L 429.12256 215.846769 
L 433.667933 222.823269 
L 438.213306 222.823269 
L 442.758679 157.392782 
L 447.304052 130.766496 
L 451.849425 94.191473 
L 456.394798 125.317395 
L 460.940171 167.341519 
L 465.485543 164.369282 
L 470.030916 198.219755 
L 474.576289 176.258229 
L 479.121662 229.84105 
L 483.667035 237.932139 
L 488.212408 237.932139 
L 492.757781 240.037473 
L 497.303154 248.293686 
L 501.848527 250.110053 
L 506.393899 192.811935 
L 510.939272 176.216947 
L 515.484645 114.749443 
L 520.030018 122.38644 
L 524.575391 189.220483 
L 529.120764 222.823269 
L 533.666137 223.112237 
L 538.21151 237.643171 
L 542.756883 237.767014 
L 547.302255 237.60189 
L 551.847628 233.762751 
L 556.393001 186.041841 
L 560.938374 150.292439 
L 565.483747 145.091025 
L 570.02912 171.098095 
L 574.574493 152.64546 
L 579.119866 174.400581 
L 583.665239 134.564354 
L 588.210611 171.841155 
L 592.755984 217.704417 
L 597.301357 229.675926 
L 601.84673 231.987665 
L 606.392103 254.444564 
L 610.937476 275.332783 
L 615.482849 229.717207 
L 620.028222 200.614056 
L 624.573595 177.001288 
L 629.118967 109.795715 
L 633.66434 144.678214 
L 638.209713 170.396317 
L 642.755086 180.303773 
L 647.300459 225.96063 
L 651.845832 254.485845 
L 660.936578 254.155597 
L 665.481951 206.352124 
L 670.027323 129.239096 
L 674.572696 114.543037 
L 679.118069 121.024164 
L 683.663442 125.482519 
L 688.208815 137.825558 
L 692.754188 90.434896 
L 697.299561 171.964998 
L 701.844934 203.833979 
L 706.390306 220.841778 
L 710.935679 223.359923 
L 720.026425 242.26665 
L 724.571798 254.196878 
L 729.117171 285.281519 
L 733.662544 223.483766 
L 738.207917 153.347238 
L 742.75329 161.603451 
L 747.298662 180.303773 
L 751.844035 174.483143 
L 756.389408 206.104438 
L 760.934781 213.411186 
L 765.480154 276.77762 
L 770.025527 223.277361 
L 774.5709 186.41337 
L 779.116273 133.284641 
L 783.661646 68.721056 
L 788.207018 75.408588 
L 792.752391 78.876198 
L 797.297764 97.989331 
L 801.843137 130.642652 
L 804.115824 174.421221 
L 804.115824 174.421221 
" style="fill:none;stroke:#d62728;stroke-dasharray:9.25,4;stroke-dashoffset:0;stroke-width:2.5;"/>
   </g>
   <g id="line2d_34">
    <path clip-path="url(#p7c4a8ed237)" d="M 42.765865 271.893011 
L 45.038551 231.291828 
L 47.311238 204.830557 
L 49.583924 190.892654 
L 51.856611 186.359995 
L 54.129297 188.028094 
L 56.401984 192.371972 
L 58.67467 196.285472 
L 60.947357 198.721134 
L 63.220043 199.300641 
L 65.492729 198.432137 
L 70.038102 194.784486 
L 72.310789 193.382992 
L 74.583475 190.250378 
L 76.856162 182.707778 
L 79.128848 171.267362 
L 81.401535 157.154348 
L 85.946907 127.35943 
L 88.219594 115.473675 
L 90.49228 108.538046 
L 92.764967 107.172677 
L 95.037653 111.995877 
L 97.31034 123.809193 
L 99.583026 143.139094 
L 101.855713 164.69531 
L 104.128399 182.170001 
L 106.401085 193.267027 
L 108.673772 196.333155 
L 110.946458 190.467126 
L 113.219145 174.663148 
L 115.491831 150.081463 
L 120.037204 87.522346 
L 122.309891 65.010762 
L 124.582577 53.45898 
L 126.855263 54.108595 
L 129.12795 65.9929 
L 131.400636 87.742118 
L 133.673323 112.853925 
L 135.946009 134.726666 
L 138.218696 151.804426 
L 140.491382 164.483412 
L 142.764069 176.502799 
L 145.036755 192.581729 
L 147.309441 218.140985 
L 149.582128 257.478874 
L 151.854814 287.13312 
L 154.127501 252.356503 
L 156.400187 228.539579 
L 158.672874 213.789674 
L 160.94556 205.898393 
L 163.218247 202.730946 
L 165.490933 202.223247 
L 167.763619 202.481065 
L 170.036306 202.040513 
L 172.308992 199.50243 
L 174.581679 193.733751 
L 176.854365 183.666011 
L 179.127052 170.831094 
L 181.399738 156.808155 
L 183.672424 139.555031 
L 188.217797 93.345574 
L 190.490484 75.452472 
L 192.76317 63.863337 
L 195.035857 58.29503 
L 197.308543 57.482208 
L 199.58123 60.520589 
L 201.853916 67.069335 
L 204.126602 77.447992 
L 206.399289 92.437889 
L 208.671975 112.733237 
L 210.944662 135.29748 
L 213.217348 155.960626 
L 215.490035 169.827224 
L 217.762721 171.813295 
L 220.035408 161.021739 
L 222.308094 137.69053 
L 224.58078 108.378492 
L 226.853467 80.559127 
L 229.126153 58.471276 
L 231.39884 45.440869 
L 233.671526 41.910285 
L 235.944213 48.040336 
L 238.216899 62.6499 
L 240.489586 84.527743 
L 242.762272 108.88216 
L 245.034958 130.930768 
L 247.307645 149.489484 
L 249.580331 164.761387 
L 251.853018 178.492336 
L 254.125704 193.3937 
L 256.398391 216.795048 
L 258.671077 255.5962 
L 260.943764 287.787931 
L 263.21645 254.016476 
L 265.489136 232.483944 
L 267.761823 220.51372 
L 270.034509 215.137059 
L 272.307196 213.65182 
L 274.579882 214.272775 
L 276.852569 215.443379 
L 279.125255 214.572764 
L 281.397942 208.972426 
L 283.670628 198.678364 
L 285.943314 184.192355 
L 288.216001 167.017433 
L 290.488687 148.497393 
L 292.761374 127.916575 
L 295.03406 104.622215 
L 297.306747 83.055858 
L 299.579433 68.759795 
L 301.85212 63.164401 
L 304.124806 66.901655 
L 306.397492 77.213166 
L 308.670179 91.237616 
L 310.942865 107.257524 
L 313.215552 124.316072 
L 315.488238 142.342271 
L 317.760925 161.271746 
L 320.033611 178.647354 
L 322.306298 191.331631 
L 324.578984 197.999427 
L 326.85167 197.335136 
L 329.124357 188.937574 
L 331.397043 172.451572 
L 333.66973 150.787958 
L 335.942416 127.399869 
L 338.215103 106.097628 
L 340.487789 90.687841 
L 342.760476 83.06896 
L 345.033162 84.76427 
L 347.305848 94.08054 
L 349.578535 108.917875 
L 351.851221 125.38098 
L 354.123908 139.962324 
L 356.396594 152.209892 
L 360.941967 174.200361 
L 363.214654 188.839876 
L 365.48734 213.224717 
L 367.760026 253.199182 
L 370.032713 288.99844 
L 372.305399 255.899496 
L 374.578086 236.088132 
L 376.850772 226.384033 
L 379.123459 223.579093 
L 381.396145 224.90903 
L 383.668832 227.928545 
L 385.941518 230.559791 
L 388.214204 231.333685 
L 390.486891 228.957234 
L 392.759577 223.154635 
L 395.032264 213.73503 
L 397.30495 201.401355 
L 399.577637 186.814908 
L 401.850323 169.797115 
L 404.12301 150.440632 
L 406.395696 133.153871 
L 408.668382 123.179482 
L 410.941069 121.707534 
L 413.213755 128.924351 
L 417.759128 152.044481 
L 422.304501 173.934795 
L 424.577187 186.222142 
L 429.12256 214.546403 
L 431.395247 224.047202 
L 433.667933 228.517501 
L 435.94062 227.486986 
L 438.213306 220.209416 
L 440.485993 205.651725 
L 442.758679 185.163785 
L 447.304052 136.738689 
L 449.576738 118.431177 
L 451.849425 107.479564 
L 454.122111 105.011556 
L 456.394798 109.739767 
L 458.667484 120.224563 
L 465.485543 160.483238 
L 470.030916 182.771429 
L 472.303603 196.111179 
L 474.576289 218.521696 
L 476.848976 256.36433 
L 479.121662 289.181772 
L 481.394349 256.107174 
L 483.667035 237.005958 
L 485.939721 227.836895 
L 488.212408 225.10622 
L 490.485094 226.02288 
L 495.030467 230.701078 
L 497.303154 231.870895 
L 499.57584 231.165376 
L 501.848527 227.882626 
L 504.121213 221.396272 
L 508.666586 205.369876 
L 510.939272 196.311203 
L 513.211959 184.502675 
L 517.757332 158.005908 
L 520.030018 147.62851 
L 522.302705 142.378932 
L 524.575391 141.245995 
L 526.848077 142.876174 
L 529.120764 146.811027 
L 531.39345 153.283807 
L 533.666137 164.161471 
L 535.938823 181.186729 
L 538.21151 199.658644 
L 540.484196 213.685866 
L 542.756883 221.4409 
L 545.029569 221.703096 
L 547.302255 213.781202 
L 549.574942 197.051555 
L 551.847628 174.931296 
L 554.120315 151.443998 
L 556.393001 130.095207 
L 558.665688 114.188555 
L 560.938374 105.521711 
L 563.211061 105.624007 
L 565.483747 112.807502 
L 567.756433 125.055637 
L 570.02912 138.899684 
L 572.301806 151.358143 
L 579.119866 184.878252 
L 581.392552 199.546208 
L 583.665239 222.895085 
L 585.937925 260.244761 
L 588.210611 292.042994 
L 590.483298 258.775647 
L 592.755984 238.963149 
L 595.028671 229.37725 
L 597.301357 226.814852 
L 599.574044 228.609403 
L 604.119417 236.376185 
L 606.392103 238.824067 
L 608.664789 238.292527 
L 610.937476 233.745474 
L 613.210162 224.351979 
L 617.755535 199.948335 
L 620.028222 187.018744 
L 622.300908 172.818677 
L 624.573595 159.457889 
L 626.846281 149.70787 
L 629.118967 144.923598 
L 631.391654 146.204812 
L 633.66434 151.846881 
L 635.937027 159.969681 
L 640.4824 179.067559 
L 642.755086 190.195482 
L 647.300459 217.026883 
L 649.573145 227.301418 
L 651.845832 233.508695 
L 654.118518 234.855514 
L 656.391205 230.860726 
L 658.663891 220.822465 
L 660.936578 205.371577 
L 665.481951 164.633958 
L 667.754637 147.15596 
L 670.027323 135.117833 
L 672.30001 130.19744 
L 674.572696 131.549644 
L 676.845383 137.95704 
L 679.118069 145.791914 
L 681.390756 151.79019 
L 683.663442 156.823966 
L 685.936128 163.143302 
L 688.208815 172.267894 
L 690.481501 186.23222 
L 692.754188 210.881115 
L 695.026874 251.470015 
L 697.299561 287.293618 
L 699.572247 253.651859 
L 701.844934 235.289703 
L 704.11762 227.65054 
L 706.390306 227.091536 
L 708.662993 230.798177 
L 710.935679 236.893174 
L 713.208366 243.980232 
L 715.481052 250.277679 
L 717.753739 253.914307 
L 720.026425 253.274077 
L 722.299112 246.841454 
L 724.571798 236.212883 
L 726.844484 223.252175 
L 729.117171 208.193777 
L 733.662544 173.644979 
L 735.93523 158.713222 
L 738.207917 148.568509 
L 740.480603 145.504932 
L 742.75329 147.978797 
L 745.025976 154.118045 
L 747.298662 162.850147 
L 749.571349 173.738519 
L 751.844035 187.059152 
L 756.389408 219.757306 
L 758.662095 234.049999 
L 760.934781 244.360848 
L 763.207468 249.040904 
L 765.480154 247.86548 
L 767.75284 240.484764 
L 770.025527 226.972012 
L 772.298213 207.396387 
L 776.843586 162.678688 
L 779.116273 144.339681 
L 781.388959 132.816056 
L 783.661646 128.008856 
L 785.934332 129.281756 
L 790.479705 137.966237 
L 792.752391 142.326587 
L 795.025078 147.711405 
L 797.297764 156.235325 
L 799.570451 170.9315 
L 801.843137 198.155894 
L 804.115824 243.301578 
L 804.115824 243.301578 
" style="fill:none;stroke:#1f77b4;stroke-dasharray:2.25,3.7125;stroke-dashoffset:0;stroke-width:2.25;"/>
   </g>
   <g id="line2d_35">
    <path clip-path="url(#p7c4a8ed237)" d="M 42.765865 258.887895 
L 45.038551 220.374954 
L 47.311238 196.897702 
L 49.583924 194.061739 
L 51.856611 207.539123 
L 54.129297 227.353322 
L 56.401984 243.590387 
L 58.67467 250.266813 
L 60.947357 246.552204 
L 63.220043 235.627046 
L 65.492729 222.398221 
L 67.765416 211.27266 
L 70.038102 204.44235 
L 72.310789 201.634543 
L 74.583475 200.21683 
L 76.856162 196.489811 
L 79.128848 188.28651 
L 81.401535 176.240793 
L 83.674221 163.178135 
L 85.946907 152.161894 
L 88.219594 145.307584 
L 90.49228 143.517096 
L 92.764967 146.776383 
L 95.037653 154.600737 
L 97.31034 166.375881 
L 99.583026 181.463632 
L 101.855713 197.725169 
L 104.128399 211.988352 
L 106.401085 221.647633 
L 108.673772 224.588884 
L 110.946458 219.194397 
L 113.219145 204.77733 
L 115.491831 182.403883 
L 117.764518 155.62426 
L 120.037204 130.342883 
L 122.309891 112.793518 
L 124.582577 106.45497 
L 126.855263 110.950307 
L 129.12795 122.903524 
L 131.400636 137.867847 
L 133.673323 151.260445 
L 135.946009 160.452751 
L 138.218696 166.615683 
L 140.491382 174.064492 
L 142.764069 189.057758 
L 145.036755 217.033937 
L 147.309441 259.126406 
L 149.582128 309.593745 
L 151.854814 269.224727 
L 154.127501 226.325515 
L 156.400187 194.504968 
L 158.672874 181.994763 
L 160.94556 187.60962 
L 163.218247 203.573121 
L 165.490933 220.687856 
L 167.763619 232.322406 
L 170.036306 235.795418 
L 172.308992 231.690051 
L 174.581679 222.080909 
L 176.854365 209.377168 
L 179.127052 195.8864 
L 185.945111 156.833225 
L 188.217797 142.624088 
L 190.490484 130.273217 
L 192.76317 121.099241 
L 195.035857 115.495722 
L 197.308543 113.786554 
L 199.58123 116.148423 
L 201.853916 122.916248 
L 204.126602 134.24051 
L 206.399289 149.732877 
L 210.944662 188.200151 
L 213.217348 205.117948 
L 215.490035 215.409806 
L 217.762721 216.253272 
L 220.035408 207.033062 
L 222.308094 189.251578 
L 226.853467 145.46235 
L 229.126153 129.732385 
L 231.39884 122.520104 
L 233.671526 123.80409 
L 235.944213 131.447285 
L 240.489586 153.749869 
L 242.762272 163.224307 
L 245.034958 169.92152 
L 247.307645 175.521637 
L 249.580331 183.720403 
L 251.853018 198.899522 
L 254.125704 225.127888 
L 256.398391 264.30572 
L 258.671077 311.95215 
L 260.943764 281.211911 
L 263.21645 243.088263 
L 265.489136 214.367039 
L 267.761823 202.65583 
L 270.034509 206.862391 
L 274.579882 233.405549 
L 276.852569 241.502209 
L 279.125255 241.424605 
L 281.397942 233.469893 
L 283.670628 220.328939 
L 288.216001 190.933913 
L 290.488687 178.284689 
L 295.03406 155.881133 
L 297.306747 145.134866 
L 299.579433 136.74039 
L 301.85212 132.722642 
L 304.124806 133.918694 
L 306.397492 139.231893 
L 308.670179 146.671064 
L 310.942865 154.995054 
L 313.215552 164.040341 
L 315.488238 174.491437 
L 317.760925 186.860639 
L 320.033611 200.337865 
L 322.306298 212.63699 
L 324.578984 220.871881 
L 326.85167 222.680605 
L 329.124357 216.880966 
L 331.397043 203.68855 
L 333.66973 185.236822 
L 335.942416 165.424859 
L 338.215103 148.535061 
L 340.487789 137.912758 
L 342.760476 135.049426 
L 345.033162 139.177218 
L 347.305848 147.54845 
L 349.578535 156.960969 
L 351.851221 164.722018 
L 354.123908 169.766627 
L 356.396594 173.641137 
L 358.669281 180.325058 
L 360.941967 195.200093 
L 363.214654 222.549208 
L 365.48734 263.133635 
L 367.760026 311.595785 
L 370.032713 279.489484 
L 372.305399 242.857185 
L 374.578086 216.842984 
L 376.850772 208.375282 
L 379.123459 215.750298 
L 383.668832 247.068217 
L 385.941518 256.467382 
L 388.214204 257.454843 
L 390.486891 250.852336 
L 392.759577 239.120497 
L 397.30495 211.062274 
L 399.577637 197.837165 
L 404.12301 173.308928 
L 406.395696 163.586562 
L 408.668382 158.57351 
L 410.941069 159.06817 
L 413.213755 163.997571 
L 415.486442 170.801237 
L 417.759128 176.894345 
L 422.304501 186.37779 
L 424.577187 192.837625 
L 426.849874 202.211625 
L 431.395247 224.733162 
L 433.667933 232.772154 
L 435.94062 235.798914 
L 438.213306 232.443347 
L 440.485993 222.114892 
L 442.758679 205.637678 
L 445.031365 186.055785 
L 447.304052 168.106466 
L 449.576738 155.866456 
L 451.849425 150.70752 
L 454.122111 151.441478 
L 456.394798 155.375513 
L 458.667484 159.981713 
L 460.940171 164.000532 
L 463.212857 167.576783 
L 465.485543 172.359481 
L 467.75823 181.235388 
L 470.030916 197.70117 
L 472.303603 225.038537 
L 474.576289 264.607252 
L 476.848976 312.092996 
L 479.121662 280.207254 
L 481.394349 243.25273 
L 483.667035 217.223254 
L 485.939721 208.781409 
L 488.212408 215.621357 
L 492.757781 243.683455 
L 495.030467 251.520092 
L 497.303154 251.937337 
L 499.57584 246.344432 
L 501.848527 237.339363 
L 504.121213 227.460279 
L 506.393899 218.656305 
L 508.666586 211.673937 
L 510.939272 205.294005 
L 513.211959 197.429684 
L 515.484645 187.229382 
L 517.757332 175.888963 
L 520.030018 165.767083 
L 522.302705 158.857343 
L 524.575391 155.546782 
L 526.848077 155.095019 
L 529.120764 156.880153 
L 531.39345 161.154018 
L 533.666137 169.219749 
L 535.938823 181.891617 
L 540.484196 212.623983 
L 542.756883 223.353526 
L 545.029569 227.256223 
L 547.302255 223.155296 
L 549.574942 211.284282 
L 551.847628 193.714224 
L 554.120315 174.064429 
L 556.393001 156.256931 
L 558.665688 143.914185 
L 560.938374 139.181753 
L 563.211061 141.697255 
L 565.483747 148.910292 
L 567.756433 157.540161 
L 570.02912 164.733671 
L 572.301806 169.409034 
L 574.574493 173.327762 
L 576.847179 180.475793 
L 579.119866 195.789899 
L 581.392552 223.2466 
L 583.665239 263.556864 
L 585.937925 311.66964 
L 588.210611 278.374767 
L 590.483298 239.150827 
L 592.755984 210.905744 
L 595.028671 201.112955 
L 597.301357 207.933786 
L 601.84673 239.100026 
L 604.119417 248.74841 
L 606.392103 250.318181 
L 608.664789 244.831666 
L 610.937476 234.883324 
L 613.210162 223.214003 
L 615.482849 212.263176 
L 617.755535 203.556271 
L 622.300908 189.806078 
L 624.573595 181.765795 
L 626.846281 173.177216 
L 629.118967 165.462023 
L 631.391654 159.910786 
L 633.66434 156.703466 
L 635.937027 155.590623 
L 638.209713 156.762424 
L 640.4824 160.649406 
L 642.755086 168.097269 
L 645.027773 179.512016 
L 649.573145 208.039168 
L 651.845832 219.125108 
L 654.118518 224.825001 
L 656.391205 223.937568 
L 658.663891 216.195164 
L 660.936578 202.417445 
L 665.481951 166.012114 
L 667.754637 150.740779 
L 670.027323 141.767363 
L 672.30001 139.606683 
L 674.572696 142.585035 
L 679.118069 153.412432 
L 683.663442 161.274139 
L 685.936128 169.001426 
L 688.208815 185.364629 
L 690.481501 214.395574 
L 692.754188 257.328076 
L 695.026874 308.772325 
L 697.299561 279.584346 
L 699.572247 245.09909 
L 701.844934 221.82095 
L 704.11762 214.908186 
L 706.390306 221.367611 
L 710.935679 246.478758 
L 713.208366 254.471106 
L 715.481052 256.701232 
L 717.753739 253.584838 
L 720.026425 246.267206 
L 722.299112 236.019032 
L 729.117171 200.674514 
L 733.662544 175.964141 
L 735.93523 165.178065 
L 738.207917 158.292449 
L 740.480603 155.951303 
L 742.75329 156.782959 
L 745.025976 158.856083 
L 747.298662 161.17556 
L 749.571349 164.237122 
L 751.844035 169.672835 
L 754.116722 178.751445 
L 756.389408 191.210974 
L 758.662095 204.949702 
L 760.934781 217.067795 
L 763.207468 224.708753 
L 765.480154 225.7176 
L 767.75284 219.292535 
L 770.025527 205.959966 
L 772.298213 187.857517 
L 774.5709 168.409384 
L 776.843586 151.35978 
L 779.116273 139.70312 
L 781.388959 134.498391 
L 783.661646 134.639614 
L 785.934332 137.767378 
L 788.207018 141.318937 
L 792.752391 146.207269 
L 795.025078 152.918717 
L 797.297764 169.740802 
L 799.570451 201.454928 
L 801.843137 248.725041 
L 804.115824 304.915012 
L 804.115824 304.915012 
" style="fill:none;stroke:#2ca02c;stroke-dasharray:12.8,3.2,2,3.2;stroke-dashoffset:0;stroke-width:2;"/>
   </g>
   <g id="line2d_36">
    <path clip-path="url(#p7c4a8ed237)" d="M 42.765865 286.985629 
L 45.038551 240.892372 
L 47.311238 217.681631 
L 49.583924 211.292093 
L 51.856611 214.964845 
L 56.401984 231.752663 
L 58.67467 236.570477 
L 60.947357 237.144126 
L 63.220043 233.7359 
L 65.492729 227.901775 
L 67.765416 221.130171 
L 70.038102 215.442309 
L 74.583475 209.414741 
L 76.856162 201.883668 
L 79.128848 190.119044 
L 85.946907 148.049472 
L 88.219594 137.770086 
L 90.49228 132.125057 
L 92.764967 131.231482 
L 95.037653 135.464845 
L 97.31034 146.302321 
L 99.583026 166.157432 
L 101.855713 189.220776 
L 104.128399 207.256392 
L 106.401085 217.897529 
L 108.673772 220.048162 
L 110.946458 213.230764 
L 113.219145 195.787222 
L 115.491831 168.947318 
L 120.037204 99.846321 
L 122.309891 76.722412 
L 124.582577 67.303027 
L 126.855263 72.308772 
L 129.12795 89.321527 
L 131.400636 116.436539 
L 133.673323 145.222233 
L 135.946009 166.40958 
L 138.218696 177.825367 
L 140.491382 180.146797 
L 142.764069 178.390418 
L 145.036755 179.116251 
L 147.309441 191.559339 
L 149.582128 226.048486 
L 151.854814 292.063717 
L 154.127501 249.519343 
L 156.400187 227.064166 
L 158.672874 217.905151 
L 160.94556 216.177054 
L 163.218247 217.790793 
L 165.490933 220.066712 
L 167.763619 221.249316 
L 170.036306 220.489532 
L 172.308992 216.895013 
L 174.581679 209.484345 
L 176.854365 196.679568 
L 181.399738 165.438654 
L 183.672424 147.489932 
L 185.945111 122.329434 
L 188.217797 95.585621 
L 190.490484 76.434989 
L 192.76317 65.92758 
L 195.035857 62.852475 
L 197.308543 64.694804 
L 199.58123 69.667164 
L 201.853916 76.997741 
L 204.126602 87.150642 
L 206.399289 101.6678 
L 208.671975 122.836628 
L 210.944662 147.527789 
L 213.217348 170.71072 
L 215.490035 186.921456 
L 217.762721 189.874674 
L 220.035408 178.455235 
L 222.308094 152.123659 
L 224.58078 118.668019 
L 226.853467 87.550187 
L 229.126153 64.419601 
L 231.39884 53.518946 
L 233.671526 54.102548 
L 235.944213 65.179637 
L 238.216899 84.204416 
L 242.762272 135.397571 
L 245.034958 154.871594 
L 247.307645 166.872178 
L 249.580331 172.288995 
L 251.853018 173.425963 
L 254.125704 173.420861 
L 256.398391 183.713947 
L 258.671077 218.77101 
L 260.943764 295.893409 
L 263.21645 256.092655 
L 265.489136 236.86379 
L 267.761823 230.660922 
L 270.034509 230.949037 
L 274.579882 235.165708 
L 276.852569 236.41527 
L 279.125255 234.710826 
L 281.397942 227.069615 
L 283.670628 214.276995 
L 285.943314 197.652731 
L 290.488687 162.521781 
L 292.761374 144.603609 
L 297.306747 102.141295 
L 299.579433 88.226888 
L 301.85212 83.222025 
L 304.124806 88.15193 
L 306.397492 99.100016 
L 313.215552 137.203807 
L 315.488238 150.831925 
L 320.033611 183.706797 
L 322.306298 196.205884 
L 324.578984 203.057548 
L 326.85167 202.654444 
L 329.124357 194.563045 
L 331.397043 177.514827 
L 333.66973 154.635633 
L 335.942416 129.597524 
L 338.215103 106.784407 
L 340.487789 90.929092 
L 342.760476 83.983825 
L 345.033162 87.97392 
L 347.305848 100.454173 
L 351.851221 137.473719 
L 354.123908 150.999415 
L 356.396594 158.578234 
L 358.669281 161.470542 
L 360.941967 162.28349 
L 363.214654 164.511821 
L 365.48734 178.19096 
L 367.760026 215.952527 
L 370.032713 297.214213 
L 372.305399 258.041909 
L 374.578086 240.550053 
L 376.850772 236.998966 
L 379.123459 240.741637 
L 383.668832 253.432875 
L 385.941518 257.215481 
L 388.214204 257.561454 
L 390.486891 253.483771 
L 392.759577 245.378796 
L 395.032264 233.464193 
L 397.30495 219.27748 
L 399.577637 204.117637 
L 401.850323 187.086111 
L 404.12301 166.607558 
L 406.395696 147.61629 
L 408.668382 137.253254 
L 410.941069 136.541657 
L 413.213755 145.226138 
L 415.486442 157.366309 
L 417.759128 166.512191 
L 420.031815 172.309908 
L 422.304501 177.019915 
L 424.577187 183.719458 
L 426.849874 195.517783 
L 429.12256 209.176451 
L 431.395247 219.190428 
L 433.667933 224.556192 
L 435.94062 224.884086 
L 438.213306 219.471867 
L 440.485993 206.376171 
L 442.758679 186.691385 
L 447.304052 137.524048 
L 449.576738 120.548457 
L 451.849425 112.338542 
L 454.122111 113.404457 
L 456.394798 121.265975 
L 458.667484 133.85287 
L 460.940171 147.655596 
L 463.212857 159.623993 
L 465.485543 168.127378 
L 467.75823 172.397716 
L 470.030916 173.579595 
L 472.303603 174.115702 
L 474.576289 184.923164 
L 476.848976 219.986558 
L 479.121662 301.525274 
L 481.394349 264.636921 
L 483.667035 249.227385 
L 485.939721 246.716324 
L 488.212408 250.18247 
L 490.485094 255.003748 
L 492.757781 258.704909 
L 495.030467 260.039917 
L 497.303154 258.793977 
L 499.57584 254.795976 
L 501.848527 248.0239 
L 504.121213 238.050267 
L 506.393899 227.354329 
L 510.939272 210.484594 
L 513.211959 199.016336 
L 517.757332 171.587981 
L 520.030018 160.822439 
L 522.302705 156.104432 
L 524.575391 155.523098 
L 526.848077 156.336109 
L 529.120764 157.51887 
L 531.39345 159.328507 
L 533.666137 165.199796 
L 535.938823 179.64672 
L 538.21151 197.876408 
L 540.484196 212.244028 
L 542.756883 220.560648 
L 545.029569 221.62798 
L 547.302255 214.722365 
L 549.574942 198.166004 
L 556.393001 132.26206 
L 558.665688 118.350676 
L 560.938374 112.360084 
L 563.211061 116.124172 
L 565.483747 126.998308 
L 570.02912 156.92834 
L 572.301806 166.765914 
L 574.574493 171.833704 
L 576.847179 173.909159 
L 579.119866 175.176201 
L 581.392552 178.266548 
L 583.665239 191.834637 
L 585.937925 226.774255 
L 588.210611 301.825704 
L 590.483298 262.884793 
L 592.755984 244.738221 
L 595.028671 240.079676 
L 597.301357 242.840335 
L 599.574044 248.983142 
L 601.84673 255.604042 
L 604.119417 260.738412 
L 606.392103 263.18894 
L 608.664789 261.770345 
L 610.937476 255.686653 
L 613.210162 243.746822 
L 615.482849 229.02731 
L 620.028222 201.765783 
L 624.573595 170.871596 
L 626.846281 159.824616 
L 629.118967 154.444081 
L 631.391654 156.004782 
L 633.66434 162.002492 
L 638.209713 177.607737 
L 640.4824 184.77224 
L 642.755086 193.040169 
L 645.027773 205.030077 
L 647.300459 218.25591 
L 649.573145 228.518981 
L 651.845832 234.980706 
L 654.118518 237.111308 
L 656.391205 234.628404 
L 658.663891 226.241707 
L 660.936578 212.095875 
L 663.209264 192.03611 
L 665.481951 170.356528 
L 667.754637 152.723575 
L 670.027323 141.339913 
L 672.30001 137.971969 
L 674.572696 140.866166 
L 679.118069 155.653991 
L 681.390756 158.478081 
L 683.663442 158.193114 
L 685.936128 158.355061 
L 688.208815 160.243751 
L 690.481501 165.030857 
L 692.754188 181.262443 
L 695.026874 219.920513 
L 697.299561 301.946109 
L 699.572247 264.133442 
L 701.844934 248.4442 
L 704.11762 245.914494 
L 706.390306 249.931801 
L 708.662993 256.327292 
L 713.208366 270.380435 
L 715.481052 276.260605 
L 717.753739 279.30675 
L 720.026425 278.022024 
L 722.299112 270.443456 
L 724.571798 258.89791 
L 726.844484 246.276938 
L 729.117171 232.395506 
L 731.389857 215.820405 
L 733.662544 198.402941 
L 735.93523 183.187729 
L 738.207917 172.797954 
L 740.480603 170.235146 
L 742.75329 172.923807 
L 745.025976 177.64509 
L 747.298662 183.117086 
L 749.571349 189.432454 
L 751.844035 197.999711 
L 754.116722 210.772835 
L 756.389408 225.481104 
L 758.662095 238.451513 
L 760.934781 247.903148 
L 763.207468 251.960423 
L 765.480154 250.532158 
L 767.75284 242.963732 
L 770.025527 229.455011 
L 772.298213 209.665158 
L 776.843586 164.087269 
L 779.116273 145.59274 
L 781.388959 134.900455 
L 783.661646 131.580824 
L 785.934332 134.896676 
L 788.207018 140.639024 
L 790.479705 144.51347 
L 792.752391 146.075998 
L 795.025078 146.623569 
L 797.297764 148.295636 
L 799.570451 154.025198 
L 801.843137 172.83644 
L 804.115824 215.507188 
L 804.115824 215.507188 
" style="fill:none;stroke:#ff7f0e;stroke-dasharray:6.475,2.8;stroke-dashoffset:0;stroke-width:1.75;"/>
   </g>
   <g id="line2d_37">
    <path clip-path="url(#p7c4a8ed237)" d="M 42.765865 257.50407 
L 45.038551 234.295376 
L 47.311238 223.370753 
L 49.583924 224.24351 
L 51.856611 232.18112 
L 54.129297 241.45862 
L 56.401984 247.691345 
L 58.67467 248.513961 
L 60.947357 243.400661 
L 63.220043 232.977501 
L 65.492729 218.813119 
L 70.038102 187.213005 
L 72.310789 173.244678 
L 74.583475 161.013928 
L 76.856162 150.056204 
L 79.128848 140.36042 
L 81.401535 132.100302 
L 83.674221 125.547588 
L 85.946907 121.132625 
L 88.219594 119.15512 
L 90.49228 120.201761 
L 92.764967 124.9866 
L 95.037653 134.118183 
L 97.31034 147.612511 
L 101.855713 179.944568 
L 104.128399 192.089809 
L 106.401085 198.333463 
L 108.673772 197.397559 
L 110.946458 189.001792 
L 113.219145 173.620854 
L 115.491831 152.983534 
L 117.764518 129.926709 
L 120.037204 109.179283 
L 122.309891 95.930238 
L 124.582577 93.018215 
L 126.855263 100.481889 
L 129.12795 115.385804 
L 133.673323 151.421888 
L 135.946009 166.079135 
L 138.218696 177.439995 
L 140.491382 186.731037 
L 142.764069 196.680828 
L 145.036755 210.950089 
L 147.309441 233.417927 
L 149.582128 266.202692 
L 151.854814 248.009129 
L 154.127501 221.843469 
L 156.400187 205.795688 
L 158.672874 200.759991 
L 160.94556 203.860355 
L 163.218247 210.533883 
L 165.490933 216.555529 
L 167.763619 219.064228 
L 170.036306 216.686107 
L 172.308992 209.07236 
L 174.581679 196.647475 
L 176.854365 180.276178 
L 179.127052 161.372341 
L 183.672424 120.168187 
L 185.945111 99.198533 
L 188.217797 80.36537 
L 190.490484 65.913911 
L 192.76317 57.090726 
L 195.035857 54.502723 
L 197.308543 57.836589 
L 199.58123 66.584186 
L 201.853916 80.167959 
L 204.126602 97.86869 
L 208.671975 139.951112 
L 210.944662 158.672719 
L 213.217348 171.609523 
L 215.490035 176.909021 
L 217.762721 173.698772 
L 220.035408 162.212563 
L 222.308094 143.29323 
L 224.58078 119.153483 
L 226.853467 93.385509 
L 229.126153 71.475604 
L 231.39884 59.253862 
L 233.671526 59.560623 
L 235.944213 71.693046 
L 238.216899 91.742669 
L 240.489586 114.935679 
L 242.762272 136.811506 
L 245.034958 154.823595 
L 247.307645 168.678036 
L 251.853018 189.818708 
L 254.125704 203.589561 
L 256.398391 226.025557 
L 258.671077 261.126588 
L 260.943764 246.893924 
L 263.21645 221.135053 
L 265.489136 205.831151 
L 267.761823 201.245486 
L 270.034509 204.135841 
L 272.307196 209.972013 
L 274.579882 214.885446 
L 276.852569 216.340702 
L 279.125255 213.101667 
L 281.397942 204.974835 
L 283.670628 192.70122 
L 285.943314 177.370832 
L 290.488687 142.866158 
L 295.03406 108.301645 
L 297.306747 93.601565 
L 299.579433 82.91917 
L 301.85212 77.089454 
L 304.124806 76.326646 
L 306.397492 79.909323 
L 308.670179 87.210105 
L 310.942865 97.930672 
L 313.215552 111.812387 
L 315.488238 128.251304 
L 317.760925 145.675067 
L 320.033611 161.233133 
L 322.306298 172.252461 
L 324.578984 177.085047 
L 326.85167 174.851173 
L 329.124357 165.603436 
L 331.397043 150.085809 
L 333.66973 130.392394 
L 335.942416 109.61089 
L 338.215103 92.008109 
L 340.487789 81.928968 
L 342.760476 81.64016 
L 345.033162 90.933627 
L 347.305848 106.956432 
L 351.851221 144.464842 
L 354.123908 160.067442 
L 356.396594 172.567978 
L 360.941967 193.585662 
L 363.214654 207.802861 
L 365.48734 230.054927 
L 367.760026 263.535731 
L 370.032713 253.99887 
L 372.305399 229.828195 
L 374.578086 216.65962 
L 376.850772 214.685012 
L 379.123459 220.396087 
L 381.396145 228.879882 
L 383.668832 235.842786 
L 385.941518 238.520298 
L 388.214204 235.678729 
L 390.486891 227.164352 
L 392.759577 213.728259 
L 395.032264 196.52392 
L 404.12301 119.622002 
L 406.395696 106.170318 
L 408.668382 98.841884 
L 410.941069 97.639721 
L 413.213755 101.496278 
L 415.486442 108.359847 
L 417.759128 116.840934 
L 420.031815 126.822252 
L 422.304501 138.731879 
L 424.577187 152.835886 
L 426.849874 168.338646 
L 429.12256 182.763618 
L 431.395247 193.528624 
L 433.667933 198.979298 
L 435.94062 198.089566 
L 438.213306 190.674583 
L 440.485993 177.255466 
L 442.758679 159.668653 
L 445.031365 140.675496 
L 447.304052 124.246531 
L 449.576738 114.419413 
L 451.849425 113.238668 
L 454.122111 120.687161 
L 456.394798 134.472817 
L 460.940171 168.22854 
L 463.212857 182.57257 
L 465.485543 193.758695 
L 467.75823 202.318078 
L 470.030916 210.185454 
L 472.303603 220.778593 
L 474.576289 239.009068 
L 476.848976 268.603741 
L 479.121662 260.470579 
L 481.394349 236.689276 
L 483.667035 221.542786 
L 485.939721 216.341993 
L 488.212408 219.019285 
L 492.757781 232.291982 
L 495.030467 236.024134 
L 497.303154 235.281609 
L 499.57584 229.56033 
L 501.848527 219.238679 
L 504.121213 205.198638 
L 506.393899 188.881985 
L 513.211959 136.560491 
L 515.484645 121.344838 
L 517.757332 109.969366 
L 520.030018 103.417848 
L 522.302705 101.870501 
L 524.575391 104.3792 
L 526.848077 110.196318 
L 529.120764 119.194993 
L 531.39345 131.557392 
L 533.666137 147.223233 
L 535.938823 164.861981 
L 538.21151 181.227011 
L 540.484196 193.248225 
L 542.756883 199.197621 
L 545.029569 198.110321 
L 547.302255 189.83877 
L 549.574942 174.87114 
L 551.847628 155.02447 
L 554.120315 133.213837 
L 556.393001 113.891432 
L 558.665688 101.94653 
L 560.938374 100.221174 
L 563.211061 108.687836 
L 565.483747 124.166786 
L 567.756433 142.483621 
L 570.02912 159.590167 
L 572.301806 173.057346 
L 574.574493 182.506493 
L 579.119866 195.326545 
L 581.392552 205.943777 
L 583.665239 226.856111 
L 585.937925 262.385976 
L 588.210611 273.358188 
L 590.483298 250.938663 
L 592.755984 234.902221 
L 595.028671 227.759607 
L 597.301357 228.916164 
L 599.574044 235.360157 
L 601.84673 243.19374 
L 604.119417 249.101468 
L 606.392103 251.030408 
L 608.664789 248.065914 
L 610.937476 240.288708 
L 613.210162 228.398072 
L 615.482849 213.812413 
L 617.755535 197.780002 
L 624.573595 146.062581 
L 626.846281 131.646082 
L 629.118967 121.134074 
L 631.391654 115.509265 
L 633.66434 114.687372 
L 635.937027 118.495238 
L 638.209713 126.899162 
L 640.4824 139.825573 
L 642.755086 156.746551 
L 645.027773 175.909718 
L 647.300459 193.865431 
L 649.573145 207.413867 
L 651.845832 214.66769 
L 654.118518 214.532293 
L 656.391205 206.760189 
L 658.663891 191.594173 
L 660.936578 170.25902 
L 665.481951 121.030645 
L 667.754637 104.077227 
L 670.027323 98.573043 
L 672.30001 105.337466 
L 674.572696 120.962868 
L 676.845383 140.315193 
L 679.118069 158.225239 
L 681.390756 171.575005 
L 683.663442 179.972315 
L 688.208815 189.543505 
L 690.481501 199.591497 
L 692.754188 222.109097 
L 695.026874 261.583013 
L 697.299561 287.889124 
L 699.572247 268.106405 
L 701.844934 252.701877 
L 704.11762 244.280882 
L 706.390306 243.10653 
L 708.662993 247.314319 
L 710.935679 253.991249 
L 713.208366 260.263374 
L 715.481052 263.957543 
L 717.753739 263.840886 
L 720.026425 259.651994 
L 722.299112 251.77772 
L 724.571798 241.353584 
L 726.844484 229.324654 
L 729.117171 215.816721 
L 735.93523 171.345595 
L 738.207917 159.268541 
L 740.480603 150.317549 
L 742.75329 144.624144 
L 745.025976 142.556185 
L 747.298662 144.960195 
L 749.571349 152.73674 
L 751.844035 166.046696 
L 756.389408 200.86909 
L 758.662095 214.899713 
L 760.934781 222.926423 
L 763.207468 223.429051 
L 765.480154 215.963928 
L 767.75284 200.631996 
L 770.025527 178.510886 
L 774.5709 125.380413 
L 776.843586 105.394094 
L 779.116273 96.861166 
L 781.388959 101.169739 
L 783.661646 115.030478 
L 785.934332 133.062662 
L 788.207018 149.706673 
L 790.479705 161.533217 
L 792.752391 167.979037 
L 795.025078 170.763758 
L 797.297764 174.217179 
L 799.570451 185.304536 
L 801.843137 212.103056 
L 804.115824 258.460414 
L 804.115824 258.460414 
" style="fill:none;stroke:#000000;stroke-linecap:square;stroke-width:1.5;"/>
   </g>
   <g id="patch_3">
    <path d="M 42.765865 326.64351 
L 42.765865 6.532193 
" style="fill:none;stroke:#000000;stroke-linecap:square;stroke-linejoin:miter;stroke-width:0.8;"/>
   </g>
   <g id="patch_4">
    <path d="M 806.38851 326.64351 
L 806.38851 6.532193 
" style="fill:none;stroke:#000000;stroke-linecap:square;stroke-linejoin:miter;stroke-width:0.8;"/>
   </g>
   <g id="patch_5">
    <path d="M 42.765865 326.64351 
L 806.38851 326.64351 
" style="fill:none;stroke:#000000;stroke-linecap:square;stroke-linejoin:miter;stroke-width:0.8;"/>
   </g>
   <g id="patch_6">
    <path d="M 42.765865 6.532193 
L 806.38851 6.532193 
" style="fill:none;stroke:#000000;stroke-linecap:square;stroke-linejoin:miter;stroke-width:0.8;"/>
   </g>
   <g id="legend_1">
    <g id="patch_7">
     <path d="M 213.095156 29.210318 
L 636.059219 29.210318 
L 636.059219 11.532193 
L 213.095156 11.532193 
z
" style="fill:#ffffff;opacity:0.95;stroke:#000000;stroke-linejoin:miter;"/>
    </g>
    <g id="line2d_38">
     <path d="M 217.095156 19.630631 
L 237.095156 19.630631 
" style="fill:none;stroke:#d62728;stroke-dasharray:9.25,4;stroke-dashoffset:0;stroke-width:2.5;"/>
    </g>
    <g id="line2d_39"/>
    <g id="text_19">
     <!-- Actual price -->
     <g transform="translate(245.095156 23.130631)scale(0.1 -0.1)">
      <defs>
       <path d="M 2188 4044 
L 1331 1722 
L 3047 1722 
L 2188 4044 
z
M 1831 4666 
L 2547 4666 
L 4325 0 
L 3669 0 
L 3244 1197 
L 1141 1197 
L 716 0 
L 50 0 
L 1831 4666 
z
" id="DejaVuSans-41" transform="scale(0.015625)"/>
      </defs>
      <use xlink:href="#DejaVuSans-41"/>
      <use x="66.658203" xlink:href="#DejaVuSans-63"/>
      <use x="121.638672" xlink:href="#DejaVuSans-74"/>
      <use x="160.847656" xlink:href="#DejaVuSans-75"/>
      <use x="224.226562" xlink:href="#DejaVuSans-61"/>
      <use x="285.505859" xlink:href="#DejaVuSans-6c"/>
      <use x="313.289062" xlink:href="#DejaVuSans-20"/>
      <use x="345.076172" xlink:href="#DejaVuSans-70"/>
      <use x="408.552734" xlink:href="#DejaVuSans-72"/>
      <use x="449.666016" xlink:href="#DejaVuSans-69"/>
      <use x="477.449219" xlink:href="#DejaVuSans-63"/>
      <use x="532.429688" xlink:href="#DejaVuSans-65"/>
     </g>
    </g>
    <g id="line2d_40">
     <path d="M 324.490469 19.630631 
L 344.490469 19.630631 
" style="fill:none;stroke:#1f77b4;stroke-dasharray:2.25,3.7125;stroke-dashoffset:0;stroke-width:2.25;"/>
    </g>
    <g id="line2d_41"/>
    <g id="text_20">
     <!-- Base 1 -->
     <g transform="translate(352.490469 23.130631)scale(0.1 -0.1)">
      <defs>
       <path d="M 2834 3397 
L 2834 2853 
Q 2591 2978 2328 3040 
Q 2066 3103 1784 3103 
Q 1356 3103 1142 2972 
Q 928 2841 928 2578 
Q 928 2378 1081 2264 
Q 1234 2150 1697 2047 
L 1894 2003 
Q 2506 1872 2764 1633 
Q 3022 1394 3022 966 
Q 3022 478 2636 193 
Q 2250 -91 1575 -91 
Q 1294 -91 989 -36 
Q 684 19 347 128 
L 347 722 
Q 666 556 975 473 
Q 1284 391 1588 391 
Q 1994 391 2212 530 
Q 2431 669 2431 922 
Q 2431 1156 2273 1281 
Q 2116 1406 1581 1522 
L 1381 1569 
Q 847 1681 609 1914 
Q 372 2147 372 2553 
Q 372 3047 722 3315 
Q 1072 3584 1716 3584 
Q 2034 3584 2315 3537 
Q 2597 3491 2834 3397 
z
" id="DejaVuSans-73" transform="scale(0.015625)"/>
      </defs>
      <use xlink:href="#DejaVuSans-42"/>
      <use x="68.603516" xlink:href="#DejaVuSans-61"/>
      <use x="129.882812" xlink:href="#DejaVuSans-73"/>
      <use x="181.982422" xlink:href="#DejaVuSans-65"/>
      <use x="243.505859" xlink:href="#DejaVuSans-20"/>
      <use x="275.292969" xlink:href="#DejaVuSans-31"/>
     </g>
    </g>
    <g id="line2d_42">
     <path d="M 406.382656 19.630631 
L 426.382656 19.630631 
" style="fill:none;stroke:#2ca02c;stroke-dasharray:12.8,3.2,2,3.2;stroke-dashoffset:0;stroke-width:2;"/>
    </g>
    <g id="line2d_43"/>
    <g id="text_21">
     <!-- Base 2 -->
     <g transform="translate(434.382656 23.130631)scale(0.1 -0.1)">
      <use xlink:href="#DejaVuSans-42"/>
      <use x="68.603516" xlink:href="#DejaVuSans-61"/>
      <use x="129.882812" xlink:href="#DejaVuSans-73"/>
      <use x="181.982422" xlink:href="#DejaVuSans-65"/>
      <use x="243.505859" xlink:href="#DejaVuSans-20"/>
      <use x="275.292969" xlink:href="#DejaVuSans-32"/>
     </g>
    </g>
    <g id="line2d_44">
     <path d="M 488.274844 19.630631 
L 508.274844 19.630631 
" style="fill:none;stroke:#ff7f0e;stroke-dasharray:6.475,2.8;stroke-dashoffset:0;stroke-width:1.75;"/>
    </g>
    <g id="line2d_45"/>
    <g id="text_22">
     <!-- Base 3 -->
     <g transform="translate(516.274844 23.130631)scale(0.1 -0.1)">
      <use xlink:href="#DejaVuSans-42"/>
      <use x="68.603516" xlink:href="#DejaVuSans-61"/>
      <use x="129.882812" xlink:href="#DejaVuSans-73"/>
      <use x="181.982422" xlink:href="#DejaVuSans-65"/>
      <use x="243.505859" xlink:href="#DejaVuSans-20"/>
      <use x="275.292969" xlink:href="#DejaVuSans-33"/>
     </g>
    </g>
    <g id="line2d_46">
     <path d="M 570.167031 19.630631 
L 590.167031 19.630631 
" style="fill:none;stroke:#000000;stroke-linecap:square;stroke-width:1.5;"/>
    </g>
    <g id="line2d_47"/>
    <g id="text_23">
     <!-- Base 4 -->
     <g transform="translate(598.167031 23.130631)scale(0.1 -0.1)">
      <defs>
       <path d="M 2419 4116 
L 825 1625 
L 2419 1625 
L 2419 4116 
z
M 2253 4666 
L 3047 4666 
L 3047 1625 
L 3713 1625 
L 3713 1100 
L 3047 1100 
L 3047 0 
L 2419 0 
L 2419 1100 
L 313 1100 
L 313 1709 
L 2253 4666 
z
" id="DejaVuSans-34" transform="scale(0.015625)"/>
      </defs>
      <use xlink:href="#DejaVuSans-42"/>
      <use x="68.603516" xlink:href="#DejaVuSans-61"/>
      <use x="129.882812" xlink:href="#DejaVuSans-73"/>
      <use x="181.982422" xlink:href="#DejaVuSans-65"/>
      <use x="243.505859" xlink:href="#DejaVuSans-20"/>
      <use x="275.292969" xlink:href="#DejaVuSans-34"/>
     </g>
    </g>
   </g>
  </g>
 </g>
 <defs>
  <clipPath id="p7c4a8ed237">
   <rect height="320.111317" width="763.622645" x="42.765865" y="6.532193"/>
  </clipPath>
 </defs>
</svg>
