<?xml version="1.0" encoding="utf-8" standalone="no"?>
<!DOCTYPE svg PUBLIC "-//W3C//DTD SVG 1.1//EN"
  "http://www.w3.org/Graphics/SVG/1.1/DTD/svg11.dtd">
<svg height="360pt" version="1.1" viewBox="0 0 720 360" width="720pt" xmlns="http://www.w3.org/2000/svg" xmlns:xlink="http://www.w3.org/1999/xlink">
 <metadata>
  <rdf:RDF xmlns:cc="http://creativecommons.org/ns#" xmlns:dc="http://purl.org/dc/elements/1.1/" xmlns:rdf="http://www.w3.org/1999/02/22-rdf-syntax-ns#">
   <cc:Work>
    <dc:type rdf:resource="http://purl.org/dc/dcmitype/StillImage"/>
    <dc:date>2022-04-12T14:17:42.570182</dc:date>
    <dc:format>image/svg+xml</dc:format>
    <dc:creator>
     <cc:Agent>
      <dc:title>Matplotlib v3.4.3, https://matplotlib.org/</dc:title>
     </cc:Agent>
    </dc:creator>
   </cc:Work>
  </rdf:RDF>
 </metadata>
 <defs>
  <style type="text/css">*{stroke-linecap:butt;stroke-linejoin:round;}</style>
 </defs>
 <g id="figure_1">
  <g id="patch_1">
   <path d="M 0 360 
L 720 360 
L 720 0 
L 0 0 
z
" style="fill:#ffffff;"/>
  </g>
  <g id="axes_1">
   <g id="patch_2">
    <path d="M 44.783053 326.64351 
L 704.86851 326.64351 
L 704.86851 3.00024 
L 44.783053 3.00024 
z
" style="fill:#ffffff;"/>
   </g>
   <g id="matplotlib.axis_1">
    <g id="xtick_1">
     <g id="line2d_1">
      <path clip-path="url(#pb9d64af991)" d="M 44.783053 326.64351 
L 44.783053 3.00024 
" style="fill:none;stroke:#b0b0b0;stroke-linecap:square;stroke-width:0.8;"/>
     </g>
     <g id="line2d_2">
      <defs>
       <path d="M 0 0 
L 0 3.5 
" id="mdeb7e1ce37" style="stroke:#000000;stroke-width:0.8;"/>
      </defs>
      <g>
       <use style="stroke:#000000;stroke-width:0.8;" x="44.783053" xlink:href="#mdeb7e1ce37" y="326.64351"/>
      </g>
     </g>
     <g id="text_1">
      <!-- Mon. -->
      <g transform="translate(32.651803 341.241947)scale(0.1 -0.1)">
       <defs>
        <path d="M 628 4666 
L 1569 4666 
L 2759 1491 
L 3956 4666 
L 4897 4666 
L 4897 0 
L 4281 0 
L 4281 4097 
L 3078 897 
L 2444 897 
L 1241 4097 
L 1241 0 
L 628 0 
L 628 4666 
z
" id="DejaVuSans-4d" transform="scale(0.015625)"/>
        <path d="M 1959 3097 
Q 1497 3097 1228 2736 
Q 959 2375 959 1747 
Q 959 1119 1226 758 
Q 1494 397 1959 397 
Q 2419 397 2687 759 
Q 2956 1122 2956 1747 
Q 2956 2369 2687 2733 
Q 2419 3097 1959 3097 
z
M 1959 3584 
Q 2709 3584 3137 3096 
Q 3566 2609 3566 1747 
Q 3566 888 3137 398 
Q 2709 -91 1959 -91 
Q 1206 -91 779 398 
Q 353 888 353 1747 
Q 353 2609 779 3096 
Q 1206 3584 1959 3584 
z
" id="DejaVuSans-6f" transform="scale(0.015625)"/>
        <path d="M 3513 2113 
L 3513 0 
L 2938 0 
L 2938 2094 
Q 2938 2591 2744 2837 
Q 2550 3084 2163 3084 
Q 1697 3084 1428 2787 
Q 1159 2491 1159 1978 
L 1159 0 
L 581 0 
L 581 3500 
L 1159 3500 
L 1159 2956 
Q 1366 3272 1645 3428 
Q 1925 3584 2291 3584 
Q 2894 3584 3203 3211 
Q 3513 2838 3513 2113 
z
" id="DejaVuSans-6e" transform="scale(0.015625)"/>
        <path d="M 684 794 
L 1344 794 
L 1344 0 
L 684 0 
L 684 794 
z
" id="DejaVuSans-2e" transform="scale(0.015625)"/>
       </defs>
       <use xlink:href="#DejaVuSans-4d"/>
       <use x="86.279297" xlink:href="#DejaVuSans-6f"/>
       <use x="147.460938" xlink:href="#DejaVuSans-6e"/>
       <use x="210.839844" xlink:href="#DejaVuSans-2e"/>
      </g>
     </g>
    </g>
    <g id="xtick_2">
     <g id="line2d_3">
      <path clip-path="url(#pb9d64af991)" d="M 139.080975 326.64351 
L 139.080975 3.00024 
" style="fill:none;stroke:#b0b0b0;stroke-linecap:square;stroke-width:0.8;"/>
     </g>
     <g id="line2d_4">
      <g>
       <use style="stroke:#000000;stroke-width:0.8;" x="139.080975" xlink:href="#mdeb7e1ce37" y="326.64351"/>
      </g>
     </g>
     <g id="text_2">
      <!-- Tue. -->
      <g transform="translate(128.948944 341.241947)scale(0.1 -0.1)">
       <defs>
        <path d="M -19 4666 
L 3928 4666 
L 3928 4134 
L 2272 4134 
L 2272 0 
L 1638 0 
L 1638 4134 
L -19 4134 
L -19 4666 
z
" id="DejaVuSans-54" transform="scale(0.015625)"/>
        <path d="M 544 1381 
L 544 3500 
L 1119 3500 
L 1119 1403 
Q 1119 906 1312 657 
Q 1506 409 1894 409 
Q 2359 409 2629 706 
Q 2900 1003 2900 1516 
L 2900 3500 
L 3475 3500 
L 3475 0 
L 2900 0 
L 2900 538 
Q 2691 219 2414 64 
Q 2138 -91 1772 -91 
Q 1169 -91 856 284 
Q 544 659 544 1381 
z
M 1991 3584 
L 1991 3584 
z
" id="DejaVuSans-75" transform="scale(0.015625)"/>
        <path d="M 3597 1894 
L 3597 1613 
L 953 1613 
Q 991 1019 1311 708 
Q 1631 397 2203 397 
Q 2534 397 2845 478 
Q 3156 559 3463 722 
L 3463 178 
Q 3153 47 2828 -22 
Q 2503 -91 2169 -91 
Q 1331 -91 842 396 
Q 353 884 353 1716 
Q 353 2575 817 3079 
Q 1281 3584 2069 3584 
Q 2775 3584 3186 3129 
Q 3597 2675 3597 1894 
z
M 3022 2063 
Q 3016 2534 2758 2815 
Q 2500 3097 2075 3097 
Q 1594 3097 1305 2825 
Q 1016 2553 972 2059 
L 3022 2063 
z
" id="DejaVuSans-65" transform="scale(0.015625)"/>
       </defs>
       <use xlink:href="#DejaVuSans-54"/>
       <use x="45.958984" xlink:href="#DejaVuSans-75"/>
       <use x="109.337891" xlink:href="#DejaVuSans-65"/>
       <use x="170.861328" xlink:href="#DejaVuSans-2e"/>
      </g>
     </g>
    </g>
    <g id="xtick_3">
     <g id="line2d_5">
      <path clip-path="url(#pb9d64af991)" d="M 233.378897 326.64351 
L 233.378897 3.00024 
" style="fill:none;stroke:#b0b0b0;stroke-linecap:square;stroke-width:0.8;"/>
     </g>
     <g id="line2d_6">
      <g>
       <use style="stroke:#000000;stroke-width:0.8;" x="233.378897" xlink:href="#mdeb7e1ce37" y="326.64351"/>
      </g>
     </g>
     <g id="text_3">
      <!-- Wed. -->
      <g transform="translate(220.889054 341.241947)scale(0.1 -0.1)">
       <defs>
        <path d="M 213 4666 
L 850 4666 
L 1831 722 
L 2809 4666 
L 3519 4666 
L 4500 722 
L 5478 4666 
L 6119 4666 
L 4947 0 
L 4153 0 
L 3169 4050 
L 2175 0 
L 1381 0 
L 213 4666 
z
" id="DejaVuSans-57" transform="scale(0.015625)"/>
        <path d="M 2906 2969 
L 2906 4863 
L 3481 4863 
L 3481 0 
L 2906 0 
L 2906 525 
Q 2725 213 2448 61 
Q 2172 -91 1784 -91 
Q 1150 -91 751 415 
Q 353 922 353 1747 
Q 353 2572 751 3078 
Q 1150 3584 1784 3584 
Q 2172 3584 2448 3432 
Q 2725 3281 2906 2969 
z
M 947 1747 
Q 947 1113 1208 752 
Q 1469 391 1925 391 
Q 2381 391 2643 752 
Q 2906 1113 2906 1747 
Q 2906 2381 2643 2742 
Q 2381 3103 1925 3103 
Q 1469 3103 1208 2742 
Q 947 2381 947 1747 
z
" id="DejaVuSans-64" transform="scale(0.015625)"/>
       </defs>
       <use xlink:href="#DejaVuSans-57"/>
       <use x="93.001953" xlink:href="#DejaVuSans-65"/>
       <use x="154.525391" xlink:href="#DejaVuSans-64"/>
       <use x="218.001953" xlink:href="#DejaVuSans-2e"/>
      </g>
     </g>
    </g>
    <g id="xtick_4">
     <g id="line2d_7">
      <path clip-path="url(#pb9d64af991)" d="M 327.67682 326.64351 
L 327.67682 3.00024 
" style="fill:none;stroke:#b0b0b0;stroke-linecap:square;stroke-width:0.8;"/>
     </g>
     <g id="line2d_8">
      <g>
       <use style="stroke:#000000;stroke-width:0.8;" x="327.67682" xlink:href="#mdeb7e1ce37" y="326.64351"/>
      </g>
     </g>
     <g id="text_4">
      <!-- Thur. -->
      <g transform="translate(315.097132 341.241947)scale(0.1 -0.1)">
       <defs>
        <path d="M 3513 2113 
L 3513 0 
L 2938 0 
L 2938 2094 
Q 2938 2591 2744 2837 
Q 2550 3084 2163 3084 
Q 1697 3084 1428 2787 
Q 1159 2491 1159 1978 
L 1159 0 
L 581 0 
L 581 4863 
L 1159 4863 
L 1159 2956 
Q 1366 3272 1645 3428 
Q 1925 3584 2291 3584 
Q 2894 3584 3203 3211 
Q 3513 2838 3513 2113 
z
" id="DejaVuSans-68" transform="scale(0.015625)"/>
        <path d="M 2631 2963 
Q 2534 3019 2420 3045 
Q 2306 3072 2169 3072 
Q 1681 3072 1420 2755 
Q 1159 2438 1159 1844 
L 1159 0 
L 581 0 
L 581 3500 
L 1159 3500 
L 1159 2956 
Q 1341 3275 1631 3429 
Q 1922 3584 2338 3584 
Q 2397 3584 2469 3576 
Q 2541 3569 2628 3553 
L 2631 2963 
z
" id="DejaVuSans-72" transform="scale(0.015625)"/>
       </defs>
       <use xlink:href="#DejaVuSans-54"/>
       <use x="61.083984" xlink:href="#DejaVuSans-68"/>
       <use x="124.462891" xlink:href="#DejaVuSans-75"/>
       <use x="187.841797" xlink:href="#DejaVuSans-72"/>
       <use x="219.830078" xlink:href="#DejaVuSans-2e"/>
      </g>
     </g>
    </g>
    <g id="xtick_5">
     <g id="line2d_9">
      <path clip-path="url(#pb9d64af991)" d="M 421.974742 326.64351 
L 421.974742 3.00024 
" style="fill:none;stroke:#b0b0b0;stroke-linecap:square;stroke-width:0.8;"/>
     </g>
     <g id="line2d_10">
      <g>
       <use style="stroke:#000000;stroke-width:0.8;" x="421.974742" xlink:href="#mdeb7e1ce37" y="326.64351"/>
      </g>
     </g>
     <g id="text_5">
      <!-- Fri. -->
      <g transform="translate(414.427867 341.241947)scale(0.1 -0.1)">
       <defs>
        <path d="M 628 4666 
L 3309 4666 
L 3309 4134 
L 1259 4134 
L 1259 2759 
L 3109 2759 
L 3109 2228 
L 1259 2228 
L 1259 0 
L 628 0 
L 628 4666 
z
" id="DejaVuSans-46" transform="scale(0.015625)"/>
        <path d="M 603 3500 
L 1178 3500 
L 1178 0 
L 603 0 
L 603 3500 
z
M 603 4863 
L 1178 4863 
L 1178 4134 
L 603 4134 
L 603 4863 
z
" id="DejaVuSans-69" transform="scale(0.015625)"/>
       </defs>
       <use xlink:href="#DejaVuSans-46"/>
       <use x="50.269531" xlink:href="#DejaVuSans-72"/>
       <use x="91.382812" xlink:href="#DejaVuSans-69"/>
       <use x="119.166016" xlink:href="#DejaVuSans-2e"/>
      </g>
     </g>
    </g>
    <g id="xtick_6">
     <g id="line2d_11">
      <path clip-path="url(#pb9d64af991)" d="M 516.272665 326.64351 
L 516.272665 3.00024 
" style="fill:none;stroke:#b0b0b0;stroke-linecap:square;stroke-width:0.8;"/>
     </g>
     <g id="line2d_12">
      <g>
       <use style="stroke:#000000;stroke-width:0.8;" x="516.272665" xlink:href="#mdeb7e1ce37" y="326.64351"/>
      </g>
     </g>
     <g id="text_6">
      <!-- Sat. -->
      <g transform="translate(506.485165 341.241947)scale(0.1 -0.1)">
       <defs>
        <path d="M 3425 4513 
L 3425 3897 
Q 3066 4069 2747 4153 
Q 2428 4238 2131 4238 
Q 1616 4238 1336 4038 
Q 1056 3838 1056 3469 
Q 1056 3159 1242 3001 
Q 1428 2844 1947 2747 
L 2328 2669 
Q 3034 2534 3370 2195 
Q 3706 1856 3706 1288 
Q 3706 609 3251 259 
Q 2797 -91 1919 -91 
Q 1588 -91 1214 -16 
Q 841 59 441 206 
L 441 856 
Q 825 641 1194 531 
Q 1563 422 1919 422 
Q 2459 422 2753 634 
Q 3047 847 3047 1241 
Q 3047 1584 2836 1778 
Q 2625 1972 2144 2069 
L 1759 2144 
Q 1053 2284 737 2584 
Q 422 2884 422 3419 
Q 422 4038 858 4394 
Q 1294 4750 2059 4750 
Q 2388 4750 2728 4690 
Q 3069 4631 3425 4513 
z
" id="DejaVuSans-53" transform="scale(0.015625)"/>
        <path d="M 2194 1759 
Q 1497 1759 1228 1600 
Q 959 1441 959 1056 
Q 959 750 1161 570 
Q 1363 391 1709 391 
Q 2188 391 2477 730 
Q 2766 1069 2766 1631 
L 2766 1759 
L 2194 1759 
z
M 3341 1997 
L 3341 0 
L 2766 0 
L 2766 531 
Q 2569 213 2275 61 
Q 1981 -91 1556 -91 
Q 1019 -91 701 211 
Q 384 513 384 1019 
Q 384 1609 779 1909 
Q 1175 2209 1959 2209 
L 2766 2209 
L 2766 2266 
Q 2766 2663 2505 2880 
Q 2244 3097 1772 3097 
Q 1472 3097 1187 3025 
Q 903 2953 641 2809 
L 641 3341 
Q 956 3463 1253 3523 
Q 1550 3584 1831 3584 
Q 2591 3584 2966 3190 
Q 3341 2797 3341 1997 
z
" id="DejaVuSans-61" transform="scale(0.015625)"/>
        <path d="M 1172 4494 
L 1172 3500 
L 2356 3500 
L 2356 3053 
L 1172 3053 
L 1172 1153 
Q 1172 725 1289 603 
Q 1406 481 1766 481 
L 2356 481 
L 2356 0 
L 1766 0 
Q 1100 0 847 248 
Q 594 497 594 1153 
L 594 3053 
L 172 3053 
L 172 3500 
L 594 3500 
L 594 4494 
L 1172 4494 
z
" id="DejaVuSans-74" transform="scale(0.015625)"/>
       </defs>
       <use xlink:href="#DejaVuSans-53"/>
       <use x="63.476562" xlink:href="#DejaVuSans-61"/>
       <use x="124.755859" xlink:href="#DejaVuSans-74"/>
       <use x="163.964844" xlink:href="#DejaVuSans-2e"/>
      </g>
     </g>
    </g>
    <g id="xtick_7">
     <g id="line2d_13">
      <path clip-path="url(#pb9d64af991)" d="M 610.570587 326.64351 
L 610.570587 3.00024 
" style="fill:none;stroke:#b0b0b0;stroke-linecap:square;stroke-width:0.8;"/>
     </g>
     <g id="line2d_14">
      <g>
       <use style="stroke:#000000;stroke-width:0.8;" x="610.570587" xlink:href="#mdeb7e1ce37" y="326.64351"/>
      </g>
     </g>
     <g id="text_7">
      <!-- Sun. -->
      <g transform="translate(599.469806 341.241947)scale(0.1 -0.1)">
       <use xlink:href="#DejaVuSans-53"/>
       <use x="63.476562" xlink:href="#DejaVuSans-75"/>
       <use x="126.855469" xlink:href="#DejaVuSans-6e"/>
       <use x="190.234375" xlink:href="#DejaVuSans-2e"/>
      </g>
     </g>
    </g>
    <g id="xtick_8">
     <g id="line2d_15">
      <path clip-path="url(#pb9d64af991)" d="M 704.86851 326.64351 
L 704.86851 3.00024 
" style="fill:none;stroke:#b0b0b0;stroke-linecap:square;stroke-width:0.8;"/>
     </g>
     <g id="line2d_16">
      <g>
       <use style="stroke:#000000;stroke-width:0.8;" x="704.86851" xlink:href="#mdeb7e1ce37" y="326.64351"/>
      </g>
     </g>
     <g id="text_8">
      <!-- Mon. -->
      <g transform="translate(692.73726 341.241947)scale(0.1 -0.1)">
       <use xlink:href="#DejaVuSans-4d"/>
       <use x="86.279297" xlink:href="#DejaVuSans-6f"/>
       <use x="147.460938" xlink:href="#DejaVuSans-6e"/>
       <use x="210.839844" xlink:href="#DejaVuSans-2e"/>
      </g>
     </g>
    </g>
    <g id="text_9">
     <!-- Day of the week -->
     <g transform="translate(334.022656 354.920073)scale(0.1 -0.1)">
      <defs>
       <path d="M 1259 4147 
L 1259 519 
L 2022 519 
Q 2988 519 3436 956 
Q 3884 1394 3884 2338 
Q 3884 3275 3436 3711 
Q 2988 4147 2022 4147 
L 1259 4147 
z
M 628 4666 
L 1925 4666 
Q 3281 4666 3915 4102 
Q 4550 3538 4550 2338 
Q 4550 1131 3912 565 
Q 3275 0 1925 0 
L 628 0 
L 628 4666 
z
" id="DejaVuSans-44" transform="scale(0.015625)"/>
       <path d="M 2059 -325 
Q 1816 -950 1584 -1140 
Q 1353 -1331 966 -1331 
L 506 -1331 
L 506 -850 
L 844 -850 
Q 1081 -850 1212 -737 
Q 1344 -625 1503 -206 
L 1606 56 
L 191 3500 
L 800 3500 
L 1894 763 
L 2988 3500 
L 3597 3500 
L 2059 -325 
z
" id="DejaVuSans-79" transform="scale(0.015625)"/>
       <path id="DejaVuSans-20" transform="scale(0.015625)"/>
       <path d="M 2375 4863 
L 2375 4384 
L 1825 4384 
Q 1516 4384 1395 4259 
Q 1275 4134 1275 3809 
L 1275 3500 
L 2222 3500 
L 2222 3053 
L 1275 3053 
L 1275 0 
L 697 0 
L 697 3053 
L 147 3053 
L 147 3500 
L 697 3500 
L 697 3744 
Q 697 4328 969 4595 
Q 1241 4863 1831 4863 
L 2375 4863 
z
" id="DejaVuSans-66" transform="scale(0.015625)"/>
       <path d="M 269 3500 
L 844 3500 
L 1563 769 
L 2278 3500 
L 2956 3500 
L 3675 769 
L 4391 3500 
L 4966 3500 
L 4050 0 
L 3372 0 
L 2619 2869 
L 1863 0 
L 1184 0 
L 269 3500 
z
" id="DejaVuSans-77" transform="scale(0.015625)"/>
       <path d="M 581 4863 
L 1159 4863 
L 1159 1991 
L 2875 3500 
L 3609 3500 
L 1753 1863 
L 3688 0 
L 2938 0 
L 1159 1709 
L 1159 0 
L 581 0 
L 581 4863 
z
" id="DejaVuSans-6b" transform="scale(0.015625)"/>
      </defs>
      <use xlink:href="#DejaVuSans-44"/>
      <use x="77.001953" xlink:href="#DejaVuSans-61"/>
      <use x="138.28125" xlink:href="#DejaVuSans-79"/>
      <use x="197.460938" xlink:href="#DejaVuSans-20"/>
      <use x="229.248047" xlink:href="#DejaVuSans-6f"/>
      <use x="290.429688" xlink:href="#DejaVuSans-66"/>
      <use x="325.634766" xlink:href="#DejaVuSans-20"/>
      <use x="357.421875" xlink:href="#DejaVuSans-74"/>
      <use x="396.630859" xlink:href="#DejaVuSans-68"/>
      <use x="460.009766" xlink:href="#DejaVuSans-65"/>
      <use x="521.533203" xlink:href="#DejaVuSans-20"/>
      <use x="553.320312" xlink:href="#DejaVuSans-77"/>
      <use x="635.107422" xlink:href="#DejaVuSans-65"/>
      <use x="696.630859" xlink:href="#DejaVuSans-65"/>
      <use x="758.154297" xlink:href="#DejaVuSans-6b"/>
     </g>
    </g>
   </g>
   <g id="matplotlib.axis_2">
    <g id="ytick_1">
     <g id="line2d_17">
      <path clip-path="url(#pb9d64af991)" d="M 44.783053 326.50006 
L 704.86851 326.50006 
" style="fill:none;stroke:#b0b0b0;stroke-linecap:square;stroke-width:0.8;"/>
     </g>
     <g id="line2d_18">
      <defs>
       <path d="M 0 0 
L -3.5 0 
" id="m2486a440b1" style="stroke:#000000;stroke-width:0.8;"/>
      </defs>
      <g>
       <use style="stroke:#000000;stroke-width:0.8;" x="44.783053" xlink:href="#m2486a440b1" y="326.50006"/>
      </g>
     </g>
     <g id="text_10">
      <!-- −40 -->
      <g transform="translate(16.678365 330.299279)scale(0.1 -0.1)">
       <defs>
        <path d="M 678 2272 
L 4684 2272 
L 4684 1741 
L 678 1741 
L 678 2272 
z
" id="DejaVuSans-2212" transform="scale(0.015625)"/>
        <path d="M 2419 4116 
L 825 1625 
L 2419 1625 
L 2419 4116 
z
M 2253 4666 
L 3047 4666 
L 3047 1625 
L 3713 1625 
L 3713 1100 
L 3047 1100 
L 3047 0 
L 2419 0 
L 2419 1100 
L 313 1100 
L 313 1709 
L 2253 4666 
z
" id="DejaVuSans-34" transform="scale(0.015625)"/>
        <path d="M 2034 4250 
Q 1547 4250 1301 3770 
Q 1056 3291 1056 2328 
Q 1056 1369 1301 889 
Q 1547 409 2034 409 
Q 2525 409 2770 889 
Q 3016 1369 3016 2328 
Q 3016 3291 2770 3770 
Q 2525 4250 2034 4250 
z
M 2034 4750 
Q 2819 4750 3233 4129 
Q 3647 3509 3647 2328 
Q 3647 1150 3233 529 
Q 2819 -91 2034 -91 
Q 1250 -91 836 529 
Q 422 1150 422 2328 
Q 422 3509 836 4129 
Q 1250 4750 2034 4750 
z
" id="DejaVuSans-30" transform="scale(0.015625)"/>
       </defs>
       <use xlink:href="#DejaVuSans-2212"/>
       <use x="83.789062" xlink:href="#DejaVuSans-34"/>
       <use x="147.412109" xlink:href="#DejaVuSans-30"/>
      </g>
     </g>
    </g>
    <g id="ytick_2">
     <g id="line2d_19">
      <path clip-path="url(#pb9d64af991)" d="M 44.783053 259.803686 
L 704.86851 259.803686 
" style="fill:none;stroke:#b0b0b0;stroke-linecap:square;stroke-width:0.8;"/>
     </g>
     <g id="line2d_20">
      <g>
       <use style="stroke:#000000;stroke-width:0.8;" x="44.783053" xlink:href="#m2486a440b1" y="259.803686"/>
      </g>
     </g>
     <g id="text_11">
      <!-- −20 -->
      <g transform="translate(16.678365 263.602905)scale(0.1 -0.1)">
       <defs>
        <path d="M 1228 531 
L 3431 531 
L 3431 0 
L 469 0 
L 469 531 
Q 828 903 1448 1529 
Q 2069 2156 2228 2338 
Q 2531 2678 2651 2914 
Q 2772 3150 2772 3378 
Q 2772 3750 2511 3984 
Q 2250 4219 1831 4219 
Q 1534 4219 1204 4116 
Q 875 4013 500 3803 
L 500 4441 
Q 881 4594 1212 4672 
Q 1544 4750 1819 4750 
Q 2544 4750 2975 4387 
Q 3406 4025 3406 3419 
Q 3406 3131 3298 2873 
Q 3191 2616 2906 2266 
Q 2828 2175 2409 1742 
Q 1991 1309 1228 531 
z
" id="DejaVuSans-32" transform="scale(0.015625)"/>
       </defs>
       <use xlink:href="#DejaVuSans-2212"/>
       <use x="83.789062" xlink:href="#DejaVuSans-32"/>
       <use x="147.412109" xlink:href="#DejaVuSans-30"/>
      </g>
     </g>
    </g>
    <g id="ytick_3">
     <g id="line2d_21">
      <path clip-path="url(#pb9d64af991)" d="M 44.783053 193.107312 
L 704.86851 193.107312 
" style="fill:none;stroke:#b0b0b0;stroke-linecap:square;stroke-width:0.8;"/>
     </g>
     <g id="line2d_22">
      <g>
       <use style="stroke:#000000;stroke-width:0.8;" x="44.783053" xlink:href="#m2486a440b1" y="193.107312"/>
      </g>
     </g>
     <g id="text_12">
      <!-- 0 -->
      <g transform="translate(31.420553 196.906531)scale(0.1 -0.1)">
       <use xlink:href="#DejaVuSans-30"/>
      </g>
     </g>
    </g>
    <g id="ytick_4">
     <g id="line2d_23">
      <path clip-path="url(#pb9d64af991)" d="M 44.783053 126.410938 
L 704.86851 126.410938 
" style="fill:none;stroke:#b0b0b0;stroke-linecap:square;stroke-width:0.8;"/>
     </g>
     <g id="line2d_24">
      <g>
       <use style="stroke:#000000;stroke-width:0.8;" x="44.783053" xlink:href="#m2486a440b1" y="126.410938"/>
      </g>
     </g>
     <g id="text_13">
      <!-- 20 -->
      <g transform="translate(25.058053 130.210157)scale(0.1 -0.1)">
       <use xlink:href="#DejaVuSans-32"/>
       <use x="63.623047" xlink:href="#DejaVuSans-30"/>
      </g>
     </g>
    </g>
    <g id="ytick_5">
     <g id="line2d_25">
      <path clip-path="url(#pb9d64af991)" d="M 44.783053 59.714564 
L 704.86851 59.714564 
" style="fill:none;stroke:#b0b0b0;stroke-linecap:square;stroke-width:0.8;"/>
     </g>
     <g id="line2d_26">
      <g>
       <use style="stroke:#000000;stroke-width:0.8;" x="44.783053" xlink:href="#m2486a440b1" y="59.714564"/>
      </g>
     </g>
     <g id="text_14">
      <!-- 40 -->
      <g transform="translate(25.058053 63.513783)scale(0.1 -0.1)">
       <use xlink:href="#DejaVuSans-34"/>
       <use x="63.623047" xlink:href="#DejaVuSans-30"/>
      </g>
     </g>
    </g>
    <g id="text_15">
     <!-- Price difference (GB/MWh) -->
     <g transform="translate(10.598677 230.689062)rotate(-90)scale(0.1 -0.1)">
      <defs>
       <path d="M 1259 4147 
L 1259 2394 
L 2053 2394 
Q 2494 2394 2734 2622 
Q 2975 2850 2975 3272 
Q 2975 3691 2734 3919 
Q 2494 4147 2053 4147 
L 1259 4147 
z
M 628 4666 
L 2053 4666 
Q 2838 4666 3239 4311 
Q 3641 3956 3641 3272 
Q 3641 2581 3239 2228 
Q 2838 1875 2053 1875 
L 1259 1875 
L 1259 0 
L 628 0 
L 628 4666 
z
" id="DejaVuSans-50" transform="scale(0.015625)"/>
       <path d="M 3122 3366 
L 3122 2828 
Q 2878 2963 2633 3030 
Q 2388 3097 2138 3097 
Q 1578 3097 1268 2742 
Q 959 2388 959 1747 
Q 959 1106 1268 751 
Q 1578 397 2138 397 
Q 2388 397 2633 464 
Q 2878 531 3122 666 
L 3122 134 
Q 2881 22 2623 -34 
Q 2366 -91 2075 -91 
Q 1284 -91 818 406 
Q 353 903 353 1747 
Q 353 2603 823 3093 
Q 1294 3584 2113 3584 
Q 2378 3584 2631 3529 
Q 2884 3475 3122 3366 
z
" id="DejaVuSans-63" transform="scale(0.015625)"/>
       <path d="M 1984 4856 
Q 1566 4138 1362 3434 
Q 1159 2731 1159 2009 
Q 1159 1288 1364 580 
Q 1569 -128 1984 -844 
L 1484 -844 
Q 1016 -109 783 600 
Q 550 1309 550 2009 
Q 550 2706 781 3412 
Q 1013 4119 1484 4856 
L 1984 4856 
z
" id="DejaVuSans-28" transform="scale(0.015625)"/>
       <path d="M 3809 666 
L 3809 1919 
L 2778 1919 
L 2778 2438 
L 4434 2438 
L 4434 434 
Q 4069 175 3628 42 
Q 3188 -91 2688 -91 
Q 1594 -91 976 548 
Q 359 1188 359 2328 
Q 359 3472 976 4111 
Q 1594 4750 2688 4750 
Q 3144 4750 3555 4637 
Q 3966 4525 4313 4306 
L 4313 3634 
Q 3963 3931 3569 4081 
Q 3175 4231 2741 4231 
Q 1884 4231 1454 3753 
Q 1025 3275 1025 2328 
Q 1025 1384 1454 906 
Q 1884 428 2741 428 
Q 3075 428 3337 486 
Q 3600 544 3809 666 
z
" id="DejaVuSans-47" transform="scale(0.015625)"/>
       <path d="M 1259 2228 
L 1259 519 
L 2272 519 
Q 2781 519 3026 730 
Q 3272 941 3272 1375 
Q 3272 1813 3026 2020 
Q 2781 2228 2272 2228 
L 1259 2228 
z
M 1259 4147 
L 1259 2741 
L 2194 2741 
Q 2656 2741 2882 2914 
Q 3109 3088 3109 3444 
Q 3109 3797 2882 3972 
Q 2656 4147 2194 4147 
L 1259 4147 
z
M 628 4666 
L 2241 4666 
Q 2963 4666 3353 4366 
Q 3744 4066 3744 3513 
Q 3744 3084 3544 2831 
Q 3344 2578 2956 2516 
Q 3422 2416 3680 2098 
Q 3938 1781 3938 1306 
Q 3938 681 3513 340 
Q 3088 0 2303 0 
L 628 0 
L 628 4666 
z
" id="DejaVuSans-42" transform="scale(0.015625)"/>
       <path d="M 1625 4666 
L 2156 4666 
L 531 -594 
L 0 -594 
L 1625 4666 
z
" id="DejaVuSans-2f" transform="scale(0.015625)"/>
       <path d="M 513 4856 
L 1013 4856 
Q 1481 4119 1714 3412 
Q 1947 2706 1947 2009 
Q 1947 1309 1714 600 
Q 1481 -109 1013 -844 
L 513 -844 
Q 928 -128 1133 580 
Q 1338 1288 1338 2009 
Q 1338 2731 1133 3434 
Q 928 4138 513 4856 
z
" id="DejaVuSans-29" transform="scale(0.015625)"/>
      </defs>
      <use xlink:href="#DejaVuSans-50"/>
      <use x="58.552734" xlink:href="#DejaVuSans-72"/>
      <use x="99.666016" xlink:href="#DejaVuSans-69"/>
      <use x="127.449219" xlink:href="#DejaVuSans-63"/>
      <use x="182.429688" xlink:href="#DejaVuSans-65"/>
      <use x="243.953125" xlink:href="#DejaVuSans-20"/>
      <use x="275.740234" xlink:href="#DejaVuSans-64"/>
      <use x="339.216797" xlink:href="#DejaVuSans-69"/>
      <use x="367" xlink:href="#DejaVuSans-66"/>
      <use x="402.205078" xlink:href="#DejaVuSans-66"/>
      <use x="437.410156" xlink:href="#DejaVuSans-65"/>
      <use x="498.933594" xlink:href="#DejaVuSans-72"/>
      <use x="537.796875" xlink:href="#DejaVuSans-65"/>
      <use x="599.320312" xlink:href="#DejaVuSans-6e"/>
      <use x="662.699219" xlink:href="#DejaVuSans-63"/>
      <use x="717.679688" xlink:href="#DejaVuSans-65"/>
      <use x="779.203125" xlink:href="#DejaVuSans-20"/>
      <use x="810.990234" xlink:href="#DejaVuSans-28"/>
      <use x="850.003906" xlink:href="#DejaVuSans-47"/>
      <use x="927.494141" xlink:href="#DejaVuSans-42"/>
      <use x="996.097656" xlink:href="#DejaVuSans-2f"/>
      <use x="1029.789062" xlink:href="#DejaVuSans-4d"/>
      <use x="1116.068359" xlink:href="#DejaVuSans-57"/>
      <use x="1214.945312" xlink:href="#DejaVuSans-68"/>
      <use x="1278.324219" xlink:href="#DejaVuSans-29"/>
     </g>
    </g>
   </g>
   <g id="line2d_27">
    <path clip-path="url(#pb9d64af991)" d="M 44.783053 213.761844 
L 46.747593 210.280498 
L 48.712133 207.789509 
L 50.676673 212.776862 
L 52.641213 218.158461 
L 54.605753 218.772061 
L 56.570293 219.543953 
L 60.499373 198.187887 
L 64.428453 154.553458 
L 68.357533 140.779906 
L 72.286613 135.659888 
L 76.215693 120.249041 
L 80.144773 113.133852 
L 84.073854 140.463921 
L 89.967474 151.599792 
L 91.932014 155.175365 
L 95.861094 158.789306 
L 99.790174 156.861857 
L 103.719254 159.195965 
L 107.648334 144.8988 
L 111.577414 34.960904 
L 115.506494 62.206735 
L 119.435574 96.660558 
L 123.364655 139.479274 
L 127.293735 144.301222 
L 131.222815 185.491282 
L 135.151895 172.137425 
L 137.116435 183.806517 
L 139.080975 224.622032 
L 143.010055 226.794332 
L 146.939135 229.971034 
L 150.868215 235.276764 
L 154.797295 233.113662 
L 158.726376 191.000724 
L 162.655456 171.400203 
L 166.584536 183.479392 
L 170.513616 134.818798 
L 174.442696 137.493552 
L 178.371776 157.297091 
L 182.300856 163.78573 
L 186.229936 177.477754 
L 190.159016 199.259701 
L 194.088096 200.516012 
L 198.017177 194.688985 
L 201.946257 162.773984 
L 205.875337 84.825618 
L 209.804417 124.907055 
L 213.733497 161.729439 
L 217.662577 161.456163 
L 221.591657 187.434272 
L 225.520737 226.817484 
L 229.449817 223.516756 
L 231.414357 227.843033 
L 233.378897 251.981344 
L 235.343438 251.631317 
L 237.307978 251.076209 
L 241.237058 283.189505 
L 245.166138 286.247553 
L 253.024298 234.475779 
L 256.953378 202.918679 
L 260.882458 200.031279 
L 264.811538 198.402805 
L 268.740618 201.57049 
L 272.669699 202.684554 
L 276.598779 201.992498 
L 280.527859 200.068516 
L 284.456939 193.238196 
L 288.386019 191.009048 
L 292.315099 189.117943 
L 296.244179 172.729768 
L 300.173259 105.196522 
L 304.102339 111.159102 
L 308.031419 147.744185 
L 311.9605 198.140021 
L 315.88958 223.498135 
L 319.81866 242.79228 
L 323.74774 240.734148 
L 325.71228 247.778639 
L 327.67682 252.71226 
L 331.6059 258.667761 
L 335.53498 299.045395 
L 339.46406 298.328339 
L 343.39314 261.774175 
L 347.322221 222.019755 
L 351.251301 168.541876 
L 355.180381 188.453283 
L 359.109461 160.963084 
L 363.038541 151.478765 
L 366.967621 158.358517 
L 370.896701 152.768911 
L 374.825781 163.499194 
L 378.754861 195.168318 
L 382.683941 206.25523 
L 386.613022 200.4712 
L 390.542102 182.73291 
L 394.471182 124.23306 
L 398.400262 161.945857 
L 402.329342 182.699302 
L 406.258422 188.496429 
L 410.187502 240.659372 
L 414.116582 251.458294 
L 418.045662 277.635821 
L 420.010202 286.329739 
L 421.974742 277.827779 
L 425.903823 297.431199 
L 429.832903 311.492536 
L 433.761983 311.932452 
L 437.691063 283.637684 
L 441.620143 248.690414 
L 445.549223 211.519606 
L 449.478303 210.701413 
L 453.407383 197.263814 
L 457.336463 180.772141 
L 461.265544 173.672552 
L 465.194624 183.363529 
L 469.123704 167.384366 
L 473.052784 165.44369 
L 476.981864 147.549313 
L 480.910944 195.754709 
L 484.840024 142.33282 
L 488.769104 38.984162 
L 492.698184 74.488194 
L 496.627264 145.689608 
L 500.556345 179.801525 
L 504.485425 185.780334 
L 508.414505 195.035947 
L 512.343585 145.426108 
L 514.308125 163.468078 
L 516.272665 178.602039 
L 520.201745 234.883834 
L 524.130825 240.382206 
L 528.059905 246.325975 
L 530.024445 247.392896 
L 531.988985 248.318881 
L 535.918066 271.845958 
L 539.847146 251.97595 
L 543.776226 223.352256 
L 547.705306 212.197408 
L 551.634386 218.219482 
L 557.528006 192.034116 
L 559.492546 183.610193 
L 563.421626 183.23787 
L 567.350706 218.188929 
L 571.279786 239.337223 
L 575.208867 234.754716 
L 579.137947 180.444778 
L 583.067027 79.726275 
L 586.996107 92.11299 
L 590.925187 158.086325 
L 594.854267 183.877616 
L 598.783347 217.801208 
L 602.712427 235.776241 
L 606.641507 248.720398 
L 608.606047 250.165127 
L 610.570587 244.692588 
L 614.499668 254.090769 
L 618.428748 273.582718 
L 622.357828 280.540856 
L 626.286908 294.14565 
L 630.215988 294.726887 
L 634.145068 288.38616 
L 638.074148 280.076928 
L 642.003228 245.912344 
L 645.932308 214.759032 
L 649.861389 191.802044 
L 653.790469 178.056945 
L 657.719549 157.167334 
L 661.648629 150.668773 
L 663.613169 148.671471 
L 665.577709 146.843518 
L 669.506789 142.13196 
L 673.435869 100.110517 
L 677.364949 17.711298 
L 681.294029 52.247529 
L 685.223109 98.6966 
L 689.15219 110.010169 
L 693.08127 136.291724 
L 697.01035 188.438535 
L 700.93943 237.256374 
L 702.90397 247.591756 
L 702.90397 247.591756 
" style="fill:none;stroke:#d62728;stroke-dasharray:7.4,3.2;stroke-dashoffset:0;stroke-width:2;"/>
   </g>
   <g id="line2d_28">
    <path clip-path="url(#pb9d64af991)" d="M 44.783053 212.274136 
L 46.747593 220.811735 
L 48.712133 223.572033 
L 52.641213 222.522079 
L 54.605753 223.272688 
L 56.570293 224.32801 
L 58.534833 223.474918 
L 60.499373 219.609315 
L 62.463913 212.834663 
L 68.357533 188.121571 
L 76.215693 160.579015 
L 78.180233 156.163125 
L 80.144773 154.979775 
L 82.109313 157.261141 
L 86.038394 166.235793 
L 88.002934 169.867883 
L 89.967474 172.197934 
L 93.896554 175.325141 
L 95.861094 177.426538 
L 97.825634 180.197687 
L 99.790174 183.487447 
L 101.754714 186.207203 
L 103.719254 185.98346 
L 105.683794 180.101133 
L 107.648334 167.727953 
L 111.577414 131.6788 
L 113.541954 118.516174 
L 115.506494 116.20588 
L 117.471034 126.827753 
L 119.435574 145.680894 
L 121.400115 165.932644 
L 123.364655 181.753874 
L 125.329195 191.232125 
L 131.222815 210.645527 
L 133.187355 213.615638 
L 135.151895 212.173231 
L 137.116435 207.93974 
L 141.045515 223.842323 
L 143.010055 227.315969 
L 144.974595 228.443918 
L 146.939135 229.272242 
L 148.903675 230.280191 
L 150.868215 230.314067 
L 152.832755 227.615722 
L 154.797295 221.697279 
L 156.761835 213.262596 
L 158.726376 204.128062 
L 160.690916 196.012863 
L 162.655456 189.602346 
L 166.584536 178.999453 
L 170.513616 166.161971 
L 172.478156 162.166343 
L 174.442696 162.119223 
L 176.407236 166.230094 
L 180.336316 178.671803 
L 182.300856 183.281298 
L 184.265396 186.249819 
L 186.229936 188.191386 
L 188.194476 189.889606 
L 190.159016 191.88506 
L 192.123556 194.463482 
L 194.088096 197.609478 
L 196.052637 200.244789 
L 198.017177 199.748059 
L 199.981717 192.918808 
L 201.946257 178.392837 
L 205.875337 136.707362 
L 207.839877 123.378824 
L 209.804417 122.434189 
L 211.768957 134.196605 
L 215.698037 172.254073 
L 217.662577 187.067927 
L 219.627117 196.425453 
L 223.556197 210.723496 
L 225.520737 216.704541 
L 227.485277 218.33142 
L 229.449817 215.250812 
L 231.414357 209.964962 
L 233.378897 217.704335 
L 235.343438 224.210198 
L 237.307978 227.536506 
L 241.237058 230.759123 
L 243.201598 232.378 
L 245.166138 232.776381 
L 247.130678 230.082806 
L 249.095218 223.690138 
L 253.024298 204.926859 
L 254.988838 197.579748 
L 256.953378 192.926428 
L 258.917918 189.582857 
L 260.882458 185.035238 
L 262.846998 177.906933 
L 264.811538 170.03349 
L 266.776078 164.668424 
L 268.740618 163.690205 
L 270.705158 167.053265 
L 272.669699 172.458123 
L 274.634239 177.347055 
L 276.598779 180.523315 
L 278.563319 182.312124 
L 280.527859 183.880345 
L 282.492399 186.357594 
L 284.456939 189.968071 
L 288.386019 198.216895 
L 290.350559 200.285077 
L 292.315099 197.841298 
L 294.279639 188.343584 
L 296.244179 171.604459 
L 298.208719 150.347292 
L 300.173259 131.440555 
L 302.137799 122.23823 
L 304.102339 125.342487 
L 306.066879 138.686545 
L 308.031419 155.864874 
L 309.99596 171.013248 
L 311.9605 181.747246 
L 315.88958 196.589444 
L 317.85412 205.292241 
L 319.81866 212.681969 
L 321.7832 215.224975 
L 323.74774 212.748718 
L 325.71228 208.095398 
L 327.67682 214.167184 
L 329.64136 221.639575 
L 331.6059 227.235214 
L 333.57044 231.398509 
L 335.53498 234.368684 
L 337.49952 235.712679 
L 339.46406 234.572963 
L 341.4286 229.986315 
L 343.39314 222.19944 
L 347.322221 202.156753 
L 349.286761 193.730441 
L 351.251301 187.788463 
L 355.180381 180.197064 
L 359.109461 170.922965 
L 361.074001 168.292844 
L 363.038541 168.718257 
L 365.003081 171.992294 
L 366.967621 176.440508 
L 368.932161 180.231055 
L 370.896701 182.454616 
L 372.861241 183.175877 
L 376.790321 183.119216 
L 378.754861 183.934067 
L 380.719401 185.872746 
L 382.683941 188.653958 
L 384.648482 190.799257 
L 386.613022 189.474471 
L 388.577562 181.610238 
L 390.542102 166.359012 
L 392.506642 145.8781 
L 394.471182 126.686622 
L 396.435722 116.128788 
L 398.400262 117.519305 
L 400.364802 130.04551 
L 404.293882 166.888181 
L 406.258422 182.042356 
L 408.222962 193.155093 
L 410.187502 202.047528 
L 412.152042 209.747529 
L 414.116582 214.659982 
L 416.081122 214.780682 
L 418.045662 211.162458 
L 420.010202 206.900446 
L 421.974742 226.316837 
L 423.939283 234.550777 
L 425.903823 241.717653 
L 427.868363 247.617014 
L 429.832903 251.489258 
L 431.797443 252.273343 
L 433.761983 249.272472 
L 435.726523 242.046741 
L 437.691063 231.439854 
L 441.620143 206.337921 
L 443.584683 195.916117 
L 445.549223 188.929642 
L 447.513763 185.259629 
L 449.478303 182.402344 
L 451.442843 178.072603 
L 453.407383 172.785201 
L 455.371923 168.728307 
L 457.336463 167.523242 
L 459.301003 169.455687 
L 461.265544 172.897034 
L 463.230084 175.880554 
L 465.194624 177.602499 
L 467.159164 178.507469 
L 469.123704 179.620152 
L 471.088244 181.88325 
L 473.052784 185.379541 
L 475.017324 189.522036 
L 476.981864 193.37591 
L 478.946404 195.174744 
L 480.910944 192.352302 
L 482.875484 182.501939 
L 484.840024 165.707375 
L 486.804564 145.146853 
L 488.769104 128.000837 
L 490.733644 121.167171 
L 492.698184 125.653218 
L 494.662724 138.292744 
L 496.627264 153.389826 
L 498.591805 166.512851 
L 500.556345 176.42626 
L 506.449965 200.360769 
L 508.414505 206.375195 
L 510.379045 208.032109 
L 512.343585 206.066029 
L 514.308125 203.370024 
L 516.272665 199.569872 
L 518.237205 213.687679 
L 520.201745 226.055782 
L 522.166285 235.154607 
L 524.130825 240.627537 
L 526.095365 242.697195 
L 528.059905 241.88074 
L 530.024445 238.316925 
L 531.988985 232.644245 
L 533.953525 225.498067 
L 535.918066 217.908258 
L 537.882606 211.048373 
L 539.847146 205.875921 
L 543.776226 198.715788 
L 545.740766 193.059238 
L 547.705306 185.914867 
L 549.669846 179.28623 
L 551.634386 175.260605 
L 553.598926 175.028085 
L 555.563466 177.677835 
L 557.528006 181.198474 
L 559.492546 183.686778 
L 561.457086 184.272607 
L 563.421626 183.576649 
L 565.386166 183.08787 
L 567.350706 184.093122 
L 569.315246 187.402447 
L 573.244327 198.377629 
L 575.208867 198.385249 
L 577.173407 187.636227 
L 579.137947 165.694501 
L 581.102487 137.430772 
L 583.067027 113.508425 
L 585.031567 104.410058 
L 586.996107 111.755477 
L 588.960647 130.439947 
L 590.925187 152.02872 
L 592.889727 169.784851 
L 594.854267 181.41008 
L 596.818807 188.601572 
L 598.783347 195.089905 
L 600.747887 202.856108 
L 602.712427 209.965941 
L 604.676967 213.092677 
L 606.641507 211.838749 
L 610.570587 205.166059 
L 612.535128 217.697962 
L 614.499668 229.423091 
L 616.464208 238.215409 
L 618.428748 243.479289 
L 620.393288 245.745173 
L 622.357828 245.984016 
L 624.322368 244.827215 
L 626.286908 243.151193 
L 628.251448 241.265257 
L 630.215988 238.8321 
L 632.180528 235.294211 
L 634.145068 230.590515 
L 636.109608 224.698443 
L 638.074148 216.937367 
L 640.038688 207.128666 
L 642.003228 196.699649 
L 643.967768 187.767104 
L 645.932308 181.603305 
L 647.896848 178.489799 
L 649.861389 177.594777 
L 651.825929 177.813317 
L 653.790469 178.473363 
L 655.755009 179.659321 
L 657.719549 182.02349 
L 659.684089 186.248789 
L 661.648629 192.043224 
L 663.613169 198.443004 
L 665.577709 204.038275 
L 667.542249 206.152661 
L 669.506789 200.78631 
L 671.471329 184.368666 
L 673.435869 157.601894 
L 675.400409 125.944842 
L 677.364949 100.541808 
L 679.329489 92.127034 
L 681.294029 101.560837 
L 683.258569 122.716246 
L 685.223109 146.428819 
L 687.18765 165.511046 
L 689.15219 177.621301 
L 691.11673 184.567666 
L 693.08127 190.170569 
L 695.04581 196.900137 
L 697.01035 204.112555 
L 698.97489 209.28722 
L 700.93943 210.963573 
L 702.90397 209.624959 
L 702.90397 209.624959 
" style="fill:none;stroke:#1f77b4;stroke-linecap:square;stroke-width:1.5;"/>
   </g>
   <g id="patch_3">
    <path d="M 44.783053 326.64351 
L 44.783053 3.00024 
" style="fill:none;stroke:#000000;stroke-linecap:square;stroke-linejoin:miter;stroke-width:0.8;"/>
   </g>
   <g id="patch_4">
    <path d="M 704.86851 326.64351 
L 704.86851 3.00024 
" style="fill:none;stroke:#000000;stroke-linecap:square;stroke-linejoin:miter;stroke-width:0.8;"/>
   </g>
   <g id="patch_5">
    <path d="M 44.783053 326.64351 
L 704.86851 326.64351 
" style="fill:none;stroke:#000000;stroke-linecap:square;stroke-linejoin:miter;stroke-width:0.8;"/>
   </g>
   <g id="patch_6">
    <path d="M 44.783053 3.00024 
L 704.86851 3.00024 
" style="fill:none;stroke:#000000;stroke-linecap:square;stroke-linejoin:miter;stroke-width:0.8;"/>
   </g>
   <g id="legend_1">
    <g id="patch_7">
     <path d="M 208.165625 25.678365 
L 541.485937 25.678365 
L 541.485937 8.00024 
L 208.165625 8.00024 
z
" style="fill:#ffffff;opacity:0.95;stroke:#000000;stroke-linejoin:miter;"/>
    </g>
    <g id="line2d_29">
     <path d="M 212.165625 16.098678 
L 232.165625 16.098678 
" style="fill:none;stroke:#d62728;stroke-dasharray:7.4,3.2;stroke-dashoffset:0;stroke-width:2;"/>
    </g>
    <g id="line2d_30"/>
    <g id="text_16">
     <!-- Actual price difference -->
     <g transform="translate(240.165625 19.598678)scale(0.1 -0.1)">
      <defs>
       <path d="M 2188 4044 
L 1331 1722 
L 3047 1722 
L 2188 4044 
z
M 1831 4666 
L 2547 4666 
L 4325 0 
L 3669 0 
L 3244 1197 
L 1141 1197 
L 716 0 
L 50 0 
L 1831 4666 
z
" id="DejaVuSans-41" transform="scale(0.015625)"/>
       <path d="M 603 4863 
L 1178 4863 
L 1178 0 
L 603 0 
L 603 4863 
z
" id="DejaVuSans-6c" transform="scale(0.015625)"/>
       <path d="M 1159 525 
L 1159 -1331 
L 581 -1331 
L 581 3500 
L 1159 3500 
L 1159 2969 
Q 1341 3281 1617 3432 
Q 1894 3584 2278 3584 
Q 2916 3584 3314 3078 
Q 3713 2572 3713 1747 
Q 3713 922 3314 415 
Q 2916 -91 2278 -91 
Q 1894 -91 1617 61 
Q 1341 213 1159 525 
z
M 3116 1747 
Q 3116 2381 2855 2742 
Q 2594 3103 2138 3103 
Q 1681 3103 1420 2742 
Q 1159 2381 1159 1747 
Q 1159 1113 1420 752 
Q 1681 391 2138 391 
Q 2594 391 2855 752 
Q 3116 1113 3116 1747 
z
" id="DejaVuSans-70" transform="scale(0.015625)"/>
      </defs>
      <use xlink:href="#DejaVuSans-41"/>
      <use x="66.658203" xlink:href="#DejaVuSans-63"/>
      <use x="121.638672" xlink:href="#DejaVuSans-74"/>
      <use x="160.847656" xlink:href="#DejaVuSans-75"/>
      <use x="224.226562" xlink:href="#DejaVuSans-61"/>
      <use x="285.505859" xlink:href="#DejaVuSans-6c"/>
      <use x="313.289062" xlink:href="#DejaVuSans-20"/>
      <use x="345.076172" xlink:href="#DejaVuSans-70"/>
      <use x="408.552734" xlink:href="#DejaVuSans-72"/>
      <use x="449.666016" xlink:href="#DejaVuSans-69"/>
      <use x="477.449219" xlink:href="#DejaVuSans-63"/>
      <use x="532.429688" xlink:href="#DejaVuSans-65"/>
      <use x="593.953125" xlink:href="#DejaVuSans-20"/>
      <use x="625.740234" xlink:href="#DejaVuSans-64"/>
      <use x="689.216797" xlink:href="#DejaVuSans-69"/>
      <use x="717" xlink:href="#DejaVuSans-66"/>
      <use x="752.205078" xlink:href="#DejaVuSans-66"/>
      <use x="787.410156" xlink:href="#DejaVuSans-65"/>
      <use x="848.933594" xlink:href="#DejaVuSans-72"/>
      <use x="887.796875" xlink:href="#DejaVuSans-65"/>
      <use x="949.320312" xlink:href="#DejaVuSans-6e"/>
      <use x="1012.699219" xlink:href="#DejaVuSans-63"/>
      <use x="1067.679688" xlink:href="#DejaVuSans-65"/>
     </g>
    </g>
    <g id="line2d_31">
     <path d="M 373.0875 16.098678 
L 393.0875 16.098678 
" style="fill:none;stroke:#1f77b4;stroke-linecap:square;stroke-width:1.5;"/>
    </g>
    <g id="line2d_32"/>
    <g id="text_17">
     <!-- Forecasted price difference -->
     <g transform="translate(401.0875 19.598678)scale(0.1 -0.1)">
      <defs>
       <path d="M 2834 3397 
L 2834 2853 
Q 2591 2978 2328 3040 
Q 2066 3103 1784 3103 
Q 1356 3103 1142 2972 
Q 928 2841 928 2578 
Q 928 2378 1081 2264 
Q 1234 2150 1697 2047 
L 1894 2003 
Q 2506 1872 2764 1633 
Q 3022 1394 3022 966 
Q 3022 478 2636 193 
Q 2250 -91 1575 -91 
Q 1294 -91 989 -36 
Q 684 19 347 128 
L 347 722 
Q 666 556 975 473 
Q 1284 391 1588 391 
Q 1994 391 2212 530 
Q 2431 669 2431 922 
Q 2431 1156 2273 1281 
Q 2116 1406 1581 1522 
L 1381 1569 
Q 847 1681 609 1914 
Q 372 2147 372 2553 
Q 372 3047 722 3315 
Q 1072 3584 1716 3584 
Q 2034 3584 2315 3537 
Q 2597 3491 2834 3397 
z
" id="DejaVuSans-73" transform="scale(0.015625)"/>
      </defs>
      <use xlink:href="#DejaVuSans-46"/>
      <use x="53.894531" xlink:href="#DejaVuSans-6f"/>
      <use x="115.076172" xlink:href="#DejaVuSans-72"/>
      <use x="153.939453" xlink:href="#DejaVuSans-65"/>
      <use x="215.462891" xlink:href="#DejaVuSans-63"/>
      <use x="270.443359" xlink:href="#DejaVuSans-61"/>
      <use x="331.722656" xlink:href="#DejaVuSans-73"/>
      <use x="383.822266" xlink:href="#DejaVuSans-74"/>
      <use x="423.03125" xlink:href="#DejaVuSans-65"/>
      <use x="484.554688" xlink:href="#DejaVuSans-64"/>
      <use x="548.03125" xlink:href="#DejaVuSans-20"/>
      <use x="579.818359" xlink:href="#DejaVuSans-70"/>
      <use x="643.294922" xlink:href="#DejaVuSans-72"/>
      <use x="684.408203" xlink:href="#DejaVuSans-69"/>
      <use x="712.191406" xlink:href="#DejaVuSans-63"/>
      <use x="767.171875" xlink:href="#DejaVuSans-65"/>
      <use x="828.695312" xlink:href="#DejaVuSans-20"/>
      <use x="860.482422" xlink:href="#DejaVuSans-64"/>
      <use x="923.958984" xlink:href="#DejaVuSans-69"/>
      <use x="951.742188" xlink:href="#DejaVuSans-66"/>
      <use x="986.947266" xlink:href="#DejaVuSans-66"/>
      <use x="1022.152344" xlink:href="#DejaVuSans-65"/>
      <use x="1083.675781" xlink:href="#DejaVuSans-72"/>
      <use x="1122.539062" xlink:href="#DejaVuSans-65"/>
      <use x="1184.0625" xlink:href="#DejaVuSans-6e"/>
      <use x="1247.441406" xlink:href="#DejaVuSans-63"/>
      <use x="1302.421875" xlink:href="#DejaVuSans-65"/>
     </g>
    </g>
   </g>
  </g>
 </g>
 <defs>
  <clipPath id="pb9d64af991">
   <rect height="323.64327" width="660.085457" x="44.783053" y="3.00024"/>
  </clipPath>
 </defs>
</svg>
