<?xml version="1.0" encoding="utf-8" standalone="no"?>
<!DOCTYPE svg PUBLIC "-//W3C//DTD SVG 1.1//EN"
  "http://www.w3.org/Graphics/SVG/1.1/DTD/svg11.dtd">
<svg height="360pt" version="1.1" viewBox="0 0 818.64 360" width="818.64pt" xmlns="http://www.w3.org/2000/svg" xmlns:xlink="http://www.w3.org/1999/xlink">
 <metadata>
  <rdf:RDF xmlns:cc="http://creativecommons.org/ns#" xmlns:dc="http://purl.org/dc/elements/1.1/" xmlns:rdf="http://www.w3.org/1999/02/22-rdf-syntax-ns#">
   <cc:Work>
    <dc:type rdf:resource="http://purl.org/dc/dcmitype/StillImage"/>
    <dc:date>2022-04-21T16:58:34.748755</dc:date>
    <dc:format>image/svg+xml</dc:format>
    <dc:creator>
     <cc:Agent>
      <dc:title>Matplotlib v3.4.3, https://matplotlib.org/</dc:title>
     </cc:Agent>
    </dc:creator>
   </cc:Work>
  </rdf:RDF>
 </metadata>
 <defs>
  <style type="text/css">*{stroke-linecap:butt;stroke-linejoin:round;}</style>
 </defs>
 <g id="figure_1">
  <g id="patch_1">
   <path d="M 0 360 
L 818.64 360 
L 818.64 0 
L 0 0 
z
" style="fill:#ffffff;"/>
  </g>
  <g id="axes_1">
   <g id="patch_2">
    <path d="M 50.918331 326.64351 
L 801.435496 326.64351 
L 801.435496 6.799459 
L 50.918331 6.799459 
z
" style="fill:#ffffff;"/>
   </g>
   <g id="matplotlib.axis_1">
    <g id="xtick_1">
     <g id="line2d_1">
      <path clip-path="url(#p15adc4b3a1)" d="M 50.918331 326.64351 
L 50.918331 6.799459 
" style="fill:none;stroke:#b0b0b0;stroke-linecap:square;stroke-width:0.8;"/>
     </g>
     <g id="line2d_2">
      <defs>
       <path d="M 0 0 
L 0 3.5 
" id="ma7dbbc61e6" style="stroke:#000000;stroke-width:0.8;"/>
      </defs>
      <g>
       <use style="stroke:#000000;stroke-width:0.8;" x="50.918331" xlink:href="#ma7dbbc61e6" y="326.64351"/>
      </g>
     </g>
     <g id="text_1">
      <!-- Mon. -->
      <g transform="translate(38.787081 341.241947)scale(0.1 -0.1)">
       <defs>
        <path d="M 628 4666 
L 1569 4666 
L 2759 1491 
L 3956 4666 
L 4897 4666 
L 4897 0 
L 4281 0 
L 4281 4097 
L 3078 897 
L 2444 897 
L 1241 4097 
L 1241 0 
L 628 0 
L 628 4666 
z
" id="DejaVuSans-4d" transform="scale(0.015625)"/>
        <path d="M 1959 3097 
Q 1497 3097 1228 2736 
Q 959 2375 959 1747 
Q 959 1119 1226 758 
Q 1494 397 1959 397 
Q 2419 397 2687 759 
Q 2956 1122 2956 1747 
Q 2956 2369 2687 2733 
Q 2419 3097 1959 3097 
z
M 1959 3584 
Q 2709 3584 3137 3096 
Q 3566 2609 3566 1747 
Q 3566 888 3137 398 
Q 2709 -91 1959 -91 
Q 1206 -91 779 398 
Q 353 888 353 1747 
Q 353 2609 779 3096 
Q 1206 3584 1959 3584 
z
" id="DejaVuSans-6f" transform="scale(0.015625)"/>
        <path d="M 3513 2113 
L 3513 0 
L 2938 0 
L 2938 2094 
Q 2938 2591 2744 2837 
Q 2550 3084 2163 3084 
Q 1697 3084 1428 2787 
Q 1159 2491 1159 1978 
L 1159 0 
L 581 0 
L 581 3500 
L 1159 3500 
L 1159 2956 
Q 1366 3272 1645 3428 
Q 1925 3584 2291 3584 
Q 2894 3584 3203 3211 
Q 3513 2838 3513 2113 
z
" id="DejaVuSans-6e" transform="scale(0.015625)"/>
        <path d="M 684 794 
L 1344 794 
L 1344 0 
L 684 0 
L 684 794 
z
" id="DejaVuSans-2e" transform="scale(0.015625)"/>
       </defs>
       <use xlink:href="#DejaVuSans-4d"/>
       <use x="86.279297" xlink:href="#DejaVuSans-6f"/>
       <use x="147.460938" xlink:href="#DejaVuSans-6e"/>
       <use x="210.839844" xlink:href="#DejaVuSans-2e"/>
      </g>
     </g>
    </g>
    <g id="xtick_2">
     <g id="line2d_3">
      <path clip-path="url(#p15adc4b3a1)" d="M 158.135069 326.64351 
L 158.135069 6.799459 
" style="fill:none;stroke:#b0b0b0;stroke-linecap:square;stroke-width:0.8;"/>
     </g>
     <g id="line2d_4">
      <g>
       <use style="stroke:#000000;stroke-width:0.8;" x="158.135069" xlink:href="#ma7dbbc61e6" y="326.64351"/>
      </g>
     </g>
     <g id="text_2">
      <!-- Tue. -->
      <g transform="translate(148.003037 341.241947)scale(0.1 -0.1)">
       <defs>
        <path d="M -19 4666 
L 3928 4666 
L 3928 4134 
L 2272 4134 
L 2272 0 
L 1638 0 
L 1638 4134 
L -19 4134 
L -19 4666 
z
" id="DejaVuSans-54" transform="scale(0.015625)"/>
        <path d="M 544 1381 
L 544 3500 
L 1119 3500 
L 1119 1403 
Q 1119 906 1312 657 
Q 1506 409 1894 409 
Q 2359 409 2629 706 
Q 2900 1003 2900 1516 
L 2900 3500 
L 3475 3500 
L 3475 0 
L 2900 0 
L 2900 538 
Q 2691 219 2414 64 
Q 2138 -91 1772 -91 
Q 1169 -91 856 284 
Q 544 659 544 1381 
z
M 1991 3584 
L 1991 3584 
z
" id="DejaVuSans-75" transform="scale(0.015625)"/>
        <path d="M 3597 1894 
L 3597 1613 
L 953 1613 
Q 991 1019 1311 708 
Q 1631 397 2203 397 
Q 2534 397 2845 478 
Q 3156 559 3463 722 
L 3463 178 
Q 3153 47 2828 -22 
Q 2503 -91 2169 -91 
Q 1331 -91 842 396 
Q 353 884 353 1716 
Q 353 2575 817 3079 
Q 1281 3584 2069 3584 
Q 2775 3584 3186 3129 
Q 3597 2675 3597 1894 
z
M 3022 2063 
Q 3016 2534 2758 2815 
Q 2500 3097 2075 3097 
Q 1594 3097 1305 2825 
Q 1016 2553 972 2059 
L 3022 2063 
z
" id="DejaVuSans-65" transform="scale(0.015625)"/>
       </defs>
       <use xlink:href="#DejaVuSans-54"/>
       <use x="45.958984" xlink:href="#DejaVuSans-75"/>
       <use x="109.337891" xlink:href="#DejaVuSans-65"/>
       <use x="170.861328" xlink:href="#DejaVuSans-2e"/>
      </g>
     </g>
    </g>
    <g id="xtick_3">
     <g id="line2d_5">
      <path clip-path="url(#p15adc4b3a1)" d="M 265.351806 326.64351 
L 265.351806 6.799459 
" style="fill:none;stroke:#b0b0b0;stroke-linecap:square;stroke-width:0.8;"/>
     </g>
     <g id="line2d_6">
      <g>
       <use style="stroke:#000000;stroke-width:0.8;" x="265.351806" xlink:href="#ma7dbbc61e6" y="326.64351"/>
      </g>
     </g>
     <g id="text_3">
      <!-- Wed. -->
      <g transform="translate(252.861963 341.241947)scale(0.1 -0.1)">
       <defs>
        <path d="M 213 4666 
L 850 4666 
L 1831 722 
L 2809 4666 
L 3519 4666 
L 4500 722 
L 5478 4666 
L 6119 4666 
L 4947 0 
L 4153 0 
L 3169 4050 
L 2175 0 
L 1381 0 
L 213 4666 
z
" id="DejaVuSans-57" transform="scale(0.015625)"/>
        <path d="M 2906 2969 
L 2906 4863 
L 3481 4863 
L 3481 0 
L 2906 0 
L 2906 525 
Q 2725 213 2448 61 
Q 2172 -91 1784 -91 
Q 1150 -91 751 415 
Q 353 922 353 1747 
Q 353 2572 751 3078 
Q 1150 3584 1784 3584 
Q 2172 3584 2448 3432 
Q 2725 3281 2906 2969 
z
M 947 1747 
Q 947 1113 1208 752 
Q 1469 391 1925 391 
Q 2381 391 2643 752 
Q 2906 1113 2906 1747 
Q 2906 2381 2643 2742 
Q 2381 3103 1925 3103 
Q 1469 3103 1208 2742 
Q 947 2381 947 1747 
z
" id="DejaVuSans-64" transform="scale(0.015625)"/>
       </defs>
       <use xlink:href="#DejaVuSans-57"/>
       <use x="93.001953" xlink:href="#DejaVuSans-65"/>
       <use x="154.525391" xlink:href="#DejaVuSans-64"/>
       <use x="218.001953" xlink:href="#DejaVuSans-2e"/>
      </g>
     </g>
    </g>
    <g id="xtick_4">
     <g id="line2d_7">
      <path clip-path="url(#p15adc4b3a1)" d="M 372.568544 326.64351 
L 372.568544 6.799459 
" style="fill:none;stroke:#b0b0b0;stroke-linecap:square;stroke-width:0.8;"/>
     </g>
     <g id="line2d_8">
      <g>
       <use style="stroke:#000000;stroke-width:0.8;" x="372.568544" xlink:href="#ma7dbbc61e6" y="326.64351"/>
      </g>
     </g>
     <g id="text_4">
      <!-- Thur. -->
      <g transform="translate(359.988857 341.241947)scale(0.1 -0.1)">
       <defs>
        <path d="M 3513 2113 
L 3513 0 
L 2938 0 
L 2938 2094 
Q 2938 2591 2744 2837 
Q 2550 3084 2163 3084 
Q 1697 3084 1428 2787 
Q 1159 2491 1159 1978 
L 1159 0 
L 581 0 
L 581 4863 
L 1159 4863 
L 1159 2956 
Q 1366 3272 1645 3428 
Q 1925 3584 2291 3584 
Q 2894 3584 3203 3211 
Q 3513 2838 3513 2113 
z
" id="DejaVuSans-68" transform="scale(0.015625)"/>
        <path d="M 2631 2963 
Q 2534 3019 2420 3045 
Q 2306 3072 2169 3072 
Q 1681 3072 1420 2755 
Q 1159 2438 1159 1844 
L 1159 0 
L 581 0 
L 581 3500 
L 1159 3500 
L 1159 2956 
Q 1341 3275 1631 3429 
Q 1922 3584 2338 3584 
Q 2397 3584 2469 3576 
Q 2541 3569 2628 3553 
L 2631 2963 
z
" id="DejaVuSans-72" transform="scale(0.015625)"/>
       </defs>
       <use xlink:href="#DejaVuSans-54"/>
       <use x="61.083984" xlink:href="#DejaVuSans-68"/>
       <use x="124.462891" xlink:href="#DejaVuSans-75"/>
       <use x="187.841797" xlink:href="#DejaVuSans-72"/>
       <use x="219.830078" xlink:href="#DejaVuSans-2e"/>
      </g>
     </g>
    </g>
    <g id="xtick_5">
     <g id="line2d_9">
      <path clip-path="url(#p15adc4b3a1)" d="M 479.785282 326.64351 
L 479.785282 6.799459 
" style="fill:none;stroke:#b0b0b0;stroke-linecap:square;stroke-width:0.8;"/>
     </g>
     <g id="line2d_10">
      <g>
       <use style="stroke:#000000;stroke-width:0.8;" x="479.785282" xlink:href="#ma7dbbc61e6" y="326.64351"/>
      </g>
     </g>
     <g id="text_5">
      <!-- Fri. -->
      <g transform="translate(472.238407 341.241947)scale(0.1 -0.1)">
       <defs>
        <path d="M 628 4666 
L 3309 4666 
L 3309 4134 
L 1259 4134 
L 1259 2759 
L 3109 2759 
L 3109 2228 
L 1259 2228 
L 1259 0 
L 628 0 
L 628 4666 
z
" id="DejaVuSans-46" transform="scale(0.015625)"/>
        <path d="M 603 3500 
L 1178 3500 
L 1178 0 
L 603 0 
L 603 3500 
z
M 603 4863 
L 1178 4863 
L 1178 4134 
L 603 4134 
L 603 4863 
z
" id="DejaVuSans-69" transform="scale(0.015625)"/>
       </defs>
       <use xlink:href="#DejaVuSans-46"/>
       <use x="50.269531" xlink:href="#DejaVuSans-72"/>
       <use x="91.382812" xlink:href="#DejaVuSans-69"/>
       <use x="119.166016" xlink:href="#DejaVuSans-2e"/>
      </g>
     </g>
    </g>
    <g id="xtick_6">
     <g id="line2d_11">
      <path clip-path="url(#p15adc4b3a1)" d="M 587.00202 326.64351 
L 587.00202 6.799459 
" style="fill:none;stroke:#b0b0b0;stroke-linecap:square;stroke-width:0.8;"/>
     </g>
     <g id="line2d_12">
      <g>
       <use style="stroke:#000000;stroke-width:0.8;" x="587.00202" xlink:href="#ma7dbbc61e6" y="326.64351"/>
      </g>
     </g>
     <g id="text_6">
      <!-- Sat. -->
      <g transform="translate(577.21452 341.241947)scale(0.1 -0.1)">
       <defs>
        <path d="M 3425 4513 
L 3425 3897 
Q 3066 4069 2747 4153 
Q 2428 4238 2131 4238 
Q 1616 4238 1336 4038 
Q 1056 3838 1056 3469 
Q 1056 3159 1242 3001 
Q 1428 2844 1947 2747 
L 2328 2669 
Q 3034 2534 3370 2195 
Q 3706 1856 3706 1288 
Q 3706 609 3251 259 
Q 2797 -91 1919 -91 
Q 1588 -91 1214 -16 
Q 841 59 441 206 
L 441 856 
Q 825 641 1194 531 
Q 1563 422 1919 422 
Q 2459 422 2753 634 
Q 3047 847 3047 1241 
Q 3047 1584 2836 1778 
Q 2625 1972 2144 2069 
L 1759 2144 
Q 1053 2284 737 2584 
Q 422 2884 422 3419 
Q 422 4038 858 4394 
Q 1294 4750 2059 4750 
Q 2388 4750 2728 4690 
Q 3069 4631 3425 4513 
z
" id="DejaVuSans-53" transform="scale(0.015625)"/>
        <path d="M 2194 1759 
Q 1497 1759 1228 1600 
Q 959 1441 959 1056 
Q 959 750 1161 570 
Q 1363 391 1709 391 
Q 2188 391 2477 730 
Q 2766 1069 2766 1631 
L 2766 1759 
L 2194 1759 
z
M 3341 1997 
L 3341 0 
L 2766 0 
L 2766 531 
Q 2569 213 2275 61 
Q 1981 -91 1556 -91 
Q 1019 -91 701 211 
Q 384 513 384 1019 
Q 384 1609 779 1909 
Q 1175 2209 1959 2209 
L 2766 2209 
L 2766 2266 
Q 2766 2663 2505 2880 
Q 2244 3097 1772 3097 
Q 1472 3097 1187 3025 
Q 903 2953 641 2809 
L 641 3341 
Q 956 3463 1253 3523 
Q 1550 3584 1831 3584 
Q 2591 3584 2966 3190 
Q 3341 2797 3341 1997 
z
" id="DejaVuSans-61" transform="scale(0.015625)"/>
        <path d="M 1172 4494 
L 1172 3500 
L 2356 3500 
L 2356 3053 
L 1172 3053 
L 1172 1153 
Q 1172 725 1289 603 
Q 1406 481 1766 481 
L 2356 481 
L 2356 0 
L 1766 0 
Q 1100 0 847 248 
Q 594 497 594 1153 
L 594 3053 
L 172 3053 
L 172 3500 
L 594 3500 
L 594 4494 
L 1172 4494 
z
" id="DejaVuSans-74" transform="scale(0.015625)"/>
       </defs>
       <use xlink:href="#DejaVuSans-53"/>
       <use x="63.476562" xlink:href="#DejaVuSans-61"/>
       <use x="124.755859" xlink:href="#DejaVuSans-74"/>
       <use x="163.964844" xlink:href="#DejaVuSans-2e"/>
      </g>
     </g>
    </g>
    <g id="xtick_7">
     <g id="line2d_13">
      <path clip-path="url(#p15adc4b3a1)" d="M 694.218758 326.64351 
L 694.218758 6.799459 
" style="fill:none;stroke:#b0b0b0;stroke-linecap:square;stroke-width:0.8;"/>
     </g>
     <g id="line2d_14">
      <g>
       <use style="stroke:#000000;stroke-width:0.8;" x="694.218758" xlink:href="#ma7dbbc61e6" y="326.64351"/>
      </g>
     </g>
     <g id="text_7">
      <!-- Sun. -->
      <g transform="translate(683.117977 341.241947)scale(0.1 -0.1)">
       <use xlink:href="#DejaVuSans-53"/>
       <use x="63.476562" xlink:href="#DejaVuSans-75"/>
       <use x="126.855469" xlink:href="#DejaVuSans-6e"/>
       <use x="190.234375" xlink:href="#DejaVuSans-2e"/>
      </g>
     </g>
    </g>
    <g id="xtick_8">
     <g id="line2d_15">
      <path clip-path="url(#p15adc4b3a1)" d="M 801.435496 326.64351 
L 801.435496 6.799459 
" style="fill:none;stroke:#b0b0b0;stroke-linecap:square;stroke-width:0.8;"/>
     </g>
     <g id="line2d_16">
      <g>
       <use style="stroke:#000000;stroke-width:0.8;" x="801.435496" xlink:href="#ma7dbbc61e6" y="326.64351"/>
      </g>
     </g>
     <g id="text_8">
      <!-- Mon. -->
      <g transform="translate(789.304246 341.241947)scale(0.1 -0.1)">
       <use xlink:href="#DejaVuSans-4d"/>
       <use x="86.279297" xlink:href="#DejaVuSans-6f"/>
       <use x="147.460938" xlink:href="#DejaVuSans-6e"/>
       <use x="210.839844" xlink:href="#DejaVuSans-2e"/>
      </g>
     </g>
    </g>
    <g id="text_9">
     <!-- Day of the week -->
     <g transform="translate(385.373788 354.920073)scale(0.1 -0.1)">
      <defs>
       <path d="M 1259 4147 
L 1259 519 
L 2022 519 
Q 2988 519 3436 956 
Q 3884 1394 3884 2338 
Q 3884 3275 3436 3711 
Q 2988 4147 2022 4147 
L 1259 4147 
z
M 628 4666 
L 1925 4666 
Q 3281 4666 3915 4102 
Q 4550 3538 4550 2338 
Q 4550 1131 3912 565 
Q 3275 0 1925 0 
L 628 0 
L 628 4666 
z
" id="DejaVuSans-44" transform="scale(0.015625)"/>
       <path d="M 2059 -325 
Q 1816 -950 1584 -1140 
Q 1353 -1331 966 -1331 
L 506 -1331 
L 506 -850 
L 844 -850 
Q 1081 -850 1212 -737 
Q 1344 -625 1503 -206 
L 1606 56 
L 191 3500 
L 800 3500 
L 1894 763 
L 2988 3500 
L 3597 3500 
L 2059 -325 
z
" id="DejaVuSans-79" transform="scale(0.015625)"/>
       <path id="DejaVuSans-20" transform="scale(0.015625)"/>
       <path d="M 2375 4863 
L 2375 4384 
L 1825 4384 
Q 1516 4384 1395 4259 
Q 1275 4134 1275 3809 
L 1275 3500 
L 2222 3500 
L 2222 3053 
L 1275 3053 
L 1275 0 
L 697 0 
L 697 3053 
L 147 3053 
L 147 3500 
L 697 3500 
L 697 3744 
Q 697 4328 969 4595 
Q 1241 4863 1831 4863 
L 2375 4863 
z
" id="DejaVuSans-66" transform="scale(0.015625)"/>
       <path d="M 269 3500 
L 844 3500 
L 1563 769 
L 2278 3500 
L 2956 3500 
L 3675 769 
L 4391 3500 
L 4966 3500 
L 4050 0 
L 3372 0 
L 2619 2869 
L 1863 0 
L 1184 0 
L 269 3500 
z
" id="DejaVuSans-77" transform="scale(0.015625)"/>
       <path d="M 581 4863 
L 1159 4863 
L 1159 1991 
L 2875 3500 
L 3609 3500 
L 1753 1863 
L 3688 0 
L 2938 0 
L 1159 1709 
L 1159 0 
L 581 0 
L 581 4863 
z
" id="DejaVuSans-6b" transform="scale(0.015625)"/>
      </defs>
      <use xlink:href="#DejaVuSans-44"/>
      <use x="77.001953" xlink:href="#DejaVuSans-61"/>
      <use x="138.28125" xlink:href="#DejaVuSans-79"/>
      <use x="197.460938" xlink:href="#DejaVuSans-20"/>
      <use x="229.248047" xlink:href="#DejaVuSans-6f"/>
      <use x="290.429688" xlink:href="#DejaVuSans-66"/>
      <use x="325.634766" xlink:href="#DejaVuSans-20"/>
      <use x="357.421875" xlink:href="#DejaVuSans-74"/>
      <use x="396.630859" xlink:href="#DejaVuSans-68"/>
      <use x="460.009766" xlink:href="#DejaVuSans-65"/>
      <use x="521.533203" xlink:href="#DejaVuSans-20"/>
      <use x="553.320312" xlink:href="#DejaVuSans-77"/>
      <use x="635.107422" xlink:href="#DejaVuSans-65"/>
      <use x="696.630859" xlink:href="#DejaVuSans-65"/>
      <use x="758.154297" xlink:href="#DejaVuSans-6b"/>
     </g>
    </g>
   </g>
   <g id="matplotlib.axis_2">
    <g id="ytick_1">
     <g id="line2d_17">
      <path clip-path="url(#p15adc4b3a1)" d="M 50.918331 326.64351 
L 801.435496 326.64351 
" style="fill:none;stroke:#b0b0b0;stroke-linecap:square;stroke-width:0.8;"/>
     </g>
     <g id="line2d_18">
      <defs>
       <path d="M 0 0 
L -3.5 0 
" id="me28f66ea8a" style="stroke:#000000;stroke-width:0.8;"/>
      </defs>
      <g>
       <use style="stroke:#000000;stroke-width:0.8;" x="50.918331" xlink:href="#me28f66ea8a" y="326.64351"/>
      </g>
     </g>
     <g id="text_10">
      <!-- −20 -->
      <g transform="translate(22.813643 330.442729)scale(0.1 -0.1)">
       <defs>
        <path d="M 678 2272 
L 4684 2272 
L 4684 1741 
L 678 1741 
L 678 2272 
z
" id="DejaVuSans-2212" transform="scale(0.015625)"/>
        <path d="M 1228 531 
L 3431 531 
L 3431 0 
L 469 0 
L 469 531 
Q 828 903 1448 1529 
Q 2069 2156 2228 2338 
Q 2531 2678 2651 2914 
Q 2772 3150 2772 3378 
Q 2772 3750 2511 3984 
Q 2250 4219 1831 4219 
Q 1534 4219 1204 4116 
Q 875 4013 500 3803 
L 500 4441 
Q 881 4594 1212 4672 
Q 1544 4750 1819 4750 
Q 2544 4750 2975 4387 
Q 3406 4025 3406 3419 
Q 3406 3131 3298 2873 
Q 3191 2616 2906 2266 
Q 2828 2175 2409 1742 
Q 1991 1309 1228 531 
z
" id="DejaVuSans-32" transform="scale(0.015625)"/>
        <path d="M 2034 4250 
Q 1547 4250 1301 3770 
Q 1056 3291 1056 2328 
Q 1056 1369 1301 889 
Q 1547 409 2034 409 
Q 2525 409 2770 889 
Q 3016 1369 3016 2328 
Q 3016 3291 2770 3770 
Q 2525 4250 2034 4250 
z
M 2034 4750 
Q 2819 4750 3233 4129 
Q 3647 3509 3647 2328 
Q 3647 1150 3233 529 
Q 2819 -91 2034 -91 
Q 1250 -91 836 529 
Q 422 1150 422 2328 
Q 422 3509 836 4129 
Q 1250 4750 2034 4750 
z
" id="DejaVuSans-30" transform="scale(0.015625)"/>
       </defs>
       <use xlink:href="#DejaVuSans-2212"/>
       <use x="83.789062" xlink:href="#DejaVuSans-32"/>
       <use x="147.412109" xlink:href="#DejaVuSans-30"/>
      </g>
     </g>
    </g>
    <g id="ytick_2">
     <g id="line2d_19">
      <path clip-path="url(#p15adc4b3a1)" d="M 50.918331 273.336168 
L 801.435496 273.336168 
" style="fill:none;stroke:#b0b0b0;stroke-linecap:square;stroke-width:0.8;"/>
     </g>
     <g id="line2d_20">
      <g>
       <use style="stroke:#000000;stroke-width:0.8;" x="50.918331" xlink:href="#me28f66ea8a" y="273.336168"/>
      </g>
     </g>
     <g id="text_11">
      <!-- 0 -->
      <g transform="translate(37.555831 277.135387)scale(0.1 -0.1)">
       <use xlink:href="#DejaVuSans-30"/>
      </g>
     </g>
    </g>
    <g id="ytick_3">
     <g id="line2d_21">
      <path clip-path="url(#p15adc4b3a1)" d="M 50.918331 220.028826 
L 801.435496 220.028826 
" style="fill:none;stroke:#b0b0b0;stroke-linecap:square;stroke-width:0.8;"/>
     </g>
     <g id="line2d_22">
      <g>
       <use style="stroke:#000000;stroke-width:0.8;" x="50.918331" xlink:href="#me28f66ea8a" y="220.028826"/>
      </g>
     </g>
     <g id="text_12">
      <!-- 20 -->
      <g transform="translate(31.193331 223.828045)scale(0.1 -0.1)">
       <use xlink:href="#DejaVuSans-32"/>
       <use x="63.623047" xlink:href="#DejaVuSans-30"/>
      </g>
     </g>
    </g>
    <g id="ytick_4">
     <g id="line2d_23">
      <path clip-path="url(#p15adc4b3a1)" d="M 50.918331 166.721484 
L 801.435496 166.721484 
" style="fill:none;stroke:#b0b0b0;stroke-linecap:square;stroke-width:0.8;"/>
     </g>
     <g id="line2d_24">
      <g>
       <use style="stroke:#000000;stroke-width:0.8;" x="50.918331" xlink:href="#me28f66ea8a" y="166.721484"/>
      </g>
     </g>
     <g id="text_13">
      <!-- 40 -->
      <g transform="translate(31.193331 170.520703)scale(0.1 -0.1)">
       <defs>
        <path d="M 2419 4116 
L 825 1625 
L 2419 1625 
L 2419 4116 
z
M 2253 4666 
L 3047 4666 
L 3047 1625 
L 3713 1625 
L 3713 1100 
L 3047 1100 
L 3047 0 
L 2419 0 
L 2419 1100 
L 313 1100 
L 313 1709 
L 2253 4666 
z
" id="DejaVuSans-34" transform="scale(0.015625)"/>
       </defs>
       <use xlink:href="#DejaVuSans-34"/>
       <use x="63.623047" xlink:href="#DejaVuSans-30"/>
      </g>
     </g>
    </g>
    <g id="ytick_5">
     <g id="line2d_25">
      <path clip-path="url(#p15adc4b3a1)" d="M 50.918331 113.414142 
L 801.435496 113.414142 
" style="fill:none;stroke:#b0b0b0;stroke-linecap:square;stroke-width:0.8;"/>
     </g>
     <g id="line2d_26">
      <g>
       <use style="stroke:#000000;stroke-width:0.8;" x="50.918331" xlink:href="#me28f66ea8a" y="113.414142"/>
      </g>
     </g>
     <g id="text_14">
      <!-- 60 -->
      <g transform="translate(31.193331 117.213361)scale(0.1 -0.1)">
       <defs>
        <path d="M 2113 2584 
Q 1688 2584 1439 2293 
Q 1191 2003 1191 1497 
Q 1191 994 1439 701 
Q 1688 409 2113 409 
Q 2538 409 2786 701 
Q 3034 994 3034 1497 
Q 3034 2003 2786 2293 
Q 2538 2584 2113 2584 
z
M 3366 4563 
L 3366 3988 
Q 3128 4100 2886 4159 
Q 2644 4219 2406 4219 
Q 1781 4219 1451 3797 
Q 1122 3375 1075 2522 
Q 1259 2794 1537 2939 
Q 1816 3084 2150 3084 
Q 2853 3084 3261 2657 
Q 3669 2231 3669 1497 
Q 3669 778 3244 343 
Q 2819 -91 2113 -91 
Q 1303 -91 875 529 
Q 447 1150 447 2328 
Q 447 3434 972 4092 
Q 1497 4750 2381 4750 
Q 2619 4750 2861 4703 
Q 3103 4656 3366 4563 
z
" id="DejaVuSans-36" transform="scale(0.015625)"/>
       </defs>
       <use xlink:href="#DejaVuSans-36"/>
       <use x="63.623047" xlink:href="#DejaVuSans-30"/>
      </g>
     </g>
    </g>
    <g id="ytick_6">
     <g id="line2d_27">
      <path clip-path="url(#p15adc4b3a1)" d="M 50.918331 60.106801 
L 801.435496 60.106801 
" style="fill:none;stroke:#b0b0b0;stroke-linecap:square;stroke-width:0.8;"/>
     </g>
     <g id="line2d_28">
      <g>
       <use style="stroke:#000000;stroke-width:0.8;" x="50.918331" xlink:href="#me28f66ea8a" y="60.106801"/>
      </g>
     </g>
     <g id="text_15">
      <!-- 80 -->
      <g transform="translate(31.193331 63.906019)scale(0.1 -0.1)">
       <defs>
        <path d="M 2034 2216 
Q 1584 2216 1326 1975 
Q 1069 1734 1069 1313 
Q 1069 891 1326 650 
Q 1584 409 2034 409 
Q 2484 409 2743 651 
Q 3003 894 3003 1313 
Q 3003 1734 2745 1975 
Q 2488 2216 2034 2216 
z
M 1403 2484 
Q 997 2584 770 2862 
Q 544 3141 544 3541 
Q 544 4100 942 4425 
Q 1341 4750 2034 4750 
Q 2731 4750 3128 4425 
Q 3525 4100 3525 3541 
Q 3525 3141 3298 2862 
Q 3072 2584 2669 2484 
Q 3125 2378 3379 2068 
Q 3634 1759 3634 1313 
Q 3634 634 3220 271 
Q 2806 -91 2034 -91 
Q 1263 -91 848 271 
Q 434 634 434 1313 
Q 434 1759 690 2068 
Q 947 2378 1403 2484 
z
M 1172 3481 
Q 1172 3119 1398 2916 
Q 1625 2713 2034 2713 
Q 2441 2713 2670 2916 
Q 2900 3119 2900 3481 
Q 2900 3844 2670 4047 
Q 2441 4250 2034 4250 
Q 1625 4250 1398 4047 
Q 1172 3844 1172 3481 
z
" id="DejaVuSans-38" transform="scale(0.015625)"/>
       </defs>
       <use xlink:href="#DejaVuSans-38"/>
       <use x="63.623047" xlink:href="#DejaVuSans-30"/>
      </g>
     </g>
    </g>
    <g id="ytick_7">
     <g id="line2d_29">
      <path clip-path="url(#p15adc4b3a1)" d="M 50.918331 6.799459 
L 801.435496 6.799459 
" style="fill:none;stroke:#b0b0b0;stroke-linecap:square;stroke-width:0.8;"/>
     </g>
     <g id="line2d_30">
      <g>
       <use style="stroke:#000000;stroke-width:0.8;" x="50.918331" xlink:href="#me28f66ea8a" y="6.799459"/>
      </g>
     </g>
     <g id="text_16">
      <!-- 100 -->
      <g transform="translate(24.830831 10.598678)scale(0.1 -0.1)">
       <defs>
        <path d="M 794 531 
L 1825 531 
L 1825 4091 
L 703 3866 
L 703 4441 
L 1819 4666 
L 2450 4666 
L 2450 531 
L 3481 531 
L 3481 0 
L 794 0 
L 794 531 
z
" id="DejaVuSans-31" transform="scale(0.015625)"/>
       </defs>
       <use xlink:href="#DejaVuSans-31"/>
       <use x="63.623047" xlink:href="#DejaVuSans-30"/>
       <use x="127.246094" xlink:href="#DejaVuSans-30"/>
      </g>
     </g>
    </g>
    <g id="text_17">
     <!-- N2EX day-ahead auction electricity price (GB/MWh) -->
     <g transform="translate(16.733956 295.709766)rotate(-90)scale(0.1 -0.1)">
      <defs>
       <path d="M 628 4666 
L 1478 4666 
L 3547 763 
L 3547 4666 
L 4159 4666 
L 4159 0 
L 3309 0 
L 1241 3903 
L 1241 0 
L 628 0 
L 628 4666 
z
" id="DejaVuSans-4e" transform="scale(0.015625)"/>
       <path d="M 628 4666 
L 3578 4666 
L 3578 4134 
L 1259 4134 
L 1259 2753 
L 3481 2753 
L 3481 2222 
L 1259 2222 
L 1259 531 
L 3634 531 
L 3634 0 
L 628 0 
L 628 4666 
z
" id="DejaVuSans-45" transform="scale(0.015625)"/>
       <path d="M 403 4666 
L 1081 4666 
L 2241 2931 
L 3406 4666 
L 4084 4666 
L 2584 2425 
L 4184 0 
L 3506 0 
L 2194 1984 
L 872 0 
L 191 0 
L 1856 2491 
L 403 4666 
z
" id="DejaVuSans-58" transform="scale(0.015625)"/>
       <path d="M 313 2009 
L 1997 2009 
L 1997 1497 
L 313 1497 
L 313 2009 
z
" id="DejaVuSans-2d" transform="scale(0.015625)"/>
       <path d="M 3122 3366 
L 3122 2828 
Q 2878 2963 2633 3030 
Q 2388 3097 2138 3097 
Q 1578 3097 1268 2742 
Q 959 2388 959 1747 
Q 959 1106 1268 751 
Q 1578 397 2138 397 
Q 2388 397 2633 464 
Q 2878 531 3122 666 
L 3122 134 
Q 2881 22 2623 -34 
Q 2366 -91 2075 -91 
Q 1284 -91 818 406 
Q 353 903 353 1747 
Q 353 2603 823 3093 
Q 1294 3584 2113 3584 
Q 2378 3584 2631 3529 
Q 2884 3475 3122 3366 
z
" id="DejaVuSans-63" transform="scale(0.015625)"/>
       <path d="M 603 4863 
L 1178 4863 
L 1178 0 
L 603 0 
L 603 4863 
z
" id="DejaVuSans-6c" transform="scale(0.015625)"/>
       <path d="M 1159 525 
L 1159 -1331 
L 581 -1331 
L 581 3500 
L 1159 3500 
L 1159 2969 
Q 1341 3281 1617 3432 
Q 1894 3584 2278 3584 
Q 2916 3584 3314 3078 
Q 3713 2572 3713 1747 
Q 3713 922 3314 415 
Q 2916 -91 2278 -91 
Q 1894 -91 1617 61 
Q 1341 213 1159 525 
z
M 3116 1747 
Q 3116 2381 2855 2742 
Q 2594 3103 2138 3103 
Q 1681 3103 1420 2742 
Q 1159 2381 1159 1747 
Q 1159 1113 1420 752 
Q 1681 391 2138 391 
Q 2594 391 2855 752 
Q 3116 1113 3116 1747 
z
" id="DejaVuSans-70" transform="scale(0.015625)"/>
       <path d="M 1984 4856 
Q 1566 4138 1362 3434 
Q 1159 2731 1159 2009 
Q 1159 1288 1364 580 
Q 1569 -128 1984 -844 
L 1484 -844 
Q 1016 -109 783 600 
Q 550 1309 550 2009 
Q 550 2706 781 3412 
Q 1013 4119 1484 4856 
L 1984 4856 
z
" id="DejaVuSans-28" transform="scale(0.015625)"/>
       <path d="M 3809 666 
L 3809 1919 
L 2778 1919 
L 2778 2438 
L 4434 2438 
L 4434 434 
Q 4069 175 3628 42 
Q 3188 -91 2688 -91 
Q 1594 -91 976 548 
Q 359 1188 359 2328 
Q 359 3472 976 4111 
Q 1594 4750 2688 4750 
Q 3144 4750 3555 4637 
Q 3966 4525 4313 4306 
L 4313 3634 
Q 3963 3931 3569 4081 
Q 3175 4231 2741 4231 
Q 1884 4231 1454 3753 
Q 1025 3275 1025 2328 
Q 1025 1384 1454 906 
Q 1884 428 2741 428 
Q 3075 428 3337 486 
Q 3600 544 3809 666 
z
" id="DejaVuSans-47" transform="scale(0.015625)"/>
       <path d="M 1259 2228 
L 1259 519 
L 2272 519 
Q 2781 519 3026 730 
Q 3272 941 3272 1375 
Q 3272 1813 3026 2020 
Q 2781 2228 2272 2228 
L 1259 2228 
z
M 1259 4147 
L 1259 2741 
L 2194 2741 
Q 2656 2741 2882 2914 
Q 3109 3088 3109 3444 
Q 3109 3797 2882 3972 
Q 2656 4147 2194 4147 
L 1259 4147 
z
M 628 4666 
L 2241 4666 
Q 2963 4666 3353 4366 
Q 3744 4066 3744 3513 
Q 3744 3084 3544 2831 
Q 3344 2578 2956 2516 
Q 3422 2416 3680 2098 
Q 3938 1781 3938 1306 
Q 3938 681 3513 340 
Q 3088 0 2303 0 
L 628 0 
L 628 4666 
z
" id="DejaVuSans-42" transform="scale(0.015625)"/>
       <path d="M 1625 4666 
L 2156 4666 
L 531 -594 
L 0 -594 
L 1625 4666 
z
" id="DejaVuSans-2f" transform="scale(0.015625)"/>
       <path d="M 513 4856 
L 1013 4856 
Q 1481 4119 1714 3412 
Q 1947 2706 1947 2009 
Q 1947 1309 1714 600 
Q 1481 -109 1013 -844 
L 513 -844 
Q 928 -128 1133 580 
Q 1338 1288 1338 2009 
Q 1338 2731 1133 3434 
Q 928 4138 513 4856 
z
" id="DejaVuSans-29" transform="scale(0.015625)"/>
      </defs>
      <use xlink:href="#DejaVuSans-4e"/>
      <use x="74.804688" xlink:href="#DejaVuSans-32"/>
      <use x="138.427734" xlink:href="#DejaVuSans-45"/>
      <use x="201.611328" xlink:href="#DejaVuSans-58"/>
      <use x="270.117188" xlink:href="#DejaVuSans-20"/>
      <use x="301.904297" xlink:href="#DejaVuSans-64"/>
      <use x="365.380859" xlink:href="#DejaVuSans-61"/>
      <use x="426.660156" xlink:href="#DejaVuSans-79"/>
      <use x="484.089844" xlink:href="#DejaVuSans-2d"/>
      <use x="520.173828" xlink:href="#DejaVuSans-61"/>
      <use x="581.453125" xlink:href="#DejaVuSans-68"/>
      <use x="644.832031" xlink:href="#DejaVuSans-65"/>
      <use x="706.355469" xlink:href="#DejaVuSans-61"/>
      <use x="767.634766" xlink:href="#DejaVuSans-64"/>
      <use x="831.111328" xlink:href="#DejaVuSans-20"/>
      <use x="862.898438" xlink:href="#DejaVuSans-61"/>
      <use x="924.177734" xlink:href="#DejaVuSans-75"/>
      <use x="987.556641" xlink:href="#DejaVuSans-63"/>
      <use x="1042.537109" xlink:href="#DejaVuSans-74"/>
      <use x="1081.746094" xlink:href="#DejaVuSans-69"/>
      <use x="1109.529297" xlink:href="#DejaVuSans-6f"/>
      <use x="1170.710938" xlink:href="#DejaVuSans-6e"/>
      <use x="1234.089844" xlink:href="#DejaVuSans-20"/>
      <use x="1265.876953" xlink:href="#DejaVuSans-65"/>
      <use x="1327.400391" xlink:href="#DejaVuSans-6c"/>
      <use x="1355.183594" xlink:href="#DejaVuSans-65"/>
      <use x="1416.707031" xlink:href="#DejaVuSans-63"/>
      <use x="1471.6875" xlink:href="#DejaVuSans-74"/>
      <use x="1510.896484" xlink:href="#DejaVuSans-72"/>
      <use x="1552.009766" xlink:href="#DejaVuSans-69"/>
      <use x="1579.792969" xlink:href="#DejaVuSans-63"/>
      <use x="1634.773438" xlink:href="#DejaVuSans-69"/>
      <use x="1662.556641" xlink:href="#DejaVuSans-74"/>
      <use x="1701.765625" xlink:href="#DejaVuSans-79"/>
      <use x="1760.945312" xlink:href="#DejaVuSans-20"/>
      <use x="1792.732422" xlink:href="#DejaVuSans-70"/>
      <use x="1856.208984" xlink:href="#DejaVuSans-72"/>
      <use x="1897.322266" xlink:href="#DejaVuSans-69"/>
      <use x="1925.105469" xlink:href="#DejaVuSans-63"/>
      <use x="1980.085938" xlink:href="#DejaVuSans-65"/>
      <use x="2041.609375" xlink:href="#DejaVuSans-20"/>
      <use x="2073.396484" xlink:href="#DejaVuSans-28"/>
      <use x="2112.410156" xlink:href="#DejaVuSans-47"/>
      <use x="2189.900391" xlink:href="#DejaVuSans-42"/>
      <use x="2258.503906" xlink:href="#DejaVuSans-2f"/>
      <use x="2292.195312" xlink:href="#DejaVuSans-4d"/>
      <use x="2378.474609" xlink:href="#DejaVuSans-57"/>
      <use x="2477.351562" xlink:href="#DejaVuSans-68"/>
      <use x="2540.730469" xlink:href="#DejaVuSans-29"/>
     </g>
    </g>
   </g>
   <g id="line2d_31">
    <path clip-path="url(#p15adc4b3a1)" d="M 50.918331 221.36151 
L 55.385695 218.429606 
L 59.853059 226.452361 
L 64.320423 226.452361 
L 68.787787 207.954713 
L 73.255151 171.572452 
L 77.722515 159.098534 
L 82.189879 153.634532 
L 86.657243 140.04116 
L 91.124607 133.137859 
L 95.591971 153.7678 
L 100.059336 158.565461 
L 104.5267 162.910009 
L 108.994064 164.375961 
L 113.461428 161.39075 
L 117.928792 161.870516 
L 122.396156 149.210023 
L 126.86352 60.346684 
L 131.330884 81.429737 
L 135.798248 108.616482 
L 140.265612 142.839795 
L 144.732976 146.997768 
L 149.20034 180.34151 
L 153.667704 169.600081 
L 158.135069 186.258625 
L 162.602433 188.044421 
L 167.069797 190.57652 
L 171.537161 194.974376 
L 176.004525 193.561731 
L 180.471889 160.29795 
L 184.939253 145.025396 
L 189.406617 155.020523 
L 193.873981 116.399354 
L 198.341345 118.744877 
L 202.808709 134.737079 
L 207.276073 140.067813 
L 211.743438 151.155741 
L 216.210802 168.72051 
L 220.678166 169.893271 
L 225.14553 165.415454 
L 229.612894 140.094467 
L 234.080258 77.991414 
L 238.547622 110.242356 
L 243.014986 139.934545 
L 247.48235 140.067813 
L 251.949714 161.310789 
L 256.417078 193.375155 
L 260.884442 191.242862 
L 265.351806 198.226123 
L 269.819171 197.559782 
L 274.286535 223.76034 
L 278.753899 226.932127 
L 285.454945 197.053362 
L 287.688627 186.924967 
L 292.155991 162.217014 
L 296.623355 160.324603 
L 301.090719 159.391725 
L 305.558083 162.296975 
L 310.025447 163.603005 
L 314.492811 163.523044 
L 318.960175 162.510204 
L 323.427539 157.605929 
L 327.894904 156.37986 
L 332.362268 155.393674 
L 336.829632 142.759834 
L 341.296996 89.159302 
L 345.76436 94.196846 
L 350.231724 123.622498 
L 354.699088 164.056117 
L 359.166452 184.526137 
L 363.633816 200.251802 
L 368.10118 198.972426 
L 372.568544 210.646734 
L 377.035908 214.83136 
L 381.503272 246.682497 
L 385.970637 245.802926 
L 390.438001 216.35062 
L 394.905365 184.366215 
L 399.372729 141.400497 
L 403.840093 157.046202 
L 408.307457 134.737079 
L 412.774821 126.740978 
L 417.242185 131.751868 
L 421.709549 126.740978 
L 426.176913 134.737079 
L 430.644277 159.445032 
L 435.111641 167.681017 
L 439.579006 162.40359 
L 444.04637 147.530841 
L 448.513734 100.034 
L 452.981098 129.406345 
L 457.448462 145.238626 
L 461.915826 149.210023 
L 466.38319 190.443252 
L 470.850554 198.945773 
L 475.317918 220.188748 
L 484.252646 249.880938 
L 488.72001 259.982679 
L 493.187374 259.316337 
L 497.654739 235.967721 
L 502.122103 207.608216 
L 506.589467 177.72945 
L 511.056831 177.089762 
L 515.524195 166.481601 
L 519.991559 153.501264 
L 524.458923 148.063915 
L 528.926287 156.060016 
L 533.393651 143.532791 
L 537.861015 142.200107 
L 542.328379 128.073662 
L 546.795743 166.721484 
L 551.263107 124.075611 
L 555.730472 41.449231 
L 560.197836 69.728776 
L 564.6652 126.501095 
L 569.132564 153.661186 
L 573.599928 158.458846 
L 578.067292 166.081796 
L 582.534656 126.847593 
L 587.00202 156.060016 
L 591.469384 199.985266 
L 595.936748 202.890516 
L 600.404112 206.328839 
L 604.871476 207.021835 
L 609.33884 225.35956 
L 613.806205 209.367358 
L 618.273569 186.631777 
L 622.740933 178.022641 
L 627.208297 183.24676 
L 631.675661 169.52012 
L 636.143025 156.593089 
L 640.610389 156.859626 
L 645.077753 185.379054 
L 649.545117 202.863862 
L 654.012481 199.745383 
L 658.479845 156.806319 
L 662.947209 76.65873 
L 667.414574 86.760472 
L 671.881938 139.53474 
L 676.349302 160.08472 
L 680.816666 187.138196 
L 685.28403 201.584486 
L 689.751394 212.165993 
L 694.218758 214.53817 
L 698.686122 224.080184 
L 703.153486 241.378417 
L 707.62085 248.921406 
L 712.088214 262.194934 
L 716.555578 265.446682 
L 721.022942 263.447656 
L 725.490307 260.035986 
L 729.957671 236.021029 
L 734.425035 214.404902 
L 738.892399 199.265617 
L 743.359763 191.322823 
L 747.827127 177.382953 
L 752.294491 174.53101 
L 756.761855 173.304941 
L 761.229219 170.82615 
L 765.696583 138.015481 
L 770.163947 72.500758 
L 774.631311 100.113961 
L 779.098675 137.002641 
L 783.56604 145.611777 
L 788.033404 165.975182 
L 792.500768 206.701991 
L 796.968132 244.01713 
L 799.201814 250.280743 
L 799.201814 250.280743 
" style="fill:none;stroke:#d62728;stroke-dasharray:9.25,4;stroke-dashoffset:0;stroke-width:2.5;"/>
   </g>
   <g id="line2d_32">
    <path clip-path="url(#p15adc4b3a1)" d="M 50.918331 172.873463 
L 53.152013 172.741671 
L 55.385695 177.01809 
L 57.619377 181.559739 
L 59.853059 185.740521 
L 62.086741 189.393627 
L 64.320423 191.382119 
L 66.554105 189.994652 
L 68.787787 185.883518 
L 71.021469 179.535356 
L 77.722515 157.852894 
L 79.956197 152.191368 
L 84.423561 142.178306 
L 86.657243 138.17326 
L 88.890925 136.337953 
L 91.124607 136.791447 
L 93.358289 139.856155 
L 95.591971 143.654352 
L 97.825654 146.753183 
L 100.059336 148.561505 
L 102.293018 149.031593 
L 106.760382 148.504547 
L 111.227746 148.352155 
L 113.461428 148.807723 
L 115.69511 149.458651 
L 117.928792 148.511644 
L 120.162474 143.449313 
L 122.396156 134.684909 
L 126.86352 110.148736 
L 129.097202 101.508814 
L 131.330884 100.109391 
L 133.564566 109.60105 
L 135.798248 125.192284 
L 138.03193 142.789478 
L 140.265612 157.502702 
L 142.499294 166.046673 
L 144.732976 172.593916 
L 149.20034 189.248719 
L 151.434022 193.588298 
L 153.667704 194.441174 
L 155.901387 195.791956 
L 158.135069 171.218325 
L 160.368751 170.993276 
L 162.602433 174.262719 
L 164.836115 177.739763 
L 167.069797 180.923717 
L 169.303479 183.347686 
L 171.537161 184.240988 
L 173.770843 182.258251 
L 176.004525 177.942566 
L 178.238207 171.581958 
L 180.471889 164.63881 
L 182.705571 158.437061 
L 184.939253 153.488973 
L 189.406617 146.409255 
L 191.640299 141.888286 
L 193.873981 137.788987 
L 196.107663 136.033597 
L 198.341345 137.031849 
L 200.575027 141.223225 
L 202.808709 146.313741 
L 205.042391 150.430101 
L 207.276073 153.235333 
L 209.509755 154.983952 
L 211.743438 155.999102 
L 213.97712 156.656618 
L 216.210802 157.089391 
L 218.444484 157.35149 
L 220.678166 157.963212 
L 222.911848 158.717564 
L 225.14553 157.826133 
L 227.379212 152.559251 
L 229.612894 142.295843 
L 234.080258 110.852373 
L 236.31394 101.902726 
L 238.547622 101.456675 
L 240.781304 111.351885 
L 243.014986 126.446291 
L 245.248668 142.58511 
L 247.48235 155.680064 
L 249.716032 163.169454 
L 251.949714 168.782664 
L 254.183396 175.6984 
L 256.417078 181.575458 
L 258.65076 183.342541 
L 260.884442 182.930165 
L 263.118124 186.436776 
L 265.351806 180.23519 
L 267.585488 178.567688 
L 269.819171 180.5222 
L 272.052853 183.157735 
L 276.520217 189.087705 
L 278.753899 190.919881 
L 280.987581 189.866114 
L 283.221263 185.913187 
L 285.454945 179.004161 
L 287.688627 171.499886 
L 289.922309 165.658841 
L 292.155991 161.5934 
L 294.389673 158.911358 
L 296.623355 155.524094 
L 301.090719 143.821304 
L 303.324401 141.214542 
L 305.558083 141.874133 
L 307.791765 145.629545 
L 310.025447 150.142725 
L 312.259129 153.648625 
L 314.492811 155.953836 
L 318.960175 159.044106 
L 323.427539 163.164167 
L 325.661222 164.650707 
L 327.894904 165.633443 
L 330.128586 165.520481 
L 332.362268 162.89733 
L 334.59595 155.480881 
L 336.829632 143.570795 
L 339.063314 127.720674 
L 341.296996 113.974792 
L 343.530678 108.650281 
L 345.76436 111.646846 
L 347.998042 122.901104 
L 350.231724 136.798991 
L 352.465406 148.907345 
L 354.699088 157.688972 
L 356.93277 163.148591 
L 359.166452 168.226681 
L 361.400134 174.985308 
L 363.633816 180.820964 
L 365.867498 182.51968 
L 368.10118 182.037167 
L 370.334862 185.523423 
L 372.568544 194.26863 
L 374.802226 193.950019 
L 377.035908 197.832139 
L 381.503272 208.546561 
L 383.736955 212.421675 
L 385.970637 213.884778 
L 388.204319 211.493651 
L 390.438001 206.036351 
L 392.671683 198.015644 
L 394.905365 189.209696 
L 397.139047 181.116433 
L 399.372729 174.554894 
L 401.606411 170.129074 
L 403.840093 166.106845 
L 406.073775 161.191069 
L 408.307457 156.896654 
L 410.541139 155.058643 
L 412.774821 155.365785 
L 415.008503 157.584226 
L 417.242185 160.213702 
L 419.475867 162.086954 
L 421.709549 163.088378 
L 423.943231 163.385617 
L 428.410595 163.175596 
L 430.644277 163.261756 
L 432.877959 163.662419 
L 437.345323 165.35052 
L 439.579006 164.285467 
L 441.812688 158.666218 
L 444.04637 148.249544 
L 446.280052 133.097284 
L 448.513734 118.908442 
L 450.747416 111.869638 
L 452.981098 112.827687 
L 455.21478 122.957839 
L 459.682144 152.088655 
L 461.915826 164.096838 
L 464.149508 171.569798 
L 466.38319 176.697892 
L 468.616872 181.270695 
L 470.850554 183.805389 
L 473.084236 182.1508 
L 475.317918 179.553047 
L 477.5516 182.921258 
L 479.785282 206.239061 
L 482.018964 207.11089 
L 484.252646 212.463342 
L 488.72001 226.466565 
L 490.953692 231.184838 
L 493.187374 233.074094 
L 495.421056 230.706138 
L 497.654739 225.112214 
L 499.888421 216.903956 
L 504.355785 198.751288 
L 506.589467 191.805354 
L 508.823149 188.212888 
L 511.056831 184.97655 
L 513.290513 179.408322 
L 515.524195 173.215012 
L 517.757877 168.844259 
L 519.991559 166.725257 
L 522.225241 167.173829 
L 524.458923 168.490875 
L 526.692605 169.288053 
L 528.926287 169.738497 
L 531.159969 170.480221 
L 533.393651 171.811278 
L 537.861015 176.458589 
L 540.094697 178.046092 
L 542.328379 178.817892 
L 544.562061 178.190207 
L 546.795743 174.794402 
L 549.029425 166.518713 
L 551.263107 153.78609 
L 553.49679 137.403616 
L 555.730472 123.737346 
L 557.964154 119.34943 
L 560.197836 122.715343 
L 562.431518 132.410811 
L 564.6652 143.984737 
L 566.898882 154.381889 
L 569.132564 162.86274 
L 571.366246 169.637797 
L 575.83361 181.850755 
L 578.067292 185.970125 
L 580.300974 186.110987 
L 582.534656 184.693404 
L 584.768338 187.611313 
L 587.00202 172.436542 
L 589.235702 177.102562 
L 591.469384 185.078328 
L 593.703066 191.921468 
L 595.936748 196.819775 
L 598.17043 199.402866 
L 600.404112 200.015788 
L 602.637794 197.861056 
L 604.871476 194.116727 
L 607.105158 189.185232 
L 609.33884 183.96382 
L 611.572523 179.231834 
L 613.806205 175.943764 
L 616.039887 174.852946 
L 618.273569 173.370393 
L 620.507251 169.380944 
L 622.740933 164.09696 
L 624.974615 159.269623 
L 627.208297 155.950623 
L 629.441979 155.234318 
L 631.675661 155.89519 
L 633.909343 156.784608 
L 636.143025 157.089533 
L 638.376707 156.417335 
L 640.610389 155.619425 
L 642.844071 155.785441 
L 645.077753 156.70345 
L 647.311435 158.14692 
L 649.545117 160.899667 
L 651.778799 164.851557 
L 654.012481 165.537339 
L 656.246163 157.506464 
L 658.479845 141.707222 
L 660.713527 120.228437 
L 662.947209 102.52551 
L 665.180891 98.348266 
L 667.414574 104.979483 
L 669.648256 119.494664 
L 671.881938 136.005921 
L 674.11562 150.176115 
L 676.349302 160.566496 
L 678.582984 167.03732 
L 680.816666 172.469607 
L 683.050348 179.017115 
L 685.28403 184.296381 
L 687.517712 185.033631 
L 689.751394 183.790646 
L 691.985076 187.140514 
L 694.218758 212.295892 
L 696.45244 217.075026 
L 698.686122 224.858035 
L 700.919804 230.809024 
L 703.153486 234.836286 
L 705.387168 237.52757 
L 707.62085 239.318953 
L 709.854532 239.614972 
L 714.321896 239.826691 
L 716.555578 239.4953 
L 718.78926 237.782054 
L 721.022942 235.231845 
L 723.256624 232.399272 
L 725.490307 227.966006 
L 727.723989 221.059065 
L 729.957671 213.258171 
L 732.191353 206.535009 
L 734.425035 200.956084 
L 736.658717 196.533822 
L 741.126081 188.691312 
L 743.359763 185.09421 
L 745.593445 182.41593 
L 747.827127 181.457962 
L 750.060809 183.056873 
L 754.528173 189.033736 
L 756.761855 191.513707 
L 758.995537 192.049782 
L 761.229219 187.783511 
L 763.462901 175.109352 
L 765.696583 155.439377 
L 767.930265 131.072372 
L 770.163947 111.928508 
L 772.397629 108.125858 
L 774.631311 115.805707 
L 776.864993 131.164674 
L 779.098675 148.004343 
L 781.332358 161.823716 
L 783.56604 171.556987 
L 785.799722 177.403583 
L 792.500768 190.466692 
L 794.73445 192.332095 
L 796.968132 192.808446 
L 799.201814 195.932655 
L 799.201814 195.932655 
" style="fill:none;stroke:#1f77b4;stroke-dasharray:2.25,3.7125;stroke-dashoffset:0;stroke-width:2.25;"/>
   </g>
   <g id="line2d_33">
    <path clip-path="url(#p15adc4b3a1)" d="M 50.918331 182.192304 
L 53.152013 191.790692 
L 55.385695 196.930561 
L 57.619377 199.585679 
L 59.853059 201.697727 
L 62.086741 204.211353 
L 64.320423 206.069456 
L 66.554105 205.147034 
L 68.787787 201.240512 
L 71.021469 194.200528 
L 73.255151 185.49166 
L 75.488833 176.291698 
L 77.722515 167.604772 
L 79.956197 160.028103 
L 82.189879 153.399051 
L 84.423561 147.779924 
L 86.657243 143.722942 
L 88.890925 142.157483 
L 91.124607 142.813311 
L 93.358289 145.684694 
L 95.591971 149.194945 
L 97.825654 152.043145 
L 100.059336 153.657999 
L 102.293018 153.948426 
L 104.5267 153.562282 
L 111.227746 152.965344 
L 113.461428 153.164587 
L 115.69511 153.751256 
L 117.928792 153.233564 
L 120.162474 148.801806 
L 122.396156 140.002202 
L 124.629838 125.962152 
L 129.097202 92.919151 
L 131.330884 84.479805 
L 133.564566 91.51383 
L 135.798248 107.834842 
L 138.03193 126.863243 
L 140.265612 143.043973 
L 142.499294 152.770614 
L 144.732976 160.347039 
L 149.20034 179.397443 
L 151.434022 184.476448 
L 153.667704 184.252538 
L 155.901387 178.363666 
L 158.135069 177.414767 
L 160.368751 185.789204 
L 162.602433 188.97816 
L 164.836115 189.550472 
L 167.069797 189.924049 
L 169.303479 190.987861 
L 171.537161 191.679886 
L 173.770843 189.963377 
L 176.004525 185.749204 
L 178.238207 178.894413 
L 182.705571 162.988024 
L 184.939253 155.911763 
L 187.172935 150.065309 
L 189.406617 144.879503 
L 191.640299 139.986259 
L 193.873981 136.307999 
L 196.107663 135.384296 
L 198.341345 137.323068 
L 200.575027 142.259931 
L 202.808709 148.206718 
L 205.042391 153.363912 
L 207.276073 157.102344 
L 209.509755 159.446925 
L 211.743438 160.933952 
L 213.97712 162.121219 
L 216.210802 162.928056 
L 220.678166 163.22806 
L 222.911848 163.09336 
L 225.14553 161.117497 
L 227.379212 154.387502 
L 229.612894 142.028944 
L 231.846576 122.992836 
L 234.080258 101.71607 
L 236.31394 84.323732 
L 238.547622 76.944599 
L 240.781304 85.623392 
L 243.014986 103.214943 
L 245.248668 122.867653 
L 247.48235 139.427206 
L 249.716032 149.676705 
L 251.949714 157.761508 
L 256.417078 176.830722 
L 258.65076 181.432278 
L 260.884442 180.657164 
L 263.118124 174.392722 
L 265.351806 179.620601 
L 267.585488 188.156132 
L 269.819171 191.631834 
L 274.286535 193.515478 
L 276.520217 195.36748 
L 278.753899 196.954495 
L 280.987581 196.018164 
L 283.221263 192.245284 
L 285.454945 185.4601 
L 287.688627 177.622877 
L 289.922309 170.606116 
L 292.155991 164.845781 
L 294.389673 160.211444 
L 296.623355 155.228624 
L 301.090719 142.496571 
L 303.324401 139.294865 
L 305.558083 139.361828 
L 307.791765 142.683166 
L 310.025447 147.258084 
L 312.259129 151.352523 
L 314.492811 154.421848 
L 316.726493 156.658347 
L 318.960175 158.676284 
L 323.427539 163.487801 
L 325.661222 165.099808 
L 327.894904 166.244412 
L 330.128586 166.601802 
L 332.362268 164.775625 
L 334.59595 158.045102 
L 336.829632 145.804569 
L 339.063314 127.436755 
L 341.296996 108.073963 
L 343.530678 94.077501 
L 345.76436 90.036442 
L 347.998042 100.846458 
L 352.465406 135.806982 
L 354.699088 148.567179 
L 356.93277 155.778324 
L 359.166452 161.647125 
L 363.633816 177.136501 
L 365.867498 180.52826 
L 368.10118 179.126904 
L 370.334862 172.725871 
L 372.568544 203.120638 
L 374.802226 214.535899 
L 377.035908 220.602857 
L 379.26959 223.928119 
L 381.503272 226.382082 
L 383.736955 228.32237 
L 385.970637 228.938778 
L 388.204319 226.357578 
L 390.438001 220.653939 
L 392.671683 211.950612 
L 394.905365 202.119315 
L 397.139047 192.927264 
L 399.372729 185.249631 
L 401.606411 179.541558 
L 403.840093 174.433941 
L 406.073775 168.815241 
L 408.307457 163.814871 
L 410.541139 161.244856 
L 412.774821 161.051225 
L 415.008503 163.09635 
L 417.242185 165.779795 
L 419.475867 167.790919 
L 421.709549 168.738781 
L 423.943231 168.717022 
L 426.176913 168.291835 
L 428.410595 168.117258 
L 435.111641 168.124517 
L 437.345323 167.970499 
L 439.579006 165.878318 
L 441.812688 158.877215 
L 444.04637 146.084015 
L 446.280052 126.768949 
L 448.513734 106.472469 
L 450.747416 92.032519 
L 452.981098 88.447353 
L 455.21478 100.721662 
L 459.682144 139.823294 
L 461.915826 154.364442 
L 464.149508 162.175981 
L 468.616872 171.749459 
L 470.850554 175.774088 
L 473.084236 176.136846 
L 475.317918 173.684957 
L 477.5516 169.203012 
L 479.785282 235.698109 
L 482.018964 253.293066 
L 484.252646 264.081334 
L 486.486328 270.924962 
L 488.72001 275.421539 
L 490.953692 277.777293 
L 493.187374 277.65094 
L 495.421056 273.452823 
L 497.654739 265.580827 
L 499.888421 254.264242 
L 504.355785 227.667914 
L 506.589467 215.489109 
L 508.823149 206.037896 
L 511.056831 197.709681 
L 513.290513 188.709878 
L 515.524195 180.185796 
L 517.757877 174.294727 
L 519.991559 171.445998 
L 522.225241 171.731178 
L 524.458923 173.324537 
L 526.692605 174.62438 
L 528.926287 175.25725 
L 531.159969 175.583019 
L 533.393651 176.158137 
L 535.627333 177.583264 
L 537.861015 179.203202 
L 540.094697 180.199745 
L 542.328379 180.793409 
L 544.562061 180.596118 
L 546.795743 178.294363 
L 549.029425 171.244517 
L 551.263107 158.899503 
L 555.730472 122.454138 
L 557.964154 110.346272 
L 560.197836 108.015906 
L 562.431518 118.992854 
L 566.898882 151.880139 
L 569.132564 164.506551 
L 571.366246 172.860855 
L 575.83361 186.685495 
L 578.067292 192.313814 
L 580.300974 193.459434 
L 582.534656 190.45746 
L 584.768338 183.683378 
L 587.00202 168.649571 
L 589.235702 179.477197 
L 591.469384 187.571721 
L 593.703066 193.429603 
L 595.936748 197.844015 
L 598.17043 200.98801 
L 600.404112 202.949843 
L 602.637794 202.584522 
L 604.871476 200.452159 
L 607.105158 196.516639 
L 611.572523 186.588232 
L 613.806205 182.378737 
L 616.039887 179.762459 
L 618.273569 176.621107 
L 620.507251 171.179872 
L 622.740933 164.550109 
L 624.974615 158.64755 
L 627.208297 154.640207 
L 629.441979 153.605738 
L 631.675661 154.41652 
L 633.909343 155.81025 
L 636.143025 156.91943 
L 640.610389 157.801914 
L 642.844071 159.130185 
L 647.311435 162.662194 
L 651.778799 166.847654 
L 654.012481 166.098589 
L 656.246163 158.110825 
L 658.479845 143.350667 
L 660.713527 123.206233 
L 662.947209 104.986194 
L 665.180891 96.599546 
L 667.414574 98.143248 
L 669.648256 109.484245 
L 671.881938 124.589368 
L 674.11562 138.613353 
L 676.349302 149.184208 
L 678.582984 155.527998 
L 680.816666 161.0631 
L 685.28403 176.009467 
L 687.517712 179.638394 
L 689.751394 179.69519 
L 691.985076 176.740088 
L 694.218758 237.633547 
L 696.45244 259.49693 
L 698.686122 275.149576 
L 700.919804 285.011518 
L 703.153486 290.941722 
L 705.387168 294.411578 
L 707.62085 296.20045 
L 709.854532 295.589608 
L 712.088214 293.388507 
L 714.321896 289.800891 
L 716.555578 285.02982 
L 718.78926 278.946533 
L 723.256624 265.925273 
L 725.490307 258.551896 
L 727.723989 249.037898 
L 729.957671 238.530031 
L 732.191353 228.962154 
L 734.425035 220.92466 
L 736.658717 214.875242 
L 738.892399 209.884816 
L 741.126081 205.244724 
L 743.359763 200.936176 
L 745.593445 197.420475 
L 747.827127 195.362112 
L 750.060809 195.501163 
L 752.294491 197.020218 
L 754.528173 198.907889 
L 756.761855 201.018432 
L 758.995537 202.363825 
L 761.229219 200.165881 
L 763.462901 190.533981 
L 765.696583 174.272704 
L 767.930265 153.021306 
L 770.163947 134.422688 
L 772.397629 126.810128 
L 774.631311 129.27922 
L 776.864993 140.73144 
L 779.098675 155.264211 
L 781.332358 168.410287 
L 783.56604 178.297922 
L 785.799722 184.372597 
L 788.033404 189.58189 
L 792.500768 202.860002 
L 794.73445 206.103497 
L 796.968132 204.736651 
L 799.201814 196.721251 
L 799.201814 196.721251 
" style="fill:none;stroke:#2ca02c;stroke-dasharray:12.8,3.2,2,3.2;stroke-dashoffset:0;stroke-width:2;"/>
   </g>
   <g id="line2d_34">
    <path clip-path="url(#p15adc4b3a1)" d="M 50.918331 185.482306 
L 53.152013 181.194479 
L 55.385695 183.406841 
L 57.619377 187.995322 
L 59.853059 192.866645 
L 62.086741 196.880455 
L 64.320423 198.933694 
L 66.554105 198.073579 
L 68.787787 194.379538 
L 71.021469 188.058198 
L 73.255151 180.243466 
L 77.722515 163.824165 
L 79.956197 156.35698 
L 82.189879 149.642806 
L 84.423561 143.858639 
L 86.657243 139.675091 
L 88.890925 137.836307 
L 91.124607 138.225257 
L 93.358289 140.643938 
L 100.059336 150.667555 
L 102.293018 153.14718 
L 104.5267 155.165544 
L 106.760382 156.957538 
L 108.994064 158.314237 
L 111.227746 158.845513 
L 113.461428 158.323713 
L 115.69511 156.126705 
L 117.928792 151.036271 
L 120.162474 141.731258 
L 122.396156 128.650356 
L 126.86352 96.827056 
L 129.097202 84.268095 
L 131.330884 79.159319 
L 133.564566 85.001462 
L 135.798248 98.826915 
L 140.265612 135.063082 
L 142.499294 149.576717 
L 144.732976 161.019644 
L 146.966658 170.089786 
L 149.20034 175.485715 
L 151.434022 176.060101 
L 153.667704 173.750355 
L 155.901387 173.557863 
L 158.135069 172.701469 
L 160.368751 174.465176 
L 164.836115 184.617595 
L 167.069797 188.200727 
L 169.303479 189.830954 
L 171.537161 189.049658 
L 173.770843 185.386934 
L 176.004525 179.224981 
L 178.238207 170.913705 
L 182.705571 152.790767 
L 184.939253 144.67969 
L 187.172935 137.767493 
L 189.406617 132.059359 
L 191.640299 127.666379 
L 193.873981 125.056405 
L 196.107663 124.828713 
L 198.341345 126.830991 
L 200.575027 130.84531 
L 205.042391 140.386455 
L 207.276073 144.617892 
L 209.509755 148.353619 
L 211.743438 151.664749 
L 213.97712 154.56517 
L 216.210802 156.760551 
L 218.444484 157.820541 
L 220.678166 157.60391 
L 222.911848 155.615459 
L 225.14553 150.793856 
L 227.379212 141.843305 
L 229.612894 128.734259 
L 234.080258 95.507875 
L 236.31394 83.262584 
L 238.547622 78.949664 
L 240.781304 85.459368 
L 243.014986 99.341963 
L 247.48235 133.39615 
L 249.716032 146.920012 
L 251.949714 157.756729 
L 254.183396 166.549825 
L 256.417078 171.885948 
L 258.65076 172.491447 
L 260.884442 170.360691 
L 263.118124 170.644549 
L 265.351806 180.347257 
L 267.585488 179.651205 
L 269.819171 183.161884 
L 272.052853 187.396554 
L 274.286535 190.850538 
L 276.520217 192.863737 
L 278.753899 192.78748 
L 280.987581 190.029649 
L 283.221263 185.010754 
L 285.454945 178.207105 
L 287.688627 170.911875 
L 289.922309 164.19282 
L 292.155991 158.397184 
L 298.857037 143.577567 
L 301.090719 139.137186 
L 303.324401 136.76619 
L 305.558083 136.488392 
L 307.791765 138.161933 
L 310.025447 140.816563 
L 316.726493 149.553209 
L 318.960175 152.744036 
L 321.193857 156.217115 
L 323.427539 159.443142 
L 325.661222 161.704186 
L 327.894904 162.654731 
L 330.128586 161.636327 
L 332.362268 157.571761 
L 334.59595 149.229942 
L 336.829632 136.780405 
L 341.296996 105.966185 
L 343.530678 95.654593 
L 345.76436 92.715596 
L 347.998042 99.005051 
L 350.231724 111.368275 
L 354.699088 140.528455 
L 356.93277 152.147505 
L 359.166452 161.238226 
L 361.400134 168.07551 
L 363.633816 171.474263 
L 365.867498 170.556518 
L 368.10118 167.732903 
L 370.334862 168.311031 
L 372.568544 186.873392 
L 374.802226 185.292437 
L 377.035908 189.332357 
L 381.503272 201.363255 
L 383.736955 205.674934 
L 385.970637 207.258299 
L 388.204319 205.224145 
L 390.438001 200.082954 
L 392.671683 192.509377 
L 397.139047 175.962899 
L 399.372729 169.110365 
L 401.606411 163.836935 
L 403.840093 159.498149 
L 406.073775 155.572146 
L 408.307457 152.538001 
L 410.541139 151.101201 
L 412.774821 151.144007 
L 415.008503 152.52641 
L 421.709549 158.32715 
L 426.176913 161.907476 
L 430.644277 165.757833 
L 432.877959 167.222044 
L 435.111641 167.796817 
L 437.345323 166.633809 
L 439.579006 162.465615 
L 441.812688 153.873755 
L 444.04637 140.779269 
L 448.513734 107.007303 
L 450.747416 94.872137 
L 452.981098 91.083986 
L 455.21478 98.243581 
L 457.448462 112.660777 
L 461.915826 147.313294 
L 464.149508 161.070482 
L 466.38319 171.244924 
L 468.616872 177.849207 
L 470.850554 180.106163 
L 473.084236 177.671437 
L 475.317918 173.586311 
L 477.5516 173.682354 
L 479.785282 229.033144 
L 482.018964 231.407833 
L 484.252646 237.926251 
L 486.486328 245.679916 
L 488.72001 252.489066 
L 490.953692 256.768789 
L 493.187374 257.731952 
L 495.421056 254.699709 
L 497.654739 248.206486 
L 499.888421 238.867483 
L 504.355785 217.087623 
L 506.589467 207.160782 
L 508.823149 199.109755 
L 511.056831 192.22802 
L 513.290513 185.87758 
L 515.524195 180.488931 
L 517.757877 176.813864 
L 519.991559 174.922533 
L 522.225241 174.832042 
L 524.458923 175.702406 
L 526.692605 176.876557 
L 528.926287 178.412958 
L 531.159969 180.596281 
L 533.393651 183.632561 
L 537.861015 191.536117 
L 540.094697 194.62602 
L 542.328379 196.050781 
L 544.562061 194.732089 
L 546.795743 189.457601 
L 549.029425 178.930609 
L 551.263107 163.230724 
L 555.730472 123.373815 
L 557.964154 108.586469 
L 560.197836 102.710967 
L 562.431518 108.709212 
L 564.6652 122.566815 
L 569.132564 156.426282 
L 571.366246 170.840214 
L 573.599928 182.144618 
L 575.83361 189.812551 
L 578.067292 192.903167 
L 580.300974 190.942249 
L 582.534656 186.411886 
L 584.768338 184.686165 
L 587.00202 169.212956 
L 589.235702 171.813698 
L 591.469384 178.529112 
L 593.703066 186.113285 
L 595.936748 192.938956 
L 598.17043 197.988232 
L 600.404112 200.811664 
L 602.637794 200.985347 
L 604.871476 199.136618 
L 607.105158 195.759603 
L 611.572523 187.258255 
L 613.806205 183.486331 
L 616.039887 180.665257 
L 618.273569 177.616695 
L 620.507251 173.294177 
L 624.974615 163.355887 
L 627.208297 159.454367 
L 629.441979 157.227263 
L 631.675661 156.320316 
L 633.909343 156.349314 
L 636.143025 156.911397 
L 638.376707 157.8921 
L 640.610389 159.835163 
L 642.844071 163.240099 
L 649.545117 176.27055 
L 651.778799 179.045035 
L 654.012481 177.972926 
L 656.246163 170.611464 
L 658.479845 157.404016 
L 662.947209 123.142055 
L 665.180891 112.325511 
L 667.414574 108.820384 
L 669.648256 113.386558 
L 671.881938 123.274803 
L 676.349302 147.403745 
L 678.582984 157.353219 
L 680.816666 165.426878 
L 683.050348 171.705169 
L 685.28403 174.94175 
L 687.517712 174.191261 
L 689.751394 172.172755 
L 691.985076 174.514021 
L 694.218758 251.579831 
L 696.45244 258.879973 
L 700.919804 278.24857 
L 703.153486 286.683321 
L 705.387168 293.229313 
L 707.62085 297.389745 
L 709.854532 298.685663 
L 712.088214 297.724192 
L 714.321896 295.01545 
L 716.555578 290.943695 
L 718.78926 285.751595 
L 723.256624 274.268872 
L 725.490307 267.735548 
L 727.723989 259.897522 
L 734.425035 234.052051 
L 736.658717 226.377853 
L 738.892399 219.397654 
L 741.126081 213.157278 
L 743.359763 207.847947 
L 745.593445 203.850872 
L 747.827127 201.792916 
L 750.060809 202.114801 
L 752.294491 204.005094 
L 754.528173 206.273997 
L 756.761855 207.815797 
L 758.995537 207.068989 
L 761.229219 201.913361 
L 763.462901 190.428197 
L 765.696583 173.66326 
L 767.930265 153.815779 
L 770.163947 136.269464 
L 772.397629 126.358342 
L 774.631311 124.665218 
L 776.864993 131.017752 
L 779.098675 142.392414 
L 783.56604 168.980078 
L 785.799722 179.940025 
L 788.033404 188.853119 
L 790.267086 195.861278 
L 792.500768 200.162892 
L 794.73445 201.014914 
L 796.968132 200.124174 
L 799.201814 202.0031 
L 799.201814 202.0031 
" style="fill:none;stroke:#ff7f0e;stroke-dasharray:6.475,2.8;stroke-dashoffset:0;stroke-width:1.75;"/>
   </g>
   <g id="line2d_35">
    <path clip-path="url(#p15adc4b3a1)" d="M 50.918331 192.316356 
L 53.152013 199.821465 
L 55.385695 201.834928 
L 57.619377 202.410982 
L 59.853059 203.907058 
L 64.320423 210.000889 
L 66.554105 210.492115 
L 68.787787 208.032509 
L 71.021469 202.033338 
L 75.488833 186.136792 
L 77.722515 178.302457 
L 79.956197 171.258426 
L 84.423561 158.155338 
L 86.657243 153.21331 
L 88.890925 151.447509 
L 91.124607 152.675385 
L 93.358289 156.968844 
L 95.591971 162.375144 
L 97.825654 167.367623 
L 100.059336 171.019631 
L 102.293018 172.777827 
L 104.5267 173.245108 
L 106.760382 173.301396 
L 108.994064 172.759342 
L 111.227746 171.530632 
L 113.461428 170.54324 
L 115.69511 169.904818 
L 117.928792 167.860852 
L 120.162474 161.445076 
L 122.396156 150.773846 
L 124.629838 134.978061 
L 129.097202 98.08637 
L 131.330884 88.042948 
L 133.564566 94.40748 
L 135.798248 109.5592 
L 138.03193 127.343254 
L 140.265612 142.505559 
L 142.499294 151.616534 
L 144.732976 159.658959 
L 149.20034 180.485027 
L 151.434022 186.403752 
L 153.667704 187.984158 
L 155.901387 184.320864 
L 158.135069 186.860865 
L 160.368751 193.127687 
L 162.602433 193.896152 
L 164.836115 192.995936 
L 167.069797 192.879883 
L 171.537161 195.529836 
L 173.770843 194.418826 
L 176.004525 190.553279 
L 178.238207 183.308541 
L 182.705571 166.05314 
L 184.939253 158.349702 
L 187.172935 151.94517 
L 189.406617 146.598982 
L 191.640299 142.303835 
L 193.873981 139.651767 
L 196.107663 139.780671 
L 198.341345 142.289112 
L 200.575027 147.202 
L 202.808709 152.56586 
L 205.042391 157.017079 
L 207.276073 160.32284 
L 209.509755 162.523753 
L 211.743438 163.784836 
L 213.97712 164.308914 
L 216.210802 163.914656 
L 218.444484 162.490037 
L 220.678166 161.326135 
L 222.911848 160.921202 
L 225.14553 159.882076 
L 227.379212 155.4177 
L 229.612894 146.621452 
L 231.846576 131.849663 
L 234.080258 114.741305 
L 236.31394 100.018351 
L 238.547622 93.572295 
L 240.781304 102.068071 
L 245.248668 131.569302 
L 247.48235 142.5663 
L 251.949714 153.733503 
L 256.417078 172.742159 
L 258.65076 178.22193 
L 260.884442 179.661169 
L 263.118124 176.558678 
L 265.351806 190.90831 
L 267.585488 198.470256 
L 269.819171 200.370534 
L 272.052853 200.106726 
L 274.286535 200.050561 
L 276.520217 200.891805 
L 278.753899 201.249907 
L 280.987581 199.00564 
L 283.221263 194.46277 
L 285.454945 187.514904 
L 287.688627 179.832676 
L 289.922309 172.805056 
L 292.155991 166.590109 
L 294.389673 161.111152 
L 296.623355 155.164873 
L 298.857037 148.210806 
L 301.090719 142.461696 
L 303.324401 140.405936 
L 305.558083 141.517007 
L 307.791765 145.484901 
L 310.025447 150.229434 
L 312.259129 154.303335 
L 314.492811 157.565172 
L 316.726493 160.205161 
L 321.193857 164.716857 
L 323.427539 166.308529 
L 325.661222 166.773308 
L 327.894904 166.924663 
L 330.128586 166.81949 
L 332.362268 165.01617 
L 334.59595 158.73064 
L 336.829632 147.375723 
L 341.296996 111.70531 
L 343.530678 98.823214 
L 345.76436 95.60829 
L 347.998042 106.772066 
L 350.231724 123.742898 
L 352.465406 139.583075 
L 354.699088 150.960645 
L 356.93277 156.618266 
L 359.166452 160.966813 
L 361.400134 167.168664 
L 363.633816 173.035067 
L 365.867498 175.204094 
L 368.10118 174.962329 
L 370.334862 172.603677 
L 372.568544 196.313369 
L 374.802226 205.398153 
L 377.035908 209.41299 
L 381.503272 214.175113 
L 383.736955 217.126148 
L 385.970637 219.140506 
L 388.204319 217.818132 
L 390.438001 213.39096 
L 392.671683 205.776264 
L 394.905365 196.955166 
L 397.139047 188.612575 
L 399.372729 181.440779 
L 403.840093 170.510764 
L 406.073775 164.225804 
L 408.307457 158.592096 
L 410.541139 155.808684 
L 412.774821 155.87581 
L 415.008503 158.955567 
L 419.475867 167.376774 
L 421.709549 170.988274 
L 423.943231 173.914358 
L 426.176913 176.078261 
L 428.410595 177.566935 
L 430.644277 178.345933 
L 437.345323 178.379893 
L 439.579006 176.864559 
L 441.812688 170.812212 
L 444.04637 159.089982 
L 446.280052 140.261821 
L 448.513734 120.117 
L 450.747416 105.51261 
L 452.981098 101.666107 
L 455.21478 114.018188 
L 459.682144 153.808357 
L 461.915826 169.484572 
L 464.149508 177.817037 
L 466.38319 182.389291 
L 468.616872 185.900762 
L 470.850554 187.173335 
L 473.084236 184.028892 
L 475.317918 179.576494 
L 477.5516 175.633185 
L 479.785282 237.250402 
L 482.018964 254.703979 
L 484.252646 265.42571 
L 486.486328 273.160932 
L 488.72001 279.257162 
L 490.953692 283.660411 
L 493.187374 286.042256 
L 495.421056 284.811878 
L 497.654739 280.456244 
L 499.888421 272.726899 
L 502.122103 263.04532 
L 504.355785 252.750911 
L 506.589467 243.238765 
L 511.056831 228.674279 
L 515.524195 212.661884 
L 517.757877 207.401621 
L 519.991559 205.194923 
L 522.225241 206.45319 
L 524.458923 209.129965 
L 526.692605 211.598143 
L 533.393651 218.247377 
L 535.627333 221.035588 
L 537.861015 223.357637 
L 540.094697 224.438663 
L 542.328379 224.70544 
L 544.562061 223.87358 
L 546.795743 220.674426 
L 549.029425 212.371712 
L 551.263107 198.153943 
L 555.730472 155.099455 
L 557.964154 139.404146 
L 560.197836 134.798522 
L 562.431518 146.149738 
L 564.6652 163.824388 
L 566.898882 180.2225 
L 569.132564 192.542116 
L 571.366246 199.425743 
L 573.599928 203.76758 
L 575.83361 207.549356 
L 578.067292 209.57983 
L 580.300974 207.462433 
L 582.534656 202.235896 
L 584.768338 193.839539 
L 587.00202 183.140532 
L 589.235702 193.562594 
L 591.469384 199.73319 
L 593.703066 203.646138 
L 595.936748 206.196063 
L 598.17043 207.324022 
L 600.404112 207.321348 
L 602.637794 205.341702 
L 604.871476 202.471296 
L 607.105158 198.729407 
L 609.33884 194.438388 
L 611.572523 189.897735 
L 613.806205 186.23438 
L 616.039887 184.244099 
L 618.273569 181.171216 
L 620.507251 174.975913 
L 622.740933 167.1332 
L 624.974615 159.723035 
L 627.208297 154.209508 
L 629.441979 152.152243 
L 631.675661 152.357425 
L 636.143025 154.945173 
L 638.376707 155.944523 
L 640.610389 157.474945 
L 642.844071 160.440845 
L 645.077753 163.835146 
L 647.311435 166.851233 
L 651.778799 173.413442 
L 654.012481 173.378913 
L 656.246163 165.621018 
L 658.479845 150.601933 
L 660.713527 129.002337 
L 662.947209 108.90813 
L 665.180891 98.624763 
L 667.414574 98.540881 
L 669.648256 109.951201 
L 671.881938 125.589064 
L 674.11562 139.711735 
L 676.349302 149.967517 
L 678.582984 155.547906 
L 680.816666 160.097812 
L 683.050348 166.174317 
L 685.28403 171.854795 
L 687.517712 173.902665 
L 689.751394 173.973106 
L 691.985076 172.520649 
L 694.218758 257.244987 
L 696.45244 279.691195 
L 698.686122 293.185593 
L 700.919804 301.482644 
L 703.153486 307.348091 
L 705.387168 312.04778 
L 707.62085 315.95663 
L 709.854532 318.016003 
L 712.088214 318.972339 
L 714.321896 318.6745 
L 716.555578 316.629324 
L 718.78926 312.306061 
L 723.256624 301.432076 
L 725.490307 294.271215 
L 727.723989 284.017639 
L 729.957671 272.391501 
L 732.191353 261.551867 
L 734.425035 252.368306 
L 736.658717 245.72869 
L 738.892399 241.039499 
L 741.126081 237.871417 
L 743.359763 235.75764 
L 745.593445 234.571431 
L 747.827127 235.043348 
L 750.060809 237.995614 
L 752.294491 241.963548 
L 754.528173 245.618159 
L 756.761855 248.632162 
L 758.995537 249.817202 
L 761.229219 246.071246 
L 763.462901 233.430589 
L 765.696583 213.437893 
L 767.930265 188.125955 
L 770.163947 166.110871 
L 772.397629 155.879226 
L 774.631311 155.717847 
L 776.864993 164.957523 
L 779.098675 177.619298 
L 781.332358 189.321742 
L 783.56604 197.907196 
L 785.799722 202.580882 
L 788.033404 206.450648 
L 792.500768 216.567267 
L 794.73445 218.264529 
L 796.968132 215.882624 
L 799.201814 207.397239 
L 799.201814 207.397239 
" style="fill:none;stroke:#000000;stroke-linecap:square;stroke-width:1.5;"/>
   </g>
   <g id="patch_3">
    <path d="M 50.918331 326.64351 
L 50.918331 6.799459 
" style="fill:none;stroke:#000000;stroke-linecap:square;stroke-linejoin:miter;stroke-width:0.8;"/>
   </g>
   <g id="patch_4">
    <path d="M 801.435496 326.64351 
L 801.435496 6.799459 
" style="fill:none;stroke:#000000;stroke-linecap:square;stroke-linejoin:miter;stroke-width:0.8;"/>
   </g>
   <g id="patch_5">
    <path d="M 50.918331 326.64351 
L 801.435496 326.64351 
" style="fill:none;stroke:#000000;stroke-linecap:square;stroke-linejoin:miter;stroke-width:0.8;"/>
   </g>
   <g id="patch_6">
    <path d="M 50.918331 6.799459 
L 801.435496 6.799459 
" style="fill:none;stroke:#000000;stroke-linecap:square;stroke-linejoin:miter;stroke-width:0.8;"/>
   </g>
   <g id="legend_1">
    <g id="patch_7">
     <path d="M 214.694882 29.477584 
L 637.658945 29.477584 
L 637.658945 11.799459 
L 214.694882 11.799459 
z
" style="fill:#ffffff;opacity:0.95;stroke:#000000;stroke-linejoin:miter;"/>
    </g>
    <g id="line2d_36">
     <path d="M 218.694882 19.897896 
L 238.694882 19.897896 
" style="fill:none;stroke:#d62728;stroke-dasharray:9.25,4;stroke-dashoffset:0;stroke-width:2.5;"/>
    </g>
    <g id="line2d_37"/>
    <g id="text_18">
     <!-- Actual price -->
     <g transform="translate(246.694882 23.397896)scale(0.1 -0.1)">
      <defs>
       <path d="M 2188 4044 
L 1331 1722 
L 3047 1722 
L 2188 4044 
z
M 1831 4666 
L 2547 4666 
L 4325 0 
L 3669 0 
L 3244 1197 
L 1141 1197 
L 716 0 
L 50 0 
L 1831 4666 
z
" id="DejaVuSans-41" transform="scale(0.015625)"/>
      </defs>
      <use xlink:href="#DejaVuSans-41"/>
      <use x="66.658203" xlink:href="#DejaVuSans-63"/>
      <use x="121.638672" xlink:href="#DejaVuSans-74"/>
      <use x="160.847656" xlink:href="#DejaVuSans-75"/>
      <use x="224.226562" xlink:href="#DejaVuSans-61"/>
      <use x="285.505859" xlink:href="#DejaVuSans-6c"/>
      <use x="313.289062" xlink:href="#DejaVuSans-20"/>
      <use x="345.076172" xlink:href="#DejaVuSans-70"/>
      <use x="408.552734" xlink:href="#DejaVuSans-72"/>
      <use x="449.666016" xlink:href="#DejaVuSans-69"/>
      <use x="477.449219" xlink:href="#DejaVuSans-63"/>
      <use x="532.429688" xlink:href="#DejaVuSans-65"/>
     </g>
    </g>
    <g id="line2d_38">
     <path d="M 326.090195 19.897896 
L 346.090195 19.897896 
" style="fill:none;stroke:#1f77b4;stroke-dasharray:2.25,3.7125;stroke-dashoffset:0;stroke-width:2.25;"/>
    </g>
    <g id="line2d_39"/>
    <g id="text_19">
     <!-- Base 1 -->
     <g transform="translate(354.090195 23.397896)scale(0.1 -0.1)">
      <defs>
       <path d="M 2834 3397 
L 2834 2853 
Q 2591 2978 2328 3040 
Q 2066 3103 1784 3103 
Q 1356 3103 1142 2972 
Q 928 2841 928 2578 
Q 928 2378 1081 2264 
Q 1234 2150 1697 2047 
L 1894 2003 
Q 2506 1872 2764 1633 
Q 3022 1394 3022 966 
Q 3022 478 2636 193 
Q 2250 -91 1575 -91 
Q 1294 -91 989 -36 
Q 684 19 347 128 
L 347 722 
Q 666 556 975 473 
Q 1284 391 1588 391 
Q 1994 391 2212 530 
Q 2431 669 2431 922 
Q 2431 1156 2273 1281 
Q 2116 1406 1581 1522 
L 1381 1569 
Q 847 1681 609 1914 
Q 372 2147 372 2553 
Q 372 3047 722 3315 
Q 1072 3584 1716 3584 
Q 2034 3584 2315 3537 
Q 2597 3491 2834 3397 
z
" id="DejaVuSans-73" transform="scale(0.015625)"/>
      </defs>
      <use xlink:href="#DejaVuSans-42"/>
      <use x="68.603516" xlink:href="#DejaVuSans-61"/>
      <use x="129.882812" xlink:href="#DejaVuSans-73"/>
      <use x="181.982422" xlink:href="#DejaVuSans-65"/>
      <use x="243.505859" xlink:href="#DejaVuSans-20"/>
      <use x="275.292969" xlink:href="#DejaVuSans-31"/>
     </g>
    </g>
    <g id="line2d_40">
     <path d="M 407.982382 19.897896 
L 427.982382 19.897896 
" style="fill:none;stroke:#2ca02c;stroke-dasharray:12.8,3.2,2,3.2;stroke-dashoffset:0;stroke-width:2;"/>
    </g>
    <g id="line2d_41"/>
    <g id="text_20">
     <!-- Base 2 -->
     <g transform="translate(435.982382 23.397896)scale(0.1 -0.1)">
      <use xlink:href="#DejaVuSans-42"/>
      <use x="68.603516" xlink:href="#DejaVuSans-61"/>
      <use x="129.882812" xlink:href="#DejaVuSans-73"/>
      <use x="181.982422" xlink:href="#DejaVuSans-65"/>
      <use x="243.505859" xlink:href="#DejaVuSans-20"/>
      <use x="275.292969" xlink:href="#DejaVuSans-32"/>
     </g>
    </g>
    <g id="line2d_42">
     <path d="M 489.87457 19.897896 
L 509.87457 19.897896 
" style="fill:none;stroke:#ff7f0e;stroke-dasharray:6.475,2.8;stroke-dashoffset:0;stroke-width:1.75;"/>
    </g>
    <g id="line2d_43"/>
    <g id="text_21">
     <!-- Base 3 -->
     <g transform="translate(517.87457 23.397896)scale(0.1 -0.1)">
      <defs>
       <path d="M 2597 2516 
Q 3050 2419 3304 2112 
Q 3559 1806 3559 1356 
Q 3559 666 3084 287 
Q 2609 -91 1734 -91 
Q 1441 -91 1130 -33 
Q 819 25 488 141 
L 488 750 
Q 750 597 1062 519 
Q 1375 441 1716 441 
Q 2309 441 2620 675 
Q 2931 909 2931 1356 
Q 2931 1769 2642 2001 
Q 2353 2234 1838 2234 
L 1294 2234 
L 1294 2753 
L 1863 2753 
Q 2328 2753 2575 2939 
Q 2822 3125 2822 3475 
Q 2822 3834 2567 4026 
Q 2313 4219 1838 4219 
Q 1578 4219 1281 4162 
Q 984 4106 628 3988 
L 628 4550 
Q 988 4650 1302 4700 
Q 1616 4750 1894 4750 
Q 2613 4750 3031 4423 
Q 3450 4097 3450 3541 
Q 3450 3153 3228 2886 
Q 3006 2619 2597 2516 
z
" id="DejaVuSans-33" transform="scale(0.015625)"/>
      </defs>
      <use xlink:href="#DejaVuSans-42"/>
      <use x="68.603516" xlink:href="#DejaVuSans-61"/>
      <use x="129.882812" xlink:href="#DejaVuSans-73"/>
      <use x="181.982422" xlink:href="#DejaVuSans-65"/>
      <use x="243.505859" xlink:href="#DejaVuSans-20"/>
      <use x="275.292969" xlink:href="#DejaVuSans-33"/>
     </g>
    </g>
    <g id="line2d_44">
     <path d="M 571.766757 19.897896 
L 591.766757 19.897896 
" style="fill:none;stroke:#000000;stroke-linecap:square;stroke-width:1.5;"/>
    </g>
    <g id="line2d_45"/>
    <g id="text_22">
     <!-- Base 4 -->
     <g transform="translate(599.766757 23.397896)scale(0.1 -0.1)">
      <use xlink:href="#DejaVuSans-42"/>
      <use x="68.603516" xlink:href="#DejaVuSans-61"/>
      <use x="129.882812" xlink:href="#DejaVuSans-73"/>
      <use x="181.982422" xlink:href="#DejaVuSans-65"/>
      <use x="243.505859" xlink:href="#DejaVuSans-20"/>
      <use x="275.292969" xlink:href="#DejaVuSans-34"/>
     </g>
    </g>
   </g>
  </g>
 </g>
 <defs>
  <clipPath id="p15adc4b3a1">
   <rect height="319.844051" width="750.517165" x="50.918331" y="6.799459"/>
  </clipPath>
 </defs>
</svg>
