<?xml version="1.0" encoding="utf-8" standalone="no"?>
<!DOCTYPE svg PUBLIC "-//W3C//DTD SVG 1.1//EN"
  "http://www.w3.org/Graphics/SVG/1.1/DTD/svg11.dtd">
<svg height="360pt" version="1.1" viewBox="0 0 720 360" width="720pt" xmlns="http://www.w3.org/2000/svg" xmlns:xlink="http://www.w3.org/1999/xlink">
 <metadata>
  <rdf:RDF xmlns:cc="http://creativecommons.org/ns#" xmlns:dc="http://purl.org/dc/elements/1.1/" xmlns:rdf="http://www.w3.org/1999/02/22-rdf-syntax-ns#">
   <cc:Work>
    <dc:type rdf:resource="http://purl.org/dc/dcmitype/StillImage"/>
    <dc:date>2022-04-11T21:23:31.712666</dc:date>
    <dc:format>image/svg+xml</dc:format>
    <dc:creator>
     <cc:Agent>
      <dc:title>Matplotlib v3.4.3, https://matplotlib.org/</dc:title>
     </cc:Agent>
    </dc:creator>
   </cc:Work>
  </rdf:RDF>
 </metadata>
 <defs>
  <style type="text/css">*{stroke-linecap:butt;stroke-linejoin:round;}</style>
 </defs>
 <g id="figure_1">
  <g id="patch_1">
   <path d="M 0 360 
L 720 360 
L 720 0 
L 0 0 
z
" style="fill:#ffffff;"/>
  </g>
  <g id="axes_1">
   <g id="patch_2">
    <path d="M 44.783053 326.64351 
L 706.827217 326.64351 
L 706.827217 3.00024 
L 44.783053 3.00024 
z
" style="fill:#ffffff;"/>
   </g>
   <g id="matplotlib.axis_1">
    <g id="xtick_1">
     <g id="line2d_1">
      <path clip-path="url(#p9341958e3d)" d="M 46.741763 326.64351 
L 46.741763 3.00024 
" style="fill:none;stroke:#b0b0b0;stroke-linecap:square;stroke-width:0.8;"/>
     </g>
     <g id="line2d_2">
      <defs>
       <path d="M 0 0 
L 0 3.5 
" id="mf548d7953e" style="stroke:#000000;stroke-width:0.8;"/>
      </defs>
      <g>
       <use style="stroke:#000000;stroke-width:0.8;" x="46.741763" xlink:href="#mf548d7953e" y="326.64351"/>
      </g>
     </g>
     <g id="text_1">
      <!-- Mon. -->
      <g transform="translate(34.610513 341.241947)scale(0.1 -0.1)">
       <defs>
        <path d="M 628 4666 
L 1569 4666 
L 2759 1491 
L 3956 4666 
L 4897 4666 
L 4897 0 
L 4281 0 
L 4281 4097 
L 3078 897 
L 2444 897 
L 1241 4097 
L 1241 0 
L 628 0 
L 628 4666 
z
" id="DejaVuSans-4d" transform="scale(0.015625)"/>
        <path d="M 1959 3097 
Q 1497 3097 1228 2736 
Q 959 2375 959 1747 
Q 959 1119 1226 758 
Q 1494 397 1959 397 
Q 2419 397 2687 759 
Q 2956 1122 2956 1747 
Q 2956 2369 2687 2733 
Q 2419 3097 1959 3097 
z
M 1959 3584 
Q 2709 3584 3137 3096 
Q 3566 2609 3566 1747 
Q 3566 888 3137 398 
Q 2709 -91 1959 -91 
Q 1206 -91 779 398 
Q 353 888 353 1747 
Q 353 2609 779 3096 
Q 1206 3584 1959 3584 
z
" id="DejaVuSans-6f" transform="scale(0.015625)"/>
        <path d="M 3513 2113 
L 3513 0 
L 2938 0 
L 2938 2094 
Q 2938 2591 2744 2837 
Q 2550 3084 2163 3084 
Q 1697 3084 1428 2787 
Q 1159 2491 1159 1978 
L 1159 0 
L 581 0 
L 581 3500 
L 1159 3500 
L 1159 2956 
Q 1366 3272 1645 3428 
Q 1925 3584 2291 3584 
Q 2894 3584 3203 3211 
Q 3513 2838 3513 2113 
z
" id="DejaVuSans-6e" transform="scale(0.015625)"/>
        <path d="M 684 794 
L 1344 794 
L 1344 0 
L 684 0 
L 684 794 
z
" id="DejaVuSans-2e" transform="scale(0.015625)"/>
       </defs>
       <use xlink:href="#DejaVuSans-4d"/>
       <use x="86.279297" xlink:href="#DejaVuSans-6f"/>
       <use x="147.460938" xlink:href="#DejaVuSans-6e"/>
       <use x="210.839844" xlink:href="#DejaVuSans-2e"/>
      </g>
     </g>
    </g>
    <g id="xtick_2">
     <g id="line2d_3">
      <path clip-path="url(#p9341958e3d)" d="M 140.759869 326.64351 
L 140.759869 3.00024 
" style="fill:none;stroke:#b0b0b0;stroke-linecap:square;stroke-width:0.8;"/>
     </g>
     <g id="line2d_4">
      <g>
       <use style="stroke:#000000;stroke-width:0.8;" x="140.759869" xlink:href="#mf548d7953e" y="326.64351"/>
      </g>
     </g>
     <g id="text_2">
      <!-- Tue. -->
      <g transform="translate(130.627838 341.241947)scale(0.1 -0.1)">
       <defs>
        <path d="M -19 4666 
L 3928 4666 
L 3928 4134 
L 2272 4134 
L 2272 0 
L 1638 0 
L 1638 4134 
L -19 4134 
L -19 4666 
z
" id="DejaVuSans-54" transform="scale(0.015625)"/>
        <path d="M 544 1381 
L 544 3500 
L 1119 3500 
L 1119 1403 
Q 1119 906 1312 657 
Q 1506 409 1894 409 
Q 2359 409 2629 706 
Q 2900 1003 2900 1516 
L 2900 3500 
L 3475 3500 
L 3475 0 
L 2900 0 
L 2900 538 
Q 2691 219 2414 64 
Q 2138 -91 1772 -91 
Q 1169 -91 856 284 
Q 544 659 544 1381 
z
M 1991 3584 
L 1991 3584 
z
" id="DejaVuSans-75" transform="scale(0.015625)"/>
        <path d="M 3597 1894 
L 3597 1613 
L 953 1613 
Q 991 1019 1311 708 
Q 1631 397 2203 397 
Q 2534 397 2845 478 
Q 3156 559 3463 722 
L 3463 178 
Q 3153 47 2828 -22 
Q 2503 -91 2169 -91 
Q 1331 -91 842 396 
Q 353 884 353 1716 
Q 353 2575 817 3079 
Q 1281 3584 2069 3584 
Q 2775 3584 3186 3129 
Q 3597 2675 3597 1894 
z
M 3022 2063 
Q 3016 2534 2758 2815 
Q 2500 3097 2075 3097 
Q 1594 3097 1305 2825 
Q 1016 2553 972 2059 
L 3022 2063 
z
" id="DejaVuSans-65" transform="scale(0.015625)"/>
       </defs>
       <use xlink:href="#DejaVuSans-54"/>
       <use x="45.958984" xlink:href="#DejaVuSans-75"/>
       <use x="109.337891" xlink:href="#DejaVuSans-65"/>
       <use x="170.861328" xlink:href="#DejaVuSans-2e"/>
      </g>
     </g>
    </g>
    <g id="xtick_3">
     <g id="line2d_5">
      <path clip-path="url(#p9341958e3d)" d="M 234.777975 326.64351 
L 234.777975 3.00024 
" style="fill:none;stroke:#b0b0b0;stroke-linecap:square;stroke-width:0.8;"/>
     </g>
     <g id="line2d_6">
      <g>
       <use style="stroke:#000000;stroke-width:0.8;" x="234.777975" xlink:href="#mf548d7953e" y="326.64351"/>
      </g>
     </g>
     <g id="text_3">
      <!-- Wed. -->
      <g transform="translate(222.288132 341.241947)scale(0.1 -0.1)">
       <defs>
        <path d="M 213 4666 
L 850 4666 
L 1831 722 
L 2809 4666 
L 3519 4666 
L 4500 722 
L 5478 4666 
L 6119 4666 
L 4947 0 
L 4153 0 
L 3169 4050 
L 2175 0 
L 1381 0 
L 213 4666 
z
" id="DejaVuSans-57" transform="scale(0.015625)"/>
        <path d="M 2906 2969 
L 2906 4863 
L 3481 4863 
L 3481 0 
L 2906 0 
L 2906 525 
Q 2725 213 2448 61 
Q 2172 -91 1784 -91 
Q 1150 -91 751 415 
Q 353 922 353 1747 
Q 353 2572 751 3078 
Q 1150 3584 1784 3584 
Q 2172 3584 2448 3432 
Q 2725 3281 2906 2969 
z
M 947 1747 
Q 947 1113 1208 752 
Q 1469 391 1925 391 
Q 2381 391 2643 752 
Q 2906 1113 2906 1747 
Q 2906 2381 2643 2742 
Q 2381 3103 1925 3103 
Q 1469 3103 1208 2742 
Q 947 2381 947 1747 
z
" id="DejaVuSans-64" transform="scale(0.015625)"/>
       </defs>
       <use xlink:href="#DejaVuSans-57"/>
       <use x="93.001953" xlink:href="#DejaVuSans-65"/>
       <use x="154.525391" xlink:href="#DejaVuSans-64"/>
       <use x="218.001953" xlink:href="#DejaVuSans-2e"/>
      </g>
     </g>
    </g>
    <g id="xtick_4">
     <g id="line2d_7">
      <path clip-path="url(#p9341958e3d)" d="M 328.796082 326.64351 
L 328.796082 3.00024 
" style="fill:none;stroke:#b0b0b0;stroke-linecap:square;stroke-width:0.8;"/>
     </g>
     <g id="line2d_8">
      <g>
       <use style="stroke:#000000;stroke-width:0.8;" x="328.796082" xlink:href="#mf548d7953e" y="326.64351"/>
      </g>
     </g>
     <g id="text_4">
      <!-- Thur. -->
      <g transform="translate(316.216394 341.241947)scale(0.1 -0.1)">
       <defs>
        <path d="M 3513 2113 
L 3513 0 
L 2938 0 
L 2938 2094 
Q 2938 2591 2744 2837 
Q 2550 3084 2163 3084 
Q 1697 3084 1428 2787 
Q 1159 2491 1159 1978 
L 1159 0 
L 581 0 
L 581 4863 
L 1159 4863 
L 1159 2956 
Q 1366 3272 1645 3428 
Q 1925 3584 2291 3584 
Q 2894 3584 3203 3211 
Q 3513 2838 3513 2113 
z
" id="DejaVuSans-68" transform="scale(0.015625)"/>
        <path d="M 2631 2963 
Q 2534 3019 2420 3045 
Q 2306 3072 2169 3072 
Q 1681 3072 1420 2755 
Q 1159 2438 1159 1844 
L 1159 0 
L 581 0 
L 581 3500 
L 1159 3500 
L 1159 2956 
Q 1341 3275 1631 3429 
Q 1922 3584 2338 3584 
Q 2397 3584 2469 3576 
Q 2541 3569 2628 3553 
L 2631 2963 
z
" id="DejaVuSans-72" transform="scale(0.015625)"/>
       </defs>
       <use xlink:href="#DejaVuSans-54"/>
       <use x="61.083984" xlink:href="#DejaVuSans-68"/>
       <use x="124.462891" xlink:href="#DejaVuSans-75"/>
       <use x="187.841797" xlink:href="#DejaVuSans-72"/>
       <use x="219.830078" xlink:href="#DejaVuSans-2e"/>
      </g>
     </g>
    </g>
    <g id="xtick_5">
     <g id="line2d_9">
      <path clip-path="url(#p9341958e3d)" d="M 422.814188 326.64351 
L 422.814188 3.00024 
" style="fill:none;stroke:#b0b0b0;stroke-linecap:square;stroke-width:0.8;"/>
     </g>
     <g id="line2d_10">
      <g>
       <use style="stroke:#000000;stroke-width:0.8;" x="422.814188" xlink:href="#mf548d7953e" y="326.64351"/>
      </g>
     </g>
     <g id="text_5">
      <!-- Fri. -->
      <g transform="translate(415.267313 341.241947)scale(0.1 -0.1)">
       <defs>
        <path d="M 628 4666 
L 3309 4666 
L 3309 4134 
L 1259 4134 
L 1259 2759 
L 3109 2759 
L 3109 2228 
L 1259 2228 
L 1259 0 
L 628 0 
L 628 4666 
z
" id="DejaVuSans-46" transform="scale(0.015625)"/>
        <path d="M 603 3500 
L 1178 3500 
L 1178 0 
L 603 0 
L 603 3500 
z
M 603 4863 
L 1178 4863 
L 1178 4134 
L 603 4134 
L 603 4863 
z
" id="DejaVuSans-69" transform="scale(0.015625)"/>
       </defs>
       <use xlink:href="#DejaVuSans-46"/>
       <use x="50.269531" xlink:href="#DejaVuSans-72"/>
       <use x="91.382812" xlink:href="#DejaVuSans-69"/>
       <use x="119.166016" xlink:href="#DejaVuSans-2e"/>
      </g>
     </g>
    </g>
    <g id="xtick_6">
     <g id="line2d_11">
      <path clip-path="url(#p9341958e3d)" d="M 516.832294 326.64351 
L 516.832294 3.00024 
" style="fill:none;stroke:#b0b0b0;stroke-linecap:square;stroke-width:0.8;"/>
     </g>
     <g id="line2d_12">
      <g>
       <use style="stroke:#000000;stroke-width:0.8;" x="516.832294" xlink:href="#mf548d7953e" y="326.64351"/>
      </g>
     </g>
     <g id="text_6">
      <!-- Sat. -->
      <g transform="translate(507.044794 341.241947)scale(0.1 -0.1)">
       <defs>
        <path d="M 3425 4513 
L 3425 3897 
Q 3066 4069 2747 4153 
Q 2428 4238 2131 4238 
Q 1616 4238 1336 4038 
Q 1056 3838 1056 3469 
Q 1056 3159 1242 3001 
Q 1428 2844 1947 2747 
L 2328 2669 
Q 3034 2534 3370 2195 
Q 3706 1856 3706 1288 
Q 3706 609 3251 259 
Q 2797 -91 1919 -91 
Q 1588 -91 1214 -16 
Q 841 59 441 206 
L 441 856 
Q 825 641 1194 531 
Q 1563 422 1919 422 
Q 2459 422 2753 634 
Q 3047 847 3047 1241 
Q 3047 1584 2836 1778 
Q 2625 1972 2144 2069 
L 1759 2144 
Q 1053 2284 737 2584 
Q 422 2884 422 3419 
Q 422 4038 858 4394 
Q 1294 4750 2059 4750 
Q 2388 4750 2728 4690 
Q 3069 4631 3425 4513 
z
" id="DejaVuSans-53" transform="scale(0.015625)"/>
        <path d="M 2194 1759 
Q 1497 1759 1228 1600 
Q 959 1441 959 1056 
Q 959 750 1161 570 
Q 1363 391 1709 391 
Q 2188 391 2477 730 
Q 2766 1069 2766 1631 
L 2766 1759 
L 2194 1759 
z
M 3341 1997 
L 3341 0 
L 2766 0 
L 2766 531 
Q 2569 213 2275 61 
Q 1981 -91 1556 -91 
Q 1019 -91 701 211 
Q 384 513 384 1019 
Q 384 1609 779 1909 
Q 1175 2209 1959 2209 
L 2766 2209 
L 2766 2266 
Q 2766 2663 2505 2880 
Q 2244 3097 1772 3097 
Q 1472 3097 1187 3025 
Q 903 2953 641 2809 
L 641 3341 
Q 956 3463 1253 3523 
Q 1550 3584 1831 3584 
Q 2591 3584 2966 3190 
Q 3341 2797 3341 1997 
z
" id="DejaVuSans-61" transform="scale(0.015625)"/>
        <path d="M 1172 4494 
L 1172 3500 
L 2356 3500 
L 2356 3053 
L 1172 3053 
L 1172 1153 
Q 1172 725 1289 603 
Q 1406 481 1766 481 
L 2356 481 
L 2356 0 
L 1766 0 
Q 1100 0 847 248 
Q 594 497 594 1153 
L 594 3053 
L 172 3053 
L 172 3500 
L 594 3500 
L 594 4494 
L 1172 4494 
z
" id="DejaVuSans-74" transform="scale(0.015625)"/>
       </defs>
       <use xlink:href="#DejaVuSans-53"/>
       <use x="63.476562" xlink:href="#DejaVuSans-61"/>
       <use x="124.755859" xlink:href="#DejaVuSans-74"/>
       <use x="163.964844" xlink:href="#DejaVuSans-2e"/>
      </g>
     </g>
    </g>
    <g id="xtick_7">
     <g id="line2d_13">
      <path clip-path="url(#p9341958e3d)" d="M 610.8504 326.64351 
L 610.8504 3.00024 
" style="fill:none;stroke:#b0b0b0;stroke-linecap:square;stroke-width:0.8;"/>
     </g>
     <g id="line2d_14">
      <g>
       <use style="stroke:#000000;stroke-width:0.8;" x="610.8504" xlink:href="#mf548d7953e" y="326.64351"/>
      </g>
     </g>
     <g id="text_7">
      <!-- Sun. -->
      <g transform="translate(599.749619 341.241947)scale(0.1 -0.1)">
       <use xlink:href="#DejaVuSans-53"/>
       <use x="63.476562" xlink:href="#DejaVuSans-75"/>
       <use x="126.855469" xlink:href="#DejaVuSans-6e"/>
       <use x="190.234375" xlink:href="#DejaVuSans-2e"/>
      </g>
     </g>
    </g>
    <g id="xtick_8">
     <g id="line2d_15">
      <path clip-path="url(#p9341958e3d)" d="M 704.868506 326.64351 
L 704.868506 3.00024 
" style="fill:none;stroke:#b0b0b0;stroke-linecap:square;stroke-width:0.8;"/>
     </g>
     <g id="line2d_16">
      <g>
       <use style="stroke:#000000;stroke-width:0.8;" x="704.868506" xlink:href="#mf548d7953e" y="326.64351"/>
      </g>
     </g>
     <g id="text_8">
      <!-- Mon. -->
      <g transform="translate(692.737256 341.241947)scale(0.1 -0.1)">
       <use xlink:href="#DejaVuSans-4d"/>
       <use x="86.279297" xlink:href="#DejaVuSans-6f"/>
       <use x="147.460938" xlink:href="#DejaVuSans-6e"/>
       <use x="210.839844" xlink:href="#DejaVuSans-2e"/>
      </g>
     </g>
    </g>
    <g id="text_9">
     <!-- Day of the week -->
     <g transform="translate(335.00201 354.920073)scale(0.1 -0.1)">
      <defs>
       <path d="M 1259 4147 
L 1259 519 
L 2022 519 
Q 2988 519 3436 956 
Q 3884 1394 3884 2338 
Q 3884 3275 3436 3711 
Q 2988 4147 2022 4147 
L 1259 4147 
z
M 628 4666 
L 1925 4666 
Q 3281 4666 3915 4102 
Q 4550 3538 4550 2338 
Q 4550 1131 3912 565 
Q 3275 0 1925 0 
L 628 0 
L 628 4666 
z
" id="DejaVuSans-44" transform="scale(0.015625)"/>
       <path d="M 2059 -325 
Q 1816 -950 1584 -1140 
Q 1353 -1331 966 -1331 
L 506 -1331 
L 506 -850 
L 844 -850 
Q 1081 -850 1212 -737 
Q 1344 -625 1503 -206 
L 1606 56 
L 191 3500 
L 800 3500 
L 1894 763 
L 2988 3500 
L 3597 3500 
L 2059 -325 
z
" id="DejaVuSans-79" transform="scale(0.015625)"/>
       <path id="DejaVuSans-20" transform="scale(0.015625)"/>
       <path d="M 2375 4863 
L 2375 4384 
L 1825 4384 
Q 1516 4384 1395 4259 
Q 1275 4134 1275 3809 
L 1275 3500 
L 2222 3500 
L 2222 3053 
L 1275 3053 
L 1275 0 
L 697 0 
L 697 3053 
L 147 3053 
L 147 3500 
L 697 3500 
L 697 3744 
Q 697 4328 969 4595 
Q 1241 4863 1831 4863 
L 2375 4863 
z
" id="DejaVuSans-66" transform="scale(0.015625)"/>
       <path d="M 269 3500 
L 844 3500 
L 1563 769 
L 2278 3500 
L 2956 3500 
L 3675 769 
L 4391 3500 
L 4966 3500 
L 4050 0 
L 3372 0 
L 2619 2869 
L 1863 0 
L 1184 0 
L 269 3500 
z
" id="DejaVuSans-77" transform="scale(0.015625)"/>
       <path d="M 581 4863 
L 1159 4863 
L 1159 1991 
L 2875 3500 
L 3609 3500 
L 1753 1863 
L 3688 0 
L 2938 0 
L 1159 1709 
L 1159 0 
L 581 0 
L 581 4863 
z
" id="DejaVuSans-6b" transform="scale(0.015625)"/>
      </defs>
      <use xlink:href="#DejaVuSans-44"/>
      <use x="77.001953" xlink:href="#DejaVuSans-61"/>
      <use x="138.28125" xlink:href="#DejaVuSans-79"/>
      <use x="197.460938" xlink:href="#DejaVuSans-20"/>
      <use x="229.248047" xlink:href="#DejaVuSans-6f"/>
      <use x="290.429688" xlink:href="#DejaVuSans-66"/>
      <use x="325.634766" xlink:href="#DejaVuSans-20"/>
      <use x="357.421875" xlink:href="#DejaVuSans-74"/>
      <use x="396.630859" xlink:href="#DejaVuSans-68"/>
      <use x="460.009766" xlink:href="#DejaVuSans-65"/>
      <use x="521.533203" xlink:href="#DejaVuSans-20"/>
      <use x="553.320312" xlink:href="#DejaVuSans-77"/>
      <use x="635.107422" xlink:href="#DejaVuSans-65"/>
      <use x="696.630859" xlink:href="#DejaVuSans-65"/>
      <use x="758.154297" xlink:href="#DejaVuSans-6b"/>
     </g>
    </g>
   </g>
   <g id="matplotlib.axis_2">
    <g id="ytick_1">
     <g id="line2d_17">
      <path clip-path="url(#p9341958e3d)" d="M 44.783053 296.447811 
L 706.827217 296.447811 
" style="fill:none;stroke:#b0b0b0;stroke-linecap:square;stroke-width:0.8;"/>
     </g>
     <g id="line2d_18">
      <defs>
       <path d="M 0 0 
L -3.5 0 
" id="mf143eb8050" style="stroke:#000000;stroke-width:0.8;"/>
      </defs>
      <g>
       <use style="stroke:#000000;stroke-width:0.8;" x="44.783053" xlink:href="#mf143eb8050" y="296.447811"/>
      </g>
     </g>
     <g id="text_10">
      <!-- −10 -->
      <g transform="translate(16.678365 300.24703)scale(0.1 -0.1)">
       <defs>
        <path d="M 678 2272 
L 4684 2272 
L 4684 1741 
L 678 1741 
L 678 2272 
z
" id="DejaVuSans-2212" transform="scale(0.015625)"/>
        <path d="M 794 531 
L 1825 531 
L 1825 4091 
L 703 3866 
L 703 4441 
L 1819 4666 
L 2450 4666 
L 2450 531 
L 3481 531 
L 3481 0 
L 794 0 
L 794 531 
z
" id="DejaVuSans-31" transform="scale(0.015625)"/>
        <path d="M 2034 4250 
Q 1547 4250 1301 3770 
Q 1056 3291 1056 2328 
Q 1056 1369 1301 889 
Q 1547 409 2034 409 
Q 2525 409 2770 889 
Q 3016 1369 3016 2328 
Q 3016 3291 2770 3770 
Q 2525 4250 2034 4250 
z
M 2034 4750 
Q 2819 4750 3233 4129 
Q 3647 3509 3647 2328 
Q 3647 1150 3233 529 
Q 2819 -91 2034 -91 
Q 1250 -91 836 529 
Q 422 1150 422 2328 
Q 422 3509 836 4129 
Q 1250 4750 2034 4750 
z
" id="DejaVuSans-30" transform="scale(0.015625)"/>
       </defs>
       <use xlink:href="#DejaVuSans-2212"/>
       <use x="83.789062" xlink:href="#DejaVuSans-31"/>
       <use x="147.412109" xlink:href="#DejaVuSans-30"/>
      </g>
     </g>
    </g>
    <g id="ytick_2">
     <g id="line2d_19">
      <path clip-path="url(#p9341958e3d)" d="M 44.783053 234.41677 
L 706.827217 234.41677 
" style="fill:none;stroke:#b0b0b0;stroke-linecap:square;stroke-width:0.8;"/>
     </g>
     <g id="line2d_20">
      <g>
       <use style="stroke:#000000;stroke-width:0.8;" x="44.783053" xlink:href="#mf143eb8050" y="234.41677"/>
      </g>
     </g>
     <g id="text_11">
      <!-- −5 -->
      <g transform="translate(23.040865 238.215989)scale(0.1 -0.1)">
       <defs>
        <path d="M 691 4666 
L 3169 4666 
L 3169 4134 
L 1269 4134 
L 1269 2991 
Q 1406 3038 1543 3061 
Q 1681 3084 1819 3084 
Q 2600 3084 3056 2656 
Q 3513 2228 3513 1497 
Q 3513 744 3044 326 
Q 2575 -91 1722 -91 
Q 1428 -91 1123 -41 
Q 819 9 494 109 
L 494 744 
Q 775 591 1075 516 
Q 1375 441 1709 441 
Q 2250 441 2565 725 
Q 2881 1009 2881 1497 
Q 2881 1984 2565 2268 
Q 2250 2553 1709 2553 
Q 1456 2553 1204 2497 
Q 953 2441 691 2322 
L 691 4666 
z
" id="DejaVuSans-35" transform="scale(0.015625)"/>
       </defs>
       <use xlink:href="#DejaVuSans-2212"/>
       <use x="83.789062" xlink:href="#DejaVuSans-35"/>
      </g>
     </g>
    </g>
    <g id="ytick_3">
     <g id="line2d_21">
      <path clip-path="url(#p9341958e3d)" d="M 44.783053 172.38573 
L 706.827217 172.38573 
" style="fill:none;stroke:#b0b0b0;stroke-linecap:square;stroke-width:0.8;"/>
     </g>
     <g id="line2d_22">
      <g>
       <use style="stroke:#000000;stroke-width:0.8;" x="44.783053" xlink:href="#mf143eb8050" y="172.38573"/>
      </g>
     </g>
     <g id="text_12">
      <!-- 0 -->
      <g transform="translate(31.420553 176.184948)scale(0.1 -0.1)">
       <use xlink:href="#DejaVuSans-30"/>
      </g>
     </g>
    </g>
    <g id="ytick_4">
     <g id="line2d_23">
      <path clip-path="url(#p9341958e3d)" d="M 44.783053 110.354689 
L 706.827217 110.354689 
" style="fill:none;stroke:#b0b0b0;stroke-linecap:square;stroke-width:0.8;"/>
     </g>
     <g id="line2d_24">
      <g>
       <use style="stroke:#000000;stroke-width:0.8;" x="44.783053" xlink:href="#mf143eb8050" y="110.354689"/>
      </g>
     </g>
     <g id="text_13">
      <!-- 5 -->
      <g transform="translate(31.420553 114.153908)scale(0.1 -0.1)">
       <use xlink:href="#DejaVuSans-35"/>
      </g>
     </g>
    </g>
    <g id="ytick_5">
     <g id="line2d_25">
      <path clip-path="url(#p9341958e3d)" d="M 44.783053 48.323648 
L 706.827217 48.323648 
" style="fill:none;stroke:#b0b0b0;stroke-linecap:square;stroke-width:0.8;"/>
     </g>
     <g id="line2d_26">
      <g>
       <use style="stroke:#000000;stroke-width:0.8;" x="44.783053" xlink:href="#mf143eb8050" y="48.323648"/>
      </g>
     </g>
     <g id="text_14">
      <!-- 10 -->
      <g transform="translate(25.058053 52.122867)scale(0.1 -0.1)">
       <use xlink:href="#DejaVuSans-31"/>
       <use x="63.623047" xlink:href="#DejaVuSans-30"/>
      </g>
     </g>
    </g>
    <g id="text_15">
     <!-- Demand difference (MW) -->
     <g transform="translate(10.598677 227.5375)rotate(-90)scale(0.1 -0.1)">
      <defs>
       <path d="M 3328 2828 
Q 3544 3216 3844 3400 
Q 4144 3584 4550 3584 
Q 5097 3584 5394 3201 
Q 5691 2819 5691 2113 
L 5691 0 
L 5113 0 
L 5113 2094 
Q 5113 2597 4934 2840 
Q 4756 3084 4391 3084 
Q 3944 3084 3684 2787 
Q 3425 2491 3425 1978 
L 3425 0 
L 2847 0 
L 2847 2094 
Q 2847 2600 2669 2842 
Q 2491 3084 2119 3084 
Q 1678 3084 1418 2786 
Q 1159 2488 1159 1978 
L 1159 0 
L 581 0 
L 581 3500 
L 1159 3500 
L 1159 2956 
Q 1356 3278 1631 3431 
Q 1906 3584 2284 3584 
Q 2666 3584 2933 3390 
Q 3200 3197 3328 2828 
z
" id="DejaVuSans-6d" transform="scale(0.015625)"/>
       <path d="M 3122 3366 
L 3122 2828 
Q 2878 2963 2633 3030 
Q 2388 3097 2138 3097 
Q 1578 3097 1268 2742 
Q 959 2388 959 1747 
Q 959 1106 1268 751 
Q 1578 397 2138 397 
Q 2388 397 2633 464 
Q 2878 531 3122 666 
L 3122 134 
Q 2881 22 2623 -34 
Q 2366 -91 2075 -91 
Q 1284 -91 818 406 
Q 353 903 353 1747 
Q 353 2603 823 3093 
Q 1294 3584 2113 3584 
Q 2378 3584 2631 3529 
Q 2884 3475 3122 3366 
z
" id="DejaVuSans-63" transform="scale(0.015625)"/>
       <path d="M 1984 4856 
Q 1566 4138 1362 3434 
Q 1159 2731 1159 2009 
Q 1159 1288 1364 580 
Q 1569 -128 1984 -844 
L 1484 -844 
Q 1016 -109 783 600 
Q 550 1309 550 2009 
Q 550 2706 781 3412 
Q 1013 4119 1484 4856 
L 1984 4856 
z
" id="DejaVuSans-28" transform="scale(0.015625)"/>
       <path d="M 513 4856 
L 1013 4856 
Q 1481 4119 1714 3412 
Q 1947 2706 1947 2009 
Q 1947 1309 1714 600 
Q 1481 -109 1013 -844 
L 513 -844 
Q 928 -128 1133 580 
Q 1338 1288 1338 2009 
Q 1338 2731 1133 3434 
Q 928 4138 513 4856 
z
" id="DejaVuSans-29" transform="scale(0.015625)"/>
      </defs>
      <use xlink:href="#DejaVuSans-44"/>
      <use x="77.001953" xlink:href="#DejaVuSans-65"/>
      <use x="138.525391" xlink:href="#DejaVuSans-6d"/>
      <use x="235.9375" xlink:href="#DejaVuSans-61"/>
      <use x="297.216797" xlink:href="#DejaVuSans-6e"/>
      <use x="360.595703" xlink:href="#DejaVuSans-64"/>
      <use x="424.072266" xlink:href="#DejaVuSans-20"/>
      <use x="455.859375" xlink:href="#DejaVuSans-64"/>
      <use x="519.335938" xlink:href="#DejaVuSans-69"/>
      <use x="547.119141" xlink:href="#DejaVuSans-66"/>
      <use x="582.324219" xlink:href="#DejaVuSans-66"/>
      <use x="617.529297" xlink:href="#DejaVuSans-65"/>
      <use x="679.052734" xlink:href="#DejaVuSans-72"/>
      <use x="717.916016" xlink:href="#DejaVuSans-65"/>
      <use x="779.439453" xlink:href="#DejaVuSans-6e"/>
      <use x="842.818359" xlink:href="#DejaVuSans-63"/>
      <use x="897.798828" xlink:href="#DejaVuSans-65"/>
      <use x="959.322266" xlink:href="#DejaVuSans-20"/>
      <use x="991.109375" xlink:href="#DejaVuSans-28"/>
      <use x="1030.123047" xlink:href="#DejaVuSans-4d"/>
      <use x="1116.402344" xlink:href="#DejaVuSans-57"/>
      <use x="1215.279297" xlink:href="#DejaVuSans-29"/>
     </g>
    </g>
   </g>
   <g id="line2d_27">
    <path clip-path="url(#p9341958e3d)" d="M 46.741763 188.461093 
L 48.700474 210.113912 
L 50.659184 216.392974 
L 52.617895 228.309726 
L 56.535316 253.317433 
L 58.494026 261.085179 
L 60.452737 272.741532 
L 62.411447 271.416477 
L 64.370158 274.400885 
L 66.328868 280.020401 
L 68.287579 274.129163 
L 70.24629 263.47334 
L 72.205 231.099862 
L 74.163711 192.42787 
L 76.122421 144.505386 
L 78.081132 119.354992 
L 80.039842 124.773101 
L 81.998553 142.247798 
L 83.957263 140.312711 
L 85.915974 142.064504 
L 87.874684 142.168574 
L 89.833395 144.524506 
L 91.792106 148.571772 
L 93.750816 153.804103 
L 95.709527 153.168989 
L 97.668237 145.821544 
L 99.626948 156.948248 
L 101.585658 166.034223 
L 103.544369 168.150035 
L 105.503079 165.093419 
L 107.46179 154.89338 
L 109.4205 148.930124 
L 111.379211 116.998492 
L 115.296632 25.667898 
L 117.255343 17.711298 
L 119.214053 24.562814 
L 121.172764 32.481318 
L 123.131474 50.299009 
L 125.090185 65.576387 
L 127.048895 84.921522 
L 129.007606 98.576165 
L 130.966316 114.970079 
L 132.925027 149.995549 
L 134.883738 168.034229 
L 136.842448 171.57267 
L 138.801159 181.399935 
L 142.71858 230.172179 
L 144.67729 236.717378 
L 146.636001 251.985184 
L 148.594711 271.56482 
L 150.553422 278.924605 
L 154.470843 294.985984 
L 156.429554 295.525322 
L 158.388264 298.824069 
L 160.346975 304.301809 
L 162.305685 300.49768 
L 164.264396 290.386744 
L 166.223106 262.203467 
L 168.181817 227.928031 
L 170.140527 185.274982 
L 172.099238 156.400569 
L 174.057948 154.084415 
L 176.016659 168.131555 
L 177.97537 165.271933 
L 181.892791 166.257093 
L 183.851501 161.193858 
L 185.810212 162.59603 
L 187.768922 164.850708 
L 191.686343 150.957709 
L 193.645054 160.861842 
L 195.603764 164.145008 
L 197.562475 168.057371 
L 199.521186 168.785149 
L 201.479896 163.830882 
L 203.438607 155.959018 
L 205.397317 129.325642 
L 207.356028 89.155797 
L 209.314738 38.04609 
L 211.273449 25.985952 
L 213.232159 33.538366 
L 215.19087 38.856286 
L 217.14958 57.47963 
L 219.108291 73.45206 
L 221.067002 87.97608 
L 223.025712 104.74297 
L 224.984423 118.064674 
L 226.943133 144.403612 
L 228.901844 165.248577 
L 230.860554 166.83861 
L 232.819265 181.184448 
L 236.736686 224.952496 
L 238.695396 231.765039 
L 240.654107 245.135537 
L 244.571528 275.903176 
L 246.530239 284.35083 
L 248.488949 291.309304 
L 250.44766 290.409377 
L 252.40637 296.814457 
L 254.365081 297.359569 
L 256.323791 293.388675 
L 258.282502 280.612236 
L 262.199923 220.76337 
L 264.158634 171.339188 
L 266.117344 146.194094 
L 268.076055 157.785468 
L 270.034765 174.106382 
L 271.993476 170.220923 
L 273.952186 173.373303 
L 275.910897 168.502235 
L 277.869607 166.647816 
L 279.828318 171.654094 
L 281.787028 175.828147 
L 283.745739 170.36063 
L 285.70445 167.308959 
L 287.66316 178.037274 
L 289.621871 183.416776 
L 291.580581 185.336411 
L 293.539292 188.093182 
L 295.498002 180.849191 
L 297.456713 175.744971 
L 299.415423 149.738475 
L 301.374134 105.642778 
L 303.332844 50.837152 
L 305.291555 26.472439 
L 307.250266 22.264028 
L 309.208976 31.576209 
L 311.167687 49.113187 
L 313.126397 57.740822 
L 315.085108 67.315047 
L 317.043818 81.823094 
L 319.002529 90.939038 
L 320.961239 122.345707 
L 322.91995 148.260107 
L 324.87866 156.557005 
L 326.837371 169.336804 
L 328.796082 190.546723 
L 330.754792 219.790243 
L 332.713503 224.183911 
L 334.672213 237.388768 
L 336.630924 253.767183 
L 338.589634 262.302343 
L 340.548345 268.196326 
L 342.507055 279.48059 
L 344.465766 277.912173 
L 346.424476 284.727793 
L 348.383187 288.203043 
L 350.341898 282.989784 
L 352.300608 271.955223 
L 354.259319 244.347324 
L 356.218029 209.06698 
L 358.17674 161.66378 
L 360.13545 136.020131 
L 362.094161 139.390116 
L 364.052871 156.791197 
L 366.011582 152.818446 
L 367.970292 159.455694 
L 369.929003 154.891061 
L 371.887714 157.483457 
L 373.846424 159.115113 
L 375.805135 156.3571 
L 377.763845 158.583667 
L 379.722556 152.836761 
L 381.681266 156.081616 
L 383.639977 158.213342 
L 385.598687 157.339847 
L 387.557398 153.332524 
L 389.516108 150.232084 
L 391.474819 150.88866 
L 393.43353 119.64536 
L 395.39224 81.017346 
L 397.350951 37.810004 
L 399.309661 21.513155 
L 401.268372 24.735885 
L 405.185793 44.985183 
L 407.144503 53.373775 
L 409.103214 71.347121 
L 411.061924 92.207325 
L 413.020635 108.294355 
L 416.938056 149.044251 
L 418.896767 150.229315 
L 420.855477 165.758893 
L 424.772898 221.764172 
L 426.731609 229.762786 
L 428.690319 242.971512 
L 430.64903 258.787884 
L 432.60774 270.009678 
L 434.566451 278.748576 
L 436.525162 286.945522 
L 438.483872 289.566526 
L 440.442583 297.157629 
L 442.401293 298.837463 
L 444.360004 295.856237 
L 446.318714 282.941038 
L 448.277425 257.527133 
L 450.236135 226.132958 
L 452.194846 175.97384 
L 454.153556 147.982067 
L 456.112267 148.547399 
L 458.070978 164.798839 
L 460.029688 164.950968 
L 461.988399 167.50761 
L 463.947109 165.612514 
L 465.90582 166.676069 
L 467.86453 172.575507 
L 469.823241 176.256754 
L 471.781951 179.52636 
L 473.740662 173.274629 
L 475.699372 179.258093 
L 477.658083 182.487851 
L 479.616794 189.834184 
L 481.575504 192.634104 
L 483.534215 189.495259 
L 485.492925 188.28142 
L 487.451636 163.856083 
L 489.410346 132.297261 
L 491.369057 77.379473 
L 493.327767 58.109846 
L 495.286478 57.025443 
L 497.245188 63.883988 
L 501.16261 99.601481 
L 503.12132 110.538124 
L 507.038741 144.741472 
L 510.956162 182.421335 
L 512.914873 178.918471 
L 514.873583 170.933912 
L 516.832294 191.993205 
L 518.791004 214.913258 
L 520.749715 222.69215 
L 522.708426 239.175735 
L 524.667136 257.776943 
L 526.625847 273.539648 
L 528.584557 285.268894 
L 530.543268 295.817844 
L 532.501978 296.284974 
L 536.419399 311.199385 
L 538.37811 311.932452 
L 540.33682 305.703721 
L 542.295531 300.366906 
L 544.254242 297.944801 
L 546.212952 276.611905 
L 548.171663 257.934728 
L 550.130373 236.205122 
L 554.047794 184.447168 
L 556.006505 167.013562 
L 557.965215 148.443306 
L 559.923926 139.126061 
L 561.882636 137.216673 
L 563.841347 136.526282 
L 565.800058 135.505415 
L 567.758768 126.227308 
L 569.717479 134.661096 
L 571.676189 135.390436 
L 573.6349 137.19185 
L 575.59361 141.400877 
L 577.552321 142.605487 
L 579.511031 152.266294 
L 581.469742 142.740508 
L 583.428452 127.598861 
L 585.387163 89.744437 
L 587.345874 61.459906 
L 589.304584 63.441325 
L 591.263295 73.46046 
L 593.222005 85.070599 
L 595.180716 102.695011 
L 597.139426 118.894227 
L 601.056847 147.919029 
L 603.015558 164.335364 
L 604.974268 174.422531 
L 606.932979 158.365116 
L 608.89169 152.840914 
L 610.8504 178.671985 
L 612.809111 200.22148 
L 614.767821 217.253916 
L 618.685242 256.651107 
L 620.643953 270.47604 
L 622.602663 281.836416 
L 624.561374 291.429618 
L 626.520084 291.073869 
L 628.478795 286.886826 
L 632.396216 285.603926 
L 634.354927 281.781056 
L 636.313637 275.668498 
L 638.272348 276.434445 
L 640.231058 261.380919 
L 642.189769 258.790026 
L 644.148479 246.366047 
L 646.10719 227.560935 
L 648.0659 206.615071 
L 650.024611 191.411498 
L 651.983322 170.031194 
L 653.942032 156.632076 
L 655.900743 153.287446 
L 657.859453 151.327218 
L 659.818164 148.758532 
L 661.776874 135.179221 
L 663.735585 140.560108 
L 665.694295 154.554195 
L 667.653006 163.369348 
L 669.611716 163.586751 
L 671.570427 160.696498 
L 673.529138 156.045435 
L 675.487848 134.205513 
L 677.446559 99.597908 
L 679.405269 53.915727 
L 681.36398 40.463971 
L 683.32269 41.112881 
L 685.281401 53.261446 
L 687.240111 66.688735 
L 689.198822 83.82401 
L 691.157532 99.250062 
L 693.116243 116.990234 
L 695.074954 131.024619 
L 697.033664 149.170966 
L 698.992375 169.22347 
L 700.951085 163.328553 
L 702.909796 168.947394 
L 702.909796 168.947394 
" style="fill:none;stroke:#d62728;stroke-dasharray:7.4,3.2;stroke-dashoffset:0;stroke-width:2;"/>
   </g>
   <g id="line2d_28">
    <path clip-path="url(#p9341958e3d)" d="M 46.741763 187.260269 
L 48.700474 209.611441 
L 50.659184 222.055723 
L 54.576605 244.413538 
L 56.535316 251.391687 
L 58.494026 256.81518 
L 60.452737 259.676535 
L 62.411447 258.17273 
L 64.370158 259.208955 
L 66.328868 259.590875 
L 68.287579 254.155533 
L 70.24629 238.329471 
L 72.205 211.138897 
L 74.163711 179.453419 
L 76.122421 144.481865 
L 78.081132 129.047082 
L 80.039842 134.650543 
L 81.998553 147.14208 
L 83.957263 147.996585 
L 85.915974 146.574393 
L 87.874684 142.955273 
L 89.833395 140.231441 
L 91.792106 140.124354 
L 93.750816 140.19616 
L 95.709527 138.452377 
L 97.668237 132.512831 
L 101.585658 141.776017 
L 103.544369 145.688121 
L 105.503079 146.256955 
L 107.46179 142.957852 
L 109.4205 133.898794 
L 111.379211 106.109127 
L 115.296632 26.868581 
L 117.255343 17.797431 
L 119.214053 26.610016 
L 125.090185 68.108584 
L 127.048895 83.065305 
L 130.966316 120.000139 
L 132.925027 141.319298 
L 134.883738 157.645549 
L 136.842448 158.586447 
L 138.801159 167.206416 
L 140.759869 206.699489 
L 142.71858 229.493856 
L 144.67729 239.585117 
L 146.636001 249.055301 
L 148.594711 259.539591 
L 150.553422 267.620671 
L 154.470843 280.469158 
L 156.429554 281.613144 
L 158.388264 285.168338 
L 160.346975 289.240261 
L 162.305685 287.006217 
L 164.264396 273.513216 
L 166.223106 244.546394 
L 168.181817 205.806709 
L 170.140527 161.54911 
L 172.099238 139.097535 
L 174.057948 144.064995 
L 176.016659 160.338181 
L 177.97537 164.601384 
L 179.93408 165.527469 
L 181.892791 163.96007 
L 183.851501 163.455706 
L 185.810212 164.309785 
L 187.768922 167.072992 
L 189.727633 165.98252 
L 191.686343 160.603739 
L 193.645054 165.346992 
L 195.603764 169.513874 
L 197.562475 171.310828 
L 199.521186 168.952281 
L 201.479896 161.088557 
L 203.438607 149.416658 
L 205.397317 118.346382 
L 207.356028 76.463551 
L 209.314738 39.467879 
L 211.273449 29.659888 
L 213.232159 35.038622 
L 215.19087 44.308446 
L 221.067002 83.628767 
L 223.025712 99.898877 
L 224.984423 118.165573 
L 226.943133 142.830273 
L 228.901844 160.339281 
L 230.860554 162.160655 
L 232.819265 171.28875 
L 234.777975 203.356113 
L 236.736686 226.582578 
L 238.695396 235.793931 
L 240.654107 246.027116 
L 242.612818 259.081695 
L 244.571528 268.431104 
L 246.530239 275.38078 
L 248.488949 281.053467 
L 250.44766 281.863995 
L 252.40637 285.066635 
L 254.365081 289.335564 
L 256.323791 286.448446 
L 258.282502 274.771092 
L 260.241212 249.899844 
L 262.199923 216.38022 
L 264.158634 176.514526 
L 266.117344 154.750799 
L 268.076055 158.12961 
L 270.034765 173.725326 
L 271.993476 177.138057 
L 273.952186 177.417529 
L 275.910897 176.431552 
L 277.869607 174.094835 
L 279.828318 172.362635 
L 281.787028 172.547951 
L 283.745739 169.288851 
L 285.70445 163.052725 
L 287.66316 168.059252 
L 289.621871 171.240324 
L 291.580581 172.208305 
L 293.539292 171.710377 
L 295.498002 165.715223 
L 297.456713 155.341273 
L 299.415423 126.560743 
L 303.332844 47.335033 
L 305.291555 34.215908 
L 307.250266 37.443252 
L 309.208976 45.258395 
L 315.085108 84.744642 
L 317.043818 98.982245 
L 319.002529 115.615534 
L 320.961239 138.376276 
L 322.91995 154.308822 
L 324.87866 155.366604 
L 326.837371 164.916125 
L 328.796082 199.620074 
L 330.754792 220.057019 
L 332.713503 227.824091 
L 334.672213 237.510046 
L 336.630924 250.707585 
L 338.589634 261.980888 
L 340.548345 269.575818 
L 342.507055 274.610646 
L 344.465766 274.571057 
L 346.424476 278.022324 
L 348.383187 280.346039 
L 350.341898 275.935322 
L 352.300608 261.778966 
L 354.259319 232.608328 
L 356.218029 195.982544 
L 358.17674 152.917641 
L 360.13545 133.802415 
L 362.094161 142.519378 
L 364.052871 158.230521 
L 366.011582 158.744208 
L 367.970292 157.488805 
L 369.929003 154.658383 
L 371.887714 152.937696 
L 373.846424 152.869156 
L 375.805135 154.6873 
L 377.763845 152.050713 
L 379.722556 147.419031 
L 381.681266 152.663477 
L 383.639977 154.548895 
L 385.598687 154.029363 
L 387.557398 153.838379 
L 389.516108 149.505323 
L 391.474819 142.37249 
L 393.43353 115.764824 
L 397.350951 35.187272 
L 399.309661 21.639776 
L 401.268372 24.015798 
L 403.227082 32.340215 
L 405.185793 47.485459 
L 409.103214 75.158136 
L 411.061924 90.236342 
L 413.020635 106.828765 
L 414.979346 131.4276 
L 416.938056 150.574653 
L 418.896767 155.01722 
L 420.855477 167.097767 
L 422.814188 198.162104 
L 424.772898 222.013023 
L 426.731609 232.518847 
L 428.690319 244.300666 
L 430.64903 258.356502 
L 432.60774 268.325496 
L 434.566451 275.169861 
L 436.525162 280.505965 
L 438.483872 280.630492 
L 440.442583 285.238452 
L 442.401293 288.410898 
L 444.360004 285.288168 
L 446.318714 273.88172 
L 448.277425 249.216097 
L 450.236135 215.417717 
L 452.194846 173.731561 
L 454.153556 149.936191 
L 456.112267 151.711315 
L 458.070978 164.269167 
L 460.029688 166.114145 
L 461.988399 168.290925 
L 463.947109 167.923959 
L 465.90582 169.346565 
L 467.86453 171.915866 
L 469.823241 174.059742 
L 471.781951 173.658087 
L 473.740662 171.515288 
L 475.699372 176.895287 
L 477.658083 180.190414 
L 479.616794 181.664569 
L 481.575504 181.984232 
L 483.534215 180.247844 
L 485.492925 176.901463 
L 487.451636 153.629494 
L 489.410346 117.420734 
L 491.369057 77.361537 
L 493.327767 62.674645 
L 495.286478 64.994822 
L 497.245188 72.858806 
L 499.203899 85.39729 
L 501.16261 99.091804 
L 503.12132 115.215772 
L 505.080031 133.48597 
L 508.997452 164.16324 
L 510.956162 171.77545 
L 512.914873 164.778998 
L 514.873583 170.263682 
L 516.832294 188.896161 
L 518.791004 210.34439 
L 520.749715 223.13712 
L 522.708426 238.539077 
L 524.667136 255.46629 
L 526.625847 268.576081 
L 528.584557 278.07895 
L 530.543268 284.154132 
L 532.501978 284.035734 
L 534.460689 286.705579 
L 536.419399 288.89251 
L 538.37811 289.156175 
L 540.33682 286.795593 
L 542.295531 279.274557 
L 544.254242 268.696153 
L 546.212952 246.04103 
L 548.171663 226.35468 
L 550.130373 212.349057 
L 552.089084 197.370282 
L 554.047794 175.660554 
L 556.006505 163.106925 
L 557.965215 155.001946 
L 559.923926 153.17823 
L 561.882636 156.165064 
L 563.841347 160.704839 
L 565.800058 164.07803 
L 567.758768 164.039211 
L 569.717479 172.795134 
L 571.676189 178.873558 
L 573.6349 183.487446 
L 575.59361 186.295187 
L 577.552321 186.396985 
L 579.511031 184.312183 
L 581.469742 163.335356 
L 583.428452 129.50205 
L 585.387163 85.531412 
L 587.345874 63.047289 
L 589.304584 59.104353 
L 591.263295 66.768456 
L 593.222005 82.74505 
L 595.180716 101.283302 
L 597.139426 116.92012 
L 599.098137 133.668648 
L 601.056847 146.127542 
L 603.015558 155.000313 
L 604.974268 156.758282 
L 606.932979 144.666413 
L 608.89169 144.558628 
L 610.8504 177.943178 
L 612.809111 201.798593 
L 614.767821 217.38676 
L 618.685242 252.603131 
L 620.643953 266.206714 
L 622.602663 275.49551 
L 624.561374 280.801409 
L 626.520084 279.398219 
L 628.478795 279.696384 
L 630.437506 279.838966 
L 632.396216 278.812478 
L 634.354927 277.533341 
L 638.272348 273.217879 
L 640.231058 261.355333 
L 642.189769 251.574567 
L 644.148479 242.491532 
L 646.10719 227.752274 
L 648.0659 204.404098 
L 650.024611 186.18952 
L 651.983322 169.925397 
L 653.942032 159.874695 
L 655.900743 154.837997 
L 657.859453 151.108548 
L 659.818164 145.982582 
L 661.776874 137.559076 
L 663.735585 139.808974 
L 665.694295 141.309419 
L 667.653006 142.207239 
L 669.611716 140.874257 
L 671.570427 137.463217 
L 673.529138 135.193892 
L 675.487848 117.065269 
L 677.446559 89.706694 
L 679.405269 54.24353 
L 681.36398 38.590432 
L 683.32269 41.09272 
L 685.281401 49.906393 
L 687.240111 61.929143 
L 691.157532 88.495198 
L 695.074954 120.663033 
L 697.033664 139.598729 
L 698.992375 153.005005 
L 700.951085 152.651894 
L 702.909796 159.211398 
L 702.909796 159.211398 
" style="fill:none;stroke:#1f77b4;stroke-linecap:square;stroke-width:1.5;"/>
   </g>
   <g id="patch_3">
    <path d="M 44.783053 326.64351 
L 44.783053 3.00024 
" style="fill:none;stroke:#000000;stroke-linecap:square;stroke-linejoin:miter;stroke-width:0.8;"/>
   </g>
   <g id="patch_4">
    <path d="M 706.827217 326.64351 
L 706.827217 3.00024 
" style="fill:none;stroke:#000000;stroke-linecap:square;stroke-linejoin:miter;stroke-width:0.8;"/>
   </g>
   <g id="patch_5">
    <path d="M 44.783053 326.64351 
L 706.827217 326.64351 
" style="fill:none;stroke:#000000;stroke-linecap:square;stroke-linejoin:miter;stroke-width:0.8;"/>
   </g>
   <g id="patch_6">
    <path d="M 44.783053 3.00024 
L 706.827217 3.00024 
" style="fill:none;stroke:#000000;stroke-linecap:square;stroke-linejoin:miter;stroke-width:0.8;"/>
   </g>
   <g id="legend_1">
    <g id="patch_7">
     <path d="M 192.977791 25.678365 
L 558.632478 25.678365 
L 558.632478 8.00024 
L 192.977791 8.00024 
z
" style="fill:#ffffff;opacity:0.95;stroke:#000000;stroke-linejoin:miter;"/>
    </g>
    <g id="line2d_29">
     <path d="M 196.977791 16.098678 
L 216.977791 16.098678 
" style="fill:none;stroke:#d62728;stroke-dasharray:7.4,3.2;stroke-dashoffset:0;stroke-width:2;"/>
    </g>
    <g id="line2d_30"/>
    <g id="text_16">
     <!-- Actual demand difference -->
     <g transform="translate(224.977791 19.598678)scale(0.1 -0.1)">
      <defs>
       <path d="M 2188 4044 
L 1331 1722 
L 3047 1722 
L 2188 4044 
z
M 1831 4666 
L 2547 4666 
L 4325 0 
L 3669 0 
L 3244 1197 
L 1141 1197 
L 716 0 
L 50 0 
L 1831 4666 
z
" id="DejaVuSans-41" transform="scale(0.015625)"/>
       <path d="M 603 4863 
L 1178 4863 
L 1178 0 
L 603 0 
L 603 4863 
z
" id="DejaVuSans-6c" transform="scale(0.015625)"/>
      </defs>
      <use xlink:href="#DejaVuSans-41"/>
      <use x="66.658203" xlink:href="#DejaVuSans-63"/>
      <use x="121.638672" xlink:href="#DejaVuSans-74"/>
      <use x="160.847656" xlink:href="#DejaVuSans-75"/>
      <use x="224.226562" xlink:href="#DejaVuSans-61"/>
      <use x="285.505859" xlink:href="#DejaVuSans-6c"/>
      <use x="313.289062" xlink:href="#DejaVuSans-20"/>
      <use x="345.076172" xlink:href="#DejaVuSans-64"/>
      <use x="408.552734" xlink:href="#DejaVuSans-65"/>
      <use x="470.076172" xlink:href="#DejaVuSans-6d"/>
      <use x="567.488281" xlink:href="#DejaVuSans-61"/>
      <use x="628.767578" xlink:href="#DejaVuSans-6e"/>
      <use x="692.146484" xlink:href="#DejaVuSans-64"/>
      <use x="755.623047" xlink:href="#DejaVuSans-20"/>
      <use x="787.410156" xlink:href="#DejaVuSans-64"/>
      <use x="850.886719" xlink:href="#DejaVuSans-69"/>
      <use x="878.669922" xlink:href="#DejaVuSans-66"/>
      <use x="913.875" xlink:href="#DejaVuSans-66"/>
      <use x="949.080078" xlink:href="#DejaVuSans-65"/>
      <use x="1010.603516" xlink:href="#DejaVuSans-72"/>
      <use x="1049.466797" xlink:href="#DejaVuSans-65"/>
      <use x="1110.990234" xlink:href="#DejaVuSans-6e"/>
      <use x="1174.369141" xlink:href="#DejaVuSans-63"/>
      <use x="1229.349609" xlink:href="#DejaVuSans-65"/>
     </g>
    </g>
    <g id="line2d_31">
     <path d="M 374.066853 16.098678 
L 394.066853 16.098678 
" style="fill:none;stroke:#1f77b4;stroke-linecap:square;stroke-width:1.5;"/>
    </g>
    <g id="line2d_32"/>
    <g id="text_17">
     <!-- Forecasted demand difference -->
     <g transform="translate(402.066853 19.598678)scale(0.1 -0.1)">
      <defs>
       <path d="M 2834 3397 
L 2834 2853 
Q 2591 2978 2328 3040 
Q 2066 3103 1784 3103 
Q 1356 3103 1142 2972 
Q 928 2841 928 2578 
Q 928 2378 1081 2264 
Q 1234 2150 1697 2047 
L 1894 2003 
Q 2506 1872 2764 1633 
Q 3022 1394 3022 966 
Q 3022 478 2636 193 
Q 2250 -91 1575 -91 
Q 1294 -91 989 -36 
Q 684 19 347 128 
L 347 722 
Q 666 556 975 473 
Q 1284 391 1588 391 
Q 1994 391 2212 530 
Q 2431 669 2431 922 
Q 2431 1156 2273 1281 
Q 2116 1406 1581 1522 
L 1381 1569 
Q 847 1681 609 1914 
Q 372 2147 372 2553 
Q 372 3047 722 3315 
Q 1072 3584 1716 3584 
Q 2034 3584 2315 3537 
Q 2597 3491 2834 3397 
z
" id="DejaVuSans-73" transform="scale(0.015625)"/>
      </defs>
      <use xlink:href="#DejaVuSans-46"/>
      <use x="53.894531" xlink:href="#DejaVuSans-6f"/>
      <use x="115.076172" xlink:href="#DejaVuSans-72"/>
      <use x="153.939453" xlink:href="#DejaVuSans-65"/>
      <use x="215.462891" xlink:href="#DejaVuSans-63"/>
      <use x="270.443359" xlink:href="#DejaVuSans-61"/>
      <use x="331.722656" xlink:href="#DejaVuSans-73"/>
      <use x="383.822266" xlink:href="#DejaVuSans-74"/>
      <use x="423.03125" xlink:href="#DejaVuSans-65"/>
      <use x="484.554688" xlink:href="#DejaVuSans-64"/>
      <use x="548.03125" xlink:href="#DejaVuSans-20"/>
      <use x="579.818359" xlink:href="#DejaVuSans-64"/>
      <use x="643.294922" xlink:href="#DejaVuSans-65"/>
      <use x="704.818359" xlink:href="#DejaVuSans-6d"/>
      <use x="802.230469" xlink:href="#DejaVuSans-61"/>
      <use x="863.509766" xlink:href="#DejaVuSans-6e"/>
      <use x="926.888672" xlink:href="#DejaVuSans-64"/>
      <use x="990.365234" xlink:href="#DejaVuSans-20"/>
      <use x="1022.152344" xlink:href="#DejaVuSans-64"/>
      <use x="1085.628906" xlink:href="#DejaVuSans-69"/>
      <use x="1113.412109" xlink:href="#DejaVuSans-66"/>
      <use x="1148.617188" xlink:href="#DejaVuSans-66"/>
      <use x="1183.822266" xlink:href="#DejaVuSans-65"/>
      <use x="1245.345703" xlink:href="#DejaVuSans-72"/>
      <use x="1284.208984" xlink:href="#DejaVuSans-65"/>
      <use x="1345.732422" xlink:href="#DejaVuSans-6e"/>
      <use x="1409.111328" xlink:href="#DejaVuSans-63"/>
      <use x="1464.091797" xlink:href="#DejaVuSans-65"/>
     </g>
    </g>
   </g>
  </g>
 </g>
 <defs>
  <clipPath id="p9341958e3d">
   <rect height="323.64327" width="662.044164" x="44.783053" y="3.00024"/>
  </clipPath>
 </defs>
</svg>
