<?xml version="1.0" encoding="utf-8" standalone="no"?>
<!DOCTYPE svg PUBLIC "-//W3C//DTD SVG 1.1//EN"
  "http://www.w3.org/Graphics/SVG/1.1/DTD/svg11.dtd">
<svg height="360pt" version="1.1" viewBox="0 0 720 360" width="720pt" xmlns="http://www.w3.org/2000/svg" xmlns:xlink="http://www.w3.org/1999/xlink">
 <metadata>
  <rdf:RDF xmlns:cc="http://creativecommons.org/ns#" xmlns:dc="http://purl.org/dc/elements/1.1/" xmlns:rdf="http://www.w3.org/1999/02/22-rdf-syntax-ns#">
   <cc:Work>
    <dc:type rdf:resource="http://purl.org/dc/dcmitype/StillImage"/>
    <dc:date>2022-04-24T10:26:26.875048</dc:date>
    <dc:format>image/svg+xml</dc:format>
    <dc:creator>
     <cc:Agent>
      <dc:title>Matplotlib v3.4.3, https://matplotlib.org/</dc:title>
     </cc:Agent>
    </dc:creator>
   </cc:Work>
  </rdf:RDF>
 </metadata>
 <defs>
  <style type="text/css">*{stroke-linecap:butt;stroke-linejoin:round;}</style>
 </defs>
 <g id="figure_1">
  <g id="patch_1">
   <path d="M 0 360 
L 720 360 
L 720 0 
L 0 0 
z
" style="fill:#ffffff;"/>
  </g>
  <g id="axes_1">
   <g id="patch_2">
    <path d="M 36.403365 326.64351 
L 706.852082 326.64351 
L 706.852082 6.799459 
L 36.403365 6.799459 
z
" style="fill:#ffffff;"/>
   </g>
   <g id="matplotlib.axis_1">
    <g id="xtick_1">
     <g id="line2d_1">
      <path clip-path="url(#p47ecd540d9)" d="M 38.386941 326.64351 
L 38.386941 6.799459 
" style="fill:none;stroke:#b0b0b0;stroke-linecap:square;stroke-width:0.8;"/>
     </g>
     <g id="line2d_2">
      <defs>
       <path d="M 0 0 
L 0 3.5 
" id="m361c44e1a1" style="stroke:#000000;stroke-width:0.8;"/>
      </defs>
      <g>
       <use style="stroke:#000000;stroke-width:0.8;" x="38.386941" xlink:href="#m361c44e1a1" y="326.64351"/>
      </g>
     </g>
     <g id="text_1">
      <!-- Mon. -->
      <g transform="translate(26.255691 341.241947)scale(0.1 -0.1)">
       <defs>
        <path d="M 628 4666 
L 1569 4666 
L 2759 1491 
L 3956 4666 
L 4897 4666 
L 4897 0 
L 4281 0 
L 4281 4097 
L 3078 897 
L 2444 897 
L 1241 4097 
L 1241 0 
L 628 0 
L 628 4666 
z
" id="DejaVuSans-4d" transform="scale(0.015625)"/>
        <path d="M 1959 3097 
Q 1497 3097 1228 2736 
Q 959 2375 959 1747 
Q 959 1119 1226 758 
Q 1494 397 1959 397 
Q 2419 397 2687 759 
Q 2956 1122 2956 1747 
Q 2956 2369 2687 2733 
Q 2419 3097 1959 3097 
z
M 1959 3584 
Q 2709 3584 3137 3096 
Q 3566 2609 3566 1747 
Q 3566 888 3137 398 
Q 2709 -91 1959 -91 
Q 1206 -91 779 398 
Q 353 888 353 1747 
Q 353 2609 779 3096 
Q 1206 3584 1959 3584 
z
" id="DejaVuSans-6f" transform="scale(0.015625)"/>
        <path d="M 3513 2113 
L 3513 0 
L 2938 0 
L 2938 2094 
Q 2938 2591 2744 2837 
Q 2550 3084 2163 3084 
Q 1697 3084 1428 2787 
Q 1159 2491 1159 1978 
L 1159 0 
L 581 0 
L 581 3500 
L 1159 3500 
L 1159 2956 
Q 1366 3272 1645 3428 
Q 1925 3584 2291 3584 
Q 2894 3584 3203 3211 
Q 3513 2838 3513 2113 
z
" id="DejaVuSans-6e" transform="scale(0.015625)"/>
        <path d="M 684 794 
L 1344 794 
L 1344 0 
L 684 0 
L 684 794 
z
" id="DejaVuSans-2e" transform="scale(0.015625)"/>
       </defs>
       <use xlink:href="#DejaVuSans-4d"/>
       <use x="86.279297" xlink:href="#DejaVuSans-6f"/>
       <use x="147.460938" xlink:href="#DejaVuSans-6e"/>
       <use x="210.839844" xlink:href="#DejaVuSans-2e"/>
      </g>
     </g>
    </g>
    <g id="xtick_2">
     <g id="line2d_3">
      <path clip-path="url(#p47ecd540d9)" d="M 133.598593 326.64351 
L 133.598593 6.799459 
" style="fill:none;stroke:#b0b0b0;stroke-linecap:square;stroke-width:0.8;"/>
     </g>
     <g id="line2d_4">
      <g>
       <use style="stroke:#000000;stroke-width:0.8;" x="133.598593" xlink:href="#m361c44e1a1" y="326.64351"/>
      </g>
     </g>
     <g id="text_2">
      <!-- Tue. -->
      <g transform="translate(123.466562 341.241947)scale(0.1 -0.1)">
       <defs>
        <path d="M -19 4666 
L 3928 4666 
L 3928 4134 
L 2272 4134 
L 2272 0 
L 1638 0 
L 1638 4134 
L -19 4134 
L -19 4666 
z
" id="DejaVuSans-54" transform="scale(0.015625)"/>
        <path d="M 544 1381 
L 544 3500 
L 1119 3500 
L 1119 1403 
Q 1119 906 1312 657 
Q 1506 409 1894 409 
Q 2359 409 2629 706 
Q 2900 1003 2900 1516 
L 2900 3500 
L 3475 3500 
L 3475 0 
L 2900 0 
L 2900 538 
Q 2691 219 2414 64 
Q 2138 -91 1772 -91 
Q 1169 -91 856 284 
Q 544 659 544 1381 
z
M 1991 3584 
L 1991 3584 
z
" id="DejaVuSans-75" transform="scale(0.015625)"/>
        <path d="M 3597 1894 
L 3597 1613 
L 953 1613 
Q 991 1019 1311 708 
Q 1631 397 2203 397 
Q 2534 397 2845 478 
Q 3156 559 3463 722 
L 3463 178 
Q 3153 47 2828 -22 
Q 2503 -91 2169 -91 
Q 1331 -91 842 396 
Q 353 884 353 1716 
Q 353 2575 817 3079 
Q 1281 3584 2069 3584 
Q 2775 3584 3186 3129 
Q 3597 2675 3597 1894 
z
M 3022 2063 
Q 3016 2534 2758 2815 
Q 2500 3097 2075 3097 
Q 1594 3097 1305 2825 
Q 1016 2553 972 2059 
L 3022 2063 
z
" id="DejaVuSans-65" transform="scale(0.015625)"/>
       </defs>
       <use xlink:href="#DejaVuSans-54"/>
       <use x="45.958984" xlink:href="#DejaVuSans-75"/>
       <use x="109.337891" xlink:href="#DejaVuSans-65"/>
       <use x="170.861328" xlink:href="#DejaVuSans-2e"/>
      </g>
     </g>
    </g>
    <g id="xtick_3">
     <g id="line2d_5">
      <path clip-path="url(#p47ecd540d9)" d="M 228.810245 326.64351 
L 228.810245 6.799459 
" style="fill:none;stroke:#b0b0b0;stroke-linecap:square;stroke-width:0.8;"/>
     </g>
     <g id="line2d_6">
      <g>
       <use style="stroke:#000000;stroke-width:0.8;" x="228.810245" xlink:href="#m361c44e1a1" y="326.64351"/>
      </g>
     </g>
     <g id="text_3">
      <!-- Wed. -->
      <g transform="translate(216.320402 341.241947)scale(0.1 -0.1)">
       <defs>
        <path d="M 213 4666 
L 850 4666 
L 1831 722 
L 2809 4666 
L 3519 4666 
L 4500 722 
L 5478 4666 
L 6119 4666 
L 4947 0 
L 4153 0 
L 3169 4050 
L 2175 0 
L 1381 0 
L 213 4666 
z
" id="DejaVuSans-57" transform="scale(0.015625)"/>
        <path d="M 2906 2969 
L 2906 4863 
L 3481 4863 
L 3481 0 
L 2906 0 
L 2906 525 
Q 2725 213 2448 61 
Q 2172 -91 1784 -91 
Q 1150 -91 751 415 
Q 353 922 353 1747 
Q 353 2572 751 3078 
Q 1150 3584 1784 3584 
Q 2172 3584 2448 3432 
Q 2725 3281 2906 2969 
z
M 947 1747 
Q 947 1113 1208 752 
Q 1469 391 1925 391 
Q 2381 391 2643 752 
Q 2906 1113 2906 1747 
Q 2906 2381 2643 2742 
Q 2381 3103 1925 3103 
Q 1469 3103 1208 2742 
Q 947 2381 947 1747 
z
" id="DejaVuSans-64" transform="scale(0.015625)"/>
       </defs>
       <use xlink:href="#DejaVuSans-57"/>
       <use x="93.001953" xlink:href="#DejaVuSans-65"/>
       <use x="154.525391" xlink:href="#DejaVuSans-64"/>
       <use x="218.001953" xlink:href="#DejaVuSans-2e"/>
      </g>
     </g>
    </g>
    <g id="xtick_4">
     <g id="line2d_7">
      <path clip-path="url(#p47ecd540d9)" d="M 324.021898 326.64351 
L 324.021898 6.799459 
" style="fill:none;stroke:#b0b0b0;stroke-linecap:square;stroke-width:0.8;"/>
     </g>
     <g id="line2d_8">
      <g>
       <use style="stroke:#000000;stroke-width:0.8;" x="324.021898" xlink:href="#m361c44e1a1" y="326.64351"/>
      </g>
     </g>
     <g id="text_4">
      <!-- Thur. -->
      <g transform="translate(311.44221 341.241947)scale(0.1 -0.1)">
       <defs>
        <path d="M 3513 2113 
L 3513 0 
L 2938 0 
L 2938 2094 
Q 2938 2591 2744 2837 
Q 2550 3084 2163 3084 
Q 1697 3084 1428 2787 
Q 1159 2491 1159 1978 
L 1159 0 
L 581 0 
L 581 4863 
L 1159 4863 
L 1159 2956 
Q 1366 3272 1645 3428 
Q 1925 3584 2291 3584 
Q 2894 3584 3203 3211 
Q 3513 2838 3513 2113 
z
" id="DejaVuSans-68" transform="scale(0.015625)"/>
        <path d="M 2631 2963 
Q 2534 3019 2420 3045 
Q 2306 3072 2169 3072 
Q 1681 3072 1420 2755 
Q 1159 2438 1159 1844 
L 1159 0 
L 581 0 
L 581 3500 
L 1159 3500 
L 1159 2956 
Q 1341 3275 1631 3429 
Q 1922 3584 2338 3584 
Q 2397 3584 2469 3576 
Q 2541 3569 2628 3553 
L 2631 2963 
z
" id="DejaVuSans-72" transform="scale(0.015625)"/>
       </defs>
       <use xlink:href="#DejaVuSans-54"/>
       <use x="61.083984" xlink:href="#DejaVuSans-68"/>
       <use x="124.462891" xlink:href="#DejaVuSans-75"/>
       <use x="187.841797" xlink:href="#DejaVuSans-72"/>
       <use x="219.830078" xlink:href="#DejaVuSans-2e"/>
      </g>
     </g>
    </g>
    <g id="xtick_5">
     <g id="line2d_9">
      <path clip-path="url(#p47ecd540d9)" d="M 419.23355 326.64351 
L 419.23355 6.799459 
" style="fill:none;stroke:#b0b0b0;stroke-linecap:square;stroke-width:0.8;"/>
     </g>
     <g id="line2d_10">
      <g>
       <use style="stroke:#000000;stroke-width:0.8;" x="419.23355" xlink:href="#m361c44e1a1" y="326.64351"/>
      </g>
     </g>
     <g id="text_5">
      <!-- Fri. -->
      <g transform="translate(411.686675 341.241947)scale(0.1 -0.1)">
       <defs>
        <path d="M 628 4666 
L 3309 4666 
L 3309 4134 
L 1259 4134 
L 1259 2759 
L 3109 2759 
L 3109 2228 
L 1259 2228 
L 1259 0 
L 628 0 
L 628 4666 
z
" id="DejaVuSans-46" transform="scale(0.015625)"/>
        <path d="M 603 3500 
L 1178 3500 
L 1178 0 
L 603 0 
L 603 3500 
z
M 603 4863 
L 1178 4863 
L 1178 4134 
L 603 4134 
L 603 4863 
z
" id="DejaVuSans-69" transform="scale(0.015625)"/>
       </defs>
       <use xlink:href="#DejaVuSans-46"/>
       <use x="50.269531" xlink:href="#DejaVuSans-72"/>
       <use x="91.382812" xlink:href="#DejaVuSans-69"/>
       <use x="119.166016" xlink:href="#DejaVuSans-2e"/>
      </g>
     </g>
    </g>
    <g id="xtick_6">
     <g id="line2d_11">
      <path clip-path="url(#p47ecd540d9)" d="M 514.445202 326.64351 
L 514.445202 6.799459 
" style="fill:none;stroke:#b0b0b0;stroke-linecap:square;stroke-width:0.8;"/>
     </g>
     <g id="line2d_12">
      <g>
       <use style="stroke:#000000;stroke-width:0.8;" x="514.445202" xlink:href="#m361c44e1a1" y="326.64351"/>
      </g>
     </g>
     <g id="text_6">
      <!-- Sat. -->
      <g transform="translate(504.657702 341.241947)scale(0.1 -0.1)">
       <defs>
        <path d="M 3425 4513 
L 3425 3897 
Q 3066 4069 2747 4153 
Q 2428 4238 2131 4238 
Q 1616 4238 1336 4038 
Q 1056 3838 1056 3469 
Q 1056 3159 1242 3001 
Q 1428 2844 1947 2747 
L 2328 2669 
Q 3034 2534 3370 2195 
Q 3706 1856 3706 1288 
Q 3706 609 3251 259 
Q 2797 -91 1919 -91 
Q 1588 -91 1214 -16 
Q 841 59 441 206 
L 441 856 
Q 825 641 1194 531 
Q 1563 422 1919 422 
Q 2459 422 2753 634 
Q 3047 847 3047 1241 
Q 3047 1584 2836 1778 
Q 2625 1972 2144 2069 
L 1759 2144 
Q 1053 2284 737 2584 
Q 422 2884 422 3419 
Q 422 4038 858 4394 
Q 1294 4750 2059 4750 
Q 2388 4750 2728 4690 
Q 3069 4631 3425 4513 
z
" id="DejaVuSans-53" transform="scale(0.015625)"/>
        <path d="M 2194 1759 
Q 1497 1759 1228 1600 
Q 959 1441 959 1056 
Q 959 750 1161 570 
Q 1363 391 1709 391 
Q 2188 391 2477 730 
Q 2766 1069 2766 1631 
L 2766 1759 
L 2194 1759 
z
M 3341 1997 
L 3341 0 
L 2766 0 
L 2766 531 
Q 2569 213 2275 61 
Q 1981 -91 1556 -91 
Q 1019 -91 701 211 
Q 384 513 384 1019 
Q 384 1609 779 1909 
Q 1175 2209 1959 2209 
L 2766 2209 
L 2766 2266 
Q 2766 2663 2505 2880 
Q 2244 3097 1772 3097 
Q 1472 3097 1187 3025 
Q 903 2953 641 2809 
L 641 3341 
Q 956 3463 1253 3523 
Q 1550 3584 1831 3584 
Q 2591 3584 2966 3190 
Q 3341 2797 3341 1997 
z
" id="DejaVuSans-61" transform="scale(0.015625)"/>
        <path d="M 1172 4494 
L 1172 3500 
L 2356 3500 
L 2356 3053 
L 1172 3053 
L 1172 1153 
Q 1172 725 1289 603 
Q 1406 481 1766 481 
L 2356 481 
L 2356 0 
L 1766 0 
Q 1100 0 847 248 
Q 594 497 594 1153 
L 594 3053 
L 172 3053 
L 172 3500 
L 594 3500 
L 594 4494 
L 1172 4494 
z
" id="DejaVuSans-74" transform="scale(0.015625)"/>
       </defs>
       <use xlink:href="#DejaVuSans-53"/>
       <use x="63.476562" xlink:href="#DejaVuSans-61"/>
       <use x="124.755859" xlink:href="#DejaVuSans-74"/>
       <use x="163.964844" xlink:href="#DejaVuSans-2e"/>
      </g>
     </g>
    </g>
    <g id="xtick_7">
     <g id="line2d_13">
      <path clip-path="url(#p47ecd540d9)" d="M 609.656854 326.64351 
L 609.656854 6.799459 
" style="fill:none;stroke:#b0b0b0;stroke-linecap:square;stroke-width:0.8;"/>
     </g>
     <g id="line2d_14">
      <g>
       <use style="stroke:#000000;stroke-width:0.8;" x="609.656854" xlink:href="#m361c44e1a1" y="326.64351"/>
      </g>
     </g>
     <g id="text_7">
      <!-- Sun. -->
      <g transform="translate(598.556073 341.241947)scale(0.1 -0.1)">
       <use xlink:href="#DejaVuSans-53"/>
       <use x="63.476562" xlink:href="#DejaVuSans-75"/>
       <use x="126.855469" xlink:href="#DejaVuSans-6e"/>
       <use x="190.234375" xlink:href="#DejaVuSans-2e"/>
      </g>
     </g>
    </g>
    <g id="xtick_8">
     <g id="line2d_15">
      <path clip-path="url(#p47ecd540d9)" d="M 704.868506 326.64351 
L 704.868506 6.799459 
" style="fill:none;stroke:#b0b0b0;stroke-linecap:square;stroke-width:0.8;"/>
     </g>
     <g id="line2d_16">
      <g>
       <use style="stroke:#000000;stroke-width:0.8;" x="704.868506" xlink:href="#m361c44e1a1" y="326.64351"/>
      </g>
     </g>
     <g id="text_8">
      <!-- Mon. -->
      <g transform="translate(692.737256 341.241947)scale(0.1 -0.1)">
       <use xlink:href="#DejaVuSans-4d"/>
       <use x="86.279297" xlink:href="#DejaVuSans-6f"/>
       <use x="147.460938" xlink:href="#DejaVuSans-6e"/>
       <use x="210.839844" xlink:href="#DejaVuSans-2e"/>
      </g>
     </g>
    </g>
    <g id="text_9">
     <!-- Day of the week -->
     <g transform="translate(330.824599 354.920073)scale(0.1 -0.1)">
      <defs>
       <path d="M 1259 4147 
L 1259 519 
L 2022 519 
Q 2988 519 3436 956 
Q 3884 1394 3884 2338 
Q 3884 3275 3436 3711 
Q 2988 4147 2022 4147 
L 1259 4147 
z
M 628 4666 
L 1925 4666 
Q 3281 4666 3915 4102 
Q 4550 3538 4550 2338 
Q 4550 1131 3912 565 
Q 3275 0 1925 0 
L 628 0 
L 628 4666 
z
" id="DejaVuSans-44" transform="scale(0.015625)"/>
       <path d="M 2059 -325 
Q 1816 -950 1584 -1140 
Q 1353 -1331 966 -1331 
L 506 -1331 
L 506 -850 
L 844 -850 
Q 1081 -850 1212 -737 
Q 1344 -625 1503 -206 
L 1606 56 
L 191 3500 
L 800 3500 
L 1894 763 
L 2988 3500 
L 3597 3500 
L 2059 -325 
z
" id="DejaVuSans-79" transform="scale(0.015625)"/>
       <path id="DejaVuSans-20" transform="scale(0.015625)"/>
       <path d="M 2375 4863 
L 2375 4384 
L 1825 4384 
Q 1516 4384 1395 4259 
Q 1275 4134 1275 3809 
L 1275 3500 
L 2222 3500 
L 2222 3053 
L 1275 3053 
L 1275 0 
L 697 0 
L 697 3053 
L 147 3053 
L 147 3500 
L 697 3500 
L 697 3744 
Q 697 4328 969 4595 
Q 1241 4863 1831 4863 
L 2375 4863 
z
" id="DejaVuSans-66" transform="scale(0.015625)"/>
       <path d="M 269 3500 
L 844 3500 
L 1563 769 
L 2278 3500 
L 2956 3500 
L 3675 769 
L 4391 3500 
L 4966 3500 
L 4050 0 
L 3372 0 
L 2619 2869 
L 1863 0 
L 1184 0 
L 269 3500 
z
" id="DejaVuSans-77" transform="scale(0.015625)"/>
       <path d="M 581 4863 
L 1159 4863 
L 1159 1991 
L 2875 3500 
L 3609 3500 
L 1753 1863 
L 3688 0 
L 2938 0 
L 1159 1709 
L 1159 0 
L 581 0 
L 581 4863 
z
" id="DejaVuSans-6b" transform="scale(0.015625)"/>
      </defs>
      <use xlink:href="#DejaVuSans-44"/>
      <use x="77.001953" xlink:href="#DejaVuSans-61"/>
      <use x="138.28125" xlink:href="#DejaVuSans-79"/>
      <use x="197.460938" xlink:href="#DejaVuSans-20"/>
      <use x="229.248047" xlink:href="#DejaVuSans-6f"/>
      <use x="290.429688" xlink:href="#DejaVuSans-66"/>
      <use x="325.634766" xlink:href="#DejaVuSans-20"/>
      <use x="357.421875" xlink:href="#DejaVuSans-74"/>
      <use x="396.630859" xlink:href="#DejaVuSans-68"/>
      <use x="460.009766" xlink:href="#DejaVuSans-65"/>
      <use x="521.533203" xlink:href="#DejaVuSans-20"/>
      <use x="553.320312" xlink:href="#DejaVuSans-77"/>
      <use x="635.107422" xlink:href="#DejaVuSans-65"/>
      <use x="696.630859" xlink:href="#DejaVuSans-65"/>
      <use x="758.154297" xlink:href="#DejaVuSans-6b"/>
     </g>
    </g>
   </g>
   <g id="matplotlib.axis_2">
    <g id="ytick_1">
     <g id="line2d_17">
      <path clip-path="url(#p47ecd540d9)" d="M 36.403365 326.64351 
L 706.852082 326.64351 
" style="fill:none;stroke:#b0b0b0;stroke-linecap:square;stroke-width:0.8;"/>
     </g>
     <g id="line2d_18">
      <defs>
       <path d="M 0 0 
L -3.5 0 
" id="m42ad761f0a" style="stroke:#000000;stroke-width:0.8;"/>
      </defs>
      <g>
       <use style="stroke:#000000;stroke-width:0.8;" x="36.403365" xlink:href="#m42ad761f0a" y="326.64351"/>
      </g>
     </g>
     <g id="text_10">
      <!-- 20 -->
      <g transform="translate(16.678365 330.442729)scale(0.1 -0.1)">
       <defs>
        <path d="M 1228 531 
L 3431 531 
L 3431 0 
L 469 0 
L 469 531 
Q 828 903 1448 1529 
Q 2069 2156 2228 2338 
Q 2531 2678 2651 2914 
Q 2772 3150 2772 3378 
Q 2772 3750 2511 3984 
Q 2250 4219 1831 4219 
Q 1534 4219 1204 4116 
Q 875 4013 500 3803 
L 500 4441 
Q 881 4594 1212 4672 
Q 1544 4750 1819 4750 
Q 2544 4750 2975 4387 
Q 3406 4025 3406 3419 
Q 3406 3131 3298 2873 
Q 3191 2616 2906 2266 
Q 2828 2175 2409 1742 
Q 1991 1309 1228 531 
z
" id="DejaVuSans-32" transform="scale(0.015625)"/>
        <path d="M 2034 4250 
Q 1547 4250 1301 3770 
Q 1056 3291 1056 2328 
Q 1056 1369 1301 889 
Q 1547 409 2034 409 
Q 2525 409 2770 889 
Q 3016 1369 3016 2328 
Q 3016 3291 2770 3770 
Q 2525 4250 2034 4250 
z
M 2034 4750 
Q 2819 4750 3233 4129 
Q 3647 3509 3647 2328 
Q 3647 1150 3233 529 
Q 2819 -91 2034 -91 
Q 1250 -91 836 529 
Q 422 1150 422 2328 
Q 422 3509 836 4129 
Q 1250 4750 2034 4750 
z
" id="DejaVuSans-30" transform="scale(0.015625)"/>
       </defs>
       <use xlink:href="#DejaVuSans-32"/>
       <use x="63.623047" xlink:href="#DejaVuSans-30"/>
      </g>
     </g>
    </g>
    <g id="ytick_2">
     <g id="line2d_19">
      <path clip-path="url(#p47ecd540d9)" d="M 36.403365 273.336168 
L 706.852082 273.336168 
" style="fill:none;stroke:#b0b0b0;stroke-linecap:square;stroke-width:0.8;"/>
     </g>
     <g id="line2d_20">
      <g>
       <use style="stroke:#000000;stroke-width:0.8;" x="36.403365" xlink:href="#m42ad761f0a" y="273.336168"/>
      </g>
     </g>
     <g id="text_11">
      <!-- 25 -->
      <g transform="translate(16.678365 277.135387)scale(0.1 -0.1)">
       <defs>
        <path d="M 691 4666 
L 3169 4666 
L 3169 4134 
L 1269 4134 
L 1269 2991 
Q 1406 3038 1543 3061 
Q 1681 3084 1819 3084 
Q 2600 3084 3056 2656 
Q 3513 2228 3513 1497 
Q 3513 744 3044 326 
Q 2575 -91 1722 -91 
Q 1428 -91 1123 -41 
Q 819 9 494 109 
L 494 744 
Q 775 591 1075 516 
Q 1375 441 1709 441 
Q 2250 441 2565 725 
Q 2881 1009 2881 1497 
Q 2881 1984 2565 2268 
Q 2250 2553 1709 2553 
Q 1456 2553 1204 2497 
Q 953 2441 691 2322 
L 691 4666 
z
" id="DejaVuSans-35" transform="scale(0.015625)"/>
       </defs>
       <use xlink:href="#DejaVuSans-32"/>
       <use x="63.623047" xlink:href="#DejaVuSans-35"/>
      </g>
     </g>
    </g>
    <g id="ytick_3">
     <g id="line2d_21">
      <path clip-path="url(#p47ecd540d9)" d="M 36.403365 220.028826 
L 706.852082 220.028826 
" style="fill:none;stroke:#b0b0b0;stroke-linecap:square;stroke-width:0.8;"/>
     </g>
     <g id="line2d_22">
      <g>
       <use style="stroke:#000000;stroke-width:0.8;" x="36.403365" xlink:href="#m42ad761f0a" y="220.028826"/>
      </g>
     </g>
     <g id="text_12">
      <!-- 30 -->
      <g transform="translate(16.678365 223.828045)scale(0.1 -0.1)">
       <defs>
        <path d="M 2597 2516 
Q 3050 2419 3304 2112 
Q 3559 1806 3559 1356 
Q 3559 666 3084 287 
Q 2609 -91 1734 -91 
Q 1441 -91 1130 -33 
Q 819 25 488 141 
L 488 750 
Q 750 597 1062 519 
Q 1375 441 1716 441 
Q 2309 441 2620 675 
Q 2931 909 2931 1356 
Q 2931 1769 2642 2001 
Q 2353 2234 1838 2234 
L 1294 2234 
L 1294 2753 
L 1863 2753 
Q 2328 2753 2575 2939 
Q 2822 3125 2822 3475 
Q 2822 3834 2567 4026 
Q 2313 4219 1838 4219 
Q 1578 4219 1281 4162 
Q 984 4106 628 3988 
L 628 4550 
Q 988 4650 1302 4700 
Q 1616 4750 1894 4750 
Q 2613 4750 3031 4423 
Q 3450 4097 3450 3541 
Q 3450 3153 3228 2886 
Q 3006 2619 2597 2516 
z
" id="DejaVuSans-33" transform="scale(0.015625)"/>
       </defs>
       <use xlink:href="#DejaVuSans-33"/>
       <use x="63.623047" xlink:href="#DejaVuSans-30"/>
      </g>
     </g>
    </g>
    <g id="ytick_4">
     <g id="line2d_23">
      <path clip-path="url(#p47ecd540d9)" d="M 36.403365 166.721484 
L 706.852082 166.721484 
" style="fill:none;stroke:#b0b0b0;stroke-linecap:square;stroke-width:0.8;"/>
     </g>
     <g id="line2d_24">
      <g>
       <use style="stroke:#000000;stroke-width:0.8;" x="36.403365" xlink:href="#m42ad761f0a" y="166.721484"/>
      </g>
     </g>
     <g id="text_13">
      <!-- 35 -->
      <g transform="translate(16.678365 170.520703)scale(0.1 -0.1)">
       <use xlink:href="#DejaVuSans-33"/>
       <use x="63.623047" xlink:href="#DejaVuSans-35"/>
      </g>
     </g>
    </g>
    <g id="ytick_5">
     <g id="line2d_25">
      <path clip-path="url(#p47ecd540d9)" d="M 36.403365 113.414143 
L 706.852082 113.414143 
" style="fill:none;stroke:#b0b0b0;stroke-linecap:square;stroke-width:0.8;"/>
     </g>
     <g id="line2d_26">
      <g>
       <use style="stroke:#000000;stroke-width:0.8;" x="36.403365" xlink:href="#m42ad761f0a" y="113.414143"/>
      </g>
     </g>
     <g id="text_14">
      <!-- 40 -->
      <g transform="translate(16.678365 117.213361)scale(0.1 -0.1)">
       <defs>
        <path d="M 2419 4116 
L 825 1625 
L 2419 1625 
L 2419 4116 
z
M 2253 4666 
L 3047 4666 
L 3047 1625 
L 3713 1625 
L 3713 1100 
L 3047 1100 
L 3047 0 
L 2419 0 
L 2419 1100 
L 313 1100 
L 313 1709 
L 2253 4666 
z
" id="DejaVuSans-34" transform="scale(0.015625)"/>
       </defs>
       <use xlink:href="#DejaVuSans-34"/>
       <use x="63.623047" xlink:href="#DejaVuSans-30"/>
      </g>
     </g>
    </g>
    <g id="ytick_6">
     <g id="line2d_27">
      <path clip-path="url(#p47ecd540d9)" d="M 36.403365 60.106801 
L 706.852082 60.106801 
" style="fill:none;stroke:#b0b0b0;stroke-linecap:square;stroke-width:0.8;"/>
     </g>
     <g id="line2d_28">
      <g>
       <use style="stroke:#000000;stroke-width:0.8;" x="36.403365" xlink:href="#m42ad761f0a" y="60.106801"/>
      </g>
     </g>
     <g id="text_15">
      <!-- 45 -->
      <g transform="translate(16.678365 63.906019)scale(0.1 -0.1)">
       <use xlink:href="#DejaVuSans-34"/>
       <use x="63.623047" xlink:href="#DejaVuSans-35"/>
      </g>
     </g>
    </g>
    <g id="ytick_7">
     <g id="line2d_29">
      <path clip-path="url(#p47ecd540d9)" d="M 36.403365 6.799459 
L 706.852082 6.799459 
" style="fill:none;stroke:#b0b0b0;stroke-linecap:square;stroke-width:0.8;"/>
     </g>
     <g id="line2d_30">
      <g>
       <use style="stroke:#000000;stroke-width:0.8;" x="36.403365" xlink:href="#m42ad761f0a" y="6.799459"/>
      </g>
     </g>
     <g id="text_16">
      <!-- 50 -->
      <g transform="translate(16.678365 10.598678)scale(0.1 -0.1)">
       <use xlink:href="#DejaVuSans-35"/>
       <use x="63.623047" xlink:href="#DejaVuSans-30"/>
      </g>
     </g>
    </g>
    <g id="text_17">
     <!-- Load demand (MW) -->
     <g transform="translate(10.598678 215.583203)rotate(-90)scale(0.1 -0.1)">
      <defs>
       <path d="M 628 4666 
L 1259 4666 
L 1259 531 
L 3531 531 
L 3531 0 
L 628 0 
L 628 4666 
z
" id="DejaVuSans-4c" transform="scale(0.015625)"/>
       <path d="M 3328 2828 
Q 3544 3216 3844 3400 
Q 4144 3584 4550 3584 
Q 5097 3584 5394 3201 
Q 5691 2819 5691 2113 
L 5691 0 
L 5113 0 
L 5113 2094 
Q 5113 2597 4934 2840 
Q 4756 3084 4391 3084 
Q 3944 3084 3684 2787 
Q 3425 2491 3425 1978 
L 3425 0 
L 2847 0 
L 2847 2094 
Q 2847 2600 2669 2842 
Q 2491 3084 2119 3084 
Q 1678 3084 1418 2786 
Q 1159 2488 1159 1978 
L 1159 0 
L 581 0 
L 581 3500 
L 1159 3500 
L 1159 2956 
Q 1356 3278 1631 3431 
Q 1906 3584 2284 3584 
Q 2666 3584 2933 3390 
Q 3200 3197 3328 2828 
z
" id="DejaVuSans-6d" transform="scale(0.015625)"/>
       <path d="M 1984 4856 
Q 1566 4138 1362 3434 
Q 1159 2731 1159 2009 
Q 1159 1288 1364 580 
Q 1569 -128 1984 -844 
L 1484 -844 
Q 1016 -109 783 600 
Q 550 1309 550 2009 
Q 550 2706 781 3412 
Q 1013 4119 1484 4856 
L 1984 4856 
z
" id="DejaVuSans-28" transform="scale(0.015625)"/>
       <path d="M 513 4856 
L 1013 4856 
Q 1481 4119 1714 3412 
Q 1947 2706 1947 2009 
Q 1947 1309 1714 600 
Q 1481 -109 1013 -844 
L 513 -844 
Q 928 -128 1133 580 
Q 1338 1288 1338 2009 
Q 1338 2731 1133 3434 
Q 928 4138 513 4856 
z
" id="DejaVuSans-29" transform="scale(0.015625)"/>
      </defs>
      <use xlink:href="#DejaVuSans-4c"/>
      <use x="53.962891" xlink:href="#DejaVuSans-6f"/>
      <use x="115.144531" xlink:href="#DejaVuSans-61"/>
      <use x="176.423828" xlink:href="#DejaVuSans-64"/>
      <use x="239.900391" xlink:href="#DejaVuSans-20"/>
      <use x="271.6875" xlink:href="#DejaVuSans-64"/>
      <use x="335.164062" xlink:href="#DejaVuSans-65"/>
      <use x="396.6875" xlink:href="#DejaVuSans-6d"/>
      <use x="494.099609" xlink:href="#DejaVuSans-61"/>
      <use x="555.378906" xlink:href="#DejaVuSans-6e"/>
      <use x="618.757812" xlink:href="#DejaVuSans-64"/>
      <use x="682.234375" xlink:href="#DejaVuSans-20"/>
      <use x="714.021484" xlink:href="#DejaVuSans-28"/>
      <use x="753.035156" xlink:href="#DejaVuSans-4d"/>
      <use x="839.314453" xlink:href="#DejaVuSans-57"/>
      <use x="938.191406" xlink:href="#DejaVuSans-29"/>
     </g>
    </g>
   </g>
   <g id="line2d_31">
    <path clip-path="url(#p47ecd540d9)" d="M 38.386941 231.799088 
L 40.370517 248.964059 
L 42.354093 254.124202 
L 44.337669 264.401854 
L 48.304822 285.788766 
L 50.288398 292.270936 
L 52.271974 302.036845 
L 54.25555 300.6082 
L 56.239126 302.847109 
L 58.222702 307.303605 
L 60.206278 301.80229 
L 62.189854 292.121676 
L 64.17343 263.676876 
L 66.157006 229.709439 
L 68.140582 187.681927 
L 70.124158 165.122268 
L 72.107735 168.747169 
L 74.091311 182.671044 
L 76.074887 179.877728 
L 78.058463 180.240223 
L 80.042039 179.195403 
L 82.025615 180.112294 
L 84.009191 182.521764 
L 85.992767 185.997425 
L 87.976343 184.483495 
L 89.959919 177.255004 
L 91.943495 185.954762 
L 93.927072 192.948697 
L 95.910648 193.993526 
L 97.894224 190.624503 
L 99.8778 181.135782 
L 101.861376 175.293294 
L 103.844952 147.125692 
L 107.812104 67.100725 
L 109.79568 59.424475 
L 111.779256 64.414027 
L 113.762832 70.256535 
L 115.746408 84.542904 
L 117.729985 96.590335 
L 119.713561 112.092135 
L 121.697137 122.689609 
L 123.680713 135.675281 
L 125.664289 164.781106 
L 127.647865 179.493923 
L 129.631441 182.116647 
L 131.615017 192.458274 
L 133.598593 219.197231 
L 135.582169 237.748194 
L 137.565745 241.714257 
L 139.549322 253.633769 
L 141.532898 269.60466 
L 143.516474 275.361853 
L 147.483626 288.539428 
L 149.467202 288.795295 
L 151.450778 291.439341 
L 153.434354 295.959801 
L 155.41793 292.505492 
L 157.401506 283.635153 
L 159.385082 259.241712 
L 161.368658 229.624144 
L 163.352235 192.820769 
L 165.335811 167.872921 
L 167.319387 165.761951 
L 169.302963 177.724136 
L 171.286539 175.165365 
L 175.253691 175.826359 
L 177.237267 171.391205 
L 179.220843 172.52131 
L 181.204419 174.397734 
L 185.171572 162.392927 
L 187.155148 170.900782 
L 189.138724 173.736741 
L 191.1223 177.127076 
L 193.105876 177.78809 
L 195.089452 173.566149 
L 197.073028 166.828102 
L 199.056604 143.948591 
L 201.04018 109.405436 
L 203.023756 65.416203 
L 205.007332 54.925326 
L 206.990908 61.215594 
L 208.974485 65.501509 
L 210.958061 81.131197 
L 212.941637 94.394079 
L 214.925213 106.334932 
L 216.908789 120.15219 
L 218.892365 131.005561 
L 220.875941 153.11744 
L 222.859517 170.666237 
L 224.843093 171.966933 
L 226.826669 186.551802 
L 228.810245 214.186348 
L 230.793822 230.263836 
L 232.777398 234.656368 
L 234.760974 245.147245 
L 238.728126 270.478898 
L 240.711702 277.494134 
L 242.695278 283.336623 
L 244.678854 282.483706 
L 246.66243 287.942379 
L 248.646006 288.390169 
L 250.629582 284.978492 
L 252.613158 274.018503 
L 256.580311 222.672872 
L 258.563887 180.261534 
L 260.547463 158.725383 
L 262.531039 168.76848 
L 264.514615 182.884278 
L 266.498191 179.643183 
L 268.481767 182.45781 
L 270.465343 178.385129 
L 272.448919 176.913841 
L 274.432495 181.349016 
L 276.416071 185.080514 
L 278.399648 180.538742 
L 280.383224 178.086609 
L 282.3668 187.490024 
L 284.350376 192.309015 
L 286.333952 194.164108 
L 288.317528 196.744179 
L 290.301104 190.73112 
L 292.28468 186.551822 
L 294.268256 164.3973 
L 296.251832 126.677004 
L 298.235408 79.723884 
L 300.218985 58.89139 
L 302.202561 55.330463 
L 304.186137 63.326565 
L 306.169713 78.316591 
L 308.153289 85.566372 
L 310.136865 93.541162 
L 312.120441 105.673918 
L 314.104017 113.115623 
L 316.087593 139.705319 
L 318.071169 161.625296 
L 320.054745 168.555266 
L 322.038321 181.306373 
L 326.005474 226.873491 
L 327.98905 229.282981 
L 329.972626 239.688572 
L 331.956202 253.100693 
L 333.939778 260.009333 
L 335.923354 264.828323 
L 337.90693 274.402319 
L 339.890506 273.016327 
L 341.874082 278.901458 
L 343.857658 281.971952 
L 345.841235 277.622083 
L 347.824811 268.303954 
L 349.808387 244.76344 
L 351.791963 214.634128 
L 353.775539 174.077903 
L 355.759115 152.200549 
L 357.742691 155.228411 
L 359.726267 170.282431 
L 361.709843 166.934719 
L 363.693419 172.67059 
L 365.676995 168.747169 
L 367.660571 170.943425 
L 369.644148 172.286764 
L 371.627724 169.834631 
L 373.6113 171.647082 
L 375.594876 166.593536 
L 377.578452 169.258903 
L 379.562028 170.964756 
L 381.545604 170.090508 
L 383.52918 166.529582 
L 385.512756 163.757597 
L 387.496332 164.226709 
L 389.479908 137.295829 
L 391.463485 104.032039 
L 393.447061 66.844848 
L 395.430637 52.793045 
L 397.414213 55.522366 
L 401.381365 72.836596 
L 403.364941 79.979781 
L 405.348517 95.332281 
L 407.332093 113.136934 
L 409.315669 126.826264 
L 413.282821 161.68927 
L 415.266398 162.819395 
L 417.249974 178.193206 
L 419.23355 203.22636 
L 421.217126 224.229445 
L 423.200702 229.496215 
L 425.184278 239.667251 
L 427.167854 252.397047 
L 429.15143 261.459289 
L 433.118582 275.425807 
L 435.102158 277.558109 
L 437.085735 284.040279 
L 439.069311 285.511567 
L 441.052887 283.038103 
L 443.036463 272.078115 
L 445.020039 250.414015 
L 447.003615 223.632396 
L 448.987191 180.730645 
L 450.970767 156.87029 
L 452.954343 157.531283 
L 454.937919 171.647082 
L 456.921495 171.902959 
L 458.905071 174.205832 
L 460.888648 172.67059 
L 462.872224 173.672746 
L 464.8558 178.832929 
L 466.839376 182.095336 
L 468.822952 185.01656 
L 470.806528 179.771132 
L 472.790104 185.059203 
L 474.77368 188.001778 
L 476.757256 194.50526 
L 478.740832 197.127985 
L 480.724408 194.675852 
L 482.707985 193.908221 
L 484.691561 173.224987 
L 486.675137 146.443367 
L 488.658713 99.618196 
L 490.642289 83.455402 
L 492.625865 82.943668 
L 494.609441 89.276579 
L 498.576593 120.877178 
L 500.560169 130.728373 
L 504.527321 161.028256 
L 508.494474 194.462638 
L 510.47805 192.138423 
L 512.461626 187.745901 
L 514.445202 210.198953 
L 516.428778 227.619791 
L 518.412354 233.206402 
L 520.39593 246.618533 
L 522.379506 262.07766 
L 524.363082 275.340521 
L 526.346658 285.383629 
L 528.330235 294.637783 
L 530.313811 295.426726 
L 534.280963 309.521192 
L 536.264539 310.99247 
L 538.248115 306.578627 
L 540.231691 302.996379 
L 542.215267 301.951549 
L 544.198843 284.65865 
L 546.182419 269.625982 
L 548.165995 251.927946 
L 552.133148 209.218098 
L 554.116724 195.017024 
L 556.1003 179.771132 
L 558.083876 172.414713 
L 560.067452 171.369893 
L 562.051028 171.32723 
L 564.034604 170.964756 
L 566.01818 163.480409 
L 568.001756 171.199302 
L 569.985332 172.286784 
L 571.968908 174.291137 
L 573.952485 178.363798 
L 575.936061 179.856417 
L 577.919637 188.620129 
L 579.903213 180.901236 
L 581.886789 168.363364 
L 583.870365 136.314964 
L 585.853941 112.497272 
L 587.837517 114.693507 
L 589.821093 123.798423 
L 591.804669 134.267968 
L 593.788245 149.897697 
L 595.771821 164.290663 
L 599.738974 190.155391 
L 601.72255 204.761602 
L 603.706126 214.015757 
L 605.689702 200.96612 
L 607.673278 198.236788 
L 609.656854 219.111935 
L 611.64043 236.148967 
L 613.624006 250.435337 
L 617.591158 283.997636 
L 619.574735 295.682603 
L 621.558311 305.27792 
L 623.541887 313.444613 
L 625.525463 313.188736 
L 627.509039 309.777069 
L 631.476191 309.393254 
L 633.459767 306.578627 
L 635.443343 301.823611 
L 637.426919 302.975047 
L 639.410495 290.501129 
L 641.394071 288.688688 
L 643.377648 278.368382 
L 645.361224 262.504118 
L 647.3448 244.742108 
L 649.328376 231.863053 
L 651.311952 213.631941 
L 653.295528 202.224163 
L 655.279104 199.430858 
L 657.26268 197.81032 
L 659.246256 195.656707 
L 661.229832 184.035715 
L 663.213408 188.705435 
L 665.196984 200.774217 
L 667.180561 208.386503 
L 669.164137 208.599727 
L 671.147713 206.126273 
L 673.131289 202.117556 
L 675.114865 183.310727 
L 677.098441 153.501246 
L 679.082017 114.139131 
L 681.065593 102.432843 
L 683.049169 102.795337 
L 685.032745 112.987674 
L 687.016321 124.224871 
L 688.999898 138.596546 
L 690.983474 151.45425 
L 692.96705 166.273705 
L 694.950626 177.916038 
L 696.934202 193.161921 
L 698.917778 210.198953 
L 700.901354 205.209382 
L 702.88493 211.606267 
L 702.88493 211.606267 
" style="fill:none;stroke:#d62728;stroke-dasharray:9.25,4;stroke-dashoffset:0;stroke-width:2.5;"/>
   </g>
   <g id="line2d_32">
    <path clip-path="url(#p47ecd540d9)" d="M 38.386941 229.142018 
L 40.370517 247.213285 
L 42.354093 257.860478 
L 44.337669 265.12728 
L 46.321245 273.590378 
L 48.304822 283.158405 
L 50.288398 291.37193 
L 52.271974 296.834538 
L 54.25555 300.618215 
L 56.239126 304.715583 
L 58.222702 308.470689 
L 60.206278 307.218899 
L 62.189854 294.620875 
L 64.17343 267.342936 
L 68.140582 192.90643 
L 70.124158 171.277613 
L 72.107735 168.647425 
L 74.091311 176.008867 
L 76.074887 181.465598 
L 78.058463 181.375716 
L 80.042039 179.009194 
L 82.025615 178.138362 
L 85.992767 180.224707 
L 87.976343 179.762896 
L 89.959919 179.154103 
L 91.943495 180.850419 
L 93.927072 184.707303 
L 95.910648 189.094121 
L 97.894224 192.407406 
L 99.8778 191.698198 
L 101.861376 180.760334 
L 103.844952 153.767921 
L 105.828528 114.379533 
L 107.812104 77.809839 
L 109.79568 59.778225 
L 111.779256 62.149831 
L 115.746408 86.165709 
L 117.729985 95.172711 
L 119.713561 105.247145 
L 121.697137 120.277943 
L 125.664289 159.456228 
L 127.647865 171.867169 
L 129.631441 177.607697 
L 131.615017 189.754484 
L 133.598593 218.436178 
L 135.582169 235.522472 
L 137.565745 246.447972 
L 139.549322 253.490965 
L 141.532898 260.964393 
L 143.516474 269.551616 
L 145.50005 277.237078 
L 147.483626 282.391506 
L 151.450778 288.73489 
L 153.434354 292.471797 
L 155.41793 292.322781 
L 157.401506 281.016221 
L 159.385082 253.898319 
L 163.352235 177.439078 
L 165.335811 157.026586 
L 167.319387 158.013897 
L 169.302963 170.07178 
L 171.286539 179.630799 
L 173.270115 182.210108 
L 175.253691 181.256064 
L 177.237267 181.115589 
L 179.220843 182.528149 
L 181.204419 183.524286 
L 183.187995 182.726132 
L 185.171572 182.076709 
L 187.155148 184.330818 
L 189.138724 188.642437 
L 191.1223 192.219631 
L 193.105876 193.042839 
L 195.089452 189.028154 
L 197.073028 175.561616 
L 199.056604 148.085389 
L 201.04018 110.741129 
L 203.023756 77.484965 
L 205.007332 61.527983 
L 206.990908 63.59265 
L 210.958061 86.133255 
L 214.925213 105.309126 
L 216.908789 119.028999 
L 218.892365 138.13264 
L 220.875941 158.536592 
L 222.859517 172.22946 
L 224.843093 177.666099 
L 226.826669 187.612421 
L 228.810245 217.363907 
L 230.793822 232.110562 
L 232.777398 242.161142 
L 234.760974 249.645733 
L 236.74455 258.199566 
L 238.728126 267.552265 
L 240.711702 275.301701 
L 242.695278 280.140915 
L 244.678854 283.072449 
L 248.646006 289.438058 
L 250.629582 288.210508 
L 252.613158 276.517275 
L 254.596735 250.908586 
L 258.563887 180.382182 
L 260.547463 160.780533 
L 262.531039 160.67113 
L 264.514615 171.141936 
L 266.498191 179.625756 
L 268.481767 181.828458 
L 270.465343 181.087974 
L 272.448919 181.2376 
L 274.432495 182.672935 
L 276.416071 183.593914 
L 278.399648 183.117868 
L 280.383224 182.996101 
L 282.3668 185.398982 
L 284.350376 189.210397 
L 286.333952 192.156471 
L 288.317528 192.733785 
L 290.301104 188.948847 
L 292.28468 176.701034 
L 294.268256 151.819327 
L 298.235408 84.291257 
L 300.218985 66.053852 
L 302.202561 64.758423 
L 304.186137 73.239964 
L 306.169713 83.589736 
L 310.136865 101.845402 
L 312.120441 114.72039 
L 316.087593 150.663111 
L 318.071169 162.721563 
L 320.054745 169.203795 
L 322.038321 183.83334 
L 324.021898 208.895786 
L 326.005474 223.212394 
L 327.98905 233.332358 
L 329.972626 241.194999 
L 331.956202 250.379689 
L 333.939778 260.472364 
L 335.923354 268.638223 
L 337.90693 273.374439 
L 341.874082 278.320412 
L 343.857658 280.926705 
L 345.841235 279.932134 
L 347.824811 269.320182 
L 349.808387 244.596804 
L 353.775539 172.447615 
L 355.759115 152.319408 
L 357.742691 153.192355 
L 359.726267 164.821084 
L 361.709843 173.176101 
L 363.693419 174.10501 
L 365.676995 171.976816 
L 367.660571 171.530582 
L 369.644148 173.224946 
L 371.627724 174.739792 
L 373.6113 174.876606 
L 375.594876 175.314056 
L 377.578452 177.857087 
L 379.562028 181.239308 
L 381.545604 183.92436 
L 383.52918 185.729713 
L 385.512756 185.023433 
L 387.496332 176.05641 
L 389.479908 152.372768 
L 393.447061 81.256279 
L 395.430637 61.539208 
L 397.414213 59.868229 
L 399.397789 68.720033 
L 401.381365 79.629915 
L 403.364941 88.574203 
L 405.348517 96.805216 
L 407.332093 108.066327 
L 409.315669 124.339439 
L 411.299245 142.137198 
L 413.282821 154.240021 
L 415.266398 160.848168 
L 417.249974 176.112983 
L 419.23355 201.277593 
L 421.217126 215.675805 
L 423.200702 227.092114 
L 427.167854 246.396016 
L 429.15143 256.335627 
L 431.135006 264.446663 
L 433.118582 269.672854 
L 435.102158 272.777603 
L 437.085735 275.611833 
L 439.069311 277.98842 
L 441.052887 276.872937 
L 443.036463 267.47304 
L 445.020039 245.82169 
L 448.987191 179.711773 
L 450.970767 158.509587 
L 452.954343 155.502752 
L 454.937919 162.954644 
L 456.921495 169.002314 
L 458.905071 169.664629 
L 460.888648 168.301606 
L 462.872224 168.864523 
L 466.839376 174.28095 
L 470.806528 177.253377 
L 472.790104 180.118923 
L 478.740832 190.768882 
L 480.724408 193.586234 
L 482.707985 189.626576 
L 484.691561 171.007359 
L 486.675137 137.987692 
L 488.658713 102.887293 
L 490.642289 81.650414 
L 492.625865 79.377271 
L 494.609441 89.031378 
L 496.593017 101.381028 
L 500.560169 124.111807 
L 502.543745 138.966422 
L 504.527321 156.205534 
L 506.510898 170.330036 
L 508.494474 175.1177 
L 510.47805 173.295346 
L 512.461626 181.635111 
L 514.445202 201.570012 
L 520.39593 240.858717 
L 522.379506 254.249568 
L 524.363082 266.19219 
L 526.346658 275.453646 
L 528.330235 281.849087 
L 530.313811 286.158997 
L 534.280963 293.679683 
L 536.264539 296.984285 
L 538.248115 298.249599 
L 540.231691 295.396071 
L 542.215267 286.689399 
L 544.198843 272.309203 
L 548.165995 240.142229 
L 554.116724 196.062769 
L 556.1003 186.617139 
L 558.083876 183.351844 
L 560.067452 185.503912 
L 566.01818 200.116782 
L 568.001756 206.34454 
L 569.985332 213.476479 
L 571.968908 220.059837 
L 573.952485 225.341666 
L 575.936061 228.380345 
L 577.919637 225.065331 
L 579.903213 208.827379 
L 581.886789 178.551898 
L 583.870365 143.613326 
L 585.853941 119.282212 
L 587.837517 113.301486 
L 589.821093 121.502199 
L 591.804669 134.686648 
L 593.788245 146.89314 
L 595.771821 157.920518 
L 597.755398 170.813239 
L 599.738974 185.50017 
L 601.72255 196.74729 
L 603.706126 198.200358 
L 605.689702 192.633207 
L 607.673278 197.331194 
L 609.656854 211.889281 
L 611.64043 227.399358 
L 615.607582 260.301569 
L 617.591158 275.655126 
L 619.574735 288.413432 
L 621.558311 297.499029 
L 623.541887 302.736709 
L 625.525463 304.878162 
L 627.509039 305.416535 
L 629.492615 305.142722 
L 631.476191 304.077751 
L 633.459767 302.319676 
L 635.443343 299.78844 
L 637.426919 295.762611 
L 639.410495 289.438892 
L 641.394071 281.412695 
L 643.377648 271.655713 
L 645.361224 258.685332 
L 649.328376 225.334874 
L 651.311952 211.225786 
L 653.295528 202.318325 
L 655.279104 198.645779 
L 657.26268 197.983341 
L 659.246256 198.033854 
L 661.229832 198.8582 
L 663.213408 202.065966 
L 665.196984 206.670207 
L 667.180561 210.094054 
L 669.164137 211.278535 
L 671.147713 210.351375 
L 673.131289 204.664796 
L 675.114865 188.464382 
L 677.098441 160.546923 
L 679.082017 129.535107 
L 681.065593 109.750035 
L 683.049169 107.695983 
L 685.032745 117.572841 
L 687.016321 129.83623 
L 690.983474 150.278208 
L 692.96705 163.231934 
L 694.950626 178.956526 
L 696.934202 192.62365 
L 698.917778 198.19808 
L 700.901354 197.656312 
L 702.88493 205.506081 
L 702.88493 205.506081 
" style="fill:none;stroke:#1f77b4;stroke-dasharray:2,3.3;stroke-dashoffset:0;stroke-width:2;"/>
   </g>
   <g id="line2d_33">
    <path clip-path="url(#p47ecd540d9)" d="M 38.386941 237.159207 
L 40.370517 254.345143 
L 46.321245 281.008188 
L 52.271974 301.275325 
L 54.25555 305.500112 
L 56.239126 312.714795 
L 58.222702 318.7367 
L 60.206278 317.723258 
L 62.189854 304.69238 
L 64.17343 278.250683 
L 66.157006 244.626167 
L 68.140582 204.645437 
L 70.124158 181.740163 
L 72.107735 180.759684 
L 74.091311 189.114659 
L 76.074887 189.362423 
L 78.058463 189.927618 
L 80.042039 189.438273 
L 82.025615 189.101238 
L 84.009191 190.069516 
L 85.992767 191.195066 
L 87.976343 190.215685 
L 89.959919 185.278924 
L 91.943495 190.400938 
L 93.927072 195.117511 
L 95.910648 198.588962 
L 97.894224 198.775822 
L 99.8778 194.983014 
L 101.861376 186.746307 
L 103.844952 161.474938 
L 107.812104 87.455933 
L 109.79568 76.753632 
L 111.779256 82.898422 
L 113.762832 93.738555 
L 117.729985 117.590166 
L 119.713561 130.36958 
L 121.697137 146.141309 
L 123.680713 160.76939 
L 125.664289 177.64552 
L 127.647865 190.330131 
L 129.631441 189.51758 
L 131.615017 198.042679 
L 133.598593 222.711112 
L 135.582169 240.619413 
L 141.532898 266.334374 
L 143.516474 272.563535 
L 145.50005 277.777484 
L 147.483626 284.265572 
L 149.467202 286.703715 
L 153.434354 296.042626 
L 155.41793 294.117702 
L 157.401506 281.535417 
L 159.385082 254.737814 
L 161.368658 219.576573 
L 163.352235 178.906055 
L 165.335811 157.136721 
L 167.319387 160.779069 
L 169.302963 175.909265 
L 171.286539 181.63747 
L 173.270115 185.26778 
L 175.253691 186.159273 
L 177.237267 186.639019 
L 179.220843 187.43335 
L 181.204419 190.061382 
L 183.187995 189.963773 
L 185.171572 186.169888 
L 189.138724 198.58697 
L 191.1223 202.377683 
L 193.105876 202.131099 
L 195.089452 196.492695 
L 197.073028 187.485571 
L 199.056604 160.308677 
L 203.023756 84.881505 
L 205.007332 72.707346 
L 206.990908 75.562156 
L 208.974485 82.692997 
L 214.925213 117.387262 
L 216.908789 130.871614 
L 218.892365 145.793212 
L 220.875941 166.102035 
L 222.859517 180.563165 
L 224.843093 181.325285 
L 226.826669 190.117995 
L 228.810245 219.183169 
L 230.793822 235.956729 
L 232.777398 243.096355 
L 234.760974 251.58233 
L 236.74455 262.409977 
L 238.728126 269.846577 
L 242.695278 282.385792 
L 244.678854 285.072715 
L 246.66243 290.109952 
L 248.646006 295.764747 
L 250.629582 294.490974 
L 252.613158 284.620176 
L 254.596735 262.077375 
L 256.580311 230.944199 
L 258.563887 192.455438 
L 260.547463 168.393277 
L 262.531039 166.969858 
L 264.514615 177.293478 
L 266.498191 177.906094 
L 268.481767 177.247846 
L 270.465343 176.22084 
L 272.448919 174.213274 
L 274.432495 173.035341 
L 276.416071 173.804863 
L 278.399648 171.653894 
L 280.383224 166.805997 
L 282.3668 172.342279 
L 284.350376 176.452214 
L 286.333952 178.314912 
L 288.317528 178.579147 
L 290.301104 174.460306 
L 292.28468 167.318524 
L 294.268256 144.150377 
L 298.235408 77.342782 
L 300.218985 67.343588 
L 302.202561 72.019165 
L 304.186137 79.811223 
L 308.153289 103.346826 
L 312.120441 127.080005 
L 314.104017 140.688279 
L 316.087593 159.321813 
L 318.071169 172.124246 
L 320.054745 172.196476 
L 322.038321 182.200591 
L 324.021898 210.968608 
L 326.005474 226.436143 
L 327.98905 232.498983 
L 329.972626 239.994067 
L 331.956202 250.268782 
L 333.939778 259.191941 
L 335.923354 266.150585 
L 337.90693 272.222555 
L 339.890506 274.157159 
L 341.874082 279.316061 
L 343.857658 283.620725 
L 345.841235 282.142625 
L 347.824811 272.486058 
L 349.808387 249.584972 
L 351.791963 219.290844 
L 353.775539 179.601842 
L 355.759115 157.03293 
L 357.742691 160.160556 
L 359.726267 172.251869 
L 361.709843 172.081786 
L 363.693419 170.899989 
L 365.676995 168.143765 
L 367.660571 166.045951 
L 369.644148 165.603906 
L 371.627724 167.077431 
L 373.6113 164.832635 
L 375.594876 161.032038 
L 377.578452 166.837801 
L 379.562028 169.657838 
L 383.52918 169.894661 
L 385.512756 166.589103 
L 387.496332 161.576288 
L 389.479908 139.317284 
L 391.463485 104.761704 
L 393.447061 68.180501 
L 395.430637 56.160076 
L 397.414213 58.604603 
L 399.397789 65.034289 
L 401.381365 76.644717 
L 405.348517 97.017921 
L 407.332093 107.960421 
L 409.315669 119.730399 
L 411.299245 139.080665 
L 413.282821 153.995878 
L 415.266398 156.399694 
L 417.249974 168.278302 
L 419.23355 202.128151 
L 421.217126 219.96778 
L 423.200702 227.976896 
L 425.184278 237.437046 
L 427.167854 249.209423 
L 429.15143 257.720938 
L 433.118582 271.195509 
L 435.102158 273.407341 
L 437.085735 279.54959 
L 439.069311 284.509147 
L 441.052887 283.540706 
L 443.036463 275.16143 
L 445.020039 254.66961 
L 447.003615 225.910948 
L 448.987191 188.581187 
L 450.970767 165.605167 
L 452.954343 165.714285 
L 454.937919 175.581422 
L 456.921495 175.387832 
L 458.905071 176.322109 
L 460.888648 175.319018 
L 462.872224 175.860502 
L 464.8558 177.463521 
L 466.839376 178.534206 
L 468.822952 177.276153 
L 470.806528 174.539897 
L 472.790104 179.359772 
L 474.77368 183.047021 
L 476.757256 185.572319 
L 478.740832 187.332691 
L 480.724408 187.358924 
L 482.707985 186.526118 
L 484.691561 167.710829 
L 486.675137 136.314964 
L 488.658713 99.715337 
L 490.642289 84.753475 
L 492.625865 86.566556 
L 494.609441 95.159209 
L 498.576593 122.344969 
L 502.543745 152.954271 
L 506.510898 179.228651 
L 508.494474 185.991792 
L 510.47805 178.867296 
L 512.461626 183.461044 
L 514.445202 204.546893 
L 516.428778 220.769737 
L 518.412354 231.513115 
L 520.39593 245.27134 
L 522.379506 260.614344 
L 524.363082 272.06994 
L 526.346658 280.145226 
L 528.330235 285.96437 
L 530.313811 286.840285 
L 534.280963 295.485688 
L 536.264539 298.453357 
L 538.248115 299.469463 
L 540.231691 296.111806 
L 542.215267 289.834167 
L 546.182419 252.438663 
L 548.165995 239.018387 
L 550.149571 224.412594 
L 552.133148 202.494732 
L 554.116724 188.521565 
L 556.1003 179.359609 
L 558.083876 176.998456 
L 560.067452 180.546368 
L 562.051028 186.370026 
L 564.034604 190.880156 
L 566.01818 191.458935 
L 568.001756 200.040607 
L 569.985332 207.398815 
L 571.968908 214.057657 
L 573.952485 219.201959 
L 575.936061 222.033423 
L 577.919637 223.408384 
L 579.903213 207.744675 
L 581.886789 180.302102 
L 583.870365 143.855029 
L 585.853941 126.563452 
L 587.837517 124.477352 
L 589.821093 130.18819 
L 591.804669 142.188118 
L 593.788245 155.981522 
L 595.771821 167.990234 
L 597.755398 181.610709 
L 599.738974 192.98708 
L 601.72255 203.510106 
L 603.706126 208.193736 
L 605.689702 198.751318 
L 607.673278 198.34124 
L 609.656854 218.545297 
L 611.64043 235.180171 
L 613.624006 246.173915 
L 615.607582 260.313384 
L 617.591158 275.727824 
L 619.574735 287.713313 
L 621.558311 296.164027 
L 623.541887 301.80839 
L 625.525463 301.736892 
L 627.509039 303.65057 
L 629.492615 305.247956 
L 631.476191 304.853129 
L 633.459767 302.72097 
L 637.426919 294.866198 
L 639.410495 282.395085 
L 641.394071 272.705515 
L 643.377648 265.337057 
L 645.361224 253.416478 
L 647.3448 233.344152 
L 649.328376 218.778256 
L 651.311952 206.764826 
L 653.295528 200.731778 
L 655.279104 199.716302 
L 657.26268 200.155622 
L 659.246256 198.973724 
L 661.229832 194.058538 
L 663.213408 198.268399 
L 665.196984 201.937305 
L 667.180561 205.179519 
L 669.164137 206.877117 
L 671.147713 207.136471 
L 673.131289 208.439872 
L 675.114865 194.464875 
L 677.098441 170.728726 
L 679.082017 137.9676 
L 681.065593 122.213075 
L 683.049169 123.759928 
L 685.032745 130.604857 
L 687.016321 139.453611 
L 688.999898 148.953048 
L 690.983474 159.092473 
L 694.950626 182.611361 
L 696.934202 196.569317 
L 698.917778 206.146801 
L 700.901354 204.063669 
L 702.88493 211.144568 
L 702.88493 211.144568 
" style="fill:none;stroke:#2ca02c;stroke-dasharray:9.6,2.4,1.5,2.4;stroke-dashoffset:0;stroke-width:1.5;"/>
   </g>
   <g id="line2d_34">
    <path clip-path="url(#p47ecd540d9)" d="M 38.386941 230.767141 
L 40.370517 248.532263 
L 42.354093 258.990583 
L 46.321245 278.24143 
L 48.304822 284.133841 
L 50.288398 288.601451 
L 52.271974 290.809236 
L 54.25555 289.22698 
L 56.239126 289.791686 
L 58.222702 289.747173 
L 60.206278 284.637644 
L 62.189854 270.513895 
L 64.17343 246.52311 
L 66.157006 218.559653 
L 68.140582 187.661714 
L 70.124158 173.451317 
L 72.107735 177.235482 
L 74.091311 186.877022 
L 76.074887 186.480974 
L 78.058463 184.115876 
L 80.042039 179.871485 
L 82.025615 176.422972 
L 84.009191 175.262323 
L 85.992767 174.303237 
L 87.976343 171.836544 
L 89.959919 165.817954 
L 93.927072 172.10204 
L 95.910648 174.69054 
L 97.894224 174.437083 
L 99.8778 170.8788 
L 101.861376 162.375866 
L 103.844952 137.767747 
L 107.812104 68.132551 
L 109.79568 59.498495 
L 111.779256 66.173341 
L 117.729985 98.766418 
L 119.713561 110.496945 
L 123.680713 139.997942 
L 125.664289 157.325024 
L 127.647865 170.566249 
L 129.631441 170.956724 
L 131.615017 180.260863 
L 133.598593 220.414624 
L 135.582169 237.165267 
L 139.549322 251.115923 
L 141.532898 259.270598 
L 143.516474 265.647636 
L 147.483626 276.064167 
L 149.467202 276.839648 
L 151.450778 279.704076 
L 153.434354 283.016425 
L 155.41793 280.911393 
L 157.401506 269.134624 
L 159.385082 244.067826 
L 161.368658 210.613841 
L 163.352235 172.431591 
L 165.335811 153.003279 
L 167.319387 157.151606 
L 169.302963 171.026758 
L 171.286539 174.589108 
L 173.270115 175.289654 
L 175.253691 173.852366 
L 177.237267 173.334959 
L 179.220843 173.994061 
L 181.204419 176.307468 
L 183.187995 175.327802 
L 185.171572 170.682403 
L 187.155148 174.755165 
L 189.138724 178.35058 
L 191.1223 179.922974 
L 193.105876 177.931717 
L 195.089452 171.20949 
L 197.073028 161.205822 
L 199.056604 134.513393 
L 201.04018 98.498157 
L 203.023756 66.63804 
L 205.007332 58.08256 
L 206.990908 62.504883 
L 208.974485 70.186928 
L 214.925213 102.599022 
L 216.908789 115.989344 
L 218.892365 131.092291 
L 220.875941 151.765357 
L 222.859517 166.447367 
L 224.843093 167.94688 
L 226.826669 178.04779 
L 228.810245 214.491284 
L 230.793822 231.664673 
L 232.777398 238.118659 
L 234.760974 245.913443 
L 236.74455 256.448752 
L 238.728126 264.057652 
L 240.711702 269.785572 
L 242.695278 274.52311 
L 244.678854 275.140098 
L 246.66243 277.846705 
L 248.646006 281.494625 
L 250.629582 279.014308 
L 252.613158 268.998826 
L 254.596735 247.661573 
L 256.580311 218.906144 
L 258.563887 184.709052 
L 260.547463 166.078731 
L 262.531039 169.064214 
L 264.514615 182.556822 
L 266.498191 185.58753 
L 268.481767 185.933268 
L 270.465343 185.199291 
L 272.448919 183.313573 
L 274.432495 181.957911 
L 276.416071 182.261637 
L 278.399648 179.617703 
L 280.383224 174.428949 
L 282.3668 178.915246 
L 284.350376 181.84497 
L 286.333952 182.882265 
L 288.317528 182.665371 
L 290.301104 177.725518 
L 292.28468 169.017565 
L 294.268256 144.479155 
L 298.235408 76.714263 
L 300.218985 65.54588 
L 302.202561 68.374986 
L 304.186137 75.084565 
L 312.120441 120.419923 
L 314.104017 134.321754 
L 316.087593 153.481439 
L 318.071169 166.823363 
L 320.054745 167.532287 
L 322.038321 177.507404 
L 324.021898 212.217754 
L 326.005474 227.102749 
L 327.98905 232.411217 
L 329.972626 239.79279 
L 331.956202 250.471381 
L 333.939778 259.73308 
L 335.923354 266.013811 
L 337.90693 270.217246 
L 339.890506 270.145097 
L 341.874082 273.138999 
L 343.857658 275.219914 
L 345.841235 271.559731 
L 347.824811 259.558828 
L 349.808387 234.675351 
L 351.791963 203.389804 
L 353.775539 166.561772 
L 355.759115 150.29472 
L 357.742691 157.91759 
L 359.726267 171.519357 
L 361.709843 172.027125 
L 363.693419 170.980313 
L 365.676995 168.547214 
L 367.660571 167.036964 
L 369.644148 166.919223 
L 371.627724 168.399662 
L 373.6113 166.032896 
L 375.594876 161.937725 
L 377.578452 166.321452 
L 379.562028 167.815677 
L 381.545604 167.245602 
L 383.52918 166.964286 
L 385.512756 163.133065 
L 387.496332 156.908195 
L 389.479908 133.961009 
L 393.447061 64.590942 
L 395.430637 52.901858 
L 397.414213 54.903527 
L 399.397789 62.017531 
L 401.381365 74.985248 
L 405.348517 98.607316 
L 407.332093 111.443139 
L 409.315669 125.566786 
L 411.299245 146.593725 
L 413.282821 163.004465 
L 415.266398 166.933946 
L 417.249974 179.343789 
L 419.23355 206.810235 
L 421.217126 224.4433 
L 423.200702 231.864689 
L 425.184278 240.809486 
L 427.167854 252.026327 
L 429.15143 260.011956 
L 431.135006 265.527048 
L 433.118582 269.891884 
L 435.102158 269.878788 
L 437.085735 273.797349 
L 439.069311 276.551336 
L 441.052887 273.956268 
L 443.036463 264.292848 
L 445.020039 243.271807 
L 447.003615 214.424096 
L 448.987191 178.803728 
L 450.970767 158.549606 
L 452.954343 160.250234 
L 454.937919 171.19188 
L 456.921495 172.902553 
L 458.905071 174.878965 
L 460.888648 174.656987 
L 462.872224 175.967668 
L 464.8558 178.266067 
L 466.839376 180.2073 
L 468.822952 179.973568 
L 470.806528 178.259234 
L 472.790104 183.028678 
L 474.77368 186.02742 
L 476.757256 187.484554 
L 478.740832 187.975851 
L 480.724408 186.728941 
L 482.707985 184.128687 
L 484.691561 164.436628 
L 486.675137 133.658992 
L 488.658713 99.602761 
L 490.642289 87.378253 
L 492.625865 89.792278 
L 494.609441 96.989208 
L 496.593017 108.215505 
L 498.576593 120.4392 
L 500.560169 134.748182 
L 502.543745 150.898307 
L 506.510898 178.212138 
L 508.494474 185.313941 
L 510.47805 179.987436 
L 512.461626 187.169929 
L 514.445202 207.53746 
L 516.428778 223.693462 
L 518.412354 233.588784 
L 520.39593 246.071406 
L 522.379506 260.091975 
L 524.363082 271.075003 
L 526.346658 279.204848 
L 528.330235 284.614401 
L 530.313811 284.900151 
L 532.297387 287.757278 
L 534.280963 290.351431 
L 536.264539 291.419311 
L 538.248115 290.329632 
L 540.231691 284.870339 
L 542.215267 276.816262 
L 544.198843 258.387097 
L 546.182419 242.487175 
L 548.165995 231.426874 
L 550.149571 219.472701 
L 552.133148 201.667174 
L 554.116724 191.659805 
L 556.1003 185.407401 
L 558.083876 184.490653 
L 560.067452 187.653498 
L 562.051028 192.105429 
L 564.034604 195.519089 
L 566.01818 195.974637 
L 568.001756 203.970372 
L 569.985332 209.654693 
L 571.968908 214.075979 
L 573.952485 216.944433 
L 575.936061 217.489334 
L 577.919637 216.159253 
L 579.903213 198.59974 
L 581.886789 169.998898 
L 583.870365 132.694455 
L 585.853941 113.861434 
L 587.837517 110.966443 
L 589.821093 118.047544 
L 591.804669 132.269451 
L 593.788245 148.684543 
L 595.771821 162.594184 
L 597.755398 177.44713 
L 599.738974 188.615838 
L 601.72255 196.7394 
L 603.706126 198.835709 
L 605.689702 189.193926 
L 607.673278 191.119257 
L 609.656854 218.485633 
L 611.64043 237.504274 
L 613.624006 250.549508 
L 617.591158 280.518945 
L 619.574735 292.013687 
L 621.558311 299.828764 
L 623.541887 304.311096 
L 625.525463 303.155084 
L 629.492615 304.031082 
L 631.476191 303.556907 
L 633.459767 302.928287 
L 637.426919 300.210841 
L 639.410495 290.479136 
L 641.394071 282.487976 
L 643.377648 275.038748 
L 645.361224 262.668559 
L 647.3448 242.842085 
L 649.328376 227.375464 
L 651.311952 213.541023 
L 653.295528 205.010758 
L 655.279104 200.763358 
L 657.26268 197.622393 
L 659.246256 193.271161 
L 661.229832 186.08086 
L 663.213408 188.059957 
L 665.196984 189.392112 
L 667.180561 190.200515 
L 669.164137 189.081391 
L 671.147713 186.160411 
L 673.131289 184.198477 
L 675.114865 168.581011 
L 677.098441 145.001077 
L 679.082017 114.420813 
L 681.065593 100.822788 
L 683.049169 102.778012 
L 685.032745 110.104477 
L 687.016321 120.134661 
L 690.983474 142.211869 
L 694.950626 169.011628 
L 696.934202 184.93587 
L 698.917778 196.261362 
L 700.901354 196.034219 
L 702.88493 203.239486 
L 702.88493 203.239486 
" style="fill:none;stroke:#000000;stroke-linecap:square;"/>
   </g>
   <g id="patch_3">
    <path d="M 36.403365 326.64351 
L 36.403365 6.799459 
" style="fill:none;stroke:#000000;stroke-linecap:square;stroke-linejoin:miter;stroke-width:0.8;"/>
   </g>
   <g id="patch_4">
    <path d="M 706.852082 326.64351 
L 706.852082 6.799459 
" style="fill:none;stroke:#000000;stroke-linecap:square;stroke-linejoin:miter;stroke-width:0.8;"/>
   </g>
   <g id="patch_5">
    <path d="M 36.403365 326.64351 
L 706.852082 326.64351 
" style="fill:none;stroke:#000000;stroke-linecap:square;stroke-linejoin:miter;stroke-width:0.8;"/>
   </g>
   <g id="patch_6">
    <path d="M 36.403365 6.799459 
L 706.852082 6.799459 
" style="fill:none;stroke:#000000;stroke-linecap:square;stroke-linejoin:miter;stroke-width:0.8;"/>
   </g>
   <g id="legend_1">
    <g id="patch_7">
     <path d="M 80.976942 29.477584 
L 662.278505 29.477584 
L 662.278505 11.799459 
L 80.976942 11.799459 
z
" style="fill:#ffffff;opacity:0.95;stroke:#000000;stroke-linejoin:miter;"/>
    </g>
    <g id="line2d_35">
     <path d="M 84.976942 19.897896 
L 104.976942 19.897896 
" style="fill:none;stroke:#d62728;stroke-dasharray:9.25,4;stroke-dashoffset:0;stroke-width:2.5;"/>
    </g>
    <g id="line2d_36"/>
    <g id="text_18">
     <!-- Actual demand -->
     <g transform="translate(112.976942 23.397896)scale(0.1 -0.1)">
      <defs>
       <path d="M 2188 4044 
L 1331 1722 
L 3047 1722 
L 2188 4044 
z
M 1831 4666 
L 2547 4666 
L 4325 0 
L 3669 0 
L 3244 1197 
L 1141 1197 
L 716 0 
L 50 0 
L 1831 4666 
z
" id="DejaVuSans-41" transform="scale(0.015625)"/>
       <path d="M 3122 3366 
L 3122 2828 
Q 2878 2963 2633 3030 
Q 2388 3097 2138 3097 
Q 1578 3097 1268 2742 
Q 959 2388 959 1747 
Q 959 1106 1268 751 
Q 1578 397 2138 397 
Q 2388 397 2633 464 
Q 2878 531 3122 666 
L 3122 134 
Q 2881 22 2623 -34 
Q 2366 -91 2075 -91 
Q 1284 -91 818 406 
Q 353 903 353 1747 
Q 353 2603 823 3093 
Q 1294 3584 2113 3584 
Q 2378 3584 2631 3529 
Q 2884 3475 3122 3366 
z
" id="DejaVuSans-63" transform="scale(0.015625)"/>
       <path d="M 603 4863 
L 1178 4863 
L 1178 0 
L 603 0 
L 603 4863 
z
" id="DejaVuSans-6c" transform="scale(0.015625)"/>
      </defs>
      <use xlink:href="#DejaVuSans-41"/>
      <use x="66.658203" xlink:href="#DejaVuSans-63"/>
      <use x="121.638672" xlink:href="#DejaVuSans-74"/>
      <use x="160.847656" xlink:href="#DejaVuSans-75"/>
      <use x="224.226562" xlink:href="#DejaVuSans-61"/>
      <use x="285.505859" xlink:href="#DejaVuSans-6c"/>
      <use x="313.289062" xlink:href="#DejaVuSans-20"/>
      <use x="345.076172" xlink:href="#DejaVuSans-64"/>
      <use x="408.552734" xlink:href="#DejaVuSans-65"/>
      <use x="470.076172" xlink:href="#DejaVuSans-6d"/>
      <use x="567.488281" xlink:href="#DejaVuSans-61"/>
      <use x="628.767578" xlink:href="#DejaVuSans-6e"/>
      <use x="692.146484" xlink:href="#DejaVuSans-64"/>
     </g>
    </g>
    <g id="line2d_37">
     <path d="M 208.539442 19.897896 
L 228.539442 19.897896 
" style="fill:none;stroke:#1f77b4;stroke-dasharray:2,3.3;stroke-dashoffset:0;stroke-width:2;"/>
    </g>
    <g id="line2d_38"/>
    <g id="text_19">
     <!-- Forecasted demand 1 -->
     <g transform="translate(236.539442 23.397896)scale(0.1 -0.1)">
      <defs>
       <path d="M 2834 3397 
L 2834 2853 
Q 2591 2978 2328 3040 
Q 2066 3103 1784 3103 
Q 1356 3103 1142 2972 
Q 928 2841 928 2578 
Q 928 2378 1081 2264 
Q 1234 2150 1697 2047 
L 1894 2003 
Q 2506 1872 2764 1633 
Q 3022 1394 3022 966 
Q 3022 478 2636 193 
Q 2250 -91 1575 -91 
Q 1294 -91 989 -36 
Q 684 19 347 128 
L 347 722 
Q 666 556 975 473 
Q 1284 391 1588 391 
Q 1994 391 2212 530 
Q 2431 669 2431 922 
Q 2431 1156 2273 1281 
Q 2116 1406 1581 1522 
L 1381 1569 
Q 847 1681 609 1914 
Q 372 2147 372 2553 
Q 372 3047 722 3315 
Q 1072 3584 1716 3584 
Q 2034 3584 2315 3537 
Q 2597 3491 2834 3397 
z
" id="DejaVuSans-73" transform="scale(0.015625)"/>
       <path d="M 794 531 
L 1825 531 
L 1825 4091 
L 703 3866 
L 703 4441 
L 1819 4666 
L 2450 4666 
L 2450 531 
L 3481 531 
L 3481 0 
L 794 0 
L 794 531 
z
" id="DejaVuSans-31" transform="scale(0.015625)"/>
      </defs>
      <use xlink:href="#DejaVuSans-46"/>
      <use x="53.894531" xlink:href="#DejaVuSans-6f"/>
      <use x="115.076172" xlink:href="#DejaVuSans-72"/>
      <use x="153.939453" xlink:href="#DejaVuSans-65"/>
      <use x="215.462891" xlink:href="#DejaVuSans-63"/>
      <use x="270.443359" xlink:href="#DejaVuSans-61"/>
      <use x="331.722656" xlink:href="#DejaVuSans-73"/>
      <use x="383.822266" xlink:href="#DejaVuSans-74"/>
      <use x="423.03125" xlink:href="#DejaVuSans-65"/>
      <use x="484.554688" xlink:href="#DejaVuSans-64"/>
      <use x="548.03125" xlink:href="#DejaVuSans-20"/>
      <use x="579.818359" xlink:href="#DejaVuSans-64"/>
      <use x="643.294922" xlink:href="#DejaVuSans-65"/>
      <use x="704.818359" xlink:href="#DejaVuSans-6d"/>
      <use x="802.230469" xlink:href="#DejaVuSans-61"/>
      <use x="863.509766" xlink:href="#DejaVuSans-6e"/>
      <use x="926.888672" xlink:href="#DejaVuSans-64"/>
      <use x="990.365234" xlink:href="#DejaVuSans-20"/>
      <use x="1022.152344" xlink:href="#DejaVuSans-31"/>
     </g>
    </g>
    <g id="line2d_39">
     <path d="M 365.11913 19.897896 
L 385.11913 19.897896 
" style="fill:none;stroke:#2ca02c;stroke-dasharray:9.6,2.4,1.5,2.4;stroke-dashoffset:0;stroke-width:1.5;"/>
    </g>
    <g id="line2d_40"/>
    <g id="text_20">
     <!-- Forecasted demand 2 -->
     <g transform="translate(393.11913 23.397896)scale(0.1 -0.1)">
      <use xlink:href="#DejaVuSans-46"/>
      <use x="53.894531" xlink:href="#DejaVuSans-6f"/>
      <use x="115.076172" xlink:href="#DejaVuSans-72"/>
      <use x="153.939453" xlink:href="#DejaVuSans-65"/>
      <use x="215.462891" xlink:href="#DejaVuSans-63"/>
      <use x="270.443359" xlink:href="#DejaVuSans-61"/>
      <use x="331.722656" xlink:href="#DejaVuSans-73"/>
      <use x="383.822266" xlink:href="#DejaVuSans-74"/>
      <use x="423.03125" xlink:href="#DejaVuSans-65"/>
      <use x="484.554688" xlink:href="#DejaVuSans-64"/>
      <use x="548.03125" xlink:href="#DejaVuSans-20"/>
      <use x="579.818359" xlink:href="#DejaVuSans-64"/>
      <use x="643.294922" xlink:href="#DejaVuSans-65"/>
      <use x="704.818359" xlink:href="#DejaVuSans-6d"/>
      <use x="802.230469" xlink:href="#DejaVuSans-61"/>
      <use x="863.509766" xlink:href="#DejaVuSans-6e"/>
      <use x="926.888672" xlink:href="#DejaVuSans-64"/>
      <use x="990.365234" xlink:href="#DejaVuSans-20"/>
      <use x="1022.152344" xlink:href="#DejaVuSans-32"/>
     </g>
    </g>
    <g id="line2d_41">
     <path d="M 521.698817 19.897896 
L 541.698817 19.897896 
" style="fill:none;stroke:#000000;stroke-linecap:square;"/>
    </g>
    <g id="line2d_42"/>
    <g id="text_21">
     <!-- Forecasted demand 3 -->
     <g transform="translate(549.698817 23.397896)scale(0.1 -0.1)">
      <use xlink:href="#DejaVuSans-46"/>
      <use x="53.894531" xlink:href="#DejaVuSans-6f"/>
      <use x="115.076172" xlink:href="#DejaVuSans-72"/>
      <use x="153.939453" xlink:href="#DejaVuSans-65"/>
      <use x="215.462891" xlink:href="#DejaVuSans-63"/>
      <use x="270.443359" xlink:href="#DejaVuSans-61"/>
      <use x="331.722656" xlink:href="#DejaVuSans-73"/>
      <use x="383.822266" xlink:href="#DejaVuSans-74"/>
      <use x="423.03125" xlink:href="#DejaVuSans-65"/>
      <use x="484.554688" xlink:href="#DejaVuSans-64"/>
      <use x="548.03125" xlink:href="#DejaVuSans-20"/>
      <use x="579.818359" xlink:href="#DejaVuSans-64"/>
      <use x="643.294922" xlink:href="#DejaVuSans-65"/>
      <use x="704.818359" xlink:href="#DejaVuSans-6d"/>
      <use x="802.230469" xlink:href="#DejaVuSans-61"/>
      <use x="863.509766" xlink:href="#DejaVuSans-6e"/>
      <use x="926.888672" xlink:href="#DejaVuSans-64"/>
      <use x="990.365234" xlink:href="#DejaVuSans-20"/>
      <use x="1022.152344" xlink:href="#DejaVuSans-33"/>
     </g>
    </g>
   </g>
  </g>
 </g>
 <defs>
  <clipPath id="p47ecd540d9">
   <rect height="319.844051" width="670.448717" x="36.403365" y="6.799459"/>
  </clipPath>
 </defs>
</svg>
