<?xml version="1.0" encoding="utf-8" standalone="no"?>
<!DOCTYPE svg PUBLIC "-//W3C//DTD SVG 1.1//EN"
  "http://www.w3.org/Graphics/SVG/1.1/DTD/svg11.dtd">
<svg height="360pt" version="1.1" viewBox="0 0 720 360" width="720pt" xmlns="http://www.w3.org/2000/svg" xmlns:xlink="http://www.w3.org/1999/xlink">
 <metadata>
  <rdf:RDF xmlns:cc="http://creativecommons.org/ns#" xmlns:dc="http://purl.org/dc/elements/1.1/" xmlns:rdf="http://www.w3.org/1999/02/22-rdf-syntax-ns#">
   <cc:Work>
    <dc:type rdf:resource="http://purl.org/dc/dcmitype/StillImage"/>
    <dc:date>2022-04-11T21:15:30.320237</dc:date>
    <dc:format>image/svg+xml</dc:format>
    <dc:creator>
     <cc:Agent>
      <dc:title>Matplotlib v3.4.3, https://matplotlib.org/</dc:title>
     </cc:Agent>
    </dc:creator>
   </cc:Work>
  </rdf:RDF>
 </metadata>
 <defs>
  <style type="text/css">*{stroke-linecap:butt;stroke-linejoin:round;}</style>
 </defs>
 <g id="figure_1">
  <g id="patch_1">
   <path d="M 0 360 
L 720 360 
L 720 0 
L 0 0 
z
" style="fill:#ffffff;"/>
  </g>
  <g id="axes_1">
   <g id="patch_2">
    <path d="M 45.94399 326.64351 
L 706.823772 326.64351 
L 706.823772 3.00024 
L 45.94399 3.00024 
z
" style="fill:#ffffff;"/>
   </g>
   <g id="matplotlib.axis_1">
    <g id="xtick_1">
     <g id="line2d_1">
      <path clip-path="url(#p91b23ca5a4)" d="M 47.899256 326.64351 
L 47.899256 3.00024 
" style="fill:none;stroke:#b0b0b0;stroke-linecap:square;stroke-width:0.8;"/>
     </g>
     <g id="line2d_2">
      <defs>
       <path d="M 0 0 
L 0 3.5 
" id="m9c8677a640" style="stroke:#000000;stroke-width:0.8;"/>
      </defs>
      <g>
       <use style="stroke:#000000;stroke-width:0.8;" x="47.899256" xlink:href="#m9c8677a640" y="326.64351"/>
      </g>
     </g>
     <g id="text_1">
      <!-- Mon. -->
      <g transform="translate(35.768006 341.241947)scale(0.1 -0.1)">
       <defs>
        <path d="M 628 4666 
L 1569 4666 
L 2759 1491 
L 3956 4666 
L 4897 4666 
L 4897 0 
L 4281 0 
L 4281 4097 
L 3078 897 
L 2444 897 
L 1241 4097 
L 1241 0 
L 628 0 
L 628 4666 
z
" id="DejaVuSans-4d" transform="scale(0.015625)"/>
        <path d="M 1959 3097 
Q 1497 3097 1228 2736 
Q 959 2375 959 1747 
Q 959 1119 1226 758 
Q 1494 397 1959 397 
Q 2419 397 2687 759 
Q 2956 1122 2956 1747 
Q 2956 2369 2687 2733 
Q 2419 3097 1959 3097 
z
M 1959 3584 
Q 2709 3584 3137 3096 
Q 3566 2609 3566 1747 
Q 3566 888 3137 398 
Q 2709 -91 1959 -91 
Q 1206 -91 779 398 
Q 353 888 353 1747 
Q 353 2609 779 3096 
Q 1206 3584 1959 3584 
z
" id="DejaVuSans-6f" transform="scale(0.015625)"/>
        <path d="M 3513 2113 
L 3513 0 
L 2938 0 
L 2938 2094 
Q 2938 2591 2744 2837 
Q 2550 3084 2163 3084 
Q 1697 3084 1428 2787 
Q 1159 2491 1159 1978 
L 1159 0 
L 581 0 
L 581 3500 
L 1159 3500 
L 1159 2956 
Q 1366 3272 1645 3428 
Q 1925 3584 2291 3584 
Q 2894 3584 3203 3211 
Q 3513 2838 3513 2113 
z
" id="DejaVuSans-6e" transform="scale(0.015625)"/>
        <path d="M 684 794 
L 1344 794 
L 1344 0 
L 684 0 
L 684 794 
z
" id="DejaVuSans-2e" transform="scale(0.015625)"/>
       </defs>
       <use xlink:href="#DejaVuSans-4d"/>
       <use x="86.279297" xlink:href="#DejaVuSans-6f"/>
       <use x="147.460938" xlink:href="#DejaVuSans-6e"/>
       <use x="210.839844" xlink:href="#DejaVuSans-2e"/>
      </g>
     </g>
    </g>
    <g id="xtick_2">
     <g id="line2d_3">
      <path clip-path="url(#p91b23ca5a4)" d="M 141.752006 326.64351 
L 141.752006 3.00024 
" style="fill:none;stroke:#b0b0b0;stroke-linecap:square;stroke-width:0.8;"/>
     </g>
     <g id="line2d_4">
      <g>
       <use style="stroke:#000000;stroke-width:0.8;" x="141.752006" xlink:href="#m9c8677a640" y="326.64351"/>
      </g>
     </g>
     <g id="text_2">
      <!-- Tue. -->
      <g transform="translate(131.619974 341.241947)scale(0.1 -0.1)">
       <defs>
        <path d="M -19 4666 
L 3928 4666 
L 3928 4134 
L 2272 4134 
L 2272 0 
L 1638 0 
L 1638 4134 
L -19 4134 
L -19 4666 
z
" id="DejaVuSans-54" transform="scale(0.015625)"/>
        <path d="M 544 1381 
L 544 3500 
L 1119 3500 
L 1119 1403 
Q 1119 906 1312 657 
Q 1506 409 1894 409 
Q 2359 409 2629 706 
Q 2900 1003 2900 1516 
L 2900 3500 
L 3475 3500 
L 3475 0 
L 2900 0 
L 2900 538 
Q 2691 219 2414 64 
Q 2138 -91 1772 -91 
Q 1169 -91 856 284 
Q 544 659 544 1381 
z
M 1991 3584 
L 1991 3584 
z
" id="DejaVuSans-75" transform="scale(0.015625)"/>
        <path d="M 3597 1894 
L 3597 1613 
L 953 1613 
Q 991 1019 1311 708 
Q 1631 397 2203 397 
Q 2534 397 2845 478 
Q 3156 559 3463 722 
L 3463 178 
Q 3153 47 2828 -22 
Q 2503 -91 2169 -91 
Q 1331 -91 842 396 
Q 353 884 353 1716 
Q 353 2575 817 3079 
Q 1281 3584 2069 3584 
Q 2775 3584 3186 3129 
Q 3597 2675 3597 1894 
z
M 3022 2063 
Q 3016 2534 2758 2815 
Q 2500 3097 2075 3097 
Q 1594 3097 1305 2825 
Q 1016 2553 972 2059 
L 3022 2063 
z
" id="DejaVuSans-65" transform="scale(0.015625)"/>
       </defs>
       <use xlink:href="#DejaVuSans-54"/>
       <use x="45.958984" xlink:href="#DejaVuSans-75"/>
       <use x="109.337891" xlink:href="#DejaVuSans-65"/>
       <use x="170.861328" xlink:href="#DejaVuSans-2e"/>
      </g>
     </g>
    </g>
    <g id="xtick_3">
     <g id="line2d_5">
      <path clip-path="url(#p91b23ca5a4)" d="M 235.604756 326.64351 
L 235.604756 3.00024 
" style="fill:none;stroke:#b0b0b0;stroke-linecap:square;stroke-width:0.8;"/>
     </g>
     <g id="line2d_6">
      <g>
       <use style="stroke:#000000;stroke-width:0.8;" x="235.604756" xlink:href="#m9c8677a640" y="326.64351"/>
      </g>
     </g>
     <g id="text_3">
      <!-- Wed. -->
      <g transform="translate(223.114912 341.241947)scale(0.1 -0.1)">
       <defs>
        <path d="M 213 4666 
L 850 4666 
L 1831 722 
L 2809 4666 
L 3519 4666 
L 4500 722 
L 5478 4666 
L 6119 4666 
L 4947 0 
L 4153 0 
L 3169 4050 
L 2175 0 
L 1381 0 
L 213 4666 
z
" id="DejaVuSans-57" transform="scale(0.015625)"/>
        <path d="M 2906 2969 
L 2906 4863 
L 3481 4863 
L 3481 0 
L 2906 0 
L 2906 525 
Q 2725 213 2448 61 
Q 2172 -91 1784 -91 
Q 1150 -91 751 415 
Q 353 922 353 1747 
Q 353 2572 751 3078 
Q 1150 3584 1784 3584 
Q 2172 3584 2448 3432 
Q 2725 3281 2906 2969 
z
M 947 1747 
Q 947 1113 1208 752 
Q 1469 391 1925 391 
Q 2381 391 2643 752 
Q 2906 1113 2906 1747 
Q 2906 2381 2643 2742 
Q 2381 3103 1925 3103 
Q 1469 3103 1208 2742 
Q 947 2381 947 1747 
z
" id="DejaVuSans-64" transform="scale(0.015625)"/>
       </defs>
       <use xlink:href="#DejaVuSans-57"/>
       <use x="93.001953" xlink:href="#DejaVuSans-65"/>
       <use x="154.525391" xlink:href="#DejaVuSans-64"/>
       <use x="218.001953" xlink:href="#DejaVuSans-2e"/>
      </g>
     </g>
    </g>
    <g id="xtick_4">
     <g id="line2d_7">
      <path clip-path="url(#p91b23ca5a4)" d="M 329.457506 326.64351 
L 329.457506 3.00024 
" style="fill:none;stroke:#b0b0b0;stroke-linecap:square;stroke-width:0.8;"/>
     </g>
     <g id="line2d_8">
      <g>
       <use style="stroke:#000000;stroke-width:0.8;" x="329.457506" xlink:href="#m9c8677a640" y="326.64351"/>
      </g>
     </g>
     <g id="text_4">
      <!-- Thur. -->
      <g transform="translate(316.877818 341.241947)scale(0.1 -0.1)">
       <defs>
        <path d="M 3513 2113 
L 3513 0 
L 2938 0 
L 2938 2094 
Q 2938 2591 2744 2837 
Q 2550 3084 2163 3084 
Q 1697 3084 1428 2787 
Q 1159 2491 1159 1978 
L 1159 0 
L 581 0 
L 581 4863 
L 1159 4863 
L 1159 2956 
Q 1366 3272 1645 3428 
Q 1925 3584 2291 3584 
Q 2894 3584 3203 3211 
Q 3513 2838 3513 2113 
z
" id="DejaVuSans-68" transform="scale(0.015625)"/>
        <path d="M 2631 2963 
Q 2534 3019 2420 3045 
Q 2306 3072 2169 3072 
Q 1681 3072 1420 2755 
Q 1159 2438 1159 1844 
L 1159 0 
L 581 0 
L 581 3500 
L 1159 3500 
L 1159 2956 
Q 1341 3275 1631 3429 
Q 1922 3584 2338 3584 
Q 2397 3584 2469 3576 
Q 2541 3569 2628 3553 
L 2631 2963 
z
" id="DejaVuSans-72" transform="scale(0.015625)"/>
       </defs>
       <use xlink:href="#DejaVuSans-54"/>
       <use x="61.083984" xlink:href="#DejaVuSans-68"/>
       <use x="124.462891" xlink:href="#DejaVuSans-75"/>
       <use x="187.841797" xlink:href="#DejaVuSans-72"/>
       <use x="219.830078" xlink:href="#DejaVuSans-2e"/>
      </g>
     </g>
    </g>
    <g id="xtick_5">
     <g id="line2d_9">
      <path clip-path="url(#p91b23ca5a4)" d="M 423.310256 326.64351 
L 423.310256 3.00024 
" style="fill:none;stroke:#b0b0b0;stroke-linecap:square;stroke-width:0.8;"/>
     </g>
     <g id="line2d_10">
      <g>
       <use style="stroke:#000000;stroke-width:0.8;" x="423.310256" xlink:href="#m9c8677a640" y="326.64351"/>
      </g>
     </g>
     <g id="text_5">
      <!-- Fri. -->
      <g transform="translate(415.763381 341.241947)scale(0.1 -0.1)">
       <defs>
        <path d="M 628 4666 
L 3309 4666 
L 3309 4134 
L 1259 4134 
L 1259 2759 
L 3109 2759 
L 3109 2228 
L 1259 2228 
L 1259 0 
L 628 0 
L 628 4666 
z
" id="DejaVuSans-46" transform="scale(0.015625)"/>
        <path d="M 603 3500 
L 1178 3500 
L 1178 0 
L 603 0 
L 603 3500 
z
M 603 4863 
L 1178 4863 
L 1178 4134 
L 603 4134 
L 603 4863 
z
" id="DejaVuSans-69" transform="scale(0.015625)"/>
       </defs>
       <use xlink:href="#DejaVuSans-46"/>
       <use x="50.269531" xlink:href="#DejaVuSans-72"/>
       <use x="91.382812" xlink:href="#DejaVuSans-69"/>
       <use x="119.166016" xlink:href="#DejaVuSans-2e"/>
      </g>
     </g>
    </g>
    <g id="xtick_6">
     <g id="line2d_11">
      <path clip-path="url(#p91b23ca5a4)" d="M 517.163006 326.64351 
L 517.163006 3.00024 
" style="fill:none;stroke:#b0b0b0;stroke-linecap:square;stroke-width:0.8;"/>
     </g>
     <g id="line2d_12">
      <g>
       <use style="stroke:#000000;stroke-width:0.8;" x="517.163006" xlink:href="#m9c8677a640" y="326.64351"/>
      </g>
     </g>
     <g id="text_6">
      <!-- Sat. -->
      <g transform="translate(507.375506 341.241947)scale(0.1 -0.1)">
       <defs>
        <path d="M 3425 4513 
L 3425 3897 
Q 3066 4069 2747 4153 
Q 2428 4238 2131 4238 
Q 1616 4238 1336 4038 
Q 1056 3838 1056 3469 
Q 1056 3159 1242 3001 
Q 1428 2844 1947 2747 
L 2328 2669 
Q 3034 2534 3370 2195 
Q 3706 1856 3706 1288 
Q 3706 609 3251 259 
Q 2797 -91 1919 -91 
Q 1588 -91 1214 -16 
Q 841 59 441 206 
L 441 856 
Q 825 641 1194 531 
Q 1563 422 1919 422 
Q 2459 422 2753 634 
Q 3047 847 3047 1241 
Q 3047 1584 2836 1778 
Q 2625 1972 2144 2069 
L 1759 2144 
Q 1053 2284 737 2584 
Q 422 2884 422 3419 
Q 422 4038 858 4394 
Q 1294 4750 2059 4750 
Q 2388 4750 2728 4690 
Q 3069 4631 3425 4513 
z
" id="DejaVuSans-53" transform="scale(0.015625)"/>
        <path d="M 2194 1759 
Q 1497 1759 1228 1600 
Q 959 1441 959 1056 
Q 959 750 1161 570 
Q 1363 391 1709 391 
Q 2188 391 2477 730 
Q 2766 1069 2766 1631 
L 2766 1759 
L 2194 1759 
z
M 3341 1997 
L 3341 0 
L 2766 0 
L 2766 531 
Q 2569 213 2275 61 
Q 1981 -91 1556 -91 
Q 1019 -91 701 211 
Q 384 513 384 1019 
Q 384 1609 779 1909 
Q 1175 2209 1959 2209 
L 2766 2209 
L 2766 2266 
Q 2766 2663 2505 2880 
Q 2244 3097 1772 3097 
Q 1472 3097 1187 3025 
Q 903 2953 641 2809 
L 641 3341 
Q 956 3463 1253 3523 
Q 1550 3584 1831 3584 
Q 2591 3584 2966 3190 
Q 3341 2797 3341 1997 
z
" id="DejaVuSans-61" transform="scale(0.015625)"/>
        <path d="M 1172 4494 
L 1172 3500 
L 2356 3500 
L 2356 3053 
L 1172 3053 
L 1172 1153 
Q 1172 725 1289 603 
Q 1406 481 1766 481 
L 2356 481 
L 2356 0 
L 1766 0 
Q 1100 0 847 248 
Q 594 497 594 1153 
L 594 3053 
L 172 3053 
L 172 3500 
L 594 3500 
L 594 4494 
L 1172 4494 
z
" id="DejaVuSans-74" transform="scale(0.015625)"/>
       </defs>
       <use xlink:href="#DejaVuSans-53"/>
       <use x="63.476562" xlink:href="#DejaVuSans-61"/>
       <use x="124.755859" xlink:href="#DejaVuSans-74"/>
       <use x="163.964844" xlink:href="#DejaVuSans-2e"/>
      </g>
     </g>
    </g>
    <g id="xtick_7">
     <g id="line2d_13">
      <path clip-path="url(#p91b23ca5a4)" d="M 611.015756 326.64351 
L 611.015756 3.00024 
" style="fill:none;stroke:#b0b0b0;stroke-linecap:square;stroke-width:0.8;"/>
     </g>
     <g id="line2d_14">
      <g>
       <use style="stroke:#000000;stroke-width:0.8;" x="611.015756" xlink:href="#m9c8677a640" y="326.64351"/>
      </g>
     </g>
     <g id="text_7">
      <!-- Sun. -->
      <g transform="translate(599.914975 341.241947)scale(0.1 -0.1)">
       <use xlink:href="#DejaVuSans-53"/>
       <use x="63.476562" xlink:href="#DejaVuSans-75"/>
       <use x="126.855469" xlink:href="#DejaVuSans-6e"/>
       <use x="190.234375" xlink:href="#DejaVuSans-2e"/>
      </g>
     </g>
    </g>
    <g id="xtick_8">
     <g id="line2d_15">
      <path clip-path="url(#p91b23ca5a4)" d="M 704.868506 326.64351 
L 704.868506 3.00024 
" style="fill:none;stroke:#b0b0b0;stroke-linecap:square;stroke-width:0.8;"/>
     </g>
     <g id="line2d_16">
      <g>
       <use style="stroke:#000000;stroke-width:0.8;" x="704.868506" xlink:href="#m9c8677a640" y="326.64351"/>
      </g>
     </g>
     <g id="text_8">
      <!-- Mon. -->
      <g transform="translate(692.737256 341.241947)scale(0.1 -0.1)">
       <use xlink:href="#DejaVuSans-4d"/>
       <use x="86.279297" xlink:href="#DejaVuSans-6f"/>
       <use x="147.460938" xlink:href="#DejaVuSans-6e"/>
       <use x="210.839844" xlink:href="#DejaVuSans-2e"/>
      </g>
     </g>
    </g>
    <g id="text_9">
     <!-- Day of the week -->
     <g transform="translate(335.580756 354.920073)scale(0.1 -0.1)">
      <defs>
       <path d="M 1259 4147 
L 1259 519 
L 2022 519 
Q 2988 519 3436 956 
Q 3884 1394 3884 2338 
Q 3884 3275 3436 3711 
Q 2988 4147 2022 4147 
L 1259 4147 
z
M 628 4666 
L 1925 4666 
Q 3281 4666 3915 4102 
Q 4550 3538 4550 2338 
Q 4550 1131 3912 565 
Q 3275 0 1925 0 
L 628 0 
L 628 4666 
z
" id="DejaVuSans-44" transform="scale(0.015625)"/>
       <path d="M 2059 -325 
Q 1816 -950 1584 -1140 
Q 1353 -1331 966 -1331 
L 506 -1331 
L 506 -850 
L 844 -850 
Q 1081 -850 1212 -737 
Q 1344 -625 1503 -206 
L 1606 56 
L 191 3500 
L 800 3500 
L 1894 763 
L 2988 3500 
L 3597 3500 
L 2059 -325 
z
" id="DejaVuSans-79" transform="scale(0.015625)"/>
       <path id="DejaVuSans-20" transform="scale(0.015625)"/>
       <path d="M 2375 4863 
L 2375 4384 
L 1825 4384 
Q 1516 4384 1395 4259 
Q 1275 4134 1275 3809 
L 1275 3500 
L 2222 3500 
L 2222 3053 
L 1275 3053 
L 1275 0 
L 697 0 
L 697 3053 
L 147 3053 
L 147 3500 
L 697 3500 
L 697 3744 
Q 697 4328 969 4595 
Q 1241 4863 1831 4863 
L 2375 4863 
z
" id="DejaVuSans-66" transform="scale(0.015625)"/>
       <path d="M 269 3500 
L 844 3500 
L 1563 769 
L 2278 3500 
L 2956 3500 
L 3675 769 
L 4391 3500 
L 4966 3500 
L 4050 0 
L 3372 0 
L 2619 2869 
L 1863 0 
L 1184 0 
L 269 3500 
z
" id="DejaVuSans-77" transform="scale(0.015625)"/>
       <path d="M 581 4863 
L 1159 4863 
L 1159 1991 
L 2875 3500 
L 3609 3500 
L 1753 1863 
L 3688 0 
L 2938 0 
L 1159 1709 
L 1159 0 
L 581 0 
L 581 4863 
z
" id="DejaVuSans-6b" transform="scale(0.015625)"/>
      </defs>
      <use xlink:href="#DejaVuSans-44"/>
      <use x="77.001953" xlink:href="#DejaVuSans-61"/>
      <use x="138.28125" xlink:href="#DejaVuSans-79"/>
      <use x="197.460938" xlink:href="#DejaVuSans-20"/>
      <use x="229.248047" xlink:href="#DejaVuSans-6f"/>
      <use x="290.429688" xlink:href="#DejaVuSans-66"/>
      <use x="325.634766" xlink:href="#DejaVuSans-20"/>
      <use x="357.421875" xlink:href="#DejaVuSans-74"/>
      <use x="396.630859" xlink:href="#DejaVuSans-68"/>
      <use x="460.009766" xlink:href="#DejaVuSans-65"/>
      <use x="521.533203" xlink:href="#DejaVuSans-20"/>
      <use x="553.320312" xlink:href="#DejaVuSans-77"/>
      <use x="635.107422" xlink:href="#DejaVuSans-65"/>
      <use x="696.630859" xlink:href="#DejaVuSans-65"/>
      <use x="758.154297" xlink:href="#DejaVuSans-6b"/>
     </g>
    </g>
   </g>
   <g id="matplotlib.axis_2">
    <g id="ytick_1">
     <g id="line2d_17">
      <path clip-path="url(#p91b23ca5a4)" d="M 45.94399 306.415806 
L 706.823772 306.415806 
" style="fill:none;stroke:#b0b0b0;stroke-linecap:square;stroke-width:0.8;"/>
     </g>
     <g id="line2d_18">
      <defs>
       <path d="M 0 0 
L -3.5 0 
" id="ma0cac0e31c" style="stroke:#000000;stroke-width:0.8;"/>
      </defs>
      <g>
       <use style="stroke:#000000;stroke-width:0.8;" x="45.94399" xlink:href="#ma0cac0e31c" y="306.415806"/>
      </g>
     </g>
     <g id="text_10">
      <!-- 18.0 -->
      <g transform="translate(16.678365 310.215024)scale(0.1 -0.1)">
       <defs>
        <path d="M 794 531 
L 1825 531 
L 1825 4091 
L 703 3866 
L 703 4441 
L 1819 4666 
L 2450 4666 
L 2450 531 
L 3481 531 
L 3481 0 
L 794 0 
L 794 531 
z
" id="DejaVuSans-31" transform="scale(0.015625)"/>
        <path d="M 2034 2216 
Q 1584 2216 1326 1975 
Q 1069 1734 1069 1313 
Q 1069 891 1326 650 
Q 1584 409 2034 409 
Q 2484 409 2743 651 
Q 3003 894 3003 1313 
Q 3003 1734 2745 1975 
Q 2488 2216 2034 2216 
z
M 1403 2484 
Q 997 2584 770 2862 
Q 544 3141 544 3541 
Q 544 4100 942 4425 
Q 1341 4750 2034 4750 
Q 2731 4750 3128 4425 
Q 3525 4100 3525 3541 
Q 3525 3141 3298 2862 
Q 3072 2584 2669 2484 
Q 3125 2378 3379 2068 
Q 3634 1759 3634 1313 
Q 3634 634 3220 271 
Q 2806 -91 2034 -91 
Q 1263 -91 848 271 
Q 434 634 434 1313 
Q 434 1759 690 2068 
Q 947 2378 1403 2484 
z
M 1172 3481 
Q 1172 3119 1398 2916 
Q 1625 2713 2034 2713 
Q 2441 2713 2670 2916 
Q 2900 3119 2900 3481 
Q 2900 3844 2670 4047 
Q 2441 4250 2034 4250 
Q 1625 4250 1398 4047 
Q 1172 3844 1172 3481 
z
" id="DejaVuSans-38" transform="scale(0.015625)"/>
        <path d="M 2034 4250 
Q 1547 4250 1301 3770 
Q 1056 3291 1056 2328 
Q 1056 1369 1301 889 
Q 1547 409 2034 409 
Q 2525 409 2770 889 
Q 3016 1369 3016 2328 
Q 3016 3291 2770 3770 
Q 2525 4250 2034 4250 
z
M 2034 4750 
Q 2819 4750 3233 4129 
Q 3647 3509 3647 2328 
Q 3647 1150 3233 529 
Q 2819 -91 2034 -91 
Q 1250 -91 836 529 
Q 422 1150 422 2328 
Q 422 3509 836 4129 
Q 1250 4750 2034 4750 
z
" id="DejaVuSans-30" transform="scale(0.015625)"/>
       </defs>
       <use xlink:href="#DejaVuSans-31"/>
       <use x="63.623047" xlink:href="#DejaVuSans-38"/>
       <use x="127.246094" xlink:href="#DejaVuSans-2e"/>
       <use x="159.033203" xlink:href="#DejaVuSans-30"/>
      </g>
     </g>
    </g>
    <g id="ytick_2">
     <g id="line2d_19">
      <path clip-path="url(#p91b23ca5a4)" d="M 45.94399 265.960397 
L 706.823772 265.960397 
" style="fill:none;stroke:#b0b0b0;stroke-linecap:square;stroke-width:0.8;"/>
     </g>
     <g id="line2d_20">
      <g>
       <use style="stroke:#000000;stroke-width:0.8;" x="45.94399" xlink:href="#ma0cac0e31c" y="265.960397"/>
      </g>
     </g>
     <g id="text_11">
      <!-- 18.5 -->
      <g transform="translate(16.678365 269.759616)scale(0.1 -0.1)">
       <defs>
        <path d="M 691 4666 
L 3169 4666 
L 3169 4134 
L 1269 4134 
L 1269 2991 
Q 1406 3038 1543 3061 
Q 1681 3084 1819 3084 
Q 2600 3084 3056 2656 
Q 3513 2228 3513 1497 
Q 3513 744 3044 326 
Q 2575 -91 1722 -91 
Q 1428 -91 1123 -41 
Q 819 9 494 109 
L 494 744 
Q 775 591 1075 516 
Q 1375 441 1709 441 
Q 2250 441 2565 725 
Q 2881 1009 2881 1497 
Q 2881 1984 2565 2268 
Q 2250 2553 1709 2553 
Q 1456 2553 1204 2497 
Q 953 2441 691 2322 
L 691 4666 
z
" id="DejaVuSans-35" transform="scale(0.015625)"/>
       </defs>
       <use xlink:href="#DejaVuSans-31"/>
       <use x="63.623047" xlink:href="#DejaVuSans-38"/>
       <use x="127.246094" xlink:href="#DejaVuSans-2e"/>
       <use x="159.033203" xlink:href="#DejaVuSans-35"/>
      </g>
     </g>
    </g>
    <g id="ytick_3">
     <g id="line2d_21">
      <path clip-path="url(#p91b23ca5a4)" d="M 45.94399 225.504988 
L 706.823772 225.504988 
" style="fill:none;stroke:#b0b0b0;stroke-linecap:square;stroke-width:0.8;"/>
     </g>
     <g id="line2d_22">
      <g>
       <use style="stroke:#000000;stroke-width:0.8;" x="45.94399" xlink:href="#ma0cac0e31c" y="225.504988"/>
      </g>
     </g>
     <g id="text_12">
      <!-- 19.0 -->
      <g transform="translate(16.678365 229.304207)scale(0.1 -0.1)">
       <defs>
        <path d="M 703 97 
L 703 672 
Q 941 559 1184 500 
Q 1428 441 1663 441 
Q 2288 441 2617 861 
Q 2947 1281 2994 2138 
Q 2813 1869 2534 1725 
Q 2256 1581 1919 1581 
Q 1219 1581 811 2004 
Q 403 2428 403 3163 
Q 403 3881 828 4315 
Q 1253 4750 1959 4750 
Q 2769 4750 3195 4129 
Q 3622 3509 3622 2328 
Q 3622 1225 3098 567 
Q 2575 -91 1691 -91 
Q 1453 -91 1209 -44 
Q 966 3 703 97 
z
M 1959 2075 
Q 2384 2075 2632 2365 
Q 2881 2656 2881 3163 
Q 2881 3666 2632 3958 
Q 2384 4250 1959 4250 
Q 1534 4250 1286 3958 
Q 1038 3666 1038 3163 
Q 1038 2656 1286 2365 
Q 1534 2075 1959 2075 
z
" id="DejaVuSans-39" transform="scale(0.015625)"/>
       </defs>
       <use xlink:href="#DejaVuSans-31"/>
       <use x="63.623047" xlink:href="#DejaVuSans-39"/>
       <use x="127.246094" xlink:href="#DejaVuSans-2e"/>
       <use x="159.033203" xlink:href="#DejaVuSans-30"/>
      </g>
     </g>
    </g>
    <g id="ytick_4">
     <g id="line2d_23">
      <path clip-path="url(#p91b23ca5a4)" d="M 45.94399 185.049579 
L 706.823772 185.049579 
" style="fill:none;stroke:#b0b0b0;stroke-linecap:square;stroke-width:0.8;"/>
     </g>
     <g id="line2d_24">
      <g>
       <use style="stroke:#000000;stroke-width:0.8;" x="45.94399" xlink:href="#ma0cac0e31c" y="185.049579"/>
      </g>
     </g>
     <g id="text_13">
      <!-- 19.5 -->
      <g transform="translate(16.678365 188.848798)scale(0.1 -0.1)">
       <use xlink:href="#DejaVuSans-31"/>
       <use x="63.623047" xlink:href="#DejaVuSans-39"/>
       <use x="127.246094" xlink:href="#DejaVuSans-2e"/>
       <use x="159.033203" xlink:href="#DejaVuSans-35"/>
      </g>
     </g>
    </g>
    <g id="ytick_5">
     <g id="line2d_25">
      <path clip-path="url(#p91b23ca5a4)" d="M 45.94399 144.594171 
L 706.823772 144.594171 
" style="fill:none;stroke:#b0b0b0;stroke-linecap:square;stroke-width:0.8;"/>
     </g>
     <g id="line2d_26">
      <g>
       <use style="stroke:#000000;stroke-width:0.8;" x="45.94399" xlink:href="#ma0cac0e31c" y="144.594171"/>
      </g>
     </g>
     <g id="text_14">
      <!-- 20.0 -->
      <g transform="translate(16.678365 148.393389)scale(0.1 -0.1)">
       <defs>
        <path d="M 1228 531 
L 3431 531 
L 3431 0 
L 469 0 
L 469 531 
Q 828 903 1448 1529 
Q 2069 2156 2228 2338 
Q 2531 2678 2651 2914 
Q 2772 3150 2772 3378 
Q 2772 3750 2511 3984 
Q 2250 4219 1831 4219 
Q 1534 4219 1204 4116 
Q 875 4013 500 3803 
L 500 4441 
Q 881 4594 1212 4672 
Q 1544 4750 1819 4750 
Q 2544 4750 2975 4387 
Q 3406 4025 3406 3419 
Q 3406 3131 3298 2873 
Q 3191 2616 2906 2266 
Q 2828 2175 2409 1742 
Q 1991 1309 1228 531 
z
" id="DejaVuSans-32" transform="scale(0.015625)"/>
       </defs>
       <use xlink:href="#DejaVuSans-32"/>
       <use x="63.623047" xlink:href="#DejaVuSans-30"/>
       <use x="127.246094" xlink:href="#DejaVuSans-2e"/>
       <use x="159.033203" xlink:href="#DejaVuSans-30"/>
      </g>
     </g>
    </g>
    <g id="ytick_6">
     <g id="line2d_27">
      <path clip-path="url(#p91b23ca5a4)" d="M 45.94399 104.138762 
L 706.823772 104.138762 
" style="fill:none;stroke:#b0b0b0;stroke-linecap:square;stroke-width:0.8;"/>
     </g>
     <g id="line2d_28">
      <g>
       <use style="stroke:#000000;stroke-width:0.8;" x="45.94399" xlink:href="#ma0cac0e31c" y="104.138762"/>
      </g>
     </g>
     <g id="text_15">
      <!-- 20.5 -->
      <g transform="translate(16.678365 107.937981)scale(0.1 -0.1)">
       <use xlink:href="#DejaVuSans-32"/>
       <use x="63.623047" xlink:href="#DejaVuSans-30"/>
       <use x="127.246094" xlink:href="#DejaVuSans-2e"/>
       <use x="159.033203" xlink:href="#DejaVuSans-35"/>
      </g>
     </g>
    </g>
    <g id="ytick_7">
     <g id="line2d_29">
      <path clip-path="url(#p91b23ca5a4)" d="M 45.94399 63.683353 
L 706.823772 63.683353 
" style="fill:none;stroke:#b0b0b0;stroke-linecap:square;stroke-width:0.8;"/>
     </g>
     <g id="line2d_30">
      <g>
       <use style="stroke:#000000;stroke-width:0.8;" x="45.94399" xlink:href="#ma0cac0e31c" y="63.683353"/>
      </g>
     </g>
     <g id="text_16">
      <!-- 21.0 -->
      <g transform="translate(16.678365 67.482572)scale(0.1 -0.1)">
       <use xlink:href="#DejaVuSans-32"/>
       <use x="63.623047" xlink:href="#DejaVuSans-31"/>
       <use x="127.246094" xlink:href="#DejaVuSans-2e"/>
       <use x="159.033203" xlink:href="#DejaVuSans-30"/>
      </g>
     </g>
    </g>
    <g id="ytick_8">
     <g id="line2d_31">
      <path clip-path="url(#p91b23ca5a4)" d="M 45.94399 23.227944 
L 706.823772 23.227944 
" style="fill:none;stroke:#b0b0b0;stroke-linecap:square;stroke-width:0.8;"/>
     </g>
     <g id="line2d_32">
      <g>
       <use style="stroke:#000000;stroke-width:0.8;" x="45.94399" xlink:href="#ma0cac0e31c" y="23.227944"/>
      </g>
     </g>
     <g id="text_17">
      <!-- 21.5 -->
      <g transform="translate(16.678365 27.027163)scale(0.1 -0.1)">
       <use xlink:href="#DejaVuSans-32"/>
       <use x="63.623047" xlink:href="#DejaVuSans-31"/>
       <use x="127.246094" xlink:href="#DejaVuSans-2e"/>
       <use x="159.033203" xlink:href="#DejaVuSans-35"/>
      </g>
     </g>
    </g>
    <g id="text_18">
     <!-- Rolling average demand (MW) -->
     <g transform="translate(10.598677 240.565625)rotate(-90)scale(0.1 -0.1)">
      <defs>
       <path d="M 2841 2188 
Q 3044 2119 3236 1894 
Q 3428 1669 3622 1275 
L 4263 0 
L 3584 0 
L 2988 1197 
Q 2756 1666 2539 1819 
Q 2322 1972 1947 1972 
L 1259 1972 
L 1259 0 
L 628 0 
L 628 4666 
L 2053 4666 
Q 2853 4666 3247 4331 
Q 3641 3997 3641 3322 
Q 3641 2881 3436 2590 
Q 3231 2300 2841 2188 
z
M 1259 4147 
L 1259 2491 
L 2053 2491 
Q 2509 2491 2742 2702 
Q 2975 2913 2975 3322 
Q 2975 3731 2742 3939 
Q 2509 4147 2053 4147 
L 1259 4147 
z
" id="DejaVuSans-52" transform="scale(0.015625)"/>
       <path d="M 603 4863 
L 1178 4863 
L 1178 0 
L 603 0 
L 603 4863 
z
" id="DejaVuSans-6c" transform="scale(0.015625)"/>
       <path d="M 2906 1791 
Q 2906 2416 2648 2759 
Q 2391 3103 1925 3103 
Q 1463 3103 1205 2759 
Q 947 2416 947 1791 
Q 947 1169 1205 825 
Q 1463 481 1925 481 
Q 2391 481 2648 825 
Q 2906 1169 2906 1791 
z
M 3481 434 
Q 3481 -459 3084 -895 
Q 2688 -1331 1869 -1331 
Q 1566 -1331 1297 -1286 
Q 1028 -1241 775 -1147 
L 775 -588 
Q 1028 -725 1275 -790 
Q 1522 -856 1778 -856 
Q 2344 -856 2625 -561 
Q 2906 -266 2906 331 
L 2906 616 
Q 2728 306 2450 153 
Q 2172 0 1784 0 
Q 1141 0 747 490 
Q 353 981 353 1791 
Q 353 2603 747 3093 
Q 1141 3584 1784 3584 
Q 2172 3584 2450 3431 
Q 2728 3278 2906 2969 
L 2906 3500 
L 3481 3500 
L 3481 434 
z
" id="DejaVuSans-67" transform="scale(0.015625)"/>
       <path d="M 191 3500 
L 800 3500 
L 1894 563 
L 2988 3500 
L 3597 3500 
L 2284 0 
L 1503 0 
L 191 3500 
z
" id="DejaVuSans-76" transform="scale(0.015625)"/>
       <path d="M 3328 2828 
Q 3544 3216 3844 3400 
Q 4144 3584 4550 3584 
Q 5097 3584 5394 3201 
Q 5691 2819 5691 2113 
L 5691 0 
L 5113 0 
L 5113 2094 
Q 5113 2597 4934 2840 
Q 4756 3084 4391 3084 
Q 3944 3084 3684 2787 
Q 3425 2491 3425 1978 
L 3425 0 
L 2847 0 
L 2847 2094 
Q 2847 2600 2669 2842 
Q 2491 3084 2119 3084 
Q 1678 3084 1418 2786 
Q 1159 2488 1159 1978 
L 1159 0 
L 581 0 
L 581 3500 
L 1159 3500 
L 1159 2956 
Q 1356 3278 1631 3431 
Q 1906 3584 2284 3584 
Q 2666 3584 2933 3390 
Q 3200 3197 3328 2828 
z
" id="DejaVuSans-6d" transform="scale(0.015625)"/>
       <path d="M 1984 4856 
Q 1566 4138 1362 3434 
Q 1159 2731 1159 2009 
Q 1159 1288 1364 580 
Q 1569 -128 1984 -844 
L 1484 -844 
Q 1016 -109 783 600 
Q 550 1309 550 2009 
Q 550 2706 781 3412 
Q 1013 4119 1484 4856 
L 1984 4856 
z
" id="DejaVuSans-28" transform="scale(0.015625)"/>
       <path d="M 513 4856 
L 1013 4856 
Q 1481 4119 1714 3412 
Q 1947 2706 1947 2009 
Q 1947 1309 1714 600 
Q 1481 -109 1013 -844 
L 513 -844 
Q 928 -128 1133 580 
Q 1338 1288 1338 2009 
Q 1338 2731 1133 3434 
Q 928 4138 513 4856 
z
" id="DejaVuSans-29" transform="scale(0.015625)"/>
      </defs>
      <use xlink:href="#DejaVuSans-52"/>
      <use x="64.982422" xlink:href="#DejaVuSans-6f"/>
      <use x="126.164062" xlink:href="#DejaVuSans-6c"/>
      <use x="153.947266" xlink:href="#DejaVuSans-6c"/>
      <use x="181.730469" xlink:href="#DejaVuSans-69"/>
      <use x="209.513672" xlink:href="#DejaVuSans-6e"/>
      <use x="272.892578" xlink:href="#DejaVuSans-67"/>
      <use x="336.369141" xlink:href="#DejaVuSans-20"/>
      <use x="368.15625" xlink:href="#DejaVuSans-61"/>
      <use x="429.435547" xlink:href="#DejaVuSans-76"/>
      <use x="488.615234" xlink:href="#DejaVuSans-65"/>
      <use x="550.138672" xlink:href="#DejaVuSans-72"/>
      <use x="591.251953" xlink:href="#DejaVuSans-61"/>
      <use x="652.53125" xlink:href="#DejaVuSans-67"/>
      <use x="716.007812" xlink:href="#DejaVuSans-65"/>
      <use x="777.53125" xlink:href="#DejaVuSans-20"/>
      <use x="809.318359" xlink:href="#DejaVuSans-64"/>
      <use x="872.794922" xlink:href="#DejaVuSans-65"/>
      <use x="934.318359" xlink:href="#DejaVuSans-6d"/>
      <use x="1031.730469" xlink:href="#DejaVuSans-61"/>
      <use x="1093.009766" xlink:href="#DejaVuSans-6e"/>
      <use x="1156.388672" xlink:href="#DejaVuSans-64"/>
      <use x="1219.865234" xlink:href="#DejaVuSans-20"/>
      <use x="1251.652344" xlink:href="#DejaVuSans-28"/>
      <use x="1290.666016" xlink:href="#DejaVuSans-4d"/>
      <use x="1376.945312" xlink:href="#DejaVuSans-57"/>
      <use x="1475.822266" xlink:href="#DejaVuSans-29"/>
     </g>
    </g>
   </g>
   <g id="line2d_33">
    <path clip-path="url(#p91b23ca5a4)" d="M 47.899256 263.300455 
L 49.854521 266.236844 
L 51.809787 267.942713 
L 65.496646 275.480904 
L 67.451912 276.805818 
L 69.407178 277.864401 
L 73.317709 281.441335 
L 75.272974 283.710209 
L 77.22824 286.980355 
L 79.183506 291.268629 
L 81.138771 295.138863 
L 87.004568 303.246803 
L 88.959834 305.357228 
L 90.915099 306.486609 
L 92.870365 306.709113 
L 94.825631 306.166336 
L 96.780896 304.929074 
L 100.691428 301.463396 
L 102.646693 299.208008 
L 104.601959 296.59189 
L 106.557224 294.228619 
L 108.51249 292.6812 
L 110.467756 290.955102 
L 114.378287 286.390383 
L 116.333553 284.509208 
L 118.288818 283.066298 
L 124.154615 279.361257 
L 126.109881 277.203636 
L 128.065146 274.759454 
L 131.975678 270.295874 
L 133.930943 268.488866 
L 135.886209 267.3932 
L 137.841474 267.211151 
L 139.79674 267.615704 
L 143.707271 269.705899 
L 145.662537 270.983616 
L 147.617803 272.079282 
L 149.573068 272.810851 
L 151.528334 273.164835 
L 153.483599 273.377226 
L 155.438865 273.303057 
L 157.394131 272.979414 
L 159.349396 272.372583 
L 161.304662 271.222975 
L 163.259928 269.463164 
L 165.215193 265.01644 
L 167.170459 258.857104 
L 169.125724 251.140234 
L 171.08099 242.722138 
L 174.991521 224.888044 
L 176.946787 218.752306 
L 178.902053 213.50996 
L 180.857318 209.073349 
L 182.812584 205.830174 
L 184.76785 203.382622 
L 186.723115 200.597942 
L 188.678381 198.635854 
L 190.633646 197.823376 
L 192.588912 196.741193 
L 198.454709 191.424679 
L 200.409975 189.378309 
L 204.320506 183.856144 
L 206.275771 181.708637 
L 208.231037 179.230743 
L 210.186303 176.405607 
L 212.141568 172.747764 
L 214.096834 169.420308 
L 216.0521 167.023324 
L 218.007365 164.053223 
L 219.962631 161.49779 
L 221.917896 159.761579 
L 223.873162 156.767877 
L 227.783693 150.33884 
L 229.738959 147.901401 
L 231.694225 145.919085 
L 233.64949 144.219959 
L 235.604756 142.32867 
L 237.560021 140.787993 
L 241.470553 137.076209 
L 245.381084 133.516134 
L 253.202146 127.198346 
L 255.157412 125.998169 
L 257.112678 124.393439 
L 259.067943 123.951801 
L 261.023209 123.055038 
L 264.93374 119.353369 
L 266.889006 117.832919 
L 268.844271 117.826177 
L 270.799537 118.298158 
L 272.754803 118.547633 
L 274.710068 119.184806 
L 276.665334 120.145622 
L 278.6206 120.6648 
L 280.575865 122.030169 
L 282.531131 123.122467 
L 284.486396 123.189891 
L 288.396928 124.558631 
L 290.352193 125.812748 
L 292.307459 127.548958 
L 296.21799 131.624841 
L 298.173256 133.634127 
L 300.128521 134.328611 
L 302.083787 134.042052 
L 304.039053 133.408248 
L 307.949584 132.460915 
L 309.90485 131.415819 
L 311.860115 130.728077 
L 313.815381 129.598697 
L 315.770647 127.417475 
L 317.725912 124.733933 
L 319.681178 122.930295 
L 321.636443 123.294394 
L 325.546975 123.587696 
L 327.50224 123.998992 
L 329.457506 124.177669 
L 331.412772 123.719174 
L 337.278568 123.041547 
L 339.233834 122.68419 
L 343.144365 121.807656 
L 347.054897 120.105158 
L 349.010162 118.470085 
L 350.965428 117.59018 
L 352.920693 117.280021 
L 356.831225 116.936151 
L 358.78649 116.700161 
L 360.741756 116.733874 
L 362.697022 115.756202 
L 364.652287 113.564867 
L 366.607553 112.583826 
L 368.562818 111.292624 
L 372.47335 107.631408 
L 374.428615 105.480529 
L 380.294412 95.727405 
L 382.249678 92.733705 
L 384.204943 88.998323 
L 386.160209 84.47406 
L 390.07074 76.538055 
L 393.981272 69.802229 
L 395.936537 67.691805 
L 397.891803 66.124159 
L 399.847068 65.372365 
L 401.802334 63.88563 
L 405.712865 61.461676 
L 407.668131 59.765919 
L 409.623397 57.594813 
L 411.578662 56.694681 
L 413.533928 56.219329 
L 415.489193 56.097962 
L 419.399725 55.103435 
L 421.35499 54.176333 
L 423.310256 53.559388 
L 427.220787 53.158206 
L 431.131318 52.423265 
L 435.04185 51.735524 
L 436.997115 51.863634 
L 438.952381 51.772609 
L 440.907647 51.502907 
L 442.862912 52.345728 
L 444.818178 52.854791 
L 448.728709 52.467095 
L 454.594506 50.923048 
L 456.549772 50.771339 
L 458.505037 52.605319 
L 462.415569 55.524851 
L 464.370834 57.129583 
L 466.3261 59.266977 
L 468.281365 60.959361 
L 470.236631 64.145223 
L 472.191897 67.610903 
L 476.102428 75.348 
L 478.057694 79.295772 
L 480.012959 83.540218 
L 483.92349 90.650259 
L 485.878756 94.702541 
L 487.834022 99.550448 
L 489.789287 103.501594 
L 491.744553 107.739298 
L 493.699819 111.13418 
L 495.655084 115.098809 
L 497.61035 117.859889 
L 499.565615 121.396367 
L 501.520881 125.354256 
L 503.476147 129.966172 
L 505.431412 133.984744 
L 507.386678 136.459267 
L 509.341944 137.082955 
L 515.20774 140.568861 
L 517.163006 141.468993 
L 519.118272 142.082566 
L 521.073537 143.340055 
L 523.028803 144.830162 
L 526.939334 146.76865 
L 528.8946 147.604728 
L 530.849865 148.066593 
L 532.805131 149.522988 
L 534.760397 150.70968 
L 536.715662 151.168174 
L 540.626194 152.712222 
L 542.581459 153.544928 
L 546.49199 156.049791 
L 548.447256 156.862269 
L 550.402522 157.04432 
L 552.357787 156.339719 
L 554.313053 155.045145 
L 556.268319 154.077586 
L 558.223584 152.772899 
L 560.17885 151.01646 
L 562.134115 149.796057 
L 564.089381 148.164355 
L 566.044647 146.97092 
L 567.999912 145.197624 
L 571.910444 141.401562 
L 573.865709 139.614782 
L 575.820975 138.633738 
L 579.731506 137.915656 
L 581.686772 136.358123 
L 583.642037 135.737805 
L 585.597303 134.986009 
L 589.507834 133.179001 
L 591.4631 132.747476 
L 593.418366 131.682149 
L 595.373631 130.761788 
L 597.328897 130.465114 
L 599.284162 130.680875 
L 601.239428 132.029389 
L 603.194694 133.873482 
L 605.149959 134.878126 
L 611.015756 135.589467 
L 612.971022 135.764774 
L 614.926287 135.54227 
L 616.881553 135.205142 
L 618.836819 135.326507 
L 620.792084 135.72432 
L 624.702616 136.961582 
L 626.657881 137.339166 
L 628.613147 138.29661 
L 630.568412 139.692322 
L 632.523678 141.856686 
L 634.478944 145.706693 
L 636.434209 151.383937 
L 638.389475 158.389464 
L 640.344741 164.882559 
L 642.300006 170.758708 
L 644.255272 176.166247 
L 646.210537 179.94883 
L 648.165803 183.347085 
L 650.121069 185.386712 
L 652.076334 187.898319 
L 654.0316 190.905505 
L 655.986866 194.388041 
L 659.897397 203.20395 
L 663.807928 213.078439 
L 667.718459 223.633929 
L 669.673725 228.326756 
L 671.628991 232.689198 
L 673.584256 236.13465 
L 675.539522 239.991397 
L 677.494787 243.190747 
L 679.450053 245.584359 
L 681.405319 249.248944 
L 685.31585 255.533019 
L 691.181647 259.629129 
L 693.136912 261.766523 
L 697.047444 265.555845 
L 699.002709 266.847045 
L 700.957975 267.730321 
L 702.913241 268.04048 
L 702.913241 268.04048 
" style="fill:none;stroke:#d62728;stroke-dasharray:7.4,3.2;stroke-dashoffset:0;stroke-width:2;"/>
   </g>
   <g id="line2d_34">
    <path clip-path="url(#p91b23ca5a4)" d="M 47.899256 202.471035 
L 51.809787 238.802105 
L 53.765053 253.265457 
L 55.720318 262.9205 
L 57.675584 268.385616 
L 59.630849 270.985841 
L 61.586115 271.824752 
L 63.541381 271.571968 
L 65.496646 270.576416 
L 67.451912 269.019121 
L 69.407178 267.012586 
L 71.362443 264.656041 
L 75.272974 259.308829 
L 79.183506 253.773495 
L 83.094037 248.665024 
L 85.049303 246.370673 
L 87.004568 244.26753 
L 88.959834 242.355287 
L 90.915099 240.622987 
L 92.870365 239.053809 
L 94.825631 237.642506 
L 98.736162 235.236886 
L 102.646693 233.32634 
L 106.557224 231.890962 
L 110.467756 230.870719 
L 118.288818 229.231169 
L 120.244084 228.591028 
L 122.199349 227.704893 
L 124.154615 226.464119 
L 126.109881 224.773024 
L 128.065146 222.577595 
L 130.020412 219.8678 
L 135.886209 210.428194 
L 137.841474 208.37567 
L 139.79674 199.594878 
L 141.752006 205.021876 
L 147.617803 248.362393 
L 149.573068 258.008331 
L 151.528334 263.836111 
L 153.483599 266.693133 
L 155.438865 267.423554 
L 157.394131 266.615353 
L 159.349396 264.633509 
L 161.304662 261.719388 
L 163.259928 258.051851 
L 165.215193 253.787539 
L 167.170459 249.069048 
L 171.08099 238.777567 
L 182.812584 206.848159 
L 190.633646 186.669839 
L 198.454709 166.40556 
L 202.36524 155.778731 
L 208.231037 139.142789 
L 216.0521 116.952841 
L 219.962631 106.65812 
L 221.917896 101.909998 
L 223.873162 97.548924 
L 225.828428 93.711784 
L 227.783693 90.612164 
L 229.738959 88.63495 
L 231.694225 88.144968 
L 233.64949 83.780035 
L 235.604756 119.62066 
L 237.560021 128.710719 
L 241.470553 148.600451 
L 243.425818 156.142166 
L 245.381084 161.163443 
L 247.33635 164.092997 
L 249.291615 165.542882 
L 251.246881 166.02808 
L 253.202146 165.91388 
L 255.157412 165.448281 
L 262.978475 162.902996 
L 266.889006 162.097419 
L 272.754803 161.171777 
L 274.710068 160.708647 
L 276.665334 160.071902 
L 278.6206 159.212928 
L 280.575865 158.109349 
L 282.531131 156.734003 
L 284.486396 155.086582 
L 286.441662 153.194865 
L 290.352193 148.831167 
L 304.039053 132.367144 
L 307.949584 128.4567 
L 309.90485 126.73011 
L 311.860115 125.166488 
L 313.815381 123.770154 
L 315.770647 122.557467 
L 317.725912 121.569786 
L 319.681178 120.883348 
L 321.636443 120.638743 
L 323.591709 121.115762 
L 325.546975 122.536942 
L 327.50224 118.557051 
L 329.457506 99.007142 
L 331.412772 107.168936 
L 333.368037 116.707618 
L 335.323303 125.574986 
L 337.278568 131.991208 
L 339.233834 135.658282 
L 341.1891 137.118352 
L 343.144365 137.068505 
L 345.099631 136.063694 
L 347.054897 134.478467 
L 349.010162 132.555884 
L 358.78649 122.215791 
L 360.741756 120.45062 
L 364.652287 117.355321 
L 374.428615 110.443252 
L 378.339147 107.150417 
L 380.294412 105.270737 
L 382.249678 103.197842 
L 384.204943 100.925404 
L 386.160209 98.448177 
L 390.07074 92.88707 
L 393.981272 86.765147 
L 399.847068 77.405481 
L 401.802334 74.500311 
L 403.7576 71.809035 
L 405.712865 69.387827 
L 407.668131 67.274962 
L 409.623397 65.504544 
L 411.578662 64.118241 
L 413.533928 63.183494 
L 415.489193 62.815429 
L 417.444459 63.245996 
L 419.399725 64.630292 
L 421.35499 61.343321 
L 423.310256 28.394287 
L 425.265522 33.880083 
L 429.176053 46.801418 
L 431.131318 51.814053 
L 433.086584 54.903179 
L 435.04185 56.320038 
L 436.997115 56.535939 
L 438.952381 55.960306 
L 440.907647 54.883117 
L 442.862912 53.505147 
L 448.728709 48.909499 
L 450.683975 47.55545 
L 452.63924 46.409123 
L 454.594506 45.510797 
L 456.549772 44.862322 
L 458.505037 44.447033 
L 460.460303 44.241781 
L 462.415569 44.211533 
L 466.3261 44.474195 
L 478.057694 45.790897 
L 481.968225 46.384586 
L 483.92349 46.830894 
L 485.878756 47.429367 
L 487.834022 48.236179 
L 489.789287 49.29454 
L 491.744553 50.64612 
L 493.699819 52.301566 
L 495.655084 54.248686 
L 497.61035 56.450134 
L 501.520881 61.330203 
L 505.431412 66.184655 
L 507.386678 68.304928 
L 509.341944 70.09155 
L 511.297209 71.564584 
L 513.252475 72.723257 
L 515.20774 68.279464 
L 517.163006 94.479552 
L 521.073537 115.43351 
L 523.028803 124.192542 
L 524.984069 130.098565 
L 526.939334 133.310071 
L 528.8946 134.70625 
L 530.849865 135.139132 
L 532.805131 135.154102 
L 542.581459 134.608717 
L 546.49199 134.632946 
L 550.402522 134.859341 
L 560.17885 135.805508 
L 562.134115 135.854429 
L 564.089381 135.76276 
L 566.044647 135.502877 
L 567.999912 135.068915 
L 569.955178 134.468744 
L 573.865709 132.885677 
L 579.731506 130.155974 
L 581.686772 129.366446 
L 583.642037 128.708867 
L 585.597303 128.187402 
L 587.552569 127.78554 
L 591.4631 127.314694 
L 595.373631 127.035365 
L 597.328897 126.779185 
L 599.284162 126.33905 
L 601.239428 125.645822 
L 603.194694 124.674191 
L 605.149959 123.512431 
L 607.105225 122.18863 
L 609.060491 114.766362 
L 611.015756 110.752674 
L 614.926287 129.044987 
L 616.881553 136.862327 
L 618.836819 142.157068 
L 620.792084 145.112086 
L 622.74735 146.626787 
L 626.657881 148.31711 
L 628.613147 149.187041 
L 630.568412 150.189691 
L 632.523678 151.324753 
L 634.478944 152.589293 
L 636.434209 153.992109 
L 638.389475 155.552181 
L 640.344741 157.294203 
L 642.300006 159.229904 
L 644.255272 161.356967 
L 648.165803 166.108021 
L 663.807928 186.364738 
L 673.584256 198.661056 
L 683.360584 211.174356 
L 685.31585 213.438614 
L 687.271116 215.456261 
L 689.226381 217.158776 
L 691.181647 218.494769 
L 693.136912 219.444949 
L 695.092178 220.065336 
L 697.047444 220.532941 
L 699.002709 221.249781 
L 700.957975 222.553829 
L 702.913241 216.278197 
L 702.913241 216.278197 
" style="fill:none;stroke:#1f77b4;stroke-linecap:square;stroke-width:1.5;"/>
   </g>
   <g id="patch_3">
    <path d="M 45.94399 326.64351 
L 45.94399 3.00024 
" style="fill:none;stroke:#000000;stroke-linecap:square;stroke-linejoin:miter;stroke-width:0.8;"/>
   </g>
   <g id="patch_4">
    <path d="M 706.823772 326.64351 
L 706.823772 3.00024 
" style="fill:none;stroke:#000000;stroke-linecap:square;stroke-linejoin:miter;stroke-width:0.8;"/>
   </g>
   <g id="patch_5">
    <path d="M 45.94399 326.64351 
L 706.823772 326.64351 
" style="fill:none;stroke:#000000;stroke-linecap:square;stroke-linejoin:miter;stroke-width:0.8;"/>
   </g>
   <g id="patch_6">
    <path d="M 45.94399 3.00024 
L 706.823772 3.00024 
" style="fill:none;stroke:#000000;stroke-linecap:square;stroke-linejoin:miter;stroke-width:0.8;"/>
   </g>
   <g id="legend_1">
    <g id="patch_7">
     <path d="M 168.761225 25.678365 
L 584.006537 25.678365 
L 584.006537 8.00024 
L 168.761225 8.00024 
z
" style="fill:#ffffff;opacity:0.95;stroke:#000000;stroke-linejoin:miter;"/>
    </g>
    <g id="line2d_35">
     <path d="M 172.761225 16.098678 
L 192.761225 16.098678 
" style="fill:none;stroke:#d62728;stroke-dasharray:7.4,3.2;stroke-dashoffset:0;stroke-width:2;"/>
    </g>
    <g id="line2d_36"/>
    <g id="text_19">
     <!-- Actual rolling average demand -->
     <g transform="translate(200.761225 19.598678)scale(0.1 -0.1)">
      <defs>
       <path d="M 2188 4044 
L 1331 1722 
L 3047 1722 
L 2188 4044 
z
M 1831 4666 
L 2547 4666 
L 4325 0 
L 3669 0 
L 3244 1197 
L 1141 1197 
L 716 0 
L 50 0 
L 1831 4666 
z
" id="DejaVuSans-41" transform="scale(0.015625)"/>
       <path d="M 3122 3366 
L 3122 2828 
Q 2878 2963 2633 3030 
Q 2388 3097 2138 3097 
Q 1578 3097 1268 2742 
Q 959 2388 959 1747 
Q 959 1106 1268 751 
Q 1578 397 2138 397 
Q 2388 397 2633 464 
Q 2878 531 3122 666 
L 3122 134 
Q 2881 22 2623 -34 
Q 2366 -91 2075 -91 
Q 1284 -91 818 406 
Q 353 903 353 1747 
Q 353 2603 823 3093 
Q 1294 3584 2113 3584 
Q 2378 3584 2631 3529 
Q 2884 3475 3122 3366 
z
" id="DejaVuSans-63" transform="scale(0.015625)"/>
      </defs>
      <use xlink:href="#DejaVuSans-41"/>
      <use x="66.658203" xlink:href="#DejaVuSans-63"/>
      <use x="121.638672" xlink:href="#DejaVuSans-74"/>
      <use x="160.847656" xlink:href="#DejaVuSans-75"/>
      <use x="224.226562" xlink:href="#DejaVuSans-61"/>
      <use x="285.505859" xlink:href="#DejaVuSans-6c"/>
      <use x="313.289062" xlink:href="#DejaVuSans-20"/>
      <use x="345.076172" xlink:href="#DejaVuSans-72"/>
      <use x="383.939453" xlink:href="#DejaVuSans-6f"/>
      <use x="445.121094" xlink:href="#DejaVuSans-6c"/>
      <use x="472.904297" xlink:href="#DejaVuSans-6c"/>
      <use x="500.6875" xlink:href="#DejaVuSans-69"/>
      <use x="528.470703" xlink:href="#DejaVuSans-6e"/>
      <use x="591.849609" xlink:href="#DejaVuSans-67"/>
      <use x="655.326172" xlink:href="#DejaVuSans-20"/>
      <use x="687.113281" xlink:href="#DejaVuSans-61"/>
      <use x="748.392578" xlink:href="#DejaVuSans-76"/>
      <use x="807.572266" xlink:href="#DejaVuSans-65"/>
      <use x="869.095703" xlink:href="#DejaVuSans-72"/>
      <use x="910.208984" xlink:href="#DejaVuSans-61"/>
      <use x="971.488281" xlink:href="#DejaVuSans-67"/>
      <use x="1034.964844" xlink:href="#DejaVuSans-65"/>
      <use x="1096.488281" xlink:href="#DejaVuSans-20"/>
      <use x="1128.275391" xlink:href="#DejaVuSans-64"/>
      <use x="1191.751953" xlink:href="#DejaVuSans-65"/>
      <use x="1253.275391" xlink:href="#DejaVuSans-6d"/>
      <use x="1350.6875" xlink:href="#DejaVuSans-61"/>
      <use x="1411.966797" xlink:href="#DejaVuSans-6e"/>
      <use x="1475.345703" xlink:href="#DejaVuSans-64"/>
     </g>
    </g>
    <g id="line2d_37">
     <path d="M 374.6456 16.098678 
L 394.6456 16.098678 
" style="fill:none;stroke:#1f77b4;stroke-linecap:square;stroke-width:1.5;"/>
    </g>
    <g id="line2d_38"/>
    <g id="text_20">
     <!-- Forecasted rolling average demand -->
     <g transform="translate(402.6456 19.598678)scale(0.1 -0.1)">
      <defs>
       <path d="M 2834 3397 
L 2834 2853 
Q 2591 2978 2328 3040 
Q 2066 3103 1784 3103 
Q 1356 3103 1142 2972 
Q 928 2841 928 2578 
Q 928 2378 1081 2264 
Q 1234 2150 1697 2047 
L 1894 2003 
Q 2506 1872 2764 1633 
Q 3022 1394 3022 966 
Q 3022 478 2636 193 
Q 2250 -91 1575 -91 
Q 1294 -91 989 -36 
Q 684 19 347 128 
L 347 722 
Q 666 556 975 473 
Q 1284 391 1588 391 
Q 1994 391 2212 530 
Q 2431 669 2431 922 
Q 2431 1156 2273 1281 
Q 2116 1406 1581 1522 
L 1381 1569 
Q 847 1681 609 1914 
Q 372 2147 372 2553 
Q 372 3047 722 3315 
Q 1072 3584 1716 3584 
Q 2034 3584 2315 3537 
Q 2597 3491 2834 3397 
z
" id="DejaVuSans-73" transform="scale(0.015625)"/>
      </defs>
      <use xlink:href="#DejaVuSans-46"/>
      <use x="53.894531" xlink:href="#DejaVuSans-6f"/>
      <use x="115.076172" xlink:href="#DejaVuSans-72"/>
      <use x="153.939453" xlink:href="#DejaVuSans-65"/>
      <use x="215.462891" xlink:href="#DejaVuSans-63"/>
      <use x="270.443359" xlink:href="#DejaVuSans-61"/>
      <use x="331.722656" xlink:href="#DejaVuSans-73"/>
      <use x="383.822266" xlink:href="#DejaVuSans-74"/>
      <use x="423.03125" xlink:href="#DejaVuSans-65"/>
      <use x="484.554688" xlink:href="#DejaVuSans-64"/>
      <use x="548.03125" xlink:href="#DejaVuSans-20"/>
      <use x="579.818359" xlink:href="#DejaVuSans-72"/>
      <use x="618.681641" xlink:href="#DejaVuSans-6f"/>
      <use x="679.863281" xlink:href="#DejaVuSans-6c"/>
      <use x="707.646484" xlink:href="#DejaVuSans-6c"/>
      <use x="735.429688" xlink:href="#DejaVuSans-69"/>
      <use x="763.212891" xlink:href="#DejaVuSans-6e"/>
      <use x="826.591797" xlink:href="#DejaVuSans-67"/>
      <use x="890.068359" xlink:href="#DejaVuSans-20"/>
      <use x="921.855469" xlink:href="#DejaVuSans-61"/>
      <use x="983.134766" xlink:href="#DejaVuSans-76"/>
      <use x="1042.314453" xlink:href="#DejaVuSans-65"/>
      <use x="1103.837891" xlink:href="#DejaVuSans-72"/>
      <use x="1144.951172" xlink:href="#DejaVuSans-61"/>
      <use x="1206.230469" xlink:href="#DejaVuSans-67"/>
      <use x="1269.707031" xlink:href="#DejaVuSans-65"/>
      <use x="1331.230469" xlink:href="#DejaVuSans-20"/>
      <use x="1363.017578" xlink:href="#DejaVuSans-64"/>
      <use x="1426.494141" xlink:href="#DejaVuSans-65"/>
      <use x="1488.017578" xlink:href="#DejaVuSans-6d"/>
      <use x="1585.429688" xlink:href="#DejaVuSans-61"/>
      <use x="1646.708984" xlink:href="#DejaVuSans-6e"/>
      <use x="1710.087891" xlink:href="#DejaVuSans-64"/>
     </g>
    </g>
   </g>
  </g>
 </g>
 <defs>
  <clipPath id="p91b23ca5a4">
   <rect height="323.64327" width="660.879782" x="45.94399" y="3.00024"/>
  </clipPath>
 </defs>
</svg>
