<?xml version="1.0" encoding="utf-8" standalone="no"?>
<!DOCTYPE svg PUBLIC "-//W3C//DTD SVG 1.1//EN"
  "http://www.w3.org/Graphics/SVG/1.1/DTD/svg11.dtd">
<svg height="360pt" version="1.1" viewBox="0 0 720 360" width="720pt" xmlns="http://www.w3.org/2000/svg" xmlns:xlink="http://www.w3.org/1999/xlink">
 <metadata>
  <rdf:RDF xmlns:cc="http://creativecommons.org/ns#" xmlns:dc="http://purl.org/dc/elements/1.1/" xmlns:rdf="http://www.w3.org/1999/02/22-rdf-syntax-ns#">
   <cc:Work>
    <dc:type rdf:resource="http://purl.org/dc/dcmitype/StillImage"/>
    <dc:date>2022-04-11T21:20:50.778157</dc:date>
    <dc:format>image/svg+xml</dc:format>
    <dc:creator>
     <cc:Agent>
      <dc:title>Matplotlib v3.4.3, https://matplotlib.org/</dc:title>
     </cc:Agent>
    </dc:creator>
   </cc:Work>
  </rdf:RDF>
 </metadata>
 <defs>
  <style type="text/css">*{stroke-linecap:butt;stroke-linejoin:round;}</style>
 </defs>
 <g id="figure_1">
  <g id="patch_1">
   <path d="M 0 360 
L 720 360 
L 720 0 
L 0 0 
z
" style="fill:#ffffff;"/>
  </g>
  <g id="axes_1">
   <g id="patch_2">
    <path d="M 47.961178 326.64351 
L 706.817786 326.64351 
L 706.817786 3.00024 
L 47.961178 3.00024 
z
" style="fill:#ffffff;"/>
   </g>
   <g id="matplotlib.axis_1">
    <g id="xtick_1">
     <g id="line2d_1">
      <path clip-path="url(#pb9f1863b49)" d="M 49.910457 326.64351 
L 49.910457 3.00024 
" style="fill:none;stroke:#b0b0b0;stroke-linecap:square;stroke-width:0.8;"/>
     </g>
     <g id="line2d_2">
      <defs>
       <path d="M 0 0 
L 0 3.5 
" id="m77bce6fa18" style="stroke:#000000;stroke-width:0.8;"/>
      </defs>
      <g>
       <use style="stroke:#000000;stroke-width:0.8;" x="49.910457" xlink:href="#m77bce6fa18" y="326.64351"/>
      </g>
     </g>
     <g id="text_1">
      <!-- Mon. -->
      <g transform="translate(37.779207 341.241947)scale(0.1 -0.1)">
       <defs>
        <path d="M 628 4666 
L 1569 4666 
L 2759 1491 
L 3956 4666 
L 4897 4666 
L 4897 0 
L 4281 0 
L 4281 4097 
L 3078 897 
L 2444 897 
L 1241 4097 
L 1241 0 
L 628 0 
L 628 4666 
z
" id="DejaVuSans-4d" transform="scale(0.015625)"/>
        <path d="M 1959 3097 
Q 1497 3097 1228 2736 
Q 959 2375 959 1747 
Q 959 1119 1226 758 
Q 1494 397 1959 397 
Q 2419 397 2687 759 
Q 2956 1122 2956 1747 
Q 2956 2369 2687 2733 
Q 2419 3097 1959 3097 
z
M 1959 3584 
Q 2709 3584 3137 3096 
Q 3566 2609 3566 1747 
Q 3566 888 3137 398 
Q 2709 -91 1959 -91 
Q 1206 -91 779 398 
Q 353 888 353 1747 
Q 353 2609 779 3096 
Q 1206 3584 1959 3584 
z
" id="DejaVuSans-6f" transform="scale(0.015625)"/>
        <path d="M 3513 2113 
L 3513 0 
L 2938 0 
L 2938 2094 
Q 2938 2591 2744 2837 
Q 2550 3084 2163 3084 
Q 1697 3084 1428 2787 
Q 1159 2491 1159 1978 
L 1159 0 
L 581 0 
L 581 3500 
L 1159 3500 
L 1159 2956 
Q 1366 3272 1645 3428 
Q 1925 3584 2291 3584 
Q 2894 3584 3203 3211 
Q 3513 2838 3513 2113 
z
" id="DejaVuSans-6e" transform="scale(0.015625)"/>
        <path d="M 684 794 
L 1344 794 
L 1344 0 
L 684 0 
L 684 794 
z
" id="DejaVuSans-2e" transform="scale(0.015625)"/>
       </defs>
       <use xlink:href="#DejaVuSans-4d"/>
       <use x="86.279297" xlink:href="#DejaVuSans-6f"/>
       <use x="147.460938" xlink:href="#DejaVuSans-6e"/>
       <use x="210.839844" xlink:href="#DejaVuSans-2e"/>
      </g>
     </g>
    </g>
    <g id="xtick_2">
     <g id="line2d_3">
      <path clip-path="url(#pb9f1863b49)" d="M 143.475893 326.64351 
L 143.475893 3.00024 
" style="fill:none;stroke:#b0b0b0;stroke-linecap:square;stroke-width:0.8;"/>
     </g>
     <g id="line2d_4">
      <g>
       <use style="stroke:#000000;stroke-width:0.8;" x="143.475893" xlink:href="#m77bce6fa18" y="326.64351"/>
      </g>
     </g>
     <g id="text_2">
      <!-- Tue. -->
      <g transform="translate(133.343862 341.241947)scale(0.1 -0.1)">
       <defs>
        <path d="M -19 4666 
L 3928 4666 
L 3928 4134 
L 2272 4134 
L 2272 0 
L 1638 0 
L 1638 4134 
L -19 4134 
L -19 4666 
z
" id="DejaVuSans-54" transform="scale(0.015625)"/>
        <path d="M 544 1381 
L 544 3500 
L 1119 3500 
L 1119 1403 
Q 1119 906 1312 657 
Q 1506 409 1894 409 
Q 2359 409 2629 706 
Q 2900 1003 2900 1516 
L 2900 3500 
L 3475 3500 
L 3475 0 
L 2900 0 
L 2900 538 
Q 2691 219 2414 64 
Q 2138 -91 1772 -91 
Q 1169 -91 856 284 
Q 544 659 544 1381 
z
M 1991 3584 
L 1991 3584 
z
" id="DejaVuSans-75" transform="scale(0.015625)"/>
        <path d="M 3597 1894 
L 3597 1613 
L 953 1613 
Q 991 1019 1311 708 
Q 1631 397 2203 397 
Q 2534 397 2845 478 
Q 3156 559 3463 722 
L 3463 178 
Q 3153 47 2828 -22 
Q 2503 -91 2169 -91 
Q 1331 -91 842 396 
Q 353 884 353 1716 
Q 353 2575 817 3079 
Q 1281 3584 2069 3584 
Q 2775 3584 3186 3129 
Q 3597 2675 3597 1894 
z
M 3022 2063 
Q 3016 2534 2758 2815 
Q 2500 3097 2075 3097 
Q 1594 3097 1305 2825 
Q 1016 2553 972 2059 
L 3022 2063 
z
" id="DejaVuSans-65" transform="scale(0.015625)"/>
       </defs>
       <use xlink:href="#DejaVuSans-54"/>
       <use x="45.958984" xlink:href="#DejaVuSans-75"/>
       <use x="109.337891" xlink:href="#DejaVuSans-65"/>
       <use x="170.861328" xlink:href="#DejaVuSans-2e"/>
      </g>
     </g>
    </g>
    <g id="xtick_3">
     <g id="line2d_5">
      <path clip-path="url(#pb9f1863b49)" d="M 237.041329 326.64351 
L 237.041329 3.00024 
" style="fill:none;stroke:#b0b0b0;stroke-linecap:square;stroke-width:0.8;"/>
     </g>
     <g id="line2d_6">
      <g>
       <use style="stroke:#000000;stroke-width:0.8;" x="237.041329" xlink:href="#m77bce6fa18" y="326.64351"/>
      </g>
     </g>
     <g id="text_3">
      <!-- Wed. -->
      <g transform="translate(224.551485 341.241947)scale(0.1 -0.1)">
       <defs>
        <path d="M 213 4666 
L 850 4666 
L 1831 722 
L 2809 4666 
L 3519 4666 
L 4500 722 
L 5478 4666 
L 6119 4666 
L 4947 0 
L 4153 0 
L 3169 4050 
L 2175 0 
L 1381 0 
L 213 4666 
z
" id="DejaVuSans-57" transform="scale(0.015625)"/>
        <path d="M 2906 2969 
L 2906 4863 
L 3481 4863 
L 3481 0 
L 2906 0 
L 2906 525 
Q 2725 213 2448 61 
Q 2172 -91 1784 -91 
Q 1150 -91 751 415 
Q 353 922 353 1747 
Q 353 2572 751 3078 
Q 1150 3584 1784 3584 
Q 2172 3584 2448 3432 
Q 2725 3281 2906 2969 
z
M 947 1747 
Q 947 1113 1208 752 
Q 1469 391 1925 391 
Q 2381 391 2643 752 
Q 2906 1113 2906 1747 
Q 2906 2381 2643 2742 
Q 2381 3103 1925 3103 
Q 1469 3103 1208 2742 
Q 947 2381 947 1747 
z
" id="DejaVuSans-64" transform="scale(0.015625)"/>
       </defs>
       <use xlink:href="#DejaVuSans-57"/>
       <use x="93.001953" xlink:href="#DejaVuSans-65"/>
       <use x="154.525391" xlink:href="#DejaVuSans-64"/>
       <use x="218.001953" xlink:href="#DejaVuSans-2e"/>
      </g>
     </g>
    </g>
    <g id="xtick_4">
     <g id="line2d_7">
      <path clip-path="url(#pb9f1863b49)" d="M 330.606764 326.64351 
L 330.606764 3.00024 
" style="fill:none;stroke:#b0b0b0;stroke-linecap:square;stroke-width:0.8;"/>
     </g>
     <g id="line2d_8">
      <g>
       <use style="stroke:#000000;stroke-width:0.8;" x="330.606764" xlink:href="#m77bce6fa18" y="326.64351"/>
      </g>
     </g>
     <g id="text_4">
      <!-- Thur. -->
      <g transform="translate(318.027077 341.241947)scale(0.1 -0.1)">
       <defs>
        <path d="M 3513 2113 
L 3513 0 
L 2938 0 
L 2938 2094 
Q 2938 2591 2744 2837 
Q 2550 3084 2163 3084 
Q 1697 3084 1428 2787 
Q 1159 2491 1159 1978 
L 1159 0 
L 581 0 
L 581 4863 
L 1159 4863 
L 1159 2956 
Q 1366 3272 1645 3428 
Q 1925 3584 2291 3584 
Q 2894 3584 3203 3211 
Q 3513 2838 3513 2113 
z
" id="DejaVuSans-68" transform="scale(0.015625)"/>
        <path d="M 2631 2963 
Q 2534 3019 2420 3045 
Q 2306 3072 2169 3072 
Q 1681 3072 1420 2755 
Q 1159 2438 1159 1844 
L 1159 0 
L 581 0 
L 581 3500 
L 1159 3500 
L 1159 2956 
Q 1341 3275 1631 3429 
Q 1922 3584 2338 3584 
Q 2397 3584 2469 3576 
Q 2541 3569 2628 3553 
L 2631 2963 
z
" id="DejaVuSans-72" transform="scale(0.015625)"/>
       </defs>
       <use xlink:href="#DejaVuSans-54"/>
       <use x="61.083984" xlink:href="#DejaVuSans-68"/>
       <use x="124.462891" xlink:href="#DejaVuSans-75"/>
       <use x="187.841797" xlink:href="#DejaVuSans-72"/>
       <use x="219.830078" xlink:href="#DejaVuSans-2e"/>
      </g>
     </g>
    </g>
    <g id="xtick_5">
     <g id="line2d_9">
      <path clip-path="url(#pb9f1863b49)" d="M 424.1722 326.64351 
L 424.1722 3.00024 
" style="fill:none;stroke:#b0b0b0;stroke-linecap:square;stroke-width:0.8;"/>
     </g>
     <g id="line2d_10">
      <g>
       <use style="stroke:#000000;stroke-width:0.8;" x="424.1722" xlink:href="#m77bce6fa18" y="326.64351"/>
      </g>
     </g>
     <g id="text_5">
      <!-- Fri. -->
      <g transform="translate(416.625325 341.241947)scale(0.1 -0.1)">
       <defs>
        <path d="M 628 4666 
L 3309 4666 
L 3309 4134 
L 1259 4134 
L 1259 2759 
L 3109 2759 
L 3109 2228 
L 1259 2228 
L 1259 0 
L 628 0 
L 628 4666 
z
" id="DejaVuSans-46" transform="scale(0.015625)"/>
        <path d="M 603 3500 
L 1178 3500 
L 1178 0 
L 603 0 
L 603 3500 
z
M 603 4863 
L 1178 4863 
L 1178 4134 
L 603 4134 
L 603 4863 
z
" id="DejaVuSans-69" transform="scale(0.015625)"/>
       </defs>
       <use xlink:href="#DejaVuSans-46"/>
       <use x="50.269531" xlink:href="#DejaVuSans-72"/>
       <use x="91.382812" xlink:href="#DejaVuSans-69"/>
       <use x="119.166016" xlink:href="#DejaVuSans-2e"/>
      </g>
     </g>
    </g>
    <g id="xtick_6">
     <g id="line2d_11">
      <path clip-path="url(#pb9f1863b49)" d="M 517.737635 326.64351 
L 517.737635 3.00024 
" style="fill:none;stroke:#b0b0b0;stroke-linecap:square;stroke-width:0.8;"/>
     </g>
     <g id="line2d_12">
      <g>
       <use style="stroke:#000000;stroke-width:0.8;" x="517.737635" xlink:href="#m77bce6fa18" y="326.64351"/>
      </g>
     </g>
     <g id="text_6">
      <!-- Sat. -->
      <g transform="translate(507.950135 341.241947)scale(0.1 -0.1)">
       <defs>
        <path d="M 3425 4513 
L 3425 3897 
Q 3066 4069 2747 4153 
Q 2428 4238 2131 4238 
Q 1616 4238 1336 4038 
Q 1056 3838 1056 3469 
Q 1056 3159 1242 3001 
Q 1428 2844 1947 2747 
L 2328 2669 
Q 3034 2534 3370 2195 
Q 3706 1856 3706 1288 
Q 3706 609 3251 259 
Q 2797 -91 1919 -91 
Q 1588 -91 1214 -16 
Q 841 59 441 206 
L 441 856 
Q 825 641 1194 531 
Q 1563 422 1919 422 
Q 2459 422 2753 634 
Q 3047 847 3047 1241 
Q 3047 1584 2836 1778 
Q 2625 1972 2144 2069 
L 1759 2144 
Q 1053 2284 737 2584 
Q 422 2884 422 3419 
Q 422 4038 858 4394 
Q 1294 4750 2059 4750 
Q 2388 4750 2728 4690 
Q 3069 4631 3425 4513 
z
" id="DejaVuSans-53" transform="scale(0.015625)"/>
        <path d="M 2194 1759 
Q 1497 1759 1228 1600 
Q 959 1441 959 1056 
Q 959 750 1161 570 
Q 1363 391 1709 391 
Q 2188 391 2477 730 
Q 2766 1069 2766 1631 
L 2766 1759 
L 2194 1759 
z
M 3341 1997 
L 3341 0 
L 2766 0 
L 2766 531 
Q 2569 213 2275 61 
Q 1981 -91 1556 -91 
Q 1019 -91 701 211 
Q 384 513 384 1019 
Q 384 1609 779 1909 
Q 1175 2209 1959 2209 
L 2766 2209 
L 2766 2266 
Q 2766 2663 2505 2880 
Q 2244 3097 1772 3097 
Q 1472 3097 1187 3025 
Q 903 2953 641 2809 
L 641 3341 
Q 956 3463 1253 3523 
Q 1550 3584 1831 3584 
Q 2591 3584 2966 3190 
Q 3341 2797 3341 1997 
z
" id="DejaVuSans-61" transform="scale(0.015625)"/>
        <path d="M 1172 4494 
L 1172 3500 
L 2356 3500 
L 2356 3053 
L 1172 3053 
L 1172 1153 
Q 1172 725 1289 603 
Q 1406 481 1766 481 
L 2356 481 
L 2356 0 
L 1766 0 
Q 1100 0 847 248 
Q 594 497 594 1153 
L 594 3053 
L 172 3053 
L 172 3500 
L 594 3500 
L 594 4494 
L 1172 4494 
z
" id="DejaVuSans-74" transform="scale(0.015625)"/>
       </defs>
       <use xlink:href="#DejaVuSans-53"/>
       <use x="63.476562" xlink:href="#DejaVuSans-61"/>
       <use x="124.755859" xlink:href="#DejaVuSans-74"/>
       <use x="163.964844" xlink:href="#DejaVuSans-2e"/>
      </g>
     </g>
    </g>
    <g id="xtick_7">
     <g id="line2d_13">
      <path clip-path="url(#pb9f1863b49)" d="M 611.303071 326.64351 
L 611.303071 3.00024 
" style="fill:none;stroke:#b0b0b0;stroke-linecap:square;stroke-width:0.8;"/>
     </g>
     <g id="line2d_14">
      <g>
       <use style="stroke:#000000;stroke-width:0.8;" x="611.303071" xlink:href="#m77bce6fa18" y="326.64351"/>
      </g>
     </g>
     <g id="text_7">
      <!-- Sun. -->
      <g transform="translate(600.20229 341.241947)scale(0.1 -0.1)">
       <use xlink:href="#DejaVuSans-53"/>
       <use x="63.476562" xlink:href="#DejaVuSans-75"/>
       <use x="126.855469" xlink:href="#DejaVuSans-6e"/>
       <use x="190.234375" xlink:href="#DejaVuSans-2e"/>
      </g>
     </g>
    </g>
    <g id="xtick_8">
     <g id="line2d_15">
      <path clip-path="url(#pb9f1863b49)" d="M 704.868507 326.64351 
L 704.868507 3.00024 
" style="fill:none;stroke:#b0b0b0;stroke-linecap:square;stroke-width:0.8;"/>
     </g>
     <g id="line2d_16">
      <g>
       <use style="stroke:#000000;stroke-width:0.8;" x="704.868507" xlink:href="#m77bce6fa18" y="326.64351"/>
      </g>
     </g>
     <g id="text_8">
      <!-- Mon. -->
      <g transform="translate(692.737257 341.241947)scale(0.1 -0.1)">
       <use xlink:href="#DejaVuSans-4d"/>
       <use x="86.279297" xlink:href="#DejaVuSans-6f"/>
       <use x="147.460938" xlink:href="#DejaVuSans-6e"/>
       <use x="210.839844" xlink:href="#DejaVuSans-2e"/>
      </g>
     </g>
    </g>
    <g id="text_9">
     <!-- Day of the week -->
     <g transform="translate(336.586357 354.920073)scale(0.1 -0.1)">
      <defs>
       <path d="M 1259 4147 
L 1259 519 
L 2022 519 
Q 2988 519 3436 956 
Q 3884 1394 3884 2338 
Q 3884 3275 3436 3711 
Q 2988 4147 2022 4147 
L 1259 4147 
z
M 628 4666 
L 1925 4666 
Q 3281 4666 3915 4102 
Q 4550 3538 4550 2338 
Q 4550 1131 3912 565 
Q 3275 0 1925 0 
L 628 0 
L 628 4666 
z
" id="DejaVuSans-44" transform="scale(0.015625)"/>
       <path d="M 2059 -325 
Q 1816 -950 1584 -1140 
Q 1353 -1331 966 -1331 
L 506 -1331 
L 506 -850 
L 844 -850 
Q 1081 -850 1212 -737 
Q 1344 -625 1503 -206 
L 1606 56 
L 191 3500 
L 800 3500 
L 1894 763 
L 2988 3500 
L 3597 3500 
L 2059 -325 
z
" id="DejaVuSans-79" transform="scale(0.015625)"/>
       <path id="DejaVuSans-20" transform="scale(0.015625)"/>
       <path d="M 2375 4863 
L 2375 4384 
L 1825 4384 
Q 1516 4384 1395 4259 
Q 1275 4134 1275 3809 
L 1275 3500 
L 2222 3500 
L 2222 3053 
L 1275 3053 
L 1275 0 
L 697 0 
L 697 3053 
L 147 3053 
L 147 3500 
L 697 3500 
L 697 3744 
Q 697 4328 969 4595 
Q 1241 4863 1831 4863 
L 2375 4863 
z
" id="DejaVuSans-66" transform="scale(0.015625)"/>
       <path d="M 269 3500 
L 844 3500 
L 1563 769 
L 2278 3500 
L 2956 3500 
L 3675 769 
L 4391 3500 
L 4966 3500 
L 4050 0 
L 3372 0 
L 2619 2869 
L 1863 0 
L 1184 0 
L 269 3500 
z
" id="DejaVuSans-77" transform="scale(0.015625)"/>
       <path d="M 581 4863 
L 1159 4863 
L 1159 1991 
L 2875 3500 
L 3609 3500 
L 1753 1863 
L 3688 0 
L 2938 0 
L 1159 1709 
L 1159 0 
L 581 0 
L 581 4863 
z
" id="DejaVuSans-6b" transform="scale(0.015625)"/>
      </defs>
      <use xlink:href="#DejaVuSans-44"/>
      <use x="77.001953" xlink:href="#DejaVuSans-61"/>
      <use x="138.28125" xlink:href="#DejaVuSans-79"/>
      <use x="197.460938" xlink:href="#DejaVuSans-20"/>
      <use x="229.248047" xlink:href="#DejaVuSans-6f"/>
      <use x="290.429688" xlink:href="#DejaVuSans-66"/>
      <use x="325.634766" xlink:href="#DejaVuSans-20"/>
      <use x="357.421875" xlink:href="#DejaVuSans-74"/>
      <use x="396.630859" xlink:href="#DejaVuSans-68"/>
      <use x="460.009766" xlink:href="#DejaVuSans-65"/>
      <use x="521.533203" xlink:href="#DejaVuSans-20"/>
      <use x="553.320312" xlink:href="#DejaVuSans-77"/>
      <use x="635.107422" xlink:href="#DejaVuSans-65"/>
      <use x="696.630859" xlink:href="#DejaVuSans-65"/>
      <use x="758.154297" xlink:href="#DejaVuSans-6b"/>
     </g>
    </g>
   </g>
   <g id="matplotlib.axis_2">
    <g id="ytick_1">
     <g id="line2d_17">
      <path clip-path="url(#pb9f1863b49)" d="M 47.961178 290.683147 
L 706.817786 290.683147 
" style="fill:none;stroke:#b0b0b0;stroke-linecap:square;stroke-width:0.8;"/>
     </g>
     <g id="line2d_18">
      <defs>
       <path d="M 0 0 
L -3.5 0 
" id="mcb8466c3b4" style="stroke:#000000;stroke-width:0.8;"/>
      </defs>
      <g>
       <use style="stroke:#000000;stroke-width:0.8;" x="47.961178" xlink:href="#mcb8466c3b4" y="290.683147"/>
      </g>
     </g>
     <g id="text_10">
      <!-- −7.5 -->
      <g transform="translate(16.678365 294.482365)scale(0.1 -0.1)">
       <defs>
        <path d="M 678 2272 
L 4684 2272 
L 4684 1741 
L 678 1741 
L 678 2272 
z
" id="DejaVuSans-2212" transform="scale(0.015625)"/>
        <path d="M 525 4666 
L 3525 4666 
L 3525 4397 
L 1831 0 
L 1172 0 
L 2766 4134 
L 525 4134 
L 525 4666 
z
" id="DejaVuSans-37" transform="scale(0.015625)"/>
        <path d="M 691 4666 
L 3169 4666 
L 3169 4134 
L 1269 4134 
L 1269 2991 
Q 1406 3038 1543 3061 
Q 1681 3084 1819 3084 
Q 2600 3084 3056 2656 
Q 3513 2228 3513 1497 
Q 3513 744 3044 326 
Q 2575 -91 1722 -91 
Q 1428 -91 1123 -41 
Q 819 9 494 109 
L 494 744 
Q 775 591 1075 516 
Q 1375 441 1709 441 
Q 2250 441 2565 725 
Q 2881 1009 2881 1497 
Q 2881 1984 2565 2268 
Q 2250 2553 1709 2553 
Q 1456 2553 1204 2497 
Q 953 2441 691 2322 
L 691 4666 
z
" id="DejaVuSans-35" transform="scale(0.015625)"/>
       </defs>
       <use xlink:href="#DejaVuSans-2212"/>
       <use x="83.789062" xlink:href="#DejaVuSans-37"/>
       <use x="147.412109" xlink:href="#DejaVuSans-2e"/>
       <use x="179.199219" xlink:href="#DejaVuSans-35"/>
      </g>
     </g>
    </g>
    <g id="ytick_2">
     <g id="line2d_19">
      <path clip-path="url(#pb9f1863b49)" d="M 47.961178 250.727187 
L 706.817786 250.727187 
" style="fill:none;stroke:#b0b0b0;stroke-linecap:square;stroke-width:0.8;"/>
     </g>
     <g id="line2d_20">
      <g>
       <use style="stroke:#000000;stroke-width:0.8;" x="47.961178" xlink:href="#mcb8466c3b4" y="250.727187"/>
      </g>
     </g>
     <g id="text_11">
      <!-- −5.0 -->
      <g transform="translate(16.678365 254.526406)scale(0.1 -0.1)">
       <defs>
        <path d="M 2034 4250 
Q 1547 4250 1301 3770 
Q 1056 3291 1056 2328 
Q 1056 1369 1301 889 
Q 1547 409 2034 409 
Q 2525 409 2770 889 
Q 3016 1369 3016 2328 
Q 3016 3291 2770 3770 
Q 2525 4250 2034 4250 
z
M 2034 4750 
Q 2819 4750 3233 4129 
Q 3647 3509 3647 2328 
Q 3647 1150 3233 529 
Q 2819 -91 2034 -91 
Q 1250 -91 836 529 
Q 422 1150 422 2328 
Q 422 3509 836 4129 
Q 1250 4750 2034 4750 
z
" id="DejaVuSans-30" transform="scale(0.015625)"/>
       </defs>
       <use xlink:href="#DejaVuSans-2212"/>
       <use x="83.789062" xlink:href="#DejaVuSans-35"/>
       <use x="147.412109" xlink:href="#DejaVuSans-2e"/>
       <use x="179.199219" xlink:href="#DejaVuSans-30"/>
      </g>
     </g>
    </g>
    <g id="ytick_3">
     <g id="line2d_21">
      <path clip-path="url(#pb9f1863b49)" d="M 47.961178 210.771228 
L 706.817786 210.771228 
" style="fill:none;stroke:#b0b0b0;stroke-linecap:square;stroke-width:0.8;"/>
     </g>
     <g id="line2d_22">
      <g>
       <use style="stroke:#000000;stroke-width:0.8;" x="47.961178" xlink:href="#mcb8466c3b4" y="210.771228"/>
      </g>
     </g>
     <g id="text_12">
      <!-- −2.5 -->
      <g transform="translate(16.678365 214.570447)scale(0.1 -0.1)">
       <defs>
        <path d="M 1228 531 
L 3431 531 
L 3431 0 
L 469 0 
L 469 531 
Q 828 903 1448 1529 
Q 2069 2156 2228 2338 
Q 2531 2678 2651 2914 
Q 2772 3150 2772 3378 
Q 2772 3750 2511 3984 
Q 2250 4219 1831 4219 
Q 1534 4219 1204 4116 
Q 875 4013 500 3803 
L 500 4441 
Q 881 4594 1212 4672 
Q 1544 4750 1819 4750 
Q 2544 4750 2975 4387 
Q 3406 4025 3406 3419 
Q 3406 3131 3298 2873 
Q 3191 2616 2906 2266 
Q 2828 2175 2409 1742 
Q 1991 1309 1228 531 
z
" id="DejaVuSans-32" transform="scale(0.015625)"/>
       </defs>
       <use xlink:href="#DejaVuSans-2212"/>
       <use x="83.789062" xlink:href="#DejaVuSans-32"/>
       <use x="147.412109" xlink:href="#DejaVuSans-2e"/>
       <use x="179.199219" xlink:href="#DejaVuSans-35"/>
      </g>
     </g>
    </g>
    <g id="ytick_4">
     <g id="line2d_23">
      <path clip-path="url(#pb9f1863b49)" d="M 47.961178 170.815269 
L 706.817786 170.815269 
" style="fill:none;stroke:#b0b0b0;stroke-linecap:square;stroke-width:0.8;"/>
     </g>
     <g id="line2d_24">
      <g>
       <use style="stroke:#000000;stroke-width:0.8;" x="47.961178" xlink:href="#mcb8466c3b4" y="170.815269"/>
      </g>
     </g>
     <g id="text_13">
      <!-- 0.0 -->
      <g transform="translate(25.058053 174.614488)scale(0.1 -0.1)">
       <use xlink:href="#DejaVuSans-30"/>
       <use x="63.623047" xlink:href="#DejaVuSans-2e"/>
       <use x="95.410156" xlink:href="#DejaVuSans-30"/>
      </g>
     </g>
    </g>
    <g id="ytick_5">
     <g id="line2d_25">
      <path clip-path="url(#pb9f1863b49)" d="M 47.961178 130.85931 
L 706.817786 130.85931 
" style="fill:none;stroke:#b0b0b0;stroke-linecap:square;stroke-width:0.8;"/>
     </g>
     <g id="line2d_26">
      <g>
       <use style="stroke:#000000;stroke-width:0.8;" x="47.961178" xlink:href="#mcb8466c3b4" y="130.85931"/>
      </g>
     </g>
     <g id="text_14">
      <!-- 2.5 -->
      <g transform="translate(25.058053 134.658528)scale(0.1 -0.1)">
       <use xlink:href="#DejaVuSans-32"/>
       <use x="63.623047" xlink:href="#DejaVuSans-2e"/>
       <use x="95.410156" xlink:href="#DejaVuSans-35"/>
      </g>
     </g>
    </g>
    <g id="ytick_6">
     <g id="line2d_27">
      <path clip-path="url(#pb9f1863b49)" d="M 47.961178 90.90335 
L 706.817786 90.90335 
" style="fill:none;stroke:#b0b0b0;stroke-linecap:square;stroke-width:0.8;"/>
     </g>
     <g id="line2d_28">
      <g>
       <use style="stroke:#000000;stroke-width:0.8;" x="47.961178" xlink:href="#mcb8466c3b4" y="90.90335"/>
      </g>
     </g>
     <g id="text_15">
      <!-- 5.0 -->
      <g transform="translate(25.058053 94.702569)scale(0.1 -0.1)">
       <use xlink:href="#DejaVuSans-35"/>
       <use x="63.623047" xlink:href="#DejaVuSans-2e"/>
       <use x="95.410156" xlink:href="#DejaVuSans-30"/>
      </g>
     </g>
    </g>
    <g id="ytick_7">
     <g id="line2d_29">
      <path clip-path="url(#pb9f1863b49)" d="M 47.961178 50.947391 
L 706.817786 50.947391 
" style="fill:none;stroke:#b0b0b0;stroke-linecap:square;stroke-width:0.8;"/>
     </g>
     <g id="line2d_30">
      <g>
       <use style="stroke:#000000;stroke-width:0.8;" x="47.961178" xlink:href="#mcb8466c3b4" y="50.947391"/>
      </g>
     </g>
     <g id="text_16">
      <!-- 7.5 -->
      <g transform="translate(25.058053 54.74661)scale(0.1 -0.1)">
       <use xlink:href="#DejaVuSans-37"/>
       <use x="63.623047" xlink:href="#DejaVuSans-2e"/>
       <use x="95.410156" xlink:href="#DejaVuSans-35"/>
      </g>
     </g>
    </g>
    <g id="ytick_8">
     <g id="line2d_31">
      <path clip-path="url(#pb9f1863b49)" d="M 47.961178 10.991432 
L 706.817786 10.991432 
" style="fill:none;stroke:#b0b0b0;stroke-linecap:square;stroke-width:0.8;"/>
     </g>
     <g id="line2d_32">
      <g>
       <use style="stroke:#000000;stroke-width:0.8;" x="47.961178" xlink:href="#mcb8466c3b4" y="10.991432"/>
      </g>
     </g>
     <g id="text_17">
      <!-- 10.0 -->
      <g transform="translate(18.695553 14.790651)scale(0.1 -0.1)">
       <defs>
        <path d="M 794 531 
L 1825 531 
L 1825 4091 
L 703 3866 
L 703 4441 
L 1819 4666 
L 2450 4666 
L 2450 531 
L 3481 531 
L 3481 0 
L 794 0 
L 794 531 
z
" id="DejaVuSans-31" transform="scale(0.015625)"/>
       </defs>
       <use xlink:href="#DejaVuSans-31"/>
       <use x="63.623047" xlink:href="#DejaVuSans-30"/>
       <use x="127.246094" xlink:href="#DejaVuSans-2e"/>
       <use x="159.033203" xlink:href="#DejaVuSans-30"/>
      </g>
     </g>
    </g>
    <g id="text_18">
     <!-- Demand difference (MW) -->
     <g transform="translate(10.598677 227.5375)rotate(-90)scale(0.1 -0.1)">
      <defs>
       <path d="M 3328 2828 
Q 3544 3216 3844 3400 
Q 4144 3584 4550 3584 
Q 5097 3584 5394 3201 
Q 5691 2819 5691 2113 
L 5691 0 
L 5113 0 
L 5113 2094 
Q 5113 2597 4934 2840 
Q 4756 3084 4391 3084 
Q 3944 3084 3684 2787 
Q 3425 2491 3425 1978 
L 3425 0 
L 2847 0 
L 2847 2094 
Q 2847 2600 2669 2842 
Q 2491 3084 2119 3084 
Q 1678 3084 1418 2786 
Q 1159 2488 1159 1978 
L 1159 0 
L 581 0 
L 581 3500 
L 1159 3500 
L 1159 2956 
Q 1356 3278 1631 3431 
Q 1906 3584 2284 3584 
Q 2666 3584 2933 3390 
Q 3200 3197 3328 2828 
z
" id="DejaVuSans-6d" transform="scale(0.015625)"/>
       <path d="M 3122 3366 
L 3122 2828 
Q 2878 2963 2633 3030 
Q 2388 3097 2138 3097 
Q 1578 3097 1268 2742 
Q 959 2388 959 1747 
Q 959 1106 1268 751 
Q 1578 397 2138 397 
Q 2388 397 2633 464 
Q 2878 531 3122 666 
L 3122 134 
Q 2881 22 2623 -34 
Q 2366 -91 2075 -91 
Q 1284 -91 818 406 
Q 353 903 353 1747 
Q 353 2603 823 3093 
Q 1294 3584 2113 3584 
Q 2378 3584 2631 3529 
Q 2884 3475 3122 3366 
z
" id="DejaVuSans-63" transform="scale(0.015625)"/>
       <path d="M 1984 4856 
Q 1566 4138 1362 3434 
Q 1159 2731 1159 2009 
Q 1159 1288 1364 580 
Q 1569 -128 1984 -844 
L 1484 -844 
Q 1016 -109 783 600 
Q 550 1309 550 2009 
Q 550 2706 781 3412 
Q 1013 4119 1484 4856 
L 1984 4856 
z
" id="DejaVuSans-28" transform="scale(0.015625)"/>
       <path d="M 513 4856 
L 1013 4856 
Q 1481 4119 1714 3412 
Q 1947 2706 1947 2009 
Q 1947 1309 1714 600 
Q 1481 -109 1013 -844 
L 513 -844 
Q 928 -128 1133 580 
Q 1338 1288 1338 2009 
Q 1338 2731 1133 3434 
Q 928 4138 513 4856 
z
" id="DejaVuSans-29" transform="scale(0.015625)"/>
      </defs>
      <use xlink:href="#DejaVuSans-44"/>
      <use x="77.001953" xlink:href="#DejaVuSans-65"/>
      <use x="138.525391" xlink:href="#DejaVuSans-6d"/>
      <use x="235.9375" xlink:href="#DejaVuSans-61"/>
      <use x="297.216797" xlink:href="#DejaVuSans-6e"/>
      <use x="360.595703" xlink:href="#DejaVuSans-64"/>
      <use x="424.072266" xlink:href="#DejaVuSans-20"/>
      <use x="455.859375" xlink:href="#DejaVuSans-64"/>
      <use x="519.335938" xlink:href="#DejaVuSans-69"/>
      <use x="547.119141" xlink:href="#DejaVuSans-66"/>
      <use x="582.324219" xlink:href="#DejaVuSans-66"/>
      <use x="617.529297" xlink:href="#DejaVuSans-65"/>
      <use x="679.052734" xlink:href="#DejaVuSans-72"/>
      <use x="717.916016" xlink:href="#DejaVuSans-65"/>
      <use x="779.439453" xlink:href="#DejaVuSans-6e"/>
      <use x="842.818359" xlink:href="#DejaVuSans-63"/>
      <use x="897.798828" xlink:href="#DejaVuSans-65"/>
      <use x="959.322266" xlink:href="#DejaVuSans-20"/>
      <use x="991.109375" xlink:href="#DejaVuSans-28"/>
      <use x="1030.123047" xlink:href="#DejaVuSans-4d"/>
      <use x="1116.402344" xlink:href="#DejaVuSans-57"/>
      <use x="1215.279297" xlink:href="#DejaVuSans-29"/>
     </g>
    </g>
   </g>
   <g id="line2d_33">
    <path clip-path="url(#pb9f1863b49)" d="M 49.910457 222.014039 
L 51.859737 248.822411 
L 55.758297 277.843021 
L 57.707577 287.49876 
L 59.656857 293.216083 
L 61.606137 287.124798 
L 63.555417 283.566083 
L 65.504697 280.728543 
L 67.453977 274.251231 
L 69.403256 268.169022 
L 71.352536 255.488617 
L 73.301816 249.039091 
L 75.251096 237.97071 
L 77.200376 240.499112 
L 79.149656 227.159384 
L 81.098936 215.806617 
L 84.997496 160.002373 
L 86.946776 146.096406 
L 88.896056 137.407466 
L 90.845335 135.328078 
L 92.794615 135.432988 
L 94.743895 131.697375 
L 96.693175 135.419088 
L 98.642455 145.591149 
L 100.591735 160.181787 
L 102.541015 163.698175 
L 104.490295 173.090532 
L 106.439575 172.446345 
L 108.388855 165.79724 
L 110.338135 147.48486 
L 112.287414 110.249001 
L 114.236694 83.935018 
L 118.135254 66.210353 
L 120.084534 46.848942 
L 122.033814 55.771435 
L 123.983094 65.967167 
L 125.932374 85.552543 
L 127.881654 106.656327 
L 129.830934 122.582132 
L 131.780214 142.603735 
L 133.729493 160.315093 
L 135.678773 163.725702 
L 137.628053 172.686817 
L 139.577333 187.57981 
L 141.526613 209.315374 
L 143.475893 226.719363 
L 145.425173 252.430891 
L 147.374453 270.127038 
L 149.323733 268.831927 
L 151.273013 264.363692 
L 153.222293 266.830227 
L 155.171572 265.183757 
L 157.120852 266.078004 
L 159.070132 271.415352 
L 161.019412 262.893678 
L 162.968692 248.305632 
L 164.917972 218.811255 
L 166.867252 179.759725 
L 168.816532 155.393364 
L 170.765812 149.342782 
L 172.715092 135.25987 
L 178.562931 111.878537 
L 180.512211 111.375338 
L 182.461491 111.741131 
L 184.410771 116.837259 
L 188.309331 135.873345 
L 190.258611 137.989268 
L 192.207891 149.537529 
L 194.157171 160.196953 
L 196.106451 161.95219 
L 198.05573 166.673365 
L 200.00501 161.203183 
L 201.95429 160.485209 
L 203.90357 147.276654 
L 205.85285 120.256373 
L 207.80213 89.80515 
L 209.75141 79.377663 
L 211.70069 47.923807 
L 213.64997 13.42951 
L 215.59925 15.772265 
L 217.54853 28.234541 
L 219.497809 47.228895 
L 221.447089 72.44364 
L 223.396369 88.491732 
L 227.294929 147.044534 
L 229.244209 173.989291 
L 231.193489 192.415423 
L 233.142769 199.501073 
L 235.092049 222.787387 
L 237.041329 238.840387 
L 238.990609 268.593542 
L 240.939888 281.918241 
L 242.889168 288.340788 
L 244.838448 291.140833 
L 246.787728 294.197965 
L 248.737008 290.038715 
L 250.686288 290.483248 
L 252.635568 297.602552 
L 254.584848 285.604196 
L 256.534128 271.290978 
L 258.483408 246.846105 
L 260.432687 215.125316 
L 262.381967 177.899761 
L 264.331247 167.629495 
L 266.280527 155.438754 
L 268.229807 152.189513 
L 270.179087 136.750094 
L 272.128367 130.823262 
L 274.077647 129.615213 
L 276.026927 128.139788 
L 277.976207 127.964246 
L 279.925487 130.016336 
L 281.874766 129.214364 
L 283.824046 137.129955 
L 285.773326 147.722162 
L 287.722606 161.853147 
L 289.671886 168.621855 
L 291.621166 167.740548 
L 293.570446 180.883822 
L 295.519726 182.129519 
L 299.418286 145.398689 
L 303.316845 106.089706 
L 307.215405 44.88864 
L 309.164685 53.126386 
L 311.113965 62.453538 
L 313.063245 88.881866 
L 315.012525 108.810858 
L 316.961805 126.533313 
L 320.860365 181.82442 
L 322.809645 212.430654 
L 326.708204 235.90228 
L 328.657484 259.481576 
L 330.606764 252.53225 
L 332.556044 275.637078 
L 334.505324 284.844657 
L 336.454604 291.414915 
L 338.403884 296.834387 
L 340.353164 305.064177 
L 342.302444 307.484604 
L 344.251724 314.763919 
L 346.201003 315.007532 
L 348.150283 304.520053 
L 350.099563 285.961102 
L 352.048843 255.883811 
L 353.998123 222.958372 
L 355.947403 185.24646 
L 357.896683 191.608085 
L 359.845963 172.927382 
L 361.795243 167.07932 
L 363.744523 145.582903 
L 365.693803 140.883966 
L 367.643082 140.454858 
L 369.592362 133.558056 
L 371.541642 135.82643 
L 373.490922 125.10933 
L 375.440202 119.435927 
L 377.389482 130.507067 
L 379.338762 135.118561 
L 381.288042 156.512568 
L 383.237322 157.039361 
L 385.186602 157.705192 
L 387.135882 157.752077 
L 389.085161 149.295638 
L 391.034441 134.84134 
L 392.983721 102.639377 
L 394.933001 77.539296 
L 396.882281 61.150683 
L 398.831561 29.478105 
L 400.780841 29.551205 
L 402.730121 48.750045 
L 404.679401 65.91853 
L 406.628681 86.525241 
L 408.577961 104.397662 
L 410.52724 123.487217 
L 412.47652 150.187813 
L 414.4258 182.394349 
L 416.37508 208.307163 
L 418.32436 221.397989 
L 420.27364 246.376423 
L 422.22292 267.383054 
L 424.1722 257.85553 
L 426.12148 284.489946 
L 428.07076 300.830775 
L 430.02004 297.314967 
L 431.969319 299.949544 
L 433.918599 311.139664 
L 435.867879 310.485508 
L 437.817159 314.686688 
L 439.766439 316.636839 
L 441.715719 310.113405 
L 443.664999 299.918161 
L 445.614279 274.647889 
L 447.563559 233.963941 
L 449.512839 204.509469 
L 451.462118 194.968243 
L 453.411398 186.026225 
L 455.360678 177.648679 
L 457.309958 173.414318 
L 459.259238 166.866313 
L 461.208518 155.894779 
L 463.157798 155.236569 
L 465.107078 151.053238 
L 467.056358 149.579459 
L 469.005638 150.303804 
L 470.954918 159.268228 
L 472.904197 164.519001 
L 474.853477 174.465375 
L 476.802757 197.710292 
L 480.701317 176.199075 
L 482.650597 172.676392 
L 484.599877 167.653532 
L 488.498437 119.540426 
L 490.447717 98.955785 
L 492.396997 61.597243 
L 494.346276 46.086843 
L 496.295556 57.868626 
L 498.244836 67.77473 
L 502.143396 100.616338 
L 504.092676 112.599224 
L 506.041956 139.439086 
L 507.991236 170.13729 
L 509.940516 191.651647 
L 511.889796 198.16243 
L 513.839076 215.848091 
L 515.788355 236.914516 
L 517.737635 249.343443 
L 519.686915 275.63054 
L 521.636195 295.320537 
L 523.585475 295.860347 
L 525.534755 298.028612 
L 527.484035 296.399609 
L 531.382595 300.502859 
L 533.331875 306.511845 
L 535.281155 299.44915 
L 537.230434 285.522164 
L 539.179714 256.484879 
L 541.128994 223.841401 
L 543.078274 189.249464 
L 545.027554 177.347543 
L 546.976834 156.324588 
L 548.926114 147.396243 
L 550.875394 139.427304 
L 552.824674 139.083994 
L 554.773954 134.845471 
L 556.723234 129.960337 
L 558.672513 128.09298 
L 560.621793 130.962163 
L 562.571073 131.530978 
L 564.520353 136.859258 
L 566.469633 142.948097 
L 568.418913 157.59545 
L 570.368193 159.701862 
L 572.317473 165.311234 
L 574.266753 167.421457 
L 576.216033 166.830464 
L 578.165313 150.143474 
L 580.114592 131.293813 
L 582.063872 106.282334 
L 584.013152 95.212291 
L 585.962432 71.29569 
L 587.911712 59.847646 
L 589.860992 74.293942 
L 591.810272 93.255281 
L 593.759552 106.992184 
L 595.708832 122.037673 
L 597.658112 142.68877 
L 599.607392 168.380239 
L 601.556671 190.638497 
L 603.505951 202.341997 
L 605.455231 210.060037 
L 607.404511 233.304405 
L 609.353791 248.250532 
L 611.303071 252.514234 
L 613.252351 278.402173 
L 615.201631 296.722907 
L 617.150911 312.071666 
L 619.100191 321.632188 
L 621.049471 329.011292 
L 622.99875 321.798752 
L 624.94803 314.123588 
L 626.89731 313.16226 
L 628.84659 313.613286 
L 630.79587 304.188814 
L 632.74515 287.884001 
L 634.69443 273.860137 
L 636.64371 254.593958 
L 638.59299 249.737053 
L 642.491549 212.770063 
L 644.440829 197.133382 
L 646.390109 183.587553 
L 648.339389 176.74742 
L 650.288669 163.969741 
L 652.237949 156.073431 
L 654.187229 164.228184 
L 656.136509 175.661795 
L 658.085789 187.766845 
L 660.035069 193.012406 
L 661.984349 195.819645 
L 663.933628 208.888614 
L 665.882908 211.610818 
L 667.832188 209.904218 
L 669.781468 208.601851 
L 671.730748 192.527741 
L 673.680028 170.380933 
L 677.578588 115.775334 
L 679.527868 82.360307 
L 681.477148 53.778088 
L 683.426428 66.785205 
L 685.375707 86.791854 
L 687.324987 102.701122 
L 689.274267 115.817753 
L 691.223547 127.442406 
L 693.172827 143.312563 
L 695.122107 157.141483 
L 697.071387 160.490772 
L 699.020667 163.032237 
L 700.969947 182.685013 
L 702.919227 196.413625 
L 702.919227 196.413625 
" style="fill:none;stroke:#d62728;stroke-dasharray:7.4,3.2;stroke-dashoffset:0;stroke-width:2;"/>
   </g>
   <g id="line2d_34">
    <path clip-path="url(#pb9f1863b49)" d="M 49.910457 228.522643 
L 51.859737 248.719741 
L 53.809017 260.878535 
L 55.758297 267.254594 
L 57.707577 272.268728 
L 59.656857 276.190904 
L 61.606137 275.093176 
L 63.555417 275.23392 
L 65.504697 276.711379 
L 67.453977 277.634366 
L 69.403256 278.276335 
L 71.352536 269.465064 
L 75.251096 241.495907 
L 77.200376 234.802784 
L 79.149656 221.101349 
L 81.098936 202.822287 
L 83.048216 174.753646 
L 84.997496 152.707695 
L 86.946776 140.871086 
L 88.896056 136.482567 
L 90.845335 136.579186 
L 92.794615 139.365544 
L 94.743895 143.937637 
L 96.693175 150.808055 
L 98.642455 158.267683 
L 100.591735 164.775448 
L 102.541015 168.684927 
L 104.490295 169.843836 
L 106.439575 165.509807 
L 108.388855 154.396675 
L 110.338135 134.744325 
L 114.236694 81.770015 
L 116.185974 64.937616 
L 120.084534 23.206606 
L 122.033814 18.430102 
L 123.983094 29.595986 
L 127.881654 64.143082 
L 129.830934 85.177392 
L 133.729493 132.903657 
L 135.678773 151.705839 
L 137.628053 169.241335 
L 139.577333 193.033196 
L 141.526613 219.898207 
L 143.475893 242.20908 
L 145.425173 259.615248 
L 147.374453 267.317361 
L 151.273013 271.778706 
L 153.222293 274.752189 
L 155.171572 275.162138 
L 157.120852 278.095116 
L 159.070132 279.430939 
L 161.019412 270.375315 
L 162.968692 250.814997 
L 164.917972 213.98113 
L 166.867252 172.27946 
L 168.816532 138.006217 
L 170.765812 129.590795 
L 172.715092 134.026488 
L 174.664372 144.424558 
L 176.613651 141.269329 
L 178.562931 133.762345 
L 180.512211 129.320082 
L 182.461491 125.584941 
L 184.410771 124.457309 
L 188.309331 125.675265 
L 190.258611 130.722863 
L 192.207891 138.070035 
L 194.157171 143.220182 
L 198.05573 144.781236 
L 200.00501 139.650675 
L 201.95429 128.507821 
L 203.90357 107.761996 
L 205.85285 77.248571 
L 207.80213 51.868586 
L 211.70069 27.232411 
L 213.64997 12.36129 
L 215.59925 14.355644 
L 217.54853 28.549654 
L 221.447089 66.177705 
L 223.396369 88.486642 
L 227.294929 146.475139 
L 233.142769 211.839768 
L 235.092049 237.246776 
L 237.041329 249.393102 
L 238.990609 268.89419 
L 240.939888 278.832538 
L 242.889168 280.197398 
L 244.838448 279.95348 
L 246.787728 282.890985 
L 248.737008 282.551789 
L 250.686288 286.109742 
L 252.635568 290.800098 
L 254.584848 285.143019 
L 256.534128 269.208891 
L 258.483408 237.120252 
L 260.432687 193.82142 
L 262.381967 155.322946 
L 264.331247 141.581104 
L 266.280527 139.231018 
L 268.229807 145.1541 
L 270.179087 143.783525 
L 272.128367 140.470512 
L 274.077647 141.011389 
L 276.026927 141.36229 
L 277.976207 143.987296 
L 279.925487 147.592041 
L 283.824046 155.180021 
L 285.773326 161.316019 
L 287.722606 166.403323 
L 289.671886 167.177448 
L 291.621166 166.271419 
L 293.570446 160.546543 
L 295.519726 150.430054 
L 297.469006 132.211762 
L 299.418286 104.1462 
L 301.367566 78.08121 
L 303.316845 62.524871 
L 307.215405 23.917522 
L 309.164685 24.992814 
L 311.113965 40.950536 
L 315.012525 82.719012 
L 316.961805 100.826099 
L 320.860365 150.674017 
L 322.809645 171.10194 
L 326.708204 201.362851 
L 328.657484 222.55452 
L 330.606764 256.557446 
L 332.556044 277.037482 
L 334.505324 288.076462 
L 336.454604 290.849406 
L 338.403884 292.654286 
L 340.353164 295.276686 
L 342.302444 293.613168 
L 344.251724 295.131826 
L 346.201003 297.853481 
L 348.150283 290.976174 
L 350.099563 277.269579 
L 352.048843 251.588146 
L 353.998123 216.4127 
L 355.947403 183.498509 
L 357.896683 172.931589 
L 359.845963 170.493389 
L 361.795243 173.458717 
L 365.693803 162.229274 
L 367.643082 162.665621 
L 369.592362 163.363186 
L 371.541642 166.123907 
L 373.490922 168.391884 
L 375.440202 171.75352 
L 377.389482 179.004759 
L 379.338762 187.949688 
L 381.288042 195.883661 
L 383.237322 201.390165 
L 385.186602 201.747224 
L 387.135882 199.378649 
L 389.085161 190.349722 
L 391.034441 171.195602 
L 392.983721 143.111902 
L 394.933001 116.6981 
L 396.882281 97.275904 
L 400.780841 48.213466 
L 402.730121 47.550775 
L 404.679401 59.824783 
L 408.577961 92.07485 
L 410.52724 110.172395 
L 414.4258 156.213352 
L 416.37508 175.176215 
L 418.32436 189.259584 
L 420.27364 205.566821 
L 422.22292 224.444191 
L 424.1722 261.072924 
L 426.12148 279.999877 
L 428.07076 289.282728 
L 430.02004 290.607684 
L 431.969319 290.930135 
L 433.918599 293.492321 
L 435.867879 294.655186 
L 437.817159 298.651567 
L 439.766439 302.281721 
L 441.715719 296.834409 
L 443.664999 283.520761 
L 445.614279 256.699182 
L 447.563559 223.016429 
L 449.512839 192.039647 
L 451.462118 185.357224 
L 453.411398 179.932859 
L 455.360678 179.580891 
L 457.309958 169.868223 
L 459.259238 162.962596 
L 461.208518 161.449204 
L 463.157798 158.367777 
L 465.107078 158.063745 
L 467.056358 157.267595 
L 469.005638 158.993354 
L 472.904197 172.815658 
L 474.853477 182.137719 
L 476.802757 184.266202 
L 478.752037 181.33692 
L 480.701317 176.268212 
L 482.650597 164.960028 
L 484.599877 145.498371 
L 486.549157 115.913716 
L 488.498437 89.274256 
L 490.447717 72.093791 
L 492.396997 49.808815 
L 494.346276 37.435947 
L 496.295556 46.253773 
L 498.244836 62.391564 
L 500.194116 80.913629 
L 502.143396 97.327727 
L 504.092676 115.166554 
L 506.041956 137.265624 
L 507.991236 161.865737 
L 509.940516 180.791166 
L 511.889796 195.982246 
L 515.788355 236.863013 
L 517.737635 250.025035 
L 519.686915 272.674257 
L 521.636195 285.501846 
L 523.585475 289.000965 
L 525.534755 291.085032 
L 527.484035 292.732981 
L 529.433315 289.62597 
L 531.382595 288.516003 
L 533.331875 288.260547 
L 535.281155 283.327774 
L 537.230434 273.005351 
L 539.179714 249.157857 
L 541.128994 216.175733 
L 543.078274 185.427322 
L 545.027554 173.243927 
L 546.976834 163.172235 
L 548.926114 159.418864 
L 550.875394 153.379927 
L 552.824674 146.5442 
L 554.773954 141.480187 
L 556.723234 137.831956 
L 558.672513 135.182639 
L 560.621793 133.486678 
L 562.571073 135.099448 
L 564.520353 145.115264 
L 566.469633 154.483935 
L 568.418913 166.900288 
L 570.368193 176.445751 
L 572.317473 176.721311 
L 574.266753 174.932725 
L 576.216033 171.006693 
L 578.165313 162.003753 
L 580.114592 142.403866 
L 582.063872 120.780148 
L 584.013152 101.416451 
L 585.962432 75.083751 
L 587.911712 60.429402 
L 589.860992 67.962267 
L 591.810272 81.597872 
L 593.759552 99.769067 
L 597.658112 132.81539 
L 601.556671 170.521236 
L 603.505951 181.062412 
L 605.455231 186.78238 
L 607.404511 202.066635 
L 611.303071 242.899481 
L 613.252351 269.922163 
L 615.201631 287.979888 
L 617.150911 296.764395 
L 619.100191 301.883173 
L 621.049471 302.663228 
L 622.99875 297.684935 
L 624.94803 293.087227 
L 626.89731 291.1255 
L 628.84659 288.153769 
L 630.79587 284.156001 
L 632.74515 274.254455 
L 636.64371 253.385908 
L 638.59299 250.873953 
L 640.54227 235.900482 
L 642.491549 218.321088 
L 644.440829 197.258702 
L 646.390109 180.446087 
L 648.339389 166.79335 
L 650.288669 158.223816 
L 652.237949 153.620217 
L 654.187229 152.866349 
L 656.136509 153.637608 
L 658.085789 159.149066 
L 660.035069 167.499831 
L 661.984349 179.245582 
L 663.933628 186.589523 
L 665.882908 191.156496 
L 667.832188 193.072917 
L 669.781468 190.462619 
L 671.730748 176.419169 
L 675.629308 126.860117 
L 677.578588 108.086711 
L 679.527868 86.642422 
L 681.477148 76.410719 
L 683.426428 86.858858 
L 685.375707 101.590057 
L 687.324987 115.113238 
L 689.274267 126.810794 
L 691.223547 140.806018 
L 693.172827 157.572297 
L 695.122107 172.130835 
L 697.071387 178.232798 
L 699.020667 180.292174 
L 700.969947 191.676949 
L 702.919227 206.936374 
L 702.919227 206.936374 
" style="fill:none;stroke:#1f77b4;stroke-linecap:square;stroke-width:1.5;"/>
   </g>
   <g id="patch_3">
    <path d="M 47.961178 326.64351 
L 47.961178 3.00024 
" style="fill:none;stroke:#000000;stroke-linecap:square;stroke-linejoin:miter;stroke-width:0.8;"/>
   </g>
   <g id="patch_4">
    <path d="M 706.817786 326.64351 
L 706.817786 3.00024 
" style="fill:none;stroke:#000000;stroke-linecap:square;stroke-linejoin:miter;stroke-width:0.8;"/>
   </g>
   <g id="patch_5">
    <path d="M 47.961178 326.64351 
L 706.817786 326.64351 
" style="fill:none;stroke:#000000;stroke-linecap:square;stroke-linejoin:miter;stroke-width:0.8;"/>
   </g>
   <g id="patch_6">
    <path d="M 47.961178 3.00024 
L 706.817786 3.00024 
" style="fill:none;stroke:#000000;stroke-linecap:square;stroke-linejoin:miter;stroke-width:0.8;"/>
   </g>
   <g id="legend_1">
    <g id="patch_7">
     <path d="M 194.562138 25.678365 
L 560.216826 25.678365 
L 560.216826 8.00024 
L 194.562138 8.00024 
z
" style="fill:#ffffff;opacity:0.95;stroke:#000000;stroke-linejoin:miter;"/>
    </g>
    <g id="line2d_35">
     <path d="M 198.562138 16.098678 
L 218.562138 16.098678 
" style="fill:none;stroke:#d62728;stroke-dasharray:7.4,3.2;stroke-dashoffset:0;stroke-width:2;"/>
    </g>
    <g id="line2d_36"/>
    <g id="text_19">
     <!-- Actual demand difference -->
     <g transform="translate(226.562138 19.598678)scale(0.1 -0.1)">
      <defs>
       <path d="M 2188 4044 
L 1331 1722 
L 3047 1722 
L 2188 4044 
z
M 1831 4666 
L 2547 4666 
L 4325 0 
L 3669 0 
L 3244 1197 
L 1141 1197 
L 716 0 
L 50 0 
L 1831 4666 
z
" id="DejaVuSans-41" transform="scale(0.015625)"/>
       <path d="M 603 4863 
L 1178 4863 
L 1178 0 
L 603 0 
L 603 4863 
z
" id="DejaVuSans-6c" transform="scale(0.015625)"/>
      </defs>
      <use xlink:href="#DejaVuSans-41"/>
      <use x="66.658203" xlink:href="#DejaVuSans-63"/>
      <use x="121.638672" xlink:href="#DejaVuSans-74"/>
      <use x="160.847656" xlink:href="#DejaVuSans-75"/>
      <use x="224.226562" xlink:href="#DejaVuSans-61"/>
      <use x="285.505859" xlink:href="#DejaVuSans-6c"/>
      <use x="313.289062" xlink:href="#DejaVuSans-20"/>
      <use x="345.076172" xlink:href="#DejaVuSans-64"/>
      <use x="408.552734" xlink:href="#DejaVuSans-65"/>
      <use x="470.076172" xlink:href="#DejaVuSans-6d"/>
      <use x="567.488281" xlink:href="#DejaVuSans-61"/>
      <use x="628.767578" xlink:href="#DejaVuSans-6e"/>
      <use x="692.146484" xlink:href="#DejaVuSans-64"/>
      <use x="755.623047" xlink:href="#DejaVuSans-20"/>
      <use x="787.410156" xlink:href="#DejaVuSans-64"/>
      <use x="850.886719" xlink:href="#DejaVuSans-69"/>
      <use x="878.669922" xlink:href="#DejaVuSans-66"/>
      <use x="913.875" xlink:href="#DejaVuSans-66"/>
      <use x="949.080078" xlink:href="#DejaVuSans-65"/>
      <use x="1010.603516" xlink:href="#DejaVuSans-72"/>
      <use x="1049.466797" xlink:href="#DejaVuSans-65"/>
      <use x="1110.990234" xlink:href="#DejaVuSans-6e"/>
      <use x="1174.369141" xlink:href="#DejaVuSans-63"/>
      <use x="1229.349609" xlink:href="#DejaVuSans-65"/>
     </g>
    </g>
    <g id="line2d_37">
     <path d="M 375.651201 16.098678 
L 395.651201 16.098678 
" style="fill:none;stroke:#1f77b4;stroke-linecap:square;stroke-width:1.5;"/>
    </g>
    <g id="line2d_38"/>
    <g id="text_20">
     <!-- Forecasted demand difference -->
     <g transform="translate(403.651201 19.598678)scale(0.1 -0.1)">
      <defs>
       <path d="M 2834 3397 
L 2834 2853 
Q 2591 2978 2328 3040 
Q 2066 3103 1784 3103 
Q 1356 3103 1142 2972 
Q 928 2841 928 2578 
Q 928 2378 1081 2264 
Q 1234 2150 1697 2047 
L 1894 2003 
Q 2506 1872 2764 1633 
Q 3022 1394 3022 966 
Q 3022 478 2636 193 
Q 2250 -91 1575 -91 
Q 1294 -91 989 -36 
Q 684 19 347 128 
L 347 722 
Q 666 556 975 473 
Q 1284 391 1588 391 
Q 1994 391 2212 530 
Q 2431 669 2431 922 
Q 2431 1156 2273 1281 
Q 2116 1406 1581 1522 
L 1381 1569 
Q 847 1681 609 1914 
Q 372 2147 372 2553 
Q 372 3047 722 3315 
Q 1072 3584 1716 3584 
Q 2034 3584 2315 3537 
Q 2597 3491 2834 3397 
z
" id="DejaVuSans-73" transform="scale(0.015625)"/>
      </defs>
      <use xlink:href="#DejaVuSans-46"/>
      <use x="53.894531" xlink:href="#DejaVuSans-6f"/>
      <use x="115.076172" xlink:href="#DejaVuSans-72"/>
      <use x="153.939453" xlink:href="#DejaVuSans-65"/>
      <use x="215.462891" xlink:href="#DejaVuSans-63"/>
      <use x="270.443359" xlink:href="#DejaVuSans-61"/>
      <use x="331.722656" xlink:href="#DejaVuSans-73"/>
      <use x="383.822266" xlink:href="#DejaVuSans-74"/>
      <use x="423.03125" xlink:href="#DejaVuSans-65"/>
      <use x="484.554688" xlink:href="#DejaVuSans-64"/>
      <use x="548.03125" xlink:href="#DejaVuSans-20"/>
      <use x="579.818359" xlink:href="#DejaVuSans-64"/>
      <use x="643.294922" xlink:href="#DejaVuSans-65"/>
      <use x="704.818359" xlink:href="#DejaVuSans-6d"/>
      <use x="802.230469" xlink:href="#DejaVuSans-61"/>
      <use x="863.509766" xlink:href="#DejaVuSans-6e"/>
      <use x="926.888672" xlink:href="#DejaVuSans-64"/>
      <use x="990.365234" xlink:href="#DejaVuSans-20"/>
      <use x="1022.152344" xlink:href="#DejaVuSans-64"/>
      <use x="1085.628906" xlink:href="#DejaVuSans-69"/>
      <use x="1113.412109" xlink:href="#DejaVuSans-66"/>
      <use x="1148.617188" xlink:href="#DejaVuSans-66"/>
      <use x="1183.822266" xlink:href="#DejaVuSans-65"/>
      <use x="1245.345703" xlink:href="#DejaVuSans-72"/>
      <use x="1284.208984" xlink:href="#DejaVuSans-65"/>
      <use x="1345.732422" xlink:href="#DejaVuSans-6e"/>
      <use x="1409.111328" xlink:href="#DejaVuSans-63"/>
      <use x="1464.091797" xlink:href="#DejaVuSans-65"/>
     </g>
    </g>
   </g>
  </g>
 </g>
 <defs>
  <clipPath id="pb9f1863b49">
   <rect height="323.64327" width="658.856609" x="47.961178" y="3.00024"/>
  </clipPath>
 </defs>
</svg>
