<?xml version="1.0" encoding="utf-8" standalone="no"?>
<!DOCTYPE svg PUBLIC "-//W3C//DTD SVG 1.1//EN"
  "http://www.w3.org/Graphics/SVG/1.1/DTD/svg11.dtd">
<svg height="360pt" version="1.1" viewBox="0 0 720 360" width="720pt" xmlns="http://www.w3.org/2000/svg" xmlns:xlink="http://www.w3.org/1999/xlink">
 <metadata>
  <rdf:RDF xmlns:cc="http://creativecommons.org/ns#" xmlns:dc="http://purl.org/dc/elements/1.1/" xmlns:rdf="http://www.w3.org/1999/02/22-rdf-syntax-ns#">
   <cc:Work>
    <dc:type rdf:resource="http://purl.org/dc/dcmitype/StillImage"/>
    <dc:date>2022-04-11T21:00:24.069842</dc:date>
    <dc:format>image/svg+xml</dc:format>
    <dc:creator>
     <cc:Agent>
      <dc:title>Matplotlib v3.4.3, https://matplotlib.org/</dc:title>
     </cc:Agent>
    </dc:creator>
   </cc:Work>
  </rdf:RDF>
 </metadata>
 <defs>
  <style type="text/css">*{stroke-linecap:butt;stroke-linejoin:round;}</style>
 </defs>
 <g id="figure_1">
  <g id="patch_1">
   <path d="M 0 360 
L 720 360 
L 720 0 
L 0 0 
z
" style="fill:#ffffff;"/>
  </g>
  <g id="axes_1">
   <g id="patch_2">
    <path d="M 36.403365 326.64351 
L 706.852082 326.64351 
L 706.852082 6.799459 
L 36.403365 6.799459 
z
" style="fill:#ffffff;"/>
   </g>
   <g id="matplotlib.axis_1">
    <g id="xtick_1">
     <g id="line2d_1">
      <path clip-path="url(#p9b001a2876)" d="M 38.386941 326.64351 
L 38.386941 6.799459 
" style="fill:none;stroke:#b0b0b0;stroke-linecap:square;stroke-width:0.8;"/>
     </g>
     <g id="line2d_2">
      <defs>
       <path d="M 0 0 
L 0 3.5 
" id="m83ff432cc6" style="stroke:#000000;stroke-width:0.8;"/>
      </defs>
      <g>
       <use style="stroke:#000000;stroke-width:0.8;" x="38.386941" xlink:href="#m83ff432cc6" y="326.64351"/>
      </g>
     </g>
     <g id="text_1">
      <!-- Mon. -->
      <g transform="translate(26.255691 341.241947)scale(0.1 -0.1)">
       <defs>
        <path d="M 628 4666 
L 1569 4666 
L 2759 1491 
L 3956 4666 
L 4897 4666 
L 4897 0 
L 4281 0 
L 4281 4097 
L 3078 897 
L 2444 897 
L 1241 4097 
L 1241 0 
L 628 0 
L 628 4666 
z
" id="DejaVuSans-4d" transform="scale(0.015625)"/>
        <path d="M 1959 3097 
Q 1497 3097 1228 2736 
Q 959 2375 959 1747 
Q 959 1119 1226 758 
Q 1494 397 1959 397 
Q 2419 397 2687 759 
Q 2956 1122 2956 1747 
Q 2956 2369 2687 2733 
Q 2419 3097 1959 3097 
z
M 1959 3584 
Q 2709 3584 3137 3096 
Q 3566 2609 3566 1747 
Q 3566 888 3137 398 
Q 2709 -91 1959 -91 
Q 1206 -91 779 398 
Q 353 888 353 1747 
Q 353 2609 779 3096 
Q 1206 3584 1959 3584 
z
" id="DejaVuSans-6f" transform="scale(0.015625)"/>
        <path d="M 3513 2113 
L 3513 0 
L 2938 0 
L 2938 2094 
Q 2938 2591 2744 2837 
Q 2550 3084 2163 3084 
Q 1697 3084 1428 2787 
Q 1159 2491 1159 1978 
L 1159 0 
L 581 0 
L 581 3500 
L 1159 3500 
L 1159 2956 
Q 1366 3272 1645 3428 
Q 1925 3584 2291 3584 
Q 2894 3584 3203 3211 
Q 3513 2838 3513 2113 
z
" id="DejaVuSans-6e" transform="scale(0.015625)"/>
        <path d="M 684 794 
L 1344 794 
L 1344 0 
L 684 0 
L 684 794 
z
" id="DejaVuSans-2e" transform="scale(0.015625)"/>
       </defs>
       <use xlink:href="#DejaVuSans-4d"/>
       <use x="86.279297" xlink:href="#DejaVuSans-6f"/>
       <use x="147.460938" xlink:href="#DejaVuSans-6e"/>
       <use x="210.839844" xlink:href="#DejaVuSans-2e"/>
      </g>
     </g>
    </g>
    <g id="xtick_2">
     <g id="line2d_3">
      <path clip-path="url(#p9b001a2876)" d="M 133.598593 326.64351 
L 133.598593 6.799459 
" style="fill:none;stroke:#b0b0b0;stroke-linecap:square;stroke-width:0.8;"/>
     </g>
     <g id="line2d_4">
      <g>
       <use style="stroke:#000000;stroke-width:0.8;" x="133.598593" xlink:href="#m83ff432cc6" y="326.64351"/>
      </g>
     </g>
     <g id="text_2">
      <!-- Tue. -->
      <g transform="translate(123.466562 341.241947)scale(0.1 -0.1)">
       <defs>
        <path d="M -19 4666 
L 3928 4666 
L 3928 4134 
L 2272 4134 
L 2272 0 
L 1638 0 
L 1638 4134 
L -19 4134 
L -19 4666 
z
" id="DejaVuSans-54" transform="scale(0.015625)"/>
        <path d="M 544 1381 
L 544 3500 
L 1119 3500 
L 1119 1403 
Q 1119 906 1312 657 
Q 1506 409 1894 409 
Q 2359 409 2629 706 
Q 2900 1003 2900 1516 
L 2900 3500 
L 3475 3500 
L 3475 0 
L 2900 0 
L 2900 538 
Q 2691 219 2414 64 
Q 2138 -91 1772 -91 
Q 1169 -91 856 284 
Q 544 659 544 1381 
z
M 1991 3584 
L 1991 3584 
z
" id="DejaVuSans-75" transform="scale(0.015625)"/>
        <path d="M 3597 1894 
L 3597 1613 
L 953 1613 
Q 991 1019 1311 708 
Q 1631 397 2203 397 
Q 2534 397 2845 478 
Q 3156 559 3463 722 
L 3463 178 
Q 3153 47 2828 -22 
Q 2503 -91 2169 -91 
Q 1331 -91 842 396 
Q 353 884 353 1716 
Q 353 2575 817 3079 
Q 1281 3584 2069 3584 
Q 2775 3584 3186 3129 
Q 3597 2675 3597 1894 
z
M 3022 2063 
Q 3016 2534 2758 2815 
Q 2500 3097 2075 3097 
Q 1594 3097 1305 2825 
Q 1016 2553 972 2059 
L 3022 2063 
z
" id="DejaVuSans-65" transform="scale(0.015625)"/>
       </defs>
       <use xlink:href="#DejaVuSans-54"/>
       <use x="45.958984" xlink:href="#DejaVuSans-75"/>
       <use x="109.337891" xlink:href="#DejaVuSans-65"/>
       <use x="170.861328" xlink:href="#DejaVuSans-2e"/>
      </g>
     </g>
    </g>
    <g id="xtick_3">
     <g id="line2d_5">
      <path clip-path="url(#p9b001a2876)" d="M 228.810245 326.64351 
L 228.810245 6.799459 
" style="fill:none;stroke:#b0b0b0;stroke-linecap:square;stroke-width:0.8;"/>
     </g>
     <g id="line2d_6">
      <g>
       <use style="stroke:#000000;stroke-width:0.8;" x="228.810245" xlink:href="#m83ff432cc6" y="326.64351"/>
      </g>
     </g>
     <g id="text_3">
      <!-- Wed. -->
      <g transform="translate(216.320402 341.241947)scale(0.1 -0.1)">
       <defs>
        <path d="M 213 4666 
L 850 4666 
L 1831 722 
L 2809 4666 
L 3519 4666 
L 4500 722 
L 5478 4666 
L 6119 4666 
L 4947 0 
L 4153 0 
L 3169 4050 
L 2175 0 
L 1381 0 
L 213 4666 
z
" id="DejaVuSans-57" transform="scale(0.015625)"/>
        <path d="M 2906 2969 
L 2906 4863 
L 3481 4863 
L 3481 0 
L 2906 0 
L 2906 525 
Q 2725 213 2448 61 
Q 2172 -91 1784 -91 
Q 1150 -91 751 415 
Q 353 922 353 1747 
Q 353 2572 751 3078 
Q 1150 3584 1784 3584 
Q 2172 3584 2448 3432 
Q 2725 3281 2906 2969 
z
M 947 1747 
Q 947 1113 1208 752 
Q 1469 391 1925 391 
Q 2381 391 2643 752 
Q 2906 1113 2906 1747 
Q 2906 2381 2643 2742 
Q 2381 3103 1925 3103 
Q 1469 3103 1208 2742 
Q 947 2381 947 1747 
z
" id="DejaVuSans-64" transform="scale(0.015625)"/>
       </defs>
       <use xlink:href="#DejaVuSans-57"/>
       <use x="93.001953" xlink:href="#DejaVuSans-65"/>
       <use x="154.525391" xlink:href="#DejaVuSans-64"/>
       <use x="218.001953" xlink:href="#DejaVuSans-2e"/>
      </g>
     </g>
    </g>
    <g id="xtick_4">
     <g id="line2d_7">
      <path clip-path="url(#p9b001a2876)" d="M 324.021898 326.64351 
L 324.021898 6.799459 
" style="fill:none;stroke:#b0b0b0;stroke-linecap:square;stroke-width:0.8;"/>
     </g>
     <g id="line2d_8">
      <g>
       <use style="stroke:#000000;stroke-width:0.8;" x="324.021898" xlink:href="#m83ff432cc6" y="326.64351"/>
      </g>
     </g>
     <g id="text_4">
      <!-- Thur. -->
      <g transform="translate(311.44221 341.241947)scale(0.1 -0.1)">
       <defs>
        <path d="M 3513 2113 
L 3513 0 
L 2938 0 
L 2938 2094 
Q 2938 2591 2744 2837 
Q 2550 3084 2163 3084 
Q 1697 3084 1428 2787 
Q 1159 2491 1159 1978 
L 1159 0 
L 581 0 
L 581 4863 
L 1159 4863 
L 1159 2956 
Q 1366 3272 1645 3428 
Q 1925 3584 2291 3584 
Q 2894 3584 3203 3211 
Q 3513 2838 3513 2113 
z
" id="DejaVuSans-68" transform="scale(0.015625)"/>
        <path d="M 2631 2963 
Q 2534 3019 2420 3045 
Q 2306 3072 2169 3072 
Q 1681 3072 1420 2755 
Q 1159 2438 1159 1844 
L 1159 0 
L 581 0 
L 581 3500 
L 1159 3500 
L 1159 2956 
Q 1341 3275 1631 3429 
Q 1922 3584 2338 3584 
Q 2397 3584 2469 3576 
Q 2541 3569 2628 3553 
L 2631 2963 
z
" id="DejaVuSans-72" transform="scale(0.015625)"/>
       </defs>
       <use xlink:href="#DejaVuSans-54"/>
       <use x="61.083984" xlink:href="#DejaVuSans-68"/>
       <use x="124.462891" xlink:href="#DejaVuSans-75"/>
       <use x="187.841797" xlink:href="#DejaVuSans-72"/>
       <use x="219.830078" xlink:href="#DejaVuSans-2e"/>
      </g>
     </g>
    </g>
    <g id="xtick_5">
     <g id="line2d_9">
      <path clip-path="url(#p9b001a2876)" d="M 419.23355 326.64351 
L 419.23355 6.799459 
" style="fill:none;stroke:#b0b0b0;stroke-linecap:square;stroke-width:0.8;"/>
     </g>
     <g id="line2d_10">
      <g>
       <use style="stroke:#000000;stroke-width:0.8;" x="419.23355" xlink:href="#m83ff432cc6" y="326.64351"/>
      </g>
     </g>
     <g id="text_5">
      <!-- Fri. -->
      <g transform="translate(411.686675 341.241947)scale(0.1 -0.1)">
       <defs>
        <path d="M 628 4666 
L 3309 4666 
L 3309 4134 
L 1259 4134 
L 1259 2759 
L 3109 2759 
L 3109 2228 
L 1259 2228 
L 1259 0 
L 628 0 
L 628 4666 
z
" id="DejaVuSans-46" transform="scale(0.015625)"/>
        <path d="M 603 3500 
L 1178 3500 
L 1178 0 
L 603 0 
L 603 3500 
z
M 603 4863 
L 1178 4863 
L 1178 4134 
L 603 4134 
L 603 4863 
z
" id="DejaVuSans-69" transform="scale(0.015625)"/>
       </defs>
       <use xlink:href="#DejaVuSans-46"/>
       <use x="50.269531" xlink:href="#DejaVuSans-72"/>
       <use x="91.382812" xlink:href="#DejaVuSans-69"/>
       <use x="119.166016" xlink:href="#DejaVuSans-2e"/>
      </g>
     </g>
    </g>
    <g id="xtick_6">
     <g id="line2d_11">
      <path clip-path="url(#p9b001a2876)" d="M 514.445202 326.64351 
L 514.445202 6.799459 
" style="fill:none;stroke:#b0b0b0;stroke-linecap:square;stroke-width:0.8;"/>
     </g>
     <g id="line2d_12">
      <g>
       <use style="stroke:#000000;stroke-width:0.8;" x="514.445202" xlink:href="#m83ff432cc6" y="326.64351"/>
      </g>
     </g>
     <g id="text_6">
      <!-- Sat. -->
      <g transform="translate(504.657702 341.241947)scale(0.1 -0.1)">
       <defs>
        <path d="M 3425 4513 
L 3425 3897 
Q 3066 4069 2747 4153 
Q 2428 4238 2131 4238 
Q 1616 4238 1336 4038 
Q 1056 3838 1056 3469 
Q 1056 3159 1242 3001 
Q 1428 2844 1947 2747 
L 2328 2669 
Q 3034 2534 3370 2195 
Q 3706 1856 3706 1288 
Q 3706 609 3251 259 
Q 2797 -91 1919 -91 
Q 1588 -91 1214 -16 
Q 841 59 441 206 
L 441 856 
Q 825 641 1194 531 
Q 1563 422 1919 422 
Q 2459 422 2753 634 
Q 3047 847 3047 1241 
Q 3047 1584 2836 1778 
Q 2625 1972 2144 2069 
L 1759 2144 
Q 1053 2284 737 2584 
Q 422 2884 422 3419 
Q 422 4038 858 4394 
Q 1294 4750 2059 4750 
Q 2388 4750 2728 4690 
Q 3069 4631 3425 4513 
z
" id="DejaVuSans-53" transform="scale(0.015625)"/>
        <path d="M 2194 1759 
Q 1497 1759 1228 1600 
Q 959 1441 959 1056 
Q 959 750 1161 570 
Q 1363 391 1709 391 
Q 2188 391 2477 730 
Q 2766 1069 2766 1631 
L 2766 1759 
L 2194 1759 
z
M 3341 1997 
L 3341 0 
L 2766 0 
L 2766 531 
Q 2569 213 2275 61 
Q 1981 -91 1556 -91 
Q 1019 -91 701 211 
Q 384 513 384 1019 
Q 384 1609 779 1909 
Q 1175 2209 1959 2209 
L 2766 2209 
L 2766 2266 
Q 2766 2663 2505 2880 
Q 2244 3097 1772 3097 
Q 1472 3097 1187 3025 
Q 903 2953 641 2809 
L 641 3341 
Q 956 3463 1253 3523 
Q 1550 3584 1831 3584 
Q 2591 3584 2966 3190 
Q 3341 2797 3341 1997 
z
" id="DejaVuSans-61" transform="scale(0.015625)"/>
        <path d="M 1172 4494 
L 1172 3500 
L 2356 3500 
L 2356 3053 
L 1172 3053 
L 1172 1153 
Q 1172 725 1289 603 
Q 1406 481 1766 481 
L 2356 481 
L 2356 0 
L 1766 0 
Q 1100 0 847 248 
Q 594 497 594 1153 
L 594 3053 
L 172 3053 
L 172 3500 
L 594 3500 
L 594 4494 
L 1172 4494 
z
" id="DejaVuSans-74" transform="scale(0.015625)"/>
       </defs>
       <use xlink:href="#DejaVuSans-53"/>
       <use x="63.476562" xlink:href="#DejaVuSans-61"/>
       <use x="124.755859" xlink:href="#DejaVuSans-74"/>
       <use x="163.964844" xlink:href="#DejaVuSans-2e"/>
      </g>
     </g>
    </g>
    <g id="xtick_7">
     <g id="line2d_13">
      <path clip-path="url(#p9b001a2876)" d="M 609.656854 326.64351 
L 609.656854 6.799459 
" style="fill:none;stroke:#b0b0b0;stroke-linecap:square;stroke-width:0.8;"/>
     </g>
     <g id="line2d_14">
      <g>
       <use style="stroke:#000000;stroke-width:0.8;" x="609.656854" xlink:href="#m83ff432cc6" y="326.64351"/>
      </g>
     </g>
     <g id="text_7">
      <!-- Sun. -->
      <g transform="translate(598.556073 341.241947)scale(0.1 -0.1)">
       <use xlink:href="#DejaVuSans-53"/>
       <use x="63.476562" xlink:href="#DejaVuSans-75"/>
       <use x="126.855469" xlink:href="#DejaVuSans-6e"/>
       <use x="190.234375" xlink:href="#DejaVuSans-2e"/>
      </g>
     </g>
    </g>
    <g id="xtick_8">
     <g id="line2d_15">
      <path clip-path="url(#p9b001a2876)" d="M 704.868506 326.64351 
L 704.868506 6.799459 
" style="fill:none;stroke:#b0b0b0;stroke-linecap:square;stroke-width:0.8;"/>
     </g>
     <g id="line2d_16">
      <g>
       <use style="stroke:#000000;stroke-width:0.8;" x="704.868506" xlink:href="#m83ff432cc6" y="326.64351"/>
      </g>
     </g>
     <g id="text_8">
      <!-- Mon. -->
      <g transform="translate(692.737256 341.241947)scale(0.1 -0.1)">
       <use xlink:href="#DejaVuSans-4d"/>
       <use x="86.279297" xlink:href="#DejaVuSans-6f"/>
       <use x="147.460938" xlink:href="#DejaVuSans-6e"/>
       <use x="210.839844" xlink:href="#DejaVuSans-2e"/>
      </g>
     </g>
    </g>
    <g id="text_9">
     <!-- Day of the week -->
     <g transform="translate(330.824599 354.920073)scale(0.1 -0.1)">
      <defs>
       <path d="M 1259 4147 
L 1259 519 
L 2022 519 
Q 2988 519 3436 956 
Q 3884 1394 3884 2338 
Q 3884 3275 3436 3711 
Q 2988 4147 2022 4147 
L 1259 4147 
z
M 628 4666 
L 1925 4666 
Q 3281 4666 3915 4102 
Q 4550 3538 4550 2338 
Q 4550 1131 3912 565 
Q 3275 0 1925 0 
L 628 0 
L 628 4666 
z
" id="DejaVuSans-44" transform="scale(0.015625)"/>
       <path d="M 2059 -325 
Q 1816 -950 1584 -1140 
Q 1353 -1331 966 -1331 
L 506 -1331 
L 506 -850 
L 844 -850 
Q 1081 -850 1212 -737 
Q 1344 -625 1503 -206 
L 1606 56 
L 191 3500 
L 800 3500 
L 1894 763 
L 2988 3500 
L 3597 3500 
L 2059 -325 
z
" id="DejaVuSans-79" transform="scale(0.015625)"/>
       <path id="DejaVuSans-20" transform="scale(0.015625)"/>
       <path d="M 2375 4863 
L 2375 4384 
L 1825 4384 
Q 1516 4384 1395 4259 
Q 1275 4134 1275 3809 
L 1275 3500 
L 2222 3500 
L 2222 3053 
L 1275 3053 
L 1275 0 
L 697 0 
L 697 3053 
L 147 3053 
L 147 3500 
L 697 3500 
L 697 3744 
Q 697 4328 969 4595 
Q 1241 4863 1831 4863 
L 2375 4863 
z
" id="DejaVuSans-66" transform="scale(0.015625)"/>
       <path d="M 269 3500 
L 844 3500 
L 1563 769 
L 2278 3500 
L 2956 3500 
L 3675 769 
L 4391 3500 
L 4966 3500 
L 4050 0 
L 3372 0 
L 2619 2869 
L 1863 0 
L 1184 0 
L 269 3500 
z
" id="DejaVuSans-77" transform="scale(0.015625)"/>
       <path d="M 581 4863 
L 1159 4863 
L 1159 1991 
L 2875 3500 
L 3609 3500 
L 1753 1863 
L 3688 0 
L 2938 0 
L 1159 1709 
L 1159 0 
L 581 0 
L 581 4863 
z
" id="DejaVuSans-6b" transform="scale(0.015625)"/>
      </defs>
      <use xlink:href="#DejaVuSans-44"/>
      <use x="77.001953" xlink:href="#DejaVuSans-61"/>
      <use x="138.28125" xlink:href="#DejaVuSans-79"/>
      <use x="197.460938" xlink:href="#DejaVuSans-20"/>
      <use x="229.248047" xlink:href="#DejaVuSans-6f"/>
      <use x="290.429688" xlink:href="#DejaVuSans-66"/>
      <use x="325.634766" xlink:href="#DejaVuSans-20"/>
      <use x="357.421875" xlink:href="#DejaVuSans-74"/>
      <use x="396.630859" xlink:href="#DejaVuSans-68"/>
      <use x="460.009766" xlink:href="#DejaVuSans-65"/>
      <use x="521.533203" xlink:href="#DejaVuSans-20"/>
      <use x="553.320312" xlink:href="#DejaVuSans-77"/>
      <use x="635.107422" xlink:href="#DejaVuSans-65"/>
      <use x="696.630859" xlink:href="#DejaVuSans-65"/>
      <use x="758.154297" xlink:href="#DejaVuSans-6b"/>
     </g>
    </g>
   </g>
   <g id="matplotlib.axis_2">
    <g id="ytick_1">
     <g id="line2d_17">
      <path clip-path="url(#p9b001a2876)" d="M 36.403365 326.64351 
L 706.852082 326.64351 
" style="fill:none;stroke:#b0b0b0;stroke-linecap:square;stroke-width:0.8;"/>
     </g>
     <g id="line2d_18">
      <defs>
       <path d="M 0 0 
L -3.5 0 
" id="mb310139ceb" style="stroke:#000000;stroke-width:0.8;"/>
      </defs>
      <g>
       <use style="stroke:#000000;stroke-width:0.8;" x="36.403365" xlink:href="#mb310139ceb" y="326.64351"/>
      </g>
     </g>
     <g id="text_10">
      <!-- 29 -->
      <g transform="translate(16.678365 330.442729)scale(0.1 -0.1)">
       <defs>
        <path d="M 1228 531 
L 3431 531 
L 3431 0 
L 469 0 
L 469 531 
Q 828 903 1448 1529 
Q 2069 2156 2228 2338 
Q 2531 2678 2651 2914 
Q 2772 3150 2772 3378 
Q 2772 3750 2511 3984 
Q 2250 4219 1831 4219 
Q 1534 4219 1204 4116 
Q 875 4013 500 3803 
L 500 4441 
Q 881 4594 1212 4672 
Q 1544 4750 1819 4750 
Q 2544 4750 2975 4387 
Q 3406 4025 3406 3419 
Q 3406 3131 3298 2873 
Q 3191 2616 2906 2266 
Q 2828 2175 2409 1742 
Q 1991 1309 1228 531 
z
" id="DejaVuSans-32" transform="scale(0.015625)"/>
        <path d="M 703 97 
L 703 672 
Q 941 559 1184 500 
Q 1428 441 1663 441 
Q 2288 441 2617 861 
Q 2947 1281 2994 2138 
Q 2813 1869 2534 1725 
Q 2256 1581 1919 1581 
Q 1219 1581 811 2004 
Q 403 2428 403 3163 
Q 403 3881 828 4315 
Q 1253 4750 1959 4750 
Q 2769 4750 3195 4129 
Q 3622 3509 3622 2328 
Q 3622 1225 3098 567 
Q 2575 -91 1691 -91 
Q 1453 -91 1209 -44 
Q 966 3 703 97 
z
M 1959 2075 
Q 2384 2075 2632 2365 
Q 2881 2656 2881 3163 
Q 2881 3666 2632 3958 
Q 2384 4250 1959 4250 
Q 1534 4250 1286 3958 
Q 1038 3666 1038 3163 
Q 1038 2656 1286 2365 
Q 1534 2075 1959 2075 
z
" id="DejaVuSans-39" transform="scale(0.015625)"/>
       </defs>
       <use xlink:href="#DejaVuSans-32"/>
       <use x="63.623047" xlink:href="#DejaVuSans-39"/>
      </g>
     </g>
    </g>
    <g id="ytick_2">
     <g id="line2d_19">
      <path clip-path="url(#p9b001a2876)" d="M 36.403365 273.336168 
L 706.852082 273.336168 
" style="fill:none;stroke:#b0b0b0;stroke-linecap:square;stroke-width:0.8;"/>
     </g>
     <g id="line2d_20">
      <g>
       <use style="stroke:#000000;stroke-width:0.8;" x="36.403365" xlink:href="#mb310139ceb" y="273.336168"/>
      </g>
     </g>
     <g id="text_11">
      <!-- 30 -->
      <g transform="translate(16.678365 277.135387)scale(0.1 -0.1)">
       <defs>
        <path d="M 2597 2516 
Q 3050 2419 3304 2112 
Q 3559 1806 3559 1356 
Q 3559 666 3084 287 
Q 2609 -91 1734 -91 
Q 1441 -91 1130 -33 
Q 819 25 488 141 
L 488 750 
Q 750 597 1062 519 
Q 1375 441 1716 441 
Q 2309 441 2620 675 
Q 2931 909 2931 1356 
Q 2931 1769 2642 2001 
Q 2353 2234 1838 2234 
L 1294 2234 
L 1294 2753 
L 1863 2753 
Q 2328 2753 2575 2939 
Q 2822 3125 2822 3475 
Q 2822 3834 2567 4026 
Q 2313 4219 1838 4219 
Q 1578 4219 1281 4162 
Q 984 4106 628 3988 
L 628 4550 
Q 988 4650 1302 4700 
Q 1616 4750 1894 4750 
Q 2613 4750 3031 4423 
Q 3450 4097 3450 3541 
Q 3450 3153 3228 2886 
Q 3006 2619 2597 2516 
z
" id="DejaVuSans-33" transform="scale(0.015625)"/>
        <path d="M 2034 4250 
Q 1547 4250 1301 3770 
Q 1056 3291 1056 2328 
Q 1056 1369 1301 889 
Q 1547 409 2034 409 
Q 2525 409 2770 889 
Q 3016 1369 3016 2328 
Q 3016 3291 2770 3770 
Q 2525 4250 2034 4250 
z
M 2034 4750 
Q 2819 4750 3233 4129 
Q 3647 3509 3647 2328 
Q 3647 1150 3233 529 
Q 2819 -91 2034 -91 
Q 1250 -91 836 529 
Q 422 1150 422 2328 
Q 422 3509 836 4129 
Q 1250 4750 2034 4750 
z
" id="DejaVuSans-30" transform="scale(0.015625)"/>
       </defs>
       <use xlink:href="#DejaVuSans-33"/>
       <use x="63.623047" xlink:href="#DejaVuSans-30"/>
      </g>
     </g>
    </g>
    <g id="ytick_3">
     <g id="line2d_21">
      <path clip-path="url(#p9b001a2876)" d="M 36.403365 220.028826 
L 706.852082 220.028826 
" style="fill:none;stroke:#b0b0b0;stroke-linecap:square;stroke-width:0.8;"/>
     </g>
     <g id="line2d_22">
      <g>
       <use style="stroke:#000000;stroke-width:0.8;" x="36.403365" xlink:href="#mb310139ceb" y="220.028826"/>
      </g>
     </g>
     <g id="text_12">
      <!-- 31 -->
      <g transform="translate(16.678365 223.828045)scale(0.1 -0.1)">
       <defs>
        <path d="M 794 531 
L 1825 531 
L 1825 4091 
L 703 3866 
L 703 4441 
L 1819 4666 
L 2450 4666 
L 2450 531 
L 3481 531 
L 3481 0 
L 794 0 
L 794 531 
z
" id="DejaVuSans-31" transform="scale(0.015625)"/>
       </defs>
       <use xlink:href="#DejaVuSans-33"/>
       <use x="63.623047" xlink:href="#DejaVuSans-31"/>
      </g>
     </g>
    </g>
    <g id="ytick_4">
     <g id="line2d_23">
      <path clip-path="url(#p9b001a2876)" d="M 36.403365 166.721484 
L 706.852082 166.721484 
" style="fill:none;stroke:#b0b0b0;stroke-linecap:square;stroke-width:0.8;"/>
     </g>
     <g id="line2d_24">
      <g>
       <use style="stroke:#000000;stroke-width:0.8;" x="36.403365" xlink:href="#mb310139ceb" y="166.721484"/>
      </g>
     </g>
     <g id="text_13">
      <!-- 32 -->
      <g transform="translate(16.678365 170.520703)scale(0.1 -0.1)">
       <use xlink:href="#DejaVuSans-33"/>
       <use x="63.623047" xlink:href="#DejaVuSans-32"/>
      </g>
     </g>
    </g>
    <g id="ytick_5">
     <g id="line2d_25">
      <path clip-path="url(#p9b001a2876)" d="M 36.403365 113.414143 
L 706.852082 113.414143 
" style="fill:none;stroke:#b0b0b0;stroke-linecap:square;stroke-width:0.8;"/>
     </g>
     <g id="line2d_26">
      <g>
       <use style="stroke:#000000;stroke-width:0.8;" x="36.403365" xlink:href="#mb310139ceb" y="113.414143"/>
      </g>
     </g>
     <g id="text_14">
      <!-- 33 -->
      <g transform="translate(16.678365 117.213361)scale(0.1 -0.1)">
       <use xlink:href="#DejaVuSans-33"/>
       <use x="63.623047" xlink:href="#DejaVuSans-33"/>
      </g>
     </g>
    </g>
    <g id="ytick_6">
     <g id="line2d_27">
      <path clip-path="url(#p9b001a2876)" d="M 36.403365 60.106801 
L 706.852082 60.106801 
" style="fill:none;stroke:#b0b0b0;stroke-linecap:square;stroke-width:0.8;"/>
     </g>
     <g id="line2d_28">
      <g>
       <use style="stroke:#000000;stroke-width:0.8;" x="36.403365" xlink:href="#mb310139ceb" y="60.106801"/>
      </g>
     </g>
     <g id="text_15">
      <!-- 34 -->
      <g transform="translate(16.678365 63.906019)scale(0.1 -0.1)">
       <defs>
        <path d="M 2419 4116 
L 825 1625 
L 2419 1625 
L 2419 4116 
z
M 2253 4666 
L 3047 4666 
L 3047 1625 
L 3713 1625 
L 3713 1100 
L 3047 1100 
L 3047 0 
L 2419 0 
L 2419 1100 
L 313 1100 
L 313 1709 
L 2253 4666 
z
" id="DejaVuSans-34" transform="scale(0.015625)"/>
       </defs>
       <use xlink:href="#DejaVuSans-33"/>
       <use x="63.623047" xlink:href="#DejaVuSans-34"/>
      </g>
     </g>
    </g>
    <g id="ytick_7">
     <g id="line2d_29">
      <path clip-path="url(#p9b001a2876)" d="M 36.403365 6.799459 
L 706.852082 6.799459 
" style="fill:none;stroke:#b0b0b0;stroke-linecap:square;stroke-width:0.8;"/>
     </g>
     <g id="line2d_30">
      <g>
       <use style="stroke:#000000;stroke-width:0.8;" x="36.403365" xlink:href="#mb310139ceb" y="6.799459"/>
      </g>
     </g>
     <g id="text_16">
      <!-- 35 -->
      <g transform="translate(16.678365 10.598678)scale(0.1 -0.1)">
       <defs>
        <path d="M 691 4666 
L 3169 4666 
L 3169 4134 
L 1269 4134 
L 1269 2991 
Q 1406 3038 1543 3061 
Q 1681 3084 1819 3084 
Q 2600 3084 3056 2656 
Q 3513 2228 3513 1497 
Q 3513 744 3044 326 
Q 2575 -91 1722 -91 
Q 1428 -91 1123 -41 
Q 819 9 494 109 
L 494 744 
Q 775 591 1075 516 
Q 1375 441 1709 441 
Q 2250 441 2565 725 
Q 2881 1009 2881 1497 
Q 2881 1984 2565 2268 
Q 2250 2553 1709 2553 
Q 1456 2553 1204 2497 
Q 953 2441 691 2322 
L 691 4666 
z
" id="DejaVuSans-35" transform="scale(0.015625)"/>
       </defs>
       <use xlink:href="#DejaVuSans-33"/>
       <use x="63.623047" xlink:href="#DejaVuSans-35"/>
      </g>
     </g>
    </g>
    <g id="text_17">
     <!-- Rolling average demand (MW) -->
     <g transform="translate(10.598678 242.465234)rotate(-90)scale(0.1 -0.1)">
      <defs>
       <path d="M 2841 2188 
Q 3044 2119 3236 1894 
Q 3428 1669 3622 1275 
L 4263 0 
L 3584 0 
L 2988 1197 
Q 2756 1666 2539 1819 
Q 2322 1972 1947 1972 
L 1259 1972 
L 1259 0 
L 628 0 
L 628 4666 
L 2053 4666 
Q 2853 4666 3247 4331 
Q 3641 3997 3641 3322 
Q 3641 2881 3436 2590 
Q 3231 2300 2841 2188 
z
M 1259 4147 
L 1259 2491 
L 2053 2491 
Q 2509 2491 2742 2702 
Q 2975 2913 2975 3322 
Q 2975 3731 2742 3939 
Q 2509 4147 2053 4147 
L 1259 4147 
z
" id="DejaVuSans-52" transform="scale(0.015625)"/>
       <path d="M 603 4863 
L 1178 4863 
L 1178 0 
L 603 0 
L 603 4863 
z
" id="DejaVuSans-6c" transform="scale(0.015625)"/>
       <path d="M 2906 1791 
Q 2906 2416 2648 2759 
Q 2391 3103 1925 3103 
Q 1463 3103 1205 2759 
Q 947 2416 947 1791 
Q 947 1169 1205 825 
Q 1463 481 1925 481 
Q 2391 481 2648 825 
Q 2906 1169 2906 1791 
z
M 3481 434 
Q 3481 -459 3084 -895 
Q 2688 -1331 1869 -1331 
Q 1566 -1331 1297 -1286 
Q 1028 -1241 775 -1147 
L 775 -588 
Q 1028 -725 1275 -790 
Q 1522 -856 1778 -856 
Q 2344 -856 2625 -561 
Q 2906 -266 2906 331 
L 2906 616 
Q 2728 306 2450 153 
Q 2172 0 1784 0 
Q 1141 0 747 490 
Q 353 981 353 1791 
Q 353 2603 747 3093 
Q 1141 3584 1784 3584 
Q 2172 3584 2450 3431 
Q 2728 3278 2906 2969 
L 2906 3500 
L 3481 3500 
L 3481 434 
z
" id="DejaVuSans-67" transform="scale(0.015625)"/>
       <path d="M 191 3500 
L 800 3500 
L 1894 563 
L 2988 3500 
L 3597 3500 
L 2284 0 
L 1503 0 
L 191 3500 
z
" id="DejaVuSans-76" transform="scale(0.015625)"/>
       <path d="M 3328 2828 
Q 3544 3216 3844 3400 
Q 4144 3584 4550 3584 
Q 5097 3584 5394 3201 
Q 5691 2819 5691 2113 
L 5691 0 
L 5113 0 
L 5113 2094 
Q 5113 2597 4934 2840 
Q 4756 3084 4391 3084 
Q 3944 3084 3684 2787 
Q 3425 2491 3425 1978 
L 3425 0 
L 2847 0 
L 2847 2094 
Q 2847 2600 2669 2842 
Q 2491 3084 2119 3084 
Q 1678 3084 1418 2786 
Q 1159 2488 1159 1978 
L 1159 0 
L 581 0 
L 581 3500 
L 1159 3500 
L 1159 2956 
Q 1356 3278 1631 3431 
Q 1906 3584 2284 3584 
Q 2666 3584 2933 3390 
Q 3200 3197 3328 2828 
z
" id="DejaVuSans-6d" transform="scale(0.015625)"/>
       <path d="M 1984 4856 
Q 1566 4138 1362 3434 
Q 1159 2731 1159 2009 
Q 1159 1288 1364 580 
Q 1569 -128 1984 -844 
L 1484 -844 
Q 1016 -109 783 600 
Q 550 1309 550 2009 
Q 550 2706 781 3412 
Q 1013 4119 1484 4856 
L 1984 4856 
z
" id="DejaVuSans-28" transform="scale(0.015625)"/>
       <path d="M 513 4856 
L 1013 4856 
Q 1481 4119 1714 3412 
Q 1947 2706 1947 2009 
Q 1947 1309 1714 600 
Q 1481 -109 1013 -844 
L 513 -844 
Q 928 -128 1133 580 
Q 1338 1288 1338 2009 
Q 1338 2731 1133 3434 
Q 928 4138 513 4856 
z
" id="DejaVuSans-29" transform="scale(0.015625)"/>
      </defs>
      <use xlink:href="#DejaVuSans-52"/>
      <use x="64.982422" xlink:href="#DejaVuSans-6f"/>
      <use x="126.164062" xlink:href="#DejaVuSans-6c"/>
      <use x="153.947266" xlink:href="#DejaVuSans-6c"/>
      <use x="181.730469" xlink:href="#DejaVuSans-69"/>
      <use x="209.513672" xlink:href="#DejaVuSans-6e"/>
      <use x="272.892578" xlink:href="#DejaVuSans-67"/>
      <use x="336.369141" xlink:href="#DejaVuSans-20"/>
      <use x="368.15625" xlink:href="#DejaVuSans-61"/>
      <use x="429.435547" xlink:href="#DejaVuSans-76"/>
      <use x="488.615234" xlink:href="#DejaVuSans-65"/>
      <use x="550.138672" xlink:href="#DejaVuSans-72"/>
      <use x="591.251953" xlink:href="#DejaVuSans-61"/>
      <use x="652.53125" xlink:href="#DejaVuSans-67"/>
      <use x="716.007812" xlink:href="#DejaVuSans-65"/>
      <use x="777.53125" xlink:href="#DejaVuSans-20"/>
      <use x="809.318359" xlink:href="#DejaVuSans-64"/>
      <use x="872.794922" xlink:href="#DejaVuSans-65"/>
      <use x="934.318359" xlink:href="#DejaVuSans-6d"/>
      <use x="1031.730469" xlink:href="#DejaVuSans-61"/>
      <use x="1093.009766" xlink:href="#DejaVuSans-6e"/>
      <use x="1156.388672" xlink:href="#DejaVuSans-64"/>
      <use x="1219.865234" xlink:href="#DejaVuSans-20"/>
      <use x="1251.652344" xlink:href="#DejaVuSans-28"/>
      <use x="1290.666016" xlink:href="#DejaVuSans-4d"/>
      <use x="1376.945312" xlink:href="#DejaVuSans-57"/>
      <use x="1475.822266" xlink:href="#DejaVuSans-29"/>
     </g>
    </g>
   </g>
   <g id="line2d_31">
    <path clip-path="url(#p9b001a2876)" d="M 38.386941 281.041303 
L 42.354093 283.600056 
L 44.337669 283.808843 
L 46.321245 283.29798 
L 50.288398 281.121264 
L 52.271974 279.784138 
L 54.25555 279.12446 
L 58.222702 277.420847 
L 60.206278 277.143203 
L 62.189854 276.234758 
L 64.17343 274.475616 
L 66.157006 269.931165 
L 68.140582 261.861766 
L 70.124158 250.38736 
L 72.107735 237.258206 
L 74.091311 225.184094 
L 76.074887 216.01079 
L 78.058463 208.947566 
L 80.042039 203.368063 
L 82.025615 199.250071 
L 84.009191 196.449215 
L 85.992767 194.801127 
L 87.976343 193.734981 
L 89.959919 192.802104 
L 91.943495 192.269031 
L 95.910648 191.569369 
L 97.894224 190.509886 
L 99.8778 189.239395 
L 101.861376 187.540223 
L 103.844952 185.416812 
L 105.828528 182.744779 
L 109.79568 174.844186 
L 111.779256 171.123778 
L 113.762832 166.89917 
L 115.746408 162.210347 
L 119.713561 153.650076 
L 121.697137 149.87414 
L 125.664289 141.047333 
L 127.647865 138.38863 
L 129.631441 136.007569 
L 131.615017 134.228436 
L 135.582169 131.569733 
L 141.532898 127.987036 
L 143.516474 127.385108 
L 147.483626 125.215056 
L 149.467202 123.809075 
L 155.41793 120.208608 
L 159.385082 118.356179 
L 161.368658 117.894183 
L 163.352235 117.885298 
L 165.335811 118.420594 
L 167.319387 118.70712 
L 169.302963 118.39616 
L 175.253691 116.894673 
L 177.237267 116.543731 
L 179.220843 115.635284 
L 181.204419 114.59357 
L 183.187995 113.385269 
L 187.155148 110.157953 
L 189.138724 108.58983 
L 191.1223 106.588585 
L 193.105876 104.831663 
L 195.089452 103.494537 
L 199.056604 101.824242 
L 201.04018 101.493294 
L 203.023756 101.684313 
L 205.007332 101.508842 
L 206.990908 101.040181 
L 208.974485 100.707011 
L 210.958061 100.211696 
L 212.941637 99.856309 
L 214.925213 99.627533 
L 216.908789 99.027824 
L 218.892365 98.76351 
L 220.875941 98.277081 
L 222.859517 97.062115 
L 224.843093 96.142565 
L 226.826669 95.085303 
L 232.777398 93.168458 
L 234.760974 92.433261 
L 236.74455 91.549248 
L 238.728126 90.316515 
L 244.678854 88.810581 
L 246.66243 88.153123 
L 248.646006 87.788857 
L 252.613158 86.216291 
L 256.580311 84.088439 
L 258.563887 83.364348 
L 260.547463 82.056094 
L 262.531039 81.103226 
L 264.514615 81.416406 
L 268.481767 82.42036 
L 270.465343 83.146672 
L 272.448919 83.413211 
L 274.432495 83.988485 
L 276.416071 84.908038 
L 278.399648 86.020828 
L 280.383224 87.289098 
L 284.350376 90.651903 
L 286.333952 92.586515 
L 288.317528 94.361206 
L 290.301104 96.335798 
L 292.28468 98.123816 
L 296.251832 102.308444 
L 298.235408 104.107566 
L 300.218985 105.597949 
L 302.202561 106.011081 
L 304.186137 105.398046 
L 308.153289 104.878301 
L 310.136865 103.958749 
L 312.120441 102.626064 
L 314.104017 101.117911 
L 316.087593 99.254376 
L 318.071169 97.85728 
L 320.054745 96.915515 
L 322.038321 96.560133 
L 324.021898 96.013734 
L 326.005474 94.996451 
L 327.98905 94.64329 
L 333.939778 93.02852 
L 335.923354 91.93794 
L 337.90693 90.618585 
L 343.857658 87.759981 
L 349.808387 85.729858 
L 351.791963 85.347822 
L 353.775539 84.510453 
L 357.742691 83.186655 
L 361.709843 80.463539 
L 363.693419 79.13974 
L 367.660571 77.116284 
L 369.644148 76.494365 
L 371.627724 75.550381 
L 373.6113 73.962268 
L 375.594876 73.036053 
L 377.578452 71.838858 
L 379.562028 69.939783 
L 381.545604 67.716423 
L 383.52918 65.208756 
L 385.512756 62.061402 
L 387.496332 59.25166 
L 389.479908 56.926128 
L 391.463485 54.103058 
L 393.447061 51.744207 
L 395.430637 50.402641 
L 397.414213 49.767397 
L 401.381365 49.898444 
L 405.348517 48.745675 
L 407.332093 48.93225 
L 409.315669 49.709647 
L 411.299245 51.137839 
L 413.282821 51.595394 
L 415.266398 51.602058 
L 417.249974 51.004572 
L 419.23355 50.680284 
L 421.217126 50.555901 
L 423.200702 50.28048 
L 427.167854 50.300471 
L 429.15143 50.227174 
L 431.135006 50.378212 
L 433.118582 50.771352 
L 435.102158 50.877966 
L 447.003615 53.800984 
L 448.987191 54.738303 
L 450.970767 55.431297 
L 452.954343 55.917728 
L 456.921495 56.299762 
L 458.905071 56.817287 
L 460.888648 56.977208 
L 462.872224 57.385898 
L 464.8558 57.670202 
L 466.839376 58.352094 
L 470.806528 61.021905 
L 472.790104 62.394571 
L 476.757256 65.815126 
L 478.740832 68.358329 
L 484.691561 77.858138 
L 486.675137 81.600759 
L 488.658713 86.018605 
L 492.625865 92.626491 
L 494.609441 95.482877 
L 496.593017 98.074946 
L 498.576593 101.391107 
L 500.560169 105.651253 
L 502.543745 109.338346 
L 506.510898 116.279408 
L 510.47805 123.231574 
L 512.461626 126.285639 
L 514.445202 127.280712 
L 516.428778 128.007023 
L 520.39593 128.746662 
L 522.379506 129.470754 
L 524.363082 130.479151 
L 526.346658 131.925113 
L 528.330235 133.67315 
L 532.297387 137.535712 
L 534.280963 139.459219 
L 536.264539 141.960221 
L 538.248115 144.872135 
L 540.231691 148.465938 
L 542.215267 153.943268 
L 544.198843 162.101513 
L 546.182419 172.927347 
L 548.165995 184.672731 
L 550.149571 194.505717 
L 552.133148 200.611629 
L 554.116724 204.498622 
L 556.1003 206.666455 
L 558.083876 207.406095 
L 560.067452 207.27505 
L 562.051028 206.49765 
L 564.034604 205.375972 
L 566.01818 203.912243 
L 568.001756 202.215293 
L 569.985332 200.771553 
L 571.968908 199.134575 
L 575.936061 195.074334 
L 577.919637 193.530643 
L 579.903213 192.9798 
L 581.886789 193.779409 
L 583.870365 196.062742 
L 585.853941 199.885322 
L 587.837517 202.910517 
L 589.821093 206.217792 
L 591.804669 209.813817 
L 595.771821 215.919728 
L 599.738974 222.714191 
L 601.72255 225.748268 
L 603.706126 228.529135 
L 605.689702 230.565918 
L 607.673278 231.48547 
L 609.656854 232.578271 
L 613.624006 234.395162 
L 615.607582 236.189843 
L 623.541887 244.830072 
L 627.509039 248.639326 
L 629.492615 249.396735 
L 631.476191 249.398956 
L 633.459767 249.232371 
L 635.443343 249.232371 
L 637.426919 249.110208 
L 639.410495 249.216822 
L 641.394071 249.825413 
L 643.377648 251.811112 
L 645.361224 254.565324 
L 647.3448 257.923687 
L 653.295528 268.9894 
L 657.26268 275.017568 
L 661.229832 280.348302 
L 663.213408 282.489479 
L 665.196984 284.313035 
L 667.180561 287.280476 
L 669.164137 290.832076 
L 671.147713 293.981652 
L 673.131289 296.718096 
L 675.114865 298.124078 
L 677.098441 298.375066 
L 679.082017 296.826929 
L 681.065593 294.516946 
L 683.049169 293.468568 
L 687.016321 291.103056 
L 688.999898 290.0569 
L 690.983474 288.879697 
L 692.96705 287.54257 
L 694.950626 286.400905 
L 698.917778 283.917672 
L 700.901354 283.520088 
L 702.88493 283.962095 
L 702.88493 283.962095 
" style="fill:none;stroke:#d62728;stroke-dasharray:7.4,3.2;stroke-dashoffset:0;stroke-width:2;"/>
   </g>
   <g id="line2d_32">
    <path clip-path="url(#p9b001a2876)" d="M 38.386941 263.114406 
L 40.370517 255.900822 
L 42.354093 254.721485 
L 44.337669 254.905518 
L 46.321245 254.90806 
L 48.304822 254.386261 
L 50.288398 253.420443 
L 52.271974 252.164647 
L 54.25555 250.714955 
L 56.239126 249.086009 
L 58.222702 247.222395 
L 60.206278 245.029454 
L 62.189854 242.412627 
L 64.17343 239.291895 
L 66.157006 235.621606 
L 68.140582 231.39871 
L 70.124158 226.667333 
L 72.107735 221.511156 
L 76.074887 210.39292 
L 82.025615 193.468392 
L 85.992767 183.021215 
L 89.959919 173.608792 
L 93.927072 165.226852 
L 97.894224 157.648353 
L 105.828528 143.057485 
L 107.812104 139.116942 
L 109.79568 134.923837 
L 111.779256 130.431805 
L 113.762832 125.619902 
L 117.729985 115.085081 
L 123.680713 98.273616 
L 125.664289 93.304319 
L 127.647865 89.359302 
L 129.631441 87.26885 
L 131.615017 96.750921 
L 133.598593 127.824841 
L 135.582169 113.634575 
L 137.565745 105.341296 
L 139.549322 99.33572 
L 141.532898 95.059851 
L 143.516474 92.222083 
L 145.50005 90.382566 
L 147.483626 89.096979 
L 151.450778 87.104949 
L 159.385082 83.46923 
L 163.352235 81.912982 
L 167.319387 80.639392 
L 173.270115 79.109173 
L 179.220843 77.863239 
L 183.187995 77.34449 
L 187.155148 77.212108 
L 191.1223 77.425627 
L 197.073028 77.915297 
L 199.056604 77.956781 
L 201.04018 77.843921 
L 203.023756 77.507374 
L 205.007332 76.873325 
L 206.990908 75.873242 
L 208.974485 74.45263 
L 210.958061 72.579764 
L 212.941637 70.263388 
L 214.925213 67.560442 
L 218.892365 61.628072 
L 220.875941 59.013584 
L 222.859517 57.190335 
L 224.843093 56.861719 
L 226.826669 68.144467 
L 228.810245 112.574098 
L 230.793822 98.640869 
L 232.777398 91.3312 
L 234.760974 86.334857 
L 236.74455 82.918147 
L 238.728126 80.789872 
L 240.711702 79.567934 
L 242.695278 78.881013 
L 244.678854 78.483257 
L 246.66243 78.255097 
L 250.629582 78.155658 
L 254.596735 78.435063 
L 258.563887 78.996516 
L 262.531039 79.769251 
L 266.498191 80.709752 
L 270.465343 81.804392 
L 274.432495 83.080828 
L 278.399648 84.587255 
L 282.3668 86.358446 
L 288.317528 89.420714 
L 294.268256 92.489896 
L 296.251832 93.360037 
L 298.235408 94.084781 
L 300.218985 94.613291 
L 302.202561 94.891476 
L 304.186137 94.859143 
L 306.169713 94.455898 
L 308.153289 93.633341 
L 310.136865 92.368496 
L 312.120441 90.693694 
L 316.087593 86.732002 
L 318.071169 84.982164 
L 320.054745 83.981675 
L 322.038321 92.824613 
L 324.021898 117.259517 
L 326.005474 103.870456 
L 327.98905 97.03907 
L 329.972626 92.328029 
L 331.956202 89.013401 
L 333.939778 86.882482 
L 335.923354 85.652003 
L 337.90693 85.035442 
L 339.890506 84.844698 
L 341.874082 84.984807 
L 343.857658 85.404728 
L 345.841235 86.055859 
L 349.808387 87.802647 
L 353.775539 89.651925 
L 355.759115 90.451502 
L 357.742691 91.110564 
L 359.726267 91.611215 
L 361.709843 91.942881 
L 363.693419 92.103122 
L 365.676995 92.099462 
L 367.660571 91.941661 
L 369.644148 91.647412 
L 373.6113 90.732534 
L 379.562028 88.912132 
L 385.512756 87.170428 
L 389.479908 86.287476 
L 393.447061 85.665018 
L 403.364941 84.464838 
L 405.348517 83.99896 
L 411.299245 82.150699 
L 413.282821 81.932707 
L 415.266398 82.491313 
L 417.249974 92.632446 
L 419.23355 96.486564 
L 421.217126 82.168594 
L 423.200702 74.133775 
L 425.184278 68.233331 
L 427.167854 63.922079 
L 429.15143 61.015171 
L 431.135006 59.181552 
L 433.118582 58.077354 
L 435.102158 57.476857 
L 437.085735 57.270049 
L 439.069311 57.408531 
L 441.052887 57.851024 
L 443.036463 58.545469 
L 447.003615 60.411421 
L 450.970767 62.401824 
L 452.954343 63.277659 
L 454.937919 64.027008 
L 458.905071 65.181637 
L 468.822952 67.592775 
L 472.790104 68.958686 
L 476.757256 70.745331 
L 478.740832 71.828177 
L 480.724408 73.054589 
L 482.707985 74.432091 
L 484.691561 75.967394 
L 486.675137 77.662125 
L 490.642289 81.492858 
L 494.609441 85.788249 
L 504.527321 97.115937 
L 506.510898 99.583402 
L 508.494474 102.383957 
L 510.47805 105.814088 
L 512.461626 118.159753 
L 514.445202 139.936855 
L 516.428778 128.557516 
L 518.412354 123.066012 
L 520.39593 119.299538 
L 522.379506 116.668985 
L 524.363082 115.253659 
L 526.346658 115.070643 
L 528.330235 116.014396 
L 530.313811 117.951928 
L 532.297387 120.765701 
L 534.280963 124.339602 
L 536.264539 128.546128 
L 538.248115 133.240698 
L 542.215267 143.444056 
L 546.182419 153.732619 
L 550.149571 163.201269 
L 552.133148 167.4566 
L 554.116724 171.360438 
L 556.1003 174.92417 
L 558.083876 178.176674 
L 560.067452 181.15689 
L 564.034604 186.484187 
L 568.001756 191.284805 
L 583.870365 209.862274 
L 595.771821 224.489135 
L 599.738974 229.098196 
L 601.72255 231.59108 
L 603.706126 234.519035 
L 605.689702 238.266801 
L 607.673278 248.356689 
L 609.656854 241.740754 
L 611.64043 234.331443 
L 613.624006 232.577843 
L 615.607582 231.91024 
L 617.591158 231.106392 
L 619.574735 230.127865 
L 621.558311 229.290871 
L 623.541887 228.903995 
L 625.525463 229.153202 
L 627.509039 230.085873 
L 629.492615 231.639376 
L 631.476191 233.679194 
L 635.443343 238.521803 
L 639.410495 243.300662 
L 641.394071 245.371084 
L 643.377648 247.153256 
L 645.361224 248.634264 
L 647.3448 249.824988 
L 649.328376 250.756845 
L 651.311952 251.468778 
L 653.295528 252.003593 
L 657.26268 252.728438 
L 663.213408 253.468434 
L 669.164137 253.998368 
L 673.131289 253.99125 
L 675.114865 253.79949 
L 677.098441 253.455013 
L 679.082017 252.932908 
L 681.065593 252.201352 
L 683.049169 251.22557 
L 685.032745 249.986957 
L 687.016321 248.478191 
L 688.999898 246.709238 
L 692.96705 242.585475 
L 694.950626 240.493803 
L 696.934202 238.751489 
L 698.917778 237.774487 
L 700.901354 238.156076 
L 702.88493 245.997305 
L 702.88493 245.997305 
" style="fill:none;stroke:#1f77b4;stroke-linecap:square;stroke-width:1.5;"/>
   </g>
   <g id="patch_3">
    <path d="M 36.403365 326.64351 
L 36.403365 6.799459 
" style="fill:none;stroke:#000000;stroke-linecap:square;stroke-linejoin:miter;stroke-width:0.8;"/>
   </g>
   <g id="patch_4">
    <path d="M 706.852082 326.64351 
L 706.852082 6.799459 
" style="fill:none;stroke:#000000;stroke-linecap:square;stroke-linejoin:miter;stroke-width:0.8;"/>
   </g>
   <g id="patch_5">
    <path d="M 36.403365 326.64351 
L 706.852082 326.64351 
" style="fill:none;stroke:#000000;stroke-linecap:square;stroke-linejoin:miter;stroke-width:0.8;"/>
   </g>
   <g id="patch_6">
    <path d="M 36.403365 6.799459 
L 706.852082 6.799459 
" style="fill:none;stroke:#000000;stroke-linecap:square;stroke-linejoin:miter;stroke-width:0.8;"/>
   </g>
   <g id="legend_1">
    <g id="patch_7">
     <path d="M 164.005067 29.477584 
L 579.25038 29.477584 
L 579.25038 11.799459 
L 164.005067 11.799459 
z
" style="fill:#ffffff;opacity:0.95;stroke:#000000;stroke-linejoin:miter;"/>
    </g>
    <g id="line2d_33">
     <path d="M 168.005067 19.897896 
L 188.005067 19.897896 
" style="fill:none;stroke:#d62728;stroke-dasharray:7.4,3.2;stroke-dashoffset:0;stroke-width:2;"/>
    </g>
    <g id="line2d_34"/>
    <g id="text_18">
     <!-- Actual rolling average demand -->
     <g transform="translate(196.005067 23.397896)scale(0.1 -0.1)">
      <defs>
       <path d="M 2188 4044 
L 1331 1722 
L 3047 1722 
L 2188 4044 
z
M 1831 4666 
L 2547 4666 
L 4325 0 
L 3669 0 
L 3244 1197 
L 1141 1197 
L 716 0 
L 50 0 
L 1831 4666 
z
" id="DejaVuSans-41" transform="scale(0.015625)"/>
       <path d="M 3122 3366 
L 3122 2828 
Q 2878 2963 2633 3030 
Q 2388 3097 2138 3097 
Q 1578 3097 1268 2742 
Q 959 2388 959 1747 
Q 959 1106 1268 751 
Q 1578 397 2138 397 
Q 2388 397 2633 464 
Q 2878 531 3122 666 
L 3122 134 
Q 2881 22 2623 -34 
Q 2366 -91 2075 -91 
Q 1284 -91 818 406 
Q 353 903 353 1747 
Q 353 2603 823 3093 
Q 1294 3584 2113 3584 
Q 2378 3584 2631 3529 
Q 2884 3475 3122 3366 
z
" id="DejaVuSans-63" transform="scale(0.015625)"/>
      </defs>
      <use xlink:href="#DejaVuSans-41"/>
      <use x="66.658203" xlink:href="#DejaVuSans-63"/>
      <use x="121.638672" xlink:href="#DejaVuSans-74"/>
      <use x="160.847656" xlink:href="#DejaVuSans-75"/>
      <use x="224.226562" xlink:href="#DejaVuSans-61"/>
      <use x="285.505859" xlink:href="#DejaVuSans-6c"/>
      <use x="313.289062" xlink:href="#DejaVuSans-20"/>
      <use x="345.076172" xlink:href="#DejaVuSans-72"/>
      <use x="383.939453" xlink:href="#DejaVuSans-6f"/>
      <use x="445.121094" xlink:href="#DejaVuSans-6c"/>
      <use x="472.904297" xlink:href="#DejaVuSans-6c"/>
      <use x="500.6875" xlink:href="#DejaVuSans-69"/>
      <use x="528.470703" xlink:href="#DejaVuSans-6e"/>
      <use x="591.849609" xlink:href="#DejaVuSans-67"/>
      <use x="655.326172" xlink:href="#DejaVuSans-20"/>
      <use x="687.113281" xlink:href="#DejaVuSans-61"/>
      <use x="748.392578" xlink:href="#DejaVuSans-76"/>
      <use x="807.572266" xlink:href="#DejaVuSans-65"/>
      <use x="869.095703" xlink:href="#DejaVuSans-72"/>
      <use x="910.208984" xlink:href="#DejaVuSans-61"/>
      <use x="971.488281" xlink:href="#DejaVuSans-67"/>
      <use x="1034.964844" xlink:href="#DejaVuSans-65"/>
      <use x="1096.488281" xlink:href="#DejaVuSans-20"/>
      <use x="1128.275391" xlink:href="#DejaVuSans-64"/>
      <use x="1191.751953" xlink:href="#DejaVuSans-65"/>
      <use x="1253.275391" xlink:href="#DejaVuSans-6d"/>
      <use x="1350.6875" xlink:href="#DejaVuSans-61"/>
      <use x="1411.966797" xlink:href="#DejaVuSans-6e"/>
      <use x="1475.345703" xlink:href="#DejaVuSans-64"/>
     </g>
    </g>
    <g id="line2d_35">
     <path d="M 369.889442 19.897896 
L 389.889442 19.897896 
" style="fill:none;stroke:#1f77b4;stroke-linecap:square;stroke-width:1.5;"/>
    </g>
    <g id="line2d_36"/>
    <g id="text_19">
     <!-- Forecasted rolling average demand -->
     <g transform="translate(397.889442 23.397896)scale(0.1 -0.1)">
      <defs>
       <path d="M 2834 3397 
L 2834 2853 
Q 2591 2978 2328 3040 
Q 2066 3103 1784 3103 
Q 1356 3103 1142 2972 
Q 928 2841 928 2578 
Q 928 2378 1081 2264 
Q 1234 2150 1697 2047 
L 1894 2003 
Q 2506 1872 2764 1633 
Q 3022 1394 3022 966 
Q 3022 478 2636 193 
Q 2250 -91 1575 -91 
Q 1294 -91 989 -36 
Q 684 19 347 128 
L 347 722 
Q 666 556 975 473 
Q 1284 391 1588 391 
Q 1994 391 2212 530 
Q 2431 669 2431 922 
Q 2431 1156 2273 1281 
Q 2116 1406 1581 1522 
L 1381 1569 
Q 847 1681 609 1914 
Q 372 2147 372 2553 
Q 372 3047 722 3315 
Q 1072 3584 1716 3584 
Q 2034 3584 2315 3537 
Q 2597 3491 2834 3397 
z
" id="DejaVuSans-73" transform="scale(0.015625)"/>
      </defs>
      <use xlink:href="#DejaVuSans-46"/>
      <use x="53.894531" xlink:href="#DejaVuSans-6f"/>
      <use x="115.076172" xlink:href="#DejaVuSans-72"/>
      <use x="153.939453" xlink:href="#DejaVuSans-65"/>
      <use x="215.462891" xlink:href="#DejaVuSans-63"/>
      <use x="270.443359" xlink:href="#DejaVuSans-61"/>
      <use x="331.722656" xlink:href="#DejaVuSans-73"/>
      <use x="383.822266" xlink:href="#DejaVuSans-74"/>
      <use x="423.03125" xlink:href="#DejaVuSans-65"/>
      <use x="484.554688" xlink:href="#DejaVuSans-64"/>
      <use x="548.03125" xlink:href="#DejaVuSans-20"/>
      <use x="579.818359" xlink:href="#DejaVuSans-72"/>
      <use x="618.681641" xlink:href="#DejaVuSans-6f"/>
      <use x="679.863281" xlink:href="#DejaVuSans-6c"/>
      <use x="707.646484" xlink:href="#DejaVuSans-6c"/>
      <use x="735.429688" xlink:href="#DejaVuSans-69"/>
      <use x="763.212891" xlink:href="#DejaVuSans-6e"/>
      <use x="826.591797" xlink:href="#DejaVuSans-67"/>
      <use x="890.068359" xlink:href="#DejaVuSans-20"/>
      <use x="921.855469" xlink:href="#DejaVuSans-61"/>
      <use x="983.134766" xlink:href="#DejaVuSans-76"/>
      <use x="1042.314453" xlink:href="#DejaVuSans-65"/>
      <use x="1103.837891" xlink:href="#DejaVuSans-72"/>
      <use x="1144.951172" xlink:href="#DejaVuSans-61"/>
      <use x="1206.230469" xlink:href="#DejaVuSans-67"/>
      <use x="1269.707031" xlink:href="#DejaVuSans-65"/>
      <use x="1331.230469" xlink:href="#DejaVuSans-20"/>
      <use x="1363.017578" xlink:href="#DejaVuSans-64"/>
      <use x="1426.494141" xlink:href="#DejaVuSans-65"/>
      <use x="1488.017578" xlink:href="#DejaVuSans-6d"/>
      <use x="1585.429688" xlink:href="#DejaVuSans-61"/>
      <use x="1646.708984" xlink:href="#DejaVuSans-6e"/>
      <use x="1710.087891" xlink:href="#DejaVuSans-64"/>
     </g>
    </g>
   </g>
  </g>
 </g>
 <defs>
  <clipPath id="p9b001a2876">
   <rect height="319.844051" width="670.448717" x="36.403365" y="6.799459"/>
  </clipPath>
 </defs>
</svg>
