<?xml version="1.0" encoding="utf-8" standalone="no"?>
<!DOCTYPE svg PUBLIC "-//W3C//DTD SVG 1.1//EN"
  "http://www.w3.org/Graphics/SVG/1.1/DTD/svg11.dtd">
<svg height="360pt" version="1.1" viewBox="0 0 720 360" width="720pt" xmlns="http://www.w3.org/2000/svg" xmlns:xlink="http://www.w3.org/1999/xlink">
 <metadata>
  <rdf:RDF xmlns:cc="http://creativecommons.org/ns#" xmlns:dc="http://purl.org/dc/elements/1.1/" xmlns:rdf="http://www.w3.org/1999/02/22-rdf-syntax-ns#">
   <cc:Work>
    <dc:type rdf:resource="http://purl.org/dc/dcmitype/StillImage"/>
    <dc:date>2022-04-11T20:56:35.616558</dc:date>
    <dc:format>image/svg+xml</dc:format>
    <dc:creator>
     <cc:Agent>
      <dc:title>Matplotlib v3.4.3, https://matplotlib.org/</dc:title>
     </cc:Agent>
    </dc:creator>
   </cc:Work>
  </rdf:RDF>
 </metadata>
 <defs>
  <style type="text/css">*{stroke-linecap:butt;stroke-linejoin:round;}</style>
 </defs>
 <g id="figure_1">
  <g id="patch_1">
   <path d="M 0 360 
L 720 360 
L 720 0 
L 0 0 
z
" style="fill:#ffffff;"/>
  </g>
  <g id="axes_1">
   <g id="patch_2">
    <path d="M 44.783053 326.64351 
L 706.827217 326.64351 
L 706.827217 6.799459 
L 44.783053 6.799459 
z
" style="fill:#ffffff;"/>
   </g>
   <g id="matplotlib.axis_1">
    <g id="xtick_1">
     <g id="line2d_1">
      <path clip-path="url(#p3ba9ce5ea5)" d="M 46.741763 326.64351 
L 46.741763 6.799459 
" style="fill:none;stroke:#b0b0b0;stroke-linecap:square;stroke-width:0.8;"/>
     </g>
     <g id="line2d_2">
      <defs>
       <path d="M 0 0 
L 0 3.5 
" id="mf111cfef6c" style="stroke:#000000;stroke-width:0.8;"/>
      </defs>
      <g>
       <use style="stroke:#000000;stroke-width:0.8;" x="46.741763" xlink:href="#mf111cfef6c" y="326.64351"/>
      </g>
     </g>
     <g id="text_1">
      <!-- Mon. -->
      <g transform="translate(34.610513 341.241947)scale(0.1 -0.1)">
       <defs>
        <path d="M 628 4666 
L 1569 4666 
L 2759 1491 
L 3956 4666 
L 4897 4666 
L 4897 0 
L 4281 0 
L 4281 4097 
L 3078 897 
L 2444 897 
L 1241 4097 
L 1241 0 
L 628 0 
L 628 4666 
z
" id="DejaVuSans-4d" transform="scale(0.015625)"/>
        <path d="M 1959 3097 
Q 1497 3097 1228 2736 
Q 959 2375 959 1747 
Q 959 1119 1226 758 
Q 1494 397 1959 397 
Q 2419 397 2687 759 
Q 2956 1122 2956 1747 
Q 2956 2369 2687 2733 
Q 2419 3097 1959 3097 
z
M 1959 3584 
Q 2709 3584 3137 3096 
Q 3566 2609 3566 1747 
Q 3566 888 3137 398 
Q 2709 -91 1959 -91 
Q 1206 -91 779 398 
Q 353 888 353 1747 
Q 353 2609 779 3096 
Q 1206 3584 1959 3584 
z
" id="DejaVuSans-6f" transform="scale(0.015625)"/>
        <path d="M 3513 2113 
L 3513 0 
L 2938 0 
L 2938 2094 
Q 2938 2591 2744 2837 
Q 2550 3084 2163 3084 
Q 1697 3084 1428 2787 
Q 1159 2491 1159 1978 
L 1159 0 
L 581 0 
L 581 3500 
L 1159 3500 
L 1159 2956 
Q 1366 3272 1645 3428 
Q 1925 3584 2291 3584 
Q 2894 3584 3203 3211 
Q 3513 2838 3513 2113 
z
" id="DejaVuSans-6e" transform="scale(0.015625)"/>
        <path d="M 684 794 
L 1344 794 
L 1344 0 
L 684 0 
L 684 794 
z
" id="DejaVuSans-2e" transform="scale(0.015625)"/>
       </defs>
       <use xlink:href="#DejaVuSans-4d"/>
       <use x="86.279297" xlink:href="#DejaVuSans-6f"/>
       <use x="147.460938" xlink:href="#DejaVuSans-6e"/>
       <use x="210.839844" xlink:href="#DejaVuSans-2e"/>
      </g>
     </g>
    </g>
    <g id="xtick_2">
     <g id="line2d_3">
      <path clip-path="url(#p3ba9ce5ea5)" d="M 140.759869 326.64351 
L 140.759869 6.799459 
" style="fill:none;stroke:#b0b0b0;stroke-linecap:square;stroke-width:0.8;"/>
     </g>
     <g id="line2d_4">
      <g>
       <use style="stroke:#000000;stroke-width:0.8;" x="140.759869" xlink:href="#mf111cfef6c" y="326.64351"/>
      </g>
     </g>
     <g id="text_2">
      <!-- Tue. -->
      <g transform="translate(130.627838 341.241947)scale(0.1 -0.1)">
       <defs>
        <path d="M -19 4666 
L 3928 4666 
L 3928 4134 
L 2272 4134 
L 2272 0 
L 1638 0 
L 1638 4134 
L -19 4134 
L -19 4666 
z
" id="DejaVuSans-54" transform="scale(0.015625)"/>
        <path d="M 544 1381 
L 544 3500 
L 1119 3500 
L 1119 1403 
Q 1119 906 1312 657 
Q 1506 409 1894 409 
Q 2359 409 2629 706 
Q 2900 1003 2900 1516 
L 2900 3500 
L 3475 3500 
L 3475 0 
L 2900 0 
L 2900 538 
Q 2691 219 2414 64 
Q 2138 -91 1772 -91 
Q 1169 -91 856 284 
Q 544 659 544 1381 
z
M 1991 3584 
L 1991 3584 
z
" id="DejaVuSans-75" transform="scale(0.015625)"/>
        <path d="M 3597 1894 
L 3597 1613 
L 953 1613 
Q 991 1019 1311 708 
Q 1631 397 2203 397 
Q 2534 397 2845 478 
Q 3156 559 3463 722 
L 3463 178 
Q 3153 47 2828 -22 
Q 2503 -91 2169 -91 
Q 1331 -91 842 396 
Q 353 884 353 1716 
Q 353 2575 817 3079 
Q 1281 3584 2069 3584 
Q 2775 3584 3186 3129 
Q 3597 2675 3597 1894 
z
M 3022 2063 
Q 3016 2534 2758 2815 
Q 2500 3097 2075 3097 
Q 1594 3097 1305 2825 
Q 1016 2553 972 2059 
L 3022 2063 
z
" id="DejaVuSans-65" transform="scale(0.015625)"/>
       </defs>
       <use xlink:href="#DejaVuSans-54"/>
       <use x="45.958984" xlink:href="#DejaVuSans-75"/>
       <use x="109.337891" xlink:href="#DejaVuSans-65"/>
       <use x="170.861328" xlink:href="#DejaVuSans-2e"/>
      </g>
     </g>
    </g>
    <g id="xtick_3">
     <g id="line2d_5">
      <path clip-path="url(#p3ba9ce5ea5)" d="M 234.777975 326.64351 
L 234.777975 6.799459 
" style="fill:none;stroke:#b0b0b0;stroke-linecap:square;stroke-width:0.8;"/>
     </g>
     <g id="line2d_6">
      <g>
       <use style="stroke:#000000;stroke-width:0.8;" x="234.777975" xlink:href="#mf111cfef6c" y="326.64351"/>
      </g>
     </g>
     <g id="text_3">
      <!-- Wed. -->
      <g transform="translate(222.288132 341.241947)scale(0.1 -0.1)">
       <defs>
        <path d="M 213 4666 
L 850 4666 
L 1831 722 
L 2809 4666 
L 3519 4666 
L 4500 722 
L 5478 4666 
L 6119 4666 
L 4947 0 
L 4153 0 
L 3169 4050 
L 2175 0 
L 1381 0 
L 213 4666 
z
" id="DejaVuSans-57" transform="scale(0.015625)"/>
        <path d="M 2906 2969 
L 2906 4863 
L 3481 4863 
L 3481 0 
L 2906 0 
L 2906 525 
Q 2725 213 2448 61 
Q 2172 -91 1784 -91 
Q 1150 -91 751 415 
Q 353 922 353 1747 
Q 353 2572 751 3078 
Q 1150 3584 1784 3584 
Q 2172 3584 2448 3432 
Q 2725 3281 2906 2969 
z
M 947 1747 
Q 947 1113 1208 752 
Q 1469 391 1925 391 
Q 2381 391 2643 752 
Q 2906 1113 2906 1747 
Q 2906 2381 2643 2742 
Q 2381 3103 1925 3103 
Q 1469 3103 1208 2742 
Q 947 2381 947 1747 
z
" id="DejaVuSans-64" transform="scale(0.015625)"/>
       </defs>
       <use xlink:href="#DejaVuSans-57"/>
       <use x="93.001953" xlink:href="#DejaVuSans-65"/>
       <use x="154.525391" xlink:href="#DejaVuSans-64"/>
       <use x="218.001953" xlink:href="#DejaVuSans-2e"/>
      </g>
     </g>
    </g>
    <g id="xtick_4">
     <g id="line2d_7">
      <path clip-path="url(#p3ba9ce5ea5)" d="M 328.796082 326.64351 
L 328.796082 6.799459 
" style="fill:none;stroke:#b0b0b0;stroke-linecap:square;stroke-width:0.8;"/>
     </g>
     <g id="line2d_8">
      <g>
       <use style="stroke:#000000;stroke-width:0.8;" x="328.796082" xlink:href="#mf111cfef6c" y="326.64351"/>
      </g>
     </g>
     <g id="text_4">
      <!-- Thur. -->
      <g transform="translate(316.216394 341.241947)scale(0.1 -0.1)">
       <defs>
        <path d="M 3513 2113 
L 3513 0 
L 2938 0 
L 2938 2094 
Q 2938 2591 2744 2837 
Q 2550 3084 2163 3084 
Q 1697 3084 1428 2787 
Q 1159 2491 1159 1978 
L 1159 0 
L 581 0 
L 581 4863 
L 1159 4863 
L 1159 2956 
Q 1366 3272 1645 3428 
Q 1925 3584 2291 3584 
Q 2894 3584 3203 3211 
Q 3513 2838 3513 2113 
z
" id="DejaVuSans-68" transform="scale(0.015625)"/>
        <path d="M 2631 2963 
Q 2534 3019 2420 3045 
Q 2306 3072 2169 3072 
Q 1681 3072 1420 2755 
Q 1159 2438 1159 1844 
L 1159 0 
L 581 0 
L 581 3500 
L 1159 3500 
L 1159 2956 
Q 1341 3275 1631 3429 
Q 1922 3584 2338 3584 
Q 2397 3584 2469 3576 
Q 2541 3569 2628 3553 
L 2631 2963 
z
" id="DejaVuSans-72" transform="scale(0.015625)"/>
       </defs>
       <use xlink:href="#DejaVuSans-54"/>
       <use x="61.083984" xlink:href="#DejaVuSans-68"/>
       <use x="124.462891" xlink:href="#DejaVuSans-75"/>
       <use x="187.841797" xlink:href="#DejaVuSans-72"/>
       <use x="219.830078" xlink:href="#DejaVuSans-2e"/>
      </g>
     </g>
    </g>
    <g id="xtick_5">
     <g id="line2d_9">
      <path clip-path="url(#p3ba9ce5ea5)" d="M 422.814188 326.64351 
L 422.814188 6.799459 
" style="fill:none;stroke:#b0b0b0;stroke-linecap:square;stroke-width:0.8;"/>
     </g>
     <g id="line2d_10">
      <g>
       <use style="stroke:#000000;stroke-width:0.8;" x="422.814188" xlink:href="#mf111cfef6c" y="326.64351"/>
      </g>
     </g>
     <g id="text_5">
      <!-- Fri. -->
      <g transform="translate(415.267313 341.241947)scale(0.1 -0.1)">
       <defs>
        <path d="M 628 4666 
L 3309 4666 
L 3309 4134 
L 1259 4134 
L 1259 2759 
L 3109 2759 
L 3109 2228 
L 1259 2228 
L 1259 0 
L 628 0 
L 628 4666 
z
" id="DejaVuSans-46" transform="scale(0.015625)"/>
        <path d="M 603 3500 
L 1178 3500 
L 1178 0 
L 603 0 
L 603 3500 
z
M 603 4863 
L 1178 4863 
L 1178 4134 
L 603 4134 
L 603 4863 
z
" id="DejaVuSans-69" transform="scale(0.015625)"/>
       </defs>
       <use xlink:href="#DejaVuSans-46"/>
       <use x="50.269531" xlink:href="#DejaVuSans-72"/>
       <use x="91.382812" xlink:href="#DejaVuSans-69"/>
       <use x="119.166016" xlink:href="#DejaVuSans-2e"/>
      </g>
     </g>
    </g>
    <g id="xtick_6">
     <g id="line2d_11">
      <path clip-path="url(#p3ba9ce5ea5)" d="M 516.832294 326.64351 
L 516.832294 6.799459 
" style="fill:none;stroke:#b0b0b0;stroke-linecap:square;stroke-width:0.8;"/>
     </g>
     <g id="line2d_12">
      <g>
       <use style="stroke:#000000;stroke-width:0.8;" x="516.832294" xlink:href="#mf111cfef6c" y="326.64351"/>
      </g>
     </g>
     <g id="text_6">
      <!-- Sat. -->
      <g transform="translate(507.044794 341.241947)scale(0.1 -0.1)">
       <defs>
        <path d="M 3425 4513 
L 3425 3897 
Q 3066 4069 2747 4153 
Q 2428 4238 2131 4238 
Q 1616 4238 1336 4038 
Q 1056 3838 1056 3469 
Q 1056 3159 1242 3001 
Q 1428 2844 1947 2747 
L 2328 2669 
Q 3034 2534 3370 2195 
Q 3706 1856 3706 1288 
Q 3706 609 3251 259 
Q 2797 -91 1919 -91 
Q 1588 -91 1214 -16 
Q 841 59 441 206 
L 441 856 
Q 825 641 1194 531 
Q 1563 422 1919 422 
Q 2459 422 2753 634 
Q 3047 847 3047 1241 
Q 3047 1584 2836 1778 
Q 2625 1972 2144 2069 
L 1759 2144 
Q 1053 2284 737 2584 
Q 422 2884 422 3419 
Q 422 4038 858 4394 
Q 1294 4750 2059 4750 
Q 2388 4750 2728 4690 
Q 3069 4631 3425 4513 
z
" id="DejaVuSans-53" transform="scale(0.015625)"/>
        <path d="M 2194 1759 
Q 1497 1759 1228 1600 
Q 959 1441 959 1056 
Q 959 750 1161 570 
Q 1363 391 1709 391 
Q 2188 391 2477 730 
Q 2766 1069 2766 1631 
L 2766 1759 
L 2194 1759 
z
M 3341 1997 
L 3341 0 
L 2766 0 
L 2766 531 
Q 2569 213 2275 61 
Q 1981 -91 1556 -91 
Q 1019 -91 701 211 
Q 384 513 384 1019 
Q 384 1609 779 1909 
Q 1175 2209 1959 2209 
L 2766 2209 
L 2766 2266 
Q 2766 2663 2505 2880 
Q 2244 3097 1772 3097 
Q 1472 3097 1187 3025 
Q 903 2953 641 2809 
L 641 3341 
Q 956 3463 1253 3523 
Q 1550 3584 1831 3584 
Q 2591 3584 2966 3190 
Q 3341 2797 3341 1997 
z
" id="DejaVuSans-61" transform="scale(0.015625)"/>
        <path d="M 1172 4494 
L 1172 3500 
L 2356 3500 
L 2356 3053 
L 1172 3053 
L 1172 1153 
Q 1172 725 1289 603 
Q 1406 481 1766 481 
L 2356 481 
L 2356 0 
L 1766 0 
Q 1100 0 847 248 
Q 594 497 594 1153 
L 594 3053 
L 172 3053 
L 172 3500 
L 594 3500 
L 594 4494 
L 1172 4494 
z
" id="DejaVuSans-74" transform="scale(0.015625)"/>
       </defs>
       <use xlink:href="#DejaVuSans-53"/>
       <use x="63.476562" xlink:href="#DejaVuSans-61"/>
       <use x="124.755859" xlink:href="#DejaVuSans-74"/>
       <use x="163.964844" xlink:href="#DejaVuSans-2e"/>
      </g>
     </g>
    </g>
    <g id="xtick_7">
     <g id="line2d_13">
      <path clip-path="url(#p3ba9ce5ea5)" d="M 610.8504 326.64351 
L 610.8504 6.799459 
" style="fill:none;stroke:#b0b0b0;stroke-linecap:square;stroke-width:0.8;"/>
     </g>
     <g id="line2d_14">
      <g>
       <use style="stroke:#000000;stroke-width:0.8;" x="610.8504" xlink:href="#mf111cfef6c" y="326.64351"/>
      </g>
     </g>
     <g id="text_7">
      <!-- Sun. -->
      <g transform="translate(599.749619 341.241947)scale(0.1 -0.1)">
       <use xlink:href="#DejaVuSans-53"/>
       <use x="63.476562" xlink:href="#DejaVuSans-75"/>
       <use x="126.855469" xlink:href="#DejaVuSans-6e"/>
       <use x="190.234375" xlink:href="#DejaVuSans-2e"/>
      </g>
     </g>
    </g>
    <g id="xtick_8">
     <g id="line2d_15">
      <path clip-path="url(#p3ba9ce5ea5)" d="M 704.868506 326.64351 
L 704.868506 6.799459 
" style="fill:none;stroke:#b0b0b0;stroke-linecap:square;stroke-width:0.8;"/>
     </g>
     <g id="line2d_16">
      <g>
       <use style="stroke:#000000;stroke-width:0.8;" x="704.868506" xlink:href="#mf111cfef6c" y="326.64351"/>
      </g>
     </g>
     <g id="text_8">
      <!-- Mon. -->
      <g transform="translate(692.737256 341.241947)scale(0.1 -0.1)">
       <use xlink:href="#DejaVuSans-4d"/>
       <use x="86.279297" xlink:href="#DejaVuSans-6f"/>
       <use x="147.460938" xlink:href="#DejaVuSans-6e"/>
       <use x="210.839844" xlink:href="#DejaVuSans-2e"/>
      </g>
     </g>
    </g>
    <g id="text_9">
     <!-- Day of the week -->
     <g transform="translate(335.00201 354.920073)scale(0.1 -0.1)">
      <defs>
       <path d="M 1259 4147 
L 1259 519 
L 2022 519 
Q 2988 519 3436 956 
Q 3884 1394 3884 2338 
Q 3884 3275 3436 3711 
Q 2988 4147 2022 4147 
L 1259 4147 
z
M 628 4666 
L 1925 4666 
Q 3281 4666 3915 4102 
Q 4550 3538 4550 2338 
Q 4550 1131 3912 565 
Q 3275 0 1925 0 
L 628 0 
L 628 4666 
z
" id="DejaVuSans-44" transform="scale(0.015625)"/>
       <path d="M 2059 -325 
Q 1816 -950 1584 -1140 
Q 1353 -1331 966 -1331 
L 506 -1331 
L 506 -850 
L 844 -850 
Q 1081 -850 1212 -737 
Q 1344 -625 1503 -206 
L 1606 56 
L 191 3500 
L 800 3500 
L 1894 763 
L 2988 3500 
L 3597 3500 
L 2059 -325 
z
" id="DejaVuSans-79" transform="scale(0.015625)"/>
       <path id="DejaVuSans-20" transform="scale(0.015625)"/>
       <path d="M 2375 4863 
L 2375 4384 
L 1825 4384 
Q 1516 4384 1395 4259 
Q 1275 4134 1275 3809 
L 1275 3500 
L 2222 3500 
L 2222 3053 
L 1275 3053 
L 1275 0 
L 697 0 
L 697 3053 
L 147 3053 
L 147 3500 
L 697 3500 
L 697 3744 
Q 697 4328 969 4595 
Q 1241 4863 1831 4863 
L 2375 4863 
z
" id="DejaVuSans-66" transform="scale(0.015625)"/>
       <path d="M 269 3500 
L 844 3500 
L 1563 769 
L 2278 3500 
L 2956 3500 
L 3675 769 
L 4391 3500 
L 4966 3500 
L 4050 0 
L 3372 0 
L 2619 2869 
L 1863 0 
L 1184 0 
L 269 3500 
z
" id="DejaVuSans-77" transform="scale(0.015625)"/>
       <path d="M 581 4863 
L 1159 4863 
L 1159 1991 
L 2875 3500 
L 3609 3500 
L 1753 1863 
L 3688 0 
L 2938 0 
L 1159 1709 
L 1159 0 
L 581 0 
L 581 4863 
z
" id="DejaVuSans-6b" transform="scale(0.015625)"/>
      </defs>
      <use xlink:href="#DejaVuSans-44"/>
      <use x="77.001953" xlink:href="#DejaVuSans-61"/>
      <use x="138.28125" xlink:href="#DejaVuSans-79"/>
      <use x="197.460938" xlink:href="#DejaVuSans-20"/>
      <use x="229.248047" xlink:href="#DejaVuSans-6f"/>
      <use x="290.429688" xlink:href="#DejaVuSans-66"/>
      <use x="325.634766" xlink:href="#DejaVuSans-20"/>
      <use x="357.421875" xlink:href="#DejaVuSans-74"/>
      <use x="396.630859" xlink:href="#DejaVuSans-68"/>
      <use x="460.009766" xlink:href="#DejaVuSans-65"/>
      <use x="521.533203" xlink:href="#DejaVuSans-20"/>
      <use x="553.320312" xlink:href="#DejaVuSans-77"/>
      <use x="635.107422" xlink:href="#DejaVuSans-65"/>
      <use x="696.630859" xlink:href="#DejaVuSans-65"/>
      <use x="758.154297" xlink:href="#DejaVuSans-6b"/>
     </g>
    </g>
   </g>
   <g id="matplotlib.axis_2">
    <g id="ytick_1">
     <g id="line2d_17">
      <path clip-path="url(#p3ba9ce5ea5)" d="M 44.783053 302.951358 
L 706.827217 302.951358 
" style="fill:none;stroke:#b0b0b0;stroke-linecap:square;stroke-width:0.8;"/>
     </g>
     <g id="line2d_18">
      <defs>
       <path d="M 0 0 
L -3.5 0 
" id="med9506529e" style="stroke:#000000;stroke-width:0.8;"/>
      </defs>
      <g>
       <use style="stroke:#000000;stroke-width:0.8;" x="44.783053" xlink:href="#med9506529e" y="302.951358"/>
      </g>
     </g>
     <g id="text_10">
      <!-- −10 -->
      <g transform="translate(16.678365 306.750577)scale(0.1 -0.1)">
       <defs>
        <path d="M 678 2272 
L 4684 2272 
L 4684 1741 
L 678 1741 
L 678 2272 
z
" id="DejaVuSans-2212" transform="scale(0.015625)"/>
        <path d="M 794 531 
L 1825 531 
L 1825 4091 
L 703 3866 
L 703 4441 
L 1819 4666 
L 2450 4666 
L 2450 531 
L 3481 531 
L 3481 0 
L 794 0 
L 794 531 
z
" id="DejaVuSans-31" transform="scale(0.015625)"/>
        <path d="M 2034 4250 
Q 1547 4250 1301 3770 
Q 1056 3291 1056 2328 
Q 1056 1369 1301 889 
Q 1547 409 2034 409 
Q 2525 409 2770 889 
Q 3016 1369 3016 2328 
Q 3016 3291 2770 3770 
Q 2525 4250 2034 4250 
z
M 2034 4750 
Q 2819 4750 3233 4129 
Q 3647 3509 3647 2328 
Q 3647 1150 3233 529 
Q 2819 -91 2034 -91 
Q 1250 -91 836 529 
Q 422 1150 422 2328 
Q 422 3509 836 4129 
Q 1250 4750 2034 4750 
z
" id="DejaVuSans-30" transform="scale(0.015625)"/>
       </defs>
       <use xlink:href="#DejaVuSans-2212"/>
       <use x="83.789062" xlink:href="#DejaVuSans-31"/>
       <use x="147.412109" xlink:href="#DejaVuSans-30"/>
      </g>
     </g>
    </g>
    <g id="ytick_2">
     <g id="line2d_19">
      <path clip-path="url(#p3ba9ce5ea5)" d="M 44.783053 243.720978 
L 706.827217 243.720978 
" style="fill:none;stroke:#b0b0b0;stroke-linecap:square;stroke-width:0.8;"/>
     </g>
     <g id="line2d_20">
      <g>
       <use style="stroke:#000000;stroke-width:0.8;" x="44.783053" xlink:href="#med9506529e" y="243.720978"/>
      </g>
     </g>
     <g id="text_11">
      <!-- −5 -->
      <g transform="translate(23.040865 247.520197)scale(0.1 -0.1)">
       <defs>
        <path d="M 691 4666 
L 3169 4666 
L 3169 4134 
L 1269 4134 
L 1269 2991 
Q 1406 3038 1543 3061 
Q 1681 3084 1819 3084 
Q 2600 3084 3056 2656 
Q 3513 2228 3513 1497 
Q 3513 744 3044 326 
Q 2575 -91 1722 -91 
Q 1428 -91 1123 -41 
Q 819 9 494 109 
L 494 744 
Q 775 591 1075 516 
Q 1375 441 1709 441 
Q 2250 441 2565 725 
Q 2881 1009 2881 1497 
Q 2881 1984 2565 2268 
Q 2250 2553 1709 2553 
Q 1456 2553 1204 2497 
Q 953 2441 691 2322 
L 691 4666 
z
" id="DejaVuSans-35" transform="scale(0.015625)"/>
       </defs>
       <use xlink:href="#DejaVuSans-2212"/>
       <use x="83.789062" xlink:href="#DejaVuSans-35"/>
      </g>
     </g>
    </g>
    <g id="ytick_3">
     <g id="line2d_21">
      <path clip-path="url(#p3ba9ce5ea5)" d="M 44.783053 184.490598 
L 706.827217 184.490598 
" style="fill:none;stroke:#b0b0b0;stroke-linecap:square;stroke-width:0.8;"/>
     </g>
     <g id="line2d_22">
      <g>
       <use style="stroke:#000000;stroke-width:0.8;" x="44.783053" xlink:href="#med9506529e" y="184.490598"/>
      </g>
     </g>
     <g id="text_12">
      <!-- 0 -->
      <g transform="translate(31.420553 188.289817)scale(0.1 -0.1)">
       <use xlink:href="#DejaVuSans-30"/>
      </g>
     </g>
    </g>
    <g id="ytick_4">
     <g id="line2d_23">
      <path clip-path="url(#p3ba9ce5ea5)" d="M 44.783053 125.260218 
L 706.827217 125.260218 
" style="fill:none;stroke:#b0b0b0;stroke-linecap:square;stroke-width:0.8;"/>
     </g>
     <g id="line2d_24">
      <g>
       <use style="stroke:#000000;stroke-width:0.8;" x="44.783053" xlink:href="#med9506529e" y="125.260218"/>
      </g>
     </g>
     <g id="text_13">
      <!-- 5 -->
      <g transform="translate(31.420553 129.059437)scale(0.1 -0.1)">
       <use xlink:href="#DejaVuSans-35"/>
      </g>
     </g>
    </g>
    <g id="ytick_5">
     <g id="line2d_25">
      <path clip-path="url(#p3ba9ce5ea5)" d="M 44.783053 66.029839 
L 706.827217 66.029839 
" style="fill:none;stroke:#b0b0b0;stroke-linecap:square;stroke-width:0.8;"/>
     </g>
     <g id="line2d_26">
      <g>
       <use style="stroke:#000000;stroke-width:0.8;" x="44.783053" xlink:href="#med9506529e" y="66.029839"/>
      </g>
     </g>
     <g id="text_14">
      <!-- 10 -->
      <g transform="translate(25.058053 69.829057)scale(0.1 -0.1)">
       <use xlink:href="#DejaVuSans-31"/>
       <use x="63.623047" xlink:href="#DejaVuSans-30"/>
      </g>
     </g>
    </g>
    <g id="ytick_6">
     <g id="line2d_27">
      <path clip-path="url(#p3ba9ce5ea5)" d="M 44.783053 6.799459 
L 706.827217 6.799459 
" style="fill:none;stroke:#b0b0b0;stroke-linecap:square;stroke-width:0.8;"/>
     </g>
     <g id="line2d_28">
      <g>
       <use style="stroke:#000000;stroke-width:0.8;" x="44.783053" xlink:href="#med9506529e" y="6.799459"/>
      </g>
     </g>
     <g id="text_15">
      <!-- 15 -->
      <g transform="translate(25.058053 10.598678)scale(0.1 -0.1)">
       <use xlink:href="#DejaVuSans-31"/>
       <use x="63.623047" xlink:href="#DejaVuSans-35"/>
      </g>
     </g>
    </g>
    <g id="text_16">
     <!-- Demand difference (MW) -->
     <g transform="translate(10.598677 229.437109)rotate(-90)scale(0.1 -0.1)">
      <defs>
       <path d="M 3328 2828 
Q 3544 3216 3844 3400 
Q 4144 3584 4550 3584 
Q 5097 3584 5394 3201 
Q 5691 2819 5691 2113 
L 5691 0 
L 5113 0 
L 5113 2094 
Q 5113 2597 4934 2840 
Q 4756 3084 4391 3084 
Q 3944 3084 3684 2787 
Q 3425 2491 3425 1978 
L 3425 0 
L 2847 0 
L 2847 2094 
Q 2847 2600 2669 2842 
Q 2491 3084 2119 3084 
Q 1678 3084 1418 2786 
Q 1159 2488 1159 1978 
L 1159 0 
L 581 0 
L 581 3500 
L 1159 3500 
L 1159 2956 
Q 1356 3278 1631 3431 
Q 1906 3584 2284 3584 
Q 2666 3584 2933 3390 
Q 3200 3197 3328 2828 
z
" id="DejaVuSans-6d" transform="scale(0.015625)"/>
       <path d="M 3122 3366 
L 3122 2828 
Q 2878 2963 2633 3030 
Q 2388 3097 2138 3097 
Q 1578 3097 1268 2742 
Q 959 2388 959 1747 
Q 959 1106 1268 751 
Q 1578 397 2138 397 
Q 2388 397 2633 464 
Q 2878 531 3122 666 
L 3122 134 
Q 2881 22 2623 -34 
Q 2366 -91 2075 -91 
Q 1284 -91 818 406 
Q 353 903 353 1747 
Q 353 2603 823 3093 
Q 1294 3584 2113 3584 
Q 2378 3584 2631 3529 
Q 2884 3475 3122 3366 
z
" id="DejaVuSans-63" transform="scale(0.015625)"/>
       <path d="M 1984 4856 
Q 1566 4138 1362 3434 
Q 1159 2731 1159 2009 
Q 1159 1288 1364 580 
Q 1569 -128 1984 -844 
L 1484 -844 
Q 1016 -109 783 600 
Q 550 1309 550 2009 
Q 550 2706 781 3412 
Q 1013 4119 1484 4856 
L 1984 4856 
z
" id="DejaVuSans-28" transform="scale(0.015625)"/>
       <path d="M 513 4856 
L 1013 4856 
Q 1481 4119 1714 3412 
Q 1947 2706 1947 2009 
Q 1947 1309 1714 600 
Q 1481 -109 1013 -844 
L 513 -844 
Q 928 -128 1133 580 
Q 1338 1288 1338 2009 
Q 1338 2731 1133 3434 
Q 928 4138 513 4856 
z
" id="DejaVuSans-29" transform="scale(0.015625)"/>
      </defs>
      <use xlink:href="#DejaVuSans-44"/>
      <use x="77.001953" xlink:href="#DejaVuSans-65"/>
      <use x="138.525391" xlink:href="#DejaVuSans-6d"/>
      <use x="235.9375" xlink:href="#DejaVuSans-61"/>
      <use x="297.216797" xlink:href="#DejaVuSans-6e"/>
      <use x="360.595703" xlink:href="#DejaVuSans-64"/>
      <use x="424.072266" xlink:href="#DejaVuSans-20"/>
      <use x="455.859375" xlink:href="#DejaVuSans-64"/>
      <use x="519.335938" xlink:href="#DejaVuSans-69"/>
      <use x="547.119141" xlink:href="#DejaVuSans-66"/>
      <use x="582.324219" xlink:href="#DejaVuSans-66"/>
      <use x="617.529297" xlink:href="#DejaVuSans-65"/>
      <use x="679.052734" xlink:href="#DejaVuSans-72"/>
      <use x="717.916016" xlink:href="#DejaVuSans-65"/>
      <use x="779.439453" xlink:href="#DejaVuSans-6e"/>
      <use x="842.818359" xlink:href="#DejaVuSans-63"/>
      <use x="897.798828" xlink:href="#DejaVuSans-65"/>
      <use x="959.322266" xlink:href="#DejaVuSans-20"/>
      <use x="991.109375" xlink:href="#DejaVuSans-28"/>
      <use x="1030.123047" xlink:href="#DejaVuSans-4d"/>
      <use x="1116.402344" xlink:href="#DejaVuSans-57"/>
      <use x="1215.279297" xlink:href="#DejaVuSans-29"/>
     </g>
    </g>
   </g>
   <g id="line2d_29">
    <path clip-path="url(#p3ba9ce5ea5)" d="M 46.741763 214.046952 
L 48.700474 233.119141 
L 50.659184 238.852633 
L 52.617895 250.272248 
L 56.535316 274.035482 
L 58.494026 281.237894 
L 60.452737 292.088904 
L 62.411447 290.501521 
L 64.370158 292.989197 
L 66.328868 297.940859 
L 68.287579 291.828287 
L 70.24629 281.07205 
L 72.205 249.466716 
L 74.163711 211.72512 
L 76.122421 165.027884 
L 78.081132 139.961596 
L 80.039842 143.989264 
L 81.998553 159.460236 
L 83.957263 156.356552 
L 85.915974 156.759323 
L 87.874684 155.598413 
L 89.833395 156.617181 
L 91.792106 159.294369 
L 93.750816 163.156215 
L 95.709527 161.47407 
L 97.668237 153.442414 
L 99.626948 163.108812 
L 101.585658 170.87985 
L 103.544369 172.040772 
L 105.503079 168.297412 
L 107.46179 157.754389 
L 109.4205 151.262736 
L 111.379211 119.965401 
L 115.296632 31.048771 
L 117.255343 22.519604 
L 119.214053 28.06355 
L 121.172764 34.555226 
L 123.131474 50.42897 
L 125.090185 63.815003 
L 127.048895 81.039226 
L 129.007606 92.814197 
L 130.966316 107.242722 
L 132.925027 139.582527 
L 134.883738 155.930102 
L 136.842448 158.84424 
L 138.801159 170.334937 
L 140.759869 219.218844 
L 142.71858 239.831025 
L 144.67729 244.237762 
L 146.636001 257.481664 
L 148.594711 275.227099 
L 150.553422 281.623979 
L 154.470843 296.26573 
L 156.429554 296.550026 
L 158.388264 299.487855 
L 160.346975 304.510589 
L 162.305685 300.672467 
L 164.264396 290.816534 
L 166.223106 263.712711 
L 168.181817 230.804302 
L 170.140527 189.911663 
L 172.099238 162.191833 
L 174.057948 159.84631 
L 176.016659 173.137627 
L 177.97537 170.294549 
L 181.892791 171.028986 
L 183.851501 166.101037 
L 185.810212 167.356709 
L 187.768922 169.441625 
L 191.686343 156.10295 
L 193.645054 165.556123 
L 195.603764 168.707188 
L 197.562475 172.474227 
L 199.521186 173.208687 
L 201.479896 168.517642 
L 203.438607 161.030922 
L 205.397317 135.609244 
L 207.356028 97.227961 
L 209.314738 48.351035 
L 211.273449 36.694505 
L 213.232159 43.683692 
L 215.19087 48.44582 
L 217.14958 65.81214 
L 219.108291 80.548675 
L 221.067002 93.81629 
L 223.025712 109.168799 
L 224.984423 121.2281 
L 226.943133 145.796854 
L 228.901844 165.295517 
L 230.860554 166.740735 
L 232.819265 182.946145 
L 234.777975 207.915332 
L 236.736686 225.779208 
L 238.695396 230.659799 
L 240.654107 242.316329 
L 244.571528 270.46261 
L 246.530239 278.257316 
L 248.488949 284.74897 
L 250.44766 283.801285 
L 252.40637 289.866477 
L 254.365081 290.364021 
L 256.323791 286.573269 
L 258.282502 274.395504 
L 262.199923 217.344803 
L 264.158634 170.221094 
L 266.117344 146.292037 
L 268.076055 157.451034 
L 270.034765 173.135254 
L 271.993476 169.534037 
L 273.952186 172.661401 
L 275.910897 168.1362 
L 277.869607 166.501436 
L 279.828318 171.429408 
L 281.787028 175.575516 
L 283.745739 170.529103 
L 285.70445 167.804511 
L 287.66316 178.25275 
L 289.621871 183.607183 
L 291.580581 185.668398 
L 293.539292 188.535144 
L 295.498002 181.853967 
L 297.456713 177.210303 
L 299.415423 152.594168 
L 301.374134 110.682727 
L 303.332844 58.512594 
L 305.291555 35.365378 
L 307.250266 31.408793 
L 309.208976 40.29335 
L 311.167687 56.948935 
L 313.126397 65.004247 
L 315.085108 73.865125 
L 317.043818 87.345965 
L 319.002529 95.614526 
L 320.961239 125.158633 
L 322.91995 149.514162 
L 324.87866 157.21413 
L 326.837371 171.382027 
L 328.796082 198.630161 
L 330.754792 223.578008 
L 332.713503 226.255219 
L 334.672213 237.816987 
L 336.630924 252.719344 
L 338.589634 260.39561 
L 340.548345 265.750044 
L 342.507055 276.387817 
L 344.465766 274.847826 
L 346.424476 281.38686 
L 348.383187 284.79852 
L 350.341898 279.965332 
L 352.300608 269.611856 
L 354.259319 243.455729 
L 356.218029 209.978716 
L 358.17674 164.916244 
L 360.13545 140.608073 
L 362.094161 143.972363 
L 364.052871 160.699053 
L 366.011582 156.979372 
L 367.970292 163.352562 
L 369.929003 158.993206 
L 371.887714 161.43349 
L 373.846424 162.926089 
L 375.805135 160.201497 
L 377.763845 162.215331 
L 379.722556 156.60028 
L 381.681266 159.561799 
L 383.639977 161.457192 
L 385.598687 160.485805 
L 387.557398 156.52922 
L 389.516108 153.449237 
L 391.474819 153.970472 
L 393.43353 124.047273 
L 395.39224 87.087506 
L 397.350951 45.768405 
L 399.309661 30.15529 
L 401.268372 33.187869 
L 405.185793 52.425903 
L 407.144503 60.362775 
L 409.103214 77.421108 
L 411.061924 97.204056 
L 413.020635 112.414422 
L 416.938056 151.151096 
L 418.896767 152.406791 
L 420.855477 169.488803 
L 422.814188 197.17124 
L 424.772898 220.508001 
L 426.731609 226.359968 
L 428.690319 237.661119 
L 430.64903 251.805336 
L 432.60774 261.874494 
L 436.525162 277.392847 
L 438.483872 279.762071 
L 440.442583 286.964483 
L 442.401293 288.599248 
L 444.360004 285.850954 
L 446.318714 273.673189 
L 448.277425 249.601968 
L 450.236135 219.844613 
L 452.194846 172.176001 
L 454.153556 145.664495 
L 456.112267 146.398932 
L 458.070978 162.083153 
L 460.029688 162.36746 
L 461.988399 164.926208 
L 463.947109 163.220384 
L 465.90582 164.333891 
L 467.86453 170.067428 
L 469.823241 173.692324 
L 471.781951 176.938128 
L 473.740662 171.109875 
L 475.699372 176.985509 
L 477.658083 180.255038 
L 479.616794 187.481129 
L 481.575504 190.395267 
L 483.534215 187.670675 
L 485.492925 186.817751 
L 487.451636 163.83638 
L 489.410346 134.079025 
L 491.369057 82.051057 
L 493.327767 64.092397 
L 495.286478 63.523804 
L 497.245188 70.560372 
L 501.16261 105.672149 
L 503.12132 116.617921 
L 507.038741 150.284457 
L 510.956162 187.433771 
L 512.914873 184.85131 
L 514.873583 179.97073 
L 516.832294 179.780924 
L 518.791004 199.13741 
L 520.749715 205.344756 
L 522.708426 220.247124 
L 524.667136 237.423932 
L 526.625847 252.160444 
L 528.584557 263.319452 
L 530.543268 273.601847 
L 532.501978 274.478449 
L 536.419399 290.138968 
L 538.37811 291.773721 
L 540.33682 286.86945 
L 542.295531 282.889175 
L 544.254242 281.728253 
L 546.212952 262.513921 
L 548.171663 245.810956 
L 550.130373 226.146471 
L 554.047794 178.691085 
L 556.006505 162.912114 
L 557.965215 145.972233 
L 559.923926 137.798435 
L 561.882636 136.637524 
L 563.841347 136.590121 
L 565.800058 136.187372 
L 567.758768 127.871431 
L 569.717479 136.447978 
L 571.676189 137.656292 
L 573.6349 139.883351 
L 575.59361 144.408529 
L 577.552321 146.066995 
L 579.511031 155.804453 
L 581.469742 147.227906 
L 583.428452 133.296936 
L 585.387163 97.687603 
L 587.345874 71.2235 
L 589.304584 73.663762 
L 591.263295 83.780335 
L 593.222005 95.413163 
L 595.180716 112.779528 
L 597.139426 128.771713 
L 601.056847 157.5103 
L 603.015558 173.739423 
L 604.974268 184.021817 
L 606.932979 169.52222 
L 608.89169 166.48963 
L 610.8504 188.958228 
L 612.809111 207.888264 
L 614.767821 223.762007 
L 618.685242 261.053452 
L 620.643953 274.036747 
L 622.602663 284.698211 
L 624.561374 293.772314 
L 626.520084 293.488007 
L 628.478795 289.697266 
L 632.396216 289.270804 
L 634.354927 286.143441 
L 636.313637 280.86009 
L 638.272348 282.139464 
L 640.231058 268.279554 
L 642.189769 266.265731 
L 644.148479 254.798725 
L 646.10719 237.171765 
L 648.0659 217.436198 
L 650.024611 203.126136 
L 651.983322 182.869346 
L 653.942032 170.194037 
L 655.900743 167.090364 
L 657.859453 165.289766 
L 659.818164 162.896863 
L 661.776874 149.98465 
L 663.735585 155.173228 
L 665.694295 168.582985 
L 667.653006 177.041081 
L 669.611716 177.277996 
L 671.570427 174.529714 
L 673.529138 170.075584 
L 675.487848 149.179107 
L 677.446559 116.057462 
L 679.405269 72.321779 
L 681.36398 59.314792 
L 683.32269 59.717564 
L 685.281401 71.042382 
L 687.240111 83.528156 
L 689.198822 99.496684 
L 691.157532 113.783022 
L 693.116243 130.249083 
L 695.074954 143.185009 
L 697.033664 160.124879 
L 698.992375 179.054915 
L 700.951085 173.510946 
L 702.909796 180.618596 
L 702.909796 180.618596 
" style="fill:none;stroke:#d62728;stroke-dasharray:7.4,3.2;stroke-dashoffset:0;stroke-width:2;"/>
   </g>
   <g id="line2d_30">
    <path clip-path="url(#p3ba9ce5ea5)" d="M 46.741763 220.002662 
L 48.700474 239.098158 
L 54.576605 268.723747 
L 60.452737 291.242793 
L 62.411447 295.937001 
L 64.370158 303.953315 
L 66.328868 310.644321 
L 68.287579 309.518274 
L 70.24629 295.03951 
L 72.205 265.659852 
L 74.163711 228.299296 
L 76.122421 183.876251 
L 78.081132 158.425957 
L 80.039842 157.336536 
L 81.998553 166.619843 
L 83.957263 166.895135 
L 85.915974 167.523107 
L 87.874684 166.97939 
L 89.833395 166.60493 
L 91.792106 167.680772 
L 93.750816 168.931394 
L 95.709527 167.843193 
L 97.668237 162.35788 
L 99.626948 168.049053 
L 101.585658 173.289655 
L 103.544369 177.146823 
L 105.503079 177.354456 
L 107.46179 173.140237 
L 109.4205 163.988306 
L 111.379211 135.909007 
L 115.296632 53.665691 
L 117.255343 41.774268 
L 119.214053 48.60179 
L 121.172764 60.646382 
L 125.090185 87.148172 
L 127.048895 101.347543 
L 129.007606 118.871664 
L 130.966316 135.125087 
L 132.925027 153.876332 
L 134.883738 167.970356 
L 136.842448 167.067543 
L 138.801159 176.539865 
L 140.759869 223.123168 
L 142.71858 243.021269 
L 148.594711 271.593458 
L 150.553422 278.514737 
L 152.512132 284.308025 
L 154.470843 291.51699 
L 156.429554 294.226048 
L 160.346975 304.602605 
L 162.305685 302.463812 
L 164.264396 288.483507 
L 166.223106 258.708392 
L 168.181817 219.640323 
L 170.140527 174.45087 
L 172.099238 150.262744 
L 174.057948 154.309787 
L 176.016659 171.121104 
L 177.97537 177.485765 
L 179.93408 181.519443 
L 181.892791 182.510012 
L 183.851501 183.04303 
L 185.810212 183.925643 
L 187.768922 186.845667 
L 189.727633 186.737236 
L 191.686343 182.521796 
L 195.603764 196.318531 
L 197.562475 200.530446 
L 199.521186 200.256475 
L 201.479896 193.991604 
L 203.438607 183.983677 
L 205.397317 153.787094 
L 209.314738 69.979171 
L 211.273449 56.452305 
L 213.232159 59.624338 
L 215.19087 67.547472 
L 221.067002 106.096656 
L 223.025712 121.079246 
L 224.984423 137.658845 
L 226.943133 160.224182 
L 228.901844 176.292104 
L 230.860554 177.138893 
L 232.819265 186.908582 
L 234.777975 213.467355 
L 236.736686 232.104633 
L 238.695396 240.037556 
L 240.654107 249.466411 
L 242.612818 261.497136 
L 244.571528 269.760042 
L 248.488949 283.692481 
L 250.44766 286.67795 
L 252.40637 292.274891 
L 254.365081 298.557997 
L 256.323791 297.142694 
L 258.282502 286.175141 
L 260.241212 261.12759 
L 262.199923 226.535155 
L 264.158634 183.769887 
L 266.117344 157.03413 
L 268.076055 155.452553 
L 270.034765 166.923265 
L 271.993476 167.60395 
L 273.952186 166.872574 
L 275.910897 165.731434 
L 277.869607 163.500794 
L 279.828318 162.191979 
L 281.787028 163.046993 
L 283.745739 160.657072 
L 285.70445 155.270509 
L 287.66316 161.421933 
L 289.621871 165.988527 
L 291.580581 168.058169 
L 293.539292 168.351798 
L 295.498002 163.775273 
L 297.456713 155.839972 
L 299.415423 130.097609 
L 303.332844 55.866947 
L 305.291555 44.756709 
L 307.250266 49.951795 
L 309.208976 58.609615 
L 313.126397 84.760307 
L 317.043818 111.130507 
L 319.002529 126.250833 
L 320.961239 146.954748 
L 322.91995 161.179674 
L 324.87866 161.25993 
L 326.837371 172.375601 
L 328.796082 205.905961 
L 330.754792 223.092111 
L 332.713503 229.828611 
L 334.672213 238.156471 
L 336.630924 249.572826 
L 338.589634 259.487448 
L 340.548345 267.219274 
L 342.507055 273.965896 
L 344.465766 276.115467 
L 346.424476 281.847575 
L 348.383187 286.630535 
L 350.341898 284.988202 
L 352.300608 274.258689 
L 354.259319 248.813032 
L 356.218029 215.15289 
L 358.17674 171.053998 
L 360.13545 145.977442 
L 362.094161 149.452547 
L 364.052871 162.887373 
L 366.011582 162.698392 
L 367.970292 161.385285 
L 369.929003 158.32279 
L 371.887714 155.991909 
L 373.846424 155.500748 
L 375.805135 157.137964 
L 377.763845 154.64378 
L 379.722556 150.420861 
L 381.681266 156.87172 
L 383.639977 160.005105 
L 387.557398 160.268219 
L 389.516108 156.595388 
L 391.474819 151.025605 
L 393.43353 126.293356 
L 395.39224 87.89829 
L 397.350951 47.252486 
L 399.309661 33.896503 
L 401.268372 36.612623 
L 403.227082 43.756718 
L 405.185793 56.657171 
L 409.103214 79.29411 
L 411.061924 91.45242 
L 413.020635 104.53015 
L 414.979346 126.030491 
L 416.938056 142.602916 
L 418.896767 145.273846 
L 420.855477 158.472276 
L 422.814188 195.951007 
L 424.772898 215.772806 
L 426.731609 224.671824 
L 428.690319 235.183113 
L 430.64903 248.263526 
L 432.60774 257.720765 
L 436.525162 272.69251 
L 438.483872 275.150108 
L 440.442583 281.974828 
L 442.401293 287.485436 
L 444.360004 286.409402 
L 446.318714 277.099095 
L 448.277425 254.330401 
L 450.236135 222.376337 
L 452.194846 180.898814 
L 454.153556 155.369925 
L 456.112267 155.491168 
L 458.070978 166.454642 
L 460.029688 166.239564 
L 461.988399 167.277639 
L 463.947109 166.163059 
L 465.90582 166.764708 
L 467.86453 168.545851 
L 469.823241 169.735525 
L 471.781951 168.337665 
L 473.740662 165.297381 
L 475.699372 170.652831 
L 477.658083 174.749774 
L 479.616794 177.55565 
L 481.575504 179.511585 
L 483.534215 179.540744 
L 485.492925 178.615427 
L 487.451636 157.709562 
L 489.410346 122.825244 
L 491.369057 82.158992 
L 493.327767 65.534723 
L 495.286478 67.549235 
L 497.245188 77.096627 
L 501.16261 107.303027 
L 505.080031 141.313374 
L 508.997452 170.507141 
L 510.956162 178.02172 
L 512.914873 170.105601 
L 514.873583 175.209755 
L 516.832294 173.500858 
L 518.791004 191.526239 
L 520.749715 203.463326 
L 522.708426 218.750243 
L 524.667136 235.798025 
L 526.625847 248.526454 
L 528.584557 257.499 
L 530.543268 263.964709 
L 532.501978 264.937965 
L 536.419399 274.543957 
L 538.37811 277.841361 
L 540.33682 278.970374 
L 542.295531 275.239661 
L 544.254242 268.264489 
L 548.171663 226.713935 
L 550.130373 211.802529 
L 552.089084 195.573858 
L 554.047794 171.220667 
L 556.006505 155.69496 
L 557.965215 145.514987 
L 559.923926 142.891505 
L 561.882636 146.83363 
L 563.841347 153.304327 
L 565.800058 158.315583 
L 567.758768 158.958693 
L 569.717479 168.493884 
L 571.676189 176.669659 
L 573.6349 184.068362 
L 575.59361 189.784253 
L 577.552321 192.930324 
L 579.511031 194.458069 
L 581.469742 177.053948 
L 583.428452 146.562224 
L 585.387163 106.065431 
L 587.345874 86.85259 
L 589.304584 84.5347 
L 591.263295 90.880054 
L 593.222005 104.213352 
L 595.180716 119.539334 
L 597.139426 132.882348 
L 599.098137 148.016231 
L 601.056847 160.656643 
L 603.015558 172.348861 
L 604.974268 177.552916 
L 606.932979 167.06133 
L 608.89169 166.605698 
L 610.8504 188.328652 
L 612.809111 206.811846 
L 614.767821 219.027117 
L 616.726532 234.737649 
L 618.685242 251.864788 
L 620.643953 265.181993 
L 622.602663 274.571686 
L 624.561374 280.8432 
L 626.520084 280.763758 
L 628.478795 282.890056 
L 630.437506 284.664941 
L 632.396216 284.226244 
L 634.354927 281.857178 
L 638.272348 273.129654 
L 640.231058 259.272862 
L 642.189769 248.506672 
L 644.148479 240.319497 
L 646.10719 227.074398 
L 648.0659 204.771813 
L 650.024611 188.587496 
L 651.983322 175.239241 
L 653.942032 168.535853 
L 655.900743 167.407558 
L 657.859453 167.89568 
L 659.818164 166.58246 
L 661.776874 161.121154 
L 663.735585 165.798766 
L 665.694295 169.875329 
L 667.653006 173.477788 
L 669.611716 175.364019 
L 671.570427 175.652191 
L 673.529138 177.100414 
L 675.487848 161.572605 
L 677.446559 135.199152 
L 679.405269 98.797879 
L 681.36398 81.292828 
L 683.32269 83.011599 
L 685.281401 90.617053 
L 687.240111 100.448979 
L 689.198822 111.003909 
L 691.157532 122.269959 
L 695.074954 148.402056 
L 697.033664 163.910886 
L 698.992375 174.552546 
L 700.951085 172.237944 
L 702.909796 180.105608 
L 702.909796 180.105608 
" style="fill:none;stroke:#1f77b4;stroke-linecap:square;stroke-width:1.5;"/>
   </g>
   <g id="patch_3">
    <path d="M 44.783053 326.64351 
L 44.783053 6.799459 
" style="fill:none;stroke:#000000;stroke-linecap:square;stroke-linejoin:miter;stroke-width:0.8;"/>
   </g>
   <g id="patch_4">
    <path d="M 706.827217 326.64351 
L 706.827217 6.799459 
" style="fill:none;stroke:#000000;stroke-linecap:square;stroke-linejoin:miter;stroke-width:0.8;"/>
   </g>
   <g id="patch_5">
    <path d="M 44.783053 326.64351 
L 706.827217 326.64351 
" style="fill:none;stroke:#000000;stroke-linecap:square;stroke-linejoin:miter;stroke-width:0.8;"/>
   </g>
   <g id="patch_6">
    <path d="M 44.783053 6.799459 
L 706.827217 6.799459 
" style="fill:none;stroke:#000000;stroke-linecap:square;stroke-linejoin:miter;stroke-width:0.8;"/>
   </g>
   <g id="legend_1">
    <g id="patch_7">
     <path d="M 192.977791 29.477584 
L 558.632478 29.477584 
L 558.632478 11.799459 
L 192.977791 11.799459 
z
" style="fill:#ffffff;opacity:0.95;stroke:#000000;stroke-linejoin:miter;"/>
    </g>
    <g id="line2d_31">
     <path d="M 196.977791 19.897896 
L 216.977791 19.897896 
" style="fill:none;stroke:#d62728;stroke-dasharray:7.4,3.2;stroke-dashoffset:0;stroke-width:2;"/>
    </g>
    <g id="line2d_32"/>
    <g id="text_17">
     <!-- Actual demand difference -->
     <g transform="translate(224.977791 23.397896)scale(0.1 -0.1)">
      <defs>
       <path d="M 2188 4044 
L 1331 1722 
L 3047 1722 
L 2188 4044 
z
M 1831 4666 
L 2547 4666 
L 4325 0 
L 3669 0 
L 3244 1197 
L 1141 1197 
L 716 0 
L 50 0 
L 1831 4666 
z
" id="DejaVuSans-41" transform="scale(0.015625)"/>
       <path d="M 603 4863 
L 1178 4863 
L 1178 0 
L 603 0 
L 603 4863 
z
" id="DejaVuSans-6c" transform="scale(0.015625)"/>
      </defs>
      <use xlink:href="#DejaVuSans-41"/>
      <use x="66.658203" xlink:href="#DejaVuSans-63"/>
      <use x="121.638672" xlink:href="#DejaVuSans-74"/>
      <use x="160.847656" xlink:href="#DejaVuSans-75"/>
      <use x="224.226562" xlink:href="#DejaVuSans-61"/>
      <use x="285.505859" xlink:href="#DejaVuSans-6c"/>
      <use x="313.289062" xlink:href="#DejaVuSans-20"/>
      <use x="345.076172" xlink:href="#DejaVuSans-64"/>
      <use x="408.552734" xlink:href="#DejaVuSans-65"/>
      <use x="470.076172" xlink:href="#DejaVuSans-6d"/>
      <use x="567.488281" xlink:href="#DejaVuSans-61"/>
      <use x="628.767578" xlink:href="#DejaVuSans-6e"/>
      <use x="692.146484" xlink:href="#DejaVuSans-64"/>
      <use x="755.623047" xlink:href="#DejaVuSans-20"/>
      <use x="787.410156" xlink:href="#DejaVuSans-64"/>
      <use x="850.886719" xlink:href="#DejaVuSans-69"/>
      <use x="878.669922" xlink:href="#DejaVuSans-66"/>
      <use x="913.875" xlink:href="#DejaVuSans-66"/>
      <use x="949.080078" xlink:href="#DejaVuSans-65"/>
      <use x="1010.603516" xlink:href="#DejaVuSans-72"/>
      <use x="1049.466797" xlink:href="#DejaVuSans-65"/>
      <use x="1110.990234" xlink:href="#DejaVuSans-6e"/>
      <use x="1174.369141" xlink:href="#DejaVuSans-63"/>
      <use x="1229.349609" xlink:href="#DejaVuSans-65"/>
     </g>
    </g>
    <g id="line2d_33">
     <path d="M 374.066853 19.897896 
L 394.066853 19.897896 
" style="fill:none;stroke:#1f77b4;stroke-linecap:square;stroke-width:1.5;"/>
    </g>
    <g id="line2d_34"/>
    <g id="text_18">
     <!-- Forecasted demand difference -->
     <g transform="translate(402.066853 23.397896)scale(0.1 -0.1)">
      <defs>
       <path d="M 2834 3397 
L 2834 2853 
Q 2591 2978 2328 3040 
Q 2066 3103 1784 3103 
Q 1356 3103 1142 2972 
Q 928 2841 928 2578 
Q 928 2378 1081 2264 
Q 1234 2150 1697 2047 
L 1894 2003 
Q 2506 1872 2764 1633 
Q 3022 1394 3022 966 
Q 3022 478 2636 193 
Q 2250 -91 1575 -91 
Q 1294 -91 989 -36 
Q 684 19 347 128 
L 347 722 
Q 666 556 975 473 
Q 1284 391 1588 391 
Q 1994 391 2212 530 
Q 2431 669 2431 922 
Q 2431 1156 2273 1281 
Q 2116 1406 1581 1522 
L 1381 1569 
Q 847 1681 609 1914 
Q 372 2147 372 2553 
Q 372 3047 722 3315 
Q 1072 3584 1716 3584 
Q 2034 3584 2315 3537 
Q 2597 3491 2834 3397 
z
" id="DejaVuSans-73" transform="scale(0.015625)"/>
      </defs>
      <use xlink:href="#DejaVuSans-46"/>
      <use x="53.894531" xlink:href="#DejaVuSans-6f"/>
      <use x="115.076172" xlink:href="#DejaVuSans-72"/>
      <use x="153.939453" xlink:href="#DejaVuSans-65"/>
      <use x="215.462891" xlink:href="#DejaVuSans-63"/>
      <use x="270.443359" xlink:href="#DejaVuSans-61"/>
      <use x="331.722656" xlink:href="#DejaVuSans-73"/>
      <use x="383.822266" xlink:href="#DejaVuSans-74"/>
      <use x="423.03125" xlink:href="#DejaVuSans-65"/>
      <use x="484.554688" xlink:href="#DejaVuSans-64"/>
      <use x="548.03125" xlink:href="#DejaVuSans-20"/>
      <use x="579.818359" xlink:href="#DejaVuSans-64"/>
      <use x="643.294922" xlink:href="#DejaVuSans-65"/>
      <use x="704.818359" xlink:href="#DejaVuSans-6d"/>
      <use x="802.230469" xlink:href="#DejaVuSans-61"/>
      <use x="863.509766" xlink:href="#DejaVuSans-6e"/>
      <use x="926.888672" xlink:href="#DejaVuSans-64"/>
      <use x="990.365234" xlink:href="#DejaVuSans-20"/>
      <use x="1022.152344" xlink:href="#DejaVuSans-64"/>
      <use x="1085.628906" xlink:href="#DejaVuSans-69"/>
      <use x="1113.412109" xlink:href="#DejaVuSans-66"/>
      <use x="1148.617188" xlink:href="#DejaVuSans-66"/>
      <use x="1183.822266" xlink:href="#DejaVuSans-65"/>
      <use x="1245.345703" xlink:href="#DejaVuSans-72"/>
      <use x="1284.208984" xlink:href="#DejaVuSans-65"/>
      <use x="1345.732422" xlink:href="#DejaVuSans-6e"/>
      <use x="1409.111328" xlink:href="#DejaVuSans-63"/>
      <use x="1464.091797" xlink:href="#DejaVuSans-65"/>
     </g>
    </g>
   </g>
  </g>
 </g>
 <defs>
  <clipPath id="p3ba9ce5ea5">
   <rect height="319.844051" width="662.044164" x="44.783053" y="6.799459"/>
  </clipPath>
 </defs>
</svg>
