<?xml version="1.0" encoding="utf-8" standalone="no"?>
<!DOCTYPE svg PUBLIC "-//W3C//DTD SVG 1.1//EN"
  "http://www.w3.org/Graphics/SVG/1.1/DTD/svg11.dtd">
<svg height="360pt" version="1.1" viewBox="0 0 720 360" width="720pt" xmlns="http://www.w3.org/2000/svg" xmlns:xlink="http://www.w3.org/1999/xlink">
 <metadata>
  <rdf:RDF xmlns:cc="http://creativecommons.org/ns#" xmlns:dc="http://purl.org/dc/elements/1.1/" xmlns:rdf="http://www.w3.org/1999/02/22-rdf-syntax-ns#">
   <cc:Work>
    <dc:type rdf:resource="http://purl.org/dc/dcmitype/StillImage"/>
    <dc:date>2022-04-24T10:09:06.629441</dc:date>
    <dc:format>image/svg+xml</dc:format>
    <dc:creator>
     <cc:Agent>
      <dc:title>Matplotlib v3.4.3, https://matplotlib.org/</dc:title>
     </cc:Agent>
    </dc:creator>
   </cc:Work>
  </rdf:RDF>
 </metadata>
 <defs>
  <style type="text/css">*{stroke-linecap:butt;stroke-linejoin:round;}</style>
 </defs>
 <g id="figure_1">
  <g id="patch_1">
   <path d="M 0 360 
L 720 360 
L 720 0 
L 0 0 
z
" style="fill:#ffffff;"/>
  </g>
  <g id="axes_1">
   <g id="patch_2">
    <path d="M 36.403365 326.64351 
L 706.852082 326.64351 
L 706.852082 6.799459 
L 36.403365 6.799459 
z
" style="fill:#ffffff;"/>
   </g>
   <g id="matplotlib.axis_1">
    <g id="xtick_1">
     <g id="line2d_1">
      <path clip-path="url(#p7741a86d43)" d="M 38.386941 326.64351 
L 38.386941 6.799459 
" style="fill:none;stroke:#b0b0b0;stroke-linecap:square;stroke-width:0.8;"/>
     </g>
     <g id="line2d_2">
      <defs>
       <path d="M 0 0 
L 0 3.5 
" id="m9b35b4e976" style="stroke:#000000;stroke-width:0.8;"/>
      </defs>
      <g>
       <use style="stroke:#000000;stroke-width:0.8;" x="38.386941" xlink:href="#m9b35b4e976" y="326.64351"/>
      </g>
     </g>
     <g id="text_1">
      <!-- Mon. -->
      <g transform="translate(26.255691 341.241947)scale(0.1 -0.1)">
       <defs>
        <path d="M 628 4666 
L 1569 4666 
L 2759 1491 
L 3956 4666 
L 4897 4666 
L 4897 0 
L 4281 0 
L 4281 4097 
L 3078 897 
L 2444 897 
L 1241 4097 
L 1241 0 
L 628 0 
L 628 4666 
z
" id="DejaVuSans-4d" transform="scale(0.015625)"/>
        <path d="M 1959 3097 
Q 1497 3097 1228 2736 
Q 959 2375 959 1747 
Q 959 1119 1226 758 
Q 1494 397 1959 397 
Q 2419 397 2687 759 
Q 2956 1122 2956 1747 
Q 2956 2369 2687 2733 
Q 2419 3097 1959 3097 
z
M 1959 3584 
Q 2709 3584 3137 3096 
Q 3566 2609 3566 1747 
Q 3566 888 3137 398 
Q 2709 -91 1959 -91 
Q 1206 -91 779 398 
Q 353 888 353 1747 
Q 353 2609 779 3096 
Q 1206 3584 1959 3584 
z
" id="DejaVuSans-6f" transform="scale(0.015625)"/>
        <path d="M 3513 2113 
L 3513 0 
L 2938 0 
L 2938 2094 
Q 2938 2591 2744 2837 
Q 2550 3084 2163 3084 
Q 1697 3084 1428 2787 
Q 1159 2491 1159 1978 
L 1159 0 
L 581 0 
L 581 3500 
L 1159 3500 
L 1159 2956 
Q 1366 3272 1645 3428 
Q 1925 3584 2291 3584 
Q 2894 3584 3203 3211 
Q 3513 2838 3513 2113 
z
" id="DejaVuSans-6e" transform="scale(0.015625)"/>
        <path d="M 684 794 
L 1344 794 
L 1344 0 
L 684 0 
L 684 794 
z
" id="DejaVuSans-2e" transform="scale(0.015625)"/>
       </defs>
       <use xlink:href="#DejaVuSans-4d"/>
       <use x="86.279297" xlink:href="#DejaVuSans-6f"/>
       <use x="147.460938" xlink:href="#DejaVuSans-6e"/>
       <use x="210.839844" xlink:href="#DejaVuSans-2e"/>
      </g>
     </g>
    </g>
    <g id="xtick_2">
     <g id="line2d_3">
      <path clip-path="url(#p7741a86d43)" d="M 133.598593 326.64351 
L 133.598593 6.799459 
" style="fill:none;stroke:#b0b0b0;stroke-linecap:square;stroke-width:0.8;"/>
     </g>
     <g id="line2d_4">
      <g>
       <use style="stroke:#000000;stroke-width:0.8;" x="133.598593" xlink:href="#m9b35b4e976" y="326.64351"/>
      </g>
     </g>
     <g id="text_2">
      <!-- Tue. -->
      <g transform="translate(123.466562 341.241947)scale(0.1 -0.1)">
       <defs>
        <path d="M -19 4666 
L 3928 4666 
L 3928 4134 
L 2272 4134 
L 2272 0 
L 1638 0 
L 1638 4134 
L -19 4134 
L -19 4666 
z
" id="DejaVuSans-54" transform="scale(0.015625)"/>
        <path d="M 544 1381 
L 544 3500 
L 1119 3500 
L 1119 1403 
Q 1119 906 1312 657 
Q 1506 409 1894 409 
Q 2359 409 2629 706 
Q 2900 1003 2900 1516 
L 2900 3500 
L 3475 3500 
L 3475 0 
L 2900 0 
L 2900 538 
Q 2691 219 2414 64 
Q 2138 -91 1772 -91 
Q 1169 -91 856 284 
Q 544 659 544 1381 
z
M 1991 3584 
L 1991 3584 
z
" id="DejaVuSans-75" transform="scale(0.015625)"/>
        <path d="M 3597 1894 
L 3597 1613 
L 953 1613 
Q 991 1019 1311 708 
Q 1631 397 2203 397 
Q 2534 397 2845 478 
Q 3156 559 3463 722 
L 3463 178 
Q 3153 47 2828 -22 
Q 2503 -91 2169 -91 
Q 1331 -91 842 396 
Q 353 884 353 1716 
Q 353 2575 817 3079 
Q 1281 3584 2069 3584 
Q 2775 3584 3186 3129 
Q 3597 2675 3597 1894 
z
M 3022 2063 
Q 3016 2534 2758 2815 
Q 2500 3097 2075 3097 
Q 1594 3097 1305 2825 
Q 1016 2553 972 2059 
L 3022 2063 
z
" id="DejaVuSans-65" transform="scale(0.015625)"/>
       </defs>
       <use xlink:href="#DejaVuSans-54"/>
       <use x="45.958984" xlink:href="#DejaVuSans-75"/>
       <use x="109.337891" xlink:href="#DejaVuSans-65"/>
       <use x="170.861328" xlink:href="#DejaVuSans-2e"/>
      </g>
     </g>
    </g>
    <g id="xtick_3">
     <g id="line2d_5">
      <path clip-path="url(#p7741a86d43)" d="M 228.810245 326.64351 
L 228.810245 6.799459 
" style="fill:none;stroke:#b0b0b0;stroke-linecap:square;stroke-width:0.8;"/>
     </g>
     <g id="line2d_6">
      <g>
       <use style="stroke:#000000;stroke-width:0.8;" x="228.810245" xlink:href="#m9b35b4e976" y="326.64351"/>
      </g>
     </g>
     <g id="text_3">
      <!-- Wed. -->
      <g transform="translate(216.320402 341.241947)scale(0.1 -0.1)">
       <defs>
        <path d="M 213 4666 
L 850 4666 
L 1831 722 
L 2809 4666 
L 3519 4666 
L 4500 722 
L 5478 4666 
L 6119 4666 
L 4947 0 
L 4153 0 
L 3169 4050 
L 2175 0 
L 1381 0 
L 213 4666 
z
" id="DejaVuSans-57" transform="scale(0.015625)"/>
        <path d="M 2906 2969 
L 2906 4863 
L 3481 4863 
L 3481 0 
L 2906 0 
L 2906 525 
Q 2725 213 2448 61 
Q 2172 -91 1784 -91 
Q 1150 -91 751 415 
Q 353 922 353 1747 
Q 353 2572 751 3078 
Q 1150 3584 1784 3584 
Q 2172 3584 2448 3432 
Q 2725 3281 2906 2969 
z
M 947 1747 
Q 947 1113 1208 752 
Q 1469 391 1925 391 
Q 2381 391 2643 752 
Q 2906 1113 2906 1747 
Q 2906 2381 2643 2742 
Q 2381 3103 1925 3103 
Q 1469 3103 1208 2742 
Q 947 2381 947 1747 
z
" id="DejaVuSans-64" transform="scale(0.015625)"/>
       </defs>
       <use xlink:href="#DejaVuSans-57"/>
       <use x="93.001953" xlink:href="#DejaVuSans-65"/>
       <use x="154.525391" xlink:href="#DejaVuSans-64"/>
       <use x="218.001953" xlink:href="#DejaVuSans-2e"/>
      </g>
     </g>
    </g>
    <g id="xtick_4">
     <g id="line2d_7">
      <path clip-path="url(#p7741a86d43)" d="M 324.021898 326.64351 
L 324.021898 6.799459 
" style="fill:none;stroke:#b0b0b0;stroke-linecap:square;stroke-width:0.8;"/>
     </g>
     <g id="line2d_8">
      <g>
       <use style="stroke:#000000;stroke-width:0.8;" x="324.021898" xlink:href="#m9b35b4e976" y="326.64351"/>
      </g>
     </g>
     <g id="text_4">
      <!-- Thur. -->
      <g transform="translate(311.44221 341.241947)scale(0.1 -0.1)">
       <defs>
        <path d="M 3513 2113 
L 3513 0 
L 2938 0 
L 2938 2094 
Q 2938 2591 2744 2837 
Q 2550 3084 2163 3084 
Q 1697 3084 1428 2787 
Q 1159 2491 1159 1978 
L 1159 0 
L 581 0 
L 581 4863 
L 1159 4863 
L 1159 2956 
Q 1366 3272 1645 3428 
Q 1925 3584 2291 3584 
Q 2894 3584 3203 3211 
Q 3513 2838 3513 2113 
z
" id="DejaVuSans-68" transform="scale(0.015625)"/>
        <path d="M 2631 2963 
Q 2534 3019 2420 3045 
Q 2306 3072 2169 3072 
Q 1681 3072 1420 2755 
Q 1159 2438 1159 1844 
L 1159 0 
L 581 0 
L 581 3500 
L 1159 3500 
L 1159 2956 
Q 1341 3275 1631 3429 
Q 1922 3584 2338 3584 
Q 2397 3584 2469 3576 
Q 2541 3569 2628 3553 
L 2631 2963 
z
" id="DejaVuSans-72" transform="scale(0.015625)"/>
       </defs>
       <use xlink:href="#DejaVuSans-54"/>
       <use x="61.083984" xlink:href="#DejaVuSans-68"/>
       <use x="124.462891" xlink:href="#DejaVuSans-75"/>
       <use x="187.841797" xlink:href="#DejaVuSans-72"/>
       <use x="219.830078" xlink:href="#DejaVuSans-2e"/>
      </g>
     </g>
    </g>
    <g id="xtick_5">
     <g id="line2d_9">
      <path clip-path="url(#p7741a86d43)" d="M 419.23355 326.64351 
L 419.23355 6.799459 
" style="fill:none;stroke:#b0b0b0;stroke-linecap:square;stroke-width:0.8;"/>
     </g>
     <g id="line2d_10">
      <g>
       <use style="stroke:#000000;stroke-width:0.8;" x="419.23355" xlink:href="#m9b35b4e976" y="326.64351"/>
      </g>
     </g>
     <g id="text_5">
      <!-- Fri. -->
      <g transform="translate(411.686675 341.241947)scale(0.1 -0.1)">
       <defs>
        <path d="M 628 4666 
L 3309 4666 
L 3309 4134 
L 1259 4134 
L 1259 2759 
L 3109 2759 
L 3109 2228 
L 1259 2228 
L 1259 0 
L 628 0 
L 628 4666 
z
" id="DejaVuSans-46" transform="scale(0.015625)"/>
        <path d="M 603 3500 
L 1178 3500 
L 1178 0 
L 603 0 
L 603 3500 
z
M 603 4863 
L 1178 4863 
L 1178 4134 
L 603 4134 
L 603 4863 
z
" id="DejaVuSans-69" transform="scale(0.015625)"/>
       </defs>
       <use xlink:href="#DejaVuSans-46"/>
       <use x="50.269531" xlink:href="#DejaVuSans-72"/>
       <use x="91.382812" xlink:href="#DejaVuSans-69"/>
       <use x="119.166016" xlink:href="#DejaVuSans-2e"/>
      </g>
     </g>
    </g>
    <g id="xtick_6">
     <g id="line2d_11">
      <path clip-path="url(#p7741a86d43)" d="M 514.445202 326.64351 
L 514.445202 6.799459 
" style="fill:none;stroke:#b0b0b0;stroke-linecap:square;stroke-width:0.8;"/>
     </g>
     <g id="line2d_12">
      <g>
       <use style="stroke:#000000;stroke-width:0.8;" x="514.445202" xlink:href="#m9b35b4e976" y="326.64351"/>
      </g>
     </g>
     <g id="text_6">
      <!-- Sat. -->
      <g transform="translate(504.657702 341.241947)scale(0.1 -0.1)">
       <defs>
        <path d="M 3425 4513 
L 3425 3897 
Q 3066 4069 2747 4153 
Q 2428 4238 2131 4238 
Q 1616 4238 1336 4038 
Q 1056 3838 1056 3469 
Q 1056 3159 1242 3001 
Q 1428 2844 1947 2747 
L 2328 2669 
Q 3034 2534 3370 2195 
Q 3706 1856 3706 1288 
Q 3706 609 3251 259 
Q 2797 -91 1919 -91 
Q 1588 -91 1214 -16 
Q 841 59 441 206 
L 441 856 
Q 825 641 1194 531 
Q 1563 422 1919 422 
Q 2459 422 2753 634 
Q 3047 847 3047 1241 
Q 3047 1584 2836 1778 
Q 2625 1972 2144 2069 
L 1759 2144 
Q 1053 2284 737 2584 
Q 422 2884 422 3419 
Q 422 4038 858 4394 
Q 1294 4750 2059 4750 
Q 2388 4750 2728 4690 
Q 3069 4631 3425 4513 
z
" id="DejaVuSans-53" transform="scale(0.015625)"/>
        <path d="M 2194 1759 
Q 1497 1759 1228 1600 
Q 959 1441 959 1056 
Q 959 750 1161 570 
Q 1363 391 1709 391 
Q 2188 391 2477 730 
Q 2766 1069 2766 1631 
L 2766 1759 
L 2194 1759 
z
M 3341 1997 
L 3341 0 
L 2766 0 
L 2766 531 
Q 2569 213 2275 61 
Q 1981 -91 1556 -91 
Q 1019 -91 701 211 
Q 384 513 384 1019 
Q 384 1609 779 1909 
Q 1175 2209 1959 2209 
L 2766 2209 
L 2766 2266 
Q 2766 2663 2505 2880 
Q 2244 3097 1772 3097 
Q 1472 3097 1187 3025 
Q 903 2953 641 2809 
L 641 3341 
Q 956 3463 1253 3523 
Q 1550 3584 1831 3584 
Q 2591 3584 2966 3190 
Q 3341 2797 3341 1997 
z
" id="DejaVuSans-61" transform="scale(0.015625)"/>
        <path d="M 1172 4494 
L 1172 3500 
L 2356 3500 
L 2356 3053 
L 1172 3053 
L 1172 1153 
Q 1172 725 1289 603 
Q 1406 481 1766 481 
L 2356 481 
L 2356 0 
L 1766 0 
Q 1100 0 847 248 
Q 594 497 594 1153 
L 594 3053 
L 172 3053 
L 172 3500 
L 594 3500 
L 594 4494 
L 1172 4494 
z
" id="DejaVuSans-74" transform="scale(0.015625)"/>
       </defs>
       <use xlink:href="#DejaVuSans-53"/>
       <use x="63.476562" xlink:href="#DejaVuSans-61"/>
       <use x="124.755859" xlink:href="#DejaVuSans-74"/>
       <use x="163.964844" xlink:href="#DejaVuSans-2e"/>
      </g>
     </g>
    </g>
    <g id="xtick_7">
     <g id="line2d_13">
      <path clip-path="url(#p7741a86d43)" d="M 609.656854 326.64351 
L 609.656854 6.799459 
" style="fill:none;stroke:#b0b0b0;stroke-linecap:square;stroke-width:0.8;"/>
     </g>
     <g id="line2d_14">
      <g>
       <use style="stroke:#000000;stroke-width:0.8;" x="609.656854" xlink:href="#m9b35b4e976" y="326.64351"/>
      </g>
     </g>
     <g id="text_7">
      <!-- Sun. -->
      <g transform="translate(598.556073 341.241947)scale(0.1 -0.1)">
       <use xlink:href="#DejaVuSans-53"/>
       <use x="63.476562" xlink:href="#DejaVuSans-75"/>
       <use x="126.855469" xlink:href="#DejaVuSans-6e"/>
       <use x="190.234375" xlink:href="#DejaVuSans-2e"/>
      </g>
     </g>
    </g>
    <g id="xtick_8">
     <g id="line2d_15">
      <path clip-path="url(#p7741a86d43)" d="M 704.868506 326.64351 
L 704.868506 6.799459 
" style="fill:none;stroke:#b0b0b0;stroke-linecap:square;stroke-width:0.8;"/>
     </g>
     <g id="line2d_16">
      <g>
       <use style="stroke:#000000;stroke-width:0.8;" x="704.868506" xlink:href="#m9b35b4e976" y="326.64351"/>
      </g>
     </g>
     <g id="text_8">
      <!-- Mon. -->
      <g transform="translate(692.737256 341.241947)scale(0.1 -0.1)">
       <use xlink:href="#DejaVuSans-4d"/>
       <use x="86.279297" xlink:href="#DejaVuSans-6f"/>
       <use x="147.460938" xlink:href="#DejaVuSans-6e"/>
       <use x="210.839844" xlink:href="#DejaVuSans-2e"/>
      </g>
     </g>
    </g>
    <g id="text_9">
     <!-- Day of the week -->
     <g transform="translate(330.824599 354.920073)scale(0.1 -0.1)">
      <defs>
       <path d="M 1259 4147 
L 1259 519 
L 2022 519 
Q 2988 519 3436 956 
Q 3884 1394 3884 2338 
Q 3884 3275 3436 3711 
Q 2988 4147 2022 4147 
L 1259 4147 
z
M 628 4666 
L 1925 4666 
Q 3281 4666 3915 4102 
Q 4550 3538 4550 2338 
Q 4550 1131 3912 565 
Q 3275 0 1925 0 
L 628 0 
L 628 4666 
z
" id="DejaVuSans-44" transform="scale(0.015625)"/>
       <path d="M 2059 -325 
Q 1816 -950 1584 -1140 
Q 1353 -1331 966 -1331 
L 506 -1331 
L 506 -850 
L 844 -850 
Q 1081 -850 1212 -737 
Q 1344 -625 1503 -206 
L 1606 56 
L 191 3500 
L 800 3500 
L 1894 763 
L 2988 3500 
L 3597 3500 
L 2059 -325 
z
" id="DejaVuSans-79" transform="scale(0.015625)"/>
       <path id="DejaVuSans-20" transform="scale(0.015625)"/>
       <path d="M 2375 4863 
L 2375 4384 
L 1825 4384 
Q 1516 4384 1395 4259 
Q 1275 4134 1275 3809 
L 1275 3500 
L 2222 3500 
L 2222 3053 
L 1275 3053 
L 1275 0 
L 697 0 
L 697 3053 
L 147 3053 
L 147 3500 
L 697 3500 
L 697 3744 
Q 697 4328 969 4595 
Q 1241 4863 1831 4863 
L 2375 4863 
z
" id="DejaVuSans-66" transform="scale(0.015625)"/>
       <path d="M 269 3500 
L 844 3500 
L 1563 769 
L 2278 3500 
L 2956 3500 
L 3675 769 
L 4391 3500 
L 4966 3500 
L 4050 0 
L 3372 0 
L 2619 2869 
L 1863 0 
L 1184 0 
L 269 3500 
z
" id="DejaVuSans-77" transform="scale(0.015625)"/>
       <path d="M 581 4863 
L 1159 4863 
L 1159 1991 
L 2875 3500 
L 3609 3500 
L 1753 1863 
L 3688 0 
L 2938 0 
L 1159 1709 
L 1159 0 
L 581 0 
L 581 4863 
z
" id="DejaVuSans-6b" transform="scale(0.015625)"/>
      </defs>
      <use xlink:href="#DejaVuSans-44"/>
      <use x="77.001953" xlink:href="#DejaVuSans-61"/>
      <use x="138.28125" xlink:href="#DejaVuSans-79"/>
      <use x="197.460938" xlink:href="#DejaVuSans-20"/>
      <use x="229.248047" xlink:href="#DejaVuSans-6f"/>
      <use x="290.429688" xlink:href="#DejaVuSans-66"/>
      <use x="325.634766" xlink:href="#DejaVuSans-20"/>
      <use x="357.421875" xlink:href="#DejaVuSans-74"/>
      <use x="396.630859" xlink:href="#DejaVuSans-68"/>
      <use x="460.009766" xlink:href="#DejaVuSans-65"/>
      <use x="521.533203" xlink:href="#DejaVuSans-20"/>
      <use x="553.320312" xlink:href="#DejaVuSans-77"/>
      <use x="635.107422" xlink:href="#DejaVuSans-65"/>
      <use x="696.630859" xlink:href="#DejaVuSans-65"/>
      <use x="758.154297" xlink:href="#DejaVuSans-6b"/>
     </g>
    </g>
   </g>
   <g id="matplotlib.axis_2">
    <g id="ytick_1">
     <g id="line2d_17">
      <path clip-path="url(#p7741a86d43)" d="M 36.403365 326.64351 
L 706.852082 326.64351 
" style="fill:none;stroke:#b0b0b0;stroke-linecap:square;stroke-width:0.8;"/>
     </g>
     <g id="line2d_18">
      <defs>
       <path d="M 0 0 
L -3.5 0 
" id="m8424cd3061" style="stroke:#000000;stroke-width:0.8;"/>
      </defs>
      <g>
       <use style="stroke:#000000;stroke-width:0.8;" x="36.403365" xlink:href="#m8424cd3061" y="326.64351"/>
      </g>
     </g>
     <g id="text_10">
      <!-- 15 -->
      <g transform="translate(16.678365 330.442729)scale(0.1 -0.1)">
       <defs>
        <path d="M 794 531 
L 1825 531 
L 1825 4091 
L 703 3866 
L 703 4441 
L 1819 4666 
L 2450 4666 
L 2450 531 
L 3481 531 
L 3481 0 
L 794 0 
L 794 531 
z
" id="DejaVuSans-31" transform="scale(0.015625)"/>
        <path d="M 691 4666 
L 3169 4666 
L 3169 4134 
L 1269 4134 
L 1269 2991 
Q 1406 3038 1543 3061 
Q 1681 3084 1819 3084 
Q 2600 3084 3056 2656 
Q 3513 2228 3513 1497 
Q 3513 744 3044 326 
Q 2575 -91 1722 -91 
Q 1428 -91 1123 -41 
Q 819 9 494 109 
L 494 744 
Q 775 591 1075 516 
Q 1375 441 1709 441 
Q 2250 441 2565 725 
Q 2881 1009 2881 1497 
Q 2881 1984 2565 2268 
Q 2250 2553 1709 2553 
Q 1456 2553 1204 2497 
Q 953 2441 691 2322 
L 691 4666 
z
" id="DejaVuSans-35" transform="scale(0.015625)"/>
       </defs>
       <use xlink:href="#DejaVuSans-31"/>
       <use x="63.623047" xlink:href="#DejaVuSans-35"/>
      </g>
     </g>
    </g>
    <g id="ytick_2">
     <g id="line2d_19">
      <path clip-path="url(#p7741a86d43)" d="M 36.403365 262.6747 
L 706.852082 262.6747 
" style="fill:none;stroke:#b0b0b0;stroke-linecap:square;stroke-width:0.8;"/>
     </g>
     <g id="line2d_20">
      <g>
       <use style="stroke:#000000;stroke-width:0.8;" x="36.403365" xlink:href="#m8424cd3061" y="262.6747"/>
      </g>
     </g>
     <g id="text_11">
      <!-- 20 -->
      <g transform="translate(16.678365 266.473918)scale(0.1 -0.1)">
       <defs>
        <path d="M 1228 531 
L 3431 531 
L 3431 0 
L 469 0 
L 469 531 
Q 828 903 1448 1529 
Q 2069 2156 2228 2338 
Q 2531 2678 2651 2914 
Q 2772 3150 2772 3378 
Q 2772 3750 2511 3984 
Q 2250 4219 1831 4219 
Q 1534 4219 1204 4116 
Q 875 4013 500 3803 
L 500 4441 
Q 881 4594 1212 4672 
Q 1544 4750 1819 4750 
Q 2544 4750 2975 4387 
Q 3406 4025 3406 3419 
Q 3406 3131 3298 2873 
Q 3191 2616 2906 2266 
Q 2828 2175 2409 1742 
Q 1991 1309 1228 531 
z
" id="DejaVuSans-32" transform="scale(0.015625)"/>
        <path d="M 2034 4250 
Q 1547 4250 1301 3770 
Q 1056 3291 1056 2328 
Q 1056 1369 1301 889 
Q 1547 409 2034 409 
Q 2525 409 2770 889 
Q 3016 1369 3016 2328 
Q 3016 3291 2770 3770 
Q 2525 4250 2034 4250 
z
M 2034 4750 
Q 2819 4750 3233 4129 
Q 3647 3509 3647 2328 
Q 3647 1150 3233 529 
Q 2819 -91 2034 -91 
Q 1250 -91 836 529 
Q 422 1150 422 2328 
Q 422 3509 836 4129 
Q 1250 4750 2034 4750 
z
" id="DejaVuSans-30" transform="scale(0.015625)"/>
       </defs>
       <use xlink:href="#DejaVuSans-32"/>
       <use x="63.623047" xlink:href="#DejaVuSans-30"/>
      </g>
     </g>
    </g>
    <g id="ytick_3">
     <g id="line2d_21">
      <path clip-path="url(#p7741a86d43)" d="M 36.403365 198.70589 
L 706.852082 198.70589 
" style="fill:none;stroke:#b0b0b0;stroke-linecap:square;stroke-width:0.8;"/>
     </g>
     <g id="line2d_22">
      <g>
       <use style="stroke:#000000;stroke-width:0.8;" x="36.403365" xlink:href="#m8424cd3061" y="198.70589"/>
      </g>
     </g>
     <g id="text_12">
      <!-- 25 -->
      <g transform="translate(16.678365 202.505108)scale(0.1 -0.1)">
       <use xlink:href="#DejaVuSans-32"/>
       <use x="63.623047" xlink:href="#DejaVuSans-35"/>
      </g>
     </g>
    </g>
    <g id="ytick_4">
     <g id="line2d_23">
      <path clip-path="url(#p7741a86d43)" d="M 36.403365 134.737079 
L 706.852082 134.737079 
" style="fill:none;stroke:#b0b0b0;stroke-linecap:square;stroke-width:0.8;"/>
     </g>
     <g id="line2d_24">
      <g>
       <use style="stroke:#000000;stroke-width:0.8;" x="36.403365" xlink:href="#m8424cd3061" y="134.737079"/>
      </g>
     </g>
     <g id="text_13">
      <!-- 30 -->
      <g transform="translate(16.678365 138.536298)scale(0.1 -0.1)">
       <defs>
        <path d="M 2597 2516 
Q 3050 2419 3304 2112 
Q 3559 1806 3559 1356 
Q 3559 666 3084 287 
Q 2609 -91 1734 -91 
Q 1441 -91 1130 -33 
Q 819 25 488 141 
L 488 750 
Q 750 597 1062 519 
Q 1375 441 1716 441 
Q 2309 441 2620 675 
Q 2931 909 2931 1356 
Q 2931 1769 2642 2001 
Q 2353 2234 1838 2234 
L 1294 2234 
L 1294 2753 
L 1863 2753 
Q 2328 2753 2575 2939 
Q 2822 3125 2822 3475 
Q 2822 3834 2567 4026 
Q 2313 4219 1838 4219 
Q 1578 4219 1281 4162 
Q 984 4106 628 3988 
L 628 4550 
Q 988 4650 1302 4700 
Q 1616 4750 1894 4750 
Q 2613 4750 3031 4423 
Q 3450 4097 3450 3541 
Q 3450 3153 3228 2886 
Q 3006 2619 2597 2516 
z
" id="DejaVuSans-33" transform="scale(0.015625)"/>
       </defs>
       <use xlink:href="#DejaVuSans-33"/>
       <use x="63.623047" xlink:href="#DejaVuSans-30"/>
      </g>
     </g>
    </g>
    <g id="ytick_5">
     <g id="line2d_25">
      <path clip-path="url(#p7741a86d43)" d="M 36.403365 70.768269 
L 706.852082 70.768269 
" style="fill:none;stroke:#b0b0b0;stroke-linecap:square;stroke-width:0.8;"/>
     </g>
     <g id="line2d_26">
      <g>
       <use style="stroke:#000000;stroke-width:0.8;" x="36.403365" xlink:href="#m8424cd3061" y="70.768269"/>
      </g>
     </g>
     <g id="text_14">
      <!-- 35 -->
      <g transform="translate(16.678365 74.567488)scale(0.1 -0.1)">
       <use xlink:href="#DejaVuSans-33"/>
       <use x="63.623047" xlink:href="#DejaVuSans-35"/>
      </g>
     </g>
    </g>
    <g id="ytick_6">
     <g id="line2d_27">
      <path clip-path="url(#p7741a86d43)" d="M 36.403365 6.799459 
L 706.852082 6.799459 
" style="fill:none;stroke:#b0b0b0;stroke-linecap:square;stroke-width:0.8;"/>
     </g>
     <g id="line2d_28">
      <g>
       <use style="stroke:#000000;stroke-width:0.8;" x="36.403365" xlink:href="#m8424cd3061" y="6.799459"/>
      </g>
     </g>
     <g id="text_15">
      <!-- 40 -->
      <g transform="translate(16.678365 10.598678)scale(0.1 -0.1)">
       <defs>
        <path d="M 2419 4116 
L 825 1625 
L 2419 1625 
L 2419 4116 
z
M 2253 4666 
L 3047 4666 
L 3047 1625 
L 3713 1625 
L 3713 1100 
L 3047 1100 
L 3047 0 
L 2419 0 
L 2419 1100 
L 313 1100 
L 313 1709 
L 2253 4666 
z
" id="DejaVuSans-34" transform="scale(0.015625)"/>
       </defs>
       <use xlink:href="#DejaVuSans-34"/>
       <use x="63.623047" xlink:href="#DejaVuSans-30"/>
      </g>
     </g>
    </g>
    <g id="text_16">
     <!-- Load demand (MW) -->
     <g transform="translate(10.598678 215.583203)rotate(-90)scale(0.1 -0.1)">
      <defs>
       <path d="M 628 4666 
L 1259 4666 
L 1259 531 
L 3531 531 
L 3531 0 
L 628 0 
L 628 4666 
z
" id="DejaVuSans-4c" transform="scale(0.015625)"/>
       <path d="M 3328 2828 
Q 3544 3216 3844 3400 
Q 4144 3584 4550 3584 
Q 5097 3584 5394 3201 
Q 5691 2819 5691 2113 
L 5691 0 
L 5113 0 
L 5113 2094 
Q 5113 2597 4934 2840 
Q 4756 3084 4391 3084 
Q 3944 3084 3684 2787 
Q 3425 2491 3425 1978 
L 3425 0 
L 2847 0 
L 2847 2094 
Q 2847 2600 2669 2842 
Q 2491 3084 2119 3084 
Q 1678 3084 1418 2786 
Q 1159 2488 1159 1978 
L 1159 0 
L 581 0 
L 581 3500 
L 1159 3500 
L 1159 2956 
Q 1356 3278 1631 3431 
Q 1906 3584 2284 3584 
Q 2666 3584 2933 3390 
Q 3200 3197 3328 2828 
z
" id="DejaVuSans-6d" transform="scale(0.015625)"/>
       <path d="M 1984 4856 
Q 1566 4138 1362 3434 
Q 1159 2731 1159 2009 
Q 1159 1288 1364 580 
Q 1569 -128 1984 -844 
L 1484 -844 
Q 1016 -109 783 600 
Q 550 1309 550 2009 
Q 550 2706 781 3412 
Q 1013 4119 1484 4856 
L 1984 4856 
z
" id="DejaVuSans-28" transform="scale(0.015625)"/>
       <path d="M 513 4856 
L 1013 4856 
Q 1481 4119 1714 3412 
Q 1947 2706 1947 2009 
Q 1947 1309 1714 600 
Q 1481 -109 1013 -844 
L 513 -844 
Q 928 -128 1133 580 
Q 1338 1288 1338 2009 
Q 1338 2731 1133 3434 
Q 928 4138 513 4856 
z
" id="DejaVuSans-29" transform="scale(0.015625)"/>
      </defs>
      <use xlink:href="#DejaVuSans-4c"/>
      <use x="53.962891" xlink:href="#DejaVuSans-6f"/>
      <use x="115.144531" xlink:href="#DejaVuSans-61"/>
      <use x="176.423828" xlink:href="#DejaVuSans-64"/>
      <use x="239.900391" xlink:href="#DejaVuSans-20"/>
      <use x="271.6875" xlink:href="#DejaVuSans-64"/>
      <use x="335.164062" xlink:href="#DejaVuSans-65"/>
      <use x="396.6875" xlink:href="#DejaVuSans-6d"/>
      <use x="494.099609" xlink:href="#DejaVuSans-61"/>
      <use x="555.378906" xlink:href="#DejaVuSans-6e"/>
      <use x="618.757812" xlink:href="#DejaVuSans-64"/>
      <use x="682.234375" xlink:href="#DejaVuSans-20"/>
      <use x="714.021484" xlink:href="#DejaVuSans-28"/>
      <use x="753.035156" xlink:href="#DejaVuSans-4d"/>
      <use x="839.314453" xlink:href="#DejaVuSans-57"/>
      <use x="938.191406" xlink:href="#DejaVuSans-29"/>
     </g>
    </g>
   </g>
   <g id="line2d_29">
    <path clip-path="url(#p7741a86d43)" d="M 38.386941 252.874681 
L 40.370517 274.956712 
L 44.337669 301.004815 
L 46.321245 310.241912 
L 48.304822 316.152623 
L 50.288398 312.365669 
L 52.271974 310.344255 
L 54.25555 308.655479 
L 58.222702 299.188098 
L 60.206278 289.132198 
L 62.189854 283.9891 
L 64.17343 275.110238 
L 66.157006 277.106067 
L 68.140582 266.410476 
L 70.124158 257.326904 
L 74.091311 212.727849 
L 76.074887 201.648461 
L 78.058463 194.739818 
L 80.042039 193.102225 
L 82.025615 193.178982 
L 84.009191 190.134068 
L 85.992767 192.99987 
L 87.976343 200.957599 
L 89.959919 212.369637 
L 91.943495 214.826033 
L 93.927072 221.88819 
L 95.910648 220.813519 
L 97.894224 214.826033 
L 99.8778 199.396751 
L 101.861376 168.717313 
L 103.844952 146.686453 
L 107.812104 130.336027 
L 109.79568 113.678548 
L 111.779256 119.640448 
L 113.762832 126.625836 
L 115.746408 141.159546 
L 117.729985 156.972637 
L 119.713561 168.742899 
L 121.697137 183.941885 
L 123.680713 197.503278 
L 125.664289 199.908501 
L 127.647865 207.149783 
L 129.631441 219.63648 
L 131.615017 238.059504 
L 135.582169 278.641317 
L 137.565745 293.277381 
L 139.549322 293.072671 
L 141.532898 290.411579 
L 143.516474 293.200612 
L 145.50005 292.484164 
L 147.483626 293.533262 
L 149.467202 297.857545 
L 151.450778 290.820986 
L 153.434354 278.6925 
L 155.41793 254.435529 
L 157.401506 222.374354 
L 159.385082 201.955501 
L 161.368658 196.121554 
L 163.352235 183.813944 
L 169.302963 161.987794 
L 171.286539 160.60607 
L 173.270115 159.96638 
L 175.253691 163.16482 
L 179.220843 176.80297 
L 181.204419 177.775299 
L 183.187995 186.347108 
L 185.171572 194.253654 
L 187.155148 195.072468 
L 189.138724 198.296482 
L 191.1223 193.38368 
L 193.105876 192.283423 
L 195.089452 181.178437 
L 197.073028 158.994051 
L 199.056604 134.020619 
L 201.04018 125.013817 
L 203.023756 99.093667 
L 205.007332 70.640328 
L 206.990908 71.561486 
L 208.974485 80.465933 
L 210.958061 94.487905 
L 212.941637 113.397081 
L 214.925213 124.911474 
L 218.892365 169.17788 
L 220.875941 189.647904 
L 222.859517 203.593106 
L 224.843093 208.915304 
L 226.826669 228.182716 
L 228.810245 244.635497 
L 230.793822 266.871042 
L 232.777398 276.747843 
L 234.760974 281.507119 
L 236.74455 283.554119 
L 238.728126 285.856988 
L 240.711702 282.351507 
L 242.695278 282.453862 
L 244.678854 287.801657 
L 246.66243 277.745757 
L 248.646006 265.7452 
L 250.629582 245.556642 
L 252.613158 219.482966 
L 254.596735 188.957042 
L 256.580311 179.975825 
L 258.563887 169.433761 
L 260.547463 166.030623 
L 262.531039 152.853051 
L 264.514615 147.274972 
L 266.498191 145.458256 
L 268.481767 143.411256 
L 270.465343 142.387743 
L 272.448919 143.129789 
L 274.432495 141.568953 
L 276.416071 146.967908 
L 278.399648 154.490656 
L 280.383224 164.828011 
L 282.3668 169.254649 
L 284.350376 167.540287 
L 286.333952 177.033254 
L 288.317528 176.982082 
L 292.28468 145.407084 
L 296.251832 111.631548 
L 300.218985 60.149448 
L 302.202561 65.420486 
L 304.186137 71.510314 
L 306.169713 91.238293 
L 308.153289 105.720807 
L 310.136865 118.412239 
L 314.104017 159.761682 
L 316.087593 182.995142 
L 318.071169 191.362265 
L 320.054745 200.266725 
L 324.021898 240.746195 
L 326.005474 257.915424 
L 327.98905 264.798457 
L 329.972626 269.915969 
L 331.956202 274.214679 
L 333.939778 280.7395 
L 335.923354 282.530619 
L 337.90693 288.108698 
L 339.890506 287.955171 
L 341.874082 279.127481 
L 343.857658 263.774957 
L 345.841235 239.159761 
L 347.824811 212.241685 
L 349.808387 181.485489 
L 351.791963 186.01447 
L 353.775539 170.508432 
L 355.759115 165.288577 
L 357.742691 147.556427 
L 359.726267 143.283303 
L 361.709843 142.438927 
L 363.693419 136.425855 
L 365.676995 137.756408 
L 367.660571 128.698422 
L 369.644148 123.683265 
L 371.627724 132.075974 
L 373.6113 135.300013 
L 375.594876 151.957479 
L 379.562028 151.957479 
L 381.545604 151.496913 
L 383.52918 144.204472 
L 385.512756 132.075974 
L 387.496332 105.695234 
L 389.479908 84.943755 
L 391.463485 71.100919 
L 393.447061 44.950437 
L 395.430637 44.131647 
L 397.414213 58.537416 
L 399.397789 71.228835 
L 401.381365 86.58136 
L 403.364941 99.656601 
L 405.348517 113.627377 
L 407.332093 133.636822 
L 409.315669 158.047308 
L 411.299245 177.493832 
L 413.282821 186.85887 
L 415.266398 206.075099 
L 417.249974 223.756078 
L 419.23355 235.142518 
L 421.217126 255.228733 
L 423.200702 267.868969 
L 425.184278 264.92641 
L 427.167854 266.998983 
L 429.15143 275.903455 
L 431.135006 275.263752 
L 433.118582 278.436619 
L 435.102158 279.741574 
L 437.085735 274.214666 
L 439.069311 265.719614 
L 441.052887 245.147247 
L 443.036463 212.241685 
L 445.020039 188.342937 
L 447.003615 180.410806 
L 448.987191 172.990425 
L 450.970767 166.056208 
L 452.954343 162.473958 
L 454.937919 157.074991 
L 456.921495 148.170532 
L 458.905071 147.556427 
L 460.888648 144.153289 
L 462.872224 142.950677 
L 464.8558 143.539196 
L 466.839376 150.754868 
L 468.822952 155.027979 
L 470.806528 163.088063 
L 472.790104 181.818115 
L 476.757256 164.904768 
L 478.740832 162.269248 
L 480.724408 158.456715 
L 484.691561 120.433653 
L 486.675137 104.236741 
L 488.658713 74.631986 
L 490.642289 62.529073 
L 492.625865 72.277933 
L 494.609441 80.517129 
L 498.576593 107.332863 
L 500.560169 117.107272 
L 502.543745 138.703139 
L 504.527321 163.318346 
L 506.510898 180.538746 
L 508.494474 185.758601 
L 510.47805 200.036442 
L 512.461626 218.050059 
L 516.428778 257.506016 
L 518.412354 273.088824 
L 520.39593 273.702929 
L 522.379506 275.8011 
L 524.363082 274.931114 
L 528.330235 279.050724 
L 530.313811 284.19381 
L 532.297387 278.794843 
L 534.280963 267.817785 
L 536.264539 244.661071 
L 538.248115 218.536223 
L 540.231691 190.773758 
L 542.215267 181.101668 
L 544.198843 164.06038 
L 546.182419 156.640011 
L 548.165995 149.936077 
L 550.149571 149.296374 
L 552.133148 145.509427 
L 554.116724 141.185132 
L 556.1003 139.266072 
L 558.083876 141.13396 
L 560.067452 141.159546 
L 562.051028 144.997677 
L 564.034604 149.449901 
L 566.01818 160.759584 
L 568.001756 162.038965 
L 569.985332 166.132977 
L 571.968908 167.437932 
L 573.952485 166.593544 
L 575.936061 152.878624 
L 577.919637 137.449368 
L 579.903213 117.107272 
L 581.886789 107.946943 
L 583.870365 88.526017 
L 585.853941 79.109807 
L 587.837517 90.445076 
L 589.821093 105.413779 
L 591.804669 116.211712 
L 593.788245 128.058744 
L 595.771821 144.383572 
L 597.755398 164.725656 
L 599.738974 182.30428 
L 601.72255 191.439035 
L 603.706126 197.426508 
L 605.689702 215.951875 
L 609.656854 242.230261 
L 611.64043 261.932667 
L 613.624006 276.184909 
L 615.607582 288.390152 
L 617.591158 296.168769 
L 619.574735 302.335367 
L 623.541887 291.17921 
L 625.525463 290.872145 
L 627.509039 291.742119 
L 629.492615 284.756743 
L 631.476191 272.321205 
L 633.459767 261.77914 
L 635.443343 247.11749 
L 637.426919 244.072576 
L 641.394071 216.412466 
L 643.377648 204.974842 
L 645.361224 195.277154 
L 647.3448 191.004054 
L 649.328376 182.022825 
L 651.311952 176.982082 
L 653.295528 184.81187 
L 657.26268 206.279797 
L 659.246256 211.781118 
L 661.229832 215.312185 
L 663.213408 227.031275 
L 665.196984 230.434413 
L 667.180561 230.255314 
L 669.164137 230.357657 
L 671.147713 218.587394 
L 673.131289 201.90433 
L 677.098441 160.119906 
L 679.082017 134.250915 
L 681.065593 112.194469 
L 683.049169 123.376225 
L 685.032745 140.11046 
L 687.016321 153.518315 
L 688.999898 164.648886 
L 690.983474 174.551273 
L 692.96705 187.831187 
L 694.950626 199.473521 
L 696.934202 202.748718 
L 698.917778 205.435409 
L 700.901354 221.913776 
L 702.88493 233.684038 
L 702.88493 233.684038 
" style="fill:none;stroke:#d62728;stroke-dasharray:9.25,4;stroke-dashoffset:0;stroke-width:2.5;"/>
   </g>
   <g id="line2d_30">
    <path clip-path="url(#p7741a86d43)" d="M 38.386941 254.358979 
L 40.370517 271.869972 
L 42.354093 285.012173 
L 44.337669 293.988192 
L 46.321245 299.273945 
L 48.304822 300.9207 
L 50.288398 299.519626 
L 52.271974 297.121893 
L 54.25555 295.640218 
L 56.239126 295.17443 
L 58.222702 294.024673 
L 60.206278 290.200268 
L 62.189854 283.941747 
L 66.157006 270.657209 
L 68.140582 261.362059 
L 70.124158 246.82625 
L 74.091311 209.172564 
L 76.074887 194.802836 
L 78.058463 186.047267 
L 80.042039 181.773179 
L 82.025615 180.537478 
L 84.009191 181.521885 
L 85.992767 184.429891 
L 87.976343 188.822549 
L 91.943495 199.698716 
L 93.927072 203.630368 
L 95.910648 203.812701 
L 97.894224 197.903546 
L 99.8778 184.827305 
L 101.861376 166.403036 
L 103.844952 146.78089 
L 105.828528 129.112429 
L 107.812104 114.166103 
L 109.79568 104.191572 
L 111.779256 103.256384 
L 113.762832 112.254999 
L 117.729985 142.464708 
L 125.664289 201.569313 
L 127.647865 215.931939 
L 135.582169 279.182544 
L 137.565745 286.888675 
L 139.549322 290.231771 
L 141.532898 292.884311 
L 143.516474 295.056421 
L 145.50005 296.050663 
L 147.483626 296.151346 
L 149.467202 294.68297 
L 151.450778 288.323034 
L 153.434354 272.563482 
L 155.41793 245.589158 
L 157.401506 212.600726 
L 159.385082 184.306392 
L 161.368658 169.544864 
L 163.352235 167.577171 
L 165.335811 169.8332 
L 167.319387 168.338396 
L 169.302963 162.498397 
L 171.286539 156.239827 
L 173.270115 152.241045 
L 175.253691 150.502683 
L 177.237267 150.324792 
L 179.220843 151.874817 
L 181.204419 155.808251 
L 183.187995 161.295468 
L 185.171572 166.157233 
L 187.155148 168.979954 
L 189.138724 169.381272 
L 191.1223 165.855427 
L 193.105876 155.547977 
L 195.089452 136.926173 
L 199.056604 88.752518 
L 201.04018 69.598136 
L 203.023756 55.035071 
L 205.007332 45.861761 
L 206.990908 45.95156 
L 208.974485 56.050787 
L 210.958061 71.780666 
L 212.941637 89.020844 
L 214.925213 107.60197 
L 220.875941 169.788007 
L 222.859517 188.591143 
L 226.826669 228.848468 
L 228.810245 252.347923 
L 230.793822 268.976705 
L 232.777398 277.014193 
L 234.760974 279.221686 
L 236.74455 279.236937 
L 240.711702 278.588937 
L 242.695278 278.619806 
L 244.678854 277.770513 
L 246.66243 271.601744 
L 248.646006 254.835212 
L 250.629582 225.828407 
L 252.613158 190.501223 
L 254.596735 160.876409 
L 256.580311 146.294774 
L 258.563887 145.423739 
L 260.547463 149.431916 
L 262.531039 150.590019 
L 266.498191 146.135623 
L 268.481767 146.135355 
L 270.465343 147.839333 
L 272.448919 150.032088 
L 274.432495 152.396291 
L 276.416071 155.540169 
L 280.383224 163.417871 
L 282.3668 165.922606 
L 284.350376 166.266579 
L 286.333952 162.76033 
L 288.317528 153.029137 
L 290.301104 135.926612 
L 294.268256 91.169894 
L 296.251832 70.613901 
L 298.235408 51.826235 
L 300.218985 37.752433 
L 302.202561 34.881567 
L 304.186137 44.981135 
L 306.169713 62.716628 
L 310.136865 100.906602 
L 312.120441 121.946978 
L 316.087593 166.292055 
L 320.054745 204.484664 
L 322.038321 225.228749 
L 324.021898 244.691329 
L 326.005474 262.259424 
L 327.98905 270.690762 
L 329.972626 273.399671 
L 331.956202 274.396865 
L 335.923354 275.755797 
L 337.90693 277.060166 
L 339.890506 277.944818 
L 341.874082 274.221389 
L 343.857658 260.960252 
L 345.841235 236.25311 
L 347.824811 204.794766 
L 349.808387 177.022785 
L 351.791963 161.798567 
L 353.775539 158.506398 
L 355.759115 159.745345 
L 357.742691 158.928556 
L 359.726267 155.667304 
L 361.709843 153.073451 
L 363.693419 152.634017 
L 365.676995 153.711812 
L 367.660571 155.420891 
L 369.644148 157.977262 
L 371.627724 162.053643 
L 375.594876 172.670659 
L 377.578452 176.607997 
L 379.562028 178.172786 
L 381.545604 175.605044 
L 383.52918 166.199668 
L 385.512756 148.674156 
L 393.447061 57.126239 
L 395.430637 41.271713 
L 397.414213 37.782301 
L 399.397789 46.868155 
L 401.381365 62.446399 
L 403.364941 79.80156 
L 405.348517 99.167118 
L 411.299245 165.310014 
L 415.266398 203.102916 
L 417.249974 224.356762 
L 419.23355 242.085764 
L 421.217126 256.941387 
L 423.200702 264.586048 
L 425.184278 267.285147 
L 427.167854 268.604889 
L 429.15143 270.479561 
L 431.135006 273.142789 
L 433.118582 276.157335 
L 435.102158 277.389864 
L 437.085735 272.17251 
L 439.069311 255.711737 
L 441.052887 227.260058 
L 443.036463 193.951201 
L 445.020039 167.8127 
L 447.003615 156.524235 
L 448.987191 156.49627 
L 450.970767 158.900371 
L 452.954343 158.356496 
L 454.937919 156.298832 
L 456.921495 155.671672 
L 458.905071 156.613083 
L 462.872224 159.039366 
L 464.8558 161.639782 
L 466.839376 167.067263 
L 470.806528 182.681598 
L 472.790104 187.716082 
L 474.77368 188.879431 
L 476.757256 185.722425 
L 478.740832 176.613146 
L 480.724408 159.976409 
L 482.707985 137.136495 
L 484.691561 112.219933 
L 486.675137 88.776578 
L 488.658713 69.349576 
L 490.642289 58.547128 
L 492.625865 59.772702 
L 494.609441 69.967 
L 498.576593 95.735685 
L 500.560169 110.763368 
L 502.543745 129.746861 
L 504.527321 150.357515 
L 506.510898 169.031491 
L 508.494474 186.138458 
L 510.47805 205.061214 
L 512.461626 225.97016 
L 514.445202 242.272562 
L 516.428778 257.102758 
L 518.412354 266.432682 
L 520.39593 271.66436 
L 522.379506 274.923049 
L 524.363082 277.235081 
L 526.346658 278.777005 
L 528.330235 279.99804 
L 530.313811 280.411803 
L 532.297387 276.976857 
L 534.280963 265.093442 
L 536.264539 242.50348 
L 538.248115 213.759707 
L 540.231691 188.703662 
L 542.215267 174.498088 
L 544.198843 169.533834 
L 546.182419 167.608235 
L 548.165995 164.324021 
L 550.149571 159.938976 
L 552.133148 156.706787 
L 554.116724 155.440339 
L 556.1003 155.410837 
L 558.083876 156.293122 
L 560.067452 159.19083 
L 562.051028 165.294373 
L 566.01818 182.88582 
L 568.001756 189.309372 
L 569.985332 191.262131 
L 571.968908 189.015058 
L 573.952485 183.036454 
L 575.936061 172.696379 
L 577.919637 157.333825 
L 579.903213 137.727955 
L 581.886789 115.889823 
L 583.870365 95.80694 
L 585.853941 84.449196 
L 587.837517 86.179993 
L 589.821093 98.030465 
L 593.788245 128.834928 
L 597.755398 158.821967 
L 599.738974 172.503431 
L 601.72255 182.818909 
L 603.706126 191.70586 
L 605.689702 204.115166 
L 607.673278 221.918083 
L 609.656854 241.009336 
L 611.64043 256.520474 
L 613.624006 270.374827 
L 615.607582 280.505605 
L 617.591158 285.966932 
L 619.574735 287.435601 
L 623.541887 285.997557 
L 625.525463 286.008342 
L 627.509039 285.498264 
L 629.492615 282.524738 
L 631.476191 276.478955 
L 633.459767 268.683172 
L 635.443343 260.206274 
L 637.426919 249.667321 
L 639.410495 234.24425 
L 643.377648 195.539416 
L 645.361224 180.897531 
L 647.3448 172.066217 
L 649.328376 167.988762 
L 651.311952 167.064872 
L 653.295528 168.35865 
L 655.279104 171.956432 
L 657.26268 178.408096 
L 659.246256 187.35576 
L 661.229832 197.137758 
L 663.213408 205.377002 
L 665.196984 210.780129 
L 667.180561 212.699506 
L 669.164137 209.827298 
L 671.147713 200.349034 
L 673.131289 184.077719 
L 675.114865 163.07624 
L 677.098441 140.732325 
L 679.082017 121.676724 
L 681.065593 112.635673 
L 683.049169 116.89368 
L 685.032745 129.926851 
L 687.016321 144.330131 
L 688.999898 156.761497 
L 692.96705 179.883695 
L 694.950626 189.652955 
L 698.917778 203.768582 
L 700.901354 215.660269 
L 702.88493 232.365967 
L 702.88493 232.365967 
" style="fill:none;stroke:#1f77b4;stroke-dasharray:2,3.3;stroke-dashoffset:0;stroke-width:2;"/>
   </g>
   <g id="line2d_31">
    <path clip-path="url(#p7741a86d43)" d="M 38.386941 259.639583 
L 40.370517 281.15114 
L 42.354093 295.257836 
L 44.337669 303.207964 
L 46.321245 307.0862 
L 48.304822 307.004843 
L 50.288398 300.380022 
L 52.271974 294.677992 
L 54.25555 292.198269 
L 56.239126 292.543803 
L 58.222702 296.314499 
L 60.206278 293.423428 
L 62.189854 284.48943 
L 64.17343 272.882784 
L 66.157006 268.847422 
L 68.140582 260.064132 
L 70.124158 247.815831 
L 72.107735 226.430165 
L 74.091311 208.34167 
L 76.074887 197.425288 
L 78.058463 191.281824 
L 80.042039 188.535214 
L 82.025615 188.339362 
L 84.009191 190.429847 
L 85.992767 195.252446 
L 89.959919 206.750722 
L 91.943495 211.286133 
L 93.927072 213.921713 
L 95.910648 213.083669 
L 97.894224 207.281542 
L 99.8778 194.252494 
L 103.844952 152.557053 
L 105.828528 140.009801 
L 107.812104 124.812255 
L 109.79568 108.214464 
L 111.779256 104.679176 
L 113.762832 113.179426 
L 117.729985 135.845548 
L 119.713561 150.079843 
L 123.680713 184.831063 
L 125.664289 197.312282 
L 127.647865 207.696477 
L 129.631441 222.503564 
L 131.615017 238.706259 
L 133.598593 262.387926 
L 135.582169 278.843428 
L 137.565745 285.802803 
L 139.549322 288.547876 
L 143.516474 293.113496 
L 145.50005 292.890631 
L 147.483626 295.543781 
L 149.467202 299.344857 
L 151.450778 297.757008 
L 153.434354 290.415178 
L 155.41793 269.246105 
L 157.401506 239.943717 
L 159.385082 208.897942 
L 161.368658 194.292514 
L 163.352235 188.648537 
L 165.335811 190.430286 
L 167.319387 184.237016 
L 169.302963 176.731692 
L 171.286539 173.5945 
L 173.270115 171.430468 
L 175.253691 171.55182 
L 179.220843 174.684203 
L 181.204419 179.988746 
L 183.187995 186.436823 
L 185.171572 190.742512 
L 187.155148 190.763741 
L 189.138724 190.32826 
L 191.1223 185.190409 
L 193.105876 175.210265 
L 195.089452 158.108106 
L 197.073028 133.161846 
L 199.056604 112.649387 
L 201.04018 102.446769 
L 203.023756 90.458083 
L 205.007332 74.236061 
L 206.990908 72.045137 
L 208.974485 80.806587 
L 212.941637 107.264146 
L 214.925213 122.841414 
L 218.892365 164.578389 
L 222.859517 192.881239 
L 224.843093 210.051285 
L 226.826669 228.635291 
L 228.810245 245.583521 
L 230.793822 265.918724 
L 232.777398 276.085666 
L 234.760974 278.368025 
L 236.74455 277.987863 
L 238.728126 278.943525 
L 240.711702 276.757823 
L 242.695278 277.672978 
L 244.678854 280.679202 
L 246.66243 276.760483 
L 248.646006 266.500032 
L 250.629582 245.343136 
L 252.613158 216.775985 
L 254.596735 191.251711 
L 256.580311 183.821399 
L 258.563887 182.089675 
L 260.547463 185.46303 
L 262.531039 182.269738 
L 264.514615 176.967758 
L 266.498191 174.570416 
L 268.481767 171.892742 
L 270.465343 171.392351 
L 272.448919 172.795476 
L 274.432495 175.350675 
L 276.416071 178.940331 
L 280.383224 191.187534 
L 282.3668 193.366842 
L 284.350376 194.205447 
L 286.333952 191.200467 
L 288.317528 184.917715 
L 290.301104 172.011459 
L 292.28468 150.929014 
L 294.268256 131.445252 
L 296.251832 120.508592 
L 298.235408 104.328859 
L 300.218985 85.167498 
L 302.202561 81.926598 
L 304.186137 90.372138 
L 306.169713 103.851552 
L 308.153289 118.585018 
L 310.136865 131.809527 
L 314.104017 170.940033 
L 316.087593 187.414471 
L 320.054745 213.742747 
L 322.038321 230.427288 
L 324.021898 240.618681 
L 326.005474 261.100711 
L 327.98905 271.183588 
L 329.972626 273.463653 
L 331.956202 273.790545 
L 333.939778 274.314727 
L 335.923354 271.111138 
L 337.90693 271.199425 
L 339.890506 273.706064 
L 341.874082 269.393933 
L 343.857658 260.421575 
L 345.841235 242.009751 
L 349.808387 189.206444 
L 351.791963 180.179132 
L 353.775539 176.403848 
L 355.759115 176.819271 
L 357.742691 169.729246 
L 359.726267 162.05069 
L 361.709843 158.578238 
L 363.693419 155.420647 
L 365.676995 154.315033 
L 367.660571 153.603222 
L 369.644148 154.052783 
L 371.627724 158.379848 
L 375.594876 171.642644 
L 377.578452 176.502214 
L 379.562028 178.532034 
L 381.545604 179.327203 
L 383.52918 175.382642 
L 385.512756 163.111965 
L 387.496332 143.471883 
L 389.479908 125.027507 
L 391.463485 112.321226 
L 393.447061 94.462478 
L 395.430637 74.616978 
L 397.414213 74.005655 
L 399.397789 83.066228 
L 403.364941 108.062146 
L 405.348517 122.809179 
L 409.315669 162.710549 
L 411.299245 178.854119 
L 413.282821 191.029359 
L 415.266398 206.167608 
L 417.249974 225.136118 
L 419.23355 241.637765 
L 421.217126 259.822941 
L 423.200702 268.698594 
L 425.184278 270.757307 
L 427.167854 271.256624 
L 429.15143 273.115117 
L 431.135006 273.191789 
L 433.118582 275.943426 
L 435.102158 279.569929 
L 437.085735 276.894646 
L 439.069311 268.421605 
L 441.052887 248.079619 
L 445.020039 191.317573 
L 447.003615 183.613956 
L 448.987191 177.914098 
L 450.970767 177.493625 
L 452.954343 169.703673 
L 454.937919 164.334123 
L 456.921495 163.167529 
L 458.905071 160.556619 
L 462.872224 160.365257 
L 464.8558 162.359012 
L 468.822952 175.5109 
L 470.806528 184.409003 
L 472.790104 187.206077 
L 474.77368 186.277037 
L 476.757256 183.808392 
L 478.740832 176.312218 
L 480.724408 161.601495 
L 482.707985 137.982836 
L 484.691561 116.337945 
L 486.675137 102.305529 
L 488.658713 82.707174 
L 490.642289 69.441377 
L 492.625865 73.828398 
L 494.609441 84.011373 
L 496.593017 96.338858 
L 498.576593 107.604898 
L 500.560169 121.074893 
L 502.543745 139.866243 
L 504.527321 161.059694 
L 506.510898 176.763024 
L 508.494474 187.557126 
L 510.47805 202.745741 
L 512.461626 220.216495 
L 514.445202 240.537764 
L 516.428778 258.302149 
L 518.412354 268.188515 
L 520.39593 271.077439 
L 522.379506 273.658944 
L 524.363082 276.653968 
L 526.346658 275.463923 
L 528.330235 275.769633 
L 530.313811 276.73818 
L 532.297387 273.518534 
L 534.280963 266.009378 
L 536.264539 247.057266 
L 538.248115 219.845655 
L 540.231691 194.790489 
L 542.215267 186.79407 
L 544.198843 180.652729 
L 546.182419 178.844821 
L 548.165995 174.257898 
L 550.149571 168.884468 
L 552.133148 164.923826 
L 554.116724 161.91826 
L 556.1003 159.465794 
L 558.083876 157.401444 
L 560.067452 157.516744 
L 564.034604 170.392595 
L 566.01818 179.842187 
L 568.001756 187.62699 
L 569.985332 188.073037 
L 571.968908 187.039459 
L 573.952485 183.906318 
L 575.936061 175.7956 
L 579.903213 140.640841 
L 581.886789 125.942149 
L 583.870365 104.789962 
L 585.853941 92.359597 
L 587.837517 98.760968 
L 589.821093 110.87696 
L 591.804669 127.615064 
L 599.738974 189.388801 
L 601.72255 196.612696 
L 603.706126 197.383634 
L 605.689702 204.507895 
L 607.673278 217.306025 
L 609.656854 243.330909 
L 611.64043 262.82287 
L 613.624006 276.106334 
L 615.607582 283.162611 
L 617.591158 288.202243 
L 619.574735 290.432796 
L 623.541887 285.659953 
L 625.525463 285.097165 
L 627.509039 282.526471 
L 629.492615 278.264901 
L 631.476191 268.027778 
L 633.459767 256.000293 
L 635.443343 244.928714 
L 637.426919 243.030762 
L 639.410495 231.983243 
L 641.394071 219.633015 
L 643.377648 204.906187 
L 645.361224 194.179142 
L 647.3448 185.762371 
L 649.328376 180.704754 
L 651.311952 178.421883 
L 653.295528 178.653606 
L 655.279104 179.864905 
L 657.26268 185.094533 
L 659.246256 192.5155 
L 661.229832 203.246425 
L 663.213408 210.564634 
L 665.196984 215.534598 
L 667.180561 218.918715 
L 669.164137 219.14729 
L 671.147713 210.056142 
L 673.131289 191.423503 
L 675.114865 170.656382 
L 677.098441 154.205126 
L 679.082017 133.13088 
L 681.065593 120.617572 
L 683.049169 127.22153 
L 685.032745 140.016732 
L 690.983474 182.810539 
L 692.96705 198.944347 
L 694.950626 211.652726 
L 696.934202 215.362417 
L 698.917778 213.689185 
L 700.901354 219.332551 
L 702.88493 228.951177 
L 702.88493 228.951177 
" style="fill:none;stroke:#2ca02c;stroke-dasharray:9.6,2.4,1.5,2.4;stroke-dashoffset:0;stroke-width:1.5;"/>
   </g>
   <g id="line2d_32">
    <path clip-path="url(#p7741a86d43)" d="M 38.386941 258.08475 
L 40.370517 274.874513 
L 42.354093 285.89497 
L 44.337669 292.528869 
L 46.321245 298.050396 
L 48.304822 302.524118 
L 50.288398 302.734464 
L 52.271974 303.674436 
L 54.25555 305.439786 
L 56.239126 306.553184 
L 58.222702 307.278928 
L 60.206278 300.320212 
L 64.17343 277.932129 
L 66.157006 272.546205 
L 68.140582 261.561083 
L 70.124158 246.933059 
L 72.107735 224.491462 
L 74.091311 206.888521 
L 76.074887 197.465625 
L 78.058463 193.999444 
L 80.042039 194.103739 
L 82.025615 196.326971 
L 84.009191 199.932293 
L 85.992767 205.318608 
L 87.976343 211.105069 
L 89.959919 216.046824 
L 91.943495 218.817885 
L 93.927072 219.289237 
L 95.910648 215.260879 
L 97.894224 205.699989 
L 99.8778 189.198074 
L 103.844952 144.953387 
L 105.828528 130.430756 
L 109.79568 94.753059 
L 111.779256 89.749053 
L 113.762832 97.510992 
L 115.746408 109.857023 
L 117.729985 122.941146 
L 119.713561 138.800723 
L 123.680713 175.560656 
L 127.647865 204.391691 
L 129.631441 224.001857 
L 131.615017 246.53096 
L 133.598593 270.749791 
L 135.582169 284.392333 
L 137.565745 291.028258 
L 141.532898 296.347247 
L 143.516474 299.542076 
L 145.50005 300.471774 
L 147.483626 303.152864 
L 149.467202 304.273948 
L 151.450778 296.80996 
L 153.434354 280.701213 
L 155.41793 250.569054 
L 157.401506 216.386478 
L 159.385082 188.037239 
L 161.368658 180.310269 
L 163.352235 182.82662 
L 165.335811 190.100051 
L 167.319387 186.531796 
L 169.302963 179.505583 
L 171.286539 174.970685 
L 173.270115 171.048232 
L 175.253691 169.264605 
L 179.220843 168.639495 
L 181.204419 171.958604 
L 183.187995 177.167465 
L 185.171572 180.663905 
L 189.138724 180.772007 
L 191.1223 176.131081 
L 193.105876 166.685808 
L 195.089452 149.54729 
L 197.073028 124.566672 
L 199.056604 103.652724 
L 203.023756 82.530405 
L 205.007332 69.785252 
L 206.990908 70.427517 
L 208.974485 80.718203 
L 212.941637 108.381277 
L 214.925213 124.907399 
L 218.892365 168.722071 
L 222.859517 200.464334 
L 224.843093 218.792336 
L 226.826669 239.757334 
L 230.793822 267.111697 
L 232.777398 274.277758 
L 234.760974 274.988398 
L 236.74455 274.598744 
L 238.728126 276.805847 
L 240.711702 276.358287 
L 242.695278 278.952896 
L 244.678854 282.356363 
L 246.66243 277.376589 
L 248.646006 264.078507 
L 250.629582 237.771168 
L 252.613158 202.429367 
L 254.596735 170.884494 
L 256.580311 159.12431 
L 258.563887 156.459593 
L 260.547463 160.398835 
L 262.531039 158.483265 
L 264.514615 154.997513 
L 266.498191 154.580797 
L 268.481767 153.995756 
L 270.465343 155.214058 
L 272.448919 157.198979 
L 276.416071 161.416844 
L 278.399648 165.372435 
L 280.383224 168.470388 
L 282.3668 168.098401 
L 284.350376 166.364261 
L 286.333952 160.753447 
L 288.317528 151.60693 
L 290.301104 135.951624 
L 292.28468 112.384819 
L 294.268256 90.385657 
L 296.251832 76.758268 
L 300.218985 43.362247 
L 302.202561 42.899826 
L 304.186137 54.297345 
L 308.153289 84.834506 
L 310.136865 97.833832 
L 314.104017 134.82605 
L 316.087593 149.911858 
L 318.071169 160.851251 
L 320.054745 172.618219 
L 322.038321 190.74195 
L 324.021898 243.968342 
L 326.005474 259.036435 
L 327.98905 267.385489 
L 329.972626 269.463284 
L 331.956202 270.868556 
L 333.939778 272.904697 
L 335.923354 271.426658 
L 337.90693 272.393374 
L 339.890506 274.223512 
L 341.874082 268.285733 
L 343.857658 256.817473 
L 345.841235 235.721118 
L 347.824811 207.001942 
L 349.808387 180.086257 
L 351.791963 171.064094 
L 353.775539 168.560041 
L 355.759115 170.39523 
L 359.726267 160.37004 
L 361.709843 160.218454 
L 363.693419 160.284608 
L 365.676995 162.00928 
L 367.660571 163.345738 
L 369.644148 165.563065 
L 371.627724 170.897964 
L 373.6113 177.590892 
L 375.594876 183.473717 
L 377.578452 187.408761 
L 379.562028 187.212763 
L 381.545604 184.818618 
L 383.52918 177.067905 
L 385.512756 161.177264 
L 389.479908 116.290043 
L 391.463485 100.018851 
L 395.430637 59.070652 
L 397.414213 57.577435 
L 399.397789 66.350843 
L 403.364941 89.792294 
L 405.348517 102.968975 
L 409.315669 137.089643 
L 411.299245 150.972791 
L 413.282821 161.132364 
L 415.266398 173.40736 
L 417.249974 189.383872 
L 419.23355 237.71802 
L 421.217126 251.634477 
L 423.200702 258.624868 
L 425.184278 259.557274 
L 427.167854 259.779017 
L 429.15143 261.776895 
L 431.135006 262.591708 
L 433.118582 265.600641 
L 435.102158 268.250424 
L 437.085735 263.584949 
L 439.069311 252.593629 
L 441.052887 230.77946 
L 443.036463 203.478294 
L 445.020039 178.360951 
L 447.003615 172.717267 
L 448.987191 168.112749 
L 450.970767 167.602939 
L 452.954343 159.63534 
L 454.937919 153.950099 
L 456.921495 152.616789 
L 458.905071 150.062932 
L 460.888648 149.765152 
L 462.872224 149.104976 
L 464.8558 150.495119 
L 468.822952 161.669382 
L 470.806528 169.22971 
L 472.790104 171.056236 
L 474.77368 168.854673 
L 476.757256 164.960112 
L 478.740832 156.092365 
L 480.724408 140.72171 
L 482.707985 117.272596 
L 484.691561 96.205866 
L 486.675137 82.733919 
L 488.658713 65.195449 
L 490.642289 55.604081 
L 492.625865 62.980367 
L 494.609441 76.207951 
L 496.593017 91.319186 
L 498.576593 104.700357 
L 500.560169 119.162398 
L 502.543745 136.963289 
L 504.527321 156.697026 
L 506.510898 171.845012 
L 508.494474 184.013395 
L 512.461626 218.008831 
L 514.445202 237.914263 
L 516.428778 255.139531 
L 518.412354 265.229045 
L 520.39593 268.212039 
L 522.379506 270.242836 
L 524.363082 271.996009 
L 526.346658 269.94613 
L 528.330235 269.455354 
L 530.313811 269.583807 
L 532.297387 265.889831 
L 534.280963 257.798171 
L 536.264539 238.795864 
L 538.248115 212.399921 
L 540.231691 187.714178 
L 542.215267 177.816758 
L 544.198843 169.541862 
L 546.182419 166.264017 
L 548.165995 161.105033 
L 550.149571 155.268206 
L 552.133148 150.820448 
L 554.116724 147.486283 
L 556.1003 144.941284 
L 558.083876 143.154801 
L 560.067452 144.016076 
L 562.051028 151.60654 
L 564.034604 158.684241 
L 566.01818 168.208015 
L 568.001756 175.442306 
L 569.985332 175.266634 
L 571.968908 173.450625 
L 573.952485 169.936567 
L 575.936061 162.372677 
L 577.919637 146.342871 
L 579.903213 128.712648 
L 581.886789 112.913321 
L 583.870365 91.558328 
L 585.853941 79.575498 
L 587.837517 85.376625 
L 589.821093 96.082098 
L 591.804669 110.429668 
L 595.771821 136.480028 
L 599.738974 166.200596 
L 601.72255 174.404896 
L 603.706126 178.792942 
L 605.689702 190.946294 
L 607.673278 208.43574 
L 609.656854 234.533733 
L 611.64043 255.144485 
L 613.624006 269.186198 
L 615.607582 276.136813 
L 617.591158 280.359851 
L 619.574735 281.243966 
L 621.558311 277.607897 
L 623.541887 274.339788 
L 625.525463 273.231906 
L 627.509039 271.361992 
L 629.492615 268.720653 
L 631.476191 261.410863 
L 635.443343 246.150457 
L 637.426919 244.982642 
L 639.410495 233.922557 
L 641.394071 220.856027 
L 643.377648 205.075147 
L 645.361224 192.762449 
L 647.3448 183.035893 
L 649.328376 177.423249 
L 651.311952 175.018318 
L 653.295528 175.716805 
L 655.279104 177.646992 
L 657.26268 183.37152 
L 659.246256 191.35852 
L 661.229832 202.044789 
L 663.213408 209.181055 
L 665.196984 214.060903 
L 667.180561 216.781988 
L 669.164137 215.837356 
L 671.147713 205.69262 
L 675.114865 168.057576 
L 677.098441 153.965228 
L 679.082017 137.678711 
L 681.065593 130.311698 
L 683.049169 139.445013 
L 685.032745 151.956296 
L 687.016321 163.454108 
L 688.999898 173.448722 
L 690.983474 185.24873 
L 692.96705 199.245983 
L 694.950626 211.47237 
L 696.934202 216.951046 
L 698.917778 219.251829 
L 700.901354 229.111743 
L 702.88493 242.107409 
L 702.88493 242.107409 
" style="fill:none;stroke:#000000;stroke-linecap:square;"/>
   </g>
   <g id="patch_3">
    <path d="M 36.403365 326.64351 
L 36.403365 6.799459 
" style="fill:none;stroke:#000000;stroke-linecap:square;stroke-linejoin:miter;stroke-width:0.8;"/>
   </g>
   <g id="patch_4">
    <path d="M 706.852082 326.64351 
L 706.852082 6.799459 
" style="fill:none;stroke:#000000;stroke-linecap:square;stroke-linejoin:miter;stroke-width:0.8;"/>
   </g>
   <g id="patch_5">
    <path d="M 36.403365 326.64351 
L 706.852082 326.64351 
" style="fill:none;stroke:#000000;stroke-linecap:square;stroke-linejoin:miter;stroke-width:0.8;"/>
   </g>
   <g id="patch_6">
    <path d="M 36.403365 6.799459 
L 706.852082 6.799459 
" style="fill:none;stroke:#000000;stroke-linecap:square;stroke-linejoin:miter;stroke-width:0.8;"/>
   </g>
   <g id="legend_1">
    <g id="patch_7">
     <path d="M 80.976942 29.477584 
L 662.278505 29.477584 
L 662.278505 11.799459 
L 80.976942 11.799459 
z
" style="fill:#ffffff;opacity:0.95;stroke:#000000;stroke-linejoin:miter;"/>
    </g>
    <g id="line2d_33">
     <path d="M 84.976942 19.897896 
L 104.976942 19.897896 
" style="fill:none;stroke:#d62728;stroke-dasharray:9.25,4;stroke-dashoffset:0;stroke-width:2.5;"/>
    </g>
    <g id="line2d_34"/>
    <g id="text_17">
     <!-- Actual demand -->
     <g transform="translate(112.976942 23.397896)scale(0.1 -0.1)">
      <defs>
       <path d="M 2188 4044 
L 1331 1722 
L 3047 1722 
L 2188 4044 
z
M 1831 4666 
L 2547 4666 
L 4325 0 
L 3669 0 
L 3244 1197 
L 1141 1197 
L 716 0 
L 50 0 
L 1831 4666 
z
" id="DejaVuSans-41" transform="scale(0.015625)"/>
       <path d="M 3122 3366 
L 3122 2828 
Q 2878 2963 2633 3030 
Q 2388 3097 2138 3097 
Q 1578 3097 1268 2742 
Q 959 2388 959 1747 
Q 959 1106 1268 751 
Q 1578 397 2138 397 
Q 2388 397 2633 464 
Q 2878 531 3122 666 
L 3122 134 
Q 2881 22 2623 -34 
Q 2366 -91 2075 -91 
Q 1284 -91 818 406 
Q 353 903 353 1747 
Q 353 2603 823 3093 
Q 1294 3584 2113 3584 
Q 2378 3584 2631 3529 
Q 2884 3475 3122 3366 
z
" id="DejaVuSans-63" transform="scale(0.015625)"/>
       <path d="M 603 4863 
L 1178 4863 
L 1178 0 
L 603 0 
L 603 4863 
z
" id="DejaVuSans-6c" transform="scale(0.015625)"/>
      </defs>
      <use xlink:href="#DejaVuSans-41"/>
      <use x="66.658203" xlink:href="#DejaVuSans-63"/>
      <use x="121.638672" xlink:href="#DejaVuSans-74"/>
      <use x="160.847656" xlink:href="#DejaVuSans-75"/>
      <use x="224.226562" xlink:href="#DejaVuSans-61"/>
      <use x="285.505859" xlink:href="#DejaVuSans-6c"/>
      <use x="313.289062" xlink:href="#DejaVuSans-20"/>
      <use x="345.076172" xlink:href="#DejaVuSans-64"/>
      <use x="408.552734" xlink:href="#DejaVuSans-65"/>
      <use x="470.076172" xlink:href="#DejaVuSans-6d"/>
      <use x="567.488281" xlink:href="#DejaVuSans-61"/>
      <use x="628.767578" xlink:href="#DejaVuSans-6e"/>
      <use x="692.146484" xlink:href="#DejaVuSans-64"/>
     </g>
    </g>
    <g id="line2d_35">
     <path d="M 208.539442 19.897896 
L 228.539442 19.897896 
" style="fill:none;stroke:#1f77b4;stroke-dasharray:2,3.3;stroke-dashoffset:0;stroke-width:2;"/>
    </g>
    <g id="line2d_36"/>
    <g id="text_18">
     <!-- Forecasted demand 1 -->
     <g transform="translate(236.539442 23.397896)scale(0.1 -0.1)">
      <defs>
       <path d="M 2834 3397 
L 2834 2853 
Q 2591 2978 2328 3040 
Q 2066 3103 1784 3103 
Q 1356 3103 1142 2972 
Q 928 2841 928 2578 
Q 928 2378 1081 2264 
Q 1234 2150 1697 2047 
L 1894 2003 
Q 2506 1872 2764 1633 
Q 3022 1394 3022 966 
Q 3022 478 2636 193 
Q 2250 -91 1575 -91 
Q 1294 -91 989 -36 
Q 684 19 347 128 
L 347 722 
Q 666 556 975 473 
Q 1284 391 1588 391 
Q 1994 391 2212 530 
Q 2431 669 2431 922 
Q 2431 1156 2273 1281 
Q 2116 1406 1581 1522 
L 1381 1569 
Q 847 1681 609 1914 
Q 372 2147 372 2553 
Q 372 3047 722 3315 
Q 1072 3584 1716 3584 
Q 2034 3584 2315 3537 
Q 2597 3491 2834 3397 
z
" id="DejaVuSans-73" transform="scale(0.015625)"/>
      </defs>
      <use xlink:href="#DejaVuSans-46"/>
      <use x="53.894531" xlink:href="#DejaVuSans-6f"/>
      <use x="115.076172" xlink:href="#DejaVuSans-72"/>
      <use x="153.939453" xlink:href="#DejaVuSans-65"/>
      <use x="215.462891" xlink:href="#DejaVuSans-63"/>
      <use x="270.443359" xlink:href="#DejaVuSans-61"/>
      <use x="331.722656" xlink:href="#DejaVuSans-73"/>
      <use x="383.822266" xlink:href="#DejaVuSans-74"/>
      <use x="423.03125" xlink:href="#DejaVuSans-65"/>
      <use x="484.554688" xlink:href="#DejaVuSans-64"/>
      <use x="548.03125" xlink:href="#DejaVuSans-20"/>
      <use x="579.818359" xlink:href="#DejaVuSans-64"/>
      <use x="643.294922" xlink:href="#DejaVuSans-65"/>
      <use x="704.818359" xlink:href="#DejaVuSans-6d"/>
      <use x="802.230469" xlink:href="#DejaVuSans-61"/>
      <use x="863.509766" xlink:href="#DejaVuSans-6e"/>
      <use x="926.888672" xlink:href="#DejaVuSans-64"/>
      <use x="990.365234" xlink:href="#DejaVuSans-20"/>
      <use x="1022.152344" xlink:href="#DejaVuSans-31"/>
     </g>
    </g>
    <g id="line2d_37">
     <path d="M 365.11913 19.897896 
L 385.11913 19.897896 
" style="fill:none;stroke:#2ca02c;stroke-dasharray:9.6,2.4,1.5,2.4;stroke-dashoffset:0;stroke-width:1.5;"/>
    </g>
    <g id="line2d_38"/>
    <g id="text_19">
     <!-- Forecasted demand 2 -->
     <g transform="translate(393.11913 23.397896)scale(0.1 -0.1)">
      <use xlink:href="#DejaVuSans-46"/>
      <use x="53.894531" xlink:href="#DejaVuSans-6f"/>
      <use x="115.076172" xlink:href="#DejaVuSans-72"/>
      <use x="153.939453" xlink:href="#DejaVuSans-65"/>
      <use x="215.462891" xlink:href="#DejaVuSans-63"/>
      <use x="270.443359" xlink:href="#DejaVuSans-61"/>
      <use x="331.722656" xlink:href="#DejaVuSans-73"/>
      <use x="383.822266" xlink:href="#DejaVuSans-74"/>
      <use x="423.03125" xlink:href="#DejaVuSans-65"/>
      <use x="484.554688" xlink:href="#DejaVuSans-64"/>
      <use x="548.03125" xlink:href="#DejaVuSans-20"/>
      <use x="579.818359" xlink:href="#DejaVuSans-64"/>
      <use x="643.294922" xlink:href="#DejaVuSans-65"/>
      <use x="704.818359" xlink:href="#DejaVuSans-6d"/>
      <use x="802.230469" xlink:href="#DejaVuSans-61"/>
      <use x="863.509766" xlink:href="#DejaVuSans-6e"/>
      <use x="926.888672" xlink:href="#DejaVuSans-64"/>
      <use x="990.365234" xlink:href="#DejaVuSans-20"/>
      <use x="1022.152344" xlink:href="#DejaVuSans-32"/>
     </g>
    </g>
    <g id="line2d_39">
     <path d="M 521.698817 19.897896 
L 541.698817 19.897896 
" style="fill:none;stroke:#000000;stroke-linecap:square;"/>
    </g>
    <g id="line2d_40"/>
    <g id="text_20">
     <!-- Forecasted demand 3 -->
     <g transform="translate(549.698817 23.397896)scale(0.1 -0.1)">
      <use xlink:href="#DejaVuSans-46"/>
      <use x="53.894531" xlink:href="#DejaVuSans-6f"/>
      <use x="115.076172" xlink:href="#DejaVuSans-72"/>
      <use x="153.939453" xlink:href="#DejaVuSans-65"/>
      <use x="215.462891" xlink:href="#DejaVuSans-63"/>
      <use x="270.443359" xlink:href="#DejaVuSans-61"/>
      <use x="331.722656" xlink:href="#DejaVuSans-73"/>
      <use x="383.822266" xlink:href="#DejaVuSans-74"/>
      <use x="423.03125" xlink:href="#DejaVuSans-65"/>
      <use x="484.554688" xlink:href="#DejaVuSans-64"/>
      <use x="548.03125" xlink:href="#DejaVuSans-20"/>
      <use x="579.818359" xlink:href="#DejaVuSans-64"/>
      <use x="643.294922" xlink:href="#DejaVuSans-65"/>
      <use x="704.818359" xlink:href="#DejaVuSans-6d"/>
      <use x="802.230469" xlink:href="#DejaVuSans-61"/>
      <use x="863.509766" xlink:href="#DejaVuSans-6e"/>
      <use x="926.888672" xlink:href="#DejaVuSans-64"/>
      <use x="990.365234" xlink:href="#DejaVuSans-20"/>
      <use x="1022.152344" xlink:href="#DejaVuSans-33"/>
     </g>
    </g>
   </g>
  </g>
 </g>
 <defs>
  <clipPath id="p7741a86d43">
   <rect height="319.844051" width="670.448717" x="36.403365" y="6.799459"/>
  </clipPath>
 </defs>
</svg>
