<?xml version="1.0" encoding="utf-8" standalone="no"?>
<!DOCTYPE svg PUBLIC "-//W3C//DTD SVG 1.1//EN"
  "http://www.w3.org/Graphics/SVG/1.1/DTD/svg11.dtd">
<svg height="360pt" version="1.1" viewBox="0 0 720 360" width="720pt" xmlns="http://www.w3.org/2000/svg" xmlns:xlink="http://www.w3.org/1999/xlink">
 <metadata>
  <rdf:RDF xmlns:cc="http://creativecommons.org/ns#" xmlns:dc="http://purl.org/dc/elements/1.1/" xmlns:rdf="http://www.w3.org/1999/02/22-rdf-syntax-ns#">
   <cc:Work>
    <dc:type rdf:resource="http://purl.org/dc/dcmitype/StillImage"/>
    <dc:date>2022-04-11T20:54:20.024686</dc:date>
    <dc:format>image/svg+xml</dc:format>
    <dc:creator>
     <cc:Agent>
      <dc:title>Matplotlib v3.4.3, https://matplotlib.org/</dc:title>
     </cc:Agent>
    </dc:creator>
   </cc:Work>
  </rdf:RDF>
 </metadata>
 <defs>
  <style type="text/css">*{stroke-linecap:butt;stroke-linejoin:round;}</style>
 </defs>
 <g id="figure_1">
  <g id="patch_1">
   <path d="M 0 360 
L 720 360 
L 720 0 
L 0 0 
z
" style="fill:#ffffff;"/>
  </g>
  <g id="axes_1">
   <g id="patch_2">
    <path d="M 38.420552 326.64351 
L 706.846097 326.64351 
L 706.846097 6.799459 
L 38.420552 6.799459 
z
" style="fill:#ffffff;"/>
   </g>
   <g id="matplotlib.axis_1">
    <g id="xtick_1">
     <g id="line2d_1">
      <path clip-path="url(#pdd1ea1342d)" d="M 40.398143 326.64351 
L 40.398143 6.799459 
" style="fill:none;stroke:#b0b0b0;stroke-linecap:square;stroke-width:0.8;"/>
     </g>
     <g id="line2d_2">
      <defs>
       <path d="M 0 0 
L 0 3.5 
" id="m9057f41dae" style="stroke:#000000;stroke-width:0.8;"/>
      </defs>
      <g>
       <use style="stroke:#000000;stroke-width:0.8;" x="40.398143" xlink:href="#m9057f41dae" y="326.64351"/>
      </g>
     </g>
     <g id="text_1">
      <!-- Mon. -->
      <g transform="translate(28.266893 341.241947)scale(0.1 -0.1)">
       <defs>
        <path d="M 628 4666 
L 1569 4666 
L 2759 1491 
L 3956 4666 
L 4897 4666 
L 4897 0 
L 4281 0 
L 4281 4097 
L 3078 897 
L 2444 897 
L 1241 4097 
L 1241 0 
L 628 0 
L 628 4666 
z
" id="DejaVuSans-4d" transform="scale(0.015625)"/>
        <path d="M 1959 3097 
Q 1497 3097 1228 2736 
Q 959 2375 959 1747 
Q 959 1119 1226 758 
Q 1494 397 1959 397 
Q 2419 397 2687 759 
Q 2956 1122 2956 1747 
Q 2956 2369 2687 2733 
Q 2419 3097 1959 3097 
z
M 1959 3584 
Q 2709 3584 3137 3096 
Q 3566 2609 3566 1747 
Q 3566 888 3137 398 
Q 2709 -91 1959 -91 
Q 1206 -91 779 398 
Q 353 888 353 1747 
Q 353 2609 779 3096 
Q 1206 3584 1959 3584 
z
" id="DejaVuSans-6f" transform="scale(0.015625)"/>
        <path d="M 3513 2113 
L 3513 0 
L 2938 0 
L 2938 2094 
Q 2938 2591 2744 2837 
Q 2550 3084 2163 3084 
Q 1697 3084 1428 2787 
Q 1159 2491 1159 1978 
L 1159 0 
L 581 0 
L 581 3500 
L 1159 3500 
L 1159 2956 
Q 1366 3272 1645 3428 
Q 1925 3584 2291 3584 
Q 2894 3584 3203 3211 
Q 3513 2838 3513 2113 
z
" id="DejaVuSans-6e" transform="scale(0.015625)"/>
        <path d="M 684 794 
L 1344 794 
L 1344 0 
L 684 0 
L 684 794 
z
" id="DejaVuSans-2e" transform="scale(0.015625)"/>
       </defs>
       <use xlink:href="#DejaVuSans-4d"/>
       <use x="86.279297" xlink:href="#DejaVuSans-6f"/>
       <use x="147.460938" xlink:href="#DejaVuSans-6e"/>
       <use x="210.839844" xlink:href="#DejaVuSans-2e"/>
      </g>
     </g>
    </g>
    <g id="xtick_2">
     <g id="line2d_3">
      <path clip-path="url(#pdd1ea1342d)" d="M 135.322481 326.64351 
L 135.322481 6.799459 
" style="fill:none;stroke:#b0b0b0;stroke-linecap:square;stroke-width:0.8;"/>
     </g>
     <g id="line2d_4">
      <g>
       <use style="stroke:#000000;stroke-width:0.8;" x="135.322481" xlink:href="#m9057f41dae" y="326.64351"/>
      </g>
     </g>
     <g id="text_2">
      <!-- Tue. -->
      <g transform="translate(125.190449 341.241947)scale(0.1 -0.1)">
       <defs>
        <path d="M -19 4666 
L 3928 4666 
L 3928 4134 
L 2272 4134 
L 2272 0 
L 1638 0 
L 1638 4134 
L -19 4134 
L -19 4666 
z
" id="DejaVuSans-54" transform="scale(0.015625)"/>
        <path d="M 544 1381 
L 544 3500 
L 1119 3500 
L 1119 1403 
Q 1119 906 1312 657 
Q 1506 409 1894 409 
Q 2359 409 2629 706 
Q 2900 1003 2900 1516 
L 2900 3500 
L 3475 3500 
L 3475 0 
L 2900 0 
L 2900 538 
Q 2691 219 2414 64 
Q 2138 -91 1772 -91 
Q 1169 -91 856 284 
Q 544 659 544 1381 
z
M 1991 3584 
L 1991 3584 
z
" id="DejaVuSans-75" transform="scale(0.015625)"/>
        <path d="M 3597 1894 
L 3597 1613 
L 953 1613 
Q 991 1019 1311 708 
Q 1631 397 2203 397 
Q 2534 397 2845 478 
Q 3156 559 3463 722 
L 3463 178 
Q 3153 47 2828 -22 
Q 2503 -91 2169 -91 
Q 1331 -91 842 396 
Q 353 884 353 1716 
Q 353 2575 817 3079 
Q 1281 3584 2069 3584 
Q 2775 3584 3186 3129 
Q 3597 2675 3597 1894 
z
M 3022 2063 
Q 3016 2534 2758 2815 
Q 2500 3097 2075 3097 
Q 1594 3097 1305 2825 
Q 1016 2553 972 2059 
L 3022 2063 
z
" id="DejaVuSans-65" transform="scale(0.015625)"/>
       </defs>
       <use xlink:href="#DejaVuSans-54"/>
       <use x="45.958984" xlink:href="#DejaVuSans-75"/>
       <use x="109.337891" xlink:href="#DejaVuSans-65"/>
       <use x="170.861328" xlink:href="#DejaVuSans-2e"/>
      </g>
     </g>
    </g>
    <g id="xtick_3">
     <g id="line2d_5">
      <path clip-path="url(#pdd1ea1342d)" d="M 230.246818 326.64351 
L 230.246818 6.799459 
" style="fill:none;stroke:#b0b0b0;stroke-linecap:square;stroke-width:0.8;"/>
     </g>
     <g id="line2d_6">
      <g>
       <use style="stroke:#000000;stroke-width:0.8;" x="230.246818" xlink:href="#m9057f41dae" y="326.64351"/>
      </g>
     </g>
     <g id="text_3">
      <!-- Wed. -->
      <g transform="translate(217.756974 341.241947)scale(0.1 -0.1)">
       <defs>
        <path d="M 213 4666 
L 850 4666 
L 1831 722 
L 2809 4666 
L 3519 4666 
L 4500 722 
L 5478 4666 
L 6119 4666 
L 4947 0 
L 4153 0 
L 3169 4050 
L 2175 0 
L 1381 0 
L 213 4666 
z
" id="DejaVuSans-57" transform="scale(0.015625)"/>
        <path d="M 2906 2969 
L 2906 4863 
L 3481 4863 
L 3481 0 
L 2906 0 
L 2906 525 
Q 2725 213 2448 61 
Q 2172 -91 1784 -91 
Q 1150 -91 751 415 
Q 353 922 353 1747 
Q 353 2572 751 3078 
Q 1150 3584 1784 3584 
Q 2172 3584 2448 3432 
Q 2725 3281 2906 2969 
z
M 947 1747 
Q 947 1113 1208 752 
Q 1469 391 1925 391 
Q 2381 391 2643 752 
Q 2906 1113 2906 1747 
Q 2906 2381 2643 2742 
Q 2381 3103 1925 3103 
Q 1469 3103 1208 2742 
Q 947 2381 947 1747 
z
" id="DejaVuSans-64" transform="scale(0.015625)"/>
       </defs>
       <use xlink:href="#DejaVuSans-57"/>
       <use x="93.001953" xlink:href="#DejaVuSans-65"/>
       <use x="154.525391" xlink:href="#DejaVuSans-64"/>
       <use x="218.001953" xlink:href="#DejaVuSans-2e"/>
      </g>
     </g>
    </g>
    <g id="xtick_4">
     <g id="line2d_7">
      <path clip-path="url(#pdd1ea1342d)" d="M 325.171156 326.64351 
L 325.171156 6.799459 
" style="fill:none;stroke:#b0b0b0;stroke-linecap:square;stroke-width:0.8;"/>
     </g>
     <g id="line2d_8">
      <g>
       <use style="stroke:#000000;stroke-width:0.8;" x="325.171156" xlink:href="#m9057f41dae" y="326.64351"/>
      </g>
     </g>
     <g id="text_4">
      <!-- Thur. -->
      <g transform="translate(312.591468 341.241947)scale(0.1 -0.1)">
       <defs>
        <path d="M 3513 2113 
L 3513 0 
L 2938 0 
L 2938 2094 
Q 2938 2591 2744 2837 
Q 2550 3084 2163 3084 
Q 1697 3084 1428 2787 
Q 1159 2491 1159 1978 
L 1159 0 
L 581 0 
L 581 4863 
L 1159 4863 
L 1159 2956 
Q 1366 3272 1645 3428 
Q 1925 3584 2291 3584 
Q 2894 3584 3203 3211 
Q 3513 2838 3513 2113 
z
" id="DejaVuSans-68" transform="scale(0.015625)"/>
        <path d="M 2631 2963 
Q 2534 3019 2420 3045 
Q 2306 3072 2169 3072 
Q 1681 3072 1420 2755 
Q 1159 2438 1159 1844 
L 1159 0 
L 581 0 
L 581 3500 
L 1159 3500 
L 1159 2956 
Q 1341 3275 1631 3429 
Q 1922 3584 2338 3584 
Q 2397 3584 2469 3576 
Q 2541 3569 2628 3553 
L 2631 2963 
z
" id="DejaVuSans-72" transform="scale(0.015625)"/>
       </defs>
       <use xlink:href="#DejaVuSans-54"/>
       <use x="61.083984" xlink:href="#DejaVuSans-68"/>
       <use x="124.462891" xlink:href="#DejaVuSans-75"/>
       <use x="187.841797" xlink:href="#DejaVuSans-72"/>
       <use x="219.830078" xlink:href="#DejaVuSans-2e"/>
      </g>
     </g>
    </g>
    <g id="xtick_5">
     <g id="line2d_9">
      <path clip-path="url(#pdd1ea1342d)" d="M 420.095494 326.64351 
L 420.095494 6.799459 
" style="fill:none;stroke:#b0b0b0;stroke-linecap:square;stroke-width:0.8;"/>
     </g>
     <g id="line2d_10">
      <g>
       <use style="stroke:#000000;stroke-width:0.8;" x="420.095494" xlink:href="#m9057f41dae" y="326.64351"/>
      </g>
     </g>
     <g id="text_5">
      <!-- Fri. -->
      <g transform="translate(412.548619 341.241947)scale(0.1 -0.1)">
       <defs>
        <path d="M 628 4666 
L 3309 4666 
L 3309 4134 
L 1259 4134 
L 1259 2759 
L 3109 2759 
L 3109 2228 
L 1259 2228 
L 1259 0 
L 628 0 
L 628 4666 
z
" id="DejaVuSans-46" transform="scale(0.015625)"/>
        <path d="M 603 3500 
L 1178 3500 
L 1178 0 
L 603 0 
L 603 3500 
z
M 603 4863 
L 1178 4863 
L 1178 4134 
L 603 4134 
L 603 4863 
z
" id="DejaVuSans-69" transform="scale(0.015625)"/>
       </defs>
       <use xlink:href="#DejaVuSans-46"/>
       <use x="50.269531" xlink:href="#DejaVuSans-72"/>
       <use x="91.382812" xlink:href="#DejaVuSans-69"/>
       <use x="119.166016" xlink:href="#DejaVuSans-2e"/>
      </g>
     </g>
    </g>
    <g id="xtick_6">
     <g id="line2d_11">
      <path clip-path="url(#pdd1ea1342d)" d="M 515.019831 326.64351 
L 515.019831 6.799459 
" style="fill:none;stroke:#b0b0b0;stroke-linecap:square;stroke-width:0.8;"/>
     </g>
     <g id="line2d_12">
      <g>
       <use style="stroke:#000000;stroke-width:0.8;" x="515.019831" xlink:href="#m9057f41dae" y="326.64351"/>
      </g>
     </g>
     <g id="text_6">
      <!-- Sat. -->
      <g transform="translate(505.232331 341.241947)scale(0.1 -0.1)">
       <defs>
        <path d="M 3425 4513 
L 3425 3897 
Q 3066 4069 2747 4153 
Q 2428 4238 2131 4238 
Q 1616 4238 1336 4038 
Q 1056 3838 1056 3469 
Q 1056 3159 1242 3001 
Q 1428 2844 1947 2747 
L 2328 2669 
Q 3034 2534 3370 2195 
Q 3706 1856 3706 1288 
Q 3706 609 3251 259 
Q 2797 -91 1919 -91 
Q 1588 -91 1214 -16 
Q 841 59 441 206 
L 441 856 
Q 825 641 1194 531 
Q 1563 422 1919 422 
Q 2459 422 2753 634 
Q 3047 847 3047 1241 
Q 3047 1584 2836 1778 
Q 2625 1972 2144 2069 
L 1759 2144 
Q 1053 2284 737 2584 
Q 422 2884 422 3419 
Q 422 4038 858 4394 
Q 1294 4750 2059 4750 
Q 2388 4750 2728 4690 
Q 3069 4631 3425 4513 
z
" id="DejaVuSans-53" transform="scale(0.015625)"/>
        <path d="M 2194 1759 
Q 1497 1759 1228 1600 
Q 959 1441 959 1056 
Q 959 750 1161 570 
Q 1363 391 1709 391 
Q 2188 391 2477 730 
Q 2766 1069 2766 1631 
L 2766 1759 
L 2194 1759 
z
M 3341 1997 
L 3341 0 
L 2766 0 
L 2766 531 
Q 2569 213 2275 61 
Q 1981 -91 1556 -91 
Q 1019 -91 701 211 
Q 384 513 384 1019 
Q 384 1609 779 1909 
Q 1175 2209 1959 2209 
L 2766 2209 
L 2766 2266 
Q 2766 2663 2505 2880 
Q 2244 3097 1772 3097 
Q 1472 3097 1187 3025 
Q 903 2953 641 2809 
L 641 3341 
Q 956 3463 1253 3523 
Q 1550 3584 1831 3584 
Q 2591 3584 2966 3190 
Q 3341 2797 3341 1997 
z
" id="DejaVuSans-61" transform="scale(0.015625)"/>
        <path d="M 1172 4494 
L 1172 3500 
L 2356 3500 
L 2356 3053 
L 1172 3053 
L 1172 1153 
Q 1172 725 1289 603 
Q 1406 481 1766 481 
L 2356 481 
L 2356 0 
L 1766 0 
Q 1100 0 847 248 
Q 594 497 594 1153 
L 594 3053 
L 172 3053 
L 172 3500 
L 594 3500 
L 594 4494 
L 1172 4494 
z
" id="DejaVuSans-74" transform="scale(0.015625)"/>
       </defs>
       <use xlink:href="#DejaVuSans-53"/>
       <use x="63.476562" xlink:href="#DejaVuSans-61"/>
       <use x="124.755859" xlink:href="#DejaVuSans-74"/>
       <use x="163.964844" xlink:href="#DejaVuSans-2e"/>
      </g>
     </g>
    </g>
    <g id="xtick_7">
     <g id="line2d_13">
      <path clip-path="url(#pdd1ea1342d)" d="M 609.944169 326.64351 
L 609.944169 6.799459 
" style="fill:none;stroke:#b0b0b0;stroke-linecap:square;stroke-width:0.8;"/>
     </g>
     <g id="line2d_14">
      <g>
       <use style="stroke:#000000;stroke-width:0.8;" x="609.944169" xlink:href="#m9057f41dae" y="326.64351"/>
      </g>
     </g>
     <g id="text_7">
      <!-- Sun. -->
      <g transform="translate(598.843388 341.241947)scale(0.1 -0.1)">
       <use xlink:href="#DejaVuSans-53"/>
       <use x="63.476562" xlink:href="#DejaVuSans-75"/>
       <use x="126.855469" xlink:href="#DejaVuSans-6e"/>
       <use x="190.234375" xlink:href="#DejaVuSans-2e"/>
      </g>
     </g>
    </g>
    <g id="xtick_8">
     <g id="line2d_15">
      <path clip-path="url(#pdd1ea1342d)" d="M 704.868507 326.64351 
L 704.868507 6.799459 
" style="fill:none;stroke:#b0b0b0;stroke-linecap:square;stroke-width:0.8;"/>
     </g>
     <g id="line2d_16">
      <g>
       <use style="stroke:#000000;stroke-width:0.8;" x="704.868507" xlink:href="#m9057f41dae" y="326.64351"/>
      </g>
     </g>
     <g id="text_8">
      <!-- Mon. -->
      <g transform="translate(692.737257 341.241947)scale(0.1 -0.1)">
       <use xlink:href="#DejaVuSans-4d"/>
       <use x="86.279297" xlink:href="#DejaVuSans-6f"/>
       <use x="147.460938" xlink:href="#DejaVuSans-6e"/>
       <use x="210.839844" xlink:href="#DejaVuSans-2e"/>
      </g>
     </g>
    </g>
    <g id="text_9">
     <!-- Day of the week -->
     <g transform="translate(331.8302 354.920073)scale(0.1 -0.1)">
      <defs>
       <path d="M 1259 4147 
L 1259 519 
L 2022 519 
Q 2988 519 3436 956 
Q 3884 1394 3884 2338 
Q 3884 3275 3436 3711 
Q 2988 4147 2022 4147 
L 1259 4147 
z
M 628 4666 
L 1925 4666 
Q 3281 4666 3915 4102 
Q 4550 3538 4550 2338 
Q 4550 1131 3912 565 
Q 3275 0 1925 0 
L 628 0 
L 628 4666 
z
" id="DejaVuSans-44" transform="scale(0.015625)"/>
       <path d="M 2059 -325 
Q 1816 -950 1584 -1140 
Q 1353 -1331 966 -1331 
L 506 -1331 
L 506 -850 
L 844 -850 
Q 1081 -850 1212 -737 
Q 1344 -625 1503 -206 
L 1606 56 
L 191 3500 
L 800 3500 
L 1894 763 
L 2988 3500 
L 3597 3500 
L 2059 -325 
z
" id="DejaVuSans-79" transform="scale(0.015625)"/>
       <path id="DejaVuSans-20" transform="scale(0.015625)"/>
       <path d="M 2375 4863 
L 2375 4384 
L 1825 4384 
Q 1516 4384 1395 4259 
Q 1275 4134 1275 3809 
L 1275 3500 
L 2222 3500 
L 2222 3053 
L 1275 3053 
L 1275 0 
L 697 0 
L 697 3053 
L 147 3053 
L 147 3500 
L 697 3500 
L 697 3744 
Q 697 4328 969 4595 
Q 1241 4863 1831 4863 
L 2375 4863 
z
" id="DejaVuSans-66" transform="scale(0.015625)"/>
       <path d="M 269 3500 
L 844 3500 
L 1563 769 
L 2278 3500 
L 2956 3500 
L 3675 769 
L 4391 3500 
L 4966 3500 
L 4050 0 
L 3372 0 
L 2619 2869 
L 1863 0 
L 1184 0 
L 269 3500 
z
" id="DejaVuSans-77" transform="scale(0.015625)"/>
       <path d="M 581 4863 
L 1159 4863 
L 1159 1991 
L 2875 3500 
L 3609 3500 
L 1753 1863 
L 3688 0 
L 2938 0 
L 1159 1709 
L 1159 0 
L 581 0 
L 581 4863 
z
" id="DejaVuSans-6b" transform="scale(0.015625)"/>
      </defs>
      <use xlink:href="#DejaVuSans-44"/>
      <use x="77.001953" xlink:href="#DejaVuSans-61"/>
      <use x="138.28125" xlink:href="#DejaVuSans-79"/>
      <use x="197.460938" xlink:href="#DejaVuSans-20"/>
      <use x="229.248047" xlink:href="#DejaVuSans-6f"/>
      <use x="290.429688" xlink:href="#DejaVuSans-66"/>
      <use x="325.634766" xlink:href="#DejaVuSans-20"/>
      <use x="357.421875" xlink:href="#DejaVuSans-74"/>
      <use x="396.630859" xlink:href="#DejaVuSans-68"/>
      <use x="460.009766" xlink:href="#DejaVuSans-65"/>
      <use x="521.533203" xlink:href="#DejaVuSans-20"/>
      <use x="553.320312" xlink:href="#DejaVuSans-77"/>
      <use x="635.107422" xlink:href="#DejaVuSans-65"/>
      <use x="696.630859" xlink:href="#DejaVuSans-65"/>
      <use x="758.154297" xlink:href="#DejaVuSans-6b"/>
     </g>
    </g>
   </g>
   <g id="matplotlib.axis_2">
    <g id="ytick_1">
     <g id="line2d_17">
      <path clip-path="url(#pdd1ea1342d)" d="M 38.420552 316.951266 
L 706.846097 316.951266 
" style="fill:none;stroke:#b0b0b0;stroke-linecap:square;stroke-width:0.8;"/>
     </g>
     <g id="line2d_18">
      <defs>
       <path d="M 0 0 
L -3.5 0 
" id="m00e14274b8" style="stroke:#000000;stroke-width:0.8;"/>
      </defs>
      <g>
       <use style="stroke:#000000;stroke-width:0.8;" x="38.420552" xlink:href="#m00e14274b8" y="316.951266"/>
      </g>
     </g>
     <g id="text_10">
      <!-- −8 -->
      <g transform="translate(16.678365 320.750485)scale(0.1 -0.1)">
       <defs>
        <path d="M 678 2272 
L 4684 2272 
L 4684 1741 
L 678 1741 
L 678 2272 
z
" id="DejaVuSans-2212" transform="scale(0.015625)"/>
        <path d="M 2034 2216 
Q 1584 2216 1326 1975 
Q 1069 1734 1069 1313 
Q 1069 891 1326 650 
Q 1584 409 2034 409 
Q 2484 409 2743 651 
Q 3003 894 3003 1313 
Q 3003 1734 2745 1975 
Q 2488 2216 2034 2216 
z
M 1403 2484 
Q 997 2584 770 2862 
Q 544 3141 544 3541 
Q 544 4100 942 4425 
Q 1341 4750 2034 4750 
Q 2731 4750 3128 4425 
Q 3525 4100 3525 3541 
Q 3525 3141 3298 2862 
Q 3072 2584 2669 2484 
Q 3125 2378 3379 2068 
Q 3634 1759 3634 1313 
Q 3634 634 3220 271 
Q 2806 -91 2034 -91 
Q 1263 -91 848 271 
Q 434 634 434 1313 
Q 434 1759 690 2068 
Q 947 2378 1403 2484 
z
M 1172 3481 
Q 1172 3119 1398 2916 
Q 1625 2713 2034 2713 
Q 2441 2713 2670 2916 
Q 2900 3119 2900 3481 
Q 2900 3844 2670 4047 
Q 2441 4250 2034 4250 
Q 1625 4250 1398 4047 
Q 1172 3844 1172 3481 
z
" id="DejaVuSans-38" transform="scale(0.015625)"/>
       </defs>
       <use xlink:href="#DejaVuSans-2212"/>
       <use x="83.789062" xlink:href="#DejaVuSans-38"/>
      </g>
     </g>
    </g>
    <g id="ytick_2">
     <g id="line2d_19">
      <path clip-path="url(#pdd1ea1342d)" d="M 38.420552 278.18229 
L 706.846097 278.18229 
" style="fill:none;stroke:#b0b0b0;stroke-linecap:square;stroke-width:0.8;"/>
     </g>
     <g id="line2d_20">
      <g>
       <use style="stroke:#000000;stroke-width:0.8;" x="38.420552" xlink:href="#m00e14274b8" y="278.18229"/>
      </g>
     </g>
     <g id="text_11">
      <!-- −6 -->
      <g transform="translate(16.678365 281.981509)scale(0.1 -0.1)">
       <defs>
        <path d="M 2113 2584 
Q 1688 2584 1439 2293 
Q 1191 2003 1191 1497 
Q 1191 994 1439 701 
Q 1688 409 2113 409 
Q 2538 409 2786 701 
Q 3034 994 3034 1497 
Q 3034 2003 2786 2293 
Q 2538 2584 2113 2584 
z
M 3366 4563 
L 3366 3988 
Q 3128 4100 2886 4159 
Q 2644 4219 2406 4219 
Q 1781 4219 1451 3797 
Q 1122 3375 1075 2522 
Q 1259 2794 1537 2939 
Q 1816 3084 2150 3084 
Q 2853 3084 3261 2657 
Q 3669 2231 3669 1497 
Q 3669 778 3244 343 
Q 2819 -91 2113 -91 
Q 1303 -91 875 529 
Q 447 1150 447 2328 
Q 447 3434 972 4092 
Q 1497 4750 2381 4750 
Q 2619 4750 2861 4703 
Q 3103 4656 3366 4563 
z
" id="DejaVuSans-36" transform="scale(0.015625)"/>
       </defs>
       <use xlink:href="#DejaVuSans-2212"/>
       <use x="83.789062" xlink:href="#DejaVuSans-36"/>
      </g>
     </g>
    </g>
    <g id="ytick_3">
     <g id="line2d_21">
      <path clip-path="url(#pdd1ea1342d)" d="M 38.420552 239.413314 
L 706.846097 239.413314 
" style="fill:none;stroke:#b0b0b0;stroke-linecap:square;stroke-width:0.8;"/>
     </g>
     <g id="line2d_22">
      <g>
       <use style="stroke:#000000;stroke-width:0.8;" x="38.420552" xlink:href="#m00e14274b8" y="239.413314"/>
      </g>
     </g>
     <g id="text_12">
      <!-- −4 -->
      <g transform="translate(16.678365 243.212533)scale(0.1 -0.1)">
       <defs>
        <path d="M 2419 4116 
L 825 1625 
L 2419 1625 
L 2419 4116 
z
M 2253 4666 
L 3047 4666 
L 3047 1625 
L 3713 1625 
L 3713 1100 
L 3047 1100 
L 3047 0 
L 2419 0 
L 2419 1100 
L 313 1100 
L 313 1709 
L 2253 4666 
z
" id="DejaVuSans-34" transform="scale(0.015625)"/>
       </defs>
       <use xlink:href="#DejaVuSans-2212"/>
       <use x="83.789062" xlink:href="#DejaVuSans-34"/>
      </g>
     </g>
    </g>
    <g id="ytick_4">
     <g id="line2d_23">
      <path clip-path="url(#pdd1ea1342d)" d="M 38.420552 200.644338 
L 706.846097 200.644338 
" style="fill:none;stroke:#b0b0b0;stroke-linecap:square;stroke-width:0.8;"/>
     </g>
     <g id="line2d_24">
      <g>
       <use style="stroke:#000000;stroke-width:0.8;" x="38.420552" xlink:href="#m00e14274b8" y="200.644338"/>
      </g>
     </g>
     <g id="text_13">
      <!-- −2 -->
      <g transform="translate(16.678365 204.443557)scale(0.1 -0.1)">
       <defs>
        <path d="M 1228 531 
L 3431 531 
L 3431 0 
L 469 0 
L 469 531 
Q 828 903 1448 1529 
Q 2069 2156 2228 2338 
Q 2531 2678 2651 2914 
Q 2772 3150 2772 3378 
Q 2772 3750 2511 3984 
Q 2250 4219 1831 4219 
Q 1534 4219 1204 4116 
Q 875 4013 500 3803 
L 500 4441 
Q 881 4594 1212 4672 
Q 1544 4750 1819 4750 
Q 2544 4750 2975 4387 
Q 3406 4025 3406 3419 
Q 3406 3131 3298 2873 
Q 3191 2616 2906 2266 
Q 2828 2175 2409 1742 
Q 1991 1309 1228 531 
z
" id="DejaVuSans-32" transform="scale(0.015625)"/>
       </defs>
       <use xlink:href="#DejaVuSans-2212"/>
       <use x="83.789062" xlink:href="#DejaVuSans-32"/>
      </g>
     </g>
    </g>
    <g id="ytick_5">
     <g id="line2d_25">
      <path clip-path="url(#pdd1ea1342d)" d="M 38.420552 161.875362 
L 706.846097 161.875362 
" style="fill:none;stroke:#b0b0b0;stroke-linecap:square;stroke-width:0.8;"/>
     </g>
     <g id="line2d_26">
      <g>
       <use style="stroke:#000000;stroke-width:0.8;" x="38.420552" xlink:href="#m00e14274b8" y="161.875362"/>
      </g>
     </g>
     <g id="text_14">
      <!-- 0 -->
      <g transform="translate(25.058052 165.674581)scale(0.1 -0.1)">
       <defs>
        <path d="M 2034 4250 
Q 1547 4250 1301 3770 
Q 1056 3291 1056 2328 
Q 1056 1369 1301 889 
Q 1547 409 2034 409 
Q 2525 409 2770 889 
Q 3016 1369 3016 2328 
Q 3016 3291 2770 3770 
Q 2525 4250 2034 4250 
z
M 2034 4750 
Q 2819 4750 3233 4129 
Q 3647 3509 3647 2328 
Q 3647 1150 3233 529 
Q 2819 -91 2034 -91 
Q 1250 -91 836 529 
Q 422 1150 422 2328 
Q 422 3509 836 4129 
Q 1250 4750 2034 4750 
z
" id="DejaVuSans-30" transform="scale(0.015625)"/>
       </defs>
       <use xlink:href="#DejaVuSans-30"/>
      </g>
     </g>
    </g>
    <g id="ytick_6">
     <g id="line2d_27">
      <path clip-path="url(#pdd1ea1342d)" d="M 38.420552 123.106386 
L 706.846097 123.106386 
" style="fill:none;stroke:#b0b0b0;stroke-linecap:square;stroke-width:0.8;"/>
     </g>
     <g id="line2d_28">
      <g>
       <use style="stroke:#000000;stroke-width:0.8;" x="38.420552" xlink:href="#m00e14274b8" y="123.106386"/>
      </g>
     </g>
     <g id="text_15">
      <!-- 2 -->
      <g transform="translate(25.058052 126.905605)scale(0.1 -0.1)">
       <use xlink:href="#DejaVuSans-32"/>
      </g>
     </g>
    </g>
    <g id="ytick_7">
     <g id="line2d_29">
      <path clip-path="url(#pdd1ea1342d)" d="M 38.420552 84.337411 
L 706.846097 84.337411 
" style="fill:none;stroke:#b0b0b0;stroke-linecap:square;stroke-width:0.8;"/>
     </g>
     <g id="line2d_30">
      <g>
       <use style="stroke:#000000;stroke-width:0.8;" x="38.420552" xlink:href="#m00e14274b8" y="84.337411"/>
      </g>
     </g>
     <g id="text_16">
      <!-- 4 -->
      <g transform="translate(25.058052 88.136629)scale(0.1 -0.1)">
       <use xlink:href="#DejaVuSans-34"/>
      </g>
     </g>
    </g>
    <g id="ytick_8">
     <g id="line2d_31">
      <path clip-path="url(#pdd1ea1342d)" d="M 38.420552 45.568435 
L 706.846097 45.568435 
" style="fill:none;stroke:#b0b0b0;stroke-linecap:square;stroke-width:0.8;"/>
     </g>
     <g id="line2d_32">
      <g>
       <use style="stroke:#000000;stroke-width:0.8;" x="38.420552" xlink:href="#m00e14274b8" y="45.568435"/>
      </g>
     </g>
     <g id="text_17">
      <!-- 6 -->
      <g transform="translate(25.058052 49.367653)scale(0.1 -0.1)">
       <use xlink:href="#DejaVuSans-36"/>
      </g>
     </g>
    </g>
    <g id="ytick_9">
     <g id="line2d_33">
      <path clip-path="url(#pdd1ea1342d)" d="M 38.420552 6.799459 
L 706.846097 6.799459 
" style="fill:none;stroke:#b0b0b0;stroke-linecap:square;stroke-width:0.8;"/>
     </g>
     <g id="line2d_34">
      <g>
       <use style="stroke:#000000;stroke-width:0.8;" x="38.420552" xlink:href="#m00e14274b8" y="6.799459"/>
      </g>
     </g>
     <g id="text_18">
      <!-- 8 -->
      <g transform="translate(25.058052 10.598678)scale(0.1 -0.1)">
       <use xlink:href="#DejaVuSans-38"/>
      </g>
     </g>
    </g>
    <g id="text_19">
     <!-- Demand difference (MW) -->
     <g transform="translate(10.598677 229.437109)rotate(-90)scale(0.1 -0.1)">
      <defs>
       <path d="M 3328 2828 
Q 3544 3216 3844 3400 
Q 4144 3584 4550 3584 
Q 5097 3584 5394 3201 
Q 5691 2819 5691 2113 
L 5691 0 
L 5113 0 
L 5113 2094 
Q 5113 2597 4934 2840 
Q 4756 3084 4391 3084 
Q 3944 3084 3684 2787 
Q 3425 2491 3425 1978 
L 3425 0 
L 2847 0 
L 2847 2094 
Q 2847 2600 2669 2842 
Q 2491 3084 2119 3084 
Q 1678 3084 1418 2786 
Q 1159 2488 1159 1978 
L 1159 0 
L 581 0 
L 581 3500 
L 1159 3500 
L 1159 2956 
Q 1356 3278 1631 3431 
Q 1906 3584 2284 3584 
Q 2666 3584 2933 3390 
Q 3200 3197 3328 2828 
z
" id="DejaVuSans-6d" transform="scale(0.015625)"/>
       <path d="M 3122 3366 
L 3122 2828 
Q 2878 2963 2633 3030 
Q 2388 3097 2138 3097 
Q 1578 3097 1268 2742 
Q 959 2388 959 1747 
Q 959 1106 1268 751 
Q 1578 397 2138 397 
Q 2388 397 2633 464 
Q 2878 531 3122 666 
L 3122 134 
Q 2881 22 2623 -34 
Q 2366 -91 2075 -91 
Q 1284 -91 818 406 
Q 353 903 353 1747 
Q 353 2603 823 3093 
Q 1294 3584 2113 3584 
Q 2378 3584 2631 3529 
Q 2884 3475 3122 3366 
z
" id="DejaVuSans-63" transform="scale(0.015625)"/>
       <path d="M 1984 4856 
Q 1566 4138 1362 3434 
Q 1159 2731 1159 2009 
Q 1159 1288 1364 580 
Q 1569 -128 1984 -844 
L 1484 -844 
Q 1016 -109 783 600 
Q 550 1309 550 2009 
Q 550 2706 781 3412 
Q 1013 4119 1484 4856 
L 1984 4856 
z
" id="DejaVuSans-28" transform="scale(0.015625)"/>
       <path d="M 513 4856 
L 1013 4856 
Q 1481 4119 1714 3412 
Q 1947 2706 1947 2009 
Q 1947 1309 1714 600 
Q 1481 -109 1013 -844 
L 513 -844 
Q 928 -128 1133 580 
Q 1338 1288 1338 2009 
Q 1338 2731 1133 3434 
Q 928 4138 513 4856 
z
" id="DejaVuSans-29" transform="scale(0.015625)"/>
      </defs>
      <use xlink:href="#DejaVuSans-44"/>
      <use x="77.001953" xlink:href="#DejaVuSans-65"/>
      <use x="138.525391" xlink:href="#DejaVuSans-6d"/>
      <use x="235.9375" xlink:href="#DejaVuSans-61"/>
      <use x="297.216797" xlink:href="#DejaVuSans-6e"/>
      <use x="360.595703" xlink:href="#DejaVuSans-64"/>
      <use x="424.072266" xlink:href="#DejaVuSans-20"/>
      <use x="455.859375" xlink:href="#DejaVuSans-64"/>
      <use x="519.335938" xlink:href="#DejaVuSans-69"/>
      <use x="547.119141" xlink:href="#DejaVuSans-66"/>
      <use x="582.324219" xlink:href="#DejaVuSans-66"/>
      <use x="617.529297" xlink:href="#DejaVuSans-65"/>
      <use x="679.052734" xlink:href="#DejaVuSans-72"/>
      <use x="717.916016" xlink:href="#DejaVuSans-65"/>
      <use x="779.439453" xlink:href="#DejaVuSans-6e"/>
      <use x="842.818359" xlink:href="#DejaVuSans-63"/>
      <use x="897.798828" xlink:href="#DejaVuSans-65"/>
      <use x="959.322266" xlink:href="#DejaVuSans-20"/>
      <use x="991.109375" xlink:href="#DejaVuSans-28"/>
      <use x="1030.123047" xlink:href="#DejaVuSans-4d"/>
      <use x="1116.402344" xlink:href="#DejaVuSans-57"/>
      <use x="1215.279297" xlink:href="#DejaVuSans-29"/>
     </g>
    </g>
   </g>
   <g id="line2d_35">
    <path clip-path="url(#pdd1ea1342d)" d="M 40.398143 233.961917 
L 42.375733 252.726091 
L 44.353324 267.303232 
L 46.330914 278.895148 
L 48.308504 287.967096 
L 50.286095 291.960298 
L 52.263685 283.004666 
L 54.241275 290.021841 
L 56.218866 301.342394 
L 58.196456 311.422318 
L 60.174047 311.422318 
L 62.151637 308.863575 
L 64.129227 302.078997 
L 66.106818 292.774443 
L 68.084408 278.662541 
L 70.061998 257.49468 
L 72.039589 227.952717 
L 74.017179 187.284061 
L 75.994769 169.566629 
L 77.97236 155.260897 
L 79.94995 139.326838 
L 81.927541 127.463522 
L 83.905131 125.796466 
L 85.882721 121.764489 
L 87.860312 123.315247 
L 89.837902 129.518296 
L 91.815492 138.977924 
L 93.793083 144.405575 
L 95.770673 147.313241 
L 97.748264 148.670168 
L 99.725854 152.120597 
L 101.703444 133.899187 
L 105.658625 100.906776 
L 107.636215 99.704951 
L 109.613806 108.234118 
L 111.591396 119.787267 
L 113.568986 128.510301 
L 115.546577 138.008696 
L 117.524167 139.830835 
L 119.501758 139.947134 
L 121.479348 138.008696 
L 123.456938 123.160164 
L 125.434529 117.848829 
L 127.412119 139.326838 
L 129.389709 164.177762 
L 131.3673 197.053837 
L 133.34489 224.463494 
L 135.322481 271.038908 
L 137.300071 291.81907 
L 139.277661 304.302681 
L 141.255252 311.707555 
L 143.232842 316.437369 
L 145.210432 318.802281 
L 147.188023 306.551276 
L 149.165613 310.69957 
L 151.143203 318.763515 
L 153.120794 322.601643 
L 155.098384 315.584449 
L 157.075975 282.126826 
L 161.031155 228.431786 
L 163.008746 206.255949 
L 164.986336 176.287521 
L 166.963926 152.871056 
L 168.941517 141.124057 
L 170.919107 133.680417 
L 172.896698 128.640446 
L 174.874288 126.430627 
L 176.851878 123.716792 
L 178.829469 118.172842 
L 180.807059 123.600475 
L 182.784649 138.371475 
L 184.76224 141.47299 
L 186.73983 142.984981 
L 188.71742 148.373867 
L 190.695011 151.397849 
L 192.672601 149.536926 
L 194.650192 144.109274 
L 196.627782 127.205987 
L 198.605372 116.8547 
L 200.582963 96.811113 
L 202.560553 91.616096 
L 204.538143 90.569317 
L 206.515734 105.921846 
L 208.493324 125.345082 
L 210.470915 128.252766 
L 212.448505 134.843495 
L 214.426095 144.380656 
L 218.381276 110.729202 
L 220.358866 105.146449 
L 224.314047 165.781132 
L 226.291637 201.913824 
L 228.269228 227.113662 
L 230.246818 256.381064 
L 232.224409 272.935418 
L 234.201999 286.620864 
L 236.179589 293.831897 
L 238.15718 299.492174 
L 240.13477 303.756757 
L 242.11236 290.769148 
L 244.089951 295.498963 
L 246.067541 304.377052 
L 248.045132 311.859468 
L 250.022722 300.190011 
L 252.000312 280.107686 
L 253.977903 248.394642 
L 255.955493 210.090915 
L 257.933083 188.147676 
L 259.910674 161.862292 
L 263.865854 149.611315 
L 265.843445 139.608905 
L 267.821035 139.027375 
L 269.798626 140.539367 
L 271.776216 132.746813 
L 273.753806 136.933855 
L 275.731397 139.221225 
L 277.708987 142.206423 
L 279.686577 152.014984 
L 281.664168 154.302354 
L 283.641758 165.855503 
L 285.619349 174.423455 
L 287.596939 176.633292 
L 289.574529 170.003779 
L 291.55212 153.371892 
L 293.52971 127.900691 
L 295.5073 96.575336 
L 297.484891 87.38709 
L 299.462481 88.550167 
L 301.440071 103.166065 
L 303.417662 116.386308 
L 305.395252 123.403483 
L 307.372843 124.915474 
L 309.350433 122.356704 
L 311.328023 100.180849 
L 313.305614 93.047375 
L 315.283204 112.393097 
L 317.260794 140.112902 
L 319.238385 170.856708 
L 321.215975 209.703217 
L 323.193566 232.228004 
L 325.171156 227.239389 
L 327.148746 246.623886 
L 329.126337 259.378879 
L 331.103927 267.985596 
L 333.081517 271.513567 
L 335.059108 274.460008 
L 337.036698 262.247778 
L 339.014288 262.209012 
L 340.991879 270.350499 
L 342.969469 269.18743 
L 344.94706 266.202223 
L 346.92465 252.671842 
L 348.90224 223.129879 
L 350.879831 183.663075 
L 354.835011 138.380903 
L 356.812602 120.741022 
L 358.790192 100.542389 
L 360.767783 104.458067 
L 362.745373 100.309773 
L 364.722963 95.153485 
L 366.700554 88.291393 
L 368.678144 88.330159 
L 370.655734 77.785004 
L 372.633325 82.204661 
L 374.610915 89.687068 
L 376.588505 96.006415 
L 378.566096 99.030398 
L 380.543686 98.5264 
L 382.521277 105.89249 
L 384.498867 101.744214 
L 386.476457 89.532003 
L 388.454048 66.541984 
L 390.431638 48.436872 
L 392.409228 45.49044 
L 394.386819 56.035614 
L 396.364409 62.199878 
L 398.341999 78.599149 
L 400.31959 85.577558 
L 402.29718 81.545581 
L 404.274771 73.520412 
L 406.252361 65.960455 
L 408.229951 63.711851 
L 412.185132 110.312184 
L 414.162722 141.482418 
L 416.140313 175.172675 
L 418.117903 201.26419 
L 420.095494 224.460943 
L 422.073084 242.643588 
L 424.050674 253.460134 
L 426.028265 263.307452 
L 428.005855 267.106813 
L 429.983445 268.812654 
L 431.961036 262.648381 
L 433.938626 260.089629 
L 435.916216 266.17636 
L 437.893807 277.807051 
L 439.871397 270.983707 
L 441.848988 249.118009 
L 443.826578 220.080052 
L 445.804168 176.930185 
L 449.759349 131.415397 
L 451.736939 117.923792 
L 453.71453 120.560095 
L 455.69212 119.784716 
L 457.669711 116.411819 
L 459.647301 112.534907 
L 461.624891 111.798294 
L 463.602482 106.719557 
L 465.580072 113.349052 
L 467.557662 120.986541 
L 469.535253 131.841862 
L 471.512843 140.681177 
L 473.490433 143.356227 
L 475.468024 146.263911 
L 477.445614 144.984554 
L 479.423205 142.2707 
L 481.400795 135.059676 
L 483.378385 121.219156 
L 485.355976 92.801505 
L 487.333566 93.150419 
L 489.311156 94.00333 
L 491.288747 106.719557 
L 493.266337 109.278308 
L 495.243928 125.173601 
L 497.221518 125.987746 
L 499.199108 125.483749 
L 501.176699 111.100466 
L 503.154289 91.095664 
L 505.131879 93.227951 
L 509.08706 153.785102 
L 511.06465 187.359023 
L 513.042241 210.542873 
L 515.019831 219.084176 
L 516.997422 244.671694 
L 518.975012 258.1633 
L 520.952602 262.117744 
L 522.930193 265.723247 
L 524.907783 265.994629 
L 526.885373 255.527006 
L 528.862964 264.405105 
L 530.840554 267.390322 
L 532.818145 270.646911 
L 534.795735 266.886325 
L 536.773325 246.106144 
L 538.750916 217.223261 
L 540.728506 178.609369 
L 542.706096 156.549812 
L 544.683687 128.325991 
L 546.661277 107.584613 
L 550.616458 92.464699 
L 552.594048 92.852398 
L 554.571639 85.098592 
L 556.549229 79.166943 
L 558.526819 80.252488 
L 560.50441 82.152141 
L 562.482 94.829602 
L 564.45959 99.016662 
L 566.437181 106.033856 
L 568.414771 109.484285 
L 570.392362 113.283646 
L 572.369952 121.27005 
L 574.347542 125.961088 
L 576.325133 118.246085 
L 578.302723 90.875176 
L 580.280313 73.235276 
L 582.257904 72.072217 
L 584.235494 71.413155 
L 586.213084 83.664133 
L 590.168265 100.489869 
L 592.145856 102.971088 
L 594.123446 109.639349 
L 596.101036 101.148949 
L 598.078627 94.17054 
L 600.056217 102.001879 
L 602.033807 121.812831 
L 604.011398 144.492665 
L 605.988988 178.027839 
L 607.966579 200.048593 
L 609.944169 225.33198 
L 611.921759 246.344768 
L 613.89935 258.518222 
L 615.87694 267.745235 
L 617.85453 274.529813 
L 619.832121 277.825168 
L 621.809711 266.388327 
L 623.787301 272.979046 
L 625.764892 282.632524 
L 627.742482 290.929084 
L 629.720073 296.007822 
L 631.697663 294.612138 
L 633.675253 286.742043 
L 635.652844 263.40311 
L 637.630434 235.450689 
L 639.608024 200.132152 
L 643.563205 147.755272 
L 645.540796 135.775658 
L 647.518386 120.539445 
L 649.495976 118.21329 
L 651.473567 117.980693 
L 653.451157 124.532656 
L 655.428747 137.791628 
L 657.406338 149.034629 
L 659.383928 159.42472 
L 661.361518 167.643738 
L 663.339109 174.118169 
L 665.316699 178.49906 
L 669.27188 180.359965 
L 671.24947 162.099788 
L 673.227061 139.458684 
L 675.204651 114.258864 
L 677.182241 103.830008 
L 679.159832 117.786844 
L 681.137422 125.191699 
L 683.115013 131.0846 
L 685.092603 120.461894 
L 687.070193 123.602176 
L 689.047784 128.835996 
L 691.025374 129.960289 
L 693.002964 120.268045 
L 694.980555 127.944319 
L 696.958145 140.893143 
L 698.935735 158.881956 
L 700.913326 185.826401 
L 702.890916 208.506254 
L 702.890916 208.506254 
" style="fill:none;stroke:#d62728;stroke-dasharray:7.4,3.2;stroke-dashoffset:0;stroke-width:2;"/>
   </g>
   <g id="line2d_36">
    <path clip-path="url(#pdd1ea1342d)" d="M 40.398143 227.641359 
L 42.375733 253.198023 
L 44.353324 269.228193 
L 46.330914 279.039925 
L 48.308504 284.84043 
L 50.286095 285.170913 
L 52.263685 277.152639 
L 54.241275 281.553042 
L 56.218866 293.501682 
L 58.196456 302.034888 
L 60.174047 305.304843 
L 62.151637 300.492015 
L 64.129227 288.430589 
L 68.084408 252.758682 
L 70.061998 229.283495 
L 72.039589 208.92745 
L 74.017179 191.080686 
L 77.97236 165.068016 
L 79.94995 154.310155 
L 81.927541 146.789556 
L 83.905131 141.585757 
L 85.882721 139.317928 
L 87.860312 142.37746 
L 89.837902 151.053317 
L 91.815492 160.444083 
L 93.793083 168.738619 
L 95.770673 174.714247 
L 97.748264 174.85236 
L 99.725854 169.910625 
L 101.703444 158.135527 
L 105.658625 123.410027 
L 107.636215 117.636327 
L 109.613806 121.398401 
L 111.591396 126.040839 
L 113.568986 131.725213 
L 115.546577 136.47062 
L 117.524167 138.238354 
L 119.501758 138.265547 
L 121.479348 133.702712 
L 123.456938 124.474682 
L 125.434529 120.142207 
L 127.412119 135.733712 
L 129.389709 160.533262 
L 131.3673 192.534076 
L 133.34489 219.560822 
L 135.322481 258.932606 
L 137.300071 284.07154 
L 139.277661 296.738214 
L 141.255252 302.315264 
L 143.232842 304.491974 
L 145.210432 302.755871 
L 147.188023 293.392409 
L 149.165613 295.975554 
L 151.143203 304.706463 
L 153.120794 309.808549 
L 155.098384 303.562408 
L 157.075975 285.666748 
L 159.053565 254.992368 
L 161.031155 221.093999 
L 164.986336 163.666999 
L 166.963926 143.378817 
L 168.941517 128.740218 
L 170.919107 125.083369 
L 172.896698 121.076773 
L 174.874288 117.653335 
L 176.851878 116.73585 
L 178.829469 117.333777 
L 180.807059 119.649764 
L 182.784649 126.612885 
L 186.73983 144.18346 
L 188.71742 150.976598 
L 190.695011 156.831435 
L 192.672601 158.619799 
L 194.650192 155.261766 
L 196.627782 142.537017 
L 200.582963 107.484176 
L 202.560553 103.112639 
L 204.538143 107.413188 
L 208.493324 126.256207 
L 210.470915 132.623194 
L 212.448505 134.674362 
L 214.426095 135.473607 
L 216.403686 132.702926 
L 218.381276 125.022141 
L 220.358866 121.270845 
L 222.336457 139.563317 
L 224.314047 166.802954 
L 226.291637 201.087774 
L 228.269228 229.219421 
L 232.224409 276.605975 
L 234.201999 288.066026 
L 236.179589 293.481052 
L 238.15718 297.03201 
L 240.13477 297.524268 
L 242.11236 288.676875 
L 244.089951 290.696228 
L 246.067541 298.055302 
L 248.045132 300.838702 
L 250.022722 291.442001 
L 252.000312 267.070053 
L 253.977903 234.771228 
L 255.955493 199.930704 
L 259.910674 146.835199 
L 261.888264 127.030328 
L 263.865854 115.112921 
L 267.821035 108.27965 
L 271.776216 102.918309 
L 273.753806 101.239514 
L 275.731397 102.833771 
L 277.708987 108.481929 
L 279.686577 113.161894 
L 281.664168 118.188555 
L 283.641758 122.397818 
L 285.619349 125.086548 
L 287.596939 123.373091 
L 289.574529 115.252827 
L 291.55212 98.30166 
L 295.5073 59.823809 
L 297.484891 55.240417 
L 299.462481 59.974733 
L 301.440071 72.675135 
L 303.417662 87.221543 
L 305.395252 97.459416 
L 307.372843 103.007507 
L 309.350433 105.965252 
L 311.328023 99.700902 
L 313.305614 91.249416 
L 315.283204 92.320135 
L 317.260794 119.071563 
L 319.238385 153.013384 
L 321.215975 192.044313 
L 323.193566 222.936178 
L 327.148746 263.737836 
L 329.126337 272.674906 
L 331.103927 278.798066 
L 333.081517 282.949077 
L 335.059108 282.346704 
L 337.036698 271.714903 
L 339.014288 273.727194 
L 340.991879 281.56614 
L 342.969469 284.992565 
L 344.94706 276.400322 
L 346.92465 255.94115 
L 348.90224 227.845819 
L 350.879831 195.041786 
L 354.835011 145.080831 
L 356.812602 130.742064 
L 358.790192 120.271483 
L 360.767783 114.263116 
L 362.745373 110.067145 
L 364.722963 107.216806 
L 366.700554 103.700528 
L 368.678144 102.964692 
L 370.655734 104.357649 
L 372.633325 109.490552 
L 374.610915 115.945719 
L 376.588505 121.775748 
L 378.566096 129.487737 
L 380.543686 134.387951 
L 382.521277 133.73327 
L 384.498867 127.856249 
L 386.476457 114.647099 
L 388.454048 94.461462 
L 390.431638 72.922485 
L 392.409228 65.667684 
L 394.386819 70.600915 
L 398.341999 96.625158 
L 400.31959 105.950038 
L 402.29718 111.880393 
L 404.274771 112.695369 
L 406.252361 103.697385 
L 408.229951 94.077091 
L 410.207542 95.733203 
L 412.185132 119.6398 
L 414.162722 151.646548 
L 416.140313 189.235014 
L 418.117903 217.763954 
L 420.095494 227.280706 
L 422.073084 246.664279 
L 424.050674 255.344092 
L 426.028265 260.967404 
L 428.005855 264.309623 
L 429.983445 264.766507 
L 431.961036 256.339386 
L 433.938626 258.033025 
L 435.916216 264.747318 
L 437.893807 267.780978 
L 439.871397 262.594215 
L 441.848988 244.747452 
L 443.826578 215.230344 
L 445.804168 181.631798 
L 449.759349 129.21129 
L 451.736939 109.850447 
L 453.71453 96.180909 
L 455.69212 91.960591 
L 457.669711 88.737546 
L 459.647301 85.83929 
L 461.624891 82.256756 
L 463.602482 82.352553 
L 465.580072 82.113708 
L 467.557662 88.288657 
L 469.535253 97.147327 
L 473.490433 107.740306 
L 475.468024 110.260311 
L 477.445614 111.188037 
L 479.423205 106.771134 
L 481.400795 93.578806 
L 485.355976 54.706343 
L 487.333566 49.385192 
L 489.311156 52.616593 
L 491.288747 61.060371 
L 493.266337 71.504201 
L 495.243928 78.206108 
L 497.221518 81.026554 
L 499.199108 81.509976 
L 501.176699 76.434326 
L 503.154289 72.137105 
L 505.131879 79.142633 
L 507.10947 101.434288 
L 509.08706 131.174112 
L 511.06465 166.000733 
L 513.042241 195.466828 
L 516.997422 235.831465 
L 518.975012 247.326354 
L 520.952602 255.428455 
L 522.930193 259.743488 
L 524.907783 261.049521 
L 526.885373 254.359834 
L 528.862964 255.597689 
L 530.840554 262.898299 
L 532.818145 269.436397 
L 534.795735 267.153538 
L 536.773325 252.408474 
L 538.750916 227.819846 
L 540.728506 194.936635 
L 544.683687 145.46829 
L 546.661277 127.830405 
L 548.638867 116.71777 
L 550.616458 110.118168 
L 552.594048 105.169335 
L 554.571639 101.334128 
L 556.549229 99.798881 
L 558.526819 100.416625 
L 560.50441 103.875096 
L 562.482 111.049961 
L 564.45959 121.920534 
L 566.437181 130.445744 
L 568.414771 136.814284 
L 570.392362 141.881689 
L 572.369952 144.599979 
L 574.347542 141.97194 
L 576.325133 132.223959 
L 578.302723 115.904014 
L 580.280313 96.025049 
L 582.257904 89.476174 
L 584.235494 90.202841 
L 586.213084 99.19208 
L 588.190675 110.730514 
L 590.168265 124.461261 
L 592.145856 132.472825 
L 594.123446 135.34385 
L 596.101036 131.071235 
L 598.078627 120.318384 
L 600.056217 117.666793 
L 602.033807 128.438759 
L 604.011398 145.526947 
L 607.966579 194.550138 
L 609.944169 216.703976 
L 611.921759 243.586389 
L 613.89935 261.025156 
L 615.87694 272.096067 
L 617.85453 277.881376 
L 619.832121 277.391466 
L 621.809711 267.36701 
L 623.787301 267.479584 
L 625.764892 272.167748 
L 627.742482 278.372636 
L 629.720073 280.866593 
L 631.697663 275.960815 
L 633.675253 266.883173 
L 637.630434 234.101333 
L 643.563205 158.709755 
L 645.540796 140.167714 
L 647.518386 125.32079 
L 649.495976 113.781266 
L 651.473567 107.499335 
L 653.451157 108.394377 
L 655.428747 111.034673 
L 657.406338 119.660413 
L 661.361518 138.449081 
L 663.339109 146.775174 
L 665.316699 154.398225 
L 667.29429 160.614584 
L 669.27188 162.754247 
L 671.24947 154.650954 
L 675.204651 123.627742 
L 677.182241 120.542828 
L 679.159832 124.088832 
L 685.092603 154.930728 
L 687.070193 160.709364 
L 689.047784 162.286003 
L 691.025374 152.958275 
L 693.002964 139.413429 
L 694.980555 136.578027 
L 696.958145 147.939508 
L 698.935735 164.859026 
L 700.913326 189.181569 
L 702.890916 210.717256 
L 702.890916 210.717256 
" style="fill:none;stroke:#1f77b4;stroke-linecap:square;stroke-width:1.5;"/>
   </g>
   <g id="patch_3">
    <path d="M 38.420552 326.64351 
L 38.420552 6.799459 
" style="fill:none;stroke:#000000;stroke-linecap:square;stroke-linejoin:miter;stroke-width:0.8;"/>
   </g>
   <g id="patch_4">
    <path d="M 706.846097 326.64351 
L 706.846097 6.799459 
" style="fill:none;stroke:#000000;stroke-linecap:square;stroke-linejoin:miter;stroke-width:0.8;"/>
   </g>
   <g id="patch_5">
    <path d="M 38.420552 326.64351 
L 706.846097 326.64351 
" style="fill:none;stroke:#000000;stroke-linecap:square;stroke-linejoin:miter;stroke-width:0.8;"/>
   </g>
   <g id="patch_6">
    <path d="M 38.420552 6.799459 
L 706.846097 6.799459 
" style="fill:none;stroke:#000000;stroke-linecap:square;stroke-linejoin:miter;stroke-width:0.8;"/>
   </g>
   <g id="legend_1">
    <g id="patch_7">
     <path d="M 189.805981 29.477584 
L 555.460668 29.477584 
L 555.460668 11.799459 
L 189.805981 11.799459 
z
" style="fill:#ffffff;opacity:0.95;stroke:#000000;stroke-linejoin:miter;"/>
    </g>
    <g id="line2d_37">
     <path d="M 193.805981 19.897896 
L 213.805981 19.897896 
" style="fill:none;stroke:#d62728;stroke-dasharray:7.4,3.2;stroke-dashoffset:0;stroke-width:2;"/>
    </g>
    <g id="line2d_38"/>
    <g id="text_20">
     <!-- Actual demand difference -->
     <g transform="translate(221.805981 23.397896)scale(0.1 -0.1)">
      <defs>
       <path d="M 2188 4044 
L 1331 1722 
L 3047 1722 
L 2188 4044 
z
M 1831 4666 
L 2547 4666 
L 4325 0 
L 3669 0 
L 3244 1197 
L 1141 1197 
L 716 0 
L 50 0 
L 1831 4666 
z
" id="DejaVuSans-41" transform="scale(0.015625)"/>
       <path d="M 603 4863 
L 1178 4863 
L 1178 0 
L 603 0 
L 603 4863 
z
" id="DejaVuSans-6c" transform="scale(0.015625)"/>
      </defs>
      <use xlink:href="#DejaVuSans-41"/>
      <use x="66.658203" xlink:href="#DejaVuSans-63"/>
      <use x="121.638672" xlink:href="#DejaVuSans-74"/>
      <use x="160.847656" xlink:href="#DejaVuSans-75"/>
      <use x="224.226562" xlink:href="#DejaVuSans-61"/>
      <use x="285.505859" xlink:href="#DejaVuSans-6c"/>
      <use x="313.289062" xlink:href="#DejaVuSans-20"/>
      <use x="345.076172" xlink:href="#DejaVuSans-64"/>
      <use x="408.552734" xlink:href="#DejaVuSans-65"/>
      <use x="470.076172" xlink:href="#DejaVuSans-6d"/>
      <use x="567.488281" xlink:href="#DejaVuSans-61"/>
      <use x="628.767578" xlink:href="#DejaVuSans-6e"/>
      <use x="692.146484" xlink:href="#DejaVuSans-64"/>
      <use x="755.623047" xlink:href="#DejaVuSans-20"/>
      <use x="787.410156" xlink:href="#DejaVuSans-64"/>
      <use x="850.886719" xlink:href="#DejaVuSans-69"/>
      <use x="878.669922" xlink:href="#DejaVuSans-66"/>
      <use x="913.875" xlink:href="#DejaVuSans-66"/>
      <use x="949.080078" xlink:href="#DejaVuSans-65"/>
      <use x="1010.603516" xlink:href="#DejaVuSans-72"/>
      <use x="1049.466797" xlink:href="#DejaVuSans-65"/>
      <use x="1110.990234" xlink:href="#DejaVuSans-6e"/>
      <use x="1174.369141" xlink:href="#DejaVuSans-63"/>
      <use x="1229.349609" xlink:href="#DejaVuSans-65"/>
     </g>
    </g>
    <g id="line2d_39">
     <path d="M 370.895043 19.897896 
L 390.895043 19.897896 
" style="fill:none;stroke:#1f77b4;stroke-linecap:square;stroke-width:1.5;"/>
    </g>
    <g id="line2d_40"/>
    <g id="text_21">
     <!-- Forecasted demand difference -->
     <g transform="translate(398.895043 23.397896)scale(0.1 -0.1)">
      <defs>
       <path d="M 2834 3397 
L 2834 2853 
Q 2591 2978 2328 3040 
Q 2066 3103 1784 3103 
Q 1356 3103 1142 2972 
Q 928 2841 928 2578 
Q 928 2378 1081 2264 
Q 1234 2150 1697 2047 
L 1894 2003 
Q 2506 1872 2764 1633 
Q 3022 1394 3022 966 
Q 3022 478 2636 193 
Q 2250 -91 1575 -91 
Q 1294 -91 989 -36 
Q 684 19 347 128 
L 347 722 
Q 666 556 975 473 
Q 1284 391 1588 391 
Q 1994 391 2212 530 
Q 2431 669 2431 922 
Q 2431 1156 2273 1281 
Q 2116 1406 1581 1522 
L 1381 1569 
Q 847 1681 609 1914 
Q 372 2147 372 2553 
Q 372 3047 722 3315 
Q 1072 3584 1716 3584 
Q 2034 3584 2315 3537 
Q 2597 3491 2834 3397 
z
" id="DejaVuSans-73" transform="scale(0.015625)"/>
      </defs>
      <use xlink:href="#DejaVuSans-46"/>
      <use x="53.894531" xlink:href="#DejaVuSans-6f"/>
      <use x="115.076172" xlink:href="#DejaVuSans-72"/>
      <use x="153.939453" xlink:href="#DejaVuSans-65"/>
      <use x="215.462891" xlink:href="#DejaVuSans-63"/>
      <use x="270.443359" xlink:href="#DejaVuSans-61"/>
      <use x="331.722656" xlink:href="#DejaVuSans-73"/>
      <use x="383.822266" xlink:href="#DejaVuSans-74"/>
      <use x="423.03125" xlink:href="#DejaVuSans-65"/>
      <use x="484.554688" xlink:href="#DejaVuSans-64"/>
      <use x="548.03125" xlink:href="#DejaVuSans-20"/>
      <use x="579.818359" xlink:href="#DejaVuSans-64"/>
      <use x="643.294922" xlink:href="#DejaVuSans-65"/>
      <use x="704.818359" xlink:href="#DejaVuSans-6d"/>
      <use x="802.230469" xlink:href="#DejaVuSans-61"/>
      <use x="863.509766" xlink:href="#DejaVuSans-6e"/>
      <use x="926.888672" xlink:href="#DejaVuSans-64"/>
      <use x="990.365234" xlink:href="#DejaVuSans-20"/>
      <use x="1022.152344" xlink:href="#DejaVuSans-64"/>
      <use x="1085.628906" xlink:href="#DejaVuSans-69"/>
      <use x="1113.412109" xlink:href="#DejaVuSans-66"/>
      <use x="1148.617188" xlink:href="#DejaVuSans-66"/>
      <use x="1183.822266" xlink:href="#DejaVuSans-65"/>
      <use x="1245.345703" xlink:href="#DejaVuSans-72"/>
      <use x="1284.208984" xlink:href="#DejaVuSans-65"/>
      <use x="1345.732422" xlink:href="#DejaVuSans-6e"/>
      <use x="1409.111328" xlink:href="#DejaVuSans-63"/>
      <use x="1464.091797" xlink:href="#DejaVuSans-65"/>
     </g>
    </g>
   </g>
  </g>
 </g>
 <defs>
  <clipPath id="pdd1ea1342d">
   <rect height="319.844051" width="668.425544" x="38.420552" y="6.799459"/>
  </clipPath>
 </defs>
</svg>
