<?xml version="1.0" encoding="utf-8" standalone="no"?>
<!DOCTYPE svg PUBLIC "-//W3C//DTD SVG 1.1//EN"
  "http://www.w3.org/Graphics/SVG/1.1/DTD/svg11.dtd">
<svg height="360pt" version="1.1" viewBox="0 0 720 360" width="720pt" xmlns="http://www.w3.org/2000/svg" xmlns:xlink="http://www.w3.org/1999/xlink">
 <metadata>
  <rdf:RDF xmlns:cc="http://creativecommons.org/ns#" xmlns:dc="http://purl.org/dc/elements/1.1/" xmlns:rdf="http://www.w3.org/1999/02/22-rdf-syntax-ns#">
   <cc:Work>
    <dc:type rdf:resource="http://purl.org/dc/dcmitype/StillImage"/>
    <dc:date>2022-04-11T21:21:30.559739</dc:date>
    <dc:format>image/svg+xml</dc:format>
    <dc:creator>
     <cc:Agent>
      <dc:title>Matplotlib v3.4.3, https://matplotlib.org/</dc:title>
     </cc:Agent>
    </dc:creator>
   </cc:Work>
  </rdf:RDF>
 </metadata>
 <defs>
  <style type="text/css">*{stroke-linecap:butt;stroke-linejoin:round;}</style>
 </defs>
 <g id="figure_1">
  <g id="patch_1">
   <path d="M 0 360 
L 720 360 
L 720 0 
L 0 0 
z
" style="fill:#ffffff;"/>
  </g>
  <g id="axes_1">
   <g id="patch_2">
    <path d="M 38.420552 326.64351 
L 706.846097 326.64351 
L 706.846097 3.00024 
L 38.420552 3.00024 
z
" style="fill:#ffffff;"/>
   </g>
   <g id="matplotlib.axis_1">
    <g id="xtick_1">
     <g id="line2d_1">
      <path clip-path="url(#pd200c5a81b)" d="M 40.398143 326.64351 
L 40.398143 3.00024 
" style="fill:none;stroke:#b0b0b0;stroke-linecap:square;stroke-width:0.8;"/>
     </g>
     <g id="line2d_2">
      <defs>
       <path d="M 0 0 
L 0 3.5 
" id="m3ff55d7e4a" style="stroke:#000000;stroke-width:0.8;"/>
      </defs>
      <g>
       <use style="stroke:#000000;stroke-width:0.8;" x="40.398143" xlink:href="#m3ff55d7e4a" y="326.64351"/>
      </g>
     </g>
     <g id="text_1">
      <!-- Mon. -->
      <g transform="translate(28.266893 341.241947)scale(0.1 -0.1)">
       <defs>
        <path d="M 628 4666 
L 1569 4666 
L 2759 1491 
L 3956 4666 
L 4897 4666 
L 4897 0 
L 4281 0 
L 4281 4097 
L 3078 897 
L 2444 897 
L 1241 4097 
L 1241 0 
L 628 0 
L 628 4666 
z
" id="DejaVuSans-4d" transform="scale(0.015625)"/>
        <path d="M 1959 3097 
Q 1497 3097 1228 2736 
Q 959 2375 959 1747 
Q 959 1119 1226 758 
Q 1494 397 1959 397 
Q 2419 397 2687 759 
Q 2956 1122 2956 1747 
Q 2956 2369 2687 2733 
Q 2419 3097 1959 3097 
z
M 1959 3584 
Q 2709 3584 3137 3096 
Q 3566 2609 3566 1747 
Q 3566 888 3137 398 
Q 2709 -91 1959 -91 
Q 1206 -91 779 398 
Q 353 888 353 1747 
Q 353 2609 779 3096 
Q 1206 3584 1959 3584 
z
" id="DejaVuSans-6f" transform="scale(0.015625)"/>
        <path d="M 3513 2113 
L 3513 0 
L 2938 0 
L 2938 2094 
Q 2938 2591 2744 2837 
Q 2550 3084 2163 3084 
Q 1697 3084 1428 2787 
Q 1159 2491 1159 1978 
L 1159 0 
L 581 0 
L 581 3500 
L 1159 3500 
L 1159 2956 
Q 1366 3272 1645 3428 
Q 1925 3584 2291 3584 
Q 2894 3584 3203 3211 
Q 3513 2838 3513 2113 
z
" id="DejaVuSans-6e" transform="scale(0.015625)"/>
        <path d="M 684 794 
L 1344 794 
L 1344 0 
L 684 0 
L 684 794 
z
" id="DejaVuSans-2e" transform="scale(0.015625)"/>
       </defs>
       <use xlink:href="#DejaVuSans-4d"/>
       <use x="86.279297" xlink:href="#DejaVuSans-6f"/>
       <use x="147.460938" xlink:href="#DejaVuSans-6e"/>
       <use x="210.839844" xlink:href="#DejaVuSans-2e"/>
      </g>
     </g>
    </g>
    <g id="xtick_2">
     <g id="line2d_3">
      <path clip-path="url(#pd200c5a81b)" d="M 135.322481 326.64351 
L 135.322481 3.00024 
" style="fill:none;stroke:#b0b0b0;stroke-linecap:square;stroke-width:0.8;"/>
     </g>
     <g id="line2d_4">
      <g>
       <use style="stroke:#000000;stroke-width:0.8;" x="135.322481" xlink:href="#m3ff55d7e4a" y="326.64351"/>
      </g>
     </g>
     <g id="text_2">
      <!-- Tue. -->
      <g transform="translate(125.190449 341.241947)scale(0.1 -0.1)">
       <defs>
        <path d="M -19 4666 
L 3928 4666 
L 3928 4134 
L 2272 4134 
L 2272 0 
L 1638 0 
L 1638 4134 
L -19 4134 
L -19 4666 
z
" id="DejaVuSans-54" transform="scale(0.015625)"/>
        <path d="M 544 1381 
L 544 3500 
L 1119 3500 
L 1119 1403 
Q 1119 906 1312 657 
Q 1506 409 1894 409 
Q 2359 409 2629 706 
Q 2900 1003 2900 1516 
L 2900 3500 
L 3475 3500 
L 3475 0 
L 2900 0 
L 2900 538 
Q 2691 219 2414 64 
Q 2138 -91 1772 -91 
Q 1169 -91 856 284 
Q 544 659 544 1381 
z
M 1991 3584 
L 1991 3584 
z
" id="DejaVuSans-75" transform="scale(0.015625)"/>
        <path d="M 3597 1894 
L 3597 1613 
L 953 1613 
Q 991 1019 1311 708 
Q 1631 397 2203 397 
Q 2534 397 2845 478 
Q 3156 559 3463 722 
L 3463 178 
Q 3153 47 2828 -22 
Q 2503 -91 2169 -91 
Q 1331 -91 842 396 
Q 353 884 353 1716 
Q 353 2575 817 3079 
Q 1281 3584 2069 3584 
Q 2775 3584 3186 3129 
Q 3597 2675 3597 1894 
z
M 3022 2063 
Q 3016 2534 2758 2815 
Q 2500 3097 2075 3097 
Q 1594 3097 1305 2825 
Q 1016 2553 972 2059 
L 3022 2063 
z
" id="DejaVuSans-65" transform="scale(0.015625)"/>
       </defs>
       <use xlink:href="#DejaVuSans-54"/>
       <use x="45.958984" xlink:href="#DejaVuSans-75"/>
       <use x="109.337891" xlink:href="#DejaVuSans-65"/>
       <use x="170.861328" xlink:href="#DejaVuSans-2e"/>
      </g>
     </g>
    </g>
    <g id="xtick_3">
     <g id="line2d_5">
      <path clip-path="url(#pd200c5a81b)" d="M 230.246818 326.64351 
L 230.246818 3.00024 
" style="fill:none;stroke:#b0b0b0;stroke-linecap:square;stroke-width:0.8;"/>
     </g>
     <g id="line2d_6">
      <g>
       <use style="stroke:#000000;stroke-width:0.8;" x="230.246818" xlink:href="#m3ff55d7e4a" y="326.64351"/>
      </g>
     </g>
     <g id="text_3">
      <!-- Wed. -->
      <g transform="translate(217.756974 341.241947)scale(0.1 -0.1)">
       <defs>
        <path d="M 213 4666 
L 850 4666 
L 1831 722 
L 2809 4666 
L 3519 4666 
L 4500 722 
L 5478 4666 
L 6119 4666 
L 4947 0 
L 4153 0 
L 3169 4050 
L 2175 0 
L 1381 0 
L 213 4666 
z
" id="DejaVuSans-57" transform="scale(0.015625)"/>
        <path d="M 2906 2969 
L 2906 4863 
L 3481 4863 
L 3481 0 
L 2906 0 
L 2906 525 
Q 2725 213 2448 61 
Q 2172 -91 1784 -91 
Q 1150 -91 751 415 
Q 353 922 353 1747 
Q 353 2572 751 3078 
Q 1150 3584 1784 3584 
Q 2172 3584 2448 3432 
Q 2725 3281 2906 2969 
z
M 947 1747 
Q 947 1113 1208 752 
Q 1469 391 1925 391 
Q 2381 391 2643 752 
Q 2906 1113 2906 1747 
Q 2906 2381 2643 2742 
Q 2381 3103 1925 3103 
Q 1469 3103 1208 2742 
Q 947 2381 947 1747 
z
" id="DejaVuSans-64" transform="scale(0.015625)"/>
       </defs>
       <use xlink:href="#DejaVuSans-57"/>
       <use x="93.001953" xlink:href="#DejaVuSans-65"/>
       <use x="154.525391" xlink:href="#DejaVuSans-64"/>
       <use x="218.001953" xlink:href="#DejaVuSans-2e"/>
      </g>
     </g>
    </g>
    <g id="xtick_4">
     <g id="line2d_7">
      <path clip-path="url(#pd200c5a81b)" d="M 325.171156 326.64351 
L 325.171156 3.00024 
" style="fill:none;stroke:#b0b0b0;stroke-linecap:square;stroke-width:0.8;"/>
     </g>
     <g id="line2d_8">
      <g>
       <use style="stroke:#000000;stroke-width:0.8;" x="325.171156" xlink:href="#m3ff55d7e4a" y="326.64351"/>
      </g>
     </g>
     <g id="text_4">
      <!-- Thur. -->
      <g transform="translate(312.591468 341.241947)scale(0.1 -0.1)">
       <defs>
        <path d="M 3513 2113 
L 3513 0 
L 2938 0 
L 2938 2094 
Q 2938 2591 2744 2837 
Q 2550 3084 2163 3084 
Q 1697 3084 1428 2787 
Q 1159 2491 1159 1978 
L 1159 0 
L 581 0 
L 581 4863 
L 1159 4863 
L 1159 2956 
Q 1366 3272 1645 3428 
Q 1925 3584 2291 3584 
Q 2894 3584 3203 3211 
Q 3513 2838 3513 2113 
z
" id="DejaVuSans-68" transform="scale(0.015625)"/>
        <path d="M 2631 2963 
Q 2534 3019 2420 3045 
Q 2306 3072 2169 3072 
Q 1681 3072 1420 2755 
Q 1159 2438 1159 1844 
L 1159 0 
L 581 0 
L 581 3500 
L 1159 3500 
L 1159 2956 
Q 1341 3275 1631 3429 
Q 1922 3584 2338 3584 
Q 2397 3584 2469 3576 
Q 2541 3569 2628 3553 
L 2631 2963 
z
" id="DejaVuSans-72" transform="scale(0.015625)"/>
       </defs>
       <use xlink:href="#DejaVuSans-54"/>
       <use x="61.083984" xlink:href="#DejaVuSans-68"/>
       <use x="124.462891" xlink:href="#DejaVuSans-75"/>
       <use x="187.841797" xlink:href="#DejaVuSans-72"/>
       <use x="219.830078" xlink:href="#DejaVuSans-2e"/>
      </g>
     </g>
    </g>
    <g id="xtick_5">
     <g id="line2d_9">
      <path clip-path="url(#pd200c5a81b)" d="M 420.095494 326.64351 
L 420.095494 3.00024 
" style="fill:none;stroke:#b0b0b0;stroke-linecap:square;stroke-width:0.8;"/>
     </g>
     <g id="line2d_10">
      <g>
       <use style="stroke:#000000;stroke-width:0.8;" x="420.095494" xlink:href="#m3ff55d7e4a" y="326.64351"/>
      </g>
     </g>
     <g id="text_5">
      <!-- Fri. -->
      <g transform="translate(412.548619 341.241947)scale(0.1 -0.1)">
       <defs>
        <path d="M 628 4666 
L 3309 4666 
L 3309 4134 
L 1259 4134 
L 1259 2759 
L 3109 2759 
L 3109 2228 
L 1259 2228 
L 1259 0 
L 628 0 
L 628 4666 
z
" id="DejaVuSans-46" transform="scale(0.015625)"/>
        <path d="M 603 3500 
L 1178 3500 
L 1178 0 
L 603 0 
L 603 3500 
z
M 603 4863 
L 1178 4863 
L 1178 4134 
L 603 4134 
L 603 4863 
z
" id="DejaVuSans-69" transform="scale(0.015625)"/>
       </defs>
       <use xlink:href="#DejaVuSans-46"/>
       <use x="50.269531" xlink:href="#DejaVuSans-72"/>
       <use x="91.382812" xlink:href="#DejaVuSans-69"/>
       <use x="119.166016" xlink:href="#DejaVuSans-2e"/>
      </g>
     </g>
    </g>
    <g id="xtick_6">
     <g id="line2d_11">
      <path clip-path="url(#pd200c5a81b)" d="M 515.019831 326.64351 
L 515.019831 3.00024 
" style="fill:none;stroke:#b0b0b0;stroke-linecap:square;stroke-width:0.8;"/>
     </g>
     <g id="line2d_12">
      <g>
       <use style="stroke:#000000;stroke-width:0.8;" x="515.019831" xlink:href="#m3ff55d7e4a" y="326.64351"/>
      </g>
     </g>
     <g id="text_6">
      <!-- Sat. -->
      <g transform="translate(505.232331 341.241947)scale(0.1 -0.1)">
       <defs>
        <path d="M 3425 4513 
L 3425 3897 
Q 3066 4069 2747 4153 
Q 2428 4238 2131 4238 
Q 1616 4238 1336 4038 
Q 1056 3838 1056 3469 
Q 1056 3159 1242 3001 
Q 1428 2844 1947 2747 
L 2328 2669 
Q 3034 2534 3370 2195 
Q 3706 1856 3706 1288 
Q 3706 609 3251 259 
Q 2797 -91 1919 -91 
Q 1588 -91 1214 -16 
Q 841 59 441 206 
L 441 856 
Q 825 641 1194 531 
Q 1563 422 1919 422 
Q 2459 422 2753 634 
Q 3047 847 3047 1241 
Q 3047 1584 2836 1778 
Q 2625 1972 2144 2069 
L 1759 2144 
Q 1053 2284 737 2584 
Q 422 2884 422 3419 
Q 422 4038 858 4394 
Q 1294 4750 2059 4750 
Q 2388 4750 2728 4690 
Q 3069 4631 3425 4513 
z
" id="DejaVuSans-53" transform="scale(0.015625)"/>
        <path d="M 2194 1759 
Q 1497 1759 1228 1600 
Q 959 1441 959 1056 
Q 959 750 1161 570 
Q 1363 391 1709 391 
Q 2188 391 2477 730 
Q 2766 1069 2766 1631 
L 2766 1759 
L 2194 1759 
z
M 3341 1997 
L 3341 0 
L 2766 0 
L 2766 531 
Q 2569 213 2275 61 
Q 1981 -91 1556 -91 
Q 1019 -91 701 211 
Q 384 513 384 1019 
Q 384 1609 779 1909 
Q 1175 2209 1959 2209 
L 2766 2209 
L 2766 2266 
Q 2766 2663 2505 2880 
Q 2244 3097 1772 3097 
Q 1472 3097 1187 3025 
Q 903 2953 641 2809 
L 641 3341 
Q 956 3463 1253 3523 
Q 1550 3584 1831 3584 
Q 2591 3584 2966 3190 
Q 3341 2797 3341 1997 
z
" id="DejaVuSans-61" transform="scale(0.015625)"/>
        <path d="M 1172 4494 
L 1172 3500 
L 2356 3500 
L 2356 3053 
L 1172 3053 
L 1172 1153 
Q 1172 725 1289 603 
Q 1406 481 1766 481 
L 2356 481 
L 2356 0 
L 1766 0 
Q 1100 0 847 248 
Q 594 497 594 1153 
L 594 3053 
L 172 3053 
L 172 3500 
L 594 3500 
L 594 4494 
L 1172 4494 
z
" id="DejaVuSans-74" transform="scale(0.015625)"/>
       </defs>
       <use xlink:href="#DejaVuSans-53"/>
       <use x="63.476562" xlink:href="#DejaVuSans-61"/>
       <use x="124.755859" xlink:href="#DejaVuSans-74"/>
       <use x="163.964844" xlink:href="#DejaVuSans-2e"/>
      </g>
     </g>
    </g>
    <g id="xtick_7">
     <g id="line2d_13">
      <path clip-path="url(#pd200c5a81b)" d="M 609.944169 326.64351 
L 609.944169 3.00024 
" style="fill:none;stroke:#b0b0b0;stroke-linecap:square;stroke-width:0.8;"/>
     </g>
     <g id="line2d_14">
      <g>
       <use style="stroke:#000000;stroke-width:0.8;" x="609.944169" xlink:href="#m3ff55d7e4a" y="326.64351"/>
      </g>
     </g>
     <g id="text_7">
      <!-- Sun. -->
      <g transform="translate(598.843388 341.241947)scale(0.1 -0.1)">
       <use xlink:href="#DejaVuSans-53"/>
       <use x="63.476562" xlink:href="#DejaVuSans-75"/>
       <use x="126.855469" xlink:href="#DejaVuSans-6e"/>
       <use x="190.234375" xlink:href="#DejaVuSans-2e"/>
      </g>
     </g>
    </g>
    <g id="xtick_8">
     <g id="line2d_15">
      <path clip-path="url(#pd200c5a81b)" d="M 704.868507 326.64351 
L 704.868507 3.00024 
" style="fill:none;stroke:#b0b0b0;stroke-linecap:square;stroke-width:0.8;"/>
     </g>
     <g id="line2d_16">
      <g>
       <use style="stroke:#000000;stroke-width:0.8;" x="704.868507" xlink:href="#m3ff55d7e4a" y="326.64351"/>
      </g>
     </g>
     <g id="text_8">
      <!-- Mon. -->
      <g transform="translate(692.737257 341.241947)scale(0.1 -0.1)">
       <use xlink:href="#DejaVuSans-4d"/>
       <use x="86.279297" xlink:href="#DejaVuSans-6f"/>
       <use x="147.460938" xlink:href="#DejaVuSans-6e"/>
       <use x="210.839844" xlink:href="#DejaVuSans-2e"/>
      </g>
     </g>
    </g>
    <g id="text_9">
     <!-- Day of the week -->
     <g transform="translate(331.8302 354.920073)scale(0.1 -0.1)">
      <defs>
       <path d="M 1259 4147 
L 1259 519 
L 2022 519 
Q 2988 519 3436 956 
Q 3884 1394 3884 2338 
Q 3884 3275 3436 3711 
Q 2988 4147 2022 4147 
L 1259 4147 
z
M 628 4666 
L 1925 4666 
Q 3281 4666 3915 4102 
Q 4550 3538 4550 2338 
Q 4550 1131 3912 565 
Q 3275 0 1925 0 
L 628 0 
L 628 4666 
z
" id="DejaVuSans-44" transform="scale(0.015625)"/>
       <path d="M 2059 -325 
Q 1816 -950 1584 -1140 
Q 1353 -1331 966 -1331 
L 506 -1331 
L 506 -850 
L 844 -850 
Q 1081 -850 1212 -737 
Q 1344 -625 1503 -206 
L 1606 56 
L 191 3500 
L 800 3500 
L 1894 763 
L 2988 3500 
L 3597 3500 
L 2059 -325 
z
" id="DejaVuSans-79" transform="scale(0.015625)"/>
       <path id="DejaVuSans-20" transform="scale(0.015625)"/>
       <path d="M 2375 4863 
L 2375 4384 
L 1825 4384 
Q 1516 4384 1395 4259 
Q 1275 4134 1275 3809 
L 1275 3500 
L 2222 3500 
L 2222 3053 
L 1275 3053 
L 1275 0 
L 697 0 
L 697 3053 
L 147 3053 
L 147 3500 
L 697 3500 
L 697 3744 
Q 697 4328 969 4595 
Q 1241 4863 1831 4863 
L 2375 4863 
z
" id="DejaVuSans-66" transform="scale(0.015625)"/>
       <path d="M 269 3500 
L 844 3500 
L 1563 769 
L 2278 3500 
L 2956 3500 
L 3675 769 
L 4391 3500 
L 4966 3500 
L 4050 0 
L 3372 0 
L 2619 2869 
L 1863 0 
L 1184 0 
L 269 3500 
z
" id="DejaVuSans-77" transform="scale(0.015625)"/>
       <path d="M 581 4863 
L 1159 4863 
L 1159 1991 
L 2875 3500 
L 3609 3500 
L 1753 1863 
L 3688 0 
L 2938 0 
L 1159 1709 
L 1159 0 
L 581 0 
L 581 4863 
z
" id="DejaVuSans-6b" transform="scale(0.015625)"/>
      </defs>
      <use xlink:href="#DejaVuSans-44"/>
      <use x="77.001953" xlink:href="#DejaVuSans-61"/>
      <use x="138.28125" xlink:href="#DejaVuSans-79"/>
      <use x="197.460938" xlink:href="#DejaVuSans-20"/>
      <use x="229.248047" xlink:href="#DejaVuSans-6f"/>
      <use x="290.429688" xlink:href="#DejaVuSans-66"/>
      <use x="325.634766" xlink:href="#DejaVuSans-20"/>
      <use x="357.421875" xlink:href="#DejaVuSans-74"/>
      <use x="396.630859" xlink:href="#DejaVuSans-68"/>
      <use x="460.009766" xlink:href="#DejaVuSans-65"/>
      <use x="521.533203" xlink:href="#DejaVuSans-20"/>
      <use x="553.320312" xlink:href="#DejaVuSans-77"/>
      <use x="635.107422" xlink:href="#DejaVuSans-65"/>
      <use x="696.630859" xlink:href="#DejaVuSans-65"/>
      <use x="758.154297" xlink:href="#DejaVuSans-6b"/>
     </g>
    </g>
   </g>
   <g id="matplotlib.axis_2">
    <g id="ytick_1">
     <g id="line2d_17">
      <path clip-path="url(#pd200c5a81b)" d="M 38.420552 283.236956 
L 706.846097 283.236956 
" style="fill:none;stroke:#b0b0b0;stroke-linecap:square;stroke-width:0.8;"/>
     </g>
     <g id="line2d_18">
      <defs>
       <path d="M 0 0 
L -3.5 0 
" id="m3118bae5c5" style="stroke:#000000;stroke-width:0.8;"/>
      </defs>
      <g>
       <use style="stroke:#000000;stroke-width:0.8;" x="38.420552" xlink:href="#m3118bae5c5" y="283.236956"/>
      </g>
     </g>
     <g id="text_10">
      <!-- −6 -->
      <g transform="translate(16.678365 287.036175)scale(0.1 -0.1)">
       <defs>
        <path d="M 678 2272 
L 4684 2272 
L 4684 1741 
L 678 1741 
L 678 2272 
z
" id="DejaVuSans-2212" transform="scale(0.015625)"/>
        <path d="M 2113 2584 
Q 1688 2584 1439 2293 
Q 1191 2003 1191 1497 
Q 1191 994 1439 701 
Q 1688 409 2113 409 
Q 2538 409 2786 701 
Q 3034 994 3034 1497 
Q 3034 2003 2786 2293 
Q 2538 2584 2113 2584 
z
M 3366 4563 
L 3366 3988 
Q 3128 4100 2886 4159 
Q 2644 4219 2406 4219 
Q 1781 4219 1451 3797 
Q 1122 3375 1075 2522 
Q 1259 2794 1537 2939 
Q 1816 3084 2150 3084 
Q 2853 3084 3261 2657 
Q 3669 2231 3669 1497 
Q 3669 778 3244 343 
Q 2819 -91 2113 -91 
Q 1303 -91 875 529 
Q 447 1150 447 2328 
Q 447 3434 972 4092 
Q 1497 4750 2381 4750 
Q 2619 4750 2861 4703 
Q 3103 4656 3366 4563 
z
" id="DejaVuSans-36" transform="scale(0.015625)"/>
       </defs>
       <use xlink:href="#DejaVuSans-2212"/>
       <use x="83.789062" xlink:href="#DejaVuSans-36"/>
      </g>
     </g>
    </g>
    <g id="ytick_2">
     <g id="line2d_19">
      <path clip-path="url(#pd200c5a81b)" d="M 38.420552 236.45756 
L 706.846097 236.45756 
" style="fill:none;stroke:#b0b0b0;stroke-linecap:square;stroke-width:0.8;"/>
     </g>
     <g id="line2d_20">
      <g>
       <use style="stroke:#000000;stroke-width:0.8;" x="38.420552" xlink:href="#m3118bae5c5" y="236.45756"/>
      </g>
     </g>
     <g id="text_11">
      <!-- −4 -->
      <g transform="translate(16.678365 240.256779)scale(0.1 -0.1)">
       <defs>
        <path d="M 2419 4116 
L 825 1625 
L 2419 1625 
L 2419 4116 
z
M 2253 4666 
L 3047 4666 
L 3047 1625 
L 3713 1625 
L 3713 1100 
L 3047 1100 
L 3047 0 
L 2419 0 
L 2419 1100 
L 313 1100 
L 313 1709 
L 2253 4666 
z
" id="DejaVuSans-34" transform="scale(0.015625)"/>
       </defs>
       <use xlink:href="#DejaVuSans-2212"/>
       <use x="83.789062" xlink:href="#DejaVuSans-34"/>
      </g>
     </g>
    </g>
    <g id="ytick_3">
     <g id="line2d_21">
      <path clip-path="url(#pd200c5a81b)" d="M 38.420552 189.678164 
L 706.846097 189.678164 
" style="fill:none;stroke:#b0b0b0;stroke-linecap:square;stroke-width:0.8;"/>
     </g>
     <g id="line2d_22">
      <g>
       <use style="stroke:#000000;stroke-width:0.8;" x="38.420552" xlink:href="#m3118bae5c5" y="189.678164"/>
      </g>
     </g>
     <g id="text_12">
      <!-- −2 -->
      <g transform="translate(16.678365 193.477383)scale(0.1 -0.1)">
       <defs>
        <path d="M 1228 531 
L 3431 531 
L 3431 0 
L 469 0 
L 469 531 
Q 828 903 1448 1529 
Q 2069 2156 2228 2338 
Q 2531 2678 2651 2914 
Q 2772 3150 2772 3378 
Q 2772 3750 2511 3984 
Q 2250 4219 1831 4219 
Q 1534 4219 1204 4116 
Q 875 4013 500 3803 
L 500 4441 
Q 881 4594 1212 4672 
Q 1544 4750 1819 4750 
Q 2544 4750 2975 4387 
Q 3406 4025 3406 3419 
Q 3406 3131 3298 2873 
Q 3191 2616 2906 2266 
Q 2828 2175 2409 1742 
Q 1991 1309 1228 531 
z
" id="DejaVuSans-32" transform="scale(0.015625)"/>
       </defs>
       <use xlink:href="#DejaVuSans-2212"/>
       <use x="83.789062" xlink:href="#DejaVuSans-32"/>
      </g>
     </g>
    </g>
    <g id="ytick_4">
     <g id="line2d_23">
      <path clip-path="url(#pd200c5a81b)" d="M 38.420552 142.898767 
L 706.846097 142.898767 
" style="fill:none;stroke:#b0b0b0;stroke-linecap:square;stroke-width:0.8;"/>
     </g>
     <g id="line2d_24">
      <g>
       <use style="stroke:#000000;stroke-width:0.8;" x="38.420552" xlink:href="#m3118bae5c5" y="142.898767"/>
      </g>
     </g>
     <g id="text_13">
      <!-- 0 -->
      <g transform="translate(25.058052 146.697986)scale(0.1 -0.1)">
       <defs>
        <path d="M 2034 4250 
Q 1547 4250 1301 3770 
Q 1056 3291 1056 2328 
Q 1056 1369 1301 889 
Q 1547 409 2034 409 
Q 2525 409 2770 889 
Q 3016 1369 3016 2328 
Q 3016 3291 2770 3770 
Q 2525 4250 2034 4250 
z
M 2034 4750 
Q 2819 4750 3233 4129 
Q 3647 3509 3647 2328 
Q 3647 1150 3233 529 
Q 2819 -91 2034 -91 
Q 1250 -91 836 529 
Q 422 1150 422 2328 
Q 422 3509 836 4129 
Q 1250 4750 2034 4750 
z
" id="DejaVuSans-30" transform="scale(0.015625)"/>
       </defs>
       <use xlink:href="#DejaVuSans-30"/>
      </g>
     </g>
    </g>
    <g id="ytick_5">
     <g id="line2d_25">
      <path clip-path="url(#pd200c5a81b)" d="M 38.420552 96.119371 
L 706.846097 96.119371 
" style="fill:none;stroke:#b0b0b0;stroke-linecap:square;stroke-width:0.8;"/>
     </g>
     <g id="line2d_26">
      <g>
       <use style="stroke:#000000;stroke-width:0.8;" x="38.420552" xlink:href="#m3118bae5c5" y="96.119371"/>
      </g>
     </g>
     <g id="text_14">
      <!-- 2 -->
      <g transform="translate(25.058052 99.91859)scale(0.1 -0.1)">
       <use xlink:href="#DejaVuSans-32"/>
      </g>
     </g>
    </g>
    <g id="ytick_6">
     <g id="line2d_27">
      <path clip-path="url(#pd200c5a81b)" d="M 38.420552 49.339975 
L 706.846097 49.339975 
" style="fill:none;stroke:#b0b0b0;stroke-linecap:square;stroke-width:0.8;"/>
     </g>
     <g id="line2d_28">
      <g>
       <use style="stroke:#000000;stroke-width:0.8;" x="38.420552" xlink:href="#m3118bae5c5" y="49.339975"/>
      </g>
     </g>
     <g id="text_15">
      <!-- 4 -->
      <g transform="translate(25.058052 53.139194)scale(0.1 -0.1)">
       <use xlink:href="#DejaVuSans-34"/>
      </g>
     </g>
    </g>
    <g id="text_16">
     <!-- Demand difference (MW) -->
     <g transform="translate(10.598677 227.5375)rotate(-90)scale(0.1 -0.1)">
      <defs>
       <path d="M 3328 2828 
Q 3544 3216 3844 3400 
Q 4144 3584 4550 3584 
Q 5097 3584 5394 3201 
Q 5691 2819 5691 2113 
L 5691 0 
L 5113 0 
L 5113 2094 
Q 5113 2597 4934 2840 
Q 4756 3084 4391 3084 
Q 3944 3084 3684 2787 
Q 3425 2491 3425 1978 
L 3425 0 
L 2847 0 
L 2847 2094 
Q 2847 2600 2669 2842 
Q 2491 3084 2119 3084 
Q 1678 3084 1418 2786 
Q 1159 2488 1159 1978 
L 1159 0 
L 581 0 
L 581 3500 
L 1159 3500 
L 1159 2956 
Q 1356 3278 1631 3431 
Q 1906 3584 2284 3584 
Q 2666 3584 2933 3390 
Q 3200 3197 3328 2828 
z
" id="DejaVuSans-6d" transform="scale(0.015625)"/>
       <path d="M 3122 3366 
L 3122 2828 
Q 2878 2963 2633 3030 
Q 2388 3097 2138 3097 
Q 1578 3097 1268 2742 
Q 959 2388 959 1747 
Q 959 1106 1268 751 
Q 1578 397 2138 397 
Q 2388 397 2633 464 
Q 2878 531 3122 666 
L 3122 134 
Q 2881 22 2623 -34 
Q 2366 -91 2075 -91 
Q 1284 -91 818 406 
Q 353 903 353 1747 
Q 353 2603 823 3093 
Q 1294 3584 2113 3584 
Q 2378 3584 2631 3529 
Q 2884 3475 3122 3366 
z
" id="DejaVuSans-63" transform="scale(0.015625)"/>
       <path d="M 1984 4856 
Q 1566 4138 1362 3434 
Q 1159 2731 1159 2009 
Q 1159 1288 1364 580 
Q 1569 -128 1984 -844 
L 1484 -844 
Q 1016 -109 783 600 
Q 550 1309 550 2009 
Q 550 2706 781 3412 
Q 1013 4119 1484 4856 
L 1984 4856 
z
" id="DejaVuSans-28" transform="scale(0.015625)"/>
       <path d="M 513 4856 
L 1013 4856 
Q 1481 4119 1714 3412 
Q 1947 2706 1947 2009 
Q 1947 1309 1714 600 
Q 1481 -109 1013 -844 
L 513 -844 
Q 928 -128 1133 580 
Q 1338 1288 1338 2009 
Q 1338 2731 1133 3434 
Q 928 4138 513 4856 
z
" id="DejaVuSans-29" transform="scale(0.015625)"/>
      </defs>
      <use xlink:href="#DejaVuSans-44"/>
      <use x="77.001953" xlink:href="#DejaVuSans-65"/>
      <use x="138.525391" xlink:href="#DejaVuSans-6d"/>
      <use x="235.9375" xlink:href="#DejaVuSans-61"/>
      <use x="297.216797" xlink:href="#DejaVuSans-6e"/>
      <use x="360.595703" xlink:href="#DejaVuSans-64"/>
      <use x="424.072266" xlink:href="#DejaVuSans-20"/>
      <use x="455.859375" xlink:href="#DejaVuSans-64"/>
      <use x="519.335938" xlink:href="#DejaVuSans-69"/>
      <use x="547.119141" xlink:href="#DejaVuSans-66"/>
      <use x="582.324219" xlink:href="#DejaVuSans-66"/>
      <use x="617.529297" xlink:href="#DejaVuSans-65"/>
      <use x="679.052734" xlink:href="#DejaVuSans-72"/>
      <use x="717.916016" xlink:href="#DejaVuSans-65"/>
      <use x="779.439453" xlink:href="#DejaVuSans-6e"/>
      <use x="842.818359" xlink:href="#DejaVuSans-63"/>
      <use x="897.798828" xlink:href="#DejaVuSans-65"/>
      <use x="959.322266" xlink:href="#DejaVuSans-20"/>
      <use x="991.109375" xlink:href="#DejaVuSans-28"/>
      <use x="1030.123047" xlink:href="#DejaVuSans-4d"/>
      <use x="1116.402344" xlink:href="#DejaVuSans-57"/>
      <use x="1215.279297" xlink:href="#DejaVuSans-29"/>
     </g>
    </g>
   </g>
   <g id="line2d_29">
    <path clip-path="url(#pd200c5a81b)" d="M 40.398143 215.095369 
L 42.375733 232.373203 
L 44.353324 244.82306 
L 46.330914 254.629023 
L 48.308504 262.784332 
L 50.286095 266.022751 
L 52.263685 254.46504 
L 54.241275 262.689587 
L 56.218866 276.422259 
L 58.196456 288.872684 
L 60.174047 289.322867 
L 62.151637 286.815488 
L 64.129227 279.310315 
L 66.106818 268.835958 
L 68.084408 252.601338 
L 70.061998 227.865798 
L 72.039589 193.014038 
L 74.017179 144.703536 
L 75.994769 124.041011 
L 77.97236 107.442689 
L 79.94995 88.824322 
L 81.927541 75.062607 
L 83.905131 73.551878 
L 85.882721 69.140434 
L 87.860312 71.419588 
L 89.837902 79.270618 
L 91.815492 91.013894 
L 93.793083 97.855928 
L 95.770673 101.623749 
L 97.748264 103.485666 
L 99.725854 107.839337 
L 101.703444 86.01185 
L 105.658625 46.456191 
L 107.636215 45.113427 
L 109.613806 55.517218 
L 111.591396 69.594208 
L 113.568986 80.304642 
L 115.546577 92.021753 
L 117.524167 94.579064 
L 119.501758 95.208254 
L 121.479348 93.503952 
L 123.456938 76.370773 
L 125.434529 70.86925 
L 127.412119 97.745981 
L 129.389709 128.592202 
L 131.3673 168.854454 
L 133.34489 204.465828 
L 135.322481 229.65483 
L 137.300071 250.515122 
L 139.277661 261.153886 
L 141.255252 266.19753 
L 143.232842 269.116168 
L 145.210432 270.285022 
L 147.188023 254.676814 
L 149.165613 259.471076 
L 151.143203 269.434823 
L 153.120794 274.638882 
L 155.098384 267.014226 
L 157.075975 227.703822 
L 161.031155 165.511096 
L 163.008746 140.21092 
L 164.986336 105.567879 
L 166.963926 78.863665 
L 168.941517 66.251876 
L 170.919107 58.828188 
L 172.896698 54.288082 
L 174.874288 53.14188 
L 176.851878 51.365173 
L 178.829469 46.152403 
L 180.807059 54.161785 
L 182.784649 73.435462 
L 184.76224 78.623294 
L 186.73983 81.893889 
L 188.71742 89.84862 
L 190.695011 94.965161 
L 192.672601 94.211392 
L 194.650192 89.181912 
L 196.627782 70.338453 
L 198.605372 59.430744 
L 200.582963 36.851406 
L 202.560553 32.204119 
L 204.538143 32.567933 
L 206.515734 52.71474 
L 208.493324 77.750766 
L 210.470915 82.825305 
L 212.448505 92.29739 
L 214.426095 105.261526 
L 216.403686 86.846413 
L 218.381276 67.290317 
L 220.358866 61.6633 
L 224.314047 136.293893 
L 226.291637 180.033942 
L 228.269228 211.702368 
L 230.246818 232.964416 
L 232.224409 250.311466 
L 234.201999 263.878661 
L 236.179589 269.775839 
L 238.15718 274.425479 
L 240.13477 278.119657 
L 242.11236 261.601682 
L 244.089951 266.889635 
L 246.067541 277.461848 
L 248.045132 286.523289 
L 250.022722 272.577291 
L 252.000312 248.530443 
L 253.977903 210.464555 
L 255.955493 164.435159 
L 257.933083 138.120633 
L 259.910674 106.535297 
L 263.865854 91.939421 
L 265.843445 79.953387 
L 267.821035 79.351589 
L 269.798626 81.309869 
L 271.776216 72.091293 
L 273.753806 77.391771 
L 275.731397 80.470778 
L 277.708987 84.470361 
L 279.686577 96.781797 
L 281.664168 100.08864 
L 283.641758 114.636067 
L 285.619349 125.628607 
L 287.596939 128.980775 
L 289.574529 121.683986 
L 291.55212 102.320237 
L 293.52971 72.285 
L 295.5073 35.169745 
L 297.484891 24.741595 
L 299.462481 26.771656 
L 301.440071 44.993866 
L 303.417662 61.489713 
L 305.395252 70.455895 
L 307.372843 72.732305 
L 309.350433 70.048495 
L 311.328023 43.641243 
L 313.305614 35.319375 
L 315.283204 58.860732 
L 317.260794 92.378696 
L 319.238385 129.336871 
L 321.215975 175.798985 
L 325.171156 232.561366 
L 327.148746 253.591665 
L 329.126337 266.224644 
L 331.103927 274.046297 
L 335.059108 278.943568 
L 337.036698 263.785979 
L 339.014288 263.753612 
L 340.991879 273.867758 
L 342.969469 272.922635 
L 344.94706 269.876406 
L 346.92465 254.157382 
L 348.90224 219.135827 
L 350.879831 172.130381 
L 354.835011 118.633843 
L 356.812602 97.859497 
L 358.790192 73.953991 
L 360.767783 79.106958 
L 362.745373 74.502745 
L 364.722963 68.667455 
L 366.700554 60.774355 
L 368.678144 61.22059 
L 370.655734 48.920864 
L 372.633325 54.710092 
L 374.610915 64.234017 
L 376.588505 72.402442 
L 378.566096 76.65047 
L 380.543686 76.699254 
L 382.521277 86.303436 
L 384.498867 82.075193 
L 386.476457 68.170161 
L 388.454048 41.300346 
L 390.431638 20.353707 
L 392.409228 17.711298 
L 394.386819 31.344061 
L 396.364409 39.666108 
L 398.341999 60.293613 
L 400.31959 69.49189 
L 402.29718 65.326751 
L 406.252361 47.644016 
L 408.229951 45.331559 
L 412.185132 101.937039 
L 414.162722 139.423179 
L 416.140313 179.674322 
L 418.117903 212.107047 
L 420.095494 250.915852 
L 422.073084 271.269548 
L 424.050674 282.452862 
L 426.028265 292.467667 
L 428.005855 295.602998 
L 429.983445 296.768294 
L 431.961036 288.920777 
L 433.938626 285.770924 
L 435.916216 293.281697 
L 437.893807 307.626907 
L 439.871397 299.792071 
L 441.848988 273.850694 
L 443.826578 239.265124 
L 445.804168 187.633782 
L 449.759349 133.437567 
L 451.736939 117.418023 
L 453.71453 120.786498 
L 455.69212 119.970963 
L 457.669711 115.960495 
L 459.647301 111.291281 
L 461.624891 110.374543 
L 463.602482 104.198437 
L 465.580072 112.137844 
L 467.557662 121.287494 
L 469.535253 134.321092 
L 471.512843 144.924635 
L 473.490433 148.090079 
L 475.468024 151.532788 
L 477.445614 149.914008 
L 479.423205 146.542879 
L 481.400795 137.712899 
L 483.378385 120.839654 
L 485.355976 86.317132 
L 487.333566 86.432187 
L 489.311156 87.070612 
L 491.288747 101.935701 
L 493.266337 104.460267 
L 495.243928 123.00344 
L 497.221518 123.295338 
L 499.199108 121.96694 
L 501.176699 103.892241 
L 503.154289 79.070287 
L 505.131879 81.030217 
L 507.10947 116.066092 
L 509.08706 153.157346 
L 511.06465 193.333339 
L 513.042241 222.592032 
L 515.019831 240.325771 
L 516.997422 268.132712 
L 518.975012 281.422027 
L 520.952602 283.661476 
L 522.930193 286.304633 
L 524.907783 285.703705 
L 526.885373 272.669661 
L 528.862964 283.25701 
L 530.840554 286.854702 
L 532.818145 290.819499 
L 534.795735 286.323437 
L 536.773325 261.286161 
L 538.750916 226.463667 
L 540.728506 179.887546 
L 542.706096 153.273449 
L 544.683687 119.207646 
L 546.661277 94.155493 
L 550.616458 75.817782 
L 552.594048 76.224467 
L 554.571639 66.806385 
L 556.549229 59.59369 
L 558.526819 60.862263 
L 560.50441 63.140279 
L 562.482 78.463648 
L 564.45959 83.590963 
L 566.437181 92.183495 
L 568.414771 96.520347 
L 570.392362 101.318913 
L 572.369952 111.198911 
L 574.347542 117.122958 
L 576.325133 108.083255 
L 578.302723 75.312971 
L 580.280313 54.256563 
L 582.257904 53.043287 
L 584.235494 52.398795 
L 586.213084 67.297232 
L 590.168265 87.735603 
L 592.145856 90.767054 
L 594.123446 98.856292 
L 596.101036 88.685667 
L 598.078627 80.392618 
L 600.056217 90.042461 
L 602.033807 114.227619 
L 604.011398 141.929387 
L 605.988988 182.77626 
L 607.966579 211.492557 
L 609.944169 238.054067 
L 611.921759 260.74033 
L 613.89935 272.809287 
L 615.87694 281.682942 
L 617.85453 288.338742 
L 619.832121 291.460745 
L 621.809711 277.222961 
L 623.787301 284.914201 
L 625.764892 296.334885 
L 627.742482 306.094196 
L 629.720073 311.932452 
L 631.697663 309.92027 
L 633.675253 300.058507 
L 635.652844 271.491774 
L 637.630434 237.312856 
L 639.608024 194.193242 
L 643.563205 129.819821 
L 645.540796 114.699416 
L 647.518386 95.607244 
L 649.495976 92.065071 
L 651.473567 91.035062 
L 653.451157 98.190185 
L 655.428747 113.444717 
L 657.406338 126.27727 
L 659.383928 138.09072 
L 661.361518 147.294775 
L 663.339109 154.400557 
L 665.316699 158.985185 
L 669.27188 159.820618 
L 671.24947 137.069679 
L 673.227061 109.025132 
L 675.204651 77.890157 
L 677.182241 64.576015 
L 679.159832 80.685007 
L 681.137422 88.894765 
L 683.115013 95.303457 
L 685.092603 81.831342 
L 687.070193 85.037205 
L 689.047784 90.860271 
L 691.025374 91.830656 
L 693.002964 79.861129 
L 694.980555 88.944128 
L 696.958145 104.433254 
L 698.935735 125.93168 
L 700.913326 158.066395 
L 702.890916 187.246503 
L 702.890916 187.246503 
" style="fill:none;stroke:#d62728;stroke-dasharray:7.4,3.2;stroke-dashoffset:0;stroke-width:2;"/>
   </g>
   <g id="line2d_30">
    <path clip-path="url(#pd200c5a81b)" d="M 40.398143 214.061757 
L 42.375733 237.443871 
L 44.353324 251.453609 
L 46.330914 257.96221 
L 48.308504 259.767893 
L 50.286095 256.248339 
L 52.263685 245.853715 
L 54.241275 250.324003 
L 56.218866 262.767335 
L 58.196456 270.023716 
L 60.174047 270.732271 
L 62.151637 263.066393 
L 64.129227 248.561437 
L 66.106818 228.974604 
L 68.084408 207.122603 
L 70.061998 177.735337 
L 72.039589 150.981179 
L 74.017179 128.674713 
L 75.994769 114.608251 
L 77.97236 101.808556 
L 79.94995 91.740695 
L 81.927541 85.04934 
L 83.905131 80.195788 
L 85.882721 78.304427 
L 87.860312 83.107009 
L 89.837902 95.290809 
L 91.815492 109.096489 
L 93.793083 121.648586 
L 95.770673 131.166087 
L 97.748264 133.008308 
L 99.725854 127.124234 
L 101.703444 111.02102 
L 105.658625 65.208885 
L 107.636215 57.379247 
L 109.613806 62.810215 
L 111.591396 70.285052 
L 115.546577 92.521879 
L 117.524167 99.424162 
L 119.501758 102.13311 
L 121.479348 96.444193 
L 123.456938 84.774506 
L 125.434529 80.373301 
L 127.412119 99.951992 
L 129.389709 132.597607 
L 131.3673 173.93593 
L 133.34489 210.249122 
L 135.322481 227.608575 
L 137.300071 246.306664 
L 139.277661 254.260816 
L 141.255252 255.57186 
L 143.232842 254.270564 
L 145.210432 249.681273 
L 147.188023 238.031817 
L 149.165613 239.861792 
L 151.143203 246.885308 
L 153.120794 247.469885 
L 155.098384 233.649126 
L 157.075975 207.654716 
L 161.031155 134.485377 
L 163.008746 108.342698 
L 164.986336 84.521688 
L 166.963926 68.544102 
L 168.941517 55.869566 
L 170.919107 52.929124 
L 172.896698 47.902432 
L 174.874288 43.515704 
L 176.851878 41.805402 
L 178.829469 42.062503 
L 180.807059 44.174137 
L 182.784649 50.224592 
L 184.76224 57.866948 
L 186.73983 66.198119 
L 188.71742 72.857576 
L 190.695011 78.096221 
L 192.672601 79.115992 
L 194.650192 75.217478 
L 196.627782 61.36326 
L 198.605372 43.138641 
L 200.582963 27.730442 
L 202.560553 30.032392 
L 204.538143 42.50644 
L 206.515734 59.186357 
L 208.493324 74.662367 
L 210.470915 84.60306 
L 212.448505 88.697266 
L 214.426095 90.402772 
L 216.403686 85.558812 
L 218.381276 75.404939 
L 220.358866 71.072236 
L 222.336457 93.454812 
L 224.314047 127.350909 
L 228.269228 213.541957 
L 230.246818 241.38722 
L 232.224409 264.519327 
L 234.201999 273.69183 
L 236.179589 275.417155 
L 238.15718 275.7984 
L 240.13477 274.298825 
L 242.11236 264.740359 
L 244.089951 268.955396 
L 246.067541 279.255966 
L 248.045132 283.006021 
L 250.022722 271.623201 
L 252.000312 243.734988 
L 255.955493 172.435663 
L 259.910674 124.13744 
L 261.888264 106.345003 
L 263.865854 95.078744 
L 265.843445 91.024935 
L 267.821035 86.555474 
L 269.798626 83.98663 
L 271.776216 82.639963 
L 273.753806 83.785696 
L 275.731397 89.903025 
L 277.708987 99.498999 
L 281.664168 112.192718 
L 283.641758 117.011181 
L 285.619349 119.378333 
L 287.596939 115.663332 
L 289.574529 104.358439 
L 291.55212 83.792589 
L 295.5073 35.611384 
L 297.484891 28.056468 
L 299.462481 30.578224 
L 301.440071 42.228148 
L 303.417662 56.393761 
L 305.395252 65.791834 
L 307.372843 69.625995 
L 309.350433 70.398412 
L 313.305614 50.961766 
L 315.283204 54.270215 
L 317.260794 87.793532 
L 319.238385 128.557828 
L 321.215975 174.990498 
L 323.193566 215.367604 
L 325.171156 243.699788 
L 327.148746 263.234827 
L 329.126337 271.335352 
L 331.103927 276.715685 
L 333.081517 279.74553 
L 335.059108 277.857816 
L 337.036698 266.06366 
L 339.014288 269.215776 
L 340.991879 278.621311 
L 342.969469 282.187396 
L 344.94706 271.262678 
L 346.92465 246.279428 
L 348.90224 212.036292 
L 350.879831 172.720601 
L 354.835011 114.807824 
L 356.812602 98.968001 
L 358.790192 87.910372 
L 360.767783 82.134081 
L 362.745373 78.896901 
L 364.722963 77.811952 
L 366.700554 75.831656 
L 368.678144 76.72814 
L 370.655734 80.22231 
L 374.610915 94.872658 
L 376.588505 100.53793 
L 378.566096 107.380276 
L 380.543686 110.379673 
L 382.521277 106.605227 
L 384.498867 96.705153 
L 386.476457 78.913831 
L 390.431638 27.727943 
L 392.409228 19.862749 
L 394.386819 25.786773 
L 398.341999 53.462955 
L 400.31959 63.156585 
L 402.29718 69.210163 
L 404.274771 69.71339 
L 406.252361 60.059019 
L 408.229951 51.427831 
L 410.207542 56.491372 
L 412.185132 87.11567 
L 414.162722 125.364189 
L 416.140313 168.435991 
L 418.117903 203.441396 
L 420.095494 243.332161 
L 422.073084 264.058326 
L 424.050674 273.916051 
L 426.028265 279.972741 
L 428.005855 282.334416 
L 429.983445 281.253326 
L 431.961036 271.451756 
L 433.938626 273.618018 
L 435.916216 281.005505 
L 437.893807 283.849651 
L 439.871397 277.078116 
L 441.848988 256.163955 
L 443.826578 222.417977 
L 445.804168 185.174172 
L 447.781759 156.07615 
L 449.759349 129.499661 
L 451.736939 110.737999 
L 453.71453 99.220685 
L 455.69212 97.445851 
L 457.669711 96.266837 
L 459.647301 95.399931 
L 461.624891 93.324142 
L 463.602482 94.409805 
L 465.580072 94.545114 
L 467.557662 102.224789 
L 469.535253 112.341388 
L 473.490433 122.424841 
L 475.468024 124.20853 
L 477.445614 124.146095 
L 479.423205 117.808983 
L 481.400795 100.989251 
L 485.355976 50.726079 
L 487.333566 40.847799 
L 489.311156 40.531631 
L 491.288747 47.119486 
L 493.266337 55.958211 
L 495.243928 60.238762 
L 497.221518 59.279463 
L 499.199108 56.079601 
L 501.176699 49.655027 
L 503.154289 48.104705 
L 505.131879 61.914802 
L 507.10947 93.87874 
L 511.06465 172.902218 
L 513.042241 204.557663 
L 516.997422 252.274297 
L 518.975012 266.520011 
L 520.952602 275.539627 
L 522.930193 278.757356 
L 524.907783 278.521826 
L 526.885373 270.672034 
L 528.862964 272.503993 
L 530.840554 281.201765 
L 532.818145 288.120956 
L 534.795735 284.487172 
L 536.773325 265.962457 
L 538.750916 236.027051 
L 540.728506 196.225533 
L 544.683687 133.265475 
L 546.661277 111.195253 
L 548.638867 98.375706 
L 550.616458 91.900162 
L 552.594048 86.821162 
L 554.571639 82.749664 
L 556.549229 81.705647 
L 558.526819 83.283696 
L 560.50441 88.521003 
L 562.482 97.243869 
L 564.45959 110.291676 
L 566.437181 120.219074 
L 568.414771 127.522243 
L 570.392362 133.646242 
L 572.369952 136.638501 
L 574.347542 134.028502 
L 576.325133 123.148675 
L 578.302723 103.320489 
L 580.280313 79.415028 
L 582.257904 70.254047 
L 584.235494 68.462461 
L 586.213084 76.222415 
L 590.168265 97.127632 
L 592.145856 99.270294 
L 594.123446 95.22369 
L 596.101036 86.44082 
L 598.078627 74.295387 
L 600.056217 76.278359 
L 602.033807 97.964246 
L 604.011398 128.158504 
L 605.988988 163.70142 
L 607.966579 194.227281 
L 609.944169 227.230552 
L 611.921759 255.581362 
L 613.89935 273.803583 
L 615.87694 284.590762 
L 617.85453 289.261737 
L 619.832121 287.910163 
L 621.809711 278.002773 
L 623.787301 280.539351 
L 625.764892 287.74948 
L 627.742482 295.455967 
L 629.720073 297.139591 
L 631.697663 288.879298 
L 633.675253 274.594671 
L 635.652844 250.387196 
L 637.630434 223.970396 
L 641.585615 154.869521 
L 643.563205 126.660846 
L 645.540796 109.242528 
L 647.518386 97.946624 
L 649.495976 90.214887 
L 651.473567 87.189169 
L 653.451157 91.090649 
L 655.428747 95.948863 
L 659.383928 117.26623 
L 661.361518 126.746546 
L 663.339109 134.228744 
L 665.316699 140.272842 
L 667.29429 144.361449 
L 669.27188 144.14209 
L 671.24947 131.810289 
L 673.227061 112.156225 
L 675.204651 93.926319 
L 677.182241 89.755514 
L 679.159832 93.229252 
L 681.137422 103.655349 
L 685.092603 121.561347 
L 687.070193 125.242108 
L 689.047784 123.429197 
L 691.025374 110.708823 
L 693.002964 95.559264 
L 694.980555 94.051724 
L 696.958145 109.413371 
L 698.935735 130.076253 
L 702.890916 188.193912 
L 702.890916 188.193912 
" style="fill:none;stroke:#1f77b4;stroke-linecap:square;stroke-width:1.5;"/>
   </g>
   <g id="patch_3">
    <path d="M 38.420552 326.64351 
L 38.420552 3.00024 
" style="fill:none;stroke:#000000;stroke-linecap:square;stroke-linejoin:miter;stroke-width:0.8;"/>
   </g>
   <g id="patch_4">
    <path d="M 706.846097 326.64351 
L 706.846097 3.00024 
" style="fill:none;stroke:#000000;stroke-linecap:square;stroke-linejoin:miter;stroke-width:0.8;"/>
   </g>
   <g id="patch_5">
    <path d="M 38.420552 326.64351 
L 706.846097 326.64351 
" style="fill:none;stroke:#000000;stroke-linecap:square;stroke-linejoin:miter;stroke-width:0.8;"/>
   </g>
   <g id="patch_6">
    <path d="M 38.420552 3.00024 
L 706.846097 3.00024 
" style="fill:none;stroke:#000000;stroke-linecap:square;stroke-linejoin:miter;stroke-width:0.8;"/>
   </g>
   <g id="legend_1">
    <g id="patch_7">
     <path d="M 189.805981 25.678365 
L 555.460668 25.678365 
L 555.460668 8.00024 
L 189.805981 8.00024 
z
" style="fill:#ffffff;opacity:0.95;stroke:#000000;stroke-linejoin:miter;"/>
    </g>
    <g id="line2d_31">
     <path d="M 193.805981 16.098678 
L 213.805981 16.098678 
" style="fill:none;stroke:#d62728;stroke-dasharray:7.4,3.2;stroke-dashoffset:0;stroke-width:2;"/>
    </g>
    <g id="line2d_32"/>
    <g id="text_17">
     <!-- Actual demand difference -->
     <g transform="translate(221.805981 19.598678)scale(0.1 -0.1)">
      <defs>
       <path d="M 2188 4044 
L 1331 1722 
L 3047 1722 
L 2188 4044 
z
M 1831 4666 
L 2547 4666 
L 4325 0 
L 3669 0 
L 3244 1197 
L 1141 1197 
L 716 0 
L 50 0 
L 1831 4666 
z
" id="DejaVuSans-41" transform="scale(0.015625)"/>
       <path d="M 603 4863 
L 1178 4863 
L 1178 0 
L 603 0 
L 603 4863 
z
" id="DejaVuSans-6c" transform="scale(0.015625)"/>
      </defs>
      <use xlink:href="#DejaVuSans-41"/>
      <use x="66.658203" xlink:href="#DejaVuSans-63"/>
      <use x="121.638672" xlink:href="#DejaVuSans-74"/>
      <use x="160.847656" xlink:href="#DejaVuSans-75"/>
      <use x="224.226562" xlink:href="#DejaVuSans-61"/>
      <use x="285.505859" xlink:href="#DejaVuSans-6c"/>
      <use x="313.289062" xlink:href="#DejaVuSans-20"/>
      <use x="345.076172" xlink:href="#DejaVuSans-64"/>
      <use x="408.552734" xlink:href="#DejaVuSans-65"/>
      <use x="470.076172" xlink:href="#DejaVuSans-6d"/>
      <use x="567.488281" xlink:href="#DejaVuSans-61"/>
      <use x="628.767578" xlink:href="#DejaVuSans-6e"/>
      <use x="692.146484" xlink:href="#DejaVuSans-64"/>
      <use x="755.623047" xlink:href="#DejaVuSans-20"/>
      <use x="787.410156" xlink:href="#DejaVuSans-64"/>
      <use x="850.886719" xlink:href="#DejaVuSans-69"/>
      <use x="878.669922" xlink:href="#DejaVuSans-66"/>
      <use x="913.875" xlink:href="#DejaVuSans-66"/>
      <use x="949.080078" xlink:href="#DejaVuSans-65"/>
      <use x="1010.603516" xlink:href="#DejaVuSans-72"/>
      <use x="1049.466797" xlink:href="#DejaVuSans-65"/>
      <use x="1110.990234" xlink:href="#DejaVuSans-6e"/>
      <use x="1174.369141" xlink:href="#DejaVuSans-63"/>
      <use x="1229.349609" xlink:href="#DejaVuSans-65"/>
     </g>
    </g>
    <g id="line2d_33">
     <path d="M 370.895043 16.098678 
L 390.895043 16.098678 
" style="fill:none;stroke:#1f77b4;stroke-linecap:square;stroke-width:1.5;"/>
    </g>
    <g id="line2d_34"/>
    <g id="text_18">
     <!-- Forecasted demand difference -->
     <g transform="translate(398.895043 19.598678)scale(0.1 -0.1)">
      <defs>
       <path d="M 2834 3397 
L 2834 2853 
Q 2591 2978 2328 3040 
Q 2066 3103 1784 3103 
Q 1356 3103 1142 2972 
Q 928 2841 928 2578 
Q 928 2378 1081 2264 
Q 1234 2150 1697 2047 
L 1894 2003 
Q 2506 1872 2764 1633 
Q 3022 1394 3022 966 
Q 3022 478 2636 193 
Q 2250 -91 1575 -91 
Q 1294 -91 989 -36 
Q 684 19 347 128 
L 347 722 
Q 666 556 975 473 
Q 1284 391 1588 391 
Q 1994 391 2212 530 
Q 2431 669 2431 922 
Q 2431 1156 2273 1281 
Q 2116 1406 1581 1522 
L 1381 1569 
Q 847 1681 609 1914 
Q 372 2147 372 2553 
Q 372 3047 722 3315 
Q 1072 3584 1716 3584 
Q 2034 3584 2315 3537 
Q 2597 3491 2834 3397 
z
" id="DejaVuSans-73" transform="scale(0.015625)"/>
      </defs>
      <use xlink:href="#DejaVuSans-46"/>
      <use x="53.894531" xlink:href="#DejaVuSans-6f"/>
      <use x="115.076172" xlink:href="#DejaVuSans-72"/>
      <use x="153.939453" xlink:href="#DejaVuSans-65"/>
      <use x="215.462891" xlink:href="#DejaVuSans-63"/>
      <use x="270.443359" xlink:href="#DejaVuSans-61"/>
      <use x="331.722656" xlink:href="#DejaVuSans-73"/>
      <use x="383.822266" xlink:href="#DejaVuSans-74"/>
      <use x="423.03125" xlink:href="#DejaVuSans-65"/>
      <use x="484.554688" xlink:href="#DejaVuSans-64"/>
      <use x="548.03125" xlink:href="#DejaVuSans-20"/>
      <use x="579.818359" xlink:href="#DejaVuSans-64"/>
      <use x="643.294922" xlink:href="#DejaVuSans-65"/>
      <use x="704.818359" xlink:href="#DejaVuSans-6d"/>
      <use x="802.230469" xlink:href="#DejaVuSans-61"/>
      <use x="863.509766" xlink:href="#DejaVuSans-6e"/>
      <use x="926.888672" xlink:href="#DejaVuSans-64"/>
      <use x="990.365234" xlink:href="#DejaVuSans-20"/>
      <use x="1022.152344" xlink:href="#DejaVuSans-64"/>
      <use x="1085.628906" xlink:href="#DejaVuSans-69"/>
      <use x="1113.412109" xlink:href="#DejaVuSans-66"/>
      <use x="1148.617188" xlink:href="#DejaVuSans-66"/>
      <use x="1183.822266" xlink:href="#DejaVuSans-65"/>
      <use x="1245.345703" xlink:href="#DejaVuSans-72"/>
      <use x="1284.208984" xlink:href="#DejaVuSans-65"/>
      <use x="1345.732422" xlink:href="#DejaVuSans-6e"/>
      <use x="1409.111328" xlink:href="#DejaVuSans-63"/>
      <use x="1464.091797" xlink:href="#DejaVuSans-65"/>
     </g>
    </g>
   </g>
  </g>
 </g>
 <defs>
  <clipPath id="pd200c5a81b">
   <rect height="323.64327" width="668.425544" x="38.420552" y="3.00024"/>
  </clipPath>
 </defs>
</svg>
