<?xml version="1.0" encoding="utf-8" standalone="no"?>
<!DOCTYPE svg PUBLIC "-//W3C//DTD SVG 1.1//EN"
  "http://www.w3.org/Graphics/SVG/1.1/DTD/svg11.dtd">
<svg height="360pt" version="1.1" viewBox="0 0 720 360" width="720pt" xmlns="http://www.w3.org/2000/svg" xmlns:xlink="http://www.w3.org/1999/xlink">
 <metadata>
  <rdf:RDF xmlns:cc="http://creativecommons.org/ns#" xmlns:dc="http://purl.org/dc/elements/1.1/" xmlns:rdf="http://www.w3.org/1999/02/22-rdf-syntax-ns#">
   <cc:Work>
    <dc:type rdf:resource="http://purl.org/dc/dcmitype/StillImage"/>
    <dc:date>2022-04-24T10:27:20.845635</dc:date>
    <dc:format>image/svg+xml</dc:format>
    <dc:creator>
     <cc:Agent>
      <dc:title>Matplotlib v3.4.3, https://matplotlib.org/</dc:title>
     </cc:Agent>
    </dc:creator>
   </cc:Work>
  </rdf:RDF>
 </metadata>
 <defs>
  <style type="text/css">*{stroke-linecap:butt;stroke-linejoin:round;}</style>
 </defs>
 <g id="figure_1">
  <g id="patch_1">
   <path d="M 0 360 
L 720 360 
L 720 0 
L 0 0 
z
" style="fill:#ffffff;"/>
  </g>
  <g id="axes_1">
   <g id="patch_2">
    <path d="M 45.94399 326.64351 
L 706.823772 326.64351 
L 706.823772 6.799459 
L 45.94399 6.799459 
z
" style="fill:#ffffff;"/>
   </g>
   <g id="matplotlib.axis_1">
    <g id="xtick_1">
     <g id="line2d_1">
      <path clip-path="url(#p6365b93fcc)" d="M 47.899256 326.64351 
L 47.899256 6.799459 
" style="fill:none;stroke:#b0b0b0;stroke-linecap:square;stroke-width:0.8;"/>
     </g>
     <g id="line2d_2">
      <defs>
       <path d="M 0 0 
L 0 3.5 
" id="m3e5cc3cc90" style="stroke:#000000;stroke-width:0.8;"/>
      </defs>
      <g>
       <use style="stroke:#000000;stroke-width:0.8;" x="47.899256" xlink:href="#m3e5cc3cc90" y="326.64351"/>
      </g>
     </g>
     <g id="text_1">
      <!-- Mon. -->
      <g transform="translate(35.768006 341.241947)scale(0.1 -0.1)">
       <defs>
        <path d="M 628 4666 
L 1569 4666 
L 2759 1491 
L 3956 4666 
L 4897 4666 
L 4897 0 
L 4281 0 
L 4281 4097 
L 3078 897 
L 2444 897 
L 1241 4097 
L 1241 0 
L 628 0 
L 628 4666 
z
" id="DejaVuSans-4d" transform="scale(0.015625)"/>
        <path d="M 1959 3097 
Q 1497 3097 1228 2736 
Q 959 2375 959 1747 
Q 959 1119 1226 758 
Q 1494 397 1959 397 
Q 2419 397 2687 759 
Q 2956 1122 2956 1747 
Q 2956 2369 2687 2733 
Q 2419 3097 1959 3097 
z
M 1959 3584 
Q 2709 3584 3137 3096 
Q 3566 2609 3566 1747 
Q 3566 888 3137 398 
Q 2709 -91 1959 -91 
Q 1206 -91 779 398 
Q 353 888 353 1747 
Q 353 2609 779 3096 
Q 1206 3584 1959 3584 
z
" id="DejaVuSans-6f" transform="scale(0.015625)"/>
        <path d="M 3513 2113 
L 3513 0 
L 2938 0 
L 2938 2094 
Q 2938 2591 2744 2837 
Q 2550 3084 2163 3084 
Q 1697 3084 1428 2787 
Q 1159 2491 1159 1978 
L 1159 0 
L 581 0 
L 581 3500 
L 1159 3500 
L 1159 2956 
Q 1366 3272 1645 3428 
Q 1925 3584 2291 3584 
Q 2894 3584 3203 3211 
Q 3513 2838 3513 2113 
z
" id="DejaVuSans-6e" transform="scale(0.015625)"/>
        <path d="M 684 794 
L 1344 794 
L 1344 0 
L 684 0 
L 684 794 
z
" id="DejaVuSans-2e" transform="scale(0.015625)"/>
       </defs>
       <use xlink:href="#DejaVuSans-4d"/>
       <use x="86.279297" xlink:href="#DejaVuSans-6f"/>
       <use x="147.460938" xlink:href="#DejaVuSans-6e"/>
       <use x="210.839844" xlink:href="#DejaVuSans-2e"/>
      </g>
     </g>
    </g>
    <g id="xtick_2">
     <g id="line2d_3">
      <path clip-path="url(#p6365b93fcc)" d="M 141.752006 326.64351 
L 141.752006 6.799459 
" style="fill:none;stroke:#b0b0b0;stroke-linecap:square;stroke-width:0.8;"/>
     </g>
     <g id="line2d_4">
      <g>
       <use style="stroke:#000000;stroke-width:0.8;" x="141.752006" xlink:href="#m3e5cc3cc90" y="326.64351"/>
      </g>
     </g>
     <g id="text_2">
      <!-- Tue. -->
      <g transform="translate(131.619974 341.241947)scale(0.1 -0.1)">
       <defs>
        <path d="M -19 4666 
L 3928 4666 
L 3928 4134 
L 2272 4134 
L 2272 0 
L 1638 0 
L 1638 4134 
L -19 4134 
L -19 4666 
z
" id="DejaVuSans-54" transform="scale(0.015625)"/>
        <path d="M 544 1381 
L 544 3500 
L 1119 3500 
L 1119 1403 
Q 1119 906 1312 657 
Q 1506 409 1894 409 
Q 2359 409 2629 706 
Q 2900 1003 2900 1516 
L 2900 3500 
L 3475 3500 
L 3475 0 
L 2900 0 
L 2900 538 
Q 2691 219 2414 64 
Q 2138 -91 1772 -91 
Q 1169 -91 856 284 
Q 544 659 544 1381 
z
M 1991 3584 
L 1991 3584 
z
" id="DejaVuSans-75" transform="scale(0.015625)"/>
        <path d="M 3597 1894 
L 3597 1613 
L 953 1613 
Q 991 1019 1311 708 
Q 1631 397 2203 397 
Q 2534 397 2845 478 
Q 3156 559 3463 722 
L 3463 178 
Q 3153 47 2828 -22 
Q 2503 -91 2169 -91 
Q 1331 -91 842 396 
Q 353 884 353 1716 
Q 353 2575 817 3079 
Q 1281 3584 2069 3584 
Q 2775 3584 3186 3129 
Q 3597 2675 3597 1894 
z
M 3022 2063 
Q 3016 2534 2758 2815 
Q 2500 3097 2075 3097 
Q 1594 3097 1305 2825 
Q 1016 2553 972 2059 
L 3022 2063 
z
" id="DejaVuSans-65" transform="scale(0.015625)"/>
       </defs>
       <use xlink:href="#DejaVuSans-54"/>
       <use x="45.958984" xlink:href="#DejaVuSans-75"/>
       <use x="109.337891" xlink:href="#DejaVuSans-65"/>
       <use x="170.861328" xlink:href="#DejaVuSans-2e"/>
      </g>
     </g>
    </g>
    <g id="xtick_3">
     <g id="line2d_5">
      <path clip-path="url(#p6365b93fcc)" d="M 235.604756 326.64351 
L 235.604756 6.799459 
" style="fill:none;stroke:#b0b0b0;stroke-linecap:square;stroke-width:0.8;"/>
     </g>
     <g id="line2d_6">
      <g>
       <use style="stroke:#000000;stroke-width:0.8;" x="235.604756" xlink:href="#m3e5cc3cc90" y="326.64351"/>
      </g>
     </g>
     <g id="text_3">
      <!-- Wed. -->
      <g transform="translate(223.114912 341.241947)scale(0.1 -0.1)">
       <defs>
        <path d="M 213 4666 
L 850 4666 
L 1831 722 
L 2809 4666 
L 3519 4666 
L 4500 722 
L 5478 4666 
L 6119 4666 
L 4947 0 
L 4153 0 
L 3169 4050 
L 2175 0 
L 1381 0 
L 213 4666 
z
" id="DejaVuSans-57" transform="scale(0.015625)"/>
        <path d="M 2906 2969 
L 2906 4863 
L 3481 4863 
L 3481 0 
L 2906 0 
L 2906 525 
Q 2725 213 2448 61 
Q 2172 -91 1784 -91 
Q 1150 -91 751 415 
Q 353 922 353 1747 
Q 353 2572 751 3078 
Q 1150 3584 1784 3584 
Q 2172 3584 2448 3432 
Q 2725 3281 2906 2969 
z
M 947 1747 
Q 947 1113 1208 752 
Q 1469 391 1925 391 
Q 2381 391 2643 752 
Q 2906 1113 2906 1747 
Q 2906 2381 2643 2742 
Q 2381 3103 1925 3103 
Q 1469 3103 1208 2742 
Q 947 2381 947 1747 
z
" id="DejaVuSans-64" transform="scale(0.015625)"/>
       </defs>
       <use xlink:href="#DejaVuSans-57"/>
       <use x="93.001953" xlink:href="#DejaVuSans-65"/>
       <use x="154.525391" xlink:href="#DejaVuSans-64"/>
       <use x="218.001953" xlink:href="#DejaVuSans-2e"/>
      </g>
     </g>
    </g>
    <g id="xtick_4">
     <g id="line2d_7">
      <path clip-path="url(#p6365b93fcc)" d="M 329.457506 326.64351 
L 329.457506 6.799459 
" style="fill:none;stroke:#b0b0b0;stroke-linecap:square;stroke-width:0.8;"/>
     </g>
     <g id="line2d_8">
      <g>
       <use style="stroke:#000000;stroke-width:0.8;" x="329.457506" xlink:href="#m3e5cc3cc90" y="326.64351"/>
      </g>
     </g>
     <g id="text_4">
      <!-- Thur. -->
      <g transform="translate(316.877818 341.241947)scale(0.1 -0.1)">
       <defs>
        <path d="M 3513 2113 
L 3513 0 
L 2938 0 
L 2938 2094 
Q 2938 2591 2744 2837 
Q 2550 3084 2163 3084 
Q 1697 3084 1428 2787 
Q 1159 2491 1159 1978 
L 1159 0 
L 581 0 
L 581 4863 
L 1159 4863 
L 1159 2956 
Q 1366 3272 1645 3428 
Q 1925 3584 2291 3584 
Q 2894 3584 3203 3211 
Q 3513 2838 3513 2113 
z
" id="DejaVuSans-68" transform="scale(0.015625)"/>
        <path d="M 2631 2963 
Q 2534 3019 2420 3045 
Q 2306 3072 2169 3072 
Q 1681 3072 1420 2755 
Q 1159 2438 1159 1844 
L 1159 0 
L 581 0 
L 581 3500 
L 1159 3500 
L 1159 2956 
Q 1341 3275 1631 3429 
Q 1922 3584 2338 3584 
Q 2397 3584 2469 3576 
Q 2541 3569 2628 3553 
L 2631 2963 
z
" id="DejaVuSans-72" transform="scale(0.015625)"/>
       </defs>
       <use xlink:href="#DejaVuSans-54"/>
       <use x="61.083984" xlink:href="#DejaVuSans-68"/>
       <use x="124.462891" xlink:href="#DejaVuSans-75"/>
       <use x="187.841797" xlink:href="#DejaVuSans-72"/>
       <use x="219.830078" xlink:href="#DejaVuSans-2e"/>
      </g>
     </g>
    </g>
    <g id="xtick_5">
     <g id="line2d_9">
      <path clip-path="url(#p6365b93fcc)" d="M 423.310256 326.64351 
L 423.310256 6.799459 
" style="fill:none;stroke:#b0b0b0;stroke-linecap:square;stroke-width:0.8;"/>
     </g>
     <g id="line2d_10">
      <g>
       <use style="stroke:#000000;stroke-width:0.8;" x="423.310256" xlink:href="#m3e5cc3cc90" y="326.64351"/>
      </g>
     </g>
     <g id="text_5">
      <!-- Fri. -->
      <g transform="translate(415.763381 341.241947)scale(0.1 -0.1)">
       <defs>
        <path d="M 628 4666 
L 3309 4666 
L 3309 4134 
L 1259 4134 
L 1259 2759 
L 3109 2759 
L 3109 2228 
L 1259 2228 
L 1259 0 
L 628 0 
L 628 4666 
z
" id="DejaVuSans-46" transform="scale(0.015625)"/>
        <path d="M 603 3500 
L 1178 3500 
L 1178 0 
L 603 0 
L 603 3500 
z
M 603 4863 
L 1178 4863 
L 1178 4134 
L 603 4134 
L 603 4863 
z
" id="DejaVuSans-69" transform="scale(0.015625)"/>
       </defs>
       <use xlink:href="#DejaVuSans-46"/>
       <use x="50.269531" xlink:href="#DejaVuSans-72"/>
       <use x="91.382812" xlink:href="#DejaVuSans-69"/>
       <use x="119.166016" xlink:href="#DejaVuSans-2e"/>
      </g>
     </g>
    </g>
    <g id="xtick_6">
     <g id="line2d_11">
      <path clip-path="url(#p6365b93fcc)" d="M 517.163006 326.64351 
L 517.163006 6.799459 
" style="fill:none;stroke:#b0b0b0;stroke-linecap:square;stroke-width:0.8;"/>
     </g>
     <g id="line2d_12">
      <g>
       <use style="stroke:#000000;stroke-width:0.8;" x="517.163006" xlink:href="#m3e5cc3cc90" y="326.64351"/>
      </g>
     </g>
     <g id="text_6">
      <!-- Sat. -->
      <g transform="translate(507.375506 341.241947)scale(0.1 -0.1)">
       <defs>
        <path d="M 3425 4513 
L 3425 3897 
Q 3066 4069 2747 4153 
Q 2428 4238 2131 4238 
Q 1616 4238 1336 4038 
Q 1056 3838 1056 3469 
Q 1056 3159 1242 3001 
Q 1428 2844 1947 2747 
L 2328 2669 
Q 3034 2534 3370 2195 
Q 3706 1856 3706 1288 
Q 3706 609 3251 259 
Q 2797 -91 1919 -91 
Q 1588 -91 1214 -16 
Q 841 59 441 206 
L 441 856 
Q 825 641 1194 531 
Q 1563 422 1919 422 
Q 2459 422 2753 634 
Q 3047 847 3047 1241 
Q 3047 1584 2836 1778 
Q 2625 1972 2144 2069 
L 1759 2144 
Q 1053 2284 737 2584 
Q 422 2884 422 3419 
Q 422 4038 858 4394 
Q 1294 4750 2059 4750 
Q 2388 4750 2728 4690 
Q 3069 4631 3425 4513 
z
" id="DejaVuSans-53" transform="scale(0.015625)"/>
        <path d="M 2194 1759 
Q 1497 1759 1228 1600 
Q 959 1441 959 1056 
Q 959 750 1161 570 
Q 1363 391 1709 391 
Q 2188 391 2477 730 
Q 2766 1069 2766 1631 
L 2766 1759 
L 2194 1759 
z
M 3341 1997 
L 3341 0 
L 2766 0 
L 2766 531 
Q 2569 213 2275 61 
Q 1981 -91 1556 -91 
Q 1019 -91 701 211 
Q 384 513 384 1019 
Q 384 1609 779 1909 
Q 1175 2209 1959 2209 
L 2766 2209 
L 2766 2266 
Q 2766 2663 2505 2880 
Q 2244 3097 1772 3097 
Q 1472 3097 1187 3025 
Q 903 2953 641 2809 
L 641 3341 
Q 956 3463 1253 3523 
Q 1550 3584 1831 3584 
Q 2591 3584 2966 3190 
Q 3341 2797 3341 1997 
z
" id="DejaVuSans-61" transform="scale(0.015625)"/>
        <path d="M 1172 4494 
L 1172 3500 
L 2356 3500 
L 2356 3053 
L 1172 3053 
L 1172 1153 
Q 1172 725 1289 603 
Q 1406 481 1766 481 
L 2356 481 
L 2356 0 
L 1766 0 
Q 1100 0 847 248 
Q 594 497 594 1153 
L 594 3053 
L 172 3053 
L 172 3500 
L 594 3500 
L 594 4494 
L 1172 4494 
z
" id="DejaVuSans-74" transform="scale(0.015625)"/>
       </defs>
       <use xlink:href="#DejaVuSans-53"/>
       <use x="63.476562" xlink:href="#DejaVuSans-61"/>
       <use x="124.755859" xlink:href="#DejaVuSans-74"/>
       <use x="163.964844" xlink:href="#DejaVuSans-2e"/>
      </g>
     </g>
    </g>
    <g id="xtick_7">
     <g id="line2d_13">
      <path clip-path="url(#p6365b93fcc)" d="M 611.015756 326.64351 
L 611.015756 6.799459 
" style="fill:none;stroke:#b0b0b0;stroke-linecap:square;stroke-width:0.8;"/>
     </g>
     <g id="line2d_14">
      <g>
       <use style="stroke:#000000;stroke-width:0.8;" x="611.015756" xlink:href="#m3e5cc3cc90" y="326.64351"/>
      </g>
     </g>
     <g id="text_7">
      <!-- Sun. -->
      <g transform="translate(599.914975 341.241947)scale(0.1 -0.1)">
       <use xlink:href="#DejaVuSans-53"/>
       <use x="63.476562" xlink:href="#DejaVuSans-75"/>
       <use x="126.855469" xlink:href="#DejaVuSans-6e"/>
       <use x="190.234375" xlink:href="#DejaVuSans-2e"/>
      </g>
     </g>
    </g>
    <g id="xtick_8">
     <g id="line2d_15">
      <path clip-path="url(#p6365b93fcc)" d="M 704.868506 326.64351 
L 704.868506 6.799459 
" style="fill:none;stroke:#b0b0b0;stroke-linecap:square;stroke-width:0.8;"/>
     </g>
     <g id="line2d_16">
      <g>
       <use style="stroke:#000000;stroke-width:0.8;" x="704.868506" xlink:href="#m3e5cc3cc90" y="326.64351"/>
      </g>
     </g>
     <g id="text_8">
      <!-- Mon. -->
      <g transform="translate(692.737256 341.241947)scale(0.1 -0.1)">
       <use xlink:href="#DejaVuSans-4d"/>
       <use x="86.279297" xlink:href="#DejaVuSans-6f"/>
       <use x="147.460938" xlink:href="#DejaVuSans-6e"/>
       <use x="210.839844" xlink:href="#DejaVuSans-2e"/>
      </g>
     </g>
    </g>
    <g id="text_9">
     <!-- Day of the week -->
     <g transform="translate(335.580756 354.920073)scale(0.1 -0.1)">
      <defs>
       <path d="M 1259 4147 
L 1259 519 
L 2022 519 
Q 2988 519 3436 956 
Q 3884 1394 3884 2338 
Q 3884 3275 3436 3711 
Q 2988 4147 2022 4147 
L 1259 4147 
z
M 628 4666 
L 1925 4666 
Q 3281 4666 3915 4102 
Q 4550 3538 4550 2338 
Q 4550 1131 3912 565 
Q 3275 0 1925 0 
L 628 0 
L 628 4666 
z
" id="DejaVuSans-44" transform="scale(0.015625)"/>
       <path d="M 2059 -325 
Q 1816 -950 1584 -1140 
Q 1353 -1331 966 -1331 
L 506 -1331 
L 506 -850 
L 844 -850 
Q 1081 -850 1212 -737 
Q 1344 -625 1503 -206 
L 1606 56 
L 191 3500 
L 800 3500 
L 1894 763 
L 2988 3500 
L 3597 3500 
L 2059 -325 
z
" id="DejaVuSans-79" transform="scale(0.015625)"/>
       <path id="DejaVuSans-20" transform="scale(0.015625)"/>
       <path d="M 2375 4863 
L 2375 4384 
L 1825 4384 
Q 1516 4384 1395 4259 
Q 1275 4134 1275 3809 
L 1275 3500 
L 2222 3500 
L 2222 3053 
L 1275 3053 
L 1275 0 
L 697 0 
L 697 3053 
L 147 3053 
L 147 3500 
L 697 3500 
L 697 3744 
Q 697 4328 969 4595 
Q 1241 4863 1831 4863 
L 2375 4863 
z
" id="DejaVuSans-66" transform="scale(0.015625)"/>
       <path d="M 269 3500 
L 844 3500 
L 1563 769 
L 2278 3500 
L 2956 3500 
L 3675 769 
L 4391 3500 
L 4966 3500 
L 4050 0 
L 3372 0 
L 2619 2869 
L 1863 0 
L 1184 0 
L 269 3500 
z
" id="DejaVuSans-77" transform="scale(0.015625)"/>
       <path d="M 581 4863 
L 1159 4863 
L 1159 1991 
L 2875 3500 
L 3609 3500 
L 1753 1863 
L 3688 0 
L 2938 0 
L 1159 1709 
L 1159 0 
L 581 0 
L 581 4863 
z
" id="DejaVuSans-6b" transform="scale(0.015625)"/>
      </defs>
      <use xlink:href="#DejaVuSans-44"/>
      <use x="77.001953" xlink:href="#DejaVuSans-61"/>
      <use x="138.28125" xlink:href="#DejaVuSans-79"/>
      <use x="197.460938" xlink:href="#DejaVuSans-20"/>
      <use x="229.248047" xlink:href="#DejaVuSans-6f"/>
      <use x="290.429688" xlink:href="#DejaVuSans-66"/>
      <use x="325.634766" xlink:href="#DejaVuSans-20"/>
      <use x="357.421875" xlink:href="#DejaVuSans-74"/>
      <use x="396.630859" xlink:href="#DejaVuSans-68"/>
      <use x="460.009766" xlink:href="#DejaVuSans-65"/>
      <use x="521.533203" xlink:href="#DejaVuSans-20"/>
      <use x="553.320312" xlink:href="#DejaVuSans-77"/>
      <use x="635.107422" xlink:href="#DejaVuSans-65"/>
      <use x="696.630859" xlink:href="#DejaVuSans-65"/>
      <use x="758.154297" xlink:href="#DejaVuSans-6b"/>
     </g>
    </g>
   </g>
   <g id="matplotlib.axis_2">
    <g id="ytick_1">
     <g id="line2d_17">
      <path clip-path="url(#p6365b93fcc)" d="M 45.94399 326.64351 
L 706.823772 326.64351 
" style="fill:none;stroke:#b0b0b0;stroke-linecap:square;stroke-width:0.8;"/>
     </g>
     <g id="line2d_18">
      <defs>
       <path d="M 0 0 
L -3.5 0 
" id="m7fc9ce6da5" style="stroke:#000000;stroke-width:0.8;"/>
      </defs>
      <g>
       <use style="stroke:#000000;stroke-width:0.8;" x="45.94399" xlink:href="#m7fc9ce6da5" y="326.64351"/>
      </g>
     </g>
     <g id="text_10">
      <!-- 10.0 -->
      <g transform="translate(16.678365 330.442729)scale(0.1 -0.1)">
       <defs>
        <path d="M 794 531 
L 1825 531 
L 1825 4091 
L 703 3866 
L 703 4441 
L 1819 4666 
L 2450 4666 
L 2450 531 
L 3481 531 
L 3481 0 
L 794 0 
L 794 531 
z
" id="DejaVuSans-31" transform="scale(0.015625)"/>
        <path d="M 2034 4250 
Q 1547 4250 1301 3770 
Q 1056 3291 1056 2328 
Q 1056 1369 1301 889 
Q 1547 409 2034 409 
Q 2525 409 2770 889 
Q 3016 1369 3016 2328 
Q 3016 3291 2770 3770 
Q 2525 4250 2034 4250 
z
M 2034 4750 
Q 2819 4750 3233 4129 
Q 3647 3509 3647 2328 
Q 3647 1150 3233 529 
Q 2819 -91 2034 -91 
Q 1250 -91 836 529 
Q 422 1150 422 2328 
Q 422 3509 836 4129 
Q 1250 4750 2034 4750 
z
" id="DejaVuSans-30" transform="scale(0.015625)"/>
       </defs>
       <use xlink:href="#DejaVuSans-31"/>
       <use x="63.623047" xlink:href="#DejaVuSans-30"/>
       <use x="127.246094" xlink:href="#DejaVuSans-2e"/>
       <use x="159.033203" xlink:href="#DejaVuSans-30"/>
      </g>
     </g>
    </g>
    <g id="ytick_2">
     <g id="line2d_19">
      <path clip-path="url(#p6365b93fcc)" d="M 45.94399 286.663004 
L 706.823772 286.663004 
" style="fill:none;stroke:#b0b0b0;stroke-linecap:square;stroke-width:0.8;"/>
     </g>
     <g id="line2d_20">
      <g>
       <use style="stroke:#000000;stroke-width:0.8;" x="45.94399" xlink:href="#m7fc9ce6da5" y="286.663004"/>
      </g>
     </g>
     <g id="text_11">
      <!-- 12.5 -->
      <g transform="translate(16.678365 290.462222)scale(0.1 -0.1)">
       <defs>
        <path d="M 1228 531 
L 3431 531 
L 3431 0 
L 469 0 
L 469 531 
Q 828 903 1448 1529 
Q 2069 2156 2228 2338 
Q 2531 2678 2651 2914 
Q 2772 3150 2772 3378 
Q 2772 3750 2511 3984 
Q 2250 4219 1831 4219 
Q 1534 4219 1204 4116 
Q 875 4013 500 3803 
L 500 4441 
Q 881 4594 1212 4672 
Q 1544 4750 1819 4750 
Q 2544 4750 2975 4387 
Q 3406 4025 3406 3419 
Q 3406 3131 3298 2873 
Q 3191 2616 2906 2266 
Q 2828 2175 2409 1742 
Q 1991 1309 1228 531 
z
" id="DejaVuSans-32" transform="scale(0.015625)"/>
        <path d="M 691 4666 
L 3169 4666 
L 3169 4134 
L 1269 4134 
L 1269 2991 
Q 1406 3038 1543 3061 
Q 1681 3084 1819 3084 
Q 2600 3084 3056 2656 
Q 3513 2228 3513 1497 
Q 3513 744 3044 326 
Q 2575 -91 1722 -91 
Q 1428 -91 1123 -41 
Q 819 9 494 109 
L 494 744 
Q 775 591 1075 516 
Q 1375 441 1709 441 
Q 2250 441 2565 725 
Q 2881 1009 2881 1497 
Q 2881 1984 2565 2268 
Q 2250 2553 1709 2553 
Q 1456 2553 1204 2497 
Q 953 2441 691 2322 
L 691 4666 
z
" id="DejaVuSans-35" transform="scale(0.015625)"/>
       </defs>
       <use xlink:href="#DejaVuSans-31"/>
       <use x="63.623047" xlink:href="#DejaVuSans-32"/>
       <use x="127.246094" xlink:href="#DejaVuSans-2e"/>
       <use x="159.033203" xlink:href="#DejaVuSans-35"/>
      </g>
     </g>
    </g>
    <g id="ytick_3">
     <g id="line2d_21">
      <path clip-path="url(#p6365b93fcc)" d="M 45.94399 246.682497 
L 706.823772 246.682497 
" style="fill:none;stroke:#b0b0b0;stroke-linecap:square;stroke-width:0.8;"/>
     </g>
     <g id="line2d_22">
      <g>
       <use style="stroke:#000000;stroke-width:0.8;" x="45.94399" xlink:href="#m7fc9ce6da5" y="246.682497"/>
      </g>
     </g>
     <g id="text_12">
      <!-- 15.0 -->
      <g transform="translate(16.678365 250.481716)scale(0.1 -0.1)">
       <use xlink:href="#DejaVuSans-31"/>
       <use x="63.623047" xlink:href="#DejaVuSans-35"/>
       <use x="127.246094" xlink:href="#DejaVuSans-2e"/>
       <use x="159.033203" xlink:href="#DejaVuSans-30"/>
      </g>
     </g>
    </g>
    <g id="ytick_4">
     <g id="line2d_23">
      <path clip-path="url(#p6365b93fcc)" d="M 45.94399 206.701991 
L 706.823772 206.701991 
" style="fill:none;stroke:#b0b0b0;stroke-linecap:square;stroke-width:0.8;"/>
     </g>
     <g id="line2d_24">
      <g>
       <use style="stroke:#000000;stroke-width:0.8;" x="45.94399" xlink:href="#m7fc9ce6da5" y="206.701991"/>
      </g>
     </g>
     <g id="text_13">
      <!-- 17.5 -->
      <g transform="translate(16.678365 210.50121)scale(0.1 -0.1)">
       <defs>
        <path d="M 525 4666 
L 3525 4666 
L 3525 4397 
L 1831 0 
L 1172 0 
L 2766 4134 
L 525 4134 
L 525 4666 
z
" id="DejaVuSans-37" transform="scale(0.015625)"/>
       </defs>
       <use xlink:href="#DejaVuSans-31"/>
       <use x="63.623047" xlink:href="#DejaVuSans-37"/>
       <use x="127.246094" xlink:href="#DejaVuSans-2e"/>
       <use x="159.033203" xlink:href="#DejaVuSans-35"/>
      </g>
     </g>
    </g>
    <g id="ytick_5">
     <g id="line2d_25">
      <path clip-path="url(#p6365b93fcc)" d="M 45.94399 166.721484 
L 706.823772 166.721484 
" style="fill:none;stroke:#b0b0b0;stroke-linecap:square;stroke-width:0.8;"/>
     </g>
     <g id="line2d_26">
      <g>
       <use style="stroke:#000000;stroke-width:0.8;" x="45.94399" xlink:href="#m7fc9ce6da5" y="166.721484"/>
      </g>
     </g>
     <g id="text_14">
      <!-- 20.0 -->
      <g transform="translate(16.678365 170.520703)scale(0.1 -0.1)">
       <use xlink:href="#DejaVuSans-32"/>
       <use x="63.623047" xlink:href="#DejaVuSans-30"/>
       <use x="127.246094" xlink:href="#DejaVuSans-2e"/>
       <use x="159.033203" xlink:href="#DejaVuSans-30"/>
      </g>
     </g>
    </g>
    <g id="ytick_6">
     <g id="line2d_27">
      <path clip-path="url(#p6365b93fcc)" d="M 45.94399 126.740978 
L 706.823772 126.740978 
" style="fill:none;stroke:#b0b0b0;stroke-linecap:square;stroke-width:0.8;"/>
     </g>
     <g id="line2d_28">
      <g>
       <use style="stroke:#000000;stroke-width:0.8;" x="45.94399" xlink:href="#m7fc9ce6da5" y="126.740978"/>
      </g>
     </g>
     <g id="text_15">
      <!-- 22.5 -->
      <g transform="translate(16.678365 130.540197)scale(0.1 -0.1)">
       <use xlink:href="#DejaVuSans-32"/>
       <use x="63.623047" xlink:href="#DejaVuSans-32"/>
       <use x="127.246094" xlink:href="#DejaVuSans-2e"/>
       <use x="159.033203" xlink:href="#DejaVuSans-35"/>
      </g>
     </g>
    </g>
    <g id="ytick_7">
     <g id="line2d_29">
      <path clip-path="url(#p6365b93fcc)" d="M 45.94399 86.760472 
L 706.823772 86.760472 
" style="fill:none;stroke:#b0b0b0;stroke-linecap:square;stroke-width:0.8;"/>
     </g>
     <g id="line2d_30">
      <g>
       <use style="stroke:#000000;stroke-width:0.8;" x="45.94399" xlink:href="#m7fc9ce6da5" y="86.760472"/>
      </g>
     </g>
     <g id="text_16">
      <!-- 25.0 -->
      <g transform="translate(16.678365 90.55969)scale(0.1 -0.1)">
       <use xlink:href="#DejaVuSans-32"/>
       <use x="63.623047" xlink:href="#DejaVuSans-35"/>
       <use x="127.246094" xlink:href="#DejaVuSans-2e"/>
       <use x="159.033203" xlink:href="#DejaVuSans-30"/>
      </g>
     </g>
    </g>
    <g id="ytick_8">
     <g id="line2d_31">
      <path clip-path="url(#p6365b93fcc)" d="M 45.94399 46.779965 
L 706.823772 46.779965 
" style="fill:none;stroke:#b0b0b0;stroke-linecap:square;stroke-width:0.8;"/>
     </g>
     <g id="line2d_32">
      <g>
       <use style="stroke:#000000;stroke-width:0.8;" x="45.94399" xlink:href="#m7fc9ce6da5" y="46.779965"/>
      </g>
     </g>
     <g id="text_17">
      <!-- 27.5 -->
      <g transform="translate(16.678365 50.579184)scale(0.1 -0.1)">
       <use xlink:href="#DejaVuSans-32"/>
       <use x="63.623047" xlink:href="#DejaVuSans-37"/>
       <use x="127.246094" xlink:href="#DejaVuSans-2e"/>
       <use x="159.033203" xlink:href="#DejaVuSans-35"/>
      </g>
     </g>
    </g>
    <g id="ytick_9">
     <g id="line2d_33">
      <path clip-path="url(#p6365b93fcc)" d="M 45.94399 6.799459 
L 706.823772 6.799459 
" style="fill:none;stroke:#b0b0b0;stroke-linecap:square;stroke-width:0.8;"/>
     </g>
     <g id="line2d_34">
      <g>
       <use style="stroke:#000000;stroke-width:0.8;" x="45.94399" xlink:href="#m7fc9ce6da5" y="6.799459"/>
      </g>
     </g>
     <g id="text_18">
      <!-- 30.0 -->
      <g transform="translate(16.678365 10.598678)scale(0.1 -0.1)">
       <defs>
        <path d="M 2597 2516 
Q 3050 2419 3304 2112 
Q 3559 1806 3559 1356 
Q 3559 666 3084 287 
Q 2609 -91 1734 -91 
Q 1441 -91 1130 -33 
Q 819 25 488 141 
L 488 750 
Q 750 597 1062 519 
Q 1375 441 1716 441 
Q 2309 441 2620 675 
Q 2931 909 2931 1356 
Q 2931 1769 2642 2001 
Q 2353 2234 1838 2234 
L 1294 2234 
L 1294 2753 
L 1863 2753 
Q 2328 2753 2575 2939 
Q 2822 3125 2822 3475 
Q 2822 3834 2567 4026 
Q 2313 4219 1838 4219 
Q 1578 4219 1281 4162 
Q 984 4106 628 3988 
L 628 4550 
Q 988 4650 1302 4700 
Q 1616 4750 1894 4750 
Q 2613 4750 3031 4423 
Q 3450 4097 3450 3541 
Q 3450 3153 3228 2886 
Q 3006 2619 2597 2516 
z
" id="DejaVuSans-33" transform="scale(0.015625)"/>
       </defs>
       <use xlink:href="#DejaVuSans-33"/>
       <use x="63.623047" xlink:href="#DejaVuSans-30"/>
       <use x="127.246094" xlink:href="#DejaVuSans-2e"/>
       <use x="159.033203" xlink:href="#DejaVuSans-30"/>
      </g>
     </g>
    </g>
    <g id="text_19">
     <!-- Load demand (MW) -->
     <g transform="translate(10.598678 215.583203)rotate(-90)scale(0.1 -0.1)">
      <defs>
       <path d="M 628 4666 
L 1259 4666 
L 1259 531 
L 3531 531 
L 3531 0 
L 628 0 
L 628 4666 
z
" id="DejaVuSans-4c" transform="scale(0.015625)"/>
       <path d="M 3328 2828 
Q 3544 3216 3844 3400 
Q 4144 3584 4550 3584 
Q 5097 3584 5394 3201 
Q 5691 2819 5691 2113 
L 5691 0 
L 5113 0 
L 5113 2094 
Q 5113 2597 4934 2840 
Q 4756 3084 4391 3084 
Q 3944 3084 3684 2787 
Q 3425 2491 3425 1978 
L 3425 0 
L 2847 0 
L 2847 2094 
Q 2847 2600 2669 2842 
Q 2491 3084 2119 3084 
Q 1678 3084 1418 2786 
Q 1159 2488 1159 1978 
L 1159 0 
L 581 0 
L 581 3500 
L 1159 3500 
L 1159 2956 
Q 1356 3278 1631 3431 
Q 1906 3584 2284 3584 
Q 2666 3584 2933 3390 
Q 3200 3197 3328 2828 
z
" id="DejaVuSans-6d" transform="scale(0.015625)"/>
       <path d="M 1984 4856 
Q 1566 4138 1362 3434 
Q 1159 2731 1159 2009 
Q 1159 1288 1364 580 
Q 1569 -128 1984 -844 
L 1484 -844 
Q 1016 -109 783 600 
Q 550 1309 550 2009 
Q 550 2706 781 3412 
Q 1013 4119 1484 4856 
L 1984 4856 
z
" id="DejaVuSans-28" transform="scale(0.015625)"/>
       <path d="M 513 4856 
L 1013 4856 
Q 1481 4119 1714 3412 
Q 1947 2706 1947 2009 
Q 1947 1309 1714 600 
Q 1481 -109 1013 -844 
L 513 -844 
Q 928 -128 1133 580 
Q 1338 1288 1338 2009 
Q 1338 2731 1133 3434 
Q 928 4138 513 4856 
z
" id="DejaVuSans-29" transform="scale(0.015625)"/>
      </defs>
      <use xlink:href="#DejaVuSans-4c"/>
      <use x="53.962891" xlink:href="#DejaVuSans-6f"/>
      <use x="115.144531" xlink:href="#DejaVuSans-61"/>
      <use x="176.423828" xlink:href="#DejaVuSans-64"/>
      <use x="239.900391" xlink:href="#DejaVuSans-20"/>
      <use x="271.6875" xlink:href="#DejaVuSans-64"/>
      <use x="335.164062" xlink:href="#DejaVuSans-65"/>
      <use x="396.6875" xlink:href="#DejaVuSans-6d"/>
      <use x="494.099609" xlink:href="#DejaVuSans-61"/>
      <use x="555.378906" xlink:href="#DejaVuSans-6e"/>
      <use x="618.757812" xlink:href="#DejaVuSans-64"/>
      <use x="682.234375" xlink:href="#DejaVuSans-20"/>
      <use x="714.021484" xlink:href="#DejaVuSans-28"/>
      <use x="753.035156" xlink:href="#DejaVuSans-4d"/>
      <use x="839.314453" xlink:href="#DejaVuSans-57"/>
      <use x="938.191406" xlink:href="#DejaVuSans-29"/>
     </g>
    </g>
   </g>
   <g id="line2d_35">
    <path clip-path="url(#p6365b93fcc)" d="M 47.899256 227.523847 
L 49.854521 243.00429 
L 51.809787 255.030432 
L 53.765053 264.593762 
L 55.720318 272.07812 
L 57.675584 275.372511 
L 59.630849 267.984115 
L 61.586115 273.773285 
L 63.541381 283.11274 
L 65.496646 291.428678 
L 67.451912 291.428678 
L 69.407178 289.317715 
L 71.362443 283.720438 
L 73.317709 276.044181 
L 75.272974 264.401862 
L 77.22824 246.938377 
L 79.183506 222.566257 
L 81.138771 189.014616 
L 83.094037 174.397734 
L 85.049303 162.595505 
L 87.004568 149.449907 
L 88.959834 139.662671 
L 90.915099 138.28735 
L 92.870365 134.960969 
L 94.825631 136.240344 
L 96.780896 141.357859 
L 98.736162 149.162053 
L 100.691428 153.639865 
L 102.646693 156.03869 
L 104.601959 157.158154 
L 106.557224 160.004758 
L 108.51249 144.972094 
L 112.423021 117.753356 
L 114.378287 116.76185 
L 116.333553 123.798412 
L 118.288818 133.329761 
L 120.244084 140.526264 
L 122.199349 148.36244 
L 124.154615 149.865704 
L 126.109881 149.961651 
L 128.065146 148.36244 
L 130.020412 136.112401 
L 131.975678 131.730549 
L 133.930943 149.449907 
L 135.886209 169.951919 
L 137.841474 197.074681 
L 139.79674 219.687648 
L 141.752006 237.982744 
L 143.707271 255.126378 
L 145.662537 265.425357 
L 147.617803 271.534378 
L 149.573068 275.436475 
L 151.528334 277.387527 
L 153.483599 267.280448 
L 155.438865 270.702791 
L 157.394131 277.355545 
L 159.349396 280.521993 
L 161.304662 274.732816 
L 163.259928 247.130277 
L 167.170459 202.831868 
L 169.125724 184.536803 
L 171.08099 159.81285 
L 173.036256 140.494267 
L 174.991521 130.802993 
L 176.946787 124.66199 
L 178.902053 120.504014 
L 180.857318 118.680913 
L 182.812584 116.441999 
L 184.76785 111.86824 
L 186.723115 116.346037 
L 188.678381 128.532112 
L 190.633646 131.090862 
L 192.588912 132.338255 
L 194.544178 136.784085 
L 196.499443 139.278871 
L 198.454709 137.743609 
L 200.409975 133.265796 
L 202.36524 119.320585 
L 204.320506 110.780773 
L 206.275771 94.244814 
L 208.231037 89.958924 
L 210.186303 89.095332 
L 212.141568 101.761168 
L 214.096834 117.785338 
L 216.0521 120.184177 
L 218.007365 125.621529 
L 219.962631 133.489686 
L 223.873162 105.727237 
L 225.828428 101.121466 
L 229.738959 151.145079 
L 231.694225 180.95455 
L 235.604756 223.365863 
L 237.560021 237.023205 
L 239.515287 248.313698 
L 241.470553 254.262801 
L 243.425818 258.932529 
L 245.381084 262.45081 
L 247.33635 251.736033 
L 249.291615 255.63813 
L 251.246881 262.962554 
L 253.202146 269.135547 
L 255.157412 259.508244 
L 257.112678 242.940326 
L 259.067943 216.777065 
L 261.023209 185.176491 
L 262.978475 167.073318 
L 264.93374 145.387877 
L 268.844271 135.280821 
L 270.799537 127.028832 
L 272.754803 126.54907 
L 274.710068 127.796463 
L 276.665334 121.367606 
L 278.6206 124.821915 
L 280.575865 126.708996 
L 282.531131 129.171784 
L 284.486396 137.263847 
L 286.441662 139.150927 
L 288.396928 148.682276 
L 290.352193 155.750835 
L 292.307459 157.573952 
L 294.262725 152.104603 
L 296.21799 138.383296 
L 298.173256 117.369555 
L 300.128521 91.526138 
L 302.083787 83.945834 
L 304.039053 84.905373 
L 305.994318 96.963489 
L 307.949584 107.870189 
L 309.90485 113.659359 
L 311.860115 114.906752 
L 313.815381 112.795766 
L 315.770647 94.500686 
L 317.725912 88.61557 
L 319.681178 104.57579 
L 321.636443 127.44463 
L 323.591709 152.80827 
L 325.546975 184.856639 
L 327.50224 203.439589 
L 331.412772 235.008189 
L 333.368037 245.531058 
L 335.323303 252.6316 
L 337.278568 255.542176 
L 339.233834 257.97299 
L 341.1891 247.8979 
L 343.144365 247.865918 
L 345.099631 254.582645 
L 347.054897 253.623113 
L 349.010162 251.160317 
L 350.965428 239.997753 
L 352.920693 215.625634 
L 354.875959 183.06552 
L 358.78649 145.707728 
L 360.741756 131.154826 
L 362.697022 114.490954 
L 364.652287 117.721389 
L 366.607553 114.299046 
L 368.562818 110.045108 
L 370.518084 104.383883 
L 372.47335 104.415865 
L 374.428615 95.716112 
L 376.383881 99.362329 
L 378.339147 105.535314 
L 380.294412 110.748775 
L 382.249678 113.243561 
L 384.204943 112.827763 
L 386.160209 118.904787 
L 388.115475 115.48246 
L 390.07074 105.407386 
L 392.026006 86.44062 
L 393.981272 71.503903 
L 395.936537 69.073096 
L 397.891803 77.772865 
L 399.847068 82.858382 
L 401.802334 96.387781 
L 403.7576 102.144969 
L 405.712865 98.818588 
L 409.623397 85.960858 
L 411.578662 84.10576 
L 415.489193 122.551035 
L 417.444459 148.266478 
L 419.399725 176.06094 
L 421.35499 197.58644 
L 423.310256 217.608675 
L 425.265522 232.609357 
L 427.220787 241.533007 
L 429.176053 249.657045 
L 431.131318 252.791518 
L 433.086584 254.198837 
L 435.04185 249.113311 
L 436.997115 247.002341 
L 438.952381 252.023895 
L 440.907647 261.619215 
L 442.862912 255.989956 
L 444.818178 237.950755 
L 446.773443 213.99444 
L 448.728709 178.3958 
L 452.63924 140.8461 
L 454.594506 129.715526 
L 456.549772 131.890475 
L 458.505037 131.250788 
L 460.460303 128.468148 
L 462.415569 125.269695 
L 464.370834 124.66199 
L 466.3261 120.472031 
L 468.281365 125.941365 
L 470.236631 132.242293 
L 472.191897 141.197934 
L 474.147162 148.490368 
L 476.102428 150.697284 
L 478.057694 153.096124 
L 480.012959 152.040654 
L 481.968225 149.801725 
L 483.92349 143.85263 
L 485.878756 132.434201 
L 487.834022 108.989639 
L 489.789287 109.277493 
L 491.744553 109.981144 
L 493.699819 120.472031 
L 495.655084 122.583002 
L 497.61035 135.696618 
L 499.565615 136.368288 
L 501.520881 135.95249 
L 503.476147 124.086282 
L 505.431412 107.58232 
L 507.386678 109.341457 
L 511.297209 159.301106 
L 513.252475 186.999592 
L 515.20774 206.126267 
L 517.163006 223.429835 
L 519.118272 244.539537 
L 521.073537 255.670112 
L 523.028803 258.932529 
L 524.984069 261.907069 
L 526.939334 262.130958 
L 528.8946 253.49517 
L 530.849865 260.819601 
L 532.805131 263.282405 
L 534.760397 265.969091 
L 536.715662 262.866607 
L 538.670928 245.722958 
L 540.626194 221.89458 
L 542.581459 190.038119 
L 544.536725 171.838984 
L 546.49199 148.554332 
L 548.447256 131.442696 
L 552.357787 118.968767 
L 554.313053 119.288618 
L 556.268319 112.891728 
L 558.223584 107.998118 
L 560.17885 108.893692 
L 562.134115 110.460906 
L 564.089381 120.919811 
L 566.044647 124.374136 
L 567.999912 130.163321 
L 569.955178 133.009925 
L 571.910444 136.144398 
L 573.865709 142.733181 
L 575.820975 146.603288 
L 577.77624 140.23841 
L 579.731506 117.657409 
L 581.686772 103.104492 
L 583.642037 102.144969 
L 585.597303 101.601243 
L 587.552569 111.708299 
L 591.4631 125.589531 
L 593.418366 127.636537 
L 595.373631 133.137853 
L 597.328897 126.133273 
L 599.284162 120.376085 
L 601.239428 126.83694 
L 603.194694 143.180975 
L 605.149959 161.891838 
L 607.105225 189.558357 
L 611.015756 225.093025 
L 612.971022 242.428575 
L 614.926287 252.471674 
L 616.881553 260.08396 
L 618.836819 265.681237 
L 620.792084 268.399905 
L 622.74735 258.964511 
L 624.702616 264.401854 
L 626.657881 272.365974 
L 628.613147 279.210636 
L 630.568412 283.400594 
L 632.523678 282.249155 
L 634.478944 275.756327 
L 636.434209 256.501707 
L 638.389475 233.44096 
L 640.344741 204.303166 
L 644.255272 161.092241 
L 646.210537 151.209059 
L 648.165803 138.639184 
L 650.121069 136.720106 
L 652.076334 136.528213 
L 654.0316 141.933583 
L 655.986866 152.872234 
L 657.942131 162.14771 
L 659.897397 170.719535 
L 661.852662 177.500226 
L 663.807928 182.84163 
L 665.763194 186.455866 
L 669.673725 187.991113 
L 671.628991 172.926467 
L 673.584256 154.247555 
L 675.539522 133.457704 
L 677.494787 124.853898 
L 679.450053 136.368288 
L 681.405319 142.477293 
L 683.360584 147.338937 
L 685.31585 138.575204 
L 687.271116 141.165936 
L 689.226381 145.483838 
L 691.181647 146.41138 
L 693.136912 138.415278 
L 695.092178 144.748204 
L 697.047444 155.430984 
L 699.002709 170.271755 
L 700.957975 192.500922 
L 702.913241 211.211801 
L 702.913241 211.211801 
" style="fill:none;stroke:#d62728;stroke-dasharray:9.25,4;stroke-dashoffset:0;stroke-width:2.5;"/>
   </g>
   <g id="line2d_36">
    <path clip-path="url(#p6365b93fcc)" d="M 47.899256 216.969141 
L 49.854521 234.731293 
L 51.809787 249.00627 
L 53.765053 259.519546 
L 55.720318 265.730461 
L 57.675584 267.827308 
L 59.630849 268.703941 
L 61.586115 272.661087 
L 63.541381 280.490995 
L 65.496646 288.794609 
L 67.451912 293.869298 
L 69.407178 294.130478 
L 71.362443 289.602107 
L 73.317709 280.356996 
L 75.272974 266.013846 
L 77.22824 246.630856 
L 81.138771 201.736943 
L 83.094037 182.022069 
L 85.049303 166.009033 
L 87.004568 153.971963 
L 88.959834 145.930078 
L 90.915099 141.435382 
L 92.870365 140.679281 
L 94.825631 144.313129 
L 96.780896 151.762774 
L 98.736162 160.860084 
L 100.691428 168.987744 
L 102.646693 174.227834 
L 104.601959 175.355031 
L 106.557224 171.167406 
L 108.51249 161.037397 
L 110.467756 147.017469 
L 112.423021 134.438458 
L 114.378287 128.67793 
L 116.333553 130.191536 
L 118.288818 135.286616 
L 122.199349 146.960978 
L 124.154615 151.740935 
L 126.109881 153.115325 
L 128.065146 148.466408 
L 130.020412 139.71201 
L 131.975678 134.950781 
L 133.930943 142.903325 
L 135.886209 164.832574 
L 137.841474 192.413303 
L 139.79674 212.747475 
L 141.752006 223.693798 
L 143.707271 242.161676 
L 145.662537 254.237133 
L 147.617803 261.130012 
L 149.573068 263.935346 
L 151.528334 263.382042 
L 153.483599 262.218989 
L 155.438865 264.404417 
L 157.394131 269.627776 
L 159.349396 272.122638 
L 161.304662 265.389959 
L 163.259928 247.643409 
L 165.215193 222.541985 
L 167.170459 195.984987 
L 169.125724 171.861373 
L 171.08099 151.171876 
L 173.036256 134.460603 
L 174.991521 122.492653 
L 176.946787 115.178927 
L 178.902053 110.658152 
L 180.857318 107.533851 
L 182.812584 105.694081 
L 184.76785 105.634051 
L 186.723115 107.583266 
L 188.678381 111.727851 
L 192.588912 123.32196 
L 194.544178 128.418962 
L 196.499443 131.131842 
L 198.454709 130.602804 
L 200.409975 124.979599 
L 202.36524 113.150009 
L 204.320506 97.140725 
L 206.275771 82.651513 
L 208.231037 75.974471 
L 210.186303 78.479902 
L 212.141568 86.907312 
L 214.096834 96.504896 
L 216.0521 104.410984 
L 218.007365 109.948293 
L 219.962631 112.180145 
L 221.917896 109.773085 
L 223.873162 104.867671 
L 225.828428 105.187705 
L 227.783693 119.101057 
L 229.738959 146.626576 
L 231.694225 178.263068 
L 233.64949 201.316586 
L 235.604756 214.584378 
L 237.560021 234.87644 
L 239.515287 246.491138 
L 241.470553 251.709389 
L 243.425818 253.168028 
L 247.33635 251.327815 
L 249.291615 254.090583 
L 251.246881 260.209807 
L 253.202146 263.812908 
L 255.157412 258.114149 
L 257.112678 241.030712 
L 262.978475 167.207789 
L 264.93374 147.735106 
L 266.889006 132.247143 
L 268.844271 121.582208 
L 270.799537 115.442318 
L 272.754803 111.909434 
L 274.710068 109.376916 
L 276.665334 107.66059 
L 278.6206 107.867917 
L 280.575865 110.618834 
L 286.441662 123.579617 
L 288.396928 127.210659 
L 290.352193 129.499917 
L 292.307459 128.438332 
L 294.262725 121.316316 
L 296.21799 107.150981 
L 298.173256 88.726096 
L 300.128521 72.375975 
L 302.083787 64.379233 
L 304.039053 66.550904 
L 305.994318 75.768517 
L 307.949584 86.971367 
L 309.90485 95.962345 
L 311.860115 100.283023 
L 313.815381 98.470857 
L 315.770647 91.048755 
L 317.725912 84.08877 
L 319.681178 87.71667 
L 321.636443 108.50277 
L 325.546975 175.868605 
L 327.50224 196.28553 
L 329.457506 214.585171 
L 331.412772 236.087474 
L 333.368037 247.664532 
L 335.323303 253.205806 
L 337.278568 255.468664 
L 339.233834 254.78333 
L 341.1891 253.105299 
L 343.144365 254.622428 
L 345.099631 259.65818 
L 347.054897 262.748272 
L 349.010162 257.097677 
L 350.965428 240.059597 
L 352.920693 214.522274 
L 354.875959 186.607693 
L 356.831225 162.144065 
L 358.78649 143.349762 
L 360.741756 129.932964 
L 362.697022 120.526418 
L 364.652287 114.175998 
L 366.607553 110.270584 
L 368.562818 107.772443 
L 370.518084 105.900401 
L 372.47335 105.08909 
L 374.428615 106.258899 
L 376.383881 109.660744 
L 382.249678 123.431007 
L 384.204943 126.453337 
L 386.160209 126.334133 
L 388.115475 120.914809 
L 390.07074 108.615416 
L 393.981272 74.417918 
L 395.936537 65.926575 
L 397.891803 67.71687 
L 399.847068 76.024495 
L 401.802334 85.600393 
L 403.7576 93.494615 
L 405.712865 97.542568 
L 407.668131 95.913784 
L 409.623397 88.946936 
L 411.578662 82.635591 
L 413.533928 86.716487 
L 415.489193 107.150005 
L 419.399725 174.025571 
L 421.35499 196.600684 
L 423.310256 214.414905 
L 425.265522 234.972798 
L 427.220787 246.298072 
L 429.176053 251.627718 
L 431.131318 253.496039 
L 433.086584 252.555046 
L 435.04185 250.729993 
L 436.997115 251.763562 
L 438.952381 256.091972 
L 440.907647 258.923797 
L 442.862912 253.802347 
L 444.818178 237.380911 
L 446.773443 211.861554 
L 448.728709 183.271307 
L 450.683975 157.205128 
L 452.63924 136.505321 
L 454.594506 122.033282 
L 456.549772 113.629298 
L 458.505037 109.770066 
L 460.460303 107.627739 
L 462.415569 104.963602 
L 464.370834 101.833384 
L 466.3261 100.153447 
L 468.281365 101.539337 
L 470.236631 106.218819 
L 472.191897 112.233464 
L 474.147162 117.734963 
L 476.102428 122.341603 
L 478.057694 125.836207 
L 480.012959 126.689367 
L 481.968225 122.136686 
L 483.92349 110.850349 
L 485.878756 95.768866 
L 487.834022 82.813604 
L 489.789287 77.020744 
L 491.744553 79.006257 
L 493.699819 85.960569 
L 495.655084 94.214418 
L 497.61035 100.761335 
L 499.565615 103.727205 
L 501.520881 102.290436 
L 503.476147 97.185625 
L 505.431412 92.921683 
L 507.386678 96.567396 
L 509.341944 112.973582 
L 511.297209 140.143196 
L 513.252475 169.837305 
L 519.118272 236.078826 
L 521.073537 248.521643 
L 523.028803 255.285694 
L 524.984069 258.457426 
L 526.939334 258.860611 
L 528.8946 258.290088 
L 530.849865 260.19149 
L 534.760397 271.075511 
L 536.715662 270.177481 
L 538.670928 259.323673 
L 540.626194 239.431592 
L 544.536725 189.991236 
L 546.49199 168.842154 
L 548.447256 152.760426 
L 550.402522 141.650151 
L 552.357787 134.136694 
L 554.313053 128.526179 
L 556.268319 124.176158 
L 558.223584 121.584953 
L 560.17885 121.659563 
L 562.134115 124.344014 
L 564.089381 129.134068 
L 567.999912 141.152164 
L 569.955178 145.957134 
L 571.910444 149.460095 
L 573.865709 150.614073 
L 575.820975 147.353974 
L 577.77624 138.491688 
L 581.686772 112.687619 
L 583.642037 105.352755 
L 585.597303 105.922973 
L 587.552569 112.612613 
L 591.4631 130.355823 
L 593.418366 135.805711 
L 595.373631 136.302722 
L 597.328897 131.953097 
L 599.284162 126.353655 
L 601.239428 126.178569 
L 603.194694 136.544121 
L 605.149959 156.867951 
L 607.105225 180.621445 
L 609.060491 198.772812 
L 611.015756 213.929607 
L 612.971022 233.967704 
L 614.926287 247.563415 
L 616.881553 255.570864 
L 618.836819 259.056423 
L 620.792084 259.189506 
L 622.74735 258.569005 
L 624.702616 260.877389 
L 626.657881 266.880459 
L 628.613147 273.58564 
L 630.568412 276.711267 
L 632.523678 273.605283 
L 634.478944 264.038415 
L 636.434209 248.678472 
L 638.389475 228.635449 
L 642.300006 182.077431 
L 644.255272 161.727124 
L 646.210537 146.36105 
L 648.165803 135.579686 
L 650.121069 128.328522 
L 652.076334 124.585748 
L 654.0316 124.902519 
L 655.986866 129.152095 
L 657.942131 136.726039 
L 659.897397 145.734281 
L 661.852662 154.07247 
L 663.807928 161.120639 
L 665.763194 167.16356 
L 667.718459 171.323641 
L 669.673725 170.378911 
L 671.628991 161.734811 
L 675.539522 134.145296 
L 677.494787 127.191259 
L 679.450053 127.667589 
L 681.405319 132.982991 
L 683.360584 139.78363 
L 685.31585 145.693773 
L 687.271116 148.380421 
L 689.226381 145.557975 
L 693.136912 129.710965 
L 695.092178 130.401974 
L 697.047444 143.806815 
L 699.002709 166.909046 
L 700.957975 191.337656 
L 702.913241 207.341327 
L 702.913241 207.341327 
" style="fill:none;stroke:#1f77b4;stroke-dasharray:2,3.3;stroke-dashoffset:0;stroke-width:2;"/>
   </g>
   <g id="line2d_37">
    <path clip-path="url(#p6365b93fcc)" d="M 47.899256 222.309432 
L 49.854521 243.393665 
L 51.809787 256.618555 
L 53.765053 264.713226 
L 55.720318 269.498643 
L 57.675584 269.771307 
L 59.630849 263.156215 
L 61.586115 266.786556 
L 63.541381 276.644176 
L 65.496646 283.684079 
L 67.451912 286.381799 
L 69.407178 282.411201 
L 71.362443 272.460532 
L 75.272974 243.031201 
L 77.22824 223.664179 
L 79.183506 206.870427 
L 81.138771 192.146862 
L 85.049303 170.686409 
L 87.004568 161.811159 
L 88.959834 155.606664 
L 90.915099 151.313531 
L 92.870365 149.442586 
L 94.825631 151.966716 
L 96.780896 159.124297 
L 98.736162 166.87168 
L 100.691428 173.714657 
L 102.646693 178.644565 
L 104.601959 178.758493 
L 106.557224 174.681562 
L 108.51249 164.967091 
L 112.423021 136.318584 
L 114.378287 131.555281 
L 116.333553 134.658992 
L 118.288818 138.488973 
L 120.244084 143.178581 
L 122.199349 147.093542 
L 124.154615 148.551938 
L 126.109881 148.574388 
L 128.065146 144.810049 
L 130.020412 137.196909 
L 131.975678 133.622632 
L 133.930943 146.485623 
L 135.886209 166.945252 
L 137.841474 193.345893 
L 139.79674 215.642974 
L 141.752006 227.995045 
L 143.707271 248.734658 
L 145.662537 259.184672 
L 147.617803 263.78573 
L 149.573068 265.581516 
L 151.528334 264.149231 
L 153.483599 256.42439 
L 155.438865 258.555477 
L 157.394131 265.758478 
L 159.349396 269.967698 
L 161.304662 264.814632 
L 163.259928 250.050713 
L 165.215193 224.744341 
L 167.170459 196.77818 
L 171.08099 149.400919 
L 173.036256 132.66317 
L 174.991521 120.586325 
L 176.946787 117.569424 
L 178.902053 114.263968 
L 180.857318 111.439662 
L 182.812584 110.682707 
L 184.76785 111.175996 
L 186.723115 113.086686 
L 188.678381 118.83126 
L 192.588912 133.327 
L 194.544178 138.931323 
L 196.499443 143.761579 
L 198.454709 145.236965 
L 200.409975 142.466587 
L 202.36524 131.968684 
L 206.275771 103.050076 
L 208.231037 99.443558 
L 210.186303 102.99151 
L 214.096834 118.537031 
L 216.0521 123.78978 
L 218.007365 125.482009 
L 219.962631 126.141356 
L 221.917896 123.855544 
L 223.873162 117.518912 
L 225.828428 114.424107 
L 227.783693 129.515382 
L 229.738959 151.988067 
L 231.694225 180.273043 
L 233.64949 203.481668 
L 235.604756 220.771059 
L 237.560021 240.051422 
L 239.515287 249.50595 
L 241.470553 253.973345 
L 243.425818 256.902886 
L 245.381084 257.308999 
L 247.33635 250.009915 
L 249.291615 251.675882 
L 251.246881 257.74711 
L 253.202146 260.043414 
L 255.157412 252.291136 
L 257.112678 232.184287 
L 259.067943 205.537764 
L 261.023209 176.794332 
L 264.93374 132.990525 
L 266.889006 116.651506 
L 268.844271 106.819661 
L 272.754803 101.182212 
L 276.665334 96.759075 
L 278.6206 95.37407 
L 280.575865 96.689346 
L 282.531131 101.349062 
L 284.486396 105.210033 
L 286.441662 109.357059 
L 288.396928 112.82967 
L 290.352193 115.047888 
L 292.307459 113.63427 
L 294.262725 106.935083 
L 296.21799 92.950355 
L 300.128521 61.206128 
L 302.083787 57.42483 
L 304.039053 61.33064 
L 305.994318 71.808472 
L 307.949584 83.809274 
L 309.90485 92.255503 
L 311.860115 96.832679 
L 313.815381 99.272803 
L 315.770647 94.10473 
L 317.725912 87.132239 
L 319.681178 88.015597 
L 321.636443 110.085525 
L 323.591709 138.087527 
L 325.546975 170.288044 
L 327.50224 195.773847 
L 329.457506 232.624578 
L 331.412772 249.127228 
L 333.368037 256.500312 
L 335.323303 261.551926 
L 337.278568 264.976495 
L 339.233834 264.479545 
L 341.1891 255.708309 
L 343.144365 257.368449 
L 345.099631 263.835572 
L 347.054897 266.662379 
L 349.010162 259.573779 
L 350.965428 242.69497 
L 352.920693 219.516299 
L 354.875959 192.452987 
L 358.78649 151.2352 
L 360.741756 139.405701 
L 362.697022 130.767488 
L 364.652287 125.810584 
L 366.607553 122.348893 
L 368.562818 119.997379 
L 370.518084 117.096449 
L 372.47335 116.489385 
L 374.428615 117.638574 
L 376.383881 121.873234 
L 378.339147 127.198732 
L 380.294412 132.00849 
L 382.249678 138.370897 
L 384.204943 142.413573 
L 386.160209 141.873462 
L 388.115475 137.024904 
L 390.07074 126.127386 
L 392.026006 109.47422 
L 393.981272 91.704564 
L 395.936537 85.719353 
L 397.891803 89.789268 
L 401.802334 111.259269 
L 403.7576 118.952295 
L 405.712865 123.844838 
L 407.668131 124.517209 
L 409.623397 117.093857 
L 411.578662 109.157114 
L 413.533928 110.523421 
L 415.489193 130.246349 
L 417.444459 156.651931 
L 419.399725 187.662385 
L 421.35499 211.198761 
L 423.310256 219.93501 
L 425.265522 235.92645 
L 427.220787 243.087296 
L 429.176053 247.726544 
L 431.131318 250.483866 
L 433.086584 250.860788 
L 435.04185 243.908429 
L 436.997115 245.305666 
L 438.952381 250.844957 
L 440.907647 253.347735 
L 442.862912 249.068663 
L 444.818178 234.345068 
L 446.773443 209.993477 
L 448.728709 182.274661 
L 452.63924 139.027742 
L 454.594506 123.055031 
L 456.549772 111.777693 
L 458.505037 108.295931 
L 460.460303 105.636888 
L 462.415569 103.245842 
L 464.370834 100.290252 
L 466.3261 100.369284 
L 468.281365 100.172237 
L 470.236631 105.266585 
L 472.191897 112.574972 
L 476.102428 121.314181 
L 478.057694 123.393184 
L 480.012959 124.158558 
L 481.968225 120.514613 
L 483.92349 109.630943 
L 487.834022 77.561161 
L 489.789287 73.171211 
L 491.744553 75.837117 
L 493.699819 82.803234 
L 495.655084 91.419394 
L 497.61035 96.948467 
L 499.565615 99.275335 
L 501.520881 99.674158 
L 503.476147 95.486747 
L 505.431412 91.941539 
L 507.386678 97.7211 
L 509.341944 116.1117 
L 511.297209 140.64707 
L 513.252475 169.379033 
L 515.20774 193.68856 
L 517.163006 220.502299 
L 519.118272 237.246378 
L 521.073537 246.729654 
L 523.028803 253.413895 
L 524.984069 256.973805 
L 526.939334 258.051283 
L 528.8946 252.532276 
L 530.849865 253.553506 
L 532.805131 259.576509 
L 534.760397 264.970455 
L 536.715662 263.087096 
L 538.670928 250.922404 
L 540.626194 230.636793 
L 542.581459 203.508144 
L 546.49199 162.696774 
L 548.447256 148.14552 
L 550.402522 138.977565 
L 552.357787 133.532893 
L 554.313053 129.450106 
L 556.268319 126.286061 
L 558.223584 125.019497 
L 560.17885 125.529136 
L 562.134115 128.38239 
L 564.089381 134.301623 
L 566.044647 143.269845 
L 567.999912 150.303159 
L 569.955178 155.557189 
L 571.910444 159.737829 
L 573.865709 161.980388 
L 575.820975 159.812256 
L 577.77624 151.770187 
L 579.731506 138.306231 
L 581.686772 121.906086 
L 583.642037 116.503263 
L 585.597303 117.102764 
L 587.552569 124.518886 
L 589.507834 134.038079 
L 591.4631 145.365961 
L 593.418366 151.9755 
L 595.373631 154.344096 
L 597.328897 150.819204 
L 599.284162 141.948102 
L 601.239428 139.760509 
L 603.194694 148.647411 
L 605.149959 162.745152 
L 609.060491 203.189299 
L 611.015756 217.974998 
L 612.971022 240.152966 
L 614.926287 254.539964 
L 616.881553 263.67345 
L 618.836819 268.44633 
L 620.792084 268.042169 
L 622.74735 259.771986 
L 624.702616 259.864852 
L 626.657881 263.732595 
L 628.613147 268.85162 
L 630.568412 270.909149 
L 632.523678 266.861867 
L 634.478944 259.372812 
L 638.389475 232.327802 
L 644.255272 170.129735 
L 646.210537 154.832567 
L 648.165803 142.583839 
L 650.121069 133.063762 
L 652.076334 127.881169 
L 654.0316 128.619579 
L 655.986866 130.797807 
L 657.942131 137.914058 
L 661.852662 153.414679 
L 663.807928 160.283705 
L 665.763194 166.572753 
L 667.718459 171.701234 
L 669.673725 173.466456 
L 671.628991 166.781239 
L 675.539522 141.18709 
L 677.494787 138.642036 
L 679.450053 141.567489 
L 685.31585 167.012053 
L 687.271116 171.779443 
L 689.226381 173.080139 
L 691.181647 165.384795 
L 693.136912 154.210281 
L 695.092178 151.871059 
L 697.047444 161.244297 
L 699.002709 175.202884 
L 700.957975 195.268997 
L 702.913241 213.035939 
L 702.913241 213.035939 
" style="fill:none;stroke:#2ca02c;stroke-dasharray:9.6,2.4,1.5,2.4;stroke-dashoffset:0;stroke-width:1.5;"/>
   </g>
   <g id="line2d_38">
    <path clip-path="url(#p6365b93fcc)" d="M 47.899256 226.817122 
L 49.854521 246.471251 
L 51.809787 259.563927 
L 53.765053 266.872757 
L 55.720318 270.015694 
L 57.675584 268.689467 
L 59.630849 262.096307 
L 61.586115 265.318583 
L 63.541381 273.77648 
L 65.496646 278.541109 
L 67.451912 278.71775 
L 69.407178 273.079783 
L 71.362443 262.696555 
L 73.317709 248.789838 
L 75.272974 233.306756 
L 77.22824 212.662769 
L 79.183506 193.827195 
L 81.138771 178.055253 
L 83.094037 167.948303 
L 85.049303 158.743288 
L 87.004568 151.443899 
L 88.959834 146.49087 
L 90.915099 142.829996 
L 92.870365 141.226652 
L 94.825631 144.231351 
L 96.780896 152.311335 
L 98.736162 161.525653 
L 100.691428 169.907583 
L 102.646693 176.237627 
L 104.601959 177.343625 
L 106.557224 173.190376 
L 108.51249 162.071591 
L 112.423021 130.575107 
L 114.378287 125.14834 
L 116.333553 128.784842 
L 118.288818 133.80211 
L 122.199349 148.70439 
L 124.154615 153.178436 
L 126.109881 154.696372 
L 128.065146 150.372766 
L 130.020412 141.858271 
L 131.975678 138.228724 
L 133.930943 150.958235 
L 135.886209 172.690528 
L 137.841474 200.549046 
L 139.79674 223.641851 
L 141.752006 236.583661 
L 143.707271 252.248936 
L 145.662537 260.712369 
L 147.617803 264.269305 
L 149.573068 265.286113 
L 151.528334 263.300158 
L 153.483599 255.89979 
L 155.438865 257.295365 
L 157.394131 261.9378 
L 159.349396 261.945777 
L 161.304662 251.920147 
L 163.259928 233.422132 
L 167.170459 181.618701 
L 169.125724 162.747592 
L 171.08099 145.42297 
L 173.036256 133.438488 
L 174.991521 123.704312 
L 176.946787 120.628632 
L 178.902053 116.137963 
L 180.857318 112.099222 
L 182.812584 109.905711 
L 184.76785 109.071859 
L 186.723115 109.517198 
L 188.678381 112.66218 
L 190.633646 116.899158 
L 192.588912 121.60661 
L 194.544178 125.166825 
L 196.499443 127.745097 
L 198.454709 127.422469 
L 200.409975 123.717916 
L 202.36524 113.183989 
L 204.320506 99.641398 
L 206.275771 88.008551 
L 208.231037 88.474053 
L 210.186303 95.890572 
L 212.141568 106.185998 
L 214.096834 115.673712 
L 216.0521 121.39968 
L 218.007365 123.160021 
L 219.962631 123.330348 
L 221.917896 119.079918 
L 223.873162 111.275435 
L 225.828428 107.554624 
L 227.783693 122.245581 
L 229.738959 145.030522 
L 231.694225 175.186016 
L 233.64949 203.002196 
L 235.604756 229.124774 
L 237.560021 246.737524 
L 239.515287 255.023249 
L 241.470553 258.119929 
L 243.425818 259.871227 
L 245.381084 259.838406 
L 247.33635 253.882036 
L 249.291615 257.05055 
L 251.246881 264.189251 
L 253.202146 266.73069 
L 255.157412 258.855914 
L 257.112678 239.661537 
L 261.023209 190.646648 
L 264.93374 157.422979 
L 266.889006 145.188191 
L 268.844271 137.427265 
L 270.799537 134.59878 
L 272.754803 131.474571 
L 274.710068 129.626656 
L 276.665334 128.580047 
L 278.6206 129.19364 
L 280.575865 133.158076 
L 282.531131 139.447307 
L 286.441662 147.426815 
L 288.396928 150.306209 
L 290.352193 151.47733 
L 292.307459 148.468421 
L 294.262725 140.258618 
L 296.21799 125.715416 
L 300.128521 91.8281 
L 302.083787 86.212307 
L 304.039053 87.508032 
L 305.994318 95.072489 
L 307.949584 104.385942 
L 309.90485 110.470408 
L 311.860115 112.782879 
L 313.815381 113.035014 
L 317.725912 99.310718 
L 319.681178 101.437123 
L 321.636443 124.309607 
L 323.591709 152.275616 
L 325.546975 184.303854 
L 327.50224 211.124212 
L 331.412772 241.601494 
L 333.368037 249.025395 
L 335.323303 254.456737 
L 337.278568 257.796509 
L 339.233834 257.230638 
L 341.1891 249.455224 
L 343.144365 251.600555 
L 345.099631 257.832792 
L 347.054897 259.957702 
L 349.010162 252.108151 
L 350.965428 234.611372 
L 352.920693 210.771479 
L 354.875959 183.469056 
L 358.78649 143.09177 
L 360.741756 131.912742 
L 362.697022 124.033314 
L 364.652287 119.791119 
L 366.607553 117.303441 
L 368.562818 116.297462 
L 370.518084 114.678988 
L 372.47335 115.018819 
L 374.428615 117.117801 
L 378.339147 126.48384 
L 380.294412 129.985795 
L 382.249678 134.254404 
L 384.204943 135.856041 
L 386.160209 132.785699 
L 388.115475 125.485365 
L 390.07074 112.753139 
L 393.981272 76.545878 
L 395.936537 70.544105 
L 397.891803 73.973188 
L 401.802334 91.717466 
L 403.7576 97.81334 
L 405.712865 101.473787 
L 407.668131 101.400245 
L 409.623397 94.44935 
L 411.578662 88.273955 
L 413.533928 91.551288 
L 415.489193 112.417243 
L 417.444459 138.653932 
L 419.399725 168.376988 
L 421.35499 191.661473 
L 423.310256 212.423505 
L 425.265522 227.678823 
L 427.220787 235.696155 
L 429.176053 241.113908 
L 431.131318 243.719403 
L 433.086584 243.590804 
L 435.04185 237.169252 
L 436.997115 238.693045 
L 438.952381 243.630305 
L 440.907647 245.362035 
L 442.862912 240.459777 
L 444.818178 225.857812 
L 446.773443 202.475566 
L 448.728709 176.71411 
L 450.683975 156.551333 
L 452.63924 138.153626 
L 454.594506 125.148188 
L 456.549772 117.145315 
L 458.505037 115.849743 
L 460.460303 115.003049 
L 462.415569 114.404342 
L 464.370834 113.004145 
L 466.3261 113.77928 
L 468.281365 113.912699 
L 470.236631 119.208579 
L 472.191897 126.169784 
L 476.102428 133.14923 
L 478.057694 134.413751 
L 480.012959 134.422413 
L 481.968225 130.155542 
L 483.92349 118.743626 
L 487.834022 84.655022 
L 489.789287 78.110148 
L 491.744553 78.161118 
L 493.699819 82.992625 
L 495.655084 89.420765 
L 497.61035 92.782621 
L 499.565615 92.598811 
L 501.520881 90.903441 
L 503.476147 87.002755 
L 505.431412 86.41027 
L 507.386678 96.271703 
L 509.341944 118.479503 
L 513.252475 173.030237 
L 517.163006 215.65667 
L 519.118272 233.696687 
L 521.073537 245.481179 
L 523.028803 253.379397 
L 524.984069 256.746773 
L 526.939334 257.220511 
L 528.8946 252.129335 
L 530.849865 253.467458 
L 532.805131 259.417331 
L 534.760397 264.124021 
L 536.715662 261.611101 
L 538.670928 248.920267 
L 540.626194 228.433338 
L 542.581459 201.208881 
L 546.49199 158.166085 
L 548.447256 143.093265 
L 550.402522 134.355673 
L 552.357787 129.964748 
L 554.313053 126.533865 
L 556.268319 123.792586 
L 558.223584 123.116707 
L 560.17885 124.223864 
L 562.134115 127.814429 
L 564.089381 133.760383 
L 566.044647 142.630173 
L 567.999912 149.332044 
L 569.955178 154.206804 
L 571.910444 158.247528 
L 573.865709 160.126952 
L 575.820975 158.16209 
L 577.77624 150.539067 
L 579.731506 136.806932 
L 581.686772 120.306066 
L 583.642037 113.912455 
L 585.597303 112.584428 
L 587.552569 117.810701 
L 591.4631 132.011113 
L 593.418366 133.450445 
L 595.373631 130.65414 
L 597.328897 124.598407 
L 599.284162 116.207235 
L 601.239428 117.426031 
L 603.194694 132.06126 
L 605.149959 152.476294 
L 607.105225 176.51633 
L 609.060491 195.920718 
L 612.971022 238.901242 
L 614.926287 253.151511 
L 616.881553 262.072119 
L 618.836819 266.312315 
L 620.792084 265.972271 
L 622.74735 259.49769 
L 624.702616 261.410637 
L 626.657881 266.495896 
L 628.613147 271.936968 
L 630.568412 273.286286 
L 632.523678 267.862844 
L 634.478944 258.345969 
L 636.434209 242.071906 
L 638.389475 224.31834 
L 642.300006 177.79903 
L 644.255272 158.932374 
L 646.210537 147.478029 
L 648.165803 140.238669 
L 650.121069 135.455082 
L 652.076334 133.898682 
L 654.0316 137.079443 
L 655.986866 140.90982 
L 659.897397 156.481238 
L 661.852662 163.450801 
L 663.807928 169.049573 
L 665.763194 173.661704 
L 667.718459 176.936902 
L 669.673725 177.271272 
L 671.628991 169.330472 
L 673.584256 156.388388 
L 675.539522 144.422085 
L 677.494787 142.069838 
L 679.450053 144.945145 
L 681.405319 152.56951 
L 685.31585 165.739724 
L 687.271116 168.655173 
L 689.226381 167.75214 
L 691.181647 159.318905 
L 693.136912 149.14854 
L 695.092178 148.240414 
L 697.047444 158.836047 
L 699.002709 173.105518 
L 702.913241 211.859571 
L 702.913241 211.859571 
" style="fill:none;stroke:#000000;stroke-linecap:square;"/>
   </g>
   <g id="patch_3">
    <path d="M 45.94399 326.64351 
L 45.94399 6.799459 
" style="fill:none;stroke:#000000;stroke-linecap:square;stroke-linejoin:miter;stroke-width:0.8;"/>
   </g>
   <g id="patch_4">
    <path d="M 706.823772 326.64351 
L 706.823772 6.799459 
" style="fill:none;stroke:#000000;stroke-linecap:square;stroke-linejoin:miter;stroke-width:0.8;"/>
   </g>
   <g id="patch_5">
    <path d="M 45.94399 326.64351 
L 706.823772 326.64351 
" style="fill:none;stroke:#000000;stroke-linecap:square;stroke-linejoin:miter;stroke-width:0.8;"/>
   </g>
   <g id="patch_6">
    <path d="M 45.94399 6.799459 
L 706.823772 6.799459 
" style="fill:none;stroke:#000000;stroke-linecap:square;stroke-linejoin:miter;stroke-width:0.8;"/>
   </g>
   <g id="legend_1">
    <g id="patch_7">
     <path d="M 85.7331 29.477584 
L 667.034662 29.477584 
L 667.034662 11.799459 
L 85.7331 11.799459 
z
" style="fill:#ffffff;opacity:0.95;stroke:#000000;stroke-linejoin:miter;"/>
    </g>
    <g id="line2d_39">
     <path d="M 89.7331 19.897896 
L 109.7331 19.897896 
" style="fill:none;stroke:#d62728;stroke-dasharray:9.25,4;stroke-dashoffset:0;stroke-width:2.5;"/>
    </g>
    <g id="line2d_40"/>
    <g id="text_20">
     <!-- Actual demand -->
     <g transform="translate(117.7331 23.397896)scale(0.1 -0.1)">
      <defs>
       <path d="M 2188 4044 
L 1331 1722 
L 3047 1722 
L 2188 4044 
z
M 1831 4666 
L 2547 4666 
L 4325 0 
L 3669 0 
L 3244 1197 
L 1141 1197 
L 716 0 
L 50 0 
L 1831 4666 
z
" id="DejaVuSans-41" transform="scale(0.015625)"/>
       <path d="M 3122 3366 
L 3122 2828 
Q 2878 2963 2633 3030 
Q 2388 3097 2138 3097 
Q 1578 3097 1268 2742 
Q 959 2388 959 1747 
Q 959 1106 1268 751 
Q 1578 397 2138 397 
Q 2388 397 2633 464 
Q 2878 531 3122 666 
L 3122 134 
Q 2881 22 2623 -34 
Q 2366 -91 2075 -91 
Q 1284 -91 818 406 
Q 353 903 353 1747 
Q 353 2603 823 3093 
Q 1294 3584 2113 3584 
Q 2378 3584 2631 3529 
Q 2884 3475 3122 3366 
z
" id="DejaVuSans-63" transform="scale(0.015625)"/>
       <path d="M 603 4863 
L 1178 4863 
L 1178 0 
L 603 0 
L 603 4863 
z
" id="DejaVuSans-6c" transform="scale(0.015625)"/>
      </defs>
      <use xlink:href="#DejaVuSans-41"/>
      <use x="66.658203" xlink:href="#DejaVuSans-63"/>
      <use x="121.638672" xlink:href="#DejaVuSans-74"/>
      <use x="160.847656" xlink:href="#DejaVuSans-75"/>
      <use x="224.226562" xlink:href="#DejaVuSans-61"/>
      <use x="285.505859" xlink:href="#DejaVuSans-6c"/>
      <use x="313.289062" xlink:href="#DejaVuSans-20"/>
      <use x="345.076172" xlink:href="#DejaVuSans-64"/>
      <use x="408.552734" xlink:href="#DejaVuSans-65"/>
      <use x="470.076172" xlink:href="#DejaVuSans-6d"/>
      <use x="567.488281" xlink:href="#DejaVuSans-61"/>
      <use x="628.767578" xlink:href="#DejaVuSans-6e"/>
      <use x="692.146484" xlink:href="#DejaVuSans-64"/>
     </g>
    </g>
    <g id="line2d_41">
     <path d="M 213.2956 19.897896 
L 233.2956 19.897896 
" style="fill:none;stroke:#1f77b4;stroke-dasharray:2,3.3;stroke-dashoffset:0;stroke-width:2;"/>
    </g>
    <g id="line2d_42"/>
    <g id="text_21">
     <!-- Forecasted demand 1 -->
     <g transform="translate(241.2956 23.397896)scale(0.1 -0.1)">
      <defs>
       <path d="M 2834 3397 
L 2834 2853 
Q 2591 2978 2328 3040 
Q 2066 3103 1784 3103 
Q 1356 3103 1142 2972 
Q 928 2841 928 2578 
Q 928 2378 1081 2264 
Q 1234 2150 1697 2047 
L 1894 2003 
Q 2506 1872 2764 1633 
Q 3022 1394 3022 966 
Q 3022 478 2636 193 
Q 2250 -91 1575 -91 
Q 1294 -91 989 -36 
Q 684 19 347 128 
L 347 722 
Q 666 556 975 473 
Q 1284 391 1588 391 
Q 1994 391 2212 530 
Q 2431 669 2431 922 
Q 2431 1156 2273 1281 
Q 2116 1406 1581 1522 
L 1381 1569 
Q 847 1681 609 1914 
Q 372 2147 372 2553 
Q 372 3047 722 3315 
Q 1072 3584 1716 3584 
Q 2034 3584 2315 3537 
Q 2597 3491 2834 3397 
z
" id="DejaVuSans-73" transform="scale(0.015625)"/>
      </defs>
      <use xlink:href="#DejaVuSans-46"/>
      <use x="53.894531" xlink:href="#DejaVuSans-6f"/>
      <use x="115.076172" xlink:href="#DejaVuSans-72"/>
      <use x="153.939453" xlink:href="#DejaVuSans-65"/>
      <use x="215.462891" xlink:href="#DejaVuSans-63"/>
      <use x="270.443359" xlink:href="#DejaVuSans-61"/>
      <use x="331.722656" xlink:href="#DejaVuSans-73"/>
      <use x="383.822266" xlink:href="#DejaVuSans-74"/>
      <use x="423.03125" xlink:href="#DejaVuSans-65"/>
      <use x="484.554688" xlink:href="#DejaVuSans-64"/>
      <use x="548.03125" xlink:href="#DejaVuSans-20"/>
      <use x="579.818359" xlink:href="#DejaVuSans-64"/>
      <use x="643.294922" xlink:href="#DejaVuSans-65"/>
      <use x="704.818359" xlink:href="#DejaVuSans-6d"/>
      <use x="802.230469" xlink:href="#DejaVuSans-61"/>
      <use x="863.509766" xlink:href="#DejaVuSans-6e"/>
      <use x="926.888672" xlink:href="#DejaVuSans-64"/>
      <use x="990.365234" xlink:href="#DejaVuSans-20"/>
      <use x="1022.152344" xlink:href="#DejaVuSans-31"/>
     </g>
    </g>
    <g id="line2d_43">
     <path d="M 369.875287 19.897896 
L 389.875287 19.897896 
" style="fill:none;stroke:#2ca02c;stroke-dasharray:9.6,2.4,1.5,2.4;stroke-dashoffset:0;stroke-width:1.5;"/>
    </g>
    <g id="line2d_44"/>
    <g id="text_22">
     <!-- Forecasted demand 2 -->
     <g transform="translate(397.875287 23.397896)scale(0.1 -0.1)">
      <use xlink:href="#DejaVuSans-46"/>
      <use x="53.894531" xlink:href="#DejaVuSans-6f"/>
      <use x="115.076172" xlink:href="#DejaVuSans-72"/>
      <use x="153.939453" xlink:href="#DejaVuSans-65"/>
      <use x="215.462891" xlink:href="#DejaVuSans-63"/>
      <use x="270.443359" xlink:href="#DejaVuSans-61"/>
      <use x="331.722656" xlink:href="#DejaVuSans-73"/>
      <use x="383.822266" xlink:href="#DejaVuSans-74"/>
      <use x="423.03125" xlink:href="#DejaVuSans-65"/>
      <use x="484.554688" xlink:href="#DejaVuSans-64"/>
      <use x="548.03125" xlink:href="#DejaVuSans-20"/>
      <use x="579.818359" xlink:href="#DejaVuSans-64"/>
      <use x="643.294922" xlink:href="#DejaVuSans-65"/>
      <use x="704.818359" xlink:href="#DejaVuSans-6d"/>
      <use x="802.230469" xlink:href="#DejaVuSans-61"/>
      <use x="863.509766" xlink:href="#DejaVuSans-6e"/>
      <use x="926.888672" xlink:href="#DejaVuSans-64"/>
      <use x="990.365234" xlink:href="#DejaVuSans-20"/>
      <use x="1022.152344" xlink:href="#DejaVuSans-32"/>
     </g>
    </g>
    <g id="line2d_45">
     <path d="M 526.454975 19.897896 
L 546.454975 19.897896 
" style="fill:none;stroke:#000000;stroke-linecap:square;"/>
    </g>
    <g id="line2d_46"/>
    <g id="text_23">
     <!-- Forecasted demand 3 -->
     <g transform="translate(554.454975 23.397896)scale(0.1 -0.1)">
      <use xlink:href="#DejaVuSans-46"/>
      <use x="53.894531" xlink:href="#DejaVuSans-6f"/>
      <use x="115.076172" xlink:href="#DejaVuSans-72"/>
      <use x="153.939453" xlink:href="#DejaVuSans-65"/>
      <use x="215.462891" xlink:href="#DejaVuSans-63"/>
      <use x="270.443359" xlink:href="#DejaVuSans-61"/>
      <use x="331.722656" xlink:href="#DejaVuSans-73"/>
      <use x="383.822266" xlink:href="#DejaVuSans-74"/>
      <use x="423.03125" xlink:href="#DejaVuSans-65"/>
      <use x="484.554688" xlink:href="#DejaVuSans-64"/>
      <use x="548.03125" xlink:href="#DejaVuSans-20"/>
      <use x="579.818359" xlink:href="#DejaVuSans-64"/>
      <use x="643.294922" xlink:href="#DejaVuSans-65"/>
      <use x="704.818359" xlink:href="#DejaVuSans-6d"/>
      <use x="802.230469" xlink:href="#DejaVuSans-61"/>
      <use x="863.509766" xlink:href="#DejaVuSans-6e"/>
      <use x="926.888672" xlink:href="#DejaVuSans-64"/>
      <use x="990.365234" xlink:href="#DejaVuSans-20"/>
      <use x="1022.152344" xlink:href="#DejaVuSans-33"/>
     </g>
    </g>
   </g>
  </g>
 </g>
 <defs>
  <clipPath id="p6365b93fcc">
   <rect height="319.844051" width="660.879782" x="45.94399" y="6.799459"/>
  </clipPath>
 </defs>
</svg>
