<?xml version="1.0" encoding="utf-8" standalone="no"?>
<!DOCTYPE svg PUBLIC "-//W3C//DTD SVG 1.1//EN"
  "http://www.w3.org/Graphics/SVG/1.1/DTD/svg11.dtd">
<svg height="360pt" version="1.1" viewBox="0 0 720 360" width="720pt" xmlns="http://www.w3.org/2000/svg" xmlns:xlink="http://www.w3.org/1999/xlink">
 <metadata>
  <rdf:RDF xmlns:cc="http://creativecommons.org/ns#" xmlns:dc="http://purl.org/dc/elements/1.1/" xmlns:rdf="http://www.w3.org/1999/02/22-rdf-syntax-ns#">
   <cc:Work>
    <dc:type rdf:resource="http://purl.org/dc/dcmitype/StillImage"/>
    <dc:date>2022-04-11T20:52:23.040951</dc:date>
    <dc:format>image/svg+xml</dc:format>
    <dc:creator>
     <cc:Agent>
      <dc:title>Matplotlib v3.4.3, https://matplotlib.org/</dc:title>
     </cc:Agent>
    </dc:creator>
   </cc:Work>
  </rdf:RDF>
 </metadata>
 <defs>
  <style type="text/css">*{stroke-linecap:butt;stroke-linejoin:round;}</style>
 </defs>
 <g id="figure_1">
  <g id="patch_1">
   <path d="M 0 360 
L 720 360 
L 720 0 
L 0 0 
z
" style="fill:#ffffff;"/>
  </g>
  <g id="axes_1">
   <g id="patch_2">
    <path d="M 54.323678 326.64351 
L 706.798906 326.64351 
L 706.798906 3.00024 
L 54.323678 3.00024 
z
" style="fill:#ffffff;"/>
   </g>
   <g id="matplotlib.axis_1">
    <g id="xtick_1">
     <g id="line2d_1">
      <path clip-path="url(#p7928fb963e)" d="M 56.254078 326.64351 
L 56.254078 3.00024 
" style="fill:none;stroke:#b0b0b0;stroke-linecap:square;stroke-width:0.8;"/>
     </g>
     <g id="line2d_2">
      <defs>
       <path d="M 0 0 
L 0 3.5 
" id="mccd2eb26df" style="stroke:#000000;stroke-width:0.8;"/>
      </defs>
      <g>
       <use style="stroke:#000000;stroke-width:0.8;" x="56.254078" xlink:href="#mccd2eb26df" y="326.64351"/>
      </g>
     </g>
     <g id="text_1">
      <!-- Mon. -->
      <g transform="translate(44.122828 341.241947)scale(0.1 -0.1)">
       <defs>
        <path d="M 628 4666 
L 1569 4666 
L 2759 1491 
L 3956 4666 
L 4897 4666 
L 4897 0 
L 4281 0 
L 4281 4097 
L 3078 897 
L 2444 897 
L 1241 4097 
L 1241 0 
L 628 0 
L 628 4666 
z
" id="DejaVuSans-4d" transform="scale(0.015625)"/>
        <path d="M 1959 3097 
Q 1497 3097 1228 2736 
Q 959 2375 959 1747 
Q 959 1119 1226 758 
Q 1494 397 1959 397 
Q 2419 397 2687 759 
Q 2956 1122 2956 1747 
Q 2956 2369 2687 2733 
Q 2419 3097 1959 3097 
z
M 1959 3584 
Q 2709 3584 3137 3096 
Q 3566 2609 3566 1747 
Q 3566 888 3137 398 
Q 2709 -91 1959 -91 
Q 1206 -91 779 398 
Q 353 888 353 1747 
Q 353 2609 779 3096 
Q 1206 3584 1959 3584 
z
" id="DejaVuSans-6f" transform="scale(0.015625)"/>
        <path d="M 3513 2113 
L 3513 0 
L 2938 0 
L 2938 2094 
Q 2938 2591 2744 2837 
Q 2550 3084 2163 3084 
Q 1697 3084 1428 2787 
Q 1159 2491 1159 1978 
L 1159 0 
L 581 0 
L 581 3500 
L 1159 3500 
L 1159 2956 
Q 1366 3272 1645 3428 
Q 1925 3584 2291 3584 
Q 2894 3584 3203 3211 
Q 3513 2838 3513 2113 
z
" id="DejaVuSans-6e" transform="scale(0.015625)"/>
        <path d="M 684 794 
L 1344 794 
L 1344 0 
L 684 0 
L 684 794 
z
" id="DejaVuSans-2e" transform="scale(0.015625)"/>
       </defs>
       <use xlink:href="#DejaVuSans-4d"/>
       <use x="86.279297" xlink:href="#DejaVuSans-6f"/>
       <use x="147.460938" xlink:href="#DejaVuSans-6e"/>
       <use x="210.839844" xlink:href="#DejaVuSans-2e"/>
      </g>
     </g>
    </g>
    <g id="xtick_2">
     <g id="line2d_3">
      <path clip-path="url(#p7928fb963e)" d="M 148.913282 326.64351 
L 148.913282 3.00024 
" style="fill:none;stroke:#b0b0b0;stroke-linecap:square;stroke-width:0.8;"/>
     </g>
     <g id="line2d_4">
      <g>
       <use style="stroke:#000000;stroke-width:0.8;" x="148.913282" xlink:href="#mccd2eb26df" y="326.64351"/>
      </g>
     </g>
     <g id="text_2">
      <!-- Tue. -->
      <g transform="translate(138.78125 341.241947)scale(0.1 -0.1)">
       <defs>
        <path d="M -19 4666 
L 3928 4666 
L 3928 4134 
L 2272 4134 
L 2272 0 
L 1638 0 
L 1638 4134 
L -19 4134 
L -19 4666 
z
" id="DejaVuSans-54" transform="scale(0.015625)"/>
        <path d="M 544 1381 
L 544 3500 
L 1119 3500 
L 1119 1403 
Q 1119 906 1312 657 
Q 1506 409 1894 409 
Q 2359 409 2629 706 
Q 2900 1003 2900 1516 
L 2900 3500 
L 3475 3500 
L 3475 0 
L 2900 0 
L 2900 538 
Q 2691 219 2414 64 
Q 2138 -91 1772 -91 
Q 1169 -91 856 284 
Q 544 659 544 1381 
z
M 1991 3584 
L 1991 3584 
z
" id="DejaVuSans-75" transform="scale(0.015625)"/>
        <path d="M 3597 1894 
L 3597 1613 
L 953 1613 
Q 991 1019 1311 708 
Q 1631 397 2203 397 
Q 2534 397 2845 478 
Q 3156 559 3463 722 
L 3463 178 
Q 3153 47 2828 -22 
Q 2503 -91 2169 -91 
Q 1331 -91 842 396 
Q 353 884 353 1716 
Q 353 2575 817 3079 
Q 1281 3584 2069 3584 
Q 2775 3584 3186 3129 
Q 3597 2675 3597 1894 
z
M 3022 2063 
Q 3016 2534 2758 2815 
Q 2500 3097 2075 3097 
Q 1594 3097 1305 2825 
Q 1016 2553 972 2059 
L 3022 2063 
z
" id="DejaVuSans-65" transform="scale(0.015625)"/>
       </defs>
       <use xlink:href="#DejaVuSans-54"/>
       <use x="45.958984" xlink:href="#DejaVuSans-75"/>
       <use x="109.337891" xlink:href="#DejaVuSans-65"/>
       <use x="170.861328" xlink:href="#DejaVuSans-2e"/>
      </g>
     </g>
    </g>
    <g id="xtick_3">
     <g id="line2d_5">
      <path clip-path="url(#p7928fb963e)" d="M 241.572486 326.64351 
L 241.572486 3.00024 
" style="fill:none;stroke:#b0b0b0;stroke-linecap:square;stroke-width:0.8;"/>
     </g>
     <g id="line2d_6">
      <g>
       <use style="stroke:#000000;stroke-width:0.8;" x="241.572486" xlink:href="#mccd2eb26df" y="326.64351"/>
      </g>
     </g>
     <g id="text_3">
      <!-- Wed. -->
      <g transform="translate(229.082642 341.241947)scale(0.1 -0.1)">
       <defs>
        <path d="M 213 4666 
L 850 4666 
L 1831 722 
L 2809 4666 
L 3519 4666 
L 4500 722 
L 5478 4666 
L 6119 4666 
L 4947 0 
L 4153 0 
L 3169 4050 
L 2175 0 
L 1381 0 
L 213 4666 
z
" id="DejaVuSans-57" transform="scale(0.015625)"/>
        <path d="M 2906 2969 
L 2906 4863 
L 3481 4863 
L 3481 0 
L 2906 0 
L 2906 525 
Q 2725 213 2448 61 
Q 2172 -91 1784 -91 
Q 1150 -91 751 415 
Q 353 922 353 1747 
Q 353 2572 751 3078 
Q 1150 3584 1784 3584 
Q 2172 3584 2448 3432 
Q 2725 3281 2906 2969 
z
M 947 1747 
Q 947 1113 1208 752 
Q 1469 391 1925 391 
Q 2381 391 2643 752 
Q 2906 1113 2906 1747 
Q 2906 2381 2643 2742 
Q 2381 3103 1925 3103 
Q 1469 3103 1208 2742 
Q 947 2381 947 1747 
z
" id="DejaVuSans-64" transform="scale(0.015625)"/>
       </defs>
       <use xlink:href="#DejaVuSans-57"/>
       <use x="93.001953" xlink:href="#DejaVuSans-65"/>
       <use x="154.525391" xlink:href="#DejaVuSans-64"/>
       <use x="218.001953" xlink:href="#DejaVuSans-2e"/>
      </g>
     </g>
    </g>
    <g id="xtick_4">
     <g id="line2d_7">
      <path clip-path="url(#p7928fb963e)" d="M 334.23169 326.64351 
L 334.23169 3.00024 
" style="fill:none;stroke:#b0b0b0;stroke-linecap:square;stroke-width:0.8;"/>
     </g>
     <g id="line2d_8">
      <g>
       <use style="stroke:#000000;stroke-width:0.8;" x="334.23169" xlink:href="#mccd2eb26df" y="326.64351"/>
      </g>
     </g>
     <g id="text_4">
      <!-- Thur. -->
      <g transform="translate(321.652002 341.241947)scale(0.1 -0.1)">
       <defs>
        <path d="M 3513 2113 
L 3513 0 
L 2938 0 
L 2938 2094 
Q 2938 2591 2744 2837 
Q 2550 3084 2163 3084 
Q 1697 3084 1428 2787 
Q 1159 2491 1159 1978 
L 1159 0 
L 581 0 
L 581 4863 
L 1159 4863 
L 1159 2956 
Q 1366 3272 1645 3428 
Q 1925 3584 2291 3584 
Q 2894 3584 3203 3211 
Q 3513 2838 3513 2113 
z
" id="DejaVuSans-68" transform="scale(0.015625)"/>
        <path d="M 2631 2963 
Q 2534 3019 2420 3045 
Q 2306 3072 2169 3072 
Q 1681 3072 1420 2755 
Q 1159 2438 1159 1844 
L 1159 0 
L 581 0 
L 581 3500 
L 1159 3500 
L 1159 2956 
Q 1341 3275 1631 3429 
Q 1922 3584 2338 3584 
Q 2397 3584 2469 3576 
Q 2541 3569 2628 3553 
L 2631 2963 
z
" id="DejaVuSans-72" transform="scale(0.015625)"/>
       </defs>
       <use xlink:href="#DejaVuSans-54"/>
       <use x="61.083984" xlink:href="#DejaVuSans-68"/>
       <use x="124.462891" xlink:href="#DejaVuSans-75"/>
       <use x="187.841797" xlink:href="#DejaVuSans-72"/>
       <use x="219.830078" xlink:href="#DejaVuSans-2e"/>
      </g>
     </g>
    </g>
    <g id="xtick_5">
     <g id="line2d_9">
      <path clip-path="url(#p7928fb963e)" d="M 426.890894 326.64351 
L 426.890894 3.00024 
" style="fill:none;stroke:#b0b0b0;stroke-linecap:square;stroke-width:0.8;"/>
     </g>
     <g id="line2d_10">
      <g>
       <use style="stroke:#000000;stroke-width:0.8;" x="426.890894" xlink:href="#mccd2eb26df" y="326.64351"/>
      </g>
     </g>
     <g id="text_5">
      <!-- Fri. -->
      <g transform="translate(419.344019 341.241947)scale(0.1 -0.1)">
       <defs>
        <path d="M 628 4666 
L 3309 4666 
L 3309 4134 
L 1259 4134 
L 1259 2759 
L 3109 2759 
L 3109 2228 
L 1259 2228 
L 1259 0 
L 628 0 
L 628 4666 
z
" id="DejaVuSans-46" transform="scale(0.015625)"/>
        <path d="M 603 3500 
L 1178 3500 
L 1178 0 
L 603 0 
L 603 3500 
z
M 603 4863 
L 1178 4863 
L 1178 4134 
L 603 4134 
L 603 4863 
z
" id="DejaVuSans-69" transform="scale(0.015625)"/>
       </defs>
       <use xlink:href="#DejaVuSans-46"/>
       <use x="50.269531" xlink:href="#DejaVuSans-72"/>
       <use x="91.382812" xlink:href="#DejaVuSans-69"/>
       <use x="119.166016" xlink:href="#DejaVuSans-2e"/>
      </g>
     </g>
    </g>
    <g id="xtick_6">
     <g id="line2d_11">
      <path clip-path="url(#p7928fb963e)" d="M 519.550098 326.64351 
L 519.550098 3.00024 
" style="fill:none;stroke:#b0b0b0;stroke-linecap:square;stroke-width:0.8;"/>
     </g>
     <g id="line2d_12">
      <g>
       <use style="stroke:#000000;stroke-width:0.8;" x="519.550098" xlink:href="#mccd2eb26df" y="326.64351"/>
      </g>
     </g>
     <g id="text_6">
      <!-- Sat. -->
      <g transform="translate(509.762598 341.241947)scale(0.1 -0.1)">
       <defs>
        <path d="M 3425 4513 
L 3425 3897 
Q 3066 4069 2747 4153 
Q 2428 4238 2131 4238 
Q 1616 4238 1336 4038 
Q 1056 3838 1056 3469 
Q 1056 3159 1242 3001 
Q 1428 2844 1947 2747 
L 2328 2669 
Q 3034 2534 3370 2195 
Q 3706 1856 3706 1288 
Q 3706 609 3251 259 
Q 2797 -91 1919 -91 
Q 1588 -91 1214 -16 
Q 841 59 441 206 
L 441 856 
Q 825 641 1194 531 
Q 1563 422 1919 422 
Q 2459 422 2753 634 
Q 3047 847 3047 1241 
Q 3047 1584 2836 1778 
Q 2625 1972 2144 2069 
L 1759 2144 
Q 1053 2284 737 2584 
Q 422 2884 422 3419 
Q 422 4038 858 4394 
Q 1294 4750 2059 4750 
Q 2388 4750 2728 4690 
Q 3069 4631 3425 4513 
z
" id="DejaVuSans-53" transform="scale(0.015625)"/>
        <path d="M 2194 1759 
Q 1497 1759 1228 1600 
Q 959 1441 959 1056 
Q 959 750 1161 570 
Q 1363 391 1709 391 
Q 2188 391 2477 730 
Q 2766 1069 2766 1631 
L 2766 1759 
L 2194 1759 
z
M 3341 1997 
L 3341 0 
L 2766 0 
L 2766 531 
Q 2569 213 2275 61 
Q 1981 -91 1556 -91 
Q 1019 -91 701 211 
Q 384 513 384 1019 
Q 384 1609 779 1909 
Q 1175 2209 1959 2209 
L 2766 2209 
L 2766 2266 
Q 2766 2663 2505 2880 
Q 2244 3097 1772 3097 
Q 1472 3097 1187 3025 
Q 903 2953 641 2809 
L 641 3341 
Q 956 3463 1253 3523 
Q 1550 3584 1831 3584 
Q 2591 3584 2966 3190 
Q 3341 2797 3341 1997 
z
" id="DejaVuSans-61" transform="scale(0.015625)"/>
        <path d="M 1172 4494 
L 1172 3500 
L 2356 3500 
L 2356 3053 
L 1172 3053 
L 1172 1153 
Q 1172 725 1289 603 
Q 1406 481 1766 481 
L 2356 481 
L 2356 0 
L 1766 0 
Q 1100 0 847 248 
Q 594 497 594 1153 
L 594 3053 
L 172 3053 
L 172 3500 
L 594 3500 
L 594 4494 
L 1172 4494 
z
" id="DejaVuSans-74" transform="scale(0.015625)"/>
       </defs>
       <use xlink:href="#DejaVuSans-53"/>
       <use x="63.476562" xlink:href="#DejaVuSans-61"/>
       <use x="124.755859" xlink:href="#DejaVuSans-74"/>
       <use x="163.964844" xlink:href="#DejaVuSans-2e"/>
      </g>
     </g>
    </g>
    <g id="xtick_7">
     <g id="line2d_13">
      <path clip-path="url(#p7928fb963e)" d="M 612.209302 326.64351 
L 612.209302 3.00024 
" style="fill:none;stroke:#b0b0b0;stroke-linecap:square;stroke-width:0.8;"/>
     </g>
     <g id="line2d_14">
      <g>
       <use style="stroke:#000000;stroke-width:0.8;" x="612.209302" xlink:href="#mccd2eb26df" y="326.64351"/>
      </g>
     </g>
     <g id="text_7">
      <!-- Sun. -->
      <g transform="translate(601.108521 341.241947)scale(0.1 -0.1)">
       <use xlink:href="#DejaVuSans-53"/>
       <use x="63.476562" xlink:href="#DejaVuSans-75"/>
       <use x="126.855469" xlink:href="#DejaVuSans-6e"/>
       <use x="190.234375" xlink:href="#DejaVuSans-2e"/>
      </g>
     </g>
    </g>
    <g id="xtick_8">
     <g id="line2d_15">
      <path clip-path="url(#p7928fb963e)" d="M 704.868506 326.64351 
L 704.868506 3.00024 
" style="fill:none;stroke:#b0b0b0;stroke-linecap:square;stroke-width:0.8;"/>
     </g>
     <g id="line2d_16">
      <g>
       <use style="stroke:#000000;stroke-width:0.8;" x="704.868506" xlink:href="#mccd2eb26df" y="326.64351"/>
      </g>
     </g>
     <g id="text_8">
      <!-- Mon. -->
      <g transform="translate(692.737256 341.241947)scale(0.1 -0.1)">
       <use xlink:href="#DejaVuSans-4d"/>
       <use x="86.279297" xlink:href="#DejaVuSans-6f"/>
       <use x="147.460938" xlink:href="#DejaVuSans-6e"/>
       <use x="210.839844" xlink:href="#DejaVuSans-2e"/>
      </g>
     </g>
    </g>
    <g id="text_9">
     <!-- Day of the week -->
     <g transform="translate(339.758167 354.920073)scale(0.1 -0.1)">
      <defs>
       <path d="M 1259 4147 
L 1259 519 
L 2022 519 
Q 2988 519 3436 956 
Q 3884 1394 3884 2338 
Q 3884 3275 3436 3711 
Q 2988 4147 2022 4147 
L 1259 4147 
z
M 628 4666 
L 1925 4666 
Q 3281 4666 3915 4102 
Q 4550 3538 4550 2338 
Q 4550 1131 3912 565 
Q 3275 0 1925 0 
L 628 0 
L 628 4666 
z
" id="DejaVuSans-44" transform="scale(0.015625)"/>
       <path d="M 2059 -325 
Q 1816 -950 1584 -1140 
Q 1353 -1331 966 -1331 
L 506 -1331 
L 506 -850 
L 844 -850 
Q 1081 -850 1212 -737 
Q 1344 -625 1503 -206 
L 1606 56 
L 191 3500 
L 800 3500 
L 1894 763 
L 2988 3500 
L 3597 3500 
L 2059 -325 
z
" id="DejaVuSans-79" transform="scale(0.015625)"/>
       <path id="DejaVuSans-20" transform="scale(0.015625)"/>
       <path d="M 2375 4863 
L 2375 4384 
L 1825 4384 
Q 1516 4384 1395 4259 
Q 1275 4134 1275 3809 
L 1275 3500 
L 2222 3500 
L 2222 3053 
L 1275 3053 
L 1275 0 
L 697 0 
L 697 3053 
L 147 3053 
L 147 3500 
L 697 3500 
L 697 3744 
Q 697 4328 969 4595 
Q 1241 4863 1831 4863 
L 2375 4863 
z
" id="DejaVuSans-66" transform="scale(0.015625)"/>
       <path d="M 269 3500 
L 844 3500 
L 1563 769 
L 2278 3500 
L 2956 3500 
L 3675 769 
L 4391 3500 
L 4966 3500 
L 4050 0 
L 3372 0 
L 2619 2869 
L 1863 0 
L 1184 0 
L 269 3500 
z
" id="DejaVuSans-77" transform="scale(0.015625)"/>
       <path d="M 581 4863 
L 1159 4863 
L 1159 1991 
L 2875 3500 
L 3609 3500 
L 1753 1863 
L 3688 0 
L 2938 0 
L 1159 1709 
L 1159 0 
L 581 0 
L 581 4863 
z
" id="DejaVuSans-6b" transform="scale(0.015625)"/>
      </defs>
      <use xlink:href="#DejaVuSans-44"/>
      <use x="77.001953" xlink:href="#DejaVuSans-61"/>
      <use x="138.28125" xlink:href="#DejaVuSans-79"/>
      <use x="197.460938" xlink:href="#DejaVuSans-20"/>
      <use x="229.248047" xlink:href="#DejaVuSans-6f"/>
      <use x="290.429688" xlink:href="#DejaVuSans-66"/>
      <use x="325.634766" xlink:href="#DejaVuSans-20"/>
      <use x="357.421875" xlink:href="#DejaVuSans-74"/>
      <use x="396.630859" xlink:href="#DejaVuSans-68"/>
      <use x="460.009766" xlink:href="#DejaVuSans-65"/>
      <use x="521.533203" xlink:href="#DejaVuSans-20"/>
      <use x="553.320312" xlink:href="#DejaVuSans-77"/>
      <use x="635.107422" xlink:href="#DejaVuSans-65"/>
      <use x="696.630859" xlink:href="#DejaVuSans-65"/>
      <use x="758.154297" xlink:href="#DejaVuSans-6b"/>
     </g>
    </g>
   </g>
   <g id="matplotlib.axis_2">
    <g id="ytick_1">
     <g id="line2d_17">
      <path clip-path="url(#p7928fb963e)" d="M 54.323678 326.64351 
L 706.798906 326.64351 
" style="fill:none;stroke:#b0b0b0;stroke-linecap:square;stroke-width:0.8;"/>
     </g>
     <g id="line2d_18">
      <defs>
       <path d="M 0 0 
L -3.5 0 
" id="me4f6d166fd" style="stroke:#000000;stroke-width:0.8;"/>
      </defs>
      <g>
       <use style="stroke:#000000;stroke-width:0.8;" x="54.323678" xlink:href="#me4f6d166fd" y="326.64351"/>
      </g>
     </g>
     <g id="text_10">
      <!-- −10.0 -->
      <g transform="translate(16.678365 330.442729)scale(0.1 -0.1)">
       <defs>
        <path d="M 678 2272 
L 4684 2272 
L 4684 1741 
L 678 1741 
L 678 2272 
z
" id="DejaVuSans-2212" transform="scale(0.015625)"/>
        <path d="M 794 531 
L 1825 531 
L 1825 4091 
L 703 3866 
L 703 4441 
L 1819 4666 
L 2450 4666 
L 2450 531 
L 3481 531 
L 3481 0 
L 794 0 
L 794 531 
z
" id="DejaVuSans-31" transform="scale(0.015625)"/>
        <path d="M 2034 4250 
Q 1547 4250 1301 3770 
Q 1056 3291 1056 2328 
Q 1056 1369 1301 889 
Q 1547 409 2034 409 
Q 2525 409 2770 889 
Q 3016 1369 3016 2328 
Q 3016 3291 2770 3770 
Q 2525 4250 2034 4250 
z
M 2034 4750 
Q 2819 4750 3233 4129 
Q 3647 3509 3647 2328 
Q 3647 1150 3233 529 
Q 2819 -91 2034 -91 
Q 1250 -91 836 529 
Q 422 1150 422 2328 
Q 422 3509 836 4129 
Q 1250 4750 2034 4750 
z
" id="DejaVuSans-30" transform="scale(0.015625)"/>
       </defs>
       <use xlink:href="#DejaVuSans-2212"/>
       <use x="83.789062" xlink:href="#DejaVuSans-31"/>
       <use x="147.412109" xlink:href="#DejaVuSans-30"/>
       <use x="211.035156" xlink:href="#DejaVuSans-2e"/>
       <use x="242.822266" xlink:href="#DejaVuSans-30"/>
      </g>
     </g>
    </g>
    <g id="ytick_2">
     <g id="line2d_19">
      <path clip-path="url(#p7928fb963e)" d="M 54.323678 289.865866 
L 706.798906 289.865866 
" style="fill:none;stroke:#b0b0b0;stroke-linecap:square;stroke-width:0.8;"/>
     </g>
     <g id="line2d_20">
      <g>
       <use style="stroke:#000000;stroke-width:0.8;" x="54.323678" xlink:href="#me4f6d166fd" y="289.865866"/>
      </g>
     </g>
     <g id="text_11">
      <!-- −7.5 -->
      <g transform="translate(23.040865 293.665084)scale(0.1 -0.1)">
       <defs>
        <path d="M 525 4666 
L 3525 4666 
L 3525 4397 
L 1831 0 
L 1172 0 
L 2766 4134 
L 525 4134 
L 525 4666 
z
" id="DejaVuSans-37" transform="scale(0.015625)"/>
        <path d="M 691 4666 
L 3169 4666 
L 3169 4134 
L 1269 4134 
L 1269 2991 
Q 1406 3038 1543 3061 
Q 1681 3084 1819 3084 
Q 2600 3084 3056 2656 
Q 3513 2228 3513 1497 
Q 3513 744 3044 326 
Q 2575 -91 1722 -91 
Q 1428 -91 1123 -41 
Q 819 9 494 109 
L 494 744 
Q 775 591 1075 516 
Q 1375 441 1709 441 
Q 2250 441 2565 725 
Q 2881 1009 2881 1497 
Q 2881 1984 2565 2268 
Q 2250 2553 1709 2553 
Q 1456 2553 1204 2497 
Q 953 2441 691 2322 
L 691 4666 
z
" id="DejaVuSans-35" transform="scale(0.015625)"/>
       </defs>
       <use xlink:href="#DejaVuSans-2212"/>
       <use x="83.789062" xlink:href="#DejaVuSans-37"/>
       <use x="147.412109" xlink:href="#DejaVuSans-2e"/>
       <use x="179.199219" xlink:href="#DejaVuSans-35"/>
      </g>
     </g>
    </g>
    <g id="ytick_3">
     <g id="line2d_21">
      <path clip-path="url(#p7928fb963e)" d="M 54.323678 253.088221 
L 706.798906 253.088221 
" style="fill:none;stroke:#b0b0b0;stroke-linecap:square;stroke-width:0.8;"/>
     </g>
     <g id="line2d_22">
      <g>
       <use style="stroke:#000000;stroke-width:0.8;" x="54.323678" xlink:href="#me4f6d166fd" y="253.088221"/>
      </g>
     </g>
     <g id="text_12">
      <!-- −5.0 -->
      <g transform="translate(23.040865 256.88744)scale(0.1 -0.1)">
       <use xlink:href="#DejaVuSans-2212"/>
       <use x="83.789062" xlink:href="#DejaVuSans-35"/>
       <use x="147.412109" xlink:href="#DejaVuSans-2e"/>
       <use x="179.199219" xlink:href="#DejaVuSans-30"/>
      </g>
     </g>
    </g>
    <g id="ytick_4">
     <g id="line2d_23">
      <path clip-path="url(#p7928fb963e)" d="M 54.323678 216.310577 
L 706.798906 216.310577 
" style="fill:none;stroke:#b0b0b0;stroke-linecap:square;stroke-width:0.8;"/>
     </g>
     <g id="line2d_24">
      <g>
       <use style="stroke:#000000;stroke-width:0.8;" x="54.323678" xlink:href="#me4f6d166fd" y="216.310577"/>
      </g>
     </g>
     <g id="text_13">
      <!-- −2.5 -->
      <g transform="translate(23.040865 220.109796)scale(0.1 -0.1)">
       <defs>
        <path d="M 1228 531 
L 3431 531 
L 3431 0 
L 469 0 
L 469 531 
Q 828 903 1448 1529 
Q 2069 2156 2228 2338 
Q 2531 2678 2651 2914 
Q 2772 3150 2772 3378 
Q 2772 3750 2511 3984 
Q 2250 4219 1831 4219 
Q 1534 4219 1204 4116 
Q 875 4013 500 3803 
L 500 4441 
Q 881 4594 1212 4672 
Q 1544 4750 1819 4750 
Q 2544 4750 2975 4387 
Q 3406 4025 3406 3419 
Q 3406 3131 3298 2873 
Q 3191 2616 2906 2266 
Q 2828 2175 2409 1742 
Q 1991 1309 1228 531 
z
" id="DejaVuSans-32" transform="scale(0.015625)"/>
       </defs>
       <use xlink:href="#DejaVuSans-2212"/>
       <use x="83.789062" xlink:href="#DejaVuSans-32"/>
       <use x="147.412109" xlink:href="#DejaVuSans-2e"/>
       <use x="179.199219" xlink:href="#DejaVuSans-35"/>
      </g>
     </g>
    </g>
    <g id="ytick_5">
     <g id="line2d_25">
      <path clip-path="url(#p7928fb963e)" d="M 54.323678 179.532933 
L 706.798906 179.532933 
" style="fill:none;stroke:#b0b0b0;stroke-linecap:square;stroke-width:0.8;"/>
     </g>
     <g id="line2d_26">
      <g>
       <use style="stroke:#000000;stroke-width:0.8;" x="54.323678" xlink:href="#me4f6d166fd" y="179.532933"/>
      </g>
     </g>
     <g id="text_14">
      <!-- 0.0 -->
      <g transform="translate(31.420553 183.332151)scale(0.1 -0.1)">
       <use xlink:href="#DejaVuSans-30"/>
       <use x="63.623047" xlink:href="#DejaVuSans-2e"/>
       <use x="95.410156" xlink:href="#DejaVuSans-30"/>
      </g>
     </g>
    </g>
    <g id="ytick_6">
     <g id="line2d_27">
      <path clip-path="url(#p7928fb963e)" d="M 54.323678 142.755288 
L 706.798906 142.755288 
" style="fill:none;stroke:#b0b0b0;stroke-linecap:square;stroke-width:0.8;"/>
     </g>
     <g id="line2d_28">
      <g>
       <use style="stroke:#000000;stroke-width:0.8;" x="54.323678" xlink:href="#me4f6d166fd" y="142.755288"/>
      </g>
     </g>
     <g id="text_15">
      <!-- 2.5 -->
      <g transform="translate(31.420553 146.554507)scale(0.1 -0.1)">
       <use xlink:href="#DejaVuSans-32"/>
       <use x="63.623047" xlink:href="#DejaVuSans-2e"/>
       <use x="95.410156" xlink:href="#DejaVuSans-35"/>
      </g>
     </g>
    </g>
    <g id="ytick_7">
     <g id="line2d_29">
      <path clip-path="url(#p7928fb963e)" d="M 54.323678 105.977644 
L 706.798906 105.977644 
" style="fill:none;stroke:#b0b0b0;stroke-linecap:square;stroke-width:0.8;"/>
     </g>
     <g id="line2d_30">
      <g>
       <use style="stroke:#000000;stroke-width:0.8;" x="54.323678" xlink:href="#me4f6d166fd" y="105.977644"/>
      </g>
     </g>
     <g id="text_16">
      <!-- 5.0 -->
      <g transform="translate(31.420553 109.776863)scale(0.1 -0.1)">
       <use xlink:href="#DejaVuSans-35"/>
       <use x="63.623047" xlink:href="#DejaVuSans-2e"/>
       <use x="95.410156" xlink:href="#DejaVuSans-30"/>
      </g>
     </g>
    </g>
    <g id="ytick_8">
     <g id="line2d_31">
      <path clip-path="url(#p7928fb963e)" d="M 54.323678 69.2 
L 706.798906 69.2 
" style="fill:none;stroke:#b0b0b0;stroke-linecap:square;stroke-width:0.8;"/>
     </g>
     <g id="line2d_32">
      <g>
       <use style="stroke:#000000;stroke-width:0.8;" x="54.323678" xlink:href="#me4f6d166fd" y="69.2"/>
      </g>
     </g>
     <g id="text_17">
      <!-- 7.5 -->
      <g transform="translate(31.420553 72.999219)scale(0.1 -0.1)">
       <use xlink:href="#DejaVuSans-37"/>
       <use x="63.623047" xlink:href="#DejaVuSans-2e"/>
       <use x="95.410156" xlink:href="#DejaVuSans-35"/>
      </g>
     </g>
    </g>
    <g id="ytick_9">
     <g id="line2d_33">
      <path clip-path="url(#p7928fb963e)" d="M 54.323678 32.422355 
L 706.798906 32.422355 
" style="fill:none;stroke:#b0b0b0;stroke-linecap:square;stroke-width:0.8;"/>
     </g>
     <g id="line2d_34">
      <g>
       <use style="stroke:#000000;stroke-width:0.8;" x="54.323678" xlink:href="#me4f6d166fd" y="32.422355"/>
      </g>
     </g>
     <g id="text_18">
      <!-- 10.0 -->
      <g transform="translate(25.058053 36.221574)scale(0.1 -0.1)">
       <use xlink:href="#DejaVuSans-31"/>
       <use x="63.623047" xlink:href="#DejaVuSans-30"/>
       <use x="127.246094" xlink:href="#DejaVuSans-2e"/>
       <use x="159.033203" xlink:href="#DejaVuSans-30"/>
      </g>
     </g>
    </g>
    <g id="text_19">
     <!-- Demand difference (MW) -->
     <g transform="translate(10.598678 227.5375)rotate(-90)scale(0.1 -0.1)">
      <defs>
       <path d="M 3328 2828 
Q 3544 3216 3844 3400 
Q 4144 3584 4550 3584 
Q 5097 3584 5394 3201 
Q 5691 2819 5691 2113 
L 5691 0 
L 5113 0 
L 5113 2094 
Q 5113 2597 4934 2840 
Q 4756 3084 4391 3084 
Q 3944 3084 3684 2787 
Q 3425 2491 3425 1978 
L 3425 0 
L 2847 0 
L 2847 2094 
Q 2847 2600 2669 2842 
Q 2491 3084 2119 3084 
Q 1678 3084 1418 2786 
Q 1159 2488 1159 1978 
L 1159 0 
L 581 0 
L 581 3500 
L 1159 3500 
L 1159 2956 
Q 1356 3278 1631 3431 
Q 1906 3584 2284 3584 
Q 2666 3584 2933 3390 
Q 3200 3197 3328 2828 
z
" id="DejaVuSans-6d" transform="scale(0.015625)"/>
       <path d="M 3122 3366 
L 3122 2828 
Q 2878 2963 2633 3030 
Q 2388 3097 2138 3097 
Q 1578 3097 1268 2742 
Q 959 2388 959 1747 
Q 959 1106 1268 751 
Q 1578 397 2138 397 
Q 2388 397 2633 464 
Q 2878 531 3122 666 
L 3122 134 
Q 2881 22 2623 -34 
Q 2366 -91 2075 -91 
Q 1284 -91 818 406 
Q 353 903 353 1747 
Q 353 2603 823 3093 
Q 1294 3584 2113 3584 
Q 2378 3584 2631 3529 
Q 2884 3475 3122 3366 
z
" id="DejaVuSans-63" transform="scale(0.015625)"/>
       <path d="M 1984 4856 
Q 1566 4138 1362 3434 
Q 1159 2731 1159 2009 
Q 1159 1288 1364 580 
Q 1569 -128 1984 -844 
L 1484 -844 
Q 1016 -109 783 600 
Q 550 1309 550 2009 
Q 550 2706 781 3412 
Q 1013 4119 1484 4856 
L 1984 4856 
z
" id="DejaVuSans-28" transform="scale(0.015625)"/>
       <path d="M 513 4856 
L 1013 4856 
Q 1481 4119 1714 3412 
Q 1947 2706 1947 2009 
Q 1947 1309 1714 600 
Q 1481 -109 1013 -844 
L 513 -844 
Q 928 -128 1133 580 
Q 1338 1288 1338 2009 
Q 1338 2731 1133 3434 
Q 928 4138 513 4856 
z
" id="DejaVuSans-29" transform="scale(0.015625)"/>
      </defs>
      <use xlink:href="#DejaVuSans-44"/>
      <use x="77.001953" xlink:href="#DejaVuSans-65"/>
      <use x="138.525391" xlink:href="#DejaVuSans-6d"/>
      <use x="235.9375" xlink:href="#DejaVuSans-61"/>
      <use x="297.216797" xlink:href="#DejaVuSans-6e"/>
      <use x="360.595703" xlink:href="#DejaVuSans-64"/>
      <use x="424.072266" xlink:href="#DejaVuSans-20"/>
      <use x="455.859375" xlink:href="#DejaVuSans-64"/>
      <use x="519.335938" xlink:href="#DejaVuSans-69"/>
      <use x="547.119141" xlink:href="#DejaVuSans-66"/>
      <use x="582.324219" xlink:href="#DejaVuSans-66"/>
      <use x="617.529297" xlink:href="#DejaVuSans-65"/>
      <use x="679.052734" xlink:href="#DejaVuSans-72"/>
      <use x="717.916016" xlink:href="#DejaVuSans-65"/>
      <use x="779.439453" xlink:href="#DejaVuSans-6e"/>
      <use x="842.818359" xlink:href="#DejaVuSans-63"/>
      <use x="897.798828" xlink:href="#DejaVuSans-65"/>
      <use x="959.322266" xlink:href="#DejaVuSans-20"/>
      <use x="991.109375" xlink:href="#DejaVuSans-28"/>
      <use x="1030.123047" xlink:href="#DejaVuSans-4d"/>
      <use x="1116.402344" xlink:href="#DejaVuSans-57"/>
      <use x="1215.279297" xlink:href="#DejaVuSans-29"/>
     </g>
    </g>
   </g>
   <g id="line2d_35">
    <path clip-path="url(#p7928fb963e)" d="M 56.254078 242.585905 
L 58.184478 267.977188 
L 62.045278 297.928905 
L 63.975678 308.550291 
L 65.906078 315.346798 
L 67.836478 310.992318 
L 69.766878 308.667971 
L 71.697278 306.726111 
L 75.558078 295.839932 
L 77.488479 284.277037 
L 79.418879 278.363185 
L 81.349279 268.153722 
L 83.279679 270.448649 
L 85.210079 258.150198 
L 87.140479 247.705347 
L 91.001279 196.422598 
L 92.931679 183.682834 
L 94.862079 175.738849 
L 96.792479 173.855844 
L 98.722879 173.944104 
L 100.65328 170.442873 
L 102.58368 173.73815 
L 104.51408 182.888438 
L 106.44448 196.010705 
L 108.37488 198.835219 
L 110.30528 206.955724 
L 112.23568 205.72 
L 114.16608 198.835219 
L 116.09648 181.093679 
L 118.02688 145.816566 
L 119.95728 120.484123 
L 123.818081 101.683393 
L 125.748481 82.529595 
L 127.678881 89.384956 
L 129.609281 97.417187 
L 131.539681 114.128944 
L 133.470081 132.311812 
L 135.400481 145.845986 
L 137.330881 163.322719 
L 139.261281 178.916446 
L 141.191681 181.682121 
L 143.122081 190.008593 
L 145.052482 204.366569 
L 146.982882 225.5505 
L 148.913282 267.110526 
L 150.843682 290.44227 
L 152.774082 307.271721 
L 154.704482 307.036333 
L 156.634882 303.976444 
L 158.565282 307.183447 
L 160.495682 306.359631 
L 162.426082 307.565949 
L 164.356482 312.538277 
L 166.286882 304.447206 
L 168.217283 290.501124 
L 170.147683 262.60896 
L 172.078083 225.743042 
L 174.008483 202.264184 
L 175.938883 195.555951 
L 177.869283 181.403901 
L 183.660483 156.306845 
L 185.590883 154.718054 
L 187.521283 153.982498 
L 189.451683 157.660263 
L 193.312484 173.34225 
L 195.242884 174.460294 
L 197.173284 184.316689 
L 199.103684 193.408123 
L 201.034084 194.349647 
L 202.964484 198.056817 
L 204.894884 192.407774 
L 206.825284 191.14263 
L 208.755684 178.373432 
L 210.686084 152.864455 
L 212.616485 124.148461 
L 214.546885 113.791883 
L 216.477285 83.987294 
L 218.407685 51.269888 
L 220.338085 52.329092 
L 222.268485 62.567975 
L 224.198885 78.691304 
L 226.129285 100.434243 
L 228.059685 113.674203 
L 231.920485 164.57445 
L 233.850885 188.112148 
L 235.781286 204.147203 
L 237.711686 210.266994 
L 239.642086 232.421855 
L 241.572486 261.590667 
L 243.502886 287.15847 
L 245.433286 298.515425 
L 247.363686 303.987935 
L 249.294086 306.341702 
L 251.224486 308.989682 
L 253.154886 304.958864 
L 255.085286 305.076558 
L 257.015686 311.225783 
L 258.946087 299.662888 
L 260.876487 285.863906 
L 262.806887 262.649856 
L 264.737287 232.668733 
L 266.667687 197.56814 
L 268.598087 187.240982 
L 270.528487 175.119065 
L 272.458887 171.205927 
L 274.389287 156.053542 
L 276.319687 149.639522 
L 278.250087 147.550549 
L 280.180488 145.196782 
L 282.110888 144.019885 
L 284.041288 144.873134 
L 285.971688 143.078389 
L 287.902088 149.28644 
L 289.832488 157.936561 
L 291.762888 169.82309 
L 293.693288 174.913112 
L 295.623688 172.941832 
L 297.554088 183.857432 
L 299.484488 183.798592 
L 303.345289 147.491709 
L 307.206089 108.654512 
L 311.066889 49.457213 
L 312.997289 55.518178 
L 314.927689 62.520639 
L 316.858089 85.205088 
L 318.788489 101.857977 
L 320.718889 116.451368 
L 324.579689 163.997512 
L 326.51009 190.712779 
L 328.44049 200.333815 
L 330.37089 210.572712 
L 332.30129 233.610229 
L 334.23169 255.21318 
L 336.16209 274.95542 
L 338.09249 282.869956 
L 340.02289 288.754388 
L 341.95329 293.69731 
L 343.88369 301.199953 
L 345.81409 303.259492 
L 347.74449 309.673511 
L 349.674891 309.496977 
L 351.605291 299.346353 
L 353.535691 281.693073 
L 355.466091 253.389001 
L 357.396491 222.436934 
L 359.326891 187.071561 
L 361.257291 192.279263 
L 363.187691 174.449463 
L 365.118091 168.447351 
L 367.048491 148.05783 
L 368.978891 143.144328 
L 370.909292 142.173412 
L 372.839692 135.259211 
L 374.770092 136.789163 
L 376.700492 126.373731 
L 378.630892 120.606994 
L 380.561292 130.25745 
L 382.491692 133.964648 
L 384.422092 153.118432 
L 386.352492 153.059592 
L 388.282892 153.118432 
L 390.213292 152.588844 
L 392.143692 144.203546 
L 394.074093 130.25745 
L 396.004493 99.923244 
L 397.934893 76.061913 
L 399.865293 60.144565 
L 401.795693 30.075126 
L 403.726093 29.133631 
L 405.656493 45.698274 
L 407.586893 60.291651 
L 409.517293 77.944932 
L 411.447693 92.979652 
L 413.378093 109.044113 
L 415.308493 132.052209 
L 417.238894 160.120893 
L 419.169294 182.481707 
L 421.099694 193.250207 
L 423.030094 215.346213 
L 424.960494 235.676895 
L 426.890894 246.428811 
L 428.821294 269.525181 
L 430.751694 284.059705 
L 432.682094 280.676169 
L 434.612494 283.059341 
L 436.542894 293.298253 
L 438.473295 292.562683 
L 440.403695 296.211042 
L 442.334095 297.711559 
L 444.264495 291.35638 
L 446.194895 281.588244 
L 448.125295 257.932866 
L 450.055695 220.096018 
L 451.986095 192.615762 
L 453.916495 183.494908 
L 455.846895 174.962496 
L 457.777295 166.989105 
L 459.707695 162.870013 
L 461.638096 156.661947 
L 463.568496 146.42305 
L 465.498896 145.716914 
L 467.429296 141.803776 
L 469.359696 140.420938 
L 471.290096 141.097654 
L 473.220496 149.394678 
L 475.150896 154.308166 
L 477.081296 163.576148 
L 479.011696 185.113119 
L 482.872496 165.665108 
L 484.802897 162.634625 
L 486.733297 158.250739 
L 490.594097 114.529473 
L 492.524497 95.905263 
L 494.454897 61.863888 
L 496.385297 47.947212 
L 498.315697 59.157053 
L 500.246097 68.630989 
L 504.106897 99.465376 
L 506.037298 110.704595 
L 507.967698 135.536856 
L 509.898098 163.840942 
L 511.828498 183.642022 
L 513.758898 189.644133 
L 515.689298 206.061676 
L 517.619698 226.774846 
L 519.550098 239.165667 
L 521.480498 262.320863 
L 523.410898 280.238937 
L 525.341298 280.945073 
L 527.271698 283.35768 
L 529.202099 282.357316 
L 533.062899 287.094298 
L 534.993299 293.008136 
L 536.923699 286.800071 
L 538.854099 274.177972 
L 540.784499 247.550951 
L 542.714899 217.510988 
L 544.645299 185.587992 
L 546.575699 174.466424 
L 548.506099 154.871299 
L 550.436499 146.3389 
L 552.3669 138.630304 
L 554.2973 137.894734 
L 556.2277 133.540268 
L 558.1581 128.567926 
L 560.0885 126.361273 
L 562.0189 128.509086 
L 563.9493 128.538506 
L 565.8797 132.951826 
L 567.8101 138.071268 
L 569.7405 151.07584 
L 571.6709 152.546952 
L 573.601301 157.2545 
L 575.531701 158.755017 
L 577.462101 157.784088 
L 579.392501 142.013826 
L 581.322901 124.272314 
L 583.253301 100.881716 
L 585.183701 90.348604 
L 587.114101 68.017224 
L 589.044501 57.189884 
L 590.974901 70.223877 
L 592.905301 87.435816 
L 594.835701 99.851946 
L 596.766102 113.474394 
L 598.696502 132.24569 
L 600.626902 155.636274 
L 602.557302 175.849262 
L 604.487702 186.352967 
L 606.418102 193.237734 
L 608.348502 214.539345 
L 610.278902 229.250417 
L 612.209302 233.736424 
L 614.139702 256.391467 
L 616.070102 272.779576 
L 618.000502 286.813918 
L 619.930903 295.758252 
L 621.861303 302.848987 
L 625.722103 290.020948 
L 627.652503 289.667867 
L 629.582903 290.668216 
L 631.513303 282.636 
L 633.443703 268.33685 
L 635.374103 256.214933 
L 637.304503 239.356062 
L 639.234903 235.854832 
L 643.095704 204.049529 
L 645.026104 190.897843 
L 646.956504 179.746841 
L 648.886904 174.833368 
L 650.817304 164.506196 
L 652.747704 158.710038 
L 654.678104 167.713213 
L 658.538904 192.39836 
L 660.469304 198.724119 
L 662.399704 202.784358 
L 664.330105 216.259692 
L 666.260505 220.17283 
L 668.190905 219.96689 
L 670.121305 220.08457 
L 672.051705 206.550396 
L 673.982105 187.367178 
L 677.842905 139.320867 
L 679.773305 109.575103 
L 681.703705 84.21324 
L 683.634105 97.070713 
L 685.564505 116.31277 
L 687.494906 131.72995 
L 689.425306 144.528568 
L 691.355706 155.914944 
L 693.286106 171.185009 
L 695.216506 184.572083 
L 697.146906 188.338108 
L 699.077306 191.42743 
L 701.007706 210.375274 
L 702.938106 223.909449 
L 702.938106 223.909449 
" style="fill:none;stroke:#d62728;stroke-dasharray:7.4,3.2;stroke-dashoffset:0;stroke-width:2;"/>
   </g>
   <g id="line2d_36">
    <path clip-path="url(#p7928fb963e)" d="M 56.254078 250.364607 
L 58.184478 275.099917 
L 60.114878 291.320675 
L 62.045278 300.462208 
L 63.975678 304.921658 
L 65.906078 304.828123 
L 67.836478 297.210487 
L 69.766878 290.65392 
L 71.697278 287.802595 
L 73.627678 288.199905 
L 75.558078 292.535684 
L 77.488479 289.211345 
L 79.418879 278.938496 
L 81.349279 265.592465 
L 83.279679 260.95235 
L 85.210079 250.852773 
L 87.140479 236.768913 
L 89.070879 212.178367 
L 91.001279 191.379085 
L 92.931679 178.826769 
L 94.862079 171.76262 
L 96.792479 168.604426 
L 98.722879 168.37921 
L 100.65328 170.782964 
L 102.58368 176.328287 
L 106.44448 189.549728 
L 108.37488 194.764824 
L 110.30528 197.795363 
L 112.23568 196.831742 
L 114.16608 190.160112 
L 116.09648 175.178495 
L 119.95728 127.234515 
L 121.88768 112.806896 
L 123.818081 95.331819 
L 125.748481 76.246682 
L 127.678881 72.181533 
L 129.609281 81.955674 
L 133.470081 108.01858 
L 135.400481 124.386052 
L 139.261281 164.345137 
L 141.191681 178.696827 
L 143.122081 190.637216 
L 145.052482 207.663305 
L 146.982882 226.294179 
L 148.913282 271.753124 
L 150.843682 290.674684 
L 152.774082 298.676989 
L 154.704482 301.833443 
L 158.565282 307.083276 
L 160.495682 306.826998 
L 162.426082 309.877781 
L 164.356482 314.24848 
L 166.286882 312.422687 
L 168.217283 303.980569 
L 170.147683 279.639062 
L 172.078083 245.945388 
L 174.008483 210.247044 
L 175.938883 193.452794 
L 177.869283 186.963015 
L 179.799683 189.011765 
L 181.730083 181.890389 
L 183.660483 173.260289 
L 185.590883 169.652967 
L 187.521283 167.164615 
L 189.451683 167.304153 
L 193.312484 170.905975 
L 195.242884 177.005452 
L 197.173284 184.419849 
L 199.103684 189.370795 
L 201.034084 189.395207 
L 202.964484 188.894464 
L 204.894884 182.986659 
L 206.825284 171.510846 
L 208.755684 151.845726 
L 210.686084 123.160991 
L 212.616485 99.574498 
L 214.546885 87.842925 
L 216.477285 74.057594 
L 218.407685 55.404483 
L 220.338085 52.885223 
L 222.268485 62.95968 
L 226.129285 93.382188 
L 228.059685 111.293921 
L 231.920485 159.285685 
L 235.781286 191.830037 
L 237.711686 211.573202 
L 239.642086 232.942239 
L 241.572486 262.680756 
L 243.502886 286.063435 
L 245.433286 297.754013 
L 247.363686 300.378396 
L 249.294086 299.941277 
L 251.224486 301.040142 
L 253.154886 298.526901 
L 255.085286 299.579202 
L 257.015686 303.035959 
L 258.946087 298.529959 
L 260.876487 286.731845 
L 262.806887 262.40436 
L 264.737287 229.556079 
L 266.667687 200.206693 
L 268.598087 191.662874 
L 270.528487 189.671603 
L 272.458887 193.550523 
L 274.389287 189.878665 
L 276.319687 183.782121 
L 278.250087 181.025509 
L 280.180488 177.946569 
L 282.110888 177.37116 
L 284.041288 178.984559 
L 285.971688 181.922714 
L 287.902088 186.050322 
L 291.762888 200.132883 
L 293.693288 202.638787 
L 295.623688 203.603095 
L 297.554088 200.147755 
L 299.484488 192.923472 
L 301.414888 178.083062 
L 303.345289 153.841164 
L 305.275689 131.437532 
L 307.206089 118.861885 
L 309.136489 100.2574 
L 311.066889 78.224513 
L 312.997289 74.497926 
L 314.927689 84.209129 
L 316.858089 99.708592 
L 318.788489 116.650041 
L 320.718889 131.856398 
L 324.579689 176.851056 
L 326.51009 195.794411 
L 330.37089 226.068261 
L 332.30129 245.253176 
L 334.23169 255.066557 
L 336.16209 278.618046 
L 338.09249 290.211989 
L 340.02289 292.833734 
L 341.95329 293.209621 
L 343.88369 293.812359 
L 345.81409 290.12866 
L 347.74449 290.230192 
L 349.674891 293.112467 
L 351.605291 288.154105 
L 353.535691 277.837154 
L 355.466091 256.666095 
L 359.326891 195.949592 
L 361.257291 185.569417 
L 363.187691 181.228377 
L 365.118091 181.706055 
L 367.048491 173.553521 
L 368.978891 164.724229 
L 370.909292 160.731403 
L 372.839692 157.100596 
L 374.770092 155.829293 
L 376.700492 155.010795 
L 378.630892 155.527742 
L 380.561292 160.503268 
L 384.422092 175.75365 
L 386.352492 181.341497 
L 388.282892 183.67551 
L 390.213292 184.589845 
L 392.143692 180.054117 
L 394.074093 165.944562 
L 396.004493 143.361155 
L 397.934893 122.152686 
L 399.865293 107.54222 
L 401.795693 87.007128 
L 403.726093 64.187547 
L 405.656493 63.484638 
L 407.586893 73.903016 
L 411.447693 102.644866 
L 413.378093 119.601916 
L 417.238894 165.482962 
L 419.169294 184.045849 
L 421.099694 198.045692 
L 423.030094 215.452585 
L 424.960494 237.26375 
L 426.890894 253.897446 
L 428.821294 274.807892 
L 430.751694 285.013659 
L 432.682094 287.380901 
L 434.612494 287.955047 
L 436.542894 290.092036 
L 438.473295 290.180198 
L 440.403695 293.344214 
L 442.334095 297.514177 
L 444.264495 294.437993 
L 446.194895 284.695146 
L 448.125295 261.304702 
L 451.986095 196.036182 
L 453.916495 187.178088 
L 455.846895 180.62404 
L 457.777295 180.140553 
L 459.707695 171.183199 
L 461.638096 165.008931 
L 463.568496 163.667523 
L 465.498896 160.665338 
L 469.359696 160.445312 
L 471.290096 162.73784 
L 475.150896 177.860708 
L 477.081296 188.092268 
L 479.011696 191.308516 
L 480.942096 190.240277 
L 482.872496 187.401663 
L 484.802897 178.782113 
L 486.733297 161.866801 
L 488.663697 134.708607 
L 490.594097 109.819975 
L 492.524497 93.684609 
L 494.454897 71.149238 
L 496.385297 55.895405 
L 498.315697 60.939873 
L 500.246097 72.648886 
L 502.176497 86.82379 
L 504.106897 99.778179 
L 506.037298 115.266811 
L 507.967698 136.874266 
L 509.898098 161.243791 
L 511.828498 179.300463 
L 513.758898 191.712188 
L 515.689298 209.176996 
L 517.619698 229.265948 
L 519.550098 242.809718 
L 521.480498 263.236313 
L 523.410898 274.604267 
L 525.341298 277.926116 
L 527.271698 280.894497 
L 529.202099 284.338367 
L 531.132499 282.969959 
L 533.062899 283.321505 
L 534.993299 284.435192 
L 536.923699 280.733058 
L 538.854099 272.09856 
L 540.784499 250.306251 
L 542.714899 219.016654 
L 544.645299 190.206677 
L 546.575699 181.011901 
L 548.506099 173.950193 
L 550.436499 171.871363 
L 552.3669 166.597021 
L 554.2973 160.418333 
L 556.2277 155.864129 
L 558.1581 152.408157 
L 560.0885 149.588174 
L 562.0189 147.214443 
L 563.9493 147.347036 
L 567.8101 162.152471 
L 569.7405 173.018209 
L 571.6709 181.969642 
L 573.601301 182.482549 
L 575.531701 181.294077 
L 577.462101 177.691399 
L 579.392501 168.36518 
L 583.253301 127.942081 
L 585.183701 111.040603 
L 587.114101 86.71854 
L 589.044501 72.425339 
L 590.974901 79.785975 
L 592.905301 93.717718 
L 594.835701 112.964224 
L 602.557302 183.995483 
L 604.487702 192.301963 
L 606.418102 193.188421 
L 608.348502 201.380336 
L 610.278902 216.09643 
L 612.209302 235.002031 
L 614.139702 257.41507 
L 616.070102 272.689225 
L 618.000502 280.802982 
L 619.930903 286.597842 
L 621.861303 289.16269 
L 625.722103 283.674573 
L 627.652503 283.027431 
L 629.582903 280.071495 
L 631.513303 275.171279 
L 633.443703 263.400003 
L 635.374103 249.570057 
L 637.304503 236.839272 
L 639.234903 234.656876 
L 641.165303 221.95377 
L 643.095704 207.752715 
L 645.026104 190.818912 
L 646.956504 178.484265 
L 648.886904 168.806157 
L 650.817304 162.990583 
L 652.747704 160.365624 
L 654.678104 160.63206 
L 656.608504 162.024886 
L 658.538904 168.038235 
L 660.469304 176.571321 
L 662.399704 188.910401 
L 664.330105 197.32533 
L 666.260505 203.040088 
L 668.190905 206.931369 
L 670.121305 207.194184 
L 672.051705 196.740634 
L 673.982105 175.31569 
L 675.912505 151.436372 
L 677.842905 132.519688 
L 679.773305 108.287218 
L 681.703705 93.898644 
L 683.634105 101.492282 
L 685.564505 116.204995 
L 691.355706 165.411958 
L 693.286106 183.963607 
L 695.216506 198.576486 
L 697.146906 202.842117 
L 699.077306 200.918132 
L 701.007706 207.407209 
L 702.938106 218.467313 
L 702.938106 218.467313 
" style="fill:none;stroke:#1f77b4;stroke-linecap:square;stroke-width:1.5;"/>
   </g>
   <g id="patch_3">
    <path d="M 54.323678 326.64351 
L 54.323678 3.00024 
" style="fill:none;stroke:#000000;stroke-linecap:square;stroke-linejoin:miter;stroke-width:0.8;"/>
   </g>
   <g id="patch_4">
    <path d="M 706.798906 326.64351 
L 706.798906 3.00024 
" style="fill:none;stroke:#000000;stroke-linecap:square;stroke-linejoin:miter;stroke-width:0.8;"/>
   </g>
   <g id="patch_5">
    <path d="M 54.323678 326.64351 
L 706.798906 326.64351 
" style="fill:none;stroke:#000000;stroke-linecap:square;stroke-linejoin:miter;stroke-width:0.8;"/>
   </g>
   <g id="patch_6">
    <path d="M 54.323678 3.00024 
L 706.798906 3.00024 
" style="fill:none;stroke:#000000;stroke-linecap:square;stroke-linejoin:miter;stroke-width:0.8;"/>
   </g>
   <g id="legend_1">
    <g id="patch_7">
     <path d="M 197.733948 25.678365 
L 563.388636 25.678365 
L 563.388636 8.00024 
L 197.733948 8.00024 
z
" style="fill:#ffffff;opacity:0.95;stroke:#000000;stroke-linejoin:miter;"/>
    </g>
    <g id="line2d_37">
     <path d="M 201.733948 16.098678 
L 221.733948 16.098678 
" style="fill:none;stroke:#d62728;stroke-dasharray:7.4,3.2;stroke-dashoffset:0;stroke-width:2;"/>
    </g>
    <g id="line2d_38"/>
    <g id="text_20">
     <!-- Actual demand difference -->
     <g transform="translate(229.733948 19.598678)scale(0.1 -0.1)">
      <defs>
       <path d="M 2188 4044 
L 1331 1722 
L 3047 1722 
L 2188 4044 
z
M 1831 4666 
L 2547 4666 
L 4325 0 
L 3669 0 
L 3244 1197 
L 1141 1197 
L 716 0 
L 50 0 
L 1831 4666 
z
" id="DejaVuSans-41" transform="scale(0.015625)"/>
       <path d="M 603 4863 
L 1178 4863 
L 1178 0 
L 603 0 
L 603 4863 
z
" id="DejaVuSans-6c" transform="scale(0.015625)"/>
      </defs>
      <use xlink:href="#DejaVuSans-41"/>
      <use x="66.658203" xlink:href="#DejaVuSans-63"/>
      <use x="121.638672" xlink:href="#DejaVuSans-74"/>
      <use x="160.847656" xlink:href="#DejaVuSans-75"/>
      <use x="224.226562" xlink:href="#DejaVuSans-61"/>
      <use x="285.505859" xlink:href="#DejaVuSans-6c"/>
      <use x="313.289062" xlink:href="#DejaVuSans-20"/>
      <use x="345.076172" xlink:href="#DejaVuSans-64"/>
      <use x="408.552734" xlink:href="#DejaVuSans-65"/>
      <use x="470.076172" xlink:href="#DejaVuSans-6d"/>
      <use x="567.488281" xlink:href="#DejaVuSans-61"/>
      <use x="628.767578" xlink:href="#DejaVuSans-6e"/>
      <use x="692.146484" xlink:href="#DejaVuSans-64"/>
      <use x="755.623047" xlink:href="#DejaVuSans-20"/>
      <use x="787.410156" xlink:href="#DejaVuSans-64"/>
      <use x="850.886719" xlink:href="#DejaVuSans-69"/>
      <use x="878.669922" xlink:href="#DejaVuSans-66"/>
      <use x="913.875" xlink:href="#DejaVuSans-66"/>
      <use x="949.080078" xlink:href="#DejaVuSans-65"/>
      <use x="1010.603516" xlink:href="#DejaVuSans-72"/>
      <use x="1049.466797" xlink:href="#DejaVuSans-65"/>
      <use x="1110.990234" xlink:href="#DejaVuSans-6e"/>
      <use x="1174.369141" xlink:href="#DejaVuSans-63"/>
      <use x="1229.349609" xlink:href="#DejaVuSans-65"/>
     </g>
    </g>
    <g id="line2d_39">
     <path d="M 378.823011 16.098678 
L 398.823011 16.098678 
" style="fill:none;stroke:#1f77b4;stroke-linecap:square;stroke-width:1.5;"/>
    </g>
    <g id="line2d_40"/>
    <g id="text_21">
     <!-- Forecasted demand difference -->
     <g transform="translate(406.823011 19.598678)scale(0.1 -0.1)">
      <defs>
       <path d="M 2834 3397 
L 2834 2853 
Q 2591 2978 2328 3040 
Q 2066 3103 1784 3103 
Q 1356 3103 1142 2972 
Q 928 2841 928 2578 
Q 928 2378 1081 2264 
Q 1234 2150 1697 2047 
L 1894 2003 
Q 2506 1872 2764 1633 
Q 3022 1394 3022 966 
Q 3022 478 2636 193 
Q 2250 -91 1575 -91 
Q 1294 -91 989 -36 
Q 684 19 347 128 
L 347 722 
Q 666 556 975 473 
Q 1284 391 1588 391 
Q 1994 391 2212 530 
Q 2431 669 2431 922 
Q 2431 1156 2273 1281 
Q 2116 1406 1581 1522 
L 1381 1569 
Q 847 1681 609 1914 
Q 372 2147 372 2553 
Q 372 3047 722 3315 
Q 1072 3584 1716 3584 
Q 2034 3584 2315 3537 
Q 2597 3491 2834 3397 
z
" id="DejaVuSans-73" transform="scale(0.015625)"/>
      </defs>
      <use xlink:href="#DejaVuSans-46"/>
      <use x="53.894531" xlink:href="#DejaVuSans-6f"/>
      <use x="115.076172" xlink:href="#DejaVuSans-72"/>
      <use x="153.939453" xlink:href="#DejaVuSans-65"/>
      <use x="215.462891" xlink:href="#DejaVuSans-63"/>
      <use x="270.443359" xlink:href="#DejaVuSans-61"/>
      <use x="331.722656" xlink:href="#DejaVuSans-73"/>
      <use x="383.822266" xlink:href="#DejaVuSans-74"/>
      <use x="423.03125" xlink:href="#DejaVuSans-65"/>
      <use x="484.554688" xlink:href="#DejaVuSans-64"/>
      <use x="548.03125" xlink:href="#DejaVuSans-20"/>
      <use x="579.818359" xlink:href="#DejaVuSans-64"/>
      <use x="643.294922" xlink:href="#DejaVuSans-65"/>
      <use x="704.818359" xlink:href="#DejaVuSans-6d"/>
      <use x="802.230469" xlink:href="#DejaVuSans-61"/>
      <use x="863.509766" xlink:href="#DejaVuSans-6e"/>
      <use x="926.888672" xlink:href="#DejaVuSans-64"/>
      <use x="990.365234" xlink:href="#DejaVuSans-20"/>
      <use x="1022.152344" xlink:href="#DejaVuSans-64"/>
      <use x="1085.628906" xlink:href="#DejaVuSans-69"/>
      <use x="1113.412109" xlink:href="#DejaVuSans-66"/>
      <use x="1148.617188" xlink:href="#DejaVuSans-66"/>
      <use x="1183.822266" xlink:href="#DejaVuSans-65"/>
      <use x="1245.345703" xlink:href="#DejaVuSans-72"/>
      <use x="1284.208984" xlink:href="#DejaVuSans-65"/>
      <use x="1345.732422" xlink:href="#DejaVuSans-6e"/>
      <use x="1409.111328" xlink:href="#DejaVuSans-63"/>
      <use x="1464.091797" xlink:href="#DejaVuSans-65"/>
     </g>
    </g>
   </g>
  </g>
 </g>
 <defs>
  <clipPath id="p7928fb963e">
   <rect height="323.64327" width="652.475229" x="54.323678" y="3.00024"/>
  </clipPath>
 </defs>
</svg>
