<?xml version="1.0" encoding="utf-8" standalone="no"?>
<!DOCTYPE svg PUBLIC "-//W3C//DTD SVG 1.1//EN"
  "http://www.w3.org/Graphics/SVG/1.1/DTD/svg11.dtd">
<svg height="360pt" version="1.1" viewBox="0 0 720 360" width="720pt" xmlns="http://www.w3.org/2000/svg" xmlns:xlink="http://www.w3.org/1999/xlink">
 <metadata>
  <rdf:RDF xmlns:cc="http://creativecommons.org/ns#" xmlns:dc="http://purl.org/dc/elements/1.1/" xmlns:rdf="http://www.w3.org/1999/02/22-rdf-syntax-ns#">
   <cc:Work>
    <dc:type rdf:resource="http://purl.org/dc/dcmitype/StillImage"/>
    <dc:date>2022-04-11T21:17:11.559089</dc:date>
    <dc:format>image/svg+xml</dc:format>
    <dc:creator>
     <cc:Agent>
      <dc:title>Matplotlib v3.4.3, https://matplotlib.org/</dc:title>
     </cc:Agent>
    </dc:creator>
   </cc:Work>
  </rdf:RDF>
 </metadata>
 <defs>
  <style type="text/css">*{stroke-linecap:butt;stroke-linejoin:round;}</style>
 </defs>
 <g id="figure_1">
  <g id="patch_1">
   <path d="M 0 360 
L 720 360 
L 720 0 
L 0 0 
z
" style="fill:#ffffff;"/>
  </g>
  <g id="axes_1">
   <g id="patch_2">
    <path d="M 36.403365 326.64351 
L 706.852082 326.64351 
L 706.852082 6.799459 
L 36.403365 6.799459 
z
" style="fill:#ffffff;"/>
   </g>
   <g id="matplotlib.axis_1">
    <g id="xtick_1">
     <g id="line2d_1">
      <path clip-path="url(#p9bce13ff8e)" d="M 38.386941 326.64351 
L 38.386941 6.799459 
" style="fill:none;stroke:#b0b0b0;stroke-linecap:square;stroke-width:0.8;"/>
     </g>
     <g id="line2d_2">
      <defs>
       <path d="M 0 0 
L 0 3.5 
" id="me119a59872" style="stroke:#000000;stroke-width:0.8;"/>
      </defs>
      <g>
       <use style="stroke:#000000;stroke-width:0.8;" x="38.386941" xlink:href="#me119a59872" y="326.64351"/>
      </g>
     </g>
     <g id="text_1">
      <!-- Mon. -->
      <g transform="translate(26.255691 341.241947)scale(0.1 -0.1)">
       <defs>
        <path d="M 628 4666 
L 1569 4666 
L 2759 1491 
L 3956 4666 
L 4897 4666 
L 4897 0 
L 4281 0 
L 4281 4097 
L 3078 897 
L 2444 897 
L 1241 4097 
L 1241 0 
L 628 0 
L 628 4666 
z
" id="DejaVuSans-4d" transform="scale(0.015625)"/>
        <path d="M 1959 3097 
Q 1497 3097 1228 2736 
Q 959 2375 959 1747 
Q 959 1119 1226 758 
Q 1494 397 1959 397 
Q 2419 397 2687 759 
Q 2956 1122 2956 1747 
Q 2956 2369 2687 2733 
Q 2419 3097 1959 3097 
z
M 1959 3584 
Q 2709 3584 3137 3096 
Q 3566 2609 3566 1747 
Q 3566 888 3137 398 
Q 2709 -91 1959 -91 
Q 1206 -91 779 398 
Q 353 888 353 1747 
Q 353 2609 779 3096 
Q 1206 3584 1959 3584 
z
" id="DejaVuSans-6f" transform="scale(0.015625)"/>
        <path d="M 3513 2113 
L 3513 0 
L 2938 0 
L 2938 2094 
Q 2938 2591 2744 2837 
Q 2550 3084 2163 3084 
Q 1697 3084 1428 2787 
Q 1159 2491 1159 1978 
L 1159 0 
L 581 0 
L 581 3500 
L 1159 3500 
L 1159 2956 
Q 1366 3272 1645 3428 
Q 1925 3584 2291 3584 
Q 2894 3584 3203 3211 
Q 3513 2838 3513 2113 
z
" id="DejaVuSans-6e" transform="scale(0.015625)"/>
        <path d="M 684 794 
L 1344 794 
L 1344 0 
L 684 0 
L 684 794 
z
" id="DejaVuSans-2e" transform="scale(0.015625)"/>
       </defs>
       <use xlink:href="#DejaVuSans-4d"/>
       <use x="86.279297" xlink:href="#DejaVuSans-6f"/>
       <use x="147.460938" xlink:href="#DejaVuSans-6e"/>
       <use x="210.839844" xlink:href="#DejaVuSans-2e"/>
      </g>
     </g>
    </g>
    <g id="xtick_2">
     <g id="line2d_3">
      <path clip-path="url(#p9bce13ff8e)" d="M 133.598593 326.64351 
L 133.598593 6.799459 
" style="fill:none;stroke:#b0b0b0;stroke-linecap:square;stroke-width:0.8;"/>
     </g>
     <g id="line2d_4">
      <g>
       <use style="stroke:#000000;stroke-width:0.8;" x="133.598593" xlink:href="#me119a59872" y="326.64351"/>
      </g>
     </g>
     <g id="text_2">
      <!-- Tue. -->
      <g transform="translate(123.466562 341.241947)scale(0.1 -0.1)">
       <defs>
        <path d="M -19 4666 
L 3928 4666 
L 3928 4134 
L 2272 4134 
L 2272 0 
L 1638 0 
L 1638 4134 
L -19 4134 
L -19 4666 
z
" id="DejaVuSans-54" transform="scale(0.015625)"/>
        <path d="M 544 1381 
L 544 3500 
L 1119 3500 
L 1119 1403 
Q 1119 906 1312 657 
Q 1506 409 1894 409 
Q 2359 409 2629 706 
Q 2900 1003 2900 1516 
L 2900 3500 
L 3475 3500 
L 3475 0 
L 2900 0 
L 2900 538 
Q 2691 219 2414 64 
Q 2138 -91 1772 -91 
Q 1169 -91 856 284 
Q 544 659 544 1381 
z
M 1991 3584 
L 1991 3584 
z
" id="DejaVuSans-75" transform="scale(0.015625)"/>
        <path d="M 3597 1894 
L 3597 1613 
L 953 1613 
Q 991 1019 1311 708 
Q 1631 397 2203 397 
Q 2534 397 2845 478 
Q 3156 559 3463 722 
L 3463 178 
Q 3153 47 2828 -22 
Q 2503 -91 2169 -91 
Q 1331 -91 842 396 
Q 353 884 353 1716 
Q 353 2575 817 3079 
Q 1281 3584 2069 3584 
Q 2775 3584 3186 3129 
Q 3597 2675 3597 1894 
z
M 3022 2063 
Q 3016 2534 2758 2815 
Q 2500 3097 2075 3097 
Q 1594 3097 1305 2825 
Q 1016 2553 972 2059 
L 3022 2063 
z
" id="DejaVuSans-65" transform="scale(0.015625)"/>
       </defs>
       <use xlink:href="#DejaVuSans-54"/>
       <use x="45.958984" xlink:href="#DejaVuSans-75"/>
       <use x="109.337891" xlink:href="#DejaVuSans-65"/>
       <use x="170.861328" xlink:href="#DejaVuSans-2e"/>
      </g>
     </g>
    </g>
    <g id="xtick_3">
     <g id="line2d_5">
      <path clip-path="url(#p9bce13ff8e)" d="M 228.810245 326.64351 
L 228.810245 6.799459 
" style="fill:none;stroke:#b0b0b0;stroke-linecap:square;stroke-width:0.8;"/>
     </g>
     <g id="line2d_6">
      <g>
       <use style="stroke:#000000;stroke-width:0.8;" x="228.810245" xlink:href="#me119a59872" y="326.64351"/>
      </g>
     </g>
     <g id="text_3">
      <!-- Wed. -->
      <g transform="translate(216.320402 341.241947)scale(0.1 -0.1)">
       <defs>
        <path d="M 213 4666 
L 850 4666 
L 1831 722 
L 2809 4666 
L 3519 4666 
L 4500 722 
L 5478 4666 
L 6119 4666 
L 4947 0 
L 4153 0 
L 3169 4050 
L 2175 0 
L 1381 0 
L 213 4666 
z
" id="DejaVuSans-57" transform="scale(0.015625)"/>
        <path d="M 2906 2969 
L 2906 4863 
L 3481 4863 
L 3481 0 
L 2906 0 
L 2906 525 
Q 2725 213 2448 61 
Q 2172 -91 1784 -91 
Q 1150 -91 751 415 
Q 353 922 353 1747 
Q 353 2572 751 3078 
Q 1150 3584 1784 3584 
Q 2172 3584 2448 3432 
Q 2725 3281 2906 2969 
z
M 947 1747 
Q 947 1113 1208 752 
Q 1469 391 1925 391 
Q 2381 391 2643 752 
Q 2906 1113 2906 1747 
Q 2906 2381 2643 2742 
Q 2381 3103 1925 3103 
Q 1469 3103 1208 2742 
Q 947 2381 947 1747 
z
" id="DejaVuSans-64" transform="scale(0.015625)"/>
       </defs>
       <use xlink:href="#DejaVuSans-57"/>
       <use x="93.001953" xlink:href="#DejaVuSans-65"/>
       <use x="154.525391" xlink:href="#DejaVuSans-64"/>
       <use x="218.001953" xlink:href="#DejaVuSans-2e"/>
      </g>
     </g>
    </g>
    <g id="xtick_4">
     <g id="line2d_7">
      <path clip-path="url(#p9bce13ff8e)" d="M 324.021898 326.64351 
L 324.021898 6.799459 
" style="fill:none;stroke:#b0b0b0;stroke-linecap:square;stroke-width:0.8;"/>
     </g>
     <g id="line2d_8">
      <g>
       <use style="stroke:#000000;stroke-width:0.8;" x="324.021898" xlink:href="#me119a59872" y="326.64351"/>
      </g>
     </g>
     <g id="text_4">
      <!-- Thur. -->
      <g transform="translate(311.44221 341.241947)scale(0.1 -0.1)">
       <defs>
        <path d="M 3513 2113 
L 3513 0 
L 2938 0 
L 2938 2094 
Q 2938 2591 2744 2837 
Q 2550 3084 2163 3084 
Q 1697 3084 1428 2787 
Q 1159 2491 1159 1978 
L 1159 0 
L 581 0 
L 581 4863 
L 1159 4863 
L 1159 2956 
Q 1366 3272 1645 3428 
Q 1925 3584 2291 3584 
Q 2894 3584 3203 3211 
Q 3513 2838 3513 2113 
z
" id="DejaVuSans-68" transform="scale(0.015625)"/>
        <path d="M 2631 2963 
Q 2534 3019 2420 3045 
Q 2306 3072 2169 3072 
Q 1681 3072 1420 2755 
Q 1159 2438 1159 1844 
L 1159 0 
L 581 0 
L 581 3500 
L 1159 3500 
L 1159 2956 
Q 1341 3275 1631 3429 
Q 1922 3584 2338 3584 
Q 2397 3584 2469 3576 
Q 2541 3569 2628 3553 
L 2631 2963 
z
" id="DejaVuSans-72" transform="scale(0.015625)"/>
       </defs>
       <use xlink:href="#DejaVuSans-54"/>
       <use x="61.083984" xlink:href="#DejaVuSans-68"/>
       <use x="124.462891" xlink:href="#DejaVuSans-75"/>
       <use x="187.841797" xlink:href="#DejaVuSans-72"/>
       <use x="219.830078" xlink:href="#DejaVuSans-2e"/>
      </g>
     </g>
    </g>
    <g id="xtick_5">
     <g id="line2d_9">
      <path clip-path="url(#p9bce13ff8e)" d="M 419.23355 326.64351 
L 419.23355 6.799459 
" style="fill:none;stroke:#b0b0b0;stroke-linecap:square;stroke-width:0.8;"/>
     </g>
     <g id="line2d_10">
      <g>
       <use style="stroke:#000000;stroke-width:0.8;" x="419.23355" xlink:href="#me119a59872" y="326.64351"/>
      </g>
     </g>
     <g id="text_5">
      <!-- Fri. -->
      <g transform="translate(411.686675 341.241947)scale(0.1 -0.1)">
       <defs>
        <path d="M 628 4666 
L 3309 4666 
L 3309 4134 
L 1259 4134 
L 1259 2759 
L 3109 2759 
L 3109 2228 
L 1259 2228 
L 1259 0 
L 628 0 
L 628 4666 
z
" id="DejaVuSans-46" transform="scale(0.015625)"/>
        <path d="M 603 3500 
L 1178 3500 
L 1178 0 
L 603 0 
L 603 3500 
z
M 603 4863 
L 1178 4863 
L 1178 4134 
L 603 4134 
L 603 4863 
z
" id="DejaVuSans-69" transform="scale(0.015625)"/>
       </defs>
       <use xlink:href="#DejaVuSans-46"/>
       <use x="50.269531" xlink:href="#DejaVuSans-72"/>
       <use x="91.382812" xlink:href="#DejaVuSans-69"/>
       <use x="119.166016" xlink:href="#DejaVuSans-2e"/>
      </g>
     </g>
    </g>
    <g id="xtick_6">
     <g id="line2d_11">
      <path clip-path="url(#p9bce13ff8e)" d="M 514.445202 326.64351 
L 514.445202 6.799459 
" style="fill:none;stroke:#b0b0b0;stroke-linecap:square;stroke-width:0.8;"/>
     </g>
     <g id="line2d_12">
      <g>
       <use style="stroke:#000000;stroke-width:0.8;" x="514.445202" xlink:href="#me119a59872" y="326.64351"/>
      </g>
     </g>
     <g id="text_6">
      <!-- Sat. -->
      <g transform="translate(504.657702 341.241947)scale(0.1 -0.1)">
       <defs>
        <path d="M 3425 4513 
L 3425 3897 
Q 3066 4069 2747 4153 
Q 2428 4238 2131 4238 
Q 1616 4238 1336 4038 
Q 1056 3838 1056 3469 
Q 1056 3159 1242 3001 
Q 1428 2844 1947 2747 
L 2328 2669 
Q 3034 2534 3370 2195 
Q 3706 1856 3706 1288 
Q 3706 609 3251 259 
Q 2797 -91 1919 -91 
Q 1588 -91 1214 -16 
Q 841 59 441 206 
L 441 856 
Q 825 641 1194 531 
Q 1563 422 1919 422 
Q 2459 422 2753 634 
Q 3047 847 3047 1241 
Q 3047 1584 2836 1778 
Q 2625 1972 2144 2069 
L 1759 2144 
Q 1053 2284 737 2584 
Q 422 2884 422 3419 
Q 422 4038 858 4394 
Q 1294 4750 2059 4750 
Q 2388 4750 2728 4690 
Q 3069 4631 3425 4513 
z
" id="DejaVuSans-53" transform="scale(0.015625)"/>
        <path d="M 2194 1759 
Q 1497 1759 1228 1600 
Q 959 1441 959 1056 
Q 959 750 1161 570 
Q 1363 391 1709 391 
Q 2188 391 2477 730 
Q 2766 1069 2766 1631 
L 2766 1759 
L 2194 1759 
z
M 3341 1997 
L 3341 0 
L 2766 0 
L 2766 531 
Q 2569 213 2275 61 
Q 1981 -91 1556 -91 
Q 1019 -91 701 211 
Q 384 513 384 1019 
Q 384 1609 779 1909 
Q 1175 2209 1959 2209 
L 2766 2209 
L 2766 2266 
Q 2766 2663 2505 2880 
Q 2244 3097 1772 3097 
Q 1472 3097 1187 3025 
Q 903 2953 641 2809 
L 641 3341 
Q 956 3463 1253 3523 
Q 1550 3584 1831 3584 
Q 2591 3584 2966 3190 
Q 3341 2797 3341 1997 
z
" id="DejaVuSans-61" transform="scale(0.015625)"/>
        <path d="M 1172 4494 
L 1172 3500 
L 2356 3500 
L 2356 3053 
L 1172 3053 
L 1172 1153 
Q 1172 725 1289 603 
Q 1406 481 1766 481 
L 2356 481 
L 2356 0 
L 1766 0 
Q 1100 0 847 248 
Q 594 497 594 1153 
L 594 3053 
L 172 3053 
L 172 3500 
L 594 3500 
L 594 4494 
L 1172 4494 
z
" id="DejaVuSans-74" transform="scale(0.015625)"/>
       </defs>
       <use xlink:href="#DejaVuSans-53"/>
       <use x="63.476562" xlink:href="#DejaVuSans-61"/>
       <use x="124.755859" xlink:href="#DejaVuSans-74"/>
       <use x="163.964844" xlink:href="#DejaVuSans-2e"/>
      </g>
     </g>
    </g>
    <g id="xtick_7">
     <g id="line2d_13">
      <path clip-path="url(#p9bce13ff8e)" d="M 609.656854 326.64351 
L 609.656854 6.799459 
" style="fill:none;stroke:#b0b0b0;stroke-linecap:square;stroke-width:0.8;"/>
     </g>
     <g id="line2d_14">
      <g>
       <use style="stroke:#000000;stroke-width:0.8;" x="609.656854" xlink:href="#me119a59872" y="326.64351"/>
      </g>
     </g>
     <g id="text_7">
      <!-- Sun. -->
      <g transform="translate(598.556073 341.241947)scale(0.1 -0.1)">
       <use xlink:href="#DejaVuSans-53"/>
       <use x="63.476562" xlink:href="#DejaVuSans-75"/>
       <use x="126.855469" xlink:href="#DejaVuSans-6e"/>
       <use x="190.234375" xlink:href="#DejaVuSans-2e"/>
      </g>
     </g>
    </g>
    <g id="xtick_8">
     <g id="line2d_15">
      <path clip-path="url(#p9bce13ff8e)" d="M 704.868506 326.64351 
L 704.868506 6.799459 
" style="fill:none;stroke:#b0b0b0;stroke-linecap:square;stroke-width:0.8;"/>
     </g>
     <g id="line2d_16">
      <g>
       <use style="stroke:#000000;stroke-width:0.8;" x="704.868506" xlink:href="#me119a59872" y="326.64351"/>
      </g>
     </g>
     <g id="text_8">
      <!-- Mon. -->
      <g transform="translate(692.737256 341.241947)scale(0.1 -0.1)">
       <use xlink:href="#DejaVuSans-4d"/>
       <use x="86.279297" xlink:href="#DejaVuSans-6f"/>
       <use x="147.460938" xlink:href="#DejaVuSans-6e"/>
       <use x="210.839844" xlink:href="#DejaVuSans-2e"/>
      </g>
     </g>
    </g>
    <g id="text_9">
     <!-- Day of the week -->
     <g transform="translate(330.824599 354.920073)scale(0.1 -0.1)">
      <defs>
       <path d="M 1259 4147 
L 1259 519 
L 2022 519 
Q 2988 519 3436 956 
Q 3884 1394 3884 2338 
Q 3884 3275 3436 3711 
Q 2988 4147 2022 4147 
L 1259 4147 
z
M 628 4666 
L 1925 4666 
Q 3281 4666 3915 4102 
Q 4550 3538 4550 2338 
Q 4550 1131 3912 565 
Q 3275 0 1925 0 
L 628 0 
L 628 4666 
z
" id="DejaVuSans-44" transform="scale(0.015625)"/>
       <path d="M 2059 -325 
Q 1816 -950 1584 -1140 
Q 1353 -1331 966 -1331 
L 506 -1331 
L 506 -850 
L 844 -850 
Q 1081 -850 1212 -737 
Q 1344 -625 1503 -206 
L 1606 56 
L 191 3500 
L 800 3500 
L 1894 763 
L 2988 3500 
L 3597 3500 
L 2059 -325 
z
" id="DejaVuSans-79" transform="scale(0.015625)"/>
       <path id="DejaVuSans-20" transform="scale(0.015625)"/>
       <path d="M 2375 4863 
L 2375 4384 
L 1825 4384 
Q 1516 4384 1395 4259 
Q 1275 4134 1275 3809 
L 1275 3500 
L 2222 3500 
L 2222 3053 
L 1275 3053 
L 1275 0 
L 697 0 
L 697 3053 
L 147 3053 
L 147 3500 
L 697 3500 
L 697 3744 
Q 697 4328 969 4595 
Q 1241 4863 1831 4863 
L 2375 4863 
z
" id="DejaVuSans-66" transform="scale(0.015625)"/>
       <path d="M 269 3500 
L 844 3500 
L 1563 769 
L 2278 3500 
L 2956 3500 
L 3675 769 
L 4391 3500 
L 4966 3500 
L 4050 0 
L 3372 0 
L 2619 2869 
L 1863 0 
L 1184 0 
L 269 3500 
z
" id="DejaVuSans-77" transform="scale(0.015625)"/>
       <path d="M 581 4863 
L 1159 4863 
L 1159 1991 
L 2875 3500 
L 3609 3500 
L 1753 1863 
L 3688 0 
L 2938 0 
L 1159 1709 
L 1159 0 
L 581 0 
L 581 4863 
z
" id="DejaVuSans-6b" transform="scale(0.015625)"/>
      </defs>
      <use xlink:href="#DejaVuSans-44"/>
      <use x="77.001953" xlink:href="#DejaVuSans-61"/>
      <use x="138.28125" xlink:href="#DejaVuSans-79"/>
      <use x="197.460938" xlink:href="#DejaVuSans-20"/>
      <use x="229.248047" xlink:href="#DejaVuSans-6f"/>
      <use x="290.429688" xlink:href="#DejaVuSans-66"/>
      <use x="325.634766" xlink:href="#DejaVuSans-20"/>
      <use x="357.421875" xlink:href="#DejaVuSans-74"/>
      <use x="396.630859" xlink:href="#DejaVuSans-68"/>
      <use x="460.009766" xlink:href="#DejaVuSans-65"/>
      <use x="521.533203" xlink:href="#DejaVuSans-20"/>
      <use x="553.320312" xlink:href="#DejaVuSans-77"/>
      <use x="635.107422" xlink:href="#DejaVuSans-65"/>
      <use x="696.630859" xlink:href="#DejaVuSans-65"/>
      <use x="758.154297" xlink:href="#DejaVuSans-6b"/>
     </g>
    </g>
   </g>
   <g id="matplotlib.axis_2">
    <g id="ytick_1">
     <g id="line2d_17">
      <path clip-path="url(#p9bce13ff8e)" d="M 36.403365 326.64351 
L 706.852082 326.64351 
" style="fill:none;stroke:#b0b0b0;stroke-linecap:square;stroke-width:0.8;"/>
     </g>
     <g id="line2d_18">
      <defs>
       <path d="M 0 0 
L -3.5 0 
" id="m172ecf79cf" style="stroke:#000000;stroke-width:0.8;"/>
      </defs>
      <g>
       <use style="stroke:#000000;stroke-width:0.8;" x="36.403365" xlink:href="#m172ecf79cf" y="326.64351"/>
      </g>
     </g>
     <g id="text_10">
      <!-- 22 -->
      <g transform="translate(16.678365 330.442729)scale(0.1 -0.1)">
       <defs>
        <path d="M 1228 531 
L 3431 531 
L 3431 0 
L 469 0 
L 469 531 
Q 828 903 1448 1529 
Q 2069 2156 2228 2338 
Q 2531 2678 2651 2914 
Q 2772 3150 2772 3378 
Q 2772 3750 2511 3984 
Q 2250 4219 1831 4219 
Q 1534 4219 1204 4116 
Q 875 4013 500 3803 
L 500 4441 
Q 881 4594 1212 4672 
Q 1544 4750 1819 4750 
Q 2544 4750 2975 4387 
Q 3406 4025 3406 3419 
Q 3406 3131 3298 2873 
Q 3191 2616 2906 2266 
Q 2828 2175 2409 1742 
Q 1991 1309 1228 531 
z
" id="DejaVuSans-32" transform="scale(0.015625)"/>
       </defs>
       <use xlink:href="#DejaVuSans-32"/>
       <use x="63.623047" xlink:href="#DejaVuSans-32"/>
      </g>
     </g>
    </g>
    <g id="ytick_2">
     <g id="line2d_19">
      <path clip-path="url(#p9bce13ff8e)" d="M 36.403365 286.663004 
L 706.852082 286.663004 
" style="fill:none;stroke:#b0b0b0;stroke-linecap:square;stroke-width:0.8;"/>
     </g>
     <g id="line2d_20">
      <g>
       <use style="stroke:#000000;stroke-width:0.8;" x="36.403365" xlink:href="#m172ecf79cf" y="286.663004"/>
      </g>
     </g>
     <g id="text_11">
      <!-- 23 -->
      <g transform="translate(16.678365 290.462222)scale(0.1 -0.1)">
       <defs>
        <path d="M 2597 2516 
Q 3050 2419 3304 2112 
Q 3559 1806 3559 1356 
Q 3559 666 3084 287 
Q 2609 -91 1734 -91 
Q 1441 -91 1130 -33 
Q 819 25 488 141 
L 488 750 
Q 750 597 1062 519 
Q 1375 441 1716 441 
Q 2309 441 2620 675 
Q 2931 909 2931 1356 
Q 2931 1769 2642 2001 
Q 2353 2234 1838 2234 
L 1294 2234 
L 1294 2753 
L 1863 2753 
Q 2328 2753 2575 2939 
Q 2822 3125 2822 3475 
Q 2822 3834 2567 4026 
Q 2313 4219 1838 4219 
Q 1578 4219 1281 4162 
Q 984 4106 628 3988 
L 628 4550 
Q 988 4650 1302 4700 
Q 1616 4750 1894 4750 
Q 2613 4750 3031 4423 
Q 3450 4097 3450 3541 
Q 3450 3153 3228 2886 
Q 3006 2619 2597 2516 
z
" id="DejaVuSans-33" transform="scale(0.015625)"/>
       </defs>
       <use xlink:href="#DejaVuSans-32"/>
       <use x="63.623047" xlink:href="#DejaVuSans-33"/>
      </g>
     </g>
    </g>
    <g id="ytick_3">
     <g id="line2d_21">
      <path clip-path="url(#p9bce13ff8e)" d="M 36.403365 246.682497 
L 706.852082 246.682497 
" style="fill:none;stroke:#b0b0b0;stroke-linecap:square;stroke-width:0.8;"/>
     </g>
     <g id="line2d_22">
      <g>
       <use style="stroke:#000000;stroke-width:0.8;" x="36.403365" xlink:href="#m172ecf79cf" y="246.682497"/>
      </g>
     </g>
     <g id="text_12">
      <!-- 24 -->
      <g transform="translate(16.678365 250.481716)scale(0.1 -0.1)">
       <defs>
        <path d="M 2419 4116 
L 825 1625 
L 2419 1625 
L 2419 4116 
z
M 2253 4666 
L 3047 4666 
L 3047 1625 
L 3713 1625 
L 3713 1100 
L 3047 1100 
L 3047 0 
L 2419 0 
L 2419 1100 
L 313 1100 
L 313 1709 
L 2253 4666 
z
" id="DejaVuSans-34" transform="scale(0.015625)"/>
       </defs>
       <use xlink:href="#DejaVuSans-32"/>
       <use x="63.623047" xlink:href="#DejaVuSans-34"/>
      </g>
     </g>
    </g>
    <g id="ytick_4">
     <g id="line2d_23">
      <path clip-path="url(#p9bce13ff8e)" d="M 36.403365 206.701991 
L 706.852082 206.701991 
" style="fill:none;stroke:#b0b0b0;stroke-linecap:square;stroke-width:0.8;"/>
     </g>
     <g id="line2d_24">
      <g>
       <use style="stroke:#000000;stroke-width:0.8;" x="36.403365" xlink:href="#m172ecf79cf" y="206.701991"/>
      </g>
     </g>
     <g id="text_13">
      <!-- 25 -->
      <g transform="translate(16.678365 210.50121)scale(0.1 -0.1)">
       <defs>
        <path d="M 691 4666 
L 3169 4666 
L 3169 4134 
L 1269 4134 
L 1269 2991 
Q 1406 3038 1543 3061 
Q 1681 3084 1819 3084 
Q 2600 3084 3056 2656 
Q 3513 2228 3513 1497 
Q 3513 744 3044 326 
Q 2575 -91 1722 -91 
Q 1428 -91 1123 -41 
Q 819 9 494 109 
L 494 744 
Q 775 591 1075 516 
Q 1375 441 1709 441 
Q 2250 441 2565 725 
Q 2881 1009 2881 1497 
Q 2881 1984 2565 2268 
Q 2250 2553 1709 2553 
Q 1456 2553 1204 2497 
Q 953 2441 691 2322 
L 691 4666 
z
" id="DejaVuSans-35" transform="scale(0.015625)"/>
       </defs>
       <use xlink:href="#DejaVuSans-32"/>
       <use x="63.623047" xlink:href="#DejaVuSans-35"/>
      </g>
     </g>
    </g>
    <g id="ytick_5">
     <g id="line2d_25">
      <path clip-path="url(#p9bce13ff8e)" d="M 36.403365 166.721484 
L 706.852082 166.721484 
" style="fill:none;stroke:#b0b0b0;stroke-linecap:square;stroke-width:0.8;"/>
     </g>
     <g id="line2d_26">
      <g>
       <use style="stroke:#000000;stroke-width:0.8;" x="36.403365" xlink:href="#m172ecf79cf" y="166.721484"/>
      </g>
     </g>
     <g id="text_14">
      <!-- 26 -->
      <g transform="translate(16.678365 170.520703)scale(0.1 -0.1)">
       <defs>
        <path d="M 2113 2584 
Q 1688 2584 1439 2293 
Q 1191 2003 1191 1497 
Q 1191 994 1439 701 
Q 1688 409 2113 409 
Q 2538 409 2786 701 
Q 3034 994 3034 1497 
Q 3034 2003 2786 2293 
Q 2538 2584 2113 2584 
z
M 3366 4563 
L 3366 3988 
Q 3128 4100 2886 4159 
Q 2644 4219 2406 4219 
Q 1781 4219 1451 3797 
Q 1122 3375 1075 2522 
Q 1259 2794 1537 2939 
Q 1816 3084 2150 3084 
Q 2853 3084 3261 2657 
Q 3669 2231 3669 1497 
Q 3669 778 3244 343 
Q 2819 -91 2113 -91 
Q 1303 -91 875 529 
Q 447 1150 447 2328 
Q 447 3434 972 4092 
Q 1497 4750 2381 4750 
Q 2619 4750 2861 4703 
Q 3103 4656 3366 4563 
z
" id="DejaVuSans-36" transform="scale(0.015625)"/>
       </defs>
       <use xlink:href="#DejaVuSans-32"/>
       <use x="63.623047" xlink:href="#DejaVuSans-36"/>
      </g>
     </g>
    </g>
    <g id="ytick_6">
     <g id="line2d_27">
      <path clip-path="url(#p9bce13ff8e)" d="M 36.403365 126.740978 
L 706.852082 126.740978 
" style="fill:none;stroke:#b0b0b0;stroke-linecap:square;stroke-width:0.8;"/>
     </g>
     <g id="line2d_28">
      <g>
       <use style="stroke:#000000;stroke-width:0.8;" x="36.403365" xlink:href="#m172ecf79cf" y="126.740978"/>
      </g>
     </g>
     <g id="text_15">
      <!-- 27 -->
      <g transform="translate(16.678365 130.540197)scale(0.1 -0.1)">
       <defs>
        <path d="M 525 4666 
L 3525 4666 
L 3525 4397 
L 1831 0 
L 1172 0 
L 2766 4134 
L 525 4134 
L 525 4666 
z
" id="DejaVuSans-37" transform="scale(0.015625)"/>
       </defs>
       <use xlink:href="#DejaVuSans-32"/>
       <use x="63.623047" xlink:href="#DejaVuSans-37"/>
      </g>
     </g>
    </g>
    <g id="ytick_7">
     <g id="line2d_29">
      <path clip-path="url(#p9bce13ff8e)" d="M 36.403365 86.760472 
L 706.852082 86.760472 
" style="fill:none;stroke:#b0b0b0;stroke-linecap:square;stroke-width:0.8;"/>
     </g>
     <g id="line2d_30">
      <g>
       <use style="stroke:#000000;stroke-width:0.8;" x="36.403365" xlink:href="#m172ecf79cf" y="86.760472"/>
      </g>
     </g>
     <g id="text_16">
      <!-- 28 -->
      <g transform="translate(16.678365 90.55969)scale(0.1 -0.1)">
       <defs>
        <path d="M 2034 2216 
Q 1584 2216 1326 1975 
Q 1069 1734 1069 1313 
Q 1069 891 1326 650 
Q 1584 409 2034 409 
Q 2484 409 2743 651 
Q 3003 894 3003 1313 
Q 3003 1734 2745 1975 
Q 2488 2216 2034 2216 
z
M 1403 2484 
Q 997 2584 770 2862 
Q 544 3141 544 3541 
Q 544 4100 942 4425 
Q 1341 4750 2034 4750 
Q 2731 4750 3128 4425 
Q 3525 4100 3525 3541 
Q 3525 3141 3298 2862 
Q 3072 2584 2669 2484 
Q 3125 2378 3379 2068 
Q 3634 1759 3634 1313 
Q 3634 634 3220 271 
Q 2806 -91 2034 -91 
Q 1263 -91 848 271 
Q 434 634 434 1313 
Q 434 1759 690 2068 
Q 947 2378 1403 2484 
z
M 1172 3481 
Q 1172 3119 1398 2916 
Q 1625 2713 2034 2713 
Q 2441 2713 2670 2916 
Q 2900 3119 2900 3481 
Q 2900 3844 2670 4047 
Q 2441 4250 2034 4250 
Q 1625 4250 1398 4047 
Q 1172 3844 1172 3481 
z
" id="DejaVuSans-38" transform="scale(0.015625)"/>
       </defs>
       <use xlink:href="#DejaVuSans-32"/>
       <use x="63.623047" xlink:href="#DejaVuSans-38"/>
      </g>
     </g>
    </g>
    <g id="ytick_8">
     <g id="line2d_31">
      <path clip-path="url(#p9bce13ff8e)" d="M 36.403365 46.779965 
L 706.852082 46.779965 
" style="fill:none;stroke:#b0b0b0;stroke-linecap:square;stroke-width:0.8;"/>
     </g>
     <g id="line2d_32">
      <g>
       <use style="stroke:#000000;stroke-width:0.8;" x="36.403365" xlink:href="#m172ecf79cf" y="46.779965"/>
      </g>
     </g>
     <g id="text_17">
      <!-- 29 -->
      <g transform="translate(16.678365 50.579184)scale(0.1 -0.1)">
       <defs>
        <path d="M 703 97 
L 703 672 
Q 941 559 1184 500 
Q 1428 441 1663 441 
Q 2288 441 2617 861 
Q 2947 1281 2994 2138 
Q 2813 1869 2534 1725 
Q 2256 1581 1919 1581 
Q 1219 1581 811 2004 
Q 403 2428 403 3163 
Q 403 3881 828 4315 
Q 1253 4750 1959 4750 
Q 2769 4750 3195 4129 
Q 3622 3509 3622 2328 
Q 3622 1225 3098 567 
Q 2575 -91 1691 -91 
Q 1453 -91 1209 -44 
Q 966 3 703 97 
z
M 1959 2075 
Q 2384 2075 2632 2365 
Q 2881 2656 2881 3163 
Q 2881 3666 2632 3958 
Q 2384 4250 1959 4250 
Q 1534 4250 1286 3958 
Q 1038 3666 1038 3163 
Q 1038 2656 1286 2365 
Q 1534 2075 1959 2075 
z
" id="DejaVuSans-39" transform="scale(0.015625)"/>
       </defs>
       <use xlink:href="#DejaVuSans-32"/>
       <use x="63.623047" xlink:href="#DejaVuSans-39"/>
      </g>
     </g>
    </g>
    <g id="ytick_9">
     <g id="line2d_33">
      <path clip-path="url(#p9bce13ff8e)" d="M 36.403365 6.799459 
L 706.852082 6.799459 
" style="fill:none;stroke:#b0b0b0;stroke-linecap:square;stroke-width:0.8;"/>
     </g>
     <g id="line2d_34">
      <g>
       <use style="stroke:#000000;stroke-width:0.8;" x="36.403365" xlink:href="#m172ecf79cf" y="6.799459"/>
      </g>
     </g>
     <g id="text_18">
      <!-- 30 -->
      <g transform="translate(16.678365 10.598678)scale(0.1 -0.1)">
       <defs>
        <path d="M 2034 4250 
Q 1547 4250 1301 3770 
Q 1056 3291 1056 2328 
Q 1056 1369 1301 889 
Q 1547 409 2034 409 
Q 2525 409 2770 889 
Q 3016 1369 3016 2328 
Q 3016 3291 2770 3770 
Q 2525 4250 2034 4250 
z
M 2034 4750 
Q 2819 4750 3233 4129 
Q 3647 3509 3647 2328 
Q 3647 1150 3233 529 
Q 2819 -91 2034 -91 
Q 1250 -91 836 529 
Q 422 1150 422 2328 
Q 422 3509 836 4129 
Q 1250 4750 2034 4750 
z
" id="DejaVuSans-30" transform="scale(0.015625)"/>
       </defs>
       <use xlink:href="#DejaVuSans-33"/>
       <use x="63.623047" xlink:href="#DejaVuSans-30"/>
      </g>
     </g>
    </g>
    <g id="text_19">
     <!-- Rolling average demand (MW) -->
     <g transform="translate(10.598678 242.465234)rotate(-90)scale(0.1 -0.1)">
      <defs>
       <path d="M 2841 2188 
Q 3044 2119 3236 1894 
Q 3428 1669 3622 1275 
L 4263 0 
L 3584 0 
L 2988 1197 
Q 2756 1666 2539 1819 
Q 2322 1972 1947 1972 
L 1259 1972 
L 1259 0 
L 628 0 
L 628 4666 
L 2053 4666 
Q 2853 4666 3247 4331 
Q 3641 3997 3641 3322 
Q 3641 2881 3436 2590 
Q 3231 2300 2841 2188 
z
M 1259 4147 
L 1259 2491 
L 2053 2491 
Q 2509 2491 2742 2702 
Q 2975 2913 2975 3322 
Q 2975 3731 2742 3939 
Q 2509 4147 2053 4147 
L 1259 4147 
z
" id="DejaVuSans-52" transform="scale(0.015625)"/>
       <path d="M 603 4863 
L 1178 4863 
L 1178 0 
L 603 0 
L 603 4863 
z
" id="DejaVuSans-6c" transform="scale(0.015625)"/>
       <path d="M 2906 1791 
Q 2906 2416 2648 2759 
Q 2391 3103 1925 3103 
Q 1463 3103 1205 2759 
Q 947 2416 947 1791 
Q 947 1169 1205 825 
Q 1463 481 1925 481 
Q 2391 481 2648 825 
Q 2906 1169 2906 1791 
z
M 3481 434 
Q 3481 -459 3084 -895 
Q 2688 -1331 1869 -1331 
Q 1566 -1331 1297 -1286 
Q 1028 -1241 775 -1147 
L 775 -588 
Q 1028 -725 1275 -790 
Q 1522 -856 1778 -856 
Q 2344 -856 2625 -561 
Q 2906 -266 2906 331 
L 2906 616 
Q 2728 306 2450 153 
Q 2172 0 1784 0 
Q 1141 0 747 490 
Q 353 981 353 1791 
Q 353 2603 747 3093 
Q 1141 3584 1784 3584 
Q 2172 3584 2450 3431 
Q 2728 3278 2906 2969 
L 2906 3500 
L 3481 3500 
L 3481 434 
z
" id="DejaVuSans-67" transform="scale(0.015625)"/>
       <path d="M 191 3500 
L 800 3500 
L 1894 563 
L 2988 3500 
L 3597 3500 
L 2284 0 
L 1503 0 
L 191 3500 
z
" id="DejaVuSans-76" transform="scale(0.015625)"/>
       <path d="M 3328 2828 
Q 3544 3216 3844 3400 
Q 4144 3584 4550 3584 
Q 5097 3584 5394 3201 
Q 5691 2819 5691 2113 
L 5691 0 
L 5113 0 
L 5113 2094 
Q 5113 2597 4934 2840 
Q 4756 3084 4391 3084 
Q 3944 3084 3684 2787 
Q 3425 2491 3425 1978 
L 3425 0 
L 2847 0 
L 2847 2094 
Q 2847 2600 2669 2842 
Q 2491 3084 2119 3084 
Q 1678 3084 1418 2786 
Q 1159 2488 1159 1978 
L 1159 0 
L 581 0 
L 581 3500 
L 1159 3500 
L 1159 2956 
Q 1356 3278 1631 3431 
Q 1906 3584 2284 3584 
Q 2666 3584 2933 3390 
Q 3200 3197 3328 2828 
z
" id="DejaVuSans-6d" transform="scale(0.015625)"/>
       <path d="M 1984 4856 
Q 1566 4138 1362 3434 
Q 1159 2731 1159 2009 
Q 1159 1288 1364 580 
Q 1569 -128 1984 -844 
L 1484 -844 
Q 1016 -109 783 600 
Q 550 1309 550 2009 
Q 550 2706 781 3412 
Q 1013 4119 1484 4856 
L 1984 4856 
z
" id="DejaVuSans-28" transform="scale(0.015625)"/>
       <path d="M 513 4856 
L 1013 4856 
Q 1481 4119 1714 3412 
Q 1947 2706 1947 2009 
Q 1947 1309 1714 600 
Q 1481 -109 1013 -844 
L 513 -844 
Q 928 -128 1133 580 
Q 1338 1288 1338 2009 
Q 1338 2731 1133 3434 
Q 928 4138 513 4856 
z
" id="DejaVuSans-29" transform="scale(0.015625)"/>
      </defs>
      <use xlink:href="#DejaVuSans-52"/>
      <use x="64.982422" xlink:href="#DejaVuSans-6f"/>
      <use x="126.164062" xlink:href="#DejaVuSans-6c"/>
      <use x="153.947266" xlink:href="#DejaVuSans-6c"/>
      <use x="181.730469" xlink:href="#DejaVuSans-69"/>
      <use x="209.513672" xlink:href="#DejaVuSans-6e"/>
      <use x="272.892578" xlink:href="#DejaVuSans-67"/>
      <use x="336.369141" xlink:href="#DejaVuSans-20"/>
      <use x="368.15625" xlink:href="#DejaVuSans-61"/>
      <use x="429.435547" xlink:href="#DejaVuSans-76"/>
      <use x="488.615234" xlink:href="#DejaVuSans-65"/>
      <use x="550.138672" xlink:href="#DejaVuSans-72"/>
      <use x="591.251953" xlink:href="#DejaVuSans-61"/>
      <use x="652.53125" xlink:href="#DejaVuSans-67"/>
      <use x="716.007812" xlink:href="#DejaVuSans-65"/>
      <use x="777.53125" xlink:href="#DejaVuSans-20"/>
      <use x="809.318359" xlink:href="#DejaVuSans-64"/>
      <use x="872.794922" xlink:href="#DejaVuSans-65"/>
      <use x="934.318359" xlink:href="#DejaVuSans-6d"/>
      <use x="1031.730469" xlink:href="#DejaVuSans-61"/>
      <use x="1093.009766" xlink:href="#DejaVuSans-6e"/>
      <use x="1156.388672" xlink:href="#DejaVuSans-64"/>
      <use x="1219.865234" xlink:href="#DejaVuSans-20"/>
      <use x="1251.652344" xlink:href="#DejaVuSans-28"/>
      <use x="1290.666016" xlink:href="#DejaVuSans-4d"/>
      <use x="1376.945312" xlink:href="#DejaVuSans-57"/>
      <use x="1475.822266" xlink:href="#DejaVuSans-29"/>
     </g>
    </g>
   </g>
   <g id="line2d_35">
    <path clip-path="url(#p9bce13ff8e)" d="M 38.386941 264.193962 
L 40.370517 264.640412 
L 44.337669 265.849822 
L 50.288398 268.150368 
L 52.271974 268.96497 
L 56.239126 271.317156 
L 58.222702 272.141754 
L 60.206278 272.804764 
L 62.189854 273.724315 
L 64.17343 275.003691 
L 66.157006 276.574592 
L 68.140582 278.317075 
L 70.124158 280.52933 
L 72.107735 283.33796 
L 74.091311 285.755114 
L 78.058463 289.005197 
L 82.025615 291.470661 
L 84.009191 292.476836 
L 85.992767 293.056553 
L 91.943495 294.240976 
L 93.927072 294.390903 
L 95.910648 294.679096 
L 97.894224 294.667436 
L 99.8778 294.164348 
L 101.861376 293.163169 
L 105.828528 289.698192 
L 107.812104 288.617053 
L 113.762832 287.211072 
L 117.729985 285.348647 
L 119.713561 284.862217 
L 123.680713 283.619489 
L 127.647865 282.296801 
L 129.631441 281.913656 
L 131.615017 281.350596 
L 133.598593 281.195672 
L 135.582169 281.552164 
L 137.565745 281.792048 
L 139.549322 282.145209 
L 141.532898 281.628793 
L 143.516474 280.337756 
L 145.50005 278.843484 
L 147.483626 277.549115 
L 149.467202 276.45465 
L 151.450778 275.751659 
L 153.434354 274.90374 
L 155.41793 273.569392 
L 157.401506 271.310494 
L 159.385082 267.299117 
L 161.368658 262.536439 
L 167.319387 246.627529 
L 169.302963 242.362942 
L 171.286539 239.059553 
L 173.270115 236.387523 
L 175.253691 234.123627 
L 177.237267 232.174577 
L 179.220843 230.663647 
L 181.204419 229.795737 
L 185.171572 227.85335 
L 189.138724 225.387885 
L 191.1223 223.851966 
L 193.105876 222.066169 
L 195.089452 220.598552 
L 197.073028 219.412463 
L 199.056604 218.779439 
L 203.023756 217.066939 
L 205.007332 215.032931 
L 206.990908 212.230964 
L 210.958061 206.095621 
L 214.925213 200.220152 
L 216.908789 197.366544 
L 218.892365 194.957718 
L 220.875941 193.113617 
L 222.859517 192.445609 
L 224.843093 192.214055 
L 228.810245 190.873041 
L 230.793822 189.980144 
L 232.777398 189.21385 
L 234.760974 188.137708 
L 236.74455 187.384742 
L 240.711702 186.460193 
L 246.66243 184.424519 
L 250.629582 182.730344 
L 252.613158 182.152292 
L 254.596735 181.96405 
L 256.580311 181.117796 
L 260.547463 179.130432 
L 262.531039 178.445766 
L 266.498191 176.435081 
L 270.465343 174.371087 
L 272.448919 173.018413 
L 274.432495 171.270932 
L 276.416071 168.977051 
L 282.3668 162.981641 
L 284.350376 161.300794 
L 286.333952 159.298437 
L 290.301104 157.237775 
L 292.28468 155.948404 
L 294.268256 155.063836 
L 296.251832 154.687354 
L 300.218985 152.931543 
L 302.202561 152.248543 
L 304.186137 151.848738 
L 306.169713 151.26569 
L 308.153289 151.054127 
L 318.071169 148.575335 
L 320.054745 147.779056 
L 324.021898 146.702915 
L 326.005474 146.449705 
L 327.98905 145.866657 
L 331.956202 144.33407 
L 333.939778 143.726033 
L 335.923354 143.392863 
L 337.90693 143.404524 
L 339.890506 143.772678 
L 345.841235 143.744357 
L 349.808387 142.856456 
L 351.791963 142.370027 
L 353.775539 142.763168 
L 355.759115 142.833133 
L 357.742691 142.784823 
L 361.709843 142.180116 
L 363.693419 141.983545 
L 365.676995 141.528767 
L 367.660571 141.227248 
L 369.644148 140.287705 
L 371.627724 139.123273 
L 373.6113 138.153746 
L 375.594876 136.904355 
L 377.578452 136.06643 
L 381.545604 133.922475 
L 383.52918 132.259952 
L 385.512756 130.125994 
L 387.496332 128.21859 
L 389.479908 125.633183 
L 393.447061 120.175844 
L 395.430637 117.535463 
L 397.414213 116.492638 
L 399.397789 116.044521 
L 401.381365 116.026196 
L 407.332093 115.01669 
L 409.315669 114.660198 
L 411.299245 114.548585 
L 415.266398 113.897237 
L 417.249974 114.275386 
L 419.23355 114.500277 
L 421.217126 114.135454 
L 423.200702 113.96054 
L 425.184278 114.160443 
L 427.167854 113.835602 
L 429.15143 113.36583 
L 431.135006 113.050983 
L 433.118582 112.57788 
L 437.085735 111.413448 
L 439.069311 111.093603 
L 441.052887 111.220208 
L 443.036463 111.610019 
L 445.020039 111.610019 
L 447.003615 112.056467 
L 448.987191 111.691645 
L 450.970767 111.853233 
L 452.954343 111.903209 
L 456.921495 113.772299 
L 458.905071 114.14545 
L 460.888648 114.870097 
L 462.872224 115.286561 
L 464.8558 116.214442 
L 470.806528 120.007592 
L 472.790104 120.73224 
L 474.77368 122.679623 
L 476.757256 124.065614 
L 478.740832 124.938521 
L 480.724408 126.114614 
L 482.707985 127.83211 
L 490.642289 136.414593 
L 492.625865 137.612342 
L 494.609441 138.506907 
L 496.593017 139.111613 
L 500.560169 140.08947 
L 504.527321 140.645864 
L 506.510898 140.98903 
L 508.494474 141.187267 
L 510.47805 141.115635 
L 514.445202 140.351007 
L 518.412354 140.644198 
L 520.39593 140.984032 
L 524.363082 142.128475 
L 526.346658 142.065171 
L 532.297387 142.504957 
L 534.280963 142.803146 
L 536.264539 142.939746 
L 538.248115 142.908094 
L 540.231691 143.317894 
L 542.215267 143.476151 
L 544.198843 143.521129 
L 548.165995 142.326712 
L 550.149571 141.510444 
L 552.133148 141.004023 
L 554.116724 140.830774 
L 558.083876 140.097798 
L 562.051028 139.824597 
L 566.01818 139.086624 
L 568.001756 138.93503 
L 569.985332 137.647325 
L 571.968908 137.184218 
L 573.952485 137.349137 
L 575.936061 137.630667 
L 577.919637 137.26751 
L 581.886789 136.936005 
L 583.870365 137.177555 
L 585.853941 138.082114 
L 589.821093 140.344346 
L 591.804669 141.965222 
L 595.771821 144.765522 
L 599.738974 148.235498 
L 601.72255 149.471561 
L 605.689702 150.940844 
L 607.673278 151.977005 
L 609.656854 152.673333 
L 613.624006 153.278038 
L 615.607582 153.479606 
L 617.591158 154.435806 
L 619.574735 155.761826 
L 621.558311 157.545957 
L 623.541887 158.845324 
L 625.525463 159.634939 
L 627.509039 160.069727 
L 629.492615 160.912648 
L 631.476191 162.015445 
L 633.459767 163.816235 
L 635.443343 166.631529 
L 637.426919 170.299741 
L 643.377648 182.617069 
L 645.361224 186.200322 
L 649.328376 192.155752 
L 651.311952 194.814456 
L 653.295528 197.269926 
L 655.279104 200.11354 
L 657.26268 203.636822 
L 661.229832 211.684566 
L 663.213408 215.236167 
L 669.164137 227.743402 
L 677.098441 244.496901 
L 679.082017 247.893578 
L 681.065593 250.870459 
L 687.016321 257.427262 
L 690.983474 262.238248 
L 692.96705 264.202291 
L 694.950626 265.706557 
L 696.934202 266.824346 
L 698.917778 267.560654 
L 700.901354 268.082067 
L 702.88493 268.470211 
L 702.88493 268.470211 
" style="fill:none;stroke:#d62728;stroke-dasharray:7.4,3.2;stroke-dashoffset:0;stroke-width:2;"/>
   </g>
   <g id="line2d_36">
    <path clip-path="url(#p9bce13ff8e)" d="M 38.386941 247.903902 
L 40.370517 249.848144 
L 42.354093 253.871375 
L 46.321245 263.364122 
L 48.304822 267.533003 
L 50.288398 270.936342 
L 52.271974 273.521675 
L 54.25555 275.342458 
L 56.239126 276.513 
L 58.222702 277.174984 
L 60.206278 277.470784 
L 62.189854 277.532324 
L 70.124158 277.34519 
L 74.091311 277.569461 
L 80.042039 277.963022 
L 82.025615 277.94045 
L 84.009191 277.769863 
L 85.992767 277.415498 
L 87.976343 276.837625 
L 89.959919 276.00124 
L 91.943495 274.881105 
L 93.927072 273.455027 
L 95.910648 271.708137 
L 97.894224 269.630216 
L 99.8778 267.22279 
L 101.861376 264.496382 
L 103.844952 261.475318 
L 107.812104 254.719121 
L 117.729985 236.781471 
L 119.713561 233.724567 
L 121.697137 231.136641 
L 123.680713 229.210395 
L 125.664289 228.19496 
L 127.647865 228.407411 
L 129.631441 230.172984 
L 131.615017 233.372642 
L 133.598593 253.245002 
L 135.582169 252.335792 
L 137.565745 253.805947 
L 139.549322 256.405997 
L 141.532898 259.267532 
L 143.516474 261.813136 
L 145.50005 263.692941 
L 147.483626 264.73438 
L 149.467202 264.896197 
L 151.450778 264.224222 
L 153.434354 262.815226 
L 155.41793 260.79343 
L 157.401506 258.291064 
L 159.385082 255.435477 
L 163.352235 249.107767 
L 169.302963 239.390292 
L 173.270115 233.417099 
L 177.237267 228.079355 
L 181.204419 223.409314 
L 185.171572 219.350853 
L 189.138724 215.783714 
L 197.073028 209.077389 
L 199.056604 207.210242 
L 201.04018 205.148717 
L 203.023756 202.831197 
L 205.007332 200.203237 
L 206.990908 197.221369 
L 208.974485 193.872934 
L 210.958061 190.17654 
L 214.925213 182.029725 
L 218.892365 173.890307 
L 220.875941 170.455854 
L 222.859517 167.940983 
L 224.843093 166.847842 
L 226.826669 168.806954 
L 228.810245 180.06474 
L 230.793822 175.122235 
L 232.777398 172.655023 
L 234.760974 171.461529 
L 236.74455 170.853991 
L 240.711702 169.852816 
L 242.695278 169.060661 
L 244.678854 167.963326 
L 246.66243 166.552957 
L 248.646006 164.856244 
L 250.629582 162.916729 
L 254.596735 158.514731 
L 258.563887 153.691491 
L 264.514615 146.021814 
L 270.465343 137.901155 
L 276.416071 129.285819 
L 282.3668 120.153766 
L 288.317528 110.51209 
L 292.28468 103.723713 
L 296.251832 96.507992 
L 300.218985 88.723092 
L 304.186137 80.286577 
L 308.153289 71.229866 
L 314.104017 57.461555 
L 316.087593 53.503524 
L 318.071169 50.427097 
L 320.054745 48.762107 
L 322.038321 52.387125 
L 324.021898 133.659983 
L 326.005474 129.516267 
L 327.98905 127.992656 
L 329.972626 127.549147 
L 333.939778 127.228564 
L 335.923354 126.771023 
L 337.90693 125.993052 
L 339.890506 124.903876 
L 341.874082 123.552149 
L 345.841235 120.318328 
L 355.759115 111.618499 
L 361.709843 106.815391 
L 369.644148 100.783557 
L 381.545604 91.851983 
L 385.512756 88.47358 
L 387.496332 86.588131 
L 389.479908 84.528512 
L 391.463485 82.266355 
L 393.447061 79.776191 
L 395.430637 77.034608 
L 397.414213 74.026049 
L 399.397789 70.739154 
L 401.381365 67.167364 
L 403.364941 63.31899 
L 407.332093 54.961477 
L 411.299245 46.626994 
L 413.282821 43.145568 
L 415.266398 40.711833 
L 417.249974 43.416051 
L 419.23355 102.832118 
L 421.217126 98.974594 
L 423.200702 97.598159 
L 425.184278 97.197582 
L 429.15143 96.917873 
L 431.135006 96.555195 
L 433.118582 95.961003 
L 435.102158 95.160612 
L 439.069311 93.164362 
L 445.020039 90.030514 
L 448.987191 88.290411 
L 452.954343 86.975592 
L 456.921495 86.103138 
L 460.888648 85.660544 
L 464.8558 85.616239 
L 468.822952 85.95886 
L 472.790104 86.648832 
L 476.757256 87.605702 
L 480.724408 88.83252 
L 484.691561 90.367111 
L 488.658713 92.183853 
L 496.593017 96.010646 
L 498.576593 96.766427 
L 500.560169 97.335836 
L 502.543745 97.682042 
L 504.527321 97.811907 
L 508.494474 97.83181 
L 510.47805 98.208747 
L 512.461626 101.802881 
L 514.445202 131.082047 
L 516.428778 128.253226 
L 518.412354 127.694264 
L 520.39593 128.262987 
L 522.379506 129.395781 
L 528.330235 133.361438 
L 530.313811 134.401885 
L 532.297387 135.197701 
L 534.280963 135.733252 
L 536.264539 136.006327 
L 538.248115 136.02501 
L 540.231691 135.800282 
L 542.215267 135.348079 
L 544.198843 134.68373 
L 546.182419 133.829654 
L 548.165995 132.814448 
L 552.133148 130.442786 
L 560.067452 125.14073 
L 568.001756 119.918438 
L 573.952485 116.319042 
L 577.919637 114.1397 
L 581.886789 112.203846 
L 585.853941 110.553726 
L 589.821093 109.183239 
L 597.755398 106.605074 
L 601.72255 105.127828 
L 603.706126 104.531729 
L 605.689702 104.276879 
L 607.673278 106.869152 
L 609.656854 138.342758 
L 611.64043 135.153167 
L 613.624006 133.861453 
L 615.607582 133.607366 
L 617.591158 133.999554 
L 619.574735 134.811079 
L 621.558311 135.901779 
L 623.541887 137.190214 
L 625.525463 138.635432 
L 627.509039 140.225843 
L 629.492615 141.972199 
L 631.476191 143.898216 
L 633.459767 146.035464 
L 635.443343 148.412845 
L 637.426919 151.047212 
L 639.410495 153.941079 
L 641.394071 157.083621 
L 645.361224 164.036865 
L 649.328376 171.691748 
L 655.279104 183.863471 
L 661.229832 196.047319 
L 665.196984 203.802099 
L 669.164137 211.089271 
L 673.131289 217.783624 
L 677.098441 223.805163 
L 681.065593 229.126512 
L 685.032745 233.778861 
L 688.999898 237.852116 
L 698.917778 247.201272 
L 702.88493 251.973497 
L 702.88493 251.973497 
" style="fill:none;stroke:#1f77b4;stroke-linecap:square;stroke-width:1.5;"/>
   </g>
   <g id="patch_3">
    <path d="M 36.403365 326.64351 
L 36.403365 6.799459 
" style="fill:none;stroke:#000000;stroke-linecap:square;stroke-linejoin:miter;stroke-width:0.8;"/>
   </g>
   <g id="patch_4">
    <path d="M 706.852082 326.64351 
L 706.852082 6.799459 
" style="fill:none;stroke:#000000;stroke-linecap:square;stroke-linejoin:miter;stroke-width:0.8;"/>
   </g>
   <g id="patch_5">
    <path d="M 36.403365 326.64351 
L 706.852082 326.64351 
" style="fill:none;stroke:#000000;stroke-linecap:square;stroke-linejoin:miter;stroke-width:0.8;"/>
   </g>
   <g id="patch_6">
    <path d="M 36.403365 6.799459 
L 706.852082 6.799459 
" style="fill:none;stroke:#000000;stroke-linecap:square;stroke-linejoin:miter;stroke-width:0.8;"/>
   </g>
   <g id="legend_1">
    <g id="patch_7">
     <path d="M 164.005067 29.477584 
L 579.25038 29.477584 
L 579.25038 11.799459 
L 164.005067 11.799459 
z
" style="fill:#ffffff;opacity:0.95;stroke:#000000;stroke-linejoin:miter;"/>
    </g>
    <g id="line2d_37">
     <path d="M 168.005067 19.897896 
L 188.005067 19.897896 
" style="fill:none;stroke:#d62728;stroke-dasharray:7.4,3.2;stroke-dashoffset:0;stroke-width:2;"/>
    </g>
    <g id="line2d_38"/>
    <g id="text_20">
     <!-- Actual rolling average demand -->
     <g transform="translate(196.005067 23.397896)scale(0.1 -0.1)">
      <defs>
       <path d="M 2188 4044 
L 1331 1722 
L 3047 1722 
L 2188 4044 
z
M 1831 4666 
L 2547 4666 
L 4325 0 
L 3669 0 
L 3244 1197 
L 1141 1197 
L 716 0 
L 50 0 
L 1831 4666 
z
" id="DejaVuSans-41" transform="scale(0.015625)"/>
       <path d="M 3122 3366 
L 3122 2828 
Q 2878 2963 2633 3030 
Q 2388 3097 2138 3097 
Q 1578 3097 1268 2742 
Q 959 2388 959 1747 
Q 959 1106 1268 751 
Q 1578 397 2138 397 
Q 2388 397 2633 464 
Q 2878 531 3122 666 
L 3122 134 
Q 2881 22 2623 -34 
Q 2366 -91 2075 -91 
Q 1284 -91 818 406 
Q 353 903 353 1747 
Q 353 2603 823 3093 
Q 1294 3584 2113 3584 
Q 2378 3584 2631 3529 
Q 2884 3475 3122 3366 
z
" id="DejaVuSans-63" transform="scale(0.015625)"/>
      </defs>
      <use xlink:href="#DejaVuSans-41"/>
      <use x="66.658203" xlink:href="#DejaVuSans-63"/>
      <use x="121.638672" xlink:href="#DejaVuSans-74"/>
      <use x="160.847656" xlink:href="#DejaVuSans-75"/>
      <use x="224.226562" xlink:href="#DejaVuSans-61"/>
      <use x="285.505859" xlink:href="#DejaVuSans-6c"/>
      <use x="313.289062" xlink:href="#DejaVuSans-20"/>
      <use x="345.076172" xlink:href="#DejaVuSans-72"/>
      <use x="383.939453" xlink:href="#DejaVuSans-6f"/>
      <use x="445.121094" xlink:href="#DejaVuSans-6c"/>
      <use x="472.904297" xlink:href="#DejaVuSans-6c"/>
      <use x="500.6875" xlink:href="#DejaVuSans-69"/>
      <use x="528.470703" xlink:href="#DejaVuSans-6e"/>
      <use x="591.849609" xlink:href="#DejaVuSans-67"/>
      <use x="655.326172" xlink:href="#DejaVuSans-20"/>
      <use x="687.113281" xlink:href="#DejaVuSans-61"/>
      <use x="748.392578" xlink:href="#DejaVuSans-76"/>
      <use x="807.572266" xlink:href="#DejaVuSans-65"/>
      <use x="869.095703" xlink:href="#DejaVuSans-72"/>
      <use x="910.208984" xlink:href="#DejaVuSans-61"/>
      <use x="971.488281" xlink:href="#DejaVuSans-67"/>
      <use x="1034.964844" xlink:href="#DejaVuSans-65"/>
      <use x="1096.488281" xlink:href="#DejaVuSans-20"/>
      <use x="1128.275391" xlink:href="#DejaVuSans-64"/>
      <use x="1191.751953" xlink:href="#DejaVuSans-65"/>
      <use x="1253.275391" xlink:href="#DejaVuSans-6d"/>
      <use x="1350.6875" xlink:href="#DejaVuSans-61"/>
      <use x="1411.966797" xlink:href="#DejaVuSans-6e"/>
      <use x="1475.345703" xlink:href="#DejaVuSans-64"/>
     </g>
    </g>
    <g id="line2d_39">
     <path d="M 369.889442 19.897896 
L 389.889442 19.897896 
" style="fill:none;stroke:#1f77b4;stroke-linecap:square;stroke-width:1.5;"/>
    </g>
    <g id="line2d_40"/>
    <g id="text_21">
     <!-- Forecasted rolling average demand -->
     <g transform="translate(397.889442 23.397896)scale(0.1 -0.1)">
      <defs>
       <path d="M 2834 3397 
L 2834 2853 
Q 2591 2978 2328 3040 
Q 2066 3103 1784 3103 
Q 1356 3103 1142 2972 
Q 928 2841 928 2578 
Q 928 2378 1081 2264 
Q 1234 2150 1697 2047 
L 1894 2003 
Q 2506 1872 2764 1633 
Q 3022 1394 3022 966 
Q 3022 478 2636 193 
Q 2250 -91 1575 -91 
Q 1294 -91 989 -36 
Q 684 19 347 128 
L 347 722 
Q 666 556 975 473 
Q 1284 391 1588 391 
Q 1994 391 2212 530 
Q 2431 669 2431 922 
Q 2431 1156 2273 1281 
Q 2116 1406 1581 1522 
L 1381 1569 
Q 847 1681 609 1914 
Q 372 2147 372 2553 
Q 372 3047 722 3315 
Q 1072 3584 1716 3584 
Q 2034 3584 2315 3537 
Q 2597 3491 2834 3397 
z
" id="DejaVuSans-73" transform="scale(0.015625)"/>
      </defs>
      <use xlink:href="#DejaVuSans-46"/>
      <use x="53.894531" xlink:href="#DejaVuSans-6f"/>
      <use x="115.076172" xlink:href="#DejaVuSans-72"/>
      <use x="153.939453" xlink:href="#DejaVuSans-65"/>
      <use x="215.462891" xlink:href="#DejaVuSans-63"/>
      <use x="270.443359" xlink:href="#DejaVuSans-61"/>
      <use x="331.722656" xlink:href="#DejaVuSans-73"/>
      <use x="383.822266" xlink:href="#DejaVuSans-74"/>
      <use x="423.03125" xlink:href="#DejaVuSans-65"/>
      <use x="484.554688" xlink:href="#DejaVuSans-64"/>
      <use x="548.03125" xlink:href="#DejaVuSans-20"/>
      <use x="579.818359" xlink:href="#DejaVuSans-72"/>
      <use x="618.681641" xlink:href="#DejaVuSans-6f"/>
      <use x="679.863281" xlink:href="#DejaVuSans-6c"/>
      <use x="707.646484" xlink:href="#DejaVuSans-6c"/>
      <use x="735.429688" xlink:href="#DejaVuSans-69"/>
      <use x="763.212891" xlink:href="#DejaVuSans-6e"/>
      <use x="826.591797" xlink:href="#DejaVuSans-67"/>
      <use x="890.068359" xlink:href="#DejaVuSans-20"/>
      <use x="921.855469" xlink:href="#DejaVuSans-61"/>
      <use x="983.134766" xlink:href="#DejaVuSans-76"/>
      <use x="1042.314453" xlink:href="#DejaVuSans-65"/>
      <use x="1103.837891" xlink:href="#DejaVuSans-72"/>
      <use x="1144.951172" xlink:href="#DejaVuSans-61"/>
      <use x="1206.230469" xlink:href="#DejaVuSans-67"/>
      <use x="1269.707031" xlink:href="#DejaVuSans-65"/>
      <use x="1331.230469" xlink:href="#DejaVuSans-20"/>
      <use x="1363.017578" xlink:href="#DejaVuSans-64"/>
      <use x="1426.494141" xlink:href="#DejaVuSans-65"/>
      <use x="1488.017578" xlink:href="#DejaVuSans-6d"/>
      <use x="1585.429688" xlink:href="#DejaVuSans-61"/>
      <use x="1646.708984" xlink:href="#DejaVuSans-6e"/>
      <use x="1710.087891" xlink:href="#DejaVuSans-64"/>
     </g>
    </g>
   </g>
  </g>
 </g>
 <defs>
  <clipPath id="p9bce13ff8e">
   <rect height="319.844051" width="670.448717" x="36.403365" y="6.799459"/>
  </clipPath>
 </defs>
</svg>
